<svg xmlns="http://www.w3.org/2000/svg" viewBox="0 0 1012.45 583.98">
  <title>EH-Asset 100-layername</title>
  <g id="Layer_2" data-name="Layer 2">
    <g id="EsSabur">
      <g>
        <path d="M146.24,116q0,18-16.4,39.52l7.48,7.32L128.77,187a170.85,170.85,0,0,1-16.12-12.74Q74.81,209.48,55,209.47q-3.9,0-13.43-2.93,29.79-14.4,62.26-38.08-9.63-9.28-9.62-16.36,0-12.69,13.85-29.66t26-17Q146.24,105.47,146.24,116Zm-19.53,21.53q0-11.27-9.67-11.27l-3.72,1.47A10.94,10.94,0,0,0,110.6,135q0,4.89,11.65,14.44Q126.71,141.89,126.71,137.49Z"/>
        <path d="M268.55,284.32q0,26.24-8.05,27.69L253.91,304q-6.84.24-11.23,8.06-12,20.78-25.39,54.27-11,28.09-22,56-9.27,22-28.56,43.51-20.5,23-40.77,32-23,10.51-63.24,10.51Q2,508.3,0,502l2.44-1.77q51.27,0,95.22-21.95,45.65-22.92,73.24-64.62,14.88-22.69,32-60.25l22.46-50.24q19-37.8,29.54-37.8,5.87,0,10,6.8A22.54,22.54,0,0,1,268.55,284.32Z"/>
        <path d="M499,360.6,486.57,407q-15.63,12.48-56.39,29.83-8.18,36.42-39.07,78-32.22,43.51-64.45,57.45Q299.55,584,258.54,584q-15.62,0-46.38-5.19-36.63-5.94-37.84-12.61l2-1.48q7.32.24,23.19,2.93,15.15,2.43,23.44,2.44,16.85,0,49.32-9.52,70.54-20.76,122.31-81.79,18.06-21.24,20.51-37.11-21.24,5.87-28.57,5.86-22.22,0-22.21-14.65,0-15.37,12.45-38.82,13.92-26.12,27.59-26.12,11.94,0,21.35,9.28t9.41,21.24Q476.07,381.1,499,360.6Z"/>
        <path d="M550.54,116q0,18-16.4,39.52l7.47,7.32L533.07,187A168.32,168.32,0,0,1,517,174.21q-37.85,35.26-57.62,35.26-3.91,0-13.43-2.93,29.79-14.4,62.26-38.08-9.63-9.28-9.62-16.36,0-12.69,13.85-29.66t26-17Q550.54,105.47,550.54,116ZM531,137.49q0-11.27-9.67-11.27l-3.72,1.47a11,11,0,0,0-2.73,7.35q0,4.89,11.65,14.44Q531,141.89,531,137.49Z"/>
        <path d="M800.78,360.6l-12.45,46.63q-25.87,16.61-59.33,16.6-38.57,0-54.52-47.85-19.38,9.57-32.63,12.45-1.23,14-4.15,30.23l-1.23.49-1.22-.49q-.24-14.51.49-28.77-28.08,7.83-65.67,7.83l-6.59-1.24q-4.89,4.68-15.38,12.81l12.2-45.09,26.86-30.7a44.83,44.83,0,0,1,.73,8.3q0,14.64-14.4,38.08h9.27q15.87,0,57.38-19,8.79-33.69,14.16-48.1,11-29.78,25.14-41.5,11-9.27,47.12-23,33.45-12.69,44-12.69a34.8,34.8,0,0,1,3.66.24q4.16,3.91,4.15,12.45,0,4.16-7.3,23.44-21.19,56.16-80.35,94.73,18.08,16.35,36.62,16.35Q771.48,382.81,800.78,360.6Zm-43.7-80.81a5.24,5.24,0,0,0-1-2.93l-4.39-.49q-11.48,0-42.24,12.17-32.72,12.9-42.72,23.61-10.75,11.93-18.56,45a420.84,420.84,0,0,0,82-51.52Q757.09,284.18,757.08,279.79Z"/>
        <path d="M873.54,207.28q0,68.84-17.34,113.76-21,53.71-71.78,88.87l12.21-45.65q62.25-49.81,62.26-100.1,0-37.59-23.68-91.06-4.59,23.93-13.78,71.53-3.85,20.5-6.51,20.51l-2.18-.74-.48-3.17q0-19.77,10.21-74.22,10.69-58.83,18.48-67.63,13.38,8.31,23.59,40.29Q873.53,187.26,873.54,207.28Z"/>
        <path d="M921.39,0q-5.13,16.61-14.16,21L821.78,63q3.9-15.14,23-24.66Z"/>
        <path d="M508.06,388.18q-10,0-14.16-2.68,19-26.13,19-43.95a42.43,42.43,0,0,0-.73-8.3Q498.53,348.88,485.35,364l-12.21,45.32,6.6-5.16q9.75,18,30.76,17.95,19.77,0,40.28-15l12.45-46.52q-9.76,9.76-25.63,18.31Q519.77,388.18,508.06,388.18Z"/>
        <path d="M480.71,454.35q-21,32.22-22,34.42l21.48,14.89q11-10,22.71-33Q502.93,462.41,480.71,454.35Z"/>
        <path d="M589.11,107.67q-9.29,0-9.28-17.83L574,91.31q-18.56,32.47-30,32.47-8.55,0-8.55-11.48l.73-7.56-8.54,4.64q-6.84,18.59-6.84,25.25,0,13.81,14.2,13.81,16.39,0,31.08-21.15,8.81,6.26,14.44,6.25,17.63,0,29.12-21.24,8.56-15.61,11-36.62L613,77.88Q603.28,107.67,589.11,107.67Z"/>
        <path d="M530,98.88l79.83-28.32q9.76-3.42,16.85-18.56L557.13,76.42Q540.77,82,530,98.88Z"/>
        <path d="M993.47,201.9a525,525,0,0,0-44.79-103q-15.09,45.41-15.09,136,0,48.84,8,50.3,5.55-2.69,5.55-28.08,0-13.66,6.27-60.55,12.27,23.21,26.52,62.26,16.2,44.67,16.2,63,0,25.64-15.38,50.78-9,14.9-33.44,42.23-10.5,11-21.24,22.22-12.46,13.42-17.83,24.42a2.12,2.12,0,0,0,2.44,1.95q2.19,0,10.23-2.93,57-20.74,75.75-54.93,15.82-28.57,15.83-93.51Q1012.45,262.71,993.47,201.9Z"/>
        <path d="M925.78,80.57q0-7.33-8.79-7.33c-8.14,0-12.2-1.13-12.2-3.42q0-6.09,7.32-6.1a11.88,11.88,0,0,1,4.88,1q2.44-1.71,7-10.28t5.25-12.2a15,15,0,0,0-5.4-1.69q-10.32,0-23.82,17.82T886.47,86.67q0,9.52,9.66,9.28c5.11-.16,7.91.24,8.41,1.22q-3.91,5.37-25.64,13.43l-29.78,10.25c0,2,1,2.93,3.17,2.93q20.51,0,44.92-11.48Q925.79,98.64,925.78,80.57Z"/>
      </g>
    </g>
  </g>
</svg>
