<?xml version="1.0" encoding="utf-8"?>
<!-- Generator: Adobe Illustrator 22.1.0, SVG Export Plug-In . SVG Version: 6.00 Build 0)  -->
<svg version="1.1" id="Layer_1" xmlns="http://www.w3.org/2000/svg" xmlns:xlink="http://www.w3.org/1999/xlink" x="0px" y="0px"
	 viewBox="0 0 1012.5 584" style="enable-background:new 0 0 1012.5 584;" xml:space="preserve">
<style type="text/css">
	.st0{display:none;}
</style>
<title>EH-Asset 100-layername</title>
<g id="Layer_2_1_">
	<g id="EsSabur">
		<g>
			<path d="M126.7,137.5C126.7,137.5,126.7,137.5,126.7,137.5C126.7,137.5,126.7,137.5,126.7,137.5L126.7,137.5z"/>
			<path d="M146.2,116c0-7-4.1-10.5-12.2-10.6c-8.1,0-16.8,5.7-26,17s-13.8,21.2-13.8,29.7c0,4.6,3.1,9.9,9.2,15.9l18.3-19.1
				c-7.4-6.1-11.1-10.8-11.1-14c0-2.7,1-5.3,2.7-7.3l3.7-1.5c6.4,0,9.7,3.7,9.7,11.2c0,0,0,0,0,0v0c0,0,0,0,0,0
				c0,2.9-1.5,6.9-4.5,11.9l-18.4,19c-21.6,15.8-42.4,28.5-62.3,38.1c6.4,2,10.8,2.9,13.4,2.9c13.2,0,32.4-11.7,57.7-35.2
				c5.1,4.6,10.5,8.8,16.1,12.7l8.5-24.2l-7.5-7.3C140.8,141.2,146.2,128,146.2,116z"/>
			<path d="M268.5,284.3c0,17.5-2.7,26.7-8,27.7l-6.6-8c-4.6,0.2-8.3,2.8-11.2,8.1c-8,13.9-16.5,31.9-25.4,54.3
				c-7.3,18.7-14.7,37.4-22,56c-6.2,14.7-15.7,29.2-28.6,43.5c-13.7,15.3-27.3,26-40.8,32c-15.3,7-36.4,10.5-63.2,10.5
				c-40.5,0-61.4-2.2-62.7-6.4l2.4-1.8c34.2,0,65.9-7.3,95.2-22c30.4-15.3,54.8-36.8,73.2-64.6c9.9-15.1,20.6-35.2,32-60.3
				l22.5-50.2c12.7-25.2,22.5-37.8,29.5-37.8c3.9,0,7.2,2.3,10,6.8C267.3,275.8,268.5,280,268.5,284.3z"/>
			<path d="M499,360.6L486.6,407c-10.4,8.3-29.2,18.3-56.4,29.8c-5.5,24.3-18.5,50.3-39.1,78c-21.5,29-43,48.2-64.5,57.5
				c-18.1,7.8-40.8,11.7-68.1,11.7c-10.4,0-25.9-1.7-46.4-5.2c-24.4-4-37-8.2-37.8-12.6l2-1.5c4.9,0.2,12.6,1.1,23.2,2.9
				c10.1,1.6,17.9,2.4,23.4,2.4c11.2,0,27.7-3.2,49.3-9.5c47-13.8,87.8-41.1,122.3-81.8c12-14.2,18.9-26.5,20.5-37.1
				c-14.2,3.9-23.7,5.9-28.6,5.9c-14.8,0-22.2-4.9-22.2-14.6c0-10.2,4.2-23.2,12.5-38.8c9.3-17.4,18.5-26.1,27.6-26.1
				c8,0,15.1,3.1,21.4,9.3c6.3,6.2,9.4,13.3,9.4,21.2C462.4,386.9,483.7,374.3,499,360.6z"/>
			<path d="M550.5,116c0-7-4-10.5-12.1-10.6c-8.1,0-16.8,5.7-26,17c-9.2,11.3-13.8,21.2-13.8,29.7c0,4.4,3.7,10.1,9.4,15.9
				l18.3-18.8c-7-5.9-11.4-11-11.4-14.1c0-2.7,0.9-5.3,2.7-7.3l3.7-1.5c6.4,0,9.7,3.8,9.7,11.3c0,2.9-1.5,6.9-4.5,12l-18.3,19
				c-21.6,15.8-42.4,28.5-62.3,38.1c6.3,2,10.8,2.9,13.4,2.9c13.2,0,32.4-11.8,57.6-35.3c5.1,4.6,10.5,8.9,16.1,12.8l8.5-24.2
				l-7.5-7.3C545.1,141.2,550.5,128,550.5,116z"/>
			<path d="M727.3,382.8c-12.4,0-24.6-5.5-36.6-16.3c39.4-25.7,66.2-57.3,80.3-94.7c4.9-12.9,7.3-20.7,7.3-23.4
				c0-5.7-1.4-9.8-4.2-12.4c-1.2-0.1-2.4-0.2-3.7-0.2c-7,0-21.7,4.2-44,12.7c-24.1,9.2-39.8,16.8-47.1,23
				c-9.4,7.8-17.8,21.6-25.1,41.5c-3.5,9.4-8.1,25.1-13.8,46.9c2.7-0.9,5.4-2.5,7.9-3.8c0.1,0,0.1,0,0.2,0
				c5.1-21.3,11.2-35.9,18.2-43.7c6.7-7.1,20.9-15,42.7-23.6c20.5-8.1,34.6-12.2,42.2-12.2l4.4,0.5c0.6,0.9,1,1.9,1,2.9
				c0,2.9-9,11.5-26.9,25.8c-25.3,20.3-52.8,37.6-82,51.5c0,0,0-0.1,0-0.1c-2.5,1.4-5.3,3-8,3.7c0,0,0,0,0,0.1
				c-27.7,12.7-46.8,19-57.4,19h-9.3c9.6-15.6,14.4-28.3,14.4-38.1c0-2.8-0.2-5.6-0.7-8.3l-26.9,30.7l-12.2,45.1
				c7-5.4,12.1-9.7,15.4-12.8l6.6,1.2c25.1,0,46.9-2.6,65.7-7.8c-0.5,9.5-0.6,19.1-0.5,28.8l1.2,0.5l1.2-0.5
				c1.9-10.8,3.3-20.9,4.2-30.2c8.8-1.9,19.7-6.1,32.6-12.5c10.6,31.9,28.8,47.8,54.5,47.9c22.3,0,42.1-5.5,59.3-16.6l12.5-46.6
				C781.2,375.4,756.8,382.8,727.3,382.8z"/>
			<path d="M873.5,207.3c0,45.9-5.8,83.8-17.3,113.8c-14,35.8-37.9,65.4-71.8,88.9l12.2-45.6c41.5-33.2,62.3-66.6,62.3-100.1
				c0-25.1-7.9-55.4-23.7-91.1c-3.1,16-7.7,39.8-13.8,71.5c-2.6,13.7-4.7,20.5-6.5,20.5l-2.2-0.7l-0.5-3.2
				c0-13.2,3.4-37.9,10.2-74.2c7.1-39.2,13.3-61.8,18.5-67.6c8.9,5.5,16.8,19,23.6,40.3C870.5,178.1,873.5,193.9,873.5,207.3z"/>
			<path d="M921.4,0c-3.4,11.1-8.1,18.1-14.2,21l-85.5,42c2.6-10.1,10.3-18.3,23-24.7L921.4,0z"/>
			<path d="M508.1,388.2c-6.7,0-11.4-0.9-14.2-2.7c12.7-17.4,19-32.1,19-44c0-2.8-0.2-5.6-0.7-8.3c-9.1,10.4-18,20.7-26.8,30.8
				l-12.2,45.3l6.6-5.2c6.5,12,16.8,18,30.8,18c13.2,0,26.6-5,40.3-15l12.5-46.5c-6.5,6.5-15.1,12.6-25.6,18.3
				C525.7,385.1,515.9,388.2,508.1,388.2z"/>
			<path d="M480.7,454.4c-14,21.5-21.3,33-22,34.4l21.5,14.9c7.3-6.7,14.9-17.7,22.7-33C502.9,465.2,495.5,459.7,480.7,454.4z"/>
			<path class="st0" d="M589.1,107.7c-6.2,0-9.3-5.9-9.3-17.8l-5.8,1.5c-12.4,21.6-22.4,32.5-30,32.5c-5.7,0-8.5-3.8-8.5-11.5
				l0.7-7.6l-8.5,4.6c-4.6,12.4-6.8,20.8-6.8,25.3c0,9.2,4.7,13.8,14.2,13.8c10.9,0,21.3-7.1,31.1-21.2c5.9,4.2,10.7,6.3,14.4,6.3
				c11.8,0,21.5-7.1,29.1-21.2c5.7-10.4,9.4-22.6,11-36.6l-7.6,2.2C606.5,97.7,598.6,107.7,589.1,107.7z"/>
			<path d="M530,98.9l79.8-28.3c6.5-2.3,12.1-8.5,16.8-18.6l-69.5,24.4C546.2,80.1,537.2,87.6,530,98.9z"/>
			<path d="M993.5,201.9c-11.2-35.8-26.2-70.4-44.8-103c-10.1,30.3-15.1,75.6-15.1,136c0,32.6,2.7,49.3,8,50.3
				c3.7-1.8,5.5-11.2,5.5-28.1c0-9.1,2.1-29.3,6.3-60.6c8.2,15.5,17,36.2,26.5,62.3c10.8,29.8,16.2,50.8,16.2,63
				c0,17.1-5.1,34-15.4,50.8c-6,9.9-17.1,24-33.4,42.2c-7,7.3-14.1,14.7-21.2,22.2c-8.3,8.9-14.3,17.1-17.8,24.4
				c0.1,1.2,1.1,2.1,2.3,2c0.1,0,0.1,0,0.2,0c1.5,0,4.9-1,10.2-2.9c38-13.8,63.3-32.1,75.8-54.9c10.5-19,15.8-50.2,15.8-93.5
				C1012.5,279.2,1006.1,242.4,993.5,201.9z"/>
			<path d="M925.8,80.6c0-4.9-2.9-7.3-8.8-7.3c-8.1,0-12.2-1.1-12.2-3.4c0-4.1,2.4-6.1,7.3-6.1c1.7,0,3.3,0.3,4.9,1
				c1.6-1.1,4-4.6,7-10.3c3-5.7,4.8-9.8,5.3-12.2c-1.7-0.9-3.5-1.5-5.4-1.7c-6.9,0-14.8,5.9-23.8,17.8s-13.5,21.3-13.6,28.3
				c0,6.3,3.2,9.4,9.7,9.3c5.1-0.2,7.9,0.2,8.4,1.2c-2.6,3.6-11.2,8.1-25.6,13.4l-29.8,10.3c0,2,1,2.9,3.2,2.9
				c13.7,0,28.6-3.8,44.9-11.5C916.3,103.2,925.8,92.6,925.8,80.6z"/>
		</g>
	</g>
</g>
</svg>
