<svg xmlns="http://www.w3.org/2000/svg" viewBox="0 0 870.36 691.89">
  <title>EH-Asset 32-layername</title>
  <g id="Layer_2" data-name="Layer 2">
    <g id="ElHabir">
      <g>
        <path d="M213.62,10.49q0,18.06-16.39,39.52l7.47,7.32-8.55,24.15A172.3,172.3,0,0,1,180,68.75Q142.19,104,122.41,104q-3.9,0-13.42-2.93Q138.77,86.67,171.24,63q-9.62-9.29-9.62-16.36,0-12.69,13.85-29.66t26-17Q213.62,0,213.62,10.49ZM194.09,32q0-11.26-9.66-11.27l-3.72,1.47A11,11,0,0,0,178,29.57q0,4.89,11.65,14.44C192.6,39,194.09,35,194.09,32Z"/>
        <path d="M433.59,628.91q-5.11,16.59-14.16,21l-85.45,42q3.91-15.14,22.95-24.65Z"/>
        <path d="M508.54,126.46q-5.12,16.62-14.16,21l-85.44,42q3.9-15.13,22.94-24.66Z"/>
        <path d="M684.33,52.25q0,19-15.07,35.4T635.08,104Q615,104,615,86.43q0-19.79,14-38.33,15.18-20.26,34.3-20.27,8.57,0,15.19,8.06A26.15,26.15,0,0,1,684.33,52.25ZM668.46,68.42q0-5.94-8-12.89t-13.87-7q-7.36,0-13.39,6.7t-6,14.14q0,10.67,19.15,10.66Q668.46,80.08,668.46,68.42Z"/>
        <path d="M731.45,248.29q0,68.85-17.34,113.77-21,53.71-71.78,88.87l12.21-45.66q62.25-49.8,62.26-100.09,0-37.6-23.68-91.07-4.59,23.92-13.78,71.53-3.86,20.52-6.51,20.51l-2.18-.73-.48-3.17q0-19.78,10.21-74.22,10.7-58.84,18.48-67.63,13.38,8.31,23.59,40.28Q731.44,228.28,731.45,248.29Z"/>
        <path d="M779.3,41q-5.13,16.6-14.16,21l-85.45,42q3.9-15.14,22.95-24.65Z"/>
        <path d="M241.21,620.85l.25,2.2q12.16-5.87,27.49-14.9Q294.74,593,299.36,587.4q6.57-7.56,12.9-34.18-38.42,21.24-55.42,30Q241.21,613.28,241.21,620.85Z"/>
        <path d="M373.25,406.07q-28.1,21.66-44.64,21.66-12,0-20.5-5.61a20.83,20.83,0,0,1-9.53-18.07l-1.22-3.17Q265.88,419,250.24,428.71,231,440.44,219.48,473.19q-8.05,26.88-16.35,53.77-34.18,89.68-104,124.88-37.35,18.81-70.07,18.81A153.75,153.75,0,0,1,2,668.21L0,670.7l.24,1.74q21.5,10.17,77.4,10.18,95,0,134-125.68,4.88-17.61,10-35.46,6.58-20.53,16.36-32.28,13.91-16.86,48.09-35.69,5.87,20.13,25.15,20.12,20.5,0,54-24.79l.53-2-4.43,3.48Z"/>
        <path d="M368.9,495.36q-21,32.24-22,34.43l21.49,14.89q11-10,22.7-33Q391.11,503.42,368.9,495.36Z"/>
        <path d="M451.31,402l.11-.38q-9.78,9.76-25.64,18.31-17.82,9.29-29.54,9.28c-6.68,0-11.39-.89-14.16-2.69q19.05-26.11,19-43.94a42.43,42.43,0,0,0-.73-8.3Q386.71,389.9,373.54,405l-.29,1c1.46-1.12,2.93-2.27,4.44-3.48l-11.93,44.28,2.16-1.69q9.76,18,30.76,17.95,18.52,0,37.68-13.15l12.37-45.55Z"/>
        <path d="M373.25,406.07l-11.92,44.28,4.43-3.48,11.93-44.28C376.18,403.8,374.71,405,373.25,406.07Z"/>
        <path d="M557.83,413.57q-13.92-11.47-13.91-30.28a112.67,112.67,0,0,1,1.73-19.78q26.13-23.2,75.44-33.21,11.24-15.87,15.63-39.32a76.72,76.72,0,0,1-32.23,6.8q-11,0-31.86-6.19T541,285.4q-41.13,0-61.2,37.08-10.29,19-22,73.42L451.31,402,439,448.14c-.86.63-1.73,1.24-2.6,1.84l-.08.31q11.72-8.73,17.58-13.35l-2,30.27v30.52l1.23,1.22,1.22-.73,2.19-4.15q-1-26.37,6.59-64.95,37-32.25,69.34-56.94-4.38,19.51-4.38,31.95,0,26.08,15.33,44.13,16.13,19,42,19,29.77,0,59.81-18.51l12.45-46.49q-28.06,22-67.87,22Q570.78,424.32,557.83,413.57Zm-50-57.29q-10.74,7.83-39.55,31.57,9.76-62.66,54.45-62.65,7.8,0,28.32,4.89Q530.75,339.39,507.81,356.28Z"/>
        <path d="M540.68,200.68q0-3.9-9.53-9.76-4.64-2.68-12.94-6.59-20.5,30.75-22.46,34.66a212.72,212.72,0,0,0,21.73,14.65Q529,223.88,540.68,200.68Z"/>
        <path d="M451.31,402l-2.58,2.44L436.36,450c.87-.6,1.74-1.21,2.6-1.84Z"/>
        <path d="M851.38,242.92a524.78,524.78,0,0,0-44.79-103q-15.09,45.42-15.09,136,0,48.83,8,50.29Q805,323.49,805,298.1q0-13.68,6.27-60.55,12.27,23.19,26.52,62.25,16.2,44.68,16.2,63,0,25.63-15.38,50.78-9,14.9-33.44,42.24L783.94,478q-12.47,13.43-17.83,24.41c.16,1.31,1,1.95,2.44,1.95s4.87-1,10.23-2.93q57-20.74,75.75-54.93Q870.36,418,870.36,353,870.36,303.71,851.38,242.92Z"/>
        <path d="M783.69,121.58q0-7.32-8.79-7.32-12.21,0-12.2-3.42,0-6.11,7.32-6.1a11.88,11.88,0,0,1,4.88,1q2.45-1.69,7-10.27t5.25-12.21a15.25,15.25,0,0,0-5.4-1.69q-10.32,0-23.82,17.83t-13.51,28.32q0,9.51,9.66,9.27,7.66-.24,8.41,1.22-3.91,5.38-25.64,13.43L707,161.87c0,1.95,1.05,2.92,3.17,2.92q20.5,0,44.92-11.47Q783.7,139.66,783.69,121.58Z"/>
      </g>
    </g>
  </g>
</svg>
