<?xml version="1.0" encoding="utf-8"?>
<!-- Generator: Adobe Illustrator 22.1.0, SVG Export Plug-In . SVG Version: 6.00 Build 0)  -->
<svg version="1.1" id="Layer_1" xmlns="http://www.w3.org/2000/svg" xmlns:xlink="http://www.w3.org/1999/xlink" x="0px" y="0px"
	 viewBox="0 0 870.4 691.9" style="enable-background:new 0 0 870.4 691.9;" xml:space="preserve">
<title>EH-Asset 32-layername</title>
<g id="Layer_2_1_">
	<g id="ElHabir">
		<g>
			<path d="M213.6,10.5c0-7-4-10.5-12.1-10.5c-8.1,0-16.8,5.7-26,17c0,0.1-0.1,0.1-0.1,0.2c1.8,1.6,3.6,3.4,5.2,5.3
				c0.1-0.1,0.1-0.1,0.2-0.2l3.7-1.5c6.4,0,9.7,3.8,9.7,11.3c0,3-1.5,7-4.4,12c-7.8-6.4-11.7-11.2-11.7-14.4c0-2.6,0.9-5.2,2.5-7.2
				c-1.6-1.9-3.4-3.6-5.2-5.3c-9.1,11.2-13.7,21.1-13.7,29.5c0,4.7,3.2,10.2,9.6,16.4c-21.6,15.8-42.4,28.5-62.3,38.1
				c6.3,2,10.8,2.9,13.4,2.9c13.2,0,32.4-11.8,57.6-35.3c5.1,4.6,10.5,8.8,16.2,12.7l8.5-24.1l-7.5-7.3
				C208.2,35.7,213.6,22.5,213.6,10.5z"/>
			<path d="M433.6,628.9c-3.4,11.1-8.1,18.1-14.2,21l-85.5,42c2.6-10.1,10.3-18.3,23-24.7L433.6,628.9z"/>
			<path d="M508.5,126.5c-3.4,11.1-8.1,18.1-14.2,21l-85.4,42c2.6-10.1,10.2-18.3,22.9-24.7L508.5,126.5z"/>
			<path d="M678.5,35.9c-4.4-5.4-9.5-8.1-15.2-8.1c-12.7,0-24.2,6.8-34.3,20.3c-0.2,0.3-0.4,0.5-0.6,0.8c2.2,1.5,4.3,3.1,6.2,4.9
				c3.6-3.5,7.6-5.3,12-5.3c3.9,0,8.5,2.4,13.9,7c5.3,4.6,8,8.9,8,12.9c0,7.8-7.4,11.6-22.1,11.6c-12.8,0-19.2-3.5-19.2-10.7
				c0-5,2-9.7,6-14.1c0.5-0.5,0.9-1,1.4-1.4c-1.9-1.8-4-3.4-6.2-4.9C619.5,61,615,73.5,615,86.4c0,11.7,6.7,17.6,20.1,17.6
				c12.7,0,24.1-5.4,34.2-16.3c10-10.9,15.1-22.7,15.1-35.4C684.3,46.3,682.2,40.5,678.5,35.9z"/>
			<path d="M731.5,248.3c0,45.9-5.8,83.8-17.3,113.8c-14,35.8-37.9,65.4-71.8,88.9l12.2-45.7c41.5-33.2,62.3-66.6,62.3-100.1
				c0-25.1-7.9-55.4-23.7-91.1c-3.1,15.9-7.7,39.8-13.8,71.5c-2.6,13.7-4.7,20.5-6.5,20.5l-2.2-0.7l-0.5-3.2
				c0-13.2,3.4-37.9,10.2-74.2c7.1-39.2,13.3-61.8,18.5-67.6c8.9,5.5,16.8,19,23.6,40.3C728.4,219.1,731.4,234.9,731.5,248.3z"/>
			<path d="M779.3,41c-3.4,11.1-8.1,18.1-14.2,21l-85.5,42c2.6-10.1,10.3-18.3,23-24.7L779.3,41z"/>
			<path d="M241.2,620.8l0.3,2.2c8.1-3.9,17.3-8.9,27.5-14.9c17.2-10.1,27.3-17,30.4-20.7c4.4-5,8.7-16.4,12.9-34.2
				c-25.6,14.2-44.1,24.2-55.4,30C246.4,603.3,241.2,615.8,241.2,620.8z"/>
			<path d="M373.3,406.1c-18.7,14.4-33.6,21.7-44.6,21.7c-8,0-14.8-1.9-20.5-5.6c-6.1-3.9-9.7-10.8-9.5-18.1l-1.2-3.2
				c-21,12.1-36.7,21.4-47.1,27.8c-12.8,7.8-23.1,22.6-30.8,44.5c-5.4,17.9-10.8,35.8-16.4,53.8c-22.8,59.8-57.5,101.4-104,124.9
				c-24.9,12.5-48.3,18.8-70.1,18.8c-9.1,0-18.1-0.8-27.1-2.4l-2,2.5l0.2,1.7c14.3,6.8,40.1,10.2,77.4,10.2
				c63.3,0,108-41.9,134-125.7c3.3-11.7,6.6-23.6,10-35.5c4.4-13.7,9.8-24.4,16.4-32.3c9.3-11.2,25.3-23.1,48.1-35.7
				c3.9,13.4,12.3,20.1,25.1,20.1c13.7,0,31.7-8.3,54-24.8l0.5-2l-4.4,3.5L373.3,406.1z"/>
			<path d="M368.9,495.4c-14,21.5-21.3,33-22,34.4l21.5,14.9c7.3-6.7,14.9-17.7,22.7-33C391.1,506.2,383.7,500.7,368.9,495.4z"/>
			<path d="M451.3,402l0.1-0.4c-6.5,6.5-15.1,12.6-25.6,18.3c-11.9,6.2-21.7,9.3-29.5,9.3c-6.7,0-11.4-0.9-14.2-2.7
				c12.7-17.4,19-32.1,19-43.9c0-2.8-0.2-5.6-0.7-8.3c-9.1,10.4-18,20.7-26.8,30.7l-0.3,1c1.5-1.1,2.9-2.3,4.4-3.5l-11.9,44.3
				l2.2-1.7c6.5,12,16.8,18,30.8,18c12.3,0,24.9-4.4,37.7-13.1l12.4-45.5L451.3,402z"/>
			<path d="M373.3,406.1l-11.9,44.3l4.4-3.5l11.9-44.3C376.2,403.8,374.7,405,373.3,406.1z"/>
			<path d="M589.8,424.3c-12.7,0-23.3-3.5-32-10.7c-9.3-7.6-13.9-17.7-13.9-30.3c0-6.6,0.6-13.3,1.7-19.8
				c17.4-15.5,42.6-26.5,75.4-33.2c7.5-10.6,12.7-23.7,15.6-39.3c-10.1,4.6-21.1,6.9-32.2,6.8c-7.3,0-18-2.1-31.9-6.2
				c-13.9-4.1-24.5-6.2-31.6-6.2c-27.4,0-47.8,12.4-61.2,37.1c-6.7,12.3-13.8,35.7-21.3,70.2c3.8-3.3,7.2-7.2,10.9-11
				c7.3-37.7,25.1-56.5,53.4-56.5c5.2,0,14.6,1.6,28.3,4.9c-13.5,6.2-27.9,14.9-43.2,26.2h0c-7.2,5.2-20.3,15.7-39.5,31.6
				c0.3-2.1,0.7-4.1,1.1-6.1c-3.6,3.7-7.1,7.6-10.9,11c-0.2,1.1-0.5,2.1-0.7,3.2l-6.5,6.1L439,448.1c-0.9,0.6-1.7,1.2-2.6,1.8
				l-0.1,0.3c7.8-5.8,13.7-10.3,17.6-13.3l-2,30.3v30.5l1.2,1.2l1.2-0.7l2.2-4.2c-0.7-17.6,1.5-39.2,6.6-64.9
				c24.7-21.5,47.8-40.5,69.3-56.9c-2.9,13-4.4,23.7-4.4,32c0,17.4,5.1,32.1,15.3,44.1c10.8,12.7,24.8,19,42,19
				c19.8,0,39.8-6.2,59.8-18.5l12.5-46.5C639,416.9,616.4,424.3,589.8,424.3z"/>
			<path d="M540.7,200.7c0-2.6-3.2-5.9-9.5-9.8c-3.1-1.8-7.4-4-12.9-6.6c-13.7,20.5-21.2,32.1-22.5,34.7
				c6.9,5.3,14.2,10.2,21.7,14.6C525.2,227.1,532.9,216.1,540.7,200.7z"/>
			<path d="M451.3,402l-2.6,2.4L436.4,450c0.9-0.6,1.7-1.2,2.6-1.8L451.3,402z"/>
			<path d="M851.4,242.9c-11.2-35.8-26.2-70.4-44.8-103c-10.1,30.3-15.1,75.6-15.1,136c0,32.6,2.7,49.3,8,50.3
				c3.7-1.8,5.5-11.2,5.5-28.1c0-9.1,2.1-29.3,6.3-60.6c8.2,15.5,17,36.2,26.5,62.2c10.8,29.8,16.2,50.8,16.2,63
				c0,17.1-5.1,34-15.4,50.8c-6,9.9-17.1,24-33.4,42.2L783.9,478c-8.3,9-14.3,17.1-17.8,24.4c0.2,1.3,1,2,2.4,2s4.9-1,10.2-2.9
				c38-13.8,63.3-32.1,75.8-54.9c10.6-19,15.8-50.2,15.8-93.5C870.4,320.1,864,283.4,851.4,242.9z"/>
			<path d="M783.7,121.6c0-4.9-2.9-7.3-8.8-7.3c-8.1,0-12.2-1.1-12.2-3.4c0-4.1,2.4-6.1,7.3-6.1c1.7,0,3.3,0.3,4.9,1
				c1.6-1.1,4-4.6,7-10.3s4.8-9.8,5.3-12.2c-1.7-0.9-3.5-1.5-5.4-1.7c-6.9,0-14.8,5.9-23.8,17.8s-13.5,21.3-13.5,28.3
				c0,6.3,3.2,9.4,9.7,9.3c5.1-0.2,7.9,0.2,8.4,1.2c-2.6,3.6-11.2,8.1-25.6,13.4L707,161.9c0,1.9,1,2.9,3.2,2.9
				c13.7,0,28.6-3.8,44.9-11.5C774.2,144.2,783.7,133.6,783.7,121.6z"/>
		</g>
	</g>
</g>
</svg>
