<svg xmlns="http://www.w3.org/2000/svg" viewBox="0 0 510.89 496.83">
  <title>EH-Asset 89-layername</title>
  <g id="Layer_2" data-name="Layer 2">
    <g id="Allah">
      <g>
        <path d="M104.64,88.37q0,18.06-16.4,39.52l7.47,7.32-8.54,24.15a169.73,169.73,0,0,1-16.12-12.73q-37.84,35.25-57.62,35.25Q9.52,181.88,0,179q29.79-14.42,62.26-38.09-9.63-9.27-9.62-16.36,0-12.69,13.85-29.66t26-17Q104.64,77.88,104.64,88.37ZM85.11,109.9q0-11.27-9.67-11.27l-3.72,1.47A11,11,0,0,0,69,107.45q0,4.89,11.65,14.45C83.62,116.84,85.11,112.83,85.11,109.9Z"/>
        <path d="M196.19,395.26,184,441.65a70.91,70.91,0,0,1-28.56,5.62q-13.18,0-26.86-12.82T108.3,421.63q-10.74,0-31.74,16.85Q62.4,451.17,48.24,463.62a180.52,180.52,0,0,1,10.5-38.82Q63.87,412,88.89,392.15t38-19.84q8.55,0,18.19,15.51t23.81,15.5Q182.52,403.32,196.19,395.26Z"/>
        <path d="M298.73,394.29,286.28,440.5q-15.63,12.13-33,12.14-26.37,0-25.64-48.05l.25-23.92q-18.44,41-48.59,62.5l12.21-45.46q24.31-20,30.69-32.23,7.6-13.92,7.61-42.73,0-12.45-1.2-37t-1.21-37q0-6.34,4.81-21.12t8.65-18.43l2.16,1q2.44,42.24,2.45,169.92,0,29.3,20.26,29.29Q281.15,409.42,298.73,394.29Z"/>
        <path d="M372,240.72q0,68.85-17.33,113.77-21,53.72-71.78,88.87l12.21-45.65q62.25-49.81,62.25-100.1,0-37.61-23.68-91.07-4.59,23.94-13.77,71.54-3.87,20.51-6.52,20.5l-2.17-.73-.49-3.17q0-19.79,10.21-74.22,10.71-58.83,18.49-67.63,13.37,8.31,23.58,40.29Q372,220.71,372,240.72Z"/>
        <path d="M419.82,33.45q-5.13,16.61-14.16,21l-85.45,42q3.9-15.14,23-24.66Z"/>
        <path d="M220.85,55.66q-9.28,0-9.28-17.82l-5.86,1.47q-18.56,32.47-30,32.47-8.55,0-8.54-11.48l.73-7.57-8.55,4.64Q152.5,76,152.49,82.63q0,13.8,14.19,13.81,16.41,0,31.09-21.16,8.8,6.27,14.43,6.26,17.63,0,29.13-21.24,8.56-15.61,11-36.62l-7.57,2.2Q235,55.67,220.85,55.66Z"/>
        <path d="M161.77,46.88,241.6,18.55q9.77-3.4,16.85-18.55L188.87,24.41Q172.51,30,161.77,46.88Z"/>
        <path d="M491.9,235.35a525.61,525.61,0,0,0-44.78-103Q432,177.74,432,268.31q0,48.84,8,50.29,5.53-2.69,5.54-28.07,0-13.68,6.28-60.55,12.27,23.21,26.51,62.26,16.21,44.67,16.21,63,0,25.63-15.38,50.79-9,14.89-33.45,42.23l-21.24,22.22Q412,483.89,406.64,494.87a2.12,2.12,0,0,0,2.44,2q2.18,0,10.22-2.93,57-20.76,75.76-54.94,15.82-28.56,15.83-93.5Q510.89,296.14,491.9,235.35Z"/>
        <path d="M424.22,114q0-7.32-8.79-7.32-12.21,0-12.21-3.42,0-6.09,7.33-6.1a12.11,12.11,0,0,1,4.88,1q2.43-1.69,7-10.27t5.25-12.21A15.23,15.23,0,0,0,422.23,74q-10.31,0-23.82,17.83t-13.5,28.32q0,9.51,9.65,9.27c5.11-.16,7.92.25,8.41,1.23Q399.07,136,377.34,144L347.55,154.3q0,2.92,3.18,2.93,20.5,0,44.92-11.48Q424.21,132.08,424.22,114Z"/>
      </g>
    </g>
  </g>
</svg>
