<?xml version="1.0" encoding="utf-8"?>
<!-- Generator: Adobe Illustrator 22.1.0, SVG Export Plug-In . SVG Version: 6.00 Build 0)  -->
<svg version="1.1" id="Layer_1" xmlns="http://www.w3.org/2000/svg" xmlns:xlink="http://www.w3.org/1999/xlink" x="0px" y="0px"
	 viewBox="0 0 789.5 720.5" style="enable-background:new 0 0 789.5 720.5;" xml:space="preserve">
<title>EH-Asset 34-layername</title>
<g id="Layer_2_1_">
	<g id="ElAzim">
		<g>
			<path d="M154.3,68.1c0-7-4-10.5-12.1-10.5c-8.1,0-16.8,5.7-26,17c-0.3,0.4-0.6,0.8-0.9,1.1c1.9,1.5,3.8,3.1,5.6,4.8
				c0.2-0.2,0.3-0.4,0.5-0.6l3.7-1.5c6.4,0,9.7,3.8,9.7,11.3c0,2.9-1.5,6.9-4.5,12c-7.8-6.4-11.6-11.2-11.6-14.5
				c0-2.4,0.8-4.8,2.2-6.7c-1.8-1.7-3.7-3.2-5.6-4.8c-8.6,10.8-13,20.4-13,28.5c0,4.7,3.2,10.2,9.6,16.4
				c-21.6,15.8-42.4,28.5-62.3,38.1c6.3,2,10.8,2.9,13.4,2.9c13.2,0,32.4-11.7,57.6-35.3c5.1,4.6,10.5,8.8,16.1,12.7l8.5-24.2
				l-7.5-7.3C148.8,93.3,154.3,80.1,154.3,68.1z"/>
			<path d="M222.9,374.8l-12.2,45.6c-18.7,11.7-37.4,23.4-56.1,34.9c-25.7,17.7-38.5,30.8-38.5,39.1c0,1.8,1,2.7,2.9,2.7
				c4.9,0,12.2-5.2,22-15.6c6.7-7.2,13.3-14.4,19.8-21.7c1.1,0.8,1.7,2.2,1.7,4.1c0,2.3-1.2,8.6-3.7,19c-3.1,13.3-4.8,20.5-5.1,21.5
				c-2.4,7-5.9,13.5-10.5,19.3c-7,9.1-22.5,22.3-46.4,39.5c-27.4,19.7-45.8,34.3-55.3,43.7c-17.8,17.6-26.7,34.3-26.7,50.1
				c0,15.9,13.2,28.4,39.5,37.4c21.6,7.5,46.1,11.2,73.2,11.2c44.6,0,74.4-0.7,89.4-2.2l0.5,1.2c0,4.7-13.4,8.7-40.3,12
				c-20.8,2.6-38.2,3.8-52,3.8c-83.3,0-125-21.1-125-63.2c0-19.4,7.9-41.2,23.7-65.4c14.2-21.6,30.3-39,48.2-52l30.1-22
				c-1.3-4.2-2-8.6-1.9-12.9c0-12.7,5-27.6,14.9-44.7c9.9-16.4,20.4-28.2,31.5-35.4C180.3,403.1,205.8,386.5,222.9,374.8z"/>
			<path d="M354.5,576.7c-3.4,11.1-8.1,18.1-14.2,21l-85.4,42c2.6-10.1,10.3-18.3,22.9-24.7L354.5,576.7z"/>
			<path d="M518.1,98.6c-3.4,11.1-8.1,18.1-14.2,21l-85.4,42c2.6-10.1,10.3-18.3,23-24.7L518.1,98.6z"/>
			<path d="M578.1,372.8l-12.7,47.3c-14.2,9.1-27.6,13.7-40.3,13.7c-20.1,0-34.3-15.1-42.5-45.2c-15.4,16.4-27.8,27.7-37.1,34.1
				l12.3-45.3l8.1-8.3c-3.2-3.4-7.6-5.4-12.3-5.4c-8,0-13.2,0.5-15.7,1.5c0-4.5,2.8-14,8.3-28.4c2.3-5.5,4.9-10.8,7.8-16
				c5.9-6.3,22.4-9.5,49.6-9.5c19,0,28.6,5.2,28.6,15.6c0,9.4-8.1,22.9-24.2,40.4c4.4,17,13.7,25.6,27.8,25.6
				C548.9,392.8,563,386.1,578.1,372.8z"/>
			<path d="M597.6,8.1c-4.4-5.4-9.5-8.1-15.2-8.1c-12.7,0-24.2,6.8-34.3,20.3c-2.3,3.1-4.4,6.2-6.1,9.4c2.5,0.5,5,1.1,7.5,1.6
				c0.8-1.3,1.7-2.5,2.9-3.8c4-4.5,8.5-6.7,13.4-6.7c3.9,0,8.5,2.3,13.9,6.9s8,8.9,8,12.9c0,7.8-7.4,11.7-22.1,11.7
				c-12.8,0-19.2-3.6-19.2-10.7c0-3.6,1-7,3.1-10.3c-2.5-0.6-5-1.1-7.5-1.6c-5.2,9.4-7.9,19.1-7.9,29c0,11.7,6.7,17.6,20.1,17.6
				c12.7,0,24.1-5.4,34.2-16.4c10-10.9,15.1-22.7,15.1-35.4C603.5,18.4,601.4,12.7,597.6,8.1z"/>
			<path d="M650.6,220.5c0,45.9-5.8,83.8-17.3,113.8c-14,35.8-37.9,65.4-71.8,88.9l12.2-45.7c41.5-33.2,62.3-66.6,62.3-100.1
				c0-25.1-7.9-55.4-23.7-91.1c-3,15.9-7.6,39.8-13.8,71.5c-2.6,13.7-4.7,20.5-6.5,20.5l-2.2-0.7l-0.5-3.2
				c0-13.2,3.4-37.9,10.2-74.2c7.1-39.2,13.3-61.8,18.5-67.6c8.9,5.5,16.8,19,23.6,40.3C647.6,191.3,650.6,207.1,650.6,220.5z"/>
			<path d="M698.5,13.2c-3.4,11.1-8.1,18.1-14.2,21l-85.5,42c2.6-10.1,10.3-18.3,23-24.7L698.5,13.2z"/>
			<path d="M201.4,486.6c-10.6,21.5-15.8,34.8-15.6,39.8c9.6-5,16.7-9,21.4-11.7c20-11.4,31.2-18.4,33.8-21c6-6,11.1-18.2,15.3-36.6
				c-19.3,11.7-31.4,18.6-36.5,20.8C210.5,481.9,204.3,484.8,201.4,486.6z"/>
			<path d="M297.2,374.7l0.3-0.9c-6.5,6.5-15.1,12.6-25.6,18.3c-11.9,6.2-21.7,9.3-29.5,9.3c-6.7,0-11.4-0.9-14.2-2.7
				c12.6-17.4,18.9-32.1,18.9-43.9c0-2.8-0.2-5.6-0.7-8.3c-9.1,10.4-18,20.7-26.7,30.8l-12.1,45.3l6.6-5.2c6.5,12,16.7,18,30.7,18
				c12.3,0,24.8-4.4,37.5-13.1l12.1-45L297.2,374.7z"/>
			<path d="M443.6,148c0-5.2-7.4-10.8-22.2-16.6c-11.1,14.7-18.6,26.2-22.5,34.7l21.7,15.1C428.1,173.4,435.8,162.4,443.6,148z"/>
			<path d="M435.8,390.4c-11.1,4.7-20.9,7.1-29.5,7.1c-12.4,0-23.4-2-33-6.1c-12.7-5.4-19-13.3-19-23.9c21.4-19,35.5-32.5,42.1-40.3
				c11.7-13.7,21.7-30.4,30.2-50.3c7.5-17.7,11.2-27.8,11.2-30.3c0-5.7-3.5-8.5-10.5-8.5c-10.4,0-26.6,5.9-48.6,17.7
				c-19,10.4-34,20.2-44.9,29.4c11.2-46.8,16.8-79.7,16.8-98.8c0-39.3-6.4-65.8-19.2-79.3c-4.4-4.7-7.7-7.2-9.8-7.3
				c-10.6,5.9-20.4,20.5-29.5,43.9c-7.5,19-12.3,36.7-14.4,53.2l2.2,2.2l2-1.5c15.1-38.5,25.3-57.8,30.5-58
				c14.2,7.3,21.2,36.1,21.2,86.2c0,24.5-9.6,70.8-28.7,139.1c3.2-1.3,6.5-2.6,9.3-4.4l9.6-35.5c10.3-10.1,24.3-20.5,42.3-31.1
				c20.7-12.1,36.5-18.1,47.4-18.1l1.7,2.7c-0.2,7.8-14.7,22.4-43.7,43.8L313.7,362l0.4-1.4c-2.8,1.7-6.1,3.1-9.3,4.4
				c-0.4,1.3-0.7,2.5-1.1,3.8l-6.5,6L285,420.3c-0.9,0.7-1.8,1.3-2.7,1.9v0.2c7.8-5.3,13.8-9.5,17.8-12.6l1.5,18.9l1.5,1
				c2.8-8.2,4.5-16.7,5-25.3c13.7-10.4,24.2-18.6,31.5-24.6c2.8,16.2,9.3,29.3,19.5,39.4c10.7,10.9,24.1,16.3,40,16.3
				c17.4,0,34.1-5.1,50-15.3l12.5-46.2C455.5,380.2,446.9,385.7,435.8,390.4z"/>
			<path d="M297.2,374.7l-2.8,2.6l-12.1,45c0.9-0.6,1.8-1.3,2.7-1.9L297.2,374.7z"/>
			<path d="M770.6,215.1c-11.2-35.8-26.2-70.4-44.8-103c-10.1,30.3-15.1,75.6-15.1,136c0,32.5,2.7,49.3,8,50.3
				c3.7-1.8,5.5-11.1,5.5-28.1c0-9.1,2.1-29.3,6.3-60.5c8.2,15.4,17,36.2,26.5,62.2c10.8,29.8,16.2,50.8,16.2,63
				c0,17.1-5.1,34-15.4,50.8c-6,9.9-17.1,24-33.4,42.2l-21.3,22.2c-8.3,9-14.3,17.1-17.8,24.4c0.1,1.2,1.1,2.1,2.3,2
				c0.1,0,0.1,0,0.2,0c1.5,0,4.9-1,10.2-2.9c38-13.8,63.3-32.1,75.8-54.9c10.5-19,15.8-50.2,15.8-93.5
				C789.5,292.3,783.2,255.6,770.6,215.1z"/>
			<path d="M702.9,93.8c0-4.9-2.9-7.3-8.8-7.3c-8.1,0-12.2-1.1-12.2-3.4c0-4.1,2.4-6.1,7.3-6.1c1.7,0,3.3,0.3,4.9,1
				c1.6-1.1,4-4.6,7-10.3c3-5.7,4.8-9.8,5.3-12.2c-1.7-0.9-3.5-1.5-5.4-1.7c-6.9,0-14.8,5.9-23.8,17.8c-9,11.9-13.5,21.3-13.5,28.3
				c0,6.4,3.2,9.4,9.7,9.3c5.1-0.2,7.9,0.2,8.4,1.2c-2.6,3.6-11.2,8.1-25.6,13.4L626.2,134c0,2,1,2.9,3.2,2.9
				c13.7,0,28.6-3.8,44.9-11.5C693.4,116.4,702.9,105.8,702.9,93.8z"/>
		</g>
	</g>
</g>
</svg>
