<svg xmlns="http://www.w3.org/2000/svg" viewBox="0 0 946.53 625">
  <title>EH-Asset 35-layername</title>
  <g id="Layer_2" data-name="Layer 2">
    <g id="ElGafur">
      <g>
        <path d="M146.24,157q0,18.06-16.4,39.53l7.48,7.31L128.77,228a170.66,170.66,0,0,1-16.12-12.73Q74.81,250.5,55,250.49q-3.9,0-13.43-2.93,29.79-14.4,62.26-38.09-9.63-9.27-9.62-16.35,0-12.7,13.85-29.67t26-17Q146.24,146.48,146.24,157ZM126.71,178.5q0-11.26-9.67-11.26l-3.72,1.47a10.93,10.93,0,0,0-2.72,7.34q0,4.9,11.65,14.45Q126.71,182.91,126.71,178.5Z"/>
        <path d="M268.55,325.34q0,26.24-8.05,27.69L253.91,345q-6.84.24-11.23,8.07-12,20.77-25.39,54.26-11,28.11-22,56-9.27,22-28.56,43.51-20.5,23-40.77,32-23,10.5-63.24,10.51Q2,549.32,0,543l2.44-1.76q51.27,0,95.22-22,45.65-22.92,73.24-64.63,14.88-22.68,32-60.24l22.46-50.24q19-37.8,29.54-37.8,5.87,0,10,6.8A22.49,22.49,0,0,1,268.55,325.34Z"/>
        <path d="M499,401.61,486.57,448q-15.63,12.47-56.39,29.82-8.18,36.44-39.07,78-32.22,43.5-64.45,57.45Q299.55,625,258.54,625q-15.62,0-46.38-5.19-36.63-5.94-37.84-12.61l2-1.49q7.32.24,23.19,2.93,15.15,2.45,23.44,2.44,16.85,0,49.32-9.52,70.54-20.74,122.31-81.78,18.06-21.24,20.51-37.11-21.24,5.85-28.57,5.86-22.22,0-22.21-14.65,0-15.39,12.45-38.82,13.92-26.13,27.59-26.12,11.94,0,21.35,9.27t9.41,21.24Q476.07,422.13,499,401.61Z"/>
        <path d="M550.54,10.49q0,18.06-16.4,39.52l7.47,7.32-8.54,24.15A169.73,169.73,0,0,1,517,68.75Q479.11,104,459.33,104q-3.91,0-13.43-2.93Q475.69,86.67,508.16,63q-9.63-9.29-9.62-16.36,0-12.69,13.85-29.66t26-17Q550.54,0,550.54,10.49ZM531,32q0-11.26-9.67-11.27l-3.72,1.47a11,11,0,0,0-2.73,7.35q0,4.89,11.65,14.44C529.52,39,531,35,531,32Z"/>
        <path d="M675.05,41q-5.13,16.6-14.16,21l-85.45,42q3.9-15.14,22.95-24.65Z"/>
        <path d="M760.5,52.25q0,19-15.07,35.4T711.25,104q-20.09,0-20.09-17.57,0-19.79,14-38.33,15.18-20.26,34.3-20.27,8.57,0,15.19,8.06A26.15,26.15,0,0,1,760.5,52.25ZM744.63,68.42q0-5.94-8-12.89t-13.87-7q-7.37,0-13.39,6.7t-6,14.14q0,10.67,19.16,10.66Q744.63,80.08,744.63,68.42Z"/>
        <path d="M807.62,248.29q0,68.85-17.34,113.77-21,53.71-71.77,88.87l12.2-45.66Q793,355.47,793,305.18q0-37.6-23.68-91.07Q764.7,238,755.52,285.64q-3.87,20.52-6.52,20.51l-2.18-.73-.48-3.17q0-19.78,10.21-74.22Q767.24,169.19,775,160.4q13.38,8.31,23.59,40.28Q807.62,228.28,807.62,248.29Z"/>
        <path d="M855.47,41q-5.13,16.6-14.16,21l-85.45,42q3.9-15.14,22.95-24.65Z"/>
        <path d="M618.39,401.68l.26-1q-26.82,20.67-58,20.68-30.23,0-38.76-12.45,33.55-38.58,33.55-62.26,0-31-14.11-31-6.81,0-20.44,10.76t-25.31,31.29q-12.4,22-12.41,37.65a42.82,42.82,0,0,0,1,9.29l-12.45,46.93a310.24,310.24,0,0,0,27.83-22.34q14.89,17.43,23.44,23.81a51.85,51.85,0,0,0,31.25,10.32A92.67,92.67,0,0,0,602.76,450l12.09-44.63ZM507.62,390.24q-8.36-9.72-8.35-15.57,0-4.38,11.05-14.11T526,350.83q12.78,0,12.78,9.49Q538.82,374.18,507.62,390.24Z"/>
        <path d="M555.42,240.23q0-3.66-9.75-9.76-4.39-2.68-12.67-6.84l-22.19,34.43,21.7,15.13Q542.74,265.39,555.42,240.23Z"/>
        <path d="M671.39,259.28q0-4.63-6.08-7.82-3.4-4.38-16-8.54-19.95,29.55-22.38,34.42,14.36,10.26,21.89,14.9Q658.25,282.71,671.39,259.28Z"/>
        <path d="M665,395.1q24.16-26.3,24.17-40.41,0-15.57-28.57-15.58-40.77,0-49.56,9.48a137.77,137.77,0,0,0-7.81,16Q595,386.26,595,393.07q3.67-1.47,15.71-1.47A17,17,0,0,1,623,397l-4.57,4.69L606,448c-1.06.69-2.13,1.35-3.2,2l-.18.67q14-9.57,37.07-34.12,12.33,45.18,42.48,45.17,19,0,40.28-13.73l12.7-47.31q-22.71,20-42.24,20Q671.63,420.65,665,395.1Z"/>
        <path d="M618.39,401.68l-3.54,3.64L602.76,450c1.07-.64,2.14-1.3,3.2-2Z"/>
        <path d="M859.86,121.58q0-7.32-8.79-7.32-12.21,0-12.2-3.42,0-6.11,7.32-6.1a11.88,11.88,0,0,1,4.88,1q2.45-1.69,7-10.27t5.25-12.21a15.25,15.25,0,0,0-5.4-1.69q-10.32,0-23.82,17.83t-13.5,28.32q0,9.51,9.65,9.27,7.66-.24,8.41,1.22-3.92,5.38-25.64,13.43L783.2,161.87q0,2.92,3.17,2.92,20.5,0,44.92-11.47Q859.87,139.66,859.86,121.58Z"/>
        <path d="M927.55,242.92a525.35,525.35,0,0,0-44.78-103q-15.1,45.42-15.09,136,0,48.83,8,50.29,5.55-2.69,5.55-28.07,0-13.68,6.27-60.55Q899.72,260.74,914,299.8q16.2,44.68,16.21,63,0,25.63-15.39,50.78-9,14.9-33.44,42.24L860.11,478q-12.45,13.43-17.82,24.41c.16,1.31,1,1.95,2.43,1.95s4.87-1,10.23-2.93q57-20.74,75.75-54.93Q946.53,418,946.53,353,946.53,303.71,927.55,242.92Z"/>
      </g>
    </g>
  </g>
</svg>
