<?xml version="1.0" encoding="utf-8"?>
<!-- Generator: Adobe Illustrator 22.1.0, SVG Export Plug-In . SVG Version: 6.00 Build 0)  -->
<svg version="1.1" id="Layer_1" xmlns="http://www.w3.org/2000/svg" xmlns:xlink="http://www.w3.org/1999/xlink" x="0px" y="0px"
	 viewBox="0 0 985.6 625" style="enable-background:new 0 0 985.6 625;" xml:space="preserve">
<title>EH-Asset 36-layername</title>
<g id="Layer_2_1_">
	<g id="EsShekur">
		<g>
			<path d="M146.2,157c0-7-4.1-10.5-12.2-10.5c-7.8,0-16.1,5.3-24.9,15.7c1.5,2.1,2.9,4.3,4.3,6.5l3.6-1.4c6.4,0,9.7,3.8,9.7,11.3
				c0,2.9-1.5,6.9-4.5,12c-7.8-6.4-11.7-11.2-11.7-14.5c0-2.7,0.9-5.3,2.7-7.3l0.1,0c-1.3-2.2-2.8-4.4-4.3-6.5
				c-0.4,0.4-0.7,0.8-1.1,1.3c-9.2,11.3-13.8,21.2-13.8,29.7c0,4.7,3.2,10.2,9.6,16.4c-21.6,15.8-42.4,28.5-62.3,38.1
				c6.4,2,10.8,2.9,13.4,2.9c13.2,0,32.4-11.7,57.7-35.2c5.1,4.6,10.5,8.8,16.1,12.7l8.5-24.2l-7.5-7.3
				C140.8,182.2,146.2,169,146.2,157z"/>
			<path d="M268.5,325.3c0,17.5-2.7,26.7-8,27.7l-6.6-8c-4.6,0.2-8.3,2.9-11.2,8.1c-8,13.8-16.5,31.9-25.4,54.3
				c-7.3,18.7-14.7,37.4-22,56c-6.2,14.7-15.7,29.2-28.6,43.5c-13.7,15.3-27.3,26-40.8,32c-15.3,7-36.4,10.5-63.2,10.5
				c-40.5,0-61.4-2.1-62.7-6.4l2.4-1.8c34.2,0,65.9-7.3,95.2-22c30.4-15.3,54.8-36.8,73.2-64.6c9.9-15.1,20.6-35.2,32-60.2
				l22.5-50.2c12.7-25.2,22.5-37.8,29.5-37.8c3.9,0,7.2,2.3,10,6.8C267.3,316.8,268.5,321,268.5,325.3z"/>
			<path d="M499,401.6L486.6,448c-10.4,8.3-29.2,18.3-56.4,29.8c-5.5,24.3-18.5,50.3-39.1,78c-21.5,29-43,48.2-64.5,57.5
				c-18.1,7.8-40.8,11.7-68.1,11.7c-10.4,0-25.9-1.7-46.4-5.2c-24.4-4-37-8.2-37.8-12.6l2-1.5c4.9,0.2,12.6,1.1,23.2,2.9
				c10.1,1.6,17.9,2.4,23.4,2.4c11.2,0,27.7-3.2,49.3-9.5c47-13.8,87.8-41.1,122.3-81.8c12-14.2,18.9-26.5,20.5-37.1
				c-14.2,3.9-23.7,5.9-28.6,5.9c-14.8,0-22.2-4.9-22.2-14.6c0-10.3,4.2-23.2,12.5-38.8c9.3-17.4,18.5-26.1,27.6-26.1
				c8,0,15.1,3.1,21.4,9.3c6.3,6.2,9.4,13.3,9.4,21.2C462.4,427.9,483.7,415.3,499,401.6z"/>
			<path d="M550.5,10.5c0-7-4-10.5-12.1-10.5c-8.1,0-16.8,5.7-26,17c-2.9,3.6-5.4,7-7.4,10.3c3.3,0.6,6.5,1.3,9.9,1.8
				c0.1-2.5,1-5,2.7-6.9l3.7-1.5c6.4,0,9.7,3.8,9.7,11.3c0,3-1.5,7-4.5,12c-7.8-6.4-11.7-11.2-11.7-14.4c0-0.2,0-0.3,0-0.5
				c-3.4-0.6-6.6-1.2-9.9-1.8c-4.3,7.1-6.5,13.6-6.5,19.4c0,4.7,3.2,10.2,9.6,16.4c-21.6,15.8-42.4,28.5-62.3,38.1
				c6.3,2,10.8,2.9,13.4,2.9c13.2,0,32.4-11.8,57.7-35.3c5.1,4.6,10.5,8.8,16.1,12.7l8.5-24.1l-7.5-7.3
				C545.1,35.7,550.5,22.5,550.5,10.5z"/>
			<path d="M680.4,29.5l-3.2,2c-23.6,44.4-39.4,73.3-47.4,86.4c-19.3,31.6-39.5,57.2-60.5,76.9c-32.7,25.2-57.7,43.2-74.9,54l2.9,1
				c17.2-3.6,38.8-15.9,64.7-36.9c22.6-18.1,40.7-35.9,54.4-53.5c-0.3,12.5,0.3,22.4,2,29.5l4.4-3c1.3-28.2,21.3-79.9,59.8-155.3
				L680.4,29.5z"/>
			<path d="M546.1,411.4c-3.3-4.6-5.2-13.4-5.9-26.6c-0.7-12.7-1.2-37.5-1.5-74.5c-0.2-31.1-1.2-55.9-2.9-74.5l-2.2-1
				c-2.1,2.1-4.8,7.9-8.2,17.2c-3.4,9.4-5,15.7-5,18.9c0,6.8,0.4,17,1.2,30.5c0.8,13.5,1.2,23.7,1.2,30.5c0,18.6-2.6,32.5-7.9,41.8
				c-4.2,7.8-14.3,18.3-30.2,31.5l-12.2,45.5c20.1-14.3,36.3-35.2,48.6-62.5c0.7,26,1.9,42.3,3.7,48.8c4.9,18,16.2,27,34.1,27
				c17.2,0,33.5-5.3,48.7-16l12.4-46.2c-15,12.8-31.1,19.3-48.3,19.3C559.3,421.1,550.7,417.9,546.1,411.4z"/>
			<path d="M682.9,7.6L613.3,32c-10.9,3.7-19.9,11.2-27.1,22.5L666,26.1C672.5,23.9,678.1,17.7,682.9,7.6z"/>
			<path d="M645.3,63.2c-6.2,0-9.3-5.9-9.3-17.8l-5.9,1.5c-12.4,21.6-22.4,32.5-30,32.5c-5.7,0-8.5-3.8-8.5-11.5l0.7-7.6l-8.5,4.6
				c-4.6,12.4-6.8,20.8-6.8,25.3c0,9.2,4.7,13.8,14.2,13.8c10.9,0,21.3-7,31.1-21.2c5.9,4.2,10.7,6.3,14.4,6.3
				c11.8,0,21.5-7.1,29.1-21.2c5.7-10.4,9.4-22.6,11-36.6l-7.6,2.2C662.7,53.3,654.7,63.2,645.3,63.2z"/>
			<path d="M714.8,198.2c3.1,0,6.2,1.1,8.6,3.2l1,3.9l2.7,3.2c3.6,0,8.5-4.4,14.9-13.2c6.4-8.8,9.5-15.3,9.5-19.4
				c0-10.1-5-15.2-14.9-15.2c-15.3,0-33.1,13-53.2,39.1c-19.4,24.9-29.4,45.7-30,62.4C677.2,219.5,697.7,198.2,714.8,198.2z"/>
			<path d="M716.8,425.5c-21,0-32.3-8.9-33.9-26.6c10.9-6.8,20.3-19.4,28.3-37.8c7.3-16.9,11-32.4,11-46.6v-4.9l-1.2-1.5
				c-0.7,0.3-3.9,6.7-9.8,19c-6.4,13-12.5,21.7-18.6,26.1c-5.4,3.9-8.9,5.9-10.5,5.9c1-6.3,1.5-10.1,1.5-11.2l-0.5-11.2l-1.5-1.5
				c-3,2.6-4.8,5.1-5.4,7.5c-3.3,10.7-5.6,17.5-7.1,20.3c-2.5,4.4-7.2,9.9-14.2,16.6c-8.2,7.8-14.1,11.7-17.7,11.7
				c1-6.8,1.6-13.6,2-20.5l-1.9-0.7c-2.6,2.6-5.6,8.6-9.2,17.9c-3.2,8.3-6.9,13.8-11.1,16.4l-12.5,46c5.4-3.9,10.5-8.2,15.4-12.8
				c8.4,1,17.7-2.4,27.7-10.2c8.1-6.4,14.9-14.2,20.2-23.1l5.3-1c-0.5,3.4-0.7,6.8-0.7,10.3c0,13.5,3.7,24.8,11.2,34
				c8.1,9.8,19,14.6,32.7,14.6c17.6,0,32.3-4.4,44.2-13.2l12.7-47.1C755.3,417.6,736.5,425.5,716.8,425.5z"/>
			<path d="M846.7,248.3c0,45.9-5.8,83.8-17.3,113.8c-14,35.8-37.9,65.4-71.8,88.9l12.2-45.7c41.5-33.2,62.2-66.6,62.2-100.1
				c0-25.1-7.9-55.4-23.7-91.1c-3.1,15.9-7.7,39.8-13.8,71.5c-2.6,13.7-4.8,20.5-6.5,20.5l-2.2-0.7l-0.5-3.2
				c0-13.2,3.4-37.9,10.2-74.2c7.1-39.2,13.3-61.8,18.5-67.6c8.9,5.5,16.8,19,23.6,40.3C843.7,219.1,846.7,234.9,846.7,248.3z"/>
			<path d="M985.6,353c0,43.3-5.2,74.5-15.6,93.5c-12.5,22.8-37.8,41.1-75.9,54.9c-5.4,2-8.8,2.9-10.3,2.9c-1.5,0-2.3-0.6-2.4-2
				c3.6-7.3,9.5-15.5,17.8-24.4l21.2-22.2c16.3-18.2,27.4-32.3,33.5-42.2c10.3-16.8,15.4-33.7,15.4-50.8c0-12.2-5.4-33.2-16.2-63
				c-9.5-26-18.3-46.8-26.5-62.3c-4.2,31.3-6.3,51.4-6.3,60.5c0,16.9-1.8,26.3-5.5,28.1c-5.3-1-8-17.7-8-50.3
				c0-60.4,5-105.7,15.1-136c18.6,32.6,33.6,67.2,44.8,103C979.3,283.4,985.6,320.1,985.6,353z"/>
		</g>
	</g>
</g>
</svg>
