<svg xmlns="http://www.w3.org/2000/svg" viewBox="0 0 918.95 546.14">
  <title>EH-Asset 10-layername</title>
  <g id="Layer_2" data-name="Layer 2">
    <g id="ElDzebar">
      <g>
        <path d="M146.24,129.14q0,18.06-16.4,39.52l7.48,7.32-8.55,24.15a172.3,172.3,0,0,1-16.12-12.73Q74.81,222.65,55,222.66q-3.9,0-13.43-2.93,29.79-14.4,62.26-38.09-9.63-9.27-9.62-16.36,0-12.69,13.85-29.66t26-17Q146.24,118.65,146.24,129.14Zm-19.53,21.53q0-11.26-9.67-11.27l-3.72,1.47a11,11,0,0,0-2.72,7.35q0,4.91,11.65,14.45Q126.71,155.08,126.71,150.67Z"/>
        <path d="M268.55,297.51q0,26.24-8.05,27.69l-6.59-8.06q-6.84.24-11.23,8.07-12,20.78-25.39,54.26-11,28.11-22,56-9.27,22-28.56,43.51-20.5,23-40.77,32-23,10.51-63.24,10.51Q2,521.48,0,515.19l2.44-1.76q51.27,0,95.22-21.95,45.65-22.92,73.24-64.63,14.88-22.68,32-60.24l22.46-50.24q19-37.8,29.54-37.81,5.87,0,10,6.81A22.49,22.49,0,0,1,268.55,297.51Z"/>
        <path d="M424.32,374.27l-12.45,46.8q-19.55,13.26-39.56,13.26-27.58,0-37.84-30.95-5.61-17.38-6.59-53.77L326,275.88q-2.07-83-2.07-84.47,0-3.18,5.89-20.76t8.05-20.5h1.45q.72,42.24,2.93,126.22.24,23.43,5.12,69.33,9.76,47.13,37.36,47.12Q405.28,392.82,424.32,374.27Z"/>
        <path d="M488.77,126.22l-69.58,24.41q-16.37,5.63-27.1,22.47l79.83-28.32Q481.69,141.36,488.77,126.22Z"/>
        <path d="M451.17,181.88q-9.29,0-9.28-17.82L436,165.53Q417.47,198,406,198q-8.55,0-8.55-11.48l.73-7.56-8.54,4.63q-6.84,18.6-6.84,25.26,0,13.82,14.2,13.81,16.39,0,31.08-21.16,8.81,6.27,14.44,6.26,17.63,0,29.12-21.24,8.57-15.61,11-36.62l-7.57,2.2Q465.33,181.89,451.17,181.88Z"/>
        <path d="M417.72,467.53q-21,32.22-22,34.42l21.49,14.9q11-10,22.7-33Q439.94,475.6,417.72,467.53Z"/>
        <path d="M474.61,392.09q-17.82,9.29-29.54,9.28-10,0-14.16-2.69,19-26.12,19-43.94a42.43,42.43,0,0,0-.73-8.3q-13.68,15.62-26.86,30.76l-12.2,45.32,6.59-5.17q9.76,18,30.76,17.95,19.77,0,40.28-15l12.45-46.52Q490.48,383.55,474.61,392.09Z"/>
        <path d="M557.37,159.67q-5.11,16.61-14.16,21l-85.45,42q3.92-15.14,22.95-24.66Z"/>
        <path d="M527.4,496.34q-20.31,30.53-22.52,34.42,10.77,8.29,21.79,15.38,15.18-19.29,22.77-33.2Q549.44,504.15,527.4,496.34Z"/>
        <path d="M638.64,396.48q-19,0-32-10.74-13.92-11.48-13.92-30.28a112.59,112.59,0,0,1,1.74-19.78q26.13-23.21,75.44-33.21,11.24-15.87,15.63-39.32a76.71,76.71,0,0,1-32.23,6.79q-11,0-31.86-6.18t-31.63-6.19q-41.13,0-61.2,37.07-10.29,19-22,73.42l-9,8.54-12.45,45.86q11.72-8.74,17.58-13.35l-2,30.27V469.9l1.22,1.22,1.22-.73,2.2-4.15q-1-26.37,6.59-64.95,37-32.25,69.34-56.94-4.38,19.51-4.38,31.95,0,26.08,15.33,44.13,16.11,19,42,19,29.78,0,59.81-18.5l12.45-46.49Q678.43,396.48,638.64,396.48Zm-82-68Q545.9,336.28,517.09,360q9.76-62.65,54.44-62.66,7.82,0,28.32,4.9Q579.59,311.56,556.64,328.45Z"/>
        <path d="M732.91,24.41q0,19-15.07,35.4T683.67,76.17q-20.1,0-20.1-17.58,0-19.77,14-38.33Q692.72,0,711.84,0,720.42,0,727,8.06A26.1,26.1,0,0,1,732.91,24.41ZM717,40.59q0-5.94-8-12.9t-13.88-6.94q-7.36,0-13.38,6.7t-6,14.13q0,10.67,19.16,10.67Q717,52.25,717,40.59Z"/>
        <path d="M780,220.46q0,68.85-17.33,113.77-21,53.72-71.78,88.87l12.21-45.66q62.25-49.8,62.25-100.1,0-37.59-23.68-91.06-4.59,23.92-13.77,71.53-3.87,20.51-6.52,20.51l-2.18-.73-.48-3.18q0-19.77,10.21-74.21,10.71-58.84,18.48-67.63,13.38,8.3,23.59,40.28Q780,200.45,780,220.46Z"/>
        <path d="M827.88,13.18q-5.13,16.61-14.16,21l-85.45,42q3.9-15.14,23-24.66Z"/>
        <path d="M832.28,93.75q0-7.32-8.79-7.32-12.21,0-12.21-3.42,0-6.11,7.32-6.11a12,12,0,0,1,4.89,1q2.43-1.69,7-10.28c3-5.71,4.77-9.78,5.25-12.2a15.14,15.14,0,0,0-5.4-1.69q-10.32,0-23.82,17.82T793,99.85q0,9.53,9.65,9.28c5.11-.16,7.92.25,8.41,1.22q-3.9,5.37-25.63,13.43L755.61,134c0,2,1.06,2.93,3.18,2.93q20.51,0,44.92-11.47Q832.27,111.82,832.28,93.75Z"/>
        <path d="M900,215.09a525.35,525.35,0,0,0-44.78-103q-15.09,45.41-15.09,136,0,48.82,8,50.29,5.54-2.68,5.54-28.08,0-13.67,6.27-60.54,12.28,23.19,26.52,62.25,16.22,44.68,16.21,63,0,25.64-15.38,50.78-9,14.89-33.45,42.24L832.52,450.2q-12.45,13.43-17.82,24.41a2.11,2.11,0,0,0,2.43,1.95q2.19,0,10.23-2.93,57-20.75,75.75-54.93Q919,390.14,919,325.2,919,275.88,900,215.09Z"/>
      </g>
    </g>
  </g>
</svg>
