<svg xmlns="http://www.w3.org/2000/svg" viewBox="0 0 795.17 691.89">
  <title>EH-Asset 38-layername</title>
  <g id="Layer_2" data-name="Layer 2">
    <g id="ElKebir">
      <g>
        <path d="M213.62,10.49q0,18.06-16.39,39.52l7.47,7.32-8.55,24.15A172.3,172.3,0,0,1,180,68.75Q142.19,104,122.41,104q-3.9,0-13.42-2.93Q138.77,86.67,171.24,63q-9.62-9.29-9.62-16.36,0-12.69,13.85-29.66t26-17Q213.62,0,213.62,10.49ZM194.09,32q0-11.26-9.66-11.27l-3.72,1.47A11,11,0,0,0,178,29.57q0,4.89,11.65,14.44C192.6,39,194.09,35,194.09,32Z"/>
        <path d="M328.61,427.73q-12,0-20.5-5.61a20.83,20.83,0,0,1-9.53-18.07l-1.22-3.17Q265.88,419,250.24,428.71,231,440.44,219.48,473.19q-8.05,26.88-16.35,53.77-34.18,89.68-104,124.88-37.35,18.81-70.07,18.81A153.75,153.75,0,0,1,2,668.21L0,670.7l.24,1.74q21.5,10.17,77.4,10.18,95,0,134-125.68,4.88-17.61,10-35.46,6.58-20.53,16.36-32.28,13.91-16.86,48.09-35.69,5.87,20.13,25.15,20.12,20.5,0,54-24.79l12.46-46.25Q346.43,427.73,328.61,427.73Z"/>
        <path d="M241.21,620.85l.25,2.2q12.16-5.87,27.49-14.9Q294.74,593,299.36,587.4q6.57-7.56,12.9-34.18-38.42,21.24-55.42,30Q241.21,613.28,241.21,620.85Z"/>
        <path d="M433.59,628.91q-5.11,16.59-14.16,21l-85.45,42q3.91-15.14,22.95-24.65Z"/>
        <path d="M368.9,495.36q-21,32.24-22,34.43l21.49,14.89q11-10,22.7-33Q391.11,503.42,368.9,495.36Z"/>
        <path d="M425.78,419.92q-17.82,9.29-29.54,9.28c-6.68,0-11.39-.89-14.16-2.69q19.05-26.11,19-43.94a42.43,42.43,0,0,0-.73-8.3Q386.71,389.9,373.54,405l-12.21,45.32,6.59-5.17q9.76,18,30.76,17.95,19.79,0,40.28-15l12.46-46.53Q441.64,411.38,425.78,419.92Z"/>
        <path d="M508.54,41q-5.12,16.6-14.16,21l-85.44,42q3.9-15.14,22.94-24.65Z"/>
        <path d="M509.28,411.38q-4.89-6.84-5.86-26.61-1-19-1.47-74.47-.24-46.62-2.93-74.46l-2.16-1q-3.12,3.18-8.17,17.22T483.64,271q0,10.25,1.21,30.51T486.06,332q0,27.84-7.86,41.75-6.39,11.72-30.2,31.49l-12.21,45.49q30.15-21.48,48.59-62.5,1,39.06,3.65,48.83,7.31,27,34.1,27,25.8,0,48.7-16l12.42-46.23q-22.46,19.27-48.34,19.28Q516.12,421.14,509.28,411.38Z"/>
        <path d="M643.55,29.54l-3.17,1.95Q605,98.15,593,117.92,564,165.29,532.5,194.82q-49,37.85-74.92,54l2.93,1q25.88-5.37,64.67-36.87,33.92-27.1,54.41-53.47-.5,18.81,1.95,29.54l4.4-2.92q1.95-42.24,59.81-155.28Z"/>
        <path d="M609.13,52.25q0,19-15.07,35.4T559.89,104q-20.1,0-20.1-17.57,0-19.79,14-38.33,15.18-20.26,34.3-20.27,8.58,0,15.19,8.06A26.15,26.15,0,0,1,609.13,52.25ZM593.26,68.42q0-5.94-8-12.89t-13.88-7q-7.36,0-13.38,6.7t-6,14.14q0,10.67,19.16,10.66Q593.26,80.08,593.26,68.42Z"/>
        <path d="M656.25,248.29q0,68.85-17.33,113.77-21,53.71-71.78,88.87l12.21-45.66q62.25-49.8,62.25-100.09,0-37.6-23.68-91.07-4.59,23.92-13.77,71.53-3.87,20.52-6.52,20.51l-2.17-.73-.49-3.17q0-19.78,10.21-74.22,10.71-58.84,18.48-67.63,13.38,8.31,23.59,40.28Q656.25,228.28,656.25,248.29Z"/>
        <path d="M704.1,41Q699,57.63,689.94,62l-85.45,42q3.9-15.14,23-24.65Z"/>
        <path d="M708.5,121.58q0-7.32-8.79-7.32-12.21,0-12.21-3.42,0-6.11,7.32-6.1a12,12,0,0,1,4.89,1q2.43-1.69,7-10.27c3-5.72,4.76-9.79,5.24-12.21a15.14,15.14,0,0,0-5.4-1.69q-10.32,0-23.82,17.83t-13.5,28.32q0,9.51,9.65,9.27c5.11-.16,7.92.25,8.41,1.22q-3.9,5.38-25.63,13.43l-29.79,10.26q0,2.92,3.18,2.92,20.5,0,44.92-11.47Q708.49,139.66,708.5,121.58Z"/>
        <path d="M776.18,242.92a525.35,525.35,0,0,0-44.78-103q-15.09,45.42-15.09,136,0,48.83,8,50.29,5.54-2.69,5.54-28.07,0-13.68,6.27-60.55,12.28,23.19,26.52,62.25,16.21,44.68,16.21,63,0,25.63-15.38,50.78-9,14.9-33.45,42.24L708.74,478q-12.45,13.43-17.82,24.41c.16,1.31,1,1.95,2.44,1.95s4.86-1,10.22-2.93q57-20.74,75.75-54.93Q795.17,418,795.17,353,795.17,303.71,776.18,242.92Z"/>
      </g>
    </g>
  </g>
</svg>
