<?xml version="1.0" encoding="utf-8"?>
<!-- Generator: Adobe Illustrator 22.1.0, SVG Export Plug-In . SVG Version: 6.00 Build 0)  -->
<svg version="1.1" id="Layer_1" xmlns="http://www.w3.org/2000/svg" xmlns:xlink="http://www.w3.org/1999/xlink" x="0px" y="0px"
	 viewBox="0 0 923 667.5" style="enable-background:new 0 0 923 667.5;" xml:space="preserve">
<title>EH-Asset 39-layername</title>
<g id="Layer_2_1_">
	<g id="ElHafiz">
		<g>
			<path d="M104.6,10.5c0-7-4-10.5-12.2-10.5c-8.1,0-16.8,5.7-26,17c-0.6,0.7-1.1,1.4-1.7,2.1c2,1.5,3.9,3.1,5.6,5
				c0.4-0.7,0.8-1.3,1.3-1.9l3.7-1.5c6.4,0,9.7,3.8,9.7,11.3c0,3-1.5,7-4.5,12C72.9,37.6,69,32.8,69,29.6c0-1.9,0.5-3.8,1.4-5.5
				c-1.7-1.8-3.6-3.5-5.6-5c-8.1,10.4-12.2,19.6-12.2,27.6c0,4.7,3.2,10.2,9.6,16.4C40.6,78.8,19.9,91.5,0,101.1
				c6.3,2,10.8,2.9,13.4,2.9c13.2,0,32.4-11.8,57.6-35.3c5.1,4.6,10.5,8.8,16.1,12.7l8.5-24.1L88.2,50
				C99.2,35.7,104.6,22.5,104.6,10.5z"/>
			<path d="M261.3,276.6c2.3-3.6,5.6-9.4,10-17.6c0-5-7.5-10.5-22.5-16.4l-22.2,34.4l22,14.9C252.7,288.6,256.9,283.4,261.3,276.6z"
				/>
			<path d="M254.5,430.7c-24.5,13.7-40.8,21.7-49,23.9c24.9-21.2,42-48.7,51.5-82.5c3.3-11.7,4.9-19.6,4.9-23.7
				c0-6-0.6-10.7-1.9-14.2c-10.2,0-33.1,10.3-68.6,31c3.2-5.4,7.4-19.5,12.5-42.5c5-22.3,7.5-37.3,7.5-44.9
				c-0.1-20.7-1.6-41.3-4.4-61.8c-4.1-29.8-9.5-49.2-16.4-58.3c-13.1,23.9-25.6,58-37.3,102.3c-8.8,36.1-17.5,72.2-26.1,108.2
				l0.5,2.2c3.8-1,6.8-4.3,9-10c1.6-6.2,2.8-10.9,3.4-14.2c11.7-43.5,23.5-83.6,35.2-120.4c3.6,6.4,7.2,20.4,11,42
				c3.4,19.9,5.1,34.7,5.1,44.4c0,17.9-4.5,39.8-13.5,65.7c-12.4,14.5-24.1,42.6-35.2,84.3c4.3-2.7,8.5-5.6,13.1-7.3
				c8.6-22.1,17-36.9,25.3-44.4v0c8.9-8,26.7-16,53.2-24c-5.5,26.7-32.4,51.2-80.6,73.7c0.7-1.8,1.3-3.6,2-5.3
				c-4.6,1.7-8.9,4.6-13.1,7.3c-0.4,1.3-0.7,2.7-1.1,4.1c-24.7,12.5-46.9,20.4-66.4,23.9c-22.1,3.3-39.1,5.7-50.8,7.1
				c-4.1,1.2-6.7,3-8,5.5l1,2.2c12.1,2.2,24.3,3.3,36.6,3.3c29,0,54.8-1.9,77.4-5.6l-5.1,22l2,1.2c5.6-9.8,9.4-18.1,11.2-24.9
				c74.3-17.2,124-35,149.3-53.2l12.4-46.2C294.5,407.3,279,417,254.5,430.7z"/>
			<path d="M278.7,514.4c-10.6,21.5-15.8,34.8-15.6,39.8c9.6-5,16.7-8.9,21.4-11.7c19.9-11.4,31.2-18.4,33.8-21
				c6-6,11.1-18.2,15.3-36.6c-19.3,11.7-31.4,18.6-36.5,20.8C287.8,509.7,281.6,512.6,278.7,514.4z"/>
			<path d="M349.1,419.9c-11.9,6.2-21.7,9.3-29.5,9.3c-6.7,0-11.4-0.9-14.2-2.7c12.6-17.4,18.9-32.1,18.9-43.9
				c0-2.8-0.2-5.6-0.7-8.3c-9.1,10.4-18,20.7-26.7,30.7l-12.1,45.3l6.6-5.2c6.5,12,16.7,18,30.7,18c13.2,0,26.6-5,40.3-15l12.5-46.5
				C368.3,408.1,359.7,414.2,349.1,419.9z"/>
			<path d="M431.8,604.5c-3.4,11.1-8.1,18.1-14.2,21l-85.5,42c2.6-10.1,10.3-18.3,23-24.7L431.8,604.5z"/>
			<path d="M441.8,240.2c0-2.4-3.3-5.7-9.8-9.8c-2.9-1.8-7.1-4.1-12.7-6.8l-22.2,34.4l21.7,15.1C425.7,268,433.4,257,441.8,240.2z"
				/>
			<path d="M447,421.4c-20.2,0-33.1-4.2-38.8-12.5c22.4-25.7,33.5-46.5,33.5-62.3c0-20.7-4.7-31-14.1-31c-4.5,0-11.3,3.6-20.4,10.8
				c-9.1,7.2-17.5,17.6-25.3,31.3c-8.3,14.7-12.4,27.2-12.4,37.7c0,1.2,0.1,2.5,0.2,3.7c7-3.9,15-6.5,22.3-11.3
				c-4.3-5.4-6.4-9.8-6.4-13.2c0-2.9,3.7-7.6,11.1-14.1s12.6-9.7,15.7-9.7c8.5,0,12.8,3.2,12.8,9.5c0,9.2-10.4,19.2-31.2,29.9
				c-0.7-0.8-1.4-1.6-2-2.4c-7.3,4.8-15.3,7.3-22.3,11.3c0.2,1.9,0.4,3.7,0.8,5.6l-12.5,46.9c9.7-6.9,19-14.4,27.8-22.3
				c9.9,11.6,17.7,19.6,23.4,23.8c9,6.7,20,10.4,31.3,10.3c18.4,0.1,36.4-5.3,51.8-15.4l12.7-47.3
				C487.1,414.5,467.8,421.4,447,421.4z"/>
			<path d="M561.4,126.5c-3.4,11.1-8.1,18.1-14.2,21l-85.5,42c2.6-10.1,10.3-18.3,23-24.7L561.4,126.5z"/>
			<path d="M642.7,424.3c-12.7,0-23.4-3.6-32-10.8c-9.3-7.6-13.9-17.7-13.9-30.3c0-6.6,0.6-13.3,1.7-19.8
				c17.4-15.5,42.6-26.5,75.4-33.2c7.5-10.6,12.7-23.7,15.6-39.3c-10.1,4.6-21.1,6.9-32.3,6.8c-7.3,0-17.9-2.1-31.9-6.2
				c-13.9-4.1-24.5-6.2-31.6-6.2c-27.4,0-47.8,12.4-61.2,37.1c-6.3,11.7-13.1,33.6-20.3,65.5c3.4-2.9,6.6-5.6,10-7.3
				c7.4-37,25.1-55.6,53.2-55.6c5.2,0,14.7,1.6,28.3,4.9c-13.5,6.2-27.9,14.9-43.2,26.2c-7.2,5.2-20.3,15.7-39.5,31.6
				c0.4-2.4,0.8-4.8,1.3-7.1c-3.4,1.6-6.7,4.4-10,7.3c-0.6,2.6-1.2,5.2-1.7,7.9l-9,8.5l-12.5,45.9c7.8-5.8,13.7-10.3,17.6-13.3
				l-2,30.3v30.6l1.2,1.2l1.2-0.8l2.2-4.1c-0.6-17.6,1.5-39.2,6.6-65c24.7-21.5,47.8-40.5,69.4-56.9c-2.9,13-4.4,23.7-4.4,32
				c0,17.4,5.1,32.1,15.3,44.2c10.7,12.7,24.7,19,42,19c19.9,0,39.8-6.2,59.8-18.5l12.5-46.5C691.8,417,669.2,424.3,642.7,424.3z"/>
			<path d="M731.1,35.9c-4.4-5.4-9.5-8.1-15.2-8.1c-12.7,0-24.2,6.8-34.3,20.3c-0.9,1.2-1.8,2.4-2.6,3.7c2.7,0.8,5.3,1.5,7.8,2.5
				c3.8-3.8,7.9-5.7,12.4-5.7c3.9,0,8.5,2.4,13.9,7c5.3,4.6,8,8.9,8,12.9c0,7.8-7.4,11.6-22.1,11.6c-12.8,0-19.2-3.5-19.2-10.7
				c0-5,2-9.7,6-14.1c0.3-0.4,0.6-0.7,1-1c-2.5-1-5.1-1.7-7.8-2.5c-7.6,11.2-11.4,22.8-11.4,34.7c0,11.7,6.7,17.6,20.1,17.6
				c12.8,0,24.2-5.4,34.2-16.3C732,76.7,737,64.9,737,52.3C737,46.3,734.9,40.5,731.1,35.9z"/>
			<path d="M784.1,248.3c0,45.9-5.8,83.8-17.3,113.8c-14,35.8-37.9,65.4-71.8,88.9l12.2-45.7c41.5-33.2,62.3-66.6,62.3-100.1
				c0-25.1-7.9-55.4-23.7-91.1c-3.1,15.9-7.6,39.8-13.8,71.5c-2.6,13.7-4.8,20.5-6.5,20.5l-2.2-0.7l-0.5-3.2
				c0-13.2,3.4-37.9,10.2-74.2c7.1-39.2,13.3-61.8,18.5-67.6c8.9,5.5,16.8,19,23.6,40.3C781.1,219.1,784.1,234.9,784.1,248.3z"/>
			<path d="M831.9,41c-3.4,11.1-8.1,18.1-14.2,21l-85.5,42c2.6-10.1,10.3-18.3,23-24.7L831.9,41z"/>
			<path d="M836.3,121.6c0-4.9-2.9-7.3-8.8-7.3c-8.1,0-12.2-1.1-12.2-3.4c0-4.1,2.4-6.1,7.3-6.1c1.7,0,3.3,0.3,4.9,1
				c1.6-1.1,4-4.6,7-10.3s4.8-9.8,5.2-12.2c-1.7-0.9-3.5-1.5-5.4-1.7c-6.9,0-14.8,5.9-23.8,17.8c-9,11.9-13.5,21.3-13.6,28.3
				c0,6.3,3.2,9.4,9.7,9.3c5.1-0.2,7.9,0.3,8.4,1.2c-2.6,3.6-11.1,8.1-25.6,13.4l-29.8,10.3c0,1.9,1.1,2.9,3.2,2.9
				c13.7,0,28.6-3.8,44.9-11.5C826.8,144.2,836.3,133.6,836.3,121.6z"/>
			<path d="M904,242.9c-11.2-35.8-26.2-70.4-44.8-103c-10.1,30.3-15.1,75.6-15.1,136c0,32.6,2.7,49.3,8,50.3
				c3.7-1.8,5.5-11.2,5.5-28.1c0-9.1,2.1-29.3,6.3-60.6c8.2,15.5,17,36.2,26.5,62.2c10.8,29.8,16.2,50.8,16.2,63
				c0,17.1-5.1,34-15.4,50.8c-6,9.9-17.2,24-33.5,42.2L836.6,478c-8.3,9-14.2,17.1-17.8,24.4c0.2,1.3,1,2,2.4,2s4.9-1,10.2-2.9
				c38-13.8,63.3-32.1,75.8-54.9c10.6-19,15.8-50.2,15.8-93.5C923,320.1,916.7,283.4,904,242.9z"/>
		</g>
	</g>
</g>
</svg>
