<svg xmlns="http://www.w3.org/2000/svg" viewBox="0 0 760.25 664.06">
  <title>EH-Asset 25-layername</title>
  <g id="Layer_2" data-name="Layer 2">
    <g id="ElMuiz">
      <g>
        <path d="M369.63,601.07q-5.13,16.6-14.16,21l-85.45,42q3.9-15.13,23-24.66Z"/>
        <path d="M429.69,372.8,417,420.11q-21.24,13.72-40.28,13.73-30.15,0-42.48-45.17-23.09,24.56-37.07,34.12l12.27-45.31,8.11-8.32a17,17,0,0,0-12.28-5.39q-12,0-15.71,1.46,0-6.8,8.3-28.43a137.77,137.77,0,0,1,7.81-16q8.79-9.48,49.56-9.48,28.57,0,28.57,15.58,0,14.11-24.17,40.4,6.58,25.56,27.83,25.56Q407,392.82,429.69,372.8Z"/>
        <path d="M490.72,68.11q0,18-16.39,39.52l7.47,7.31-8.55,24.16a170.85,170.85,0,0,1-16.12-12.74q-37.85,35.27-57.62,35.26-3.9,0-13.42-2.93,29.78-14.4,62.25-38.08-9.63-9.28-9.62-16.36,0-12.69,13.85-29.67t26-17Q490.72,57.62,490.72,68.11ZM471.19,89.63q0-11.25-9.66-11.26l-3.72,1.47a10.94,10.94,0,0,0-2.73,7.34q0,4.91,11.65,14.45Q471.18,94,471.19,89.63Z"/>
        <path d="M547.36,374.51l-12.45,46.42a36.06,36.06,0,0,1-19.28,5.58q-17.34,0-27.35-15.29-20.5,25.39-25.63,25.39-5.62,0-16.61-12.94-10.25-12-12.2-18.76-5.62,7.53-21,18l12.21-45.43q11.22-10.49,33.69-31.25,2.44,0,24.17,18.31T520,382.81A46.74,46.74,0,0,0,547.36,374.51Z"/>
        <path d="M574.22,24.41q0,19-15.07,35.4T525,76.17q-20.09,0-20.09-17.58,0-19.77,14-38.33Q534,0,553.15,0q8.57,0,15.19,8.06A26.1,26.1,0,0,1,574.22,24.41ZM558.35,40.59q0-5.94-8-12.9t-13.88-6.94q-7.37,0-13.38,6.7t-6,14.13q0,10.67,19.16,10.67Q558.35,52.25,558.35,40.59Z"/>
        <path d="M621.34,220.46q0,68.85-17.34,113.77-21,53.72-71.77,88.87l12.2-45.66q62.27-49.8,62.26-100.1,0-37.59-23.68-91.06-4.59,23.92-13.77,71.53-3.87,20.51-6.52,20.51l-2.18-.73-.48-3.18q0-19.77,10.21-74.21,10.69-58.84,18.48-67.63,13.38,8.3,23.59,40.28Q621.34,200.45,621.34,220.46Z"/>
        <path d="M669.19,13.18q-5.13,16.61-14.16,21l-85.45,42q3.9-15.14,22.95-24.66Z"/>
        <path d="M117.89,222.66q19,0,30.44-19.66,5.85,6.23,9.74,6.23,32.4,0,46-52.49L198,158.2q-12.94,25.25-26.37,25.25-9.52,0-9-11.4l.24-4.84-6.35,1.45q-18.06,28.85-29.29,28.85-7.82,0-7.82-9l1.71-10.91-5,.49q-12,16.4-12,29.37l1.71,8.56Q110.83,222.67,117.89,222.66Z"/>
        <path d="M131.9,163.09q15.66,0,51.87-23.93,15.66,6.84,25,7.08,3.92-12.5,3.67-15.69l-.24-3.67-7.3-5.39Q219.5,106,219.5,99.92a18.08,18.08,0,0,0-4-11.15q-4-5.28-9.65-5.27-12.45,0-25.4,12.12t-13,24.37l1,5.88a58.9,58.9,0,0,0,6.43,8.33q-29.09,17.15-57.44,24Q125.79,163.09,131.9,163.09Zm62.8-68.85q7.7,2.92,7.69,8.79,0,5.61-5.29,13.67-10.57-8.3-10.58-13.43Q186.52,94.24,194.7,94.24Z"/>
        <path d="M266.6,404.54Q249,414.8,229,437.74,215.33,453.37,201.42,481q-11.23,23.19-22.71,46.38a198.82,198.82,0,0,1-59.81,67.87q-40.77,29.31-84.48,29.3A160.89,160.89,0,0,1,2,621.58L0,623.78.49,625q15.87,9.27,79.59,9.27,42.23,0,70.55-25.64,21.5-19.53,40.78-60.3,15.61-34.9,31.25-70.07,5.61-11.22,35.15-31Q270,439,300.05,421.14L312.74,374a125.25,125.25,0,0,1-22.21,16.61Q278.56,397.71,266.6,404.54Z"/>
        <path d="M238.53,338.62q15.14-19.28,22.7-33.2l-2.44-5.13q-5.37-5.12-19.78-11.23-12,17.1-22.46,34.67Z"/>
        <path d="M741.27,215.09a525.35,525.35,0,0,0-44.78-103q-15.11,45.41-15.09,136,0,48.82,8,50.29,5.55-2.68,5.55-28.08,0-13.67,6.27-60.54,12.27,23.19,26.52,62.25,16.21,44.68,16.21,63,0,25.64-15.38,50.78-9,14.89-33.45,42.24L673.83,450.2Q661.38,463.63,656,474.61a2.11,2.11,0,0,0,2.43,1.95q2.19,0,10.23-2.93,57-20.75,75.75-54.93,15.83-28.56,15.83-93.5Q760.25,275.88,741.27,215.09Z"/>
        <path d="M673.58,93.75q0-7.32-8.79-7.32-12.21,0-12.2-3.42,0-6.11,7.32-6.11a11.88,11.88,0,0,1,4.88,1q2.44-1.69,7-10.28T677,55.4a15.19,15.19,0,0,0-5.4-1.69q-10.32,0-23.82,17.82t-13.5,28.32q0,9.53,9.65,9.28,7.67-.24,8.41,1.22-3.92,5.37-25.63,13.43L596.92,134c0,2,1.06,2.93,3.17,2.93q20.52,0,44.93-11.47Q673.58,111.82,673.58,93.75Z"/>
      </g>
    </g>
  </g>
</svg>
