<?xml version="1.0" encoding="utf-8"?>
<!-- Generator: Adobe Illustrator 22.1.0, SVG Export Plug-In . SVG Version: 6.00 Build 0)  -->
<svg version="1.1" id="Layer_1" xmlns="http://www.w3.org/2000/svg" xmlns:xlink="http://www.w3.org/1999/xlink" x="0px" y="0px"
	 viewBox="0 0 760.3 664.1" style="enable-background:new 0 0 760.3 664.1;" xml:space="preserve">
<title>EH-Asset 25-layername</title>
<g id="Layer_2_1_">
	<g id="ElMuiz">
		<g>
			<path d="M369.6,601.1c-3.4,11.1-8.1,18.1-14.2,21l-85.4,42c2.6-10.1,10.3-18.3,23-24.7L369.6,601.1z"/>
			<path d="M429.7,372.8L417,420.1c-14.2,9.1-27.6,13.7-40.3,13.7c-20.1,0-34.3-15.1-42.5-45.2c-15.4,16.4-27.8,27.7-37.1,34.1
				l12.3-45.3l8.1-8.3c-3.2-3.4-7.6-5.4-12.3-5.4c-8,0-13.2,0.5-15.7,1.5c0-4.5,2.8-14,8.3-28.4c2.3-5.5,4.9-10.8,7.8-16
				c5.9-6.3,22.4-9.5,49.6-9.5c19,0,28.6,5.2,28.6,15.6c0,9.4-8.1,22.9-24.2,40.4c4.4,17,13.7,25.6,27.8,25.6
				C400.5,392.8,414.6,386.1,429.7,372.8z"/>
			<path d="M490.7,68.1c0-7-4-10.5-12.1-10.5c-8.1,0-16.8,5.7-26,17c0,0,0,0-0.1,0.1c2.2,1.5,4.3,3,6,4.9l3-1.2
				c6.4,0,9.7,3.8,9.7,11.3c0,2.9-1.5,6.9-4.5,12c-7.8-6.4-11.6-11.2-11.6-14.5c0-2.7,0.9-5.3,2.7-7.3l0.7-0.3
				c-1.7-1.9-3.9-3.4-6-4.9c-9.2,11.3-13.8,21.2-13.8,29.6c0,4.7,3.2,10.2,9.6,16.4c-21.6,15.8-42.4,28.5-62.3,38.1
				c6.3,2,10.8,2.9,13.4,2.9c13.2,0,32.4-11.7,57.6-35.3c5.1,4.6,10.5,8.8,16.1,12.7l8.5-24.2l-7.5-7.3
				C485.3,93.3,490.7,80.1,490.7,68.1z"/>
			<path d="M547.4,374.5l-12.5,46.4c-5.8,3.6-12.5,5.6-19.3,5.6c-11.6,0-20.7-5.1-27.4-15.3c-13.7,16.9-22.2,25.4-25.6,25.4
				c-3.7,0-9.3-4.3-16.6-12.9c-6.8-8-10.9-14.3-12.2-18.8c-3.7,5-10.7,11-21,18l12.2-45.4c7.5-7,18.7-17.4,33.7-31.3
				c1.6,0,9.7,6.1,24.2,18.3c14.5,12.2,26.9,18.3,37.1,18.3C529.8,383,539.3,380.1,547.4,374.5z"/>
			<path d="M568.3,8.1c-4.4-5.4-9.5-8.1-15.2-8.1c-12.8,0-24.2,6.8-34.2,20.3c-0.4,0.6-0.9,1.2-1.3,1.8c2.5,1,5,2.2,7.3,3.6
				c3.5-3.2,7.4-4.9,11.6-4.9c3.9,0,8.5,2.3,13.9,6.9s8,8.9,8,12.9c0,7.8-7.4,11.7-22.1,11.7c-12.8,0-19.2-3.6-19.2-10.7
				c0-5,2-9.7,6-14.1c0.6-0.7,1.2-1.3,1.8-1.8c-2.3-1.4-4.8-2.5-7.3-3.6c-8.5,11.8-12.7,24-12.7,36.6c0,11.7,6.7,17.6,20.1,17.6
				c12.7,0,24.1-5.4,34.1-16.4c10-10.9,15.1-22.7,15.1-35.4C574.2,18.4,572.1,12.7,568.3,8.1z"/>
			<path d="M621.3,220.5c0,45.9-5.8,83.8-17.3,113.8c-14,35.8-37.9,65.4-71.8,88.9l12.2-45.7c41.5-33.2,62.3-66.6,62.3-100.1
				c0-25.1-7.9-55.4-23.7-91.1c-3.1,15.9-7.7,39.8-13.8,71.5c-2.6,13.7-4.8,20.5-6.5,20.5l-2.2-0.7l-0.5-3.2
				c0-13.2,3.4-37.9,10.2-74.2c7.1-39.2,13.3-61.8,18.5-67.6c8.9,5.5,16.8,19,23.6,40.3C618.3,191.3,621.3,207.1,621.3,220.5z"/>
			<path d="M669.2,13.2c-3.4,11.1-8.1,18.1-14.2,21l-85.5,42c2.6-10.1,10.3-18.3,23-24.7L669.2,13.2z"/>
			<path d="M117.9,222.7c12.7,0,22.8-6.6,30.4-19.7c3.9,4.2,7.1,6.2,9.7,6.2c21.6,0,36.9-17.5,46-52.5l-6.1,1.5
				c-8.6,16.8-17.4,25.3-26.4,25.3c-6.3,0-9.3-3.8-9-11.4l0.2-4.8l-6.4,1.4c-12,19.2-21.8,28.9-29.3,28.9c-5.2,0-7.8-3-7.8-9
				l1.7-10.9l-5,0.5c-8,10.9-12,20.7-12,29.4l1.7,8.6C109.2,220.5,113.2,222.7,117.9,222.7z"/>
			<path d="M212.2,126.9l-7.3-5.4c9.7-10.3,14.6-17.5,14.6-21.6c0-4.1-1.5-8-4-11.1c-2.7-3.5-5.9-5.3-9.6-5.3
				c-6,0-12.1,2.1-18.2,6.3c1.4,1.5,2.8,3.1,4,4.8c0.9-0.3,1.9-0.4,3-0.4c5.1,1.9,7.7,4.9,7.7,8.8c0,3.7-1.8,8.3-5.3,13.7
				c-7-5.5-10.6-10-10.6-13.4c0-4.8,1.7-7.6,5.1-8.6c-1.2-1.7-2.6-3.3-4-4.8c-2.4,1.6-4.8,3.5-7.2,5.8c-8.6,8.1-13,16.2-13,24.4
				l1,5.9c1.9,3,4,5.8,6.4,8.3c-19.4,11.4-38.5,19.4-57.4,24c5.6,3.3,10.4,4.9,14.5,4.9c10.4,0,27.7-8,51.9-23.9
				c10.4,4.6,18.8,6.9,25,7.1c2.6-8.3,3.8-13.6,3.7-15.7L212.2,126.9z"/>
			<path d="M266.6,404.5c-11.7,6.8-24.3,17.9-37.6,33.2c-9.1,10.4-18.3,24.8-27.6,43.3c-7.5,15.5-15.1,30.9-22.7,46.4
				c-14.5,26.9-34.9,50.1-59.8,67.9c-27.2,19.5-55.3,29.3-84.5,29.3c-10.9,0.1-21.7-0.9-32.4-3l-2,2.2l0.5,1.2
				c10.6,6.2,37.1,9.3,79.6,9.3c28.2,0,51.7-8.5,70.6-25.6c14.3-13,27.9-33.1,40.8-60.3c10.4-23.3,20.8-46.6,31.3-70.1
				c3.7-7.5,15.5-17.8,35.1-31c8.1-5.5,22.2-14.2,42.2-26.1l12.7-47.1c-6.8,6.3-14.2,11.9-22.2,16.6
				C282.6,395.3,274.6,400,266.6,404.5z"/>
			<path d="M238.5,338.6c10.1-12.9,17.7-23.9,22.7-33.2l-2.4-5.1c-3.6-3.4-10.2-7.2-19.8-11.2c-8,11.4-15.5,23-22.5,34.7
				L238.5,338.6z"/>
			<path d="M741.3,215.1c-11.2-35.8-26.2-70.4-44.8-103c-10.1,30.3-15.1,75.6-15.1,136c0,32.5,2.7,49.3,8,50.3
				c3.7-1.8,5.5-11.1,5.5-28.1c0-9.1,2.1-29.3,6.3-60.5c8.2,15.5,17,36.2,26.5,62.3c10.8,29.8,16.2,50.8,16.2,63
				c0,17.1-5.1,34-15.4,50.8c-6,9.9-17.2,24-33.5,42.2l-21.3,22.2c-8.3,9-14.2,17.1-17.8,24.4c0.1,1.2,1.1,2,2.2,2
				c0.1,0,0.1,0,0.2,0c1.5,0,4.9-1,10.2-2.9c38-13.8,63.3-32.1,75.8-54.9c10.6-19,15.8-50.2,15.8-93.5
				C760.2,292.3,753.9,255.6,741.3,215.1z"/>
			<path d="M673.6,93.8c0-4.9-2.9-7.3-8.8-7.3c-8.1,0-12.2-1.1-12.2-3.4c0-4.1,2.4-6.1,7.3-6.1c1.7,0,3.3,0.3,4.9,1
				c1.6-1.1,4-4.6,7-10.3c3-5.7,4.8-9.8,5.2-12.2c-1.7-0.9-3.5-1.5-5.4-1.7c-6.9,0-14.8,5.9-23.8,17.8s-13.5,21.3-13.5,28.3
				c0,6.4,3.2,9.4,9.7,9.3c5.1-0.2,7.9,0.2,8.4,1.2c-2.6,3.6-11.2,8.1-25.6,13.4L596.9,134c0,2,1.1,2.9,3.2,2.9
				c13.7,0,28.7-3.8,44.9-11.5C664.1,116.4,673.6,105.8,673.6,93.8z"/>
		</g>
	</g>
</g>
</svg>
