<?xml version="1.0" encoding="utf-8"?>
<!-- Generator: Adobe Illustrator 22.1.0, SVG Export Plug-In . SVG Version: 6.00 Build 0)  -->
<svg version="1.1" id="Layer_1" xmlns="http://www.w3.org/2000/svg" xmlns:xlink="http://www.w3.org/1999/xlink" x="0px" y="0px"
	 viewBox="0 0 932.4 707.3" style="enable-background:new 0 0 932.4 707.3;" xml:space="preserve">
<title>EH-Asset 3-layername</title>
<g id="Layer_2_1_">
	<g id="ArRahim">
		<g>
			<path d="M154.3,54.9c0-7-4-10.5-12.1-10.5c-8.1,0-16.8,5.7-26,17c-0.2,0.2-0.4,0.5-0.6,0.7c1.5,2.2,2.9,4.5,4.2,6.9
				c0.4-0.8,0.9-1.6,1.6-2.3l3.7-1.5c6.4,0,9.7,3.8,9.7,11.3c0,2.9-1.5,6.9-4.5,12c-7.8-6.4-11.6-11.2-11.6-14.5
				c0-1.8,0.4-3.5,1.2-5c-1.3-2.3-2.7-4.6-4.2-6.9c-8.8,11-13.3,20.7-13.3,28.9c0,4.7,3.2,10.2,9.6,16.4
				c-21.6,15.8-42.4,28.5-62.3,38.1c6.3,2,10.8,2.9,13.4,2.9c13.2,0,32.4-11.8,57.6-35.3c5.1,4.6,10.5,8.8,16.1,12.7l8.5-24.1
				l-7.5-7.3C148.8,80.1,154.3,67,154.3,54.9z"/>
			<path d="M222.9,361.6l-12.2,45.7c-18.7,11.7-37.4,23.4-56.2,34.9c-25.7,17.7-38.5,30.8-38.5,39.1c0,1.8,1,2.7,2.9,2.7
				c4.9,0,12.2-5.2,22-15.6c6.7-7.2,13.3-14.4,19.8-21.7c1.1,0.8,1.7,2.2,1.7,4.1c0,2.3-1.2,8.6-3.7,19c-3.1,13.3-4.8,20.5-5.1,21.5
				c-2.4,7-5.9,13.5-10.5,19.3c-7,9.1-22.5,22.3-46.4,39.5c-27.4,19.7-45.8,34.3-55.3,43.7c-17.8,17.6-26.7,34.2-26.7,50
				c0,16,13.2,28.4,39.6,37.3c21.6,7.5,46.1,11.2,73.2,11.2c44.6,0,74.4-0.7,89.4-2.2l0.5,1.2c0,4.7-13.4,8.7-40.3,12
				c-20.8,2.6-38.2,3.8-52,3.8C41.7,707.3,0,686.2,0,644c0-19.3,7.9-41.1,23.7-65.4c14.2-21.6,30.3-39,48.2-52l30.1-22
				c-1.3-4.2-2-8.6-1.9-12.9c0-12.7,5-27.6,14.9-44.7c9.9-16.4,20.4-28.2,31.5-35.4C180.3,390,205.8,373.3,222.9,361.6z"/>
			<path d="M271.8,378.9c-11.9,6.2-21.7,9.3-29.5,9.3c-6.7,0-11.4-0.9-14.2-2.7c12.6-17.4,18.9-32.1,18.9-44c0-2.8-0.2-5.6-0.7-8.3
				c-9.1,10.4-18,20.7-26.7,30.8l-12.1,45.3l6.6-5.2c6.5,12,16.7,18,30.7,18c13.2,0,26.6-5,40.3-15l12.5-46.5
				C291,367.1,282.4,373.2,271.8,378.9z"/>
			<path d="M201.4,473.4c-10.6,21.5-15.8,34.7-15.6,39.8c9.6-5,16.7-8.9,21.4-11.7c20-11.4,31.2-18.4,33.8-21
				c6-6,11.1-18.2,15.3-36.6c-19.3,11.7-31.4,18.6-36.5,20.8C210.5,468.7,204.3,471.6,201.4,473.4z"/>
			<path d="M354.5,587.9c-3.4,11.1-8.1,18.1-14.2,21l-85.4,42c2.6-10.1,10.3-18.3,22.9-24.7L354.5,587.9z"/>
			<path d="M475.3,221.7c-15.9,9.6-33.9,14.4-53.7,14.4c-4.8-0.1-9.6-0.6-14.4-1.3c-4.8-0.8-9.6-1.2-14.4-1.3
				c-25.2,0-43.7,5.8-55.4,17.3c-10.7,10.5-18.4,28.5-22.8,54c-3.2,18.2-4.7,28.9-4.7,32l0.1,4.6c3.3-1.7,6.7-3.2,9.9-5v-2.7
				c0.1-10,2.2-19.9,6.1-29.1c5.7-14.2,15-23.3,27.8-27.3c7.3-2.4,20.8-3.8,40.5-4.1c-9.3,7.1-21.7,18.7-37.4,34.7
				c-16.3,16.6-28.6,28.3-37.1,35.1v-6.6c-3.2,1.8-6.6,3.4-9.9,5l0.2,9.3l-15.4,12.9l-12.5,45.9c10.6-7.2,20.6-15.1,30-23.7
				c2.3,20.8,6.2,41.5,11.5,61.8l1.7,0.7c0.9-0.7,1.4-1.8,1.5-2.9v-1.5c-3.7-34.5-5.5-54.7-5.4-60.5v-5.9c22-21.9,44-43.9,66.2-65.9
				c23.3-21,49.8-37.9,78.6-50.3c1.8-2.8,3.8-8.6,6-17.6c2.2-9,3.3-15.4,3.3-19.3L475.3,221.7z"/>
			<path d="M522,113l-69.6,24.4c-10.9,3.8-19.9,11.2-27.1,22.5l79.8-28.3C511.6,129.3,517.3,123.1,522,113z"/>
			<path d="M484.4,168.7c-6.2,0-9.3-5.9-9.3-17.8l-5.9,1.5c-12.4,21.6-22.4,32.5-30,32.5c-5.7,0-8.5-3.8-8.5-11.5l0.7-7.6l-8.5,4.6
				c-4.6,12.4-6.9,20.8-6.9,25.3c0,9.2,4.7,13.8,14.2,13.8c10.9,0,21.3-7.1,31.1-21.1c5.9,4.2,10.7,6.3,14.4,6.3
				c11.8,0,21.5-7.1,29.1-21.2c5.7-10.4,9.4-22.6,11-36.6l-7.6,2.2C501.8,158.8,493.8,168.7,484.4,168.7z"/>
			<path d="M614,360.8L601.3,408c-20.2,11.7-34.3,20.2-42.2,25.6c-19,12.7-30.7,23.2-34.9,31.5c-13,28.2-26,56.2-39.1,84.2
				c-18.9,35.8-38.6,57.1-59.1,64c-15.6,5.3-32.8,8-51.5,8c-37.6,0-61.8-3.2-72.5-9.5l-0.7-1.2l2-2.2c10.5,2,21.3,3,32,2.9
				c29.9,0,58.3-9.6,85-28.8c23.6-17.2,43.5-40,59.8-68.4c1.1-2.1,8.9-17.4,23.2-45.9c9.3-18.6,18.3-33.1,27-43.6
				s22.5-21.6,41.4-33.3C592.5,378.3,606.7,368.2,614,360.8z"/>
			<path d="M687.5,207.3c0,45.9-5.8,83.8-17.3,113.8c-14,35.8-37.9,65.4-71.8,88.9l12.2-45.6c41.5-33.2,62.3-66.6,62.3-100.1
				c0-25.1-7.9-55.4-23.7-91.1c-3.1,15.9-7.7,39.8-13.8,71.5c-2.6,13.7-4.8,20.5-6.5,20.5l-2.2-0.7l-0.5-3.2
				c0-13.2,3.4-37.9,10.2-74.2c7.1-39.2,13.3-61.8,18.5-67.6c8.9,5.5,16.8,19,23.6,40.3C684.5,178.1,687.5,193.9,687.5,207.3z"/>
			<path d="M841.3,0c-3.4,11.1-8.1,18.1-14.2,21l-85.5,42c2.6-10.1,10.3-18.3,23-24.7L841.3,0z"/>
			<path d="M845.7,80.6c0-4.9-2.9-7.3-8.8-7.3c-8.1,0-12.2-1.1-12.2-3.4c0-4.1,2.4-6.1,7.3-6.1c1.7,0,3.3,0.3,4.9,1
				c1.6-1.1,4-4.6,7-10.3c3-5.7,4.8-9.8,5.3-12.2c-1.7-0.9-3.5-1.5-5.4-1.7c-6.9,0-14.8,5.9-23.8,17.8s-13.5,21.3-13.5,28.3
				c0,6.3,3.2,9.4,9.7,9.3c5.1-0.2,7.9,0.2,8.4,1.2c-2.6,3.6-11.2,8.1-25.6,13.4l-29.8,10.3c0,2,1,2.9,3.2,2.9
				c13.7,0,28.6-3.8,44.9-11.5C836.2,103.2,845.7,92.6,845.7,80.6z"/>
			<path d="M913.4,201.9c-11.2-35.8-26.2-70.4-44.8-103c-10.1,30.3-15.1,75.6-15.1,136c0,32.6,2.7,49.3,8,50.3
				c3.7-1.8,5.5-11.2,5.5-28.1c0-9.1,2.1-29.3,6.3-60.6c8.2,15.5,17,36.2,26.5,62.3c10.8,29.8,16.2,50.8,16.2,63
				c0,17.1-5.1,34-15.4,50.8c-6,9.9-17.1,24-33.4,42.2c-7,7.3-14.1,14.7-21.2,22.2c-8.3,8.9-14.3,17.1-17.8,24.4
				c0.1,1.2,1.1,2.1,2.3,2c0.1,0,0.1,0,0.2,0c1.5,0,4.9-1,10.2-2.9c38-13.8,63.2-32.1,75.8-54.9c10.5-19,15.8-50.2,15.8-93.5
				C932.4,279.2,926.1,242.4,913.4,201.9z"/>
		</g>
	</g>
</g>
</svg>
