<?xml version="1.0" encoding="utf-8"?>
<!-- Generator: Adobe Illustrator 22.1.0, SVG Export Plug-In . SVG Version: 6.00 Build 0)  -->
<svg version="1.1" id="Layer_1" xmlns="http://www.w3.org/2000/svg" xmlns:xlink="http://www.w3.org/1999/xlink" x="0px" y="0px"
	 viewBox="0 0 987.7 639.7" style="enable-background:new 0 0 987.7 639.7;" xml:space="preserve">
<title>EH-Asset 40-layername</title>
<g id="Layer_2_1_">
	<g id="ElMukit">
		<g>
			<path d="M104.6,68.1c0-7-4-10.5-12.2-10.5c-7.5,0-15.4,4.9-23.9,14.5c1.3,2.5,2.5,5,3.7,7.5l3.1-1.2c6.4,0,9.7,3.8,9.7,11.3
				c0,2.9-1.5,6.9-4.5,12C72.9,95.3,69,90.5,69,87.2c0-2.7,0.9-5.3,2.7-7.3l0.6-0.2c-1.2-2.5-2.4-5.1-3.7-7.5
				c-0.7,0.8-1.4,1.6-2.1,2.5c-9.2,11.3-13.8,21.2-13.8,29.7c0,4.7,3.2,10.2,9.6,16.4C40.6,136.4,19.9,149.1,0,158.7
				c6.3,2,10.8,2.9,13.4,2.9c13.2,0,32.4-11.7,57.6-35.3c5.1,4.6,10.5,8.8,16.1,12.7l8.5-24.2l-7.5-7.3
				C99.2,93.3,104.6,80.1,104.6,68.1z"/>
			<path d="M327.5,197.8c1.8-9.3,3.2-15.5,4.1-18.6c-17.8,11.2-36.4,21.2-55.7,29.8c-10.4,20.7-15.4,33.9-15.1,39.8
				C302.9,228.1,325.1,211.1,327.5,197.8z"/>
			<path d="M414.9,392.1c-6.4,0.1-12.6-2.1-17.5-6.2c-4.9-3.7-7.8-9.5-7.7-15.7c0-4.2,1.5-10.2,4.5-18c3-7.8,4.6-13.7,4.8-17.8
				l-1-2.4l-3.9,0.5l-113,105.4c-48.5,42.5-94.6,63.8-138.2,63.8c-23.4,0-44.4-9.1-63-27.2s-27.8-38.9-27.8-62.4
				c0-11.5,2.3-23,6.6-33.7c23.8-59.4,85.1-89.1,183.9-89.1c22.9,0,43.1-3.3,60.5-10c32.5-12.5,51.3-20.5,56.4-23.9l-0.2-2.7
				c-42,16.9-79.7,25.3-113,25.1l-43-0.2c-34.7-0.2-65.4,8.5-92.3,26.1S63.8,346,50,377.9c-7.2,16.4-10.8,31.5-10.8,45.2
				c0,33.2,9.2,60.9,27.6,83c19.7,23.5,45.8,35.2,78.4,35.2c30.4,0,64.4-13.9,101.8-41.6c23.6-17.6,51.8-43.7,84.5-78.3
				c27.5-29,43.2-43.9,47.1-44.7l0.5,1.2c-1.3,3.9-2,9.2-2,15.7c0,10.8,2.6,19.9,7.7,27.2c5.8,8.5,13.8,12.7,24,12.8
				c8,0,18.3-4.4,30.8-13.2l12.5-46.6C440.8,386,428.5,392.1,414.9,392.1z"/>
			<path d="M500.7,392.1c-11.9,6.2-21.7,9.3-29.5,9.3c-6.7,0-11.4-0.9-14.2-2.7c12.6-17.4,19-32.1,19-43.9c0-2.8-0.2-5.6-0.7-8.3
				c-9.1,10.4-18,20.7-26.7,30.8l-12.1,45.3l6.6-5.2c6.5,12,16.7,18,30.7,18c13.2,0,26.6-5,40.3-15l12.5-46.5
				C519.9,380.3,511.3,386.4,500.7,392.1z"/>
			<path d="M430.3,486.6c-10.6,21.5-15.8,34.8-15.6,39.8c9.6-5,16.7-9,21.4-11.7c19.9-11.4,31.2-18.4,33.8-21
				c6-6,11.1-18.2,15.3-36.6c-19.3,11.7-31.4,18.6-36.5,20.8C439.4,481.9,433.2,484.8,430.3,486.6z"/>
			<path d="M583.4,576.7c-3.4,11.1-8.1,18.1-14.2,21l-85.5,42c2.6-10.1,10.3-18.3,23-24.7L583.4,576.7z"/>
			<path d="M718.2,68.1c0-7-4-10.5-12.1-10.5c-8.1,0-16.8,5.7-26,17c-0.4,0.5-0.9,1.1-1.3,1.6c2.2,1.2,4.3,2.4,6.5,3.7c0,0,0,0,0,0
				l3.7-1.5c6.4,0,9.7,3.8,9.7,11.3c0,2.9-1.5,6.9-4.5,12c-7.8-6.4-11.7-11.2-11.7-14.5c0-2.7,0.9-5.3,2.7-7.3
				c-2.1-1.2-4.3-2.5-6.5-3.7c-8.4,10.6-12.6,20-12.6,28c0,4.7,3.2,10.2,9.6,16.4c-21.6,15.8-42.4,28.5-62.3,38.1
				c6.3,2,10.8,2.9,13.4,2.9c13.2,0,32.3-11.7,57.6-35.3c5.1,4.6,10.5,8.8,16.1,12.7l8.5-24.2l-7.5-7.3
				C712.7,93.3,718.2,80.1,718.2,68.1z"/>
			<path d="M774.8,374.5l-12.5,46.4c-5.8,3.6-12.5,5.6-19.3,5.6c-11.5,0-20.7-5.1-27.3-15.3c-13.7,16.9-22.2,25.4-25.6,25.4
				c-3.7,0-9.3-4.3-16.6-12.9c-6.8-8-10.9-14.3-12.2-18.8c-3.7,5-10.7,11-21,18l12.2-45.4c7.5-7,18.7-17.4,33.7-31.3
				c1.6,0,9.7,6.1,24.2,18.3c14.5,12.2,26.8,18.3,37.1,18.3C757.2,383,766.8,380.1,774.8,374.5z"/>
			<path d="M795.8,8.1c-4.4-5.4-9.5-8.1-15.2-8.1c-12.7,0-24.2,6.8-34.3,20.3c-0.2,0.2-0.4,0.5-0.5,0.7c2.2,1.4,4.3,3.1,6.2,5
				c3.6-3.5,7.6-5.2,11.9-5.2c3.9,0,8.5,2.3,13.9,6.9c5.3,4.6,8,8.9,8,12.9c0,7.8-7.4,11.7-22.1,11.7c-12.8,0-19.2-3.6-19.2-10.7
				c0-5,2-9.7,6-14.1c0.5-0.5,0.9-1,1.4-1.5c-1.9-1.9-4-3.6-6.2-5c-9,12.1-13.5,24.7-13.5,37.6c0,11.7,6.7,17.6,20.1,17.6
				c12.7,0,24.1-5.4,34.2-16.4s15.1-22.7,15.1-35.4C801.6,18.4,799.5,12.7,795.8,8.1z"/>
			<path d="M848.8,220.5c0,45.9-5.8,83.8-17.3,113.8c-14,35.8-37.9,65.4-71.8,88.9l12.2-45.7c41.5-33.2,62.3-66.6,62.3-100.1
				c0-25.1-7.9-55.4-23.7-91.1c-3.1,15.9-7.7,39.8-13.8,71.5c-2.6,13.7-4.8,20.5-6.5,20.5l-2.2-0.7l-0.5-3.2
				c0-13.2,3.4-37.9,10.2-74.2c7.1-39.2,13.3-61.8,18.5-67.6c8.9,5.5,16.8,19,23.6,40.3C845.8,191.3,848.8,207.1,848.8,220.5z"/>
			<path d="M896.6,13.2c-3.4,11.1-8.1,18.1-14.2,21l-85.5,42c2.6-10.1,10.3-18.3,23-24.7L896.6,13.2z"/>
			<path d="M598.7,393.6c-20.2,0-33.1-4.2-38.8-12.5c22.4-25.7,33.5-46.5,33.5-62.3c0-20.7-4.7-31-14.1-31
				c-4.5,0-11.3,3.6-20.4,10.8s-17.5,17.6-25.3,31.3c-0.2,0.4-0.4,0.7-0.6,1.1c3.3,2.3,6.6,4.6,9.8,7c1.5-1.6,3.4-3.4,5.5-5.3
				c7.4-6.5,12.6-9.7,15.7-9.7c8.5,0,12.8,3.2,12.8,9.5c0,9.2-10.4,19.2-31.2,29.9c-5.6-6.5-8.4-11.7-8.4-15.6c0-2.1,1.8-5,5.5-8.8
				c-3.2-2.4-6.5-4.7-9.8-7c-7.9,14.2-11.8,26.4-11.8,36.5c0,3.1,0.4,6.3,1.2,9.3l-12.5,46.9c9.7-6.9,19-14.4,27.8-22.3
				c9.9,11.6,17.7,19.6,23.4,23.8c9,6.7,20,10.4,31.3,10.3c18.4,0.1,36.4-5.3,51.8-15.4l12.7-47.2
				C638.9,386.7,619.5,393.6,598.7,393.6z"/>
			<path d="M613,201.2c2-8.3,3.3-14.6,4.2-18.8c-23.8,14.7-42.3,24.7-55.7,30c-10.1,20-15.1,32.1-15.1,36.4l0.3,2.9
				C587.8,231.2,609.9,214.4,613,201.2z"/>
			<path d="M901,93.8c0-4.9-2.9-7.3-8.8-7.3c-8.1,0-12.2-1.1-12.2-3.4c0-4.1,2.4-6.1,7.3-6.1c1.7,0,3.3,0.3,4.9,1
				c1.6-1.1,4-4.6,7-10.3c3-5.7,4.8-9.8,5.3-12.2c-1.7-0.9-3.5-1.5-5.4-1.7c-6.9,0-14.8,5.9-23.8,17.8s-13.5,21.3-13.5,28.3
				c0,6.4,3.2,9.4,9.7,9.3c5.1-0.2,7.9,0.2,8.4,1.2c-2.6,3.6-11.2,8.1-25.6,13.4L824.4,134c0,2,1.1,2.9,3.2,2.9
				c13.7,0,28.7-3.8,44.9-11.5C891.5,116.4,901,105.8,901,93.8z"/>
			<path d="M968.7,215.1c-11.2-35.8-26.2-70.4-44.8-103c-10.1,30.3-15.1,75.6-15.1,136c0,32.5,2.7,49.3,8,50.3
				c3.7-1.8,5.5-11.1,5.5-28.1c0-9.1,2.1-29.3,6.3-60.5c8.2,15.5,17,36.2,26.5,62.3c10.8,29.8,16.2,50.8,16.2,63
				c0,17.1-5.1,34-15.4,50.8c-6,9.9-17.2,24-33.5,42.2l-21.2,22.2c-8.3,9-14.2,17.1-17.8,24.4c0.1,1.2,1.1,2,2.2,2
				c0.1,0,0.1,0,0.2,0c1.5,0,4.9-1,10.2-2.9c38-13.8,63.3-32.1,75.8-54.9c10.5-19,15.8-50.2,15.8-93.5
				C987.7,292.3,981.4,255.6,968.7,215.1z"/>
		</g>
	</g>
</g>
</svg>
