<?xml version="1.0" encoding="utf-8"?>
<!-- Generator: Adobe Illustrator 22.1.0, SVG Export Plug-In . SVG Version: 6.00 Build 0)  -->
<svg version="1.1" id="Layer_1" xmlns="http://www.w3.org/2000/svg" xmlns:xlink="http://www.w3.org/1999/xlink" x="0px" y="0px"
	 viewBox="0 0 1098.5 664.1" style="enable-background:new 0 0 1098.5 664.1;" xml:space="preserve">
<title>EH-Asset 41-layername</title>
<g id="Layer_2_1_">
	<g id="ElHasib">
		<g>
			<path d="M104.6,129.1c0-7-4-10.5-12.2-10.5c-7.8,0-16.1,5.3-24.9,15.7c1.9,1.9,3.8,3.9,5.7,5.9l2.2-0.9c6.4,0,9.7,3.8,9.7,11.3
				c0,2.9-1.5,6.9-4.5,12c-7.8-6.4-11.7-11.2-11.7-14.5c0-2.7,0.9-5.3,2.7-7.3l1.5-0.6c-1.8-2-3.7-4-5.7-5.9
				c-0.4,0.4-0.7,0.8-1.1,1.3c-9.2,11.3-13.8,21.2-13.8,29.7c0,4.7,3.2,10.2,9.6,16.4C40.6,197.4,19.9,210.1,0,219.7
				c6.3,2,10.8,2.9,13.4,2.9c13.2,0,32.4-11.8,57.6-35.3c5.1,4.6,10.5,8.8,16.1,12.8l8.5-24.1l-7.5-7.3
				C99.2,154.4,104.6,141.2,104.6,129.1z"/>
			<path d="M211.7,582.3c-4.3-2.5-8.7-4.7-13.2-6.6c-13.3,20.2-20.7,31.7-22,34.7l22,14.9c7.3-8,14.8-18.9,22.4-32.7
				C221,589.4,217.9,586,211.7,582.3z"/>
			<path d="M414.9,392.1c-6.4,0.1-12.6-2.1-17.5-6.2c-4.9-3.7-7.8-9.5-7.7-15.7c0-4.2,1.5-10.2,4.5-18c3-7.8,4.6-13.7,4.8-17.8
				l-1-2.4l-3.9,0.5l-113,105.4c-48.5,42.5-94.6,63.8-138.2,63.8c-23.4,0-44.4-9.1-63-27.2s-27.8-38.9-27.8-62.4
				c0-11.5,2.3-23,6.6-33.7c23.8-59.4,85.1-89.1,184-89.1c22.9,0,43.1-3.3,60.5-10c32.5-12.5,51.3-20.5,56.4-23.9l-0.2-2.7
				c-42,16.9-79.7,25.3-113,25.1l-43-0.2c-34.7-0.2-65.4,8.5-92.3,26.1S63.8,346,50,377.9c-7.2,16.4-10.8,31.5-10.8,45.2
				c0,33.2,9.2,60.9,27.6,83c19.7,23.5,45.8,35.2,78.4,35.2c30.4,0,64.4-13.9,101.8-41.6c23.6-17.6,51.8-43.7,84.5-78.3
				c27.5-29,43.2-43.9,47.1-44.7l0.5,1.2c-1.3,3.9-2,9.2-2,15.7c0,10.8,2.6,19.9,7.7,27.2c5.8,8.5,13.8,12.7,24,12.8
				c8,0,18.3-4.4,30.8-13.2l12.5-46.6C440.8,386,428.5,392.1,414.9,392.1z"/>
			<path d="M583.4,601.1c-3.4,11.1-8.1,18.1-14.2,21l-85.5,42c2.6-10.1,10.3-18.3,23-24.7L583.4,601.1z"/>
			<path d="M680.1,374l-12.7,47.1c-11.9,8.8-26.6,13.2-44.2,13.2c-13.7,0-24.6-4.9-32.7-14.7c-7.5-9.1-11.2-20.4-11.2-34
				c0-3.4,0.2-6.9,0.7-10.3l-5.3,1c-5.3,8.9-12.1,16.7-20.2,23.1c-10.1,7.8-19.3,11.2-27.7,10.2c-4.8,4.6-10,8.9-15.4,12.8l12.5-46
				c4.2-2.6,7.9-8.1,11.1-16.4c3.5-9.3,6.6-15.2,9.2-17.8l1.9,0.7c-0.3,6.9-0.9,13.7-2,20.5c3.6,0,9.5-3.9,17.7-11.7
				c7-6.7,11.8-12.2,14.2-16.6c1.5-2.8,3.8-9.5,7.1-20.3c0.7-2.4,2.5-5,5.4-7.6l1.5,1.5l0.5,11.2c0,1.1-0.5,4.9-1.5,11.2
				c1.6,0,5.1-2,10.5-5.9c6-4.4,12.2-13.1,18.5-26.1c5.9-12.4,9.1-18.7,9.8-19l1.2,1.5v4.9c0,14.2-3.7,29.7-11,46.6
				c-8,18.4-17.4,31-28.3,37.8c1.6,17.8,12.9,26.6,33.9,26.6C643.4,397.7,662.2,389.8,680.1,374z"/>
			<path d="M737,98.6c-3.4,11.1-8.1,18.1-14.2,21l-85.5,42c2.6-10.1,10.3-18.3,23-24.7L737,98.6z"/>
			<path d="M818.2,396.5c-12.7,0-23.4-3.6-32-10.7c-9.3-7.6-13.9-17.7-13.9-30.3c0-6.6,0.6-13.3,1.7-19.8
				c17.4-15.5,42.6-26.5,75.4-33.2c7.5-10.6,12.7-23.7,15.6-39.3c-10.1,4.6-21.1,6.9-32.2,6.8c-7.3,0-17.9-2.1-31.9-6.2
				c-13.9-4.1-24.5-6.2-31.6-6.2c-27.4,0-47.8,12.4-61.2,37.1c-6.3,11.8-13.1,33.7-20.3,65.7c3.7-2.8,7.2-5.9,10.4-9.2
				c7.6-35.8,25.2-53.7,52.8-53.7c5.2,0,14.6,1.6,28.3,4.9h0c-13.5,6.2-27.9,14.9-43.2,26.2c-7.2,5.2-20.4,15.7-39.5,31.6
				c0.5-3.1,1-6.1,1.6-8.9c-3.3,3.3-6.7,6.5-10.4,9.2c-0.6,2.5-1.1,5.1-1.7,7.7l-9,8.5l-12.5,45.9c7.8-5.8,13.7-10.3,17.6-13.4
				l-2,30.3v30.5l1.2,1.2l1.2-0.7l2.2-4.1c-0.7-17.6,1.5-39.2,6.5-65c24.6-21.5,47.8-40.5,69.3-56.9c-2.9,13-4.4,23.7-4.4,32
				c0,17.4,5.1,32.1,15.3,44.1c10.7,12.7,24.7,19,42,19c19.9,0,39.8-6.2,59.8-18.5l12.4-46.5C867.4,389.1,844.7,396.5,818.2,396.5z"
				/>
			<path d="M906.6,8.1c-4.4-5.4-9.5-8.1-15.2-8.1c-12.7,0-24.2,6.8-34.3,20.3c-2.5,3.3-4.7,6.7-6.5,10.1c2.6,0.4,5.1,0.8,7.7,1.2
				c0.8-1.4,1.8-2.7,3-4.1c4-4.5,8.5-6.7,13.4-6.7c3.9,0,8.5,2.3,13.9,6.9c5.3,4.6,8,8.9,8,12.9c0,7.8-7.4,11.7-22.1,11.7
				c-12.8,0-19.2-3.6-19.2-10.7c0-3.5,1-6.8,3-10.1c-2.6-0.4-5.1-0.8-7.7-1.2c-5,9.2-7.5,18.6-7.5,28.2c0,11.7,6.7,17.6,20.1,17.6
				c12.7,0,24.1-5.4,34.2-16.4c10-10.9,15.1-22.7,15.1-35.4C912.5,18.4,910.4,12.7,906.6,8.1z"/>
			<path d="M959.6,220.5c0,45.9-5.8,83.8-17.3,113.8c-14,35.8-37.9,65.4-71.8,88.9l12.2-45.7c41.5-33.2,62.3-66.6,62.3-100.1
				c0-25.1-7.9-55.4-23.7-91.1c-3.1,15.9-7.7,39.8-13.8,71.5c-2.6,13.7-4.8,20.5-6.5,20.5l-2.2-0.7l-0.5-3.2
				c0-13.2,3.4-37.9,10.2-74.2c7.1-39.2,13.3-61.8,18.5-67.6c8.9,5.5,16.8,19,23.6,40.3C956.6,191.3,959.6,207.1,959.6,220.5z"/>
			<path d="M1007.5,13.2c-3.4,11.1-8.1,18.1-14.2,21l-85.5,42c2.6-10.1,10.3-18.3,23-24.7L1007.5,13.2z"/>
			<path d="M430.3,486.6c-10.6,21.5-15.8,34.8-15.6,39.8c9.6-5,16.7-9,21.4-11.7c19.9-11.4,31.2-18.4,33.8-21
				c6-6,11.1-18.2,15.3-36.6c-19.3,11.7-31.4,18.6-36.5,20.8C439.4,481.9,433.2,484.8,430.3,486.6z"/>
			<path d="M471.2,401.4c-6.7,0-11.4-0.9-14.2-2.7c12.6-17.4,19-32.1,19-43.9c0-2.8-0.2-5.6-0.7-8.3c-9.1,10.4-18,20.7-26.7,30.8
				l-12.1,45.3l6.6-5.2c6.5,12,16.7,18,30.7,18c13.2,0,26.6-5,40.3-15l12.5-46.5c-6.5,6.5-15.1,12.6-25.6,18.3
				C488.9,398.3,479,401.4,471.2,401.4z"/>
			<path d="M1011.9,93.8c0-4.9-2.9-7.3-8.8-7.3c-8.1,0-12.2-1.1-12.2-3.4c0-4.1,2.4-6.1,7.3-6.1c1.7,0,3.3,0.3,4.9,1
				c1.6-1.1,4-4.6,7-10.3c3-5.7,4.8-9.8,5.3-12.2c-1.7-0.9-3.5-1.5-5.4-1.7c-6.9,0-14.8,5.9-23.8,17.8c-9,11.9-13.5,21.3-13.5,28.3
				c0,6.4,3.2,9.4,9.7,9.3c5.1-0.2,7.9,0.2,8.4,1.2c-2.6,3.6-11.2,8.1-25.6,13.4L935.2,134c0,2,1.1,2.9,3.2,2.9
				c13.7,0,28.7-3.8,44.9-11.5C1002.3,116.4,1011.9,105.8,1011.9,93.8z"/>
			<path d="M1079.6,215.1c-11.2-35.8-26.2-70.4-44.8-103c-10.1,30.3-15.1,75.6-15.1,136c0,32.5,2.7,49.3,8,50.3
				c3.7-1.8,5.6-11.1,5.6-28.1c0-9.1,2.1-29.3,6.3-60.5c8.1,15.4,17,36.2,26.5,62.2c10.8,29.8,16.2,50.8,16.2,63
				c0,17.1-5.1,34-15.4,50.8c-6,9.9-17.1,24-33.4,42.2l-21.2,22.2c-8.3,9-14.2,17.1-17.8,24.4c0.1,1.2,1.1,2,2.2,2
				c0.1,0,0.1,0,0.2,0c1.5,0,4.9-1,10.2-2.9c38-13.8,63.3-32.1,75.8-54.9c10.6-19,15.8-50.2,15.8-93.5
				C1098.5,292.3,1092.2,255.6,1079.6,215.1z"/>
		</g>
	</g>
</g>
</svg>
