<svg xmlns="http://www.w3.org/2000/svg" viewBox="0 0 901.51 667.48">
  <title>EH-Asset 42-layername</title>
  <g id="Layer_2" data-name="Layer 2">
    <g id="ElDzelil">
      <g>
        <path d="M104.64,10.49q0,18.06-16.4,39.52l7.47,7.32L87.17,81.48A171,171,0,0,1,71.05,68.75Q33.21,104,13.43,104,9.52,104,0,101.07,29.79,86.67,62.26,63q-9.63-9.29-9.62-16.36,0-12.69,13.85-29.66t26-17Q104.64,0,104.64,10.49ZM85.11,32q0-11.26-9.67-11.27l-3.72,1.47A11,11,0,0,0,69,29.57Q69,34.46,80.64,44C83.62,39,85.11,35,85.11,32Z"/>
        <path d="M351.46,273q-2.19,5.63-51.75,25.88-38.1,15.63-62.26,23.7,2,45.53,4.39,57.51,7.82,37.68,32.23,37.68,11,0,31-16.11l-12.45,46.2q-17.1,12.88-30.77,12.88-26.12,0-34.66-34.95-26.37,101.36-95,127Q112,560.3,97.07,560.3q-24.42,0-45-20.52t-20.62-45q0-62.07,26.4-99.22,25.41-35.43,84.09-59.39,13.44-5.61,39.36-10.75,28.11-5.86,39.84-10v-10q0-9.27-4-40-4.25-32.22-6.5-37.6a389.34,389.34,0,0,1,13.68-39.55q13.42,51,12.69,122.56a890,890,0,0,0,113.53-39.06ZM221.34,343.53V327.88q-75.69,20.06-112.55,41.56-63,36.18-63,92.4,0,25.43,13.41,41.8,14.13,17.6,39,17.6,42.9,0,74.11-28.11,28.29-25.42,41.94-68.69Q221.58,401.22,221.34,343.53Z"/>
        <path d="M436.67,604.49q-5.13,16.6-14.16,21l-85.45,42Q341,652.35,360,642.82Z"/>
        <path d="M483.3,401.86l-12.45,46.21q-15.63,12.14-33,12.14-26.37,0-25.64-48l.25-23.92q-18.44,41-48.59,62.5l12.21-45.47q24.31-20,30.69-32.22,7.6-13.92,7.61-42.73,0-12.45-1.2-37t-1.21-37q0-6.35,4.81-21.12t8.65-18.43l2.17,1q2.43,42.24,2.44,169.93,0,29.3,20.26,29.29Q465.72,417,483.3,401.86Z"/>
        <path d="M539.94,187.5q-5.13,16.6-14.16,21l-85.45,42q3.9-15.13,22.95-24.66Z"/>
        <path d="M715.48,52.25q0,19-15.07,35.4T666.23,104q-20.09,0-20.09-17.57,0-19.79,14-38.33,15.18-20.26,34.3-20.27,8.57,0,15.19,8.06A26.15,26.15,0,0,1,715.48,52.25ZM699.61,68.42q0-5.94-8-12.89t-13.87-7q-7.37,0-13.39,6.7t-6,14.14q0,10.67,19.16,10.66Q699.61,80.08,699.61,68.42Z"/>
        <path d="M762.6,248.29q0,68.85-17.34,113.77-21,53.71-71.78,88.87l12.21-45.66Q748,355.47,748,305.18q0-37.6-23.68-91.07-4.59,23.92-13.78,71.53-3.86,20.52-6.51,20.51l-2.18-.73-.48-3.17q0-19.78,10.21-74.22Q722.22,169.19,730,160.4q13.38,8.31,23.59,40.28Q762.59,228.28,762.6,248.29Z"/>
        <path d="M810.45,41q-5.13,16.6-14.16,21l-85.45,42q3.9-15.14,22.95-24.65Z"/>
        <path d="M283.59,514.4Q267.72,546.64,268,554.2q14.34-7.56,21.41-11.72,29.92-17.09,33.82-21,9-9,15.32-36.62-28.92,17.58-36.46,20.76Q288,511.73,283.59,514.4Z"/>
        <path d="M324.47,429.2q-10,0-14.16-2.69,18.93-26.11,18.94-43.94a43.22,43.22,0,0,0-.73-8.3Q314.91,389.9,301.8,405l-12.14,45.32,6.56-5.17q9.72,18,30.69,17.95,19.77,0,40.28-15l12.45-46.53q-9.76,9.76-25.63,18.31Q336.19,429.21,324.47,429.2Z"/>
        <path d="M510,524.17q-20.31,30.52-22.52,34.42,10.77,8.31,21.79,15.38,15.18-19.28,22.77-33.2Q532,532,510,524.17Z"/>
        <path d="M589.23,413.57q-13.92-11.47-13.92-30.28a112.67,112.67,0,0,1,1.74-19.78q26.12-23.2,75.44-33.21,11.22-15.87,15.62-39.32a76.7,76.7,0,0,1-32.22,6.8q-11,0-31.86-6.19T572.4,285.4q-41.13,0-61.21,37.08-10.28,19-22,73.42l-9,8.53-12.46,45.86q11.73-8.73,17.58-13.35l-1.95,30.27v30.52l1.22,1.22,1.22-.73,2.2-4.15q-1-26.37,6.59-64.95,37-32.25,69.34-56.94-4.39,19.51-4.38,31.95,0,26.08,15.32,44.13,16.13,19,42,19,29.79,0,59.82-18.51l12.45-46.49q-28.08,22-67.87,22Q602.16,424.32,589.23,413.57Zm-50-57.29q-10.76,7.83-39.55,31.57,9.75-62.66,54.44-62.65,7.81,0,28.32,4.89Q562.16,339.39,539.21,356.28Z"/>
        <path d="M814.84,121.58q0-7.32-8.79-7.32-12.21,0-12.2-3.42,0-6.11,7.32-6.1a11.88,11.88,0,0,1,4.88,1q2.44-1.69,7-10.27t5.25-12.21a15.25,15.25,0,0,0-5.4-1.69q-10.32,0-23.82,17.83t-13.5,28.32q0,9.51,9.65,9.27,7.66-.24,8.41,1.22-3.92,5.38-25.64,13.43l-29.78,10.26c0,1.95,1.05,2.92,3.17,2.92q20.5,0,44.92-11.47Q814.85,139.66,814.84,121.58Z"/>
        <path d="M882.53,242.92a525.35,525.35,0,0,0-44.78-103q-15.11,45.42-15.1,136,0,48.83,8,50.29,5.55-2.69,5.55-28.07,0-13.68,6.27-60.55Q854.7,260.74,869,299.8q16.2,44.68,16.2,63,0,25.63-15.38,50.78-9,14.9-33.44,42.24L815.09,478q-12.45,13.43-17.83,24.41c.16,1.31,1,1.95,2.44,1.95s4.87-1,10.23-2.93q57-20.74,75.75-54.93Q901.51,418,901.51,353,901.51,303.71,882.53,242.92Z"/>
      </g>
    </g>
  </g>
</svg>
