<?xml version="1.0" encoding="utf-8"?>
<!-- Generator: Adobe Illustrator 22.1.0, SVG Export Plug-In . SVG Version: 6.00 Build 0)  -->
<svg version="1.1" id="Layer_1" xmlns="http://www.w3.org/2000/svg" xmlns:xlink="http://www.w3.org/1999/xlink" x="0px" y="0px"
	 viewBox="0 0 901.5 667.5" style="enable-background:new 0 0 901.5 667.5;" xml:space="preserve">
<title>EH-Asset 42-layername</title>
<g id="Layer_2_1_">
	<g id="ElDzelil">
		<g>
			<path d="M104.6,10.5c0-7-4-10.5-12.2-10.5c-7.9,0-16.4,5.4-25.3,16.2c2.2,1.5,4.1,3.5,5.6,5.6l2.7-1c6.4,0,9.7,3.8,9.7,11.3
				c0,3-1.5,7-4.5,12C72.9,37.6,69,32.8,69,29.6c0-2.7,0.9-5.3,2.7-7.4l1.1-0.4c-1.5-2.1-3.5-4-5.6-5.6c-0.2,0.3-0.4,0.5-0.7,0.8
				c-9.2,11.3-13.8,21.2-13.8,29.7c0,4.7,3.2,10.2,9.6,16.4C40.6,78.8,19.9,91.5,0,101.1c6.3,2,10.8,2.9,13.4,2.9
				c13.2,0,32.4-11.8,57.6-35.3c5.1,4.6,10.5,8.8,16.1,12.7l8.5-24.1L88.2,50C99.2,35.7,104.6,22.5,104.6,10.5z"/>
			<path d="M351.5,273l-0.9-1.2c-36.9,15.6-74.9,28.6-113.5,39.1c0.5-47.7-3.7-88.6-12.7-122.6c-5.3,12.9-9.8,26.1-13.7,39.5
				c1.5,3.6,3.7,16.1,6.5,37.6c2.7,20.5,4,33.8,4,40v10c-0.7,0.2-1.4,0.5-2.2,0.7c0.5,4,0.5,8.2,0.1,12.3c0.8-0.2,1.5-0.4,2.3-0.6
				v15.6c0.2,38.5-2.2,65.4-7.1,80.9c-9.1,28.8-23.1,51.7-41.9,68.7c-20.8,18.7-45.5,28.1-74.1,28.1c-16.6,0-29.6-5.9-39-17.6
				c-8.9-10.9-13.4-24.8-13.4-41.8c0-37.5,21-68.3,63-92.4c24.2-14.1,61-27.8,110.3-41c0.4-4.2,0.3-8.3-0.1-12.3
				c-8,2.6-20.5,5.7-37.6,9.3c-17.3,3.4-30.4,7-39.4,10.8c-39.1,16-67.2,35.8-84.1,59.4c-17.6,24.8-26.4,57.8-26.4,99.2
				c0,16.3,6.9,31.3,20.6,45c13.7,13.7,28.7,20.5,45,20.5c10,0,21.7-2.5,35.1-7.5c45.8-17.1,77.4-59.4,95-127
				c5.7,23.3,17.2,35,34.7,35c9.1,0,19.4-4.3,30.8-12.9l12.5-46.2c-13.3,10.7-23.7,16.1-31,16.1c-16.3,0-27-12.6-32.2-37.7
				c-1.6-8-3.1-27.2-4.4-57.5c16.1-5.4,36.9-13.3,62.3-23.7C332.8,285.4,350,276.8,351.5,273z"/>
			<path d="M436.7,604.5c-3.4,11.1-8.1,18.1-14.2,21l-85.5,42c2.6-10.1,10.3-18.3,22.9-24.7L436.7,604.5z"/>
			<path d="M483.3,401.9l-12.5,46.2c-10.4,8.1-21.4,12.1-33,12.1c-17.6,0-26.1-16-25.6-48l0.3-23.9c-12.3,27.3-28.5,48.2-48.6,62.5
				l12.2-45.5c16.2-13.3,26.4-24.1,30.7-32.2c5.1-9.3,7.6-23.5,7.6-42.7c0-8.3-0.4-20.6-1.2-37c-0.8-16.4-1.2-28.7-1.2-37
				c0-4.2,1.6-11.3,4.8-21.1c3.2-9.8,6.1-16,8.6-18.4l2.2,1c1.6,28.2,2.4,84.8,2.4,169.9c0,19.5,6.8,29.3,20.3,29.3
				C460.6,417,471.6,412,483.3,401.9z"/>
			<path d="M539.9,187.5c-3.4,11.1-8.1,18.1-14.2,21l-85.5,42c2.6-10.1,10.2-18.3,23-24.7L539.9,187.5z"/>
			<path d="M709.6,35.9c-4.4-5.4-9.5-8.1-15.2-8.1c-12.7,0-24.2,6.8-34.3,20.3c-1.5,1.9-2.8,3.9-4,5.8c2.2,1,4.5,2.1,6.7,3.2
				c0.5-0.6,1-1.3,1.6-1.9c4-4.5,8.5-6.7,13.4-6.7c3.9,0,8.5,2.4,13.9,7c5.3,4.6,8,8.9,8,12.9c0,7.8-7.4,11.6-22.1,11.6
				c-12.8,0-19.2-3.5-19.2-10.7c0-4.3,1.5-8.3,4.4-12.2c-2.2-1.1-4.4-2.1-6.7-3.2c-6.6,10.5-10,21.4-10,32.5
				c0,11.7,6.7,17.6,20.1,17.6c12.7,0,24.1-5.4,34.2-16.3c10-10.9,15.1-22.7,15.1-35.4C715.5,46.3,713.4,40.5,709.6,35.9z"/>
			<path d="M762.6,248.3c0,45.9-5.8,83.8-17.3,113.8c-14,35.8-37.9,65.4-71.8,88.9l12.2-45.7c41.5-33.2,62.3-66.6,62.3-100.1
				c0-25.1-7.9-55.4-23.7-91.1c-3.1,15.9-7.7,39.8-13.8,71.5c-2.6,13.7-4.7,20.5-6.5,20.5l-2.2-0.7l-0.5-3.2
				c0-13.2,3.4-37.9,10.2-74.2c7.1-39.2,13.2-61.8,18.4-67.6c8.9,5.5,16.8,19,23.6,40.3C759.6,219.1,762.6,234.9,762.6,248.3z"/>
			<path d="M810.5,41c-3.4,11.1-8.1,18.1-14.2,21l-85.5,42c2.6-10.1,10.3-18.3,23-24.7L810.5,41z"/>
			<path d="M283.6,514.4c-10.6,21.5-15.8,34.8-15.6,39.8c9.6-5,16.7-8.9,21.4-11.7c19.9-11.4,31.2-18.4,33.8-21
				c6-6,11.1-18.2,15.3-36.6c-19.3,11.7-31.4,18.6-36.5,20.8C292.7,509.7,286.5,512.6,283.6,514.4z"/>
			<path d="M324.5,429.2c-6.7,0-11.4-0.9-14.2-2.7c12.6-17.4,18.9-32.1,18.9-43.9c0-2.8-0.2-5.6-0.7-8.3
				c-9.1,10.4-18,20.7-26.7,30.7l-12.1,45.3l6.6-5.2c6.5,12,16.7,18,30.7,18c13.2,0,26.6-5,40.3-15l12.5-46.5
				c-6.5,6.5-15.1,12.6-25.6,18.3C342.1,426.1,332.3,429.2,324.5,429.2z"/>
			<path d="M510,524.2c-13.5,20.3-21,31.8-22.5,34.4c7.2,5.5,14.4,10.7,21.8,15.4c10.1-12.9,17.7-23.9,22.8-33.2
				C532,534.9,524.7,529.4,510,524.2z"/>
			<path d="M621.3,424.3c-12.7,0-23.4-3.5-32-10.7c-9.3-7.6-13.9-17.7-13.9-30.3c0-6.6,0.6-13.3,1.7-19.8
				c17.4-15.5,42.6-26.5,75.4-33.2c7.5-10.6,12.7-23.7,15.6-39.3c-10.1,4.6-21.1,6.9-32.2,6.8c-7.3,0-18-2.1-31.9-6.2
				c-13.9-4.1-24.5-6.2-31.6-6.2c-27.4,0-47.8,12.4-61.2,37.1c-6.4,11.9-13.3,34.2-20.6,67c3.3-2.2,6.6-4.3,9.9-6.4
				c7.1-38.6,25-57.9,53.6-57.9c5.2,0,14.6,1.6,28.3,4.9c-13.5,6.2-27.9,14.9-43.2,26.2h0c-7.2,5.2-20.4,15.7-39.5,31.6
				c0.3-1.6,0.5-3.2,0.8-4.8c-3.3,2.2-6.6,4.3-9.9,6.4c-0.5,2.1-0.9,4.2-1.4,6.4l-9,8.5l-12.5,45.9c7.8-5.8,13.7-10.3,17.6-13.4
				l-2,30.3v30.5l1.2,1.2l1.2-0.7l2.2-4.1c-0.7-17.6,1.5-39.2,6.6-65c24.7-21.5,47.8-40.5,69.3-56.9c-2.9,13-4.4,23.7-4.4,32
				c0,17.4,5.1,32.1,15.3,44.1c10.8,12.7,24.8,19,42,19c19.9,0,39.8-6.2,59.8-18.5l12.5-46.5C670.4,416.9,647.8,424.3,621.3,424.3z"
				/>
			<path d="M814.8,121.6c0-4.9-2.9-7.3-8.8-7.3c-8.1,0-12.2-1.1-12.2-3.4c0-4.1,2.4-6.1,7.3-6.1c1.7,0,3.3,0.3,4.9,1
				c1.6-1.1,4-4.6,7-10.3s4.8-9.8,5.3-12.2c-1.7-0.9-3.5-1.5-5.4-1.7c-6.9,0-14.8,5.9-23.8,17.8s-13.5,21.3-13.5,28.3
				c0,6.3,3.2,9.4,9.7,9.3c5.1-0.2,7.9,0.2,8.4,1.2c-2.6,3.6-11.2,8.1-25.6,13.4l-29.8,10.3c0,1.9,1,2.9,3.2,2.9
				c13.7,0,28.6-3.8,44.9-11.5C805.3,144.2,814.8,133.6,814.8,121.6z"/>
			<path d="M882.5,242.9c-11.2-35.8-26.2-70.4-44.8-103c-10.1,30.3-15.1,75.6-15.1,136c0,32.6,2.7,49.3,8,50.3
				c3.7-1.8,5.5-11.2,5.5-28.1c0-9.1,2.1-29.3,6.3-60.6c8.2,15.4,17,36.2,26.5,62.2c10.8,29.8,16.2,50.8,16.2,63
				c0,17.1-5.1,34-15.4,50.8c-6,9.9-17.1,24-33.4,42.2L815.1,478c-8.3,9-14.2,17.1-17.8,24.4c0.2,1.3,1,2,2.4,2s4.9-1,10.2-2.9
				c38-13.8,63.3-32.1,75.8-54.9c10.6-19,15.8-50.2,15.8-93.5C901.5,320.1,895.2,283.4,882.5,242.9z"/>
		</g>
	</g>
</g>
</svg>
