<?xml version="1.0" encoding="utf-8"?>
<!-- Generator: Adobe Illustrator 22.1.0, SVG Export Plug-In . SVG Version: 6.00 Build 0)  -->
<svg version="1.1" id="Layer_1" xmlns="http://www.w3.org/2000/svg" xmlns:xlink="http://www.w3.org/1999/xlink" x="0px" y="0px"
	 viewBox="0 0 964 626.5" style="enable-background:new 0 0 964 626.5;" xml:space="preserve">
<title>EH-Asset 44-layername</title>
<g id="Layer_2_1_">
	<g id="ErReqib">
		<g>
			<path d="M104.6,116c0-7-4-10.5-12.2-10.5c-6.6,0-13.5,3.8-20.9,11.2c1.2,3.2,2.4,6.4,3.5,9.6l0.3-0.1c6.4,0,9.7,3.8,9.7,11.3
				c0,2.9-1.5,6.9-4.5,12C72.9,143.1,69,138.3,69,135c0-2.7,1-5.3,2.7-7.3l3.4-1.4c-1.1-3.2-2.4-6.4-3.5-9.6
				c-1.7,1.7-3.4,3.7-5.1,5.8c-9.2,11.3-13.9,21.2-13.9,29.7c0,4.7,3.2,10.2,9.6,16.4C40.6,184.3,19.9,197,0,206.6
				c6.3,2,10.8,2.9,13.4,2.9c13.2,0,32.4-11.8,57.6-35.3c5.1,4.6,10.5,8.8,16.1,12.7l8.5-24.2l-7.5-7.3
				C99.2,141.2,104.6,128,104.6,116z"/>
			<path d="M583.4,563.5c-3.4,11.1-8.1,18.1-14.2,21l-85.5,42c2.6-10.1,10.3-18.3,23-24.7L583.4,563.5z"/>
			<path d="M211.7,569.1c-4.3-2.5-8.7-4.7-13.2-6.6c-13.3,20.2-20.7,31.7-22,34.7l22,14.9c7.3-8,14.8-18.9,22.4-32.7
				C221,576.3,217.9,572.8,211.7,569.1z"/>
			<path d="M414.9,378.9c-6.4,0-12.5-2.1-17.5-6.2c-4.9-3.7-7.8-9.5-7.7-15.7c0-4.2,1.5-10.2,4.5-18c3-7.8,4.6-13.7,4.8-17.8l-1-2.4
				l-3.9,0.5l-113,105.4c-48.5,42.6-94.6,63.8-138.2,63.9c-23.4,0-44.4-9.1-63-27.2s-27.8-38.9-27.8-62.4c0-11.5,2.3-23,6.6-33.7
				c23.8-59.4,85.1-89.1,184-89.1c22.9,0,43.1-3.3,60.5-10c32.5-12.5,51.3-20.5,56.4-23.9l-0.2-2.7c-42,16.9-79.7,25.3-113,25.2
				l-43-0.3c-34.7-0.2-65.4,8.5-92.3,26.1c-26.9,17.6-47.2,42.3-61,74.2c-7.2,16.4-10.7,31.5-10.7,45.2c0,33.2,9.2,60.9,27.6,83
				c19.7,23.5,45.8,35.2,78.4,35.2c30.4,0,64.4-13.9,101.8-41.6c23.6-17.6,51.8-43.7,84.5-78.2c27.5-29,43.2-43.9,47.1-44.7l0.5,1.2
				c-1.3,3.9-2,9.2-2,15.7c0,10.8,2.6,19.9,7.7,27.2c5.8,8.5,13.8,12.8,24,12.8c8,0,18.3-4.4,30.8-13.2l12.5-46.6
				C440.8,372.8,428.5,378.9,414.9,378.9z"/>
			<path d="M576.3,169c4.7-5.5,9.1-16.9,13.2-33.9c-21.9,13.5-40.4,23.4-55.4,29.8c-10.1,20.4-15.3,33.6-15.6,39.8
				c8.8-4.2,18.1-9.2,27.8-14.9C563,179.8,573.1,172.9,576.3,169z"/>
			<path d="M550.2,233.1c-7.7,0-16.1,9.3-25.4,27.8c-8.6,17.3-12.9,30.4-12.9,39.5c0,4.8,2.2,9.3,6.1,12.2c3.7,3,8.2,4.5,12.9,4.4
				c7,0,15.9-4.5,26.8-13.4c3.1,1.3,4.6,4.1,4.6,8.5c0,7.8-4.8,17.4-14.4,28.8c-8.1,9.8-16.3,17.3-24.4,22.5l-12.5,45.9
				c29.6-21.3,50.6-51.7,62.9-91.1c6.4-20.7,9.6-34.3,9.7-41c0-9.4-3.2-18.9-9.7-28.3C567.1,238.5,559.1,233.2,550.2,233.1z"/>
			<path d="M751.6,360.8L738.9,408c-20.2,11.7-34.3,20.3-42.2,25.6c-19,12.7-30.7,23.2-34.9,31.5c-13,28.2-26,56.2-39.1,84.2
				c-18.9,35.8-38.6,57.1-59.1,64c-15.6,5.3-32.8,8-51.5,8c-37.6,0-61.8-3.2-72.5-9.5l-0.7-1.2l2-2.2c10.5,2,21.3,3,32,2.9
				c30,0,58.3-9.6,85-28.8c23.6-17.2,43.5-40,59.8-68.4c1.1-2.1,8.9-17.4,23.2-45.9c9.3-18.6,18.3-33.1,27-43.6
				c8.7-10.5,22.5-21.6,41.4-33.3C730.2,378.3,744.3,368.2,751.6,360.8z"/>
			<path d="M825.1,207.3c0,45.9-5.8,83.8-17.3,113.8c-14,35.8-37.9,65.4-71.8,88.9l12.2-45.6c41.5-33.2,62.3-66.6,62.3-100.1
				c0-25.1-7.9-55.4-23.7-91.1c-3.1,15.9-7.7,39.8-13.8,71.5c-2.6,13.7-4.7,20.5-6.5,20.5l-2.2-0.7l-0.5-3.2
				c0-13.2,3.4-37.9,10.2-74.2c7.1-39.2,13.3-61.8,18.5-67.6c8.9,5.5,16.8,19,23.6,40.3C822.1,178.1,825.1,193.9,825.1,207.3z"/>
			<path d="M873,0c-3.4,11.1-8.1,18.1-14.2,21l-85.5,42c2.6-10.1,10.3-18.3,23-24.7L873,0z"/>
			<path d="M471.2,388.2c-6.7,0-11.4-0.9-14.2-2.7c12.6-17.4,19-32.1,19-44c0-2.8-0.2-5.6-0.7-8.3c-9.1,10.4-18,20.7-26.8,30.8
				l-12.1,45.3l6.6-5.2c6.5,12,16.7,18,30.7,18c13.2,0,26.6-5,40.3-15l12.5-46.5c-6.5,6.5-15.1,12.6-25.6,18.3
				C488.9,385.1,479,388.2,471.2,388.2z"/>
			<path d="M430.3,473.4c-10.6,21.5-15.8,34.7-15.6,39.8c9.6-5,16.7-8.9,21.4-11.7c19.9-11.4,31.2-18.4,33.8-21
				c6-6,11.1-18.2,15.3-36.6c-19.3,11.7-31.4,18.6-36.5,20.8C439.4,468.7,433.2,471.6,430.3,473.4z"/>
			<path d="M622,168.7c-6.2,0-9.3-5.9-9.3-17.8l-5.9,1.5c-12.4,21.6-22.4,32.5-30,32.5c-5.7,0-8.5-3.8-8.5-11.5l0.7-7.6l-8.5,4.6
				c-4.6,12.4-6.8,20.8-6.8,25.3c0,9.2,4.7,13.8,14.2,13.8c10.9,0,21.3-7.1,31.1-21.1c5.9,4.2,10.7,6.3,14.4,6.3
				c11.8,0,21.5-7.1,29.1-21.2c5.7-10.4,9.4-22.6,11-36.6l-7.6,2.2C639.4,158.8,631.4,168.7,622,168.7z"/>
			<path d="M562.9,159.9l79.8-28.3c6.5-2.3,12.1-8.5,16.8-18.6L590,137.4C579.1,141.2,570,148.7,562.9,159.9z"/>
			<path d="M877.3,80.6c0-4.9-2.9-7.3-8.8-7.3c-8.1,0-12.2-1.1-12.2-3.4c0-4.1,2.4-6.1,7.3-6.1c1.7,0,3.3,0.3,4.9,1
				c1.6-1.1,4-4.6,7-10.3s4.8-9.8,5.3-12.2c-1.7-0.9-3.5-1.5-5.4-1.7c-6.9,0-14.8,5.9-23.8,17.8S838.1,79.7,838,86.7
				c0,6.3,3.2,9.4,9.7,9.3c5.1-0.2,7.9,0.2,8.4,1.2c-2.6,3.6-11.2,8.1-25.6,13.4l-29.8,10.3c0,2,1,2.9,3.2,2.9
				c13.7,0,28.6-3.8,44.9-11.5C867.8,103.2,877.3,92.6,877.3,80.6z"/>
			<path d="M945,201.9c-11.2-35.8-26.2-70.4-44.8-103c-10.1,30.3-15.1,75.6-15.1,136c0,32.6,2.7,49.3,8,50.3
				c3.7-1.8,5.5-11.2,5.5-28.1c0-9.1,2.1-29.3,6.3-60.6c8.2,15.5,17,36.2,26.5,62.3c10.8,29.8,16.2,50.8,16.2,63
				c0,17.1-5.1,34-15.4,50.8c-6,9.9-17.1,24-33.4,42.2c-7,7.3-14.1,14.7-21.2,22.2c-8.3,8.9-14.2,17.1-17.8,24.4
				c0.1,1.2,1.1,2.1,2.3,2c0.1,0,0.1,0,0.2,0c1.5,0,4.9-1,10.2-2.9c38-13.8,63.3-32.1,75.8-54.9c10.5-19.1,15.8-50.3,15.8-93.6
				C964,279.1,957.7,242.4,945,201.9z"/>
		</g>
	</g>
</g>
</svg>
