<svg xmlns="http://www.w3.org/2000/svg" viewBox="0 0 964.01 626.46">
  <title>EH-Asset 44-layername</title>
  <g id="Layer_2" data-name="Layer 2">
    <g id="ErReqib">
      <g>
        <path d="M104.64,116q0,18-16.4,39.52l7.47,7.32L87.17,187a168.32,168.32,0,0,1-16.12-12.74q-37.84,35.26-57.62,35.26-3.91,0-13.43-2.93,29.79-14.4,62.26-38.08-9.63-9.28-9.63-16.36,0-12.69,13.86-29.66t26-17Q104.64,105.47,104.64,116ZM85.11,137.49q0-11.27-9.67-11.27l-3.72,1.47A11,11,0,0,0,69,135q0,4.89,11.65,14.44Q85.11,141.89,85.11,137.49Z"/>
        <path d="M583.4,563.48q-5.13,16.59-14.16,21l-85.45,42q3.9-15.13,22.95-24.65Z"/>
        <path d="M211.7,569.09a123.93,123.93,0,0,0-13.18-6.59q-20,30.27-22,34.67l22,14.89q11-12,22.45-32.71Q221,574.7,211.7,569.09Z"/>
        <path d="M414.94,378.91a27.1,27.1,0,0,1-17.46-6.2A19.33,19.33,0,0,1,389.79,357q0-6.33,4.52-18t4.76-17.75l-1-2.43-3.9.49-113,105.37Q208.4,488.52,143,488.53q-35.16,0-63-27.23T52.15,398.93a90.74,90.74,0,0,1,6.58-33.7q35.63-89.1,184-89.11,34.4,0,60.5-10,48.78-18.8,56.35-23.92l-.24-2.69q-63,25.39-113,25.15l-43-.25q-52-.24-92.3,26.13T50,364.75q-10.74,24.66-10.74,45.16,0,49.82,27.59,83,29.53,35.19,78.38,35.19,45.65,0,101.81-41.57,35.4-26.4,84.49-78.24,41.26-43.53,47.12-44.74l.49,1.22c-1.33,3.92-2,9.16-2,15.69q0,16.19,7.71,27.22,8.65,12.75,24,12.75,12,0,30.76-13.23l12.45-46.57Q435.21,378.91,414.94,378.91Z"/>
        <path d="M576.32,169q7.08-8.31,13.18-33.94-32.82,20.27-55.42,29.78-15.14,30.53-15.62,39.8,13.17-6.34,27.83-14.89Q571.43,174.81,576.32,169Z"/>
        <path d="M550.19,233.15q-11.48,0-25.39,27.84-12.94,25.88-12.94,39.55a15,15,0,0,0,6.11,12.2,19.75,19.75,0,0,0,12.94,4.4q10.49,0,26.85-13.43c3.09,1.31,4.64,4.15,4.64,8.55q0,11.72-14.4,28.8-12.21,14.65-24.42,22.47l-12.45,45.89q44.43-32,62.86-91.06,9.64-31,9.65-41,0-14.14-9.65-28.32Q563.61,233.16,550.19,233.15Z"/>
        <path d="M751.61,360.84,738.91,408q-30.27,17.58-42.23,25.63-28.57,19.05-34.91,31.5-19.54,42.24-39.07,84.23-28.32,53.7-59.08,64-23.43,8-51.51,8-56.4,0-72.51-9.51l-.73-1.23,1.95-2.2a163.46,163.46,0,0,0,32,2.93q44.93,0,85-28.81,35.4-25.87,59.82-68.36,1.7-3.17,23.19-45.9,13.92-27.83,27-43.58t41.38-33.32Q740.63,371.83,751.61,360.84Z"/>
        <path d="M825.1,207.28q0,68.84-17.34,113.76-21,53.71-71.78,88.87l12.21-45.65q62.26-49.81,62.26-100.1,0-37.59-23.68-91.06Q782.18,197,773,244.63q-3.86,20.5-6.51,20.51l-2.18-.74-.48-3.17q0-19.77,10.21-74.22,10.69-58.83,18.48-67.63,13.38,8.31,23.59,40.29Q825.09,187.26,825.1,207.28Z"/>
        <path d="M873,0q-5.13,16.61-14.16,21L773.34,63q3.9-15.14,22.95-24.66Z"/>
        <path d="M471.19,388.18q-10,0-14.16-2.68Q476,359.37,476,341.55a43.27,43.27,0,0,0-.72-8.3Q461.65,348.88,448.53,364l-12.14,45.32,6.56-5.16q9.71,18,30.69,17.95,19.77,0,40.28-15l12.45-46.52q-9.76,9.76-25.63,18.31Q482.91,388.18,471.19,388.18Z"/>
        <path d="M430.32,473.39q-15.87,32.22-15.62,39.79,14.34-7.56,21.41-11.72,29.91-17.08,33.81-21,9-9,15.33-36.62-28.92,17.58-36.46,20.75Q434.69,470.71,430.32,473.39Z"/>
        <path d="M622,168.7q-9.29,0-9.28-17.82l-5.86,1.46q-18.55,32.47-30,32.47-8.53,0-8.54-11.47l.73-7.57-8.54,4.64q-6.84,18.6-6.84,25.25,0,13.82,14.2,13.81,16.4,0,31.08-21.15,8.8,6.26,14.44,6.26,17.63,0,29.12-21.24,8.56-15.61,11-36.62l-7.56,2.2Q636.12,168.71,622,168.7Z"/>
        <path d="M562.89,159.91l79.83-28.32q9.76-3.42,16.85-18.55L590,137.45Q573.63,143.07,562.89,159.91Z"/>
        <path d="M877.34,80.57q0-7.33-8.79-7.33c-8.14,0-12.2-1.13-12.2-3.42q0-6.09,7.32-6.1a11.88,11.88,0,0,1,4.88,1q2.44-1.71,7-10.28t5.25-12.2a15,15,0,0,0-5.4-1.69q-10.32,0-23.82,17.82T838,86.67q0,9.52,9.65,9.28c5.11-.16,7.91.24,8.41,1.22q-3.92,5.37-25.64,13.43l-29.78,10.25c0,2,1.05,2.93,3.17,2.93q20.5,0,44.92-11.48Q877.35,98.64,877.34,80.57Z"/>
        <path d="M945,201.9a525.52,525.52,0,0,0-44.78-103q-15.11,45.41-15.1,136,0,48.84,8,50.3,5.55-2.69,5.55-28.08,0-13.66,6.27-60.55,12.27,23.21,26.52,62.26,16.2,44.67,16.2,63,0,25.64-15.38,50.78-9,14.9-33.44,42.23-10.5,11-21.24,22.22-12.45,13.42-17.83,24.42a2.12,2.12,0,0,0,2.44,1.95q2.19,0,10.23-2.93,57-20.74,75.75-54.93Q964,376.95,964,312,964,262.71,945,201.9Z"/>
      </g>
    </g>
  </g>
</svg>
