<svg xmlns="http://www.w3.org/2000/svg" viewBox="0 0 1064.11 664.06">
  <title>EH-Asset 45-layername</title>
  <g id="Layer_2" data-name="Layer 2">
    <g id="ElMudzib">
      <g>
        <path d="M104.64,129.14q0,18.06-16.4,39.52L95.71,176l-8.54,24.15A169.73,169.73,0,0,1,71.05,187.4q-37.84,35.25-57.62,35.26-3.91,0-13.43-2.93,29.79-14.4,62.26-38.09-9.63-9.27-9.63-16.36,0-12.69,13.86-29.66t26-17Q104.64,118.65,104.64,129.14ZM85.11,150.67q0-11.26-9.67-11.27l-3.72,1.47A11,11,0,0,0,69,148.22q0,4.91,11.65,14.45Q85.11,155.08,85.11,150.67Z"/>
        <path d="M500.74,392.09q-17.83,9.29-29.55,9.28-10,0-14.16-2.69Q476,372.56,476,354.74a43.27,43.27,0,0,0-.72-8.3q-13.61,15.62-26.72,30.76l-12.14,45.32,6.56-5.17q9.71,18,30.69,17.95,19.77,0,40.28-15l12.45-46.52Q516.61,383.55,500.74,392.09Z"/>
        <path d="M430.32,486.57q-15.87,32.24-15.62,39.8,14.34-7.57,21.41-11.72,29.91-17.08,33.81-21,9-9,15.33-36.62-28.92,17.58-36.46,20.75Q434.69,483.89,430.32,486.57Z"/>
        <path d="M583.4,601.07q-5.13,16.6-14.16,21l-85.45,42q3.9-15.13,22.95-24.66Z"/>
        <path d="M794.58,68.11q0,18-16.4,39.52l7.48,7.31-8.55,24.16A169.58,169.58,0,0,1,761,126.36q-37.85,35.27-57.62,35.26-3.92,0-13.43-2.93,29.79-14.4,62.26-38.08-9.63-9.28-9.62-16.36,0-12.69,13.85-29.67t26-17Q794.58,57.62,794.58,68.11ZM775.05,89.63q0-11.25-9.67-11.26l-3.72,1.47a10.94,10.94,0,0,0-2.73,7.34q0,4.91,11.65,14.45Q775.05,94,775.05,89.63Z"/>
        <path d="M851.22,374.51l-12.45,46.42a36.09,36.09,0,0,1-19.29,5.58q-17.34,0-27.34-15.29-20.52,25.39-25.64,25.39-5.61,0-16.6-12.94-10.26-12-12.21-18.76-5.61,7.53-21,18l12.2-45.43q11.24-10.49,33.7-31.25,2.43,0,24.17,18.31t37.11,18.31A46.76,46.76,0,0,0,851.22,374.51Z"/>
        <path d="M878.07,24.41q0,19-15.06,35.4T828.83,76.17q-20.1,0-20.09-17.58,0-19.77,14-38.33Q837.9,0,857,0q8.57,0,15.19,8.06A26.15,26.15,0,0,1,878.07,24.41ZM862.21,40.59q0-5.94-8-12.9t-13.87-6.94q-7.38,0-13.39,6.7t-6,14.13q0,10.67,19.15,10.67Q862.2,52.25,862.21,40.59Z"/>
        <path d="M925.19,220.46q0,68.85-17.33,113.77-21,53.72-71.78,88.87l12.21-45.66q62.25-49.8,62.25-100.1,0-37.59-23.68-91.06-4.59,23.92-13.77,71.53-3.87,20.51-6.52,20.51l-2.17-.73-.49-3.18q0-19.77,10.22-74.21,10.7-58.84,18.48-67.63,13.36,8.3,23.58,40.28Q925.19,200.45,925.19,220.46Z"/>
        <path d="M973,13.18q-5.12,16.61-14.16,21l-85.44,42q3.9-15.14,22.94-24.66Z"/>
        <path d="M211.7,582.28a123.71,123.71,0,0,0-13.18-6.6q-20,30.27-22,34.67l22,14.89q11-12,22.45-32.71Q221,587.9,211.7,582.28Z"/>
        <path d="M414.94,392.09a27,27,0,0,1-17.46-6.2,19.32,19.32,0,0,1-7.69-15.68q0-6.33,4.52-18t4.76-17.75l-1-2.43-3.9.49-113,105.38Q208.4,501.71,143,501.71q-35.16,0-63-27.22T52.15,412.11a90.69,90.69,0,0,1,6.58-33.69q35.63-89.12,184-89.11,34.4,0,60.5-10,48.78-18.8,56.35-23.93l-.24-2.68q-63,25.4-113,25.14l-43-.24q-52-.24-92.3,26.12T50,377.93Q39.21,402.59,39.21,423.1q0,49.8,27.59,83,29.53,35.18,78.38,35.18,45.65,0,101.81-41.56,35.4-26.42,84.49-78.25,41.26-43.51,47.12-44.74l.49,1.22q-2,5.9-2,15.7,0,16.19,7.71,27.21,8.65,12.75,24,12.75,12,0,30.76-13.23l12.45-46.57Q435.21,392.09,414.94,392.09Z"/>
        <path d="M553.43,496.34q-20.32,30.53-22.52,34.42,10.77,8.29,21.79,15.38,15.16-19.29,22.76-33.2Q575.46,504.15,553.43,496.34Z"/>
        <path d="M632.68,385.74q-13.9-11.48-13.91-30.28a112.59,112.59,0,0,1,1.74-19.78q26.12-23.21,75.44-33.21,11.22-15.87,15.62-39.32a76.71,76.71,0,0,1-32.23,6.79q-11,0-31.86-6.18t-31.62-6.19q-41.13,0-61.21,37.07-10.29,19-22,73.42l-9,8.54-12.45,45.86q11.72-8.74,17.58-13.35l-2,30.27V469.9l1.22,1.22,1.22-.73,2.19-4.15q-1-26.37,6.6-64.95,37-32.25,69.33-56.94-4.38,19.51-4.38,31.95,0,26.08,15.33,44.13,16.13,19,42,19,29.79,0,59.81-18.5l12.46-46.49q-28.08,22-67.87,22Q645.62,396.48,632.68,385.74Zm-50-57.29q-10.74,7.83-39.55,31.57,9.76-62.65,54.45-62.66,7.8,0,28.32,4.9Q605.62,311.56,582.66,328.45Z"/>
        <path d="M977.44,93.75q0-7.32-8.79-7.32-12.21,0-12.21-3.42,0-6.11,7.33-6.11a11.88,11.88,0,0,1,4.88,1c1.63-1.13,3.94-4.56,7-10.28s4.76-9.78,5.25-12.2a15.25,15.25,0,0,0-5.4-1.69q-10.32,0-23.82,17.82T938.13,99.85q0,9.53,9.65,9.28c5.12-.16,7.92.25,8.42,1.22q-3.91,5.37-25.64,13.43L900.78,134c0,2,1.05,2.93,3.17,2.93q20.5,0,44.92-11.47Q977.43,111.82,977.44,93.75Z"/>
        <path d="M1045.12,215.09a524.76,524.76,0,0,0-44.78-103q-15.09,45.41-15.09,136,0,48.82,8,50.29,5.55-2.68,5.55-28.08,0-13.67,6.27-60.54,12.27,23.19,26.52,62.25,16.2,44.68,16.2,63,0,25.64-15.38,50.78-9,14.89-33.45,42.24L977.68,450.2q-12.45,13.43-17.82,24.41c.16,1.3,1,1.95,2.44,1.95s4.87-1,10.23-2.93q57-20.75,75.75-54.93,15.83-28.56,15.83-93.5Q1064.11,275.88,1045.12,215.09Z"/>
      </g>
    </g>
  </g>
</svg>
