<?xml version="1.0" encoding="utf-8"?>
<!-- Generator: Adobe Illustrator 22.1.0, SVG Export Plug-In . SVG Version: 6.00 Build 0)  -->
<svg version="1.1" id="Layer_1" xmlns="http://www.w3.org/2000/svg" xmlns:xlink="http://www.w3.org/1999/xlink" x="0px" y="0px"
	 viewBox="0 0 1064.1 664.1" style="enable-background:new 0 0 1064.1 664.1;" xml:space="preserve">
<title>EH-Asset 45-layername</title>
<g id="Layer_2_1_">
	<g id="ElMudzib">
		<g>
			<path d="M104.6,129.1c0-7-4-10.5-12.2-10.5c-7,0-14.4,4.3-22.3,12.7c1.9,2.6,3.4,5.4,4.2,8.5l1.1-0.4c6.4,0,9.7,3.8,9.7,11.3
				c0,2.9-1.5,6.9-4.5,12c-7.8-6.4-11.7-11.2-11.7-14.5c0-2.7,0.9-5.3,2.7-7.3l2.6-1c-0.8-3.1-2.3-5.9-4.2-8.5
				c-1.2,1.3-2.5,2.7-3.7,4.3c-9.2,11.3-13.9,21.2-13.9,29.7c0,4.7,3.2,10.2,9.6,16.4C40.6,197.4,19.9,210.1,0,219.7
				c6.3,2,10.8,2.9,13.4,2.9c13.2,0,32.4-11.8,57.6-35.3c5.1,4.6,10.5,8.8,16.1,12.8l8.5-24.1l-7.5-7.3
				C99.2,154.4,104.6,141.2,104.6,129.1z"/>
			<path d="M500.7,392.1c-11.9,6.2-21.7,9.3-29.5,9.3c-6.7,0-11.4-0.9-14.2-2.7c12.6-17.4,19-32.1,19-43.9c0-2.8-0.2-5.6-0.7-8.3
				c-9.1,10.4-18,20.7-26.7,30.8l-12.1,45.3l6.6-5.2c6.5,12,16.7,18,30.7,18c13.2,0,26.6-5,40.3-15l12.5-46.5
				C519.9,380.3,511.3,386.4,500.7,392.1z"/>
			<path d="M430.3,486.6c-10.6,21.5-15.8,34.8-15.6,39.8c9.6-5,16.7-9,21.4-11.7c19.9-11.4,31.2-18.4,33.8-21
				c6-6,11.1-18.2,15.3-36.6c-19.3,11.7-31.4,18.6-36.5,20.8C439.4,481.9,433.2,484.8,430.3,486.6z"/>
			<path d="M583.4,601.1c-3.4,11.1-8.1,18.1-14.2,21l-85.5,42c2.6-10.1,10.3-18.3,23-24.7L583.4,601.1z"/>
			<path d="M794.6,68.1c0-7-4-10.5-12.1-10.5c-6.3,0-13,3.5-20,10.4c2.7,3.2,4.7,6.8,5.4,10.6c4.8,0.9,7.2,4.6,7.2,11
				c0,2.9-1.5,6.9-4.5,12c-7.8-6.4-11.7-11.2-11.7-14.5c0-2.7,0.9-5.3,2.7-7.3l3.7-1.5c0.9,0,1.7,0.1,2.5,0.2
				c-0.7-3.8-2.7-7.4-5.4-10.6c-2,1.9-4,4.1-6,6.6c-9.2,11.3-13.8,21.2-13.8,29.7c0,4.7,3.2,10.2,9.6,16.4
				c-21.6,15.8-42.4,28.5-62.3,38.1c6.3,2,10.8,2.9,13.4,2.9c13.2,0,32.4-11.7,57.6-35.3c5.1,4.6,10.5,8.8,16.1,12.7l8.5-24.2
				l-7.5-7.3C789.1,93.3,794.6,80.1,794.6,68.1z"/>
			<path d="M851.2,374.5l-12.5,46.4c-5.8,3.6-12.5,5.6-19.3,5.6c-11.6,0-20.7-5.1-27.3-15.3c-13.7,16.9-22.2,25.4-25.6,25.4
				c-3.7,0-9.3-4.3-16.6-12.9c-6.8-8-10.9-14.3-12.2-18.8c-3.7,5-10.7,11-21,18l12.2-45.4c7.5-7,18.7-17.4,33.7-31.3
				c1.6,0,9.7,6.1,24.2,18.3c14.5,12.2,26.9,18.3,37.1,18.3C833.6,383,843.2,380.1,851.2,374.5z"/>
			<path d="M872.2,8.1C867.8,2.7,862.7,0,857,0c-12.7,0-24.2,6.8-34.3,20.3c-1.1,1.5-2.2,3-3.1,4.5c2.7,0.6,5.4,1.3,8,2.1
				c3.9-4,8.1-6.1,12.8-6.1c3.9,0,8.5,2.3,13.9,6.9c5.3,4.6,8,8.9,8,12.9c0,7.8-7.4,11.7-22.1,11.7c-12.8,0-19.2-3.6-19.2-10.7
				c0-5,2-9.7,6-14.1c0.2-0.2,0.4-0.4,0.6-0.6c-2.6-0.8-5.3-1.5-8-2.1c-7.2,11-10.9,22.3-10.9,33.9c0,11.7,6.7,17.6,20.1,17.6
				c12.7,0,24.1-5.4,34.2-16.4s15.1-22.7,15.1-35.4C878,18.4,876,12.7,872.2,8.1z"/>
			<path d="M925.2,220.5c0,45.9-5.8,83.8-17.3,113.8c-14,35.8-37.9,65.4-71.8,88.9l12.2-45.7c41.5-33.2,62.3-66.6,62.3-100.1
				c0-25.1-7.9-55.4-23.7-91.1c-3.1,15.9-7.7,39.8-13.8,71.5c-2.6,13.7-4.8,20.5-6.5,20.5l-2.2-0.7l-0.5-3.2
				c0-13.2,3.4-37.9,10.2-74.2c7.1-39.2,13.3-61.8,18.5-67.6c8.9,5.5,16.8,19,23.6,40.3C922.2,191.3,925.2,207.1,925.2,220.5z"/>
			<path d="M973,13.2c-3.4,11.1-8.1,18.1-14.2,21l-85.4,42c2.6-10.1,10.2-18.3,22.9-24.7L973,13.2z"/>
			<path d="M211.7,582.3c-4.3-2.5-8.7-4.7-13.2-6.6c-13.3,20.2-20.7,31.7-22,34.7l22,14.9c7.3-8,14.8-18.9,22.4-32.7
				C221,589.4,217.9,586,211.7,582.3z"/>
			<path d="M414.9,392.1c-6.4,0.1-12.6-2.1-17.5-6.2c-4.9-3.7-7.8-9.5-7.7-15.7c0-4.2,1.5-10.2,4.5-18c3-7.8,4.6-13.7,4.8-17.8
				l-1-2.4l-3.9,0.5l-113,105.4c-48.5,42.5-94.6,63.8-138.2,63.8c-23.4,0-44.4-9.1-63-27.2s-27.8-38.9-27.8-62.4
				c0-11.5,2.3-23,6.6-33.7c23.8-59.4,85.1-89.1,184-89.1c22.9,0,43.1-3.3,60.5-10c32.5-12.5,51.3-20.5,56.4-23.9l-0.2-2.7
				c-42,16.9-79.7,25.3-113,25.1l-43-0.2c-34.7-0.2-65.4,8.5-92.3,26.1S63.8,346,50,377.9c-7.2,16.4-10.8,31.5-10.8,45.2
				c0,33.2,9.2,60.9,27.6,83c19.7,23.5,45.8,35.2,78.4,35.2c30.4,0,64.4-13.9,101.8-41.6c23.6-17.6,51.8-43.7,84.5-78.3
				c27.5-29,43.2-43.9,47.1-44.7l0.5,1.2c-1.3,3.9-2,9.2-2,15.7c0,10.8,2.6,19.9,7.7,27.2c5.8,8.5,13.8,12.7,24,12.8
				c8,0,18.3-4.4,30.8-13.2l12.5-46.6C440.8,386,428.5,392.1,414.9,392.1z"/>
			<path d="M553.4,496.3c-13.5,20.4-21.1,31.8-22.5,34.4c7.2,5.5,14.4,10.7,21.8,15.4c10.1-12.9,17.7-23.9,22.8-33.2
				C575.5,507.1,568.1,501.5,553.4,496.3z"/>
			<path d="M664.7,396.4c-12.7,0-23.4-3.5-32-10.7c-9.3-7.7-13.9-17.7-13.9-30.3c0-6.6,0.6-13.3,1.7-19.8
				c17.4-15.5,42.6-26.5,75.4-33.2c7.5-10.6,12.7-23.7,15.6-39.3c-10.1,4.6-21.1,6.9-32.2,6.8c-7.3,0-18-2.1-31.9-6.2
				c-13.9-4.1-24.4-6.2-31.6-6.2c-27.4,0-47.8,12.4-61.2,37.1c-6.6,12.2-13.7,35.5-21.2,69.7c3.7-2.8,7.2-5.9,10.5-9.2
				c7.1-38.5,25-57.8,53.6-57.8c5.2,0,14.6,1.6,28.3,4.9c-13.5,6.2-27.9,14.9-43.2,26.2l0,0c-7.2,5.2-20.3,15.7-39.5,31.6
				c0.3-1.6,0.5-3.3,0.8-4.8c-3.3,3.3-6.8,6.4-10.5,9.2c-0.3,1.2-0.5,2.4-0.8,3.7l-9,8.5l-12.5,45.9c7.8-5.8,13.7-10.3,17.6-13.4
				l-2,30.3v30.5l1.2,1.2l1.2-0.7l2.2-4.1c-0.7-17.6,1.5-39.2,6.6-65c24.7-21.5,47.8-40.5,69.3-56.9c-2.9,13-4.4,23.7-4.4,32
				c0,17.4,5.1,32.1,15.3,44.1c10.8,12.7,24.8,19,42,19c19.9,0,39.8-6.2,59.8-18.5l12.5-46.5C713.8,389.1,691.2,396.4,664.7,396.4z"
				/>
			<path d="M977.4,93.8c0-4.9-2.9-7.3-8.8-7.3c-8.1,0-12.2-1.1-12.2-3.4c0-4.1,2.4-6.1,7.3-6.1c1.7,0,3.3,0.3,4.9,1
				c1.6-1.1,3.9-4.6,7-10.3s4.8-9.8,5.3-12.2c-1.7-0.9-3.5-1.5-5.4-1.7c-6.9,0-14.8,5.9-23.8,17.8s-13.5,21.3-13.5,28.3
				c0,6.4,3.2,9.4,9.7,9.3c5.1-0.2,7.9,0.3,8.4,1.2c-2.6,3.6-11.2,8.1-25.6,13.4L900.8,134c0,2,1,2.9,3.2,2.9
				c13.7,0,28.6-3.8,44.9-11.5C967.9,116.4,977.4,105.8,977.4,93.8z"/>
			<path d="M1045.1,215.1c-11.2-35.8-26.2-70.4-44.8-103c-10.1,30.3-15.1,75.6-15.1,136c0,32.5,2.7,49.3,8,50.3
				c3.7-1.8,5.6-11.1,5.5-28.1c0-9.1,2.1-29.3,6.3-60.5c8.2,15.5,17,36.2,26.5,62.3c10.8,29.8,16.2,50.8,16.2,63
				c0,17.1-5.1,34-15.4,50.8c-6,9.9-17.1,24-33.5,42.2l-21.3,22.2c-8.3,9-14.2,17.1-17.8,24.4c0.2,1.3,1,2,2.4,2s4.9-1,10.2-2.9
				c38-13.8,63.3-32.1,75.8-54.9c10.6-19,15.8-50.2,15.8-93.5C1064.1,292.3,1057.8,255.6,1045.1,215.1z"/>
		</g>
	</g>
</g>
</svg>
