<?xml version="1.0" encoding="utf-8"?>
<!-- Generator: Adobe Illustrator 22.1.0, SVG Export Plug-In . SVG Version: 6.00 Build 0)  -->
<svg version="1.1" id="Layer_1" xmlns="http://www.w3.org/2000/svg" xmlns:xlink="http://www.w3.org/1999/xlink" x="0px" y="0px"
	 viewBox="0 0 925.3 634.5" style="enable-background:new 0 0 925.3 634.5;" xml:space="preserve">
<title>EH-Asset 11-layername</title>
<g id="Layer_2_1_">
	<g id="ElMuttekebir">
		<g>
			<path d="M219.5,129.1c0-7-4-10.5-12.1-10.5c-7.8,0-16.1,5.3-25,15.8c1.7,2,3.2,4.1,4.7,6.3l3.3-1.3c6.4,0,9.7,3.8,9.7,11.3
				c0,2.9-1.5,6.9-4.5,12c-7.8-6.4-11.6-11.2-11.6-14.5c0-2.7,0.9-5.3,2.7-7.3l0.4-0.2c-1.5-2.2-3.1-4.3-4.7-6.3
				c-0.3,0.4-0.7,0.8-1,1.2c-9.2,11.3-13.8,21.2-13.8,29.7c0,4.7,3.2,10.2,9.6,16.4c-21.6,15.8-42.4,28.5-62.3,38.1
				c6.3,2,10.8,2.9,13.4,2.9c13.2,0,32.4-11.8,57.6-35.3c5.1,4.6,10.5,8.8,16.1,12.7l8.6-24.2l-7.5-7.3
				C214,154.4,219.5,141.2,219.5,129.1z"/>
			<path d="M312.7,374L300,421.1c-20.2,11.7-34.3,20.3-42.2,25.6c-19,12.7-30.7,23.2-34.9,31.5c-13,28.2-26,56.2-39.1,84.2
				c-18.9,35.8-38.6,57.1-59.1,64c-15.6,5.3-32.8,8-51.5,8c-37.6,0-61.8-3.2-72.5-9.5L0,623.8l2-2.2c10.5,2,21.3,3,32,2.9
				c29.9,0,58.3-9.6,85-28.8c23.6-17.2,43.5-40,59.8-68.4c1.1-2.1,8.9-17.4,23.2-45.9c9.3-18.6,18.3-33.1,27-43.6
				s22.5-21.6,41.4-33.3C291.3,391.5,305.4,381.3,312.7,374z"/>
			<path d="M281.3,207.8c-2.4,2.4-6.2,7.4-11.2,14.9l77.4-31c8.3-3.4,15-10.4,20-21l-70.1,27.8C290.2,201.3,284.8,204.3,281.3,207.8
				z"/>
			<path d="M377,108.6c-7.8,23.9-16.4,35.9-25.9,35.9c-5.2,0-7.8-8-7.8-23.9l-4.9,1.5c-12.4,26.4-23.2,39.6-32.5,39.5
				c-3.8,0-5.6-2.1-5.6-6.4c0.1-7,1.3-14,3.4-20.8l-5.8,1c-9,15.1-13.5,26.8-13.5,35c0,10.7,4.8,16.1,14.4,16.1
				c5.8,0,11.8-2.1,18-6.4c6.2-4.2,10.5-9.1,12.9-14.6c4.9,3.5,9.7,5.3,14.4,5.3c12.5,0,22.6-8,30.2-23.9c6.1-12.7,9.2-26.7,9-40.8
				L377,108.6z"/>
			<path d="M304.9,467.5c-14,21.5-21.3,33-22,34.4l21.5,14.9c7.3-6.7,14.9-17.7,22.7-33C327.1,478.4,319.7,472.9,304.9,467.5z"/>
			<path d="M361.8,392.1c-11.9,6.2-21.7,9.3-29.5,9.3c-6.7,0-11.4-0.9-14.2-2.7c12.7-17.4,19-32.1,19-43.9c0-2.8-0.2-5.6-0.7-8.3
				c-9.1,10.4-18.1,20.7-26.9,30.8l-12.2,45.3l6.6-5.2c6.5,12,16.8,18,30.8,18c13.2,0,26.6-5,40.3-15l12.5-46.5
				C380.9,380.3,372.4,386.4,361.8,392.1z"/>
			<path d="M444.6,13.2c-3.4,11.1-8.1,18.1-14.2,21l-85.4,42c2.6-10.1,10.3-18.3,23-24.7L444.6,13.2z"/>
			<path d="M445.3,383.5c-3.3-4.5-5.2-13.4-5.9-26.6c-0.7-12.7-1.2-37.5-1.5-74.5c-0.2-31.1-1.1-55.9-2.9-74.5l-2.2-1
				c-2.1,2.1-4.8,7.9-8.2,17.2c-3.4,9.4-5,15.7-5,18.9c0,6.8,0.4,17,1.2,30.5c0.8,13.5,1.2,23.7,1.2,30.5c0,18.5-2.6,32.5-7.9,41.8
				c-4.2,7.8-14.3,18.3-30.2,31.5l-12.2,45.5c20.1-14.3,36.3-35.2,48.6-62.5c0.7,26,1.9,42.3,3.6,48.8c4.9,18,16.2,27,34.1,27
				c17.2,0,33.5-5.3,48.7-16l12.4-46.2c-15,12.9-31.1,19.3-48.3,19.3C458.4,393.3,449.9,390.1,445.3,383.5z"/>
			<path d="M579.6,1.7l-3.2,2C552.8,48.1,537,76.9,529,90.1c-19.3,31.6-39.5,57.2-60.5,76.9c-32.7,25.2-57.6,43.2-74.9,54l2.9,1
				c17.2-3.6,38.8-15.9,64.7-36.9c22.6-18.1,40.8-35.9,54.4-53.5c-0.3,12.5,0.3,22.4,2,29.5l4.4-3c1.3-28.1,21.2-79.9,59.8-155.3
				L579.6,1.7z"/>
			<path d="M575.7,13.2c-3.4,11.1-8.1,18.1-14.2,21l-85.5,42c2.6-10.1,10.3-18.3,22.9-24.7L575.7,13.2z"/>
			<path d="M548.8,197.5c-20.5,13.2-38.9,23.1-55.2,29.8c-10.6,20.5-15.7,33.8-15.4,39.8c8.6-4.5,15-8,19.2-10.5
				c21.3-11.9,33-19,35.3-21.2C539.3,229.2,544.6,216.6,548.8,197.5z"/>
			<path d="M567.9,392.1c-11.9,6.2-21.7,9.3-29.5,9.3c-6.7,0-11.4-0.9-14.2-2.7c12.7-17.4,19-32.1,19-43.9c0-2.8-0.2-5.6-0.7-8.3
				c-9.1,10.4-18,20.7-26.8,30.8l-12.2,45.3l6.6-5.2c6.5,12,16.7,18,30.7,18c13.2,0,26.6-5,40.3-15l12.5-46.5
				C587.1,380.3,578.5,386.4,567.9,392.1z"/>
			<path d="M655.8,68.1c0-7-4-10.5-12.2-10.5c-7.7,0-15.9,5.1-24.6,15.3c1.8,1.9,3.4,4.1,4.7,6.6l2.8-1.1c6.4,0,9.7,3.8,9.7,11.3
				c0,2.9-1.5,6.9-4.5,12c-7.8-6.4-11.7-11.2-11.7-14.5c0-2.7,0.9-5.3,2.7-7.3l0.9-0.4c-1.3-2.6-2.9-4.7-4.7-6.6
				c-0.5,0.6-1,1.1-1.4,1.7c-9.2,11.3-13.8,21.2-13.8,29.7c0,4.7,3.2,10.2,9.6,16.4c-21.6,15.8-42.4,28.5-62.3,38.1
				c6.4,2,10.8,2.9,13.4,2.9c13.2,0,32.4-11.7,57.6-35.3c5.1,4.6,10.5,8.8,16.1,12.7l8.5-24.2l-7.5-7.3
				C650.3,93.3,655.8,80.1,655.8,68.1z"/>
			<path d="M712.4,374.5L700,420.9c-5.8,3.6-12.5,5.6-19.3,5.6c-11.5,0-20.7-5.1-27.3-15.3c-13.7,16.9-22.2,25.4-25.6,25.4
				c-3.7,0-9.3-4.3-16.6-12.9c-6.8-8-10.9-14.3-12.2-18.8c-3.7,5-10.7,11-21,18l12.2-45.4c7.5-7,18.7-17.4,33.7-31.3
				c1.6,0,9.7,6.1,24.2,18.3c14.5,12.2,26.9,18.3,37.1,18.3C694.9,383,704.4,380.1,712.4,374.5z"/>
			<path d="M733.4,8.1C729,2.7,723.9,0,718.2,0c-12.7,0-24.2,6.8-34.3,20.3c-1.7,2.3-3.3,4.6-4.7,7c2.2,1,4.4,2.2,6.2,3.8
				c0.8-1.2,1.7-2.4,2.7-3.6c4-4.5,8.5-6.7,13.4-6.7c3.9,0,8.5,2.3,13.9,6.9c5.3,4.6,8,8.9,8,12.9c0,7.8-7.4,11.7-22.1,11.7
				c-12.8,0-19.2-3.6-19.2-10.7c0-3.7,1.1-7.2,3.3-10.6c-1.9-1.5-4-2.8-6.2-3.8c-6.2,10.2-9.3,20.6-9.3,31.3
				c0,11.7,6.7,17.6,20.1,17.6c12.7,0,24.1-5.4,34.2-16.4c10-10.9,15.1-22.7,15.1-35.4C739.2,18.4,737.1,12.7,733.4,8.1z"/>
			<path d="M786.4,220.5c0,45.9-5.8,83.8-17.3,113.8c-14,35.8-37.9,65.4-71.8,88.9l12.2-45.7c41.5-33.2,62.3-66.6,62.3-100.1
				c0-25.1-7.9-55.4-23.7-91.1c-3.1,15.9-7.7,39.8-13.8,71.5c-2.6,13.7-4.8,20.5-6.5,20.5l-2.2-0.7l-0.5-3.2
				c0-13.2,3.4-37.9,10.2-74.2c7.1-39.2,13.3-61.8,18.5-67.6c8.9,5.5,16.8,19,23.6,40.3C783.4,191.3,786.4,207.1,786.4,220.5z"/>
			<path d="M834.2,13.2c-3.4,11.1-8.1,18.1-14.2,21l-85.5,42c2.6-10.1,10.3-18.3,23-24.7L834.2,13.2z"/>
			<path d="M838.6,93.8c0-4.9-2.9-7.3-8.8-7.3c-8.1,0-12.2-1.1-12.2-3.4c0-4.1,2.4-6.1,7.3-6.1c1.7,0,3.3,0.3,4.9,1
				c1.6-1.1,4-4.6,7-10.3c3-5.7,4.8-9.8,5.2-12.2c-1.7-0.9-3.5-1.5-5.4-1.7c-6.9,0-14.8,5.9-23.8,17.8s-13.5,21.3-13.5,28.3
				c0,6.4,3.2,9.4,9.7,9.3c5.1-0.2,7.9,0.2,8.4,1.2c-2.6,3.6-11.2,8.1-25.6,13.4L762,134c0,2,1.1,2.9,3.2,2.9
				c13.7,0,28.6-3.8,44.9-11.5C829.1,116.4,838.6,105.8,838.6,93.8z"/>
			<path d="M906.3,215.1c-11.2-35.8-26.2-70.4-44.8-103c-10.1,30.3-15.1,75.6-15.1,136c0,32.5,2.7,49.3,8,50.3
				c3.7-1.8,5.5-11.1,5.5-28.1c0-9.1,2.1-29.3,6.3-60.5c8.2,15.5,17,36.2,26.5,62.3c10.8,29.8,16.2,50.8,16.2,63
				c0,17.1-5.1,34-15.4,50.8c-6,9.9-17.1,24-33.4,42.2l-21.2,22.2c-8.3,9-14.3,17.1-17.9,24.4c0.1,1.2,1.1,2.1,2.3,2
				c0.1,0,0.1,0,0.2,0c1.5,0,4.9-1,10.2-2.9c38-13.8,63.3-32.1,75.8-54.9c10.5-19,15.8-50.2,15.8-93.5
				C925.3,292.3,919,255.6,906.3,215.1z"/>
		</g>
	</g>
</g>
</svg>
