<svg xmlns="http://www.w3.org/2000/svg" viewBox="0 0 971.58 664.06">
  <title>EH-Asset 46-layername</title>
  <g id="Layer_2" data-name="Layer 2">
    <g id="ElWasiu">
      <g>
        <path d="M104.64,68.11q0,18-16.4,39.52l7.47,7.31L87.17,139.1a168.32,168.32,0,0,1-16.12-12.74q-37.84,35.27-57.62,35.26-3.91,0-13.43-2.93,29.79-14.4,62.26-38.08-9.63-9.28-9.63-16.36,0-12.69,13.86-29.67t26-17Q104.64,57.62,104.64,68.11ZM85.11,89.63q0-11.25-9.67-11.26l-3.72,1.47A10.94,10.94,0,0,0,69,87.18q0,4.91,11.65,14.45Q85.11,94,85.11,89.63Z"/>
        <path d="M266.41,373.85,254,420.36q-31.5,19.09-51.52,19.09-24.67,0-36.64-31.43L89.56,465.24Q28.21,511.44,28.22,519q0,10.28,33.69,10.27,44.93,0,106.45-24.42,57.85-23.19,95.94-53.46h1.23q-2.94,15.16-60.55,56.75-31.74,23-77.39,41.84-51,21-84,21-41,0-41-18.57,0-36.66,65.18-92.61,26.13-22.25,93.75-69.16-.74-11.49-2.2-15.64-2.94-8.79-11.5-9.53-11-1-11-3.18,0-5.61,6.09-20.64t10.23-20.17q3.41-4.38,23.63-8.06,17.05-2.93,26.8-2.93,24.6,0,24.6,15.09,0,21.42-40.13,61.11,7.8,11,34.67,11Q235.88,397.71,266.41,373.85Z"/>
        <path d="M322.9,601.07q-5.13,16.6-14.16,21l-85.45,42q3.9-15.13,23-24.66Z"/>
        <path d="M398.83,237.3a172.2,172.2,0,0,1-10.5,58.35q-12.21,33.21-32.23,48.69-10.5,8.21-17.58,7.47Q313.38,385.74,289,385.74q-4.87,15.15-38.33,36.87l12.21-45.17q31.74-29.12,37.6-43.21,2.19-6.11,7.08-18.07l3.17,2.93.73,2.2-2.68,14.4a3.31,3.31,0,0,0,1.95,3.18q8.79,0,20-13.43,9.77-12,12.45-22,1.71-8.06,5.37-23.93L352,277.1l1,1.71q1.45,5.37,1.46,26.37l1.47.48q15.87-7.56,24.66-25.87,5.36-11,9.52-31,3.4-16.11,5.86-17.58Q398.83,232.43,398.83,237.3Z"/>
        <path d="M537,325.2q0,64.94-15.64,93.5-18.78,34.19-75.91,54.93-8.06,2.94-10.26,2.93a2.12,2.12,0,0,1-2.44-1.95q5.37-11,17.82-24.41L471.82,428q24.42-27.35,33.45-42.24Q520.66,360.6,520.65,335q0-18.31-16.2-63-14.25-39.06-26.52-62.25-6.27,46.88-6.27,60.54,0,25.39-5.55,28.08-8-1.47-8-50.29,0-90.59,15.09-136a524.76,524.76,0,0,1,44.78,103Q537,275.89,537,325.2Z"/>
        <path d="M596.34,159.67q-5.13,16.61-14.16,21l-85.45,42q3.9-15.14,22.95-24.66Z"/>
        <path d="M769.68,373.78l-12.46,46.4Q741.6,432.65,700.83,450q-8.18,36.44-39.06,78-32.24,43.51-64.46,57.45-27.09,11.73-68.11,11.74-15.63,0-46.39-5.19Q446.19,586,445,579.37l1.95-1.49q7.32.24,23.2,2.93,15.13,2.45,23.43,2.44,16.84,0,49.32-9.52Q613.42,553,665.18,491.94q18.08-21.24,20.51-37.11-21.24,5.87-28.56,5.86-22.23,0-22.22-14.65,0-15.37,12.45-38.81Q661.28,381.1,675,381.1q11.94,0,21.35,9.28t9.41,21.24Q746.72,394.29,769.68,373.78Z"/>
        <path d="M785.54,24.41q0,19-15.06,35.4T736.3,76.17q-20.1,0-20.09-17.58,0-19.77,14-38.33Q745.37,0,764.48,0,773,0,779.67,8.06A26.15,26.15,0,0,1,785.54,24.41ZM769.68,40.59q0-5.94-8-12.9t-13.87-6.94c-4.92,0-9.37,2.23-13.39,6.7s-6,9.18-6,14.13q0,10.67,19.15,10.67Q769.68,52.25,769.68,40.59Z"/>
        <path d="M832.66,220.46q0,68.85-17.33,113.77-21,53.72-71.78,88.87l12.21-45.66Q818,327.64,818,277.34q0-37.59-23.69-91.06-4.59,23.92-13.77,71.53-3.87,20.51-6.52,20.51l-2.17-.73-.49-3.18q0-19.77,10.22-74.21,10.7-58.84,18.48-67.63,13.36,8.3,23.59,40.28Q832.66,200.45,832.66,220.46Z"/>
        <path d="M880.52,13.18q-5.13,16.61-14.16,21l-85.45,42q3.9-15.14,23-24.66Z"/>
        <path d="M884.91,93.75q0-7.32-8.79-7.32-12.21,0-12.21-3.42,0-6.11,7.33-6.11a11.88,11.88,0,0,1,4.88,1q2.45-1.69,7-10.28t5.25-12.2a15.25,15.25,0,0,0-5.4-1.69q-10.32,0-23.82,17.82T845.6,99.85q0,9.53,9.65,9.28c5.12-.16,7.92.25,8.42,1.22q-3.92,5.37-25.64,13.43L808.25,134c0,2,1,2.93,3.17,2.93q20.51,0,44.92-11.47Q884.9,111.82,884.91,93.75Z"/>
        <path d="M952.59,215.09a524.76,524.76,0,0,0-44.78-103q-15.09,45.41-15.09,136,0,48.82,8,50.29,5.55-2.68,5.55-28.08,0-13.67,6.27-60.54Q924.77,232.91,939,272q16.2,44.68,16.2,63,0,25.64-15.38,50.78-9,14.89-33.45,42.24L885.15,450.2q-12.45,13.43-17.82,24.41c.16,1.3,1,1.95,2.44,1.95s4.87-1,10.23-2.93q57-20.75,75.75-54.93,15.82-28.56,15.83-93.5Q971.58,275.88,952.59,215.09Z"/>
      </g>
    </g>
  </g>
</svg>
