<?xml version="1.0" encoding="utf-8"?>
<!-- Generator: Adobe Illustrator 22.1.0, SVG Export Plug-In . SVG Version: 6.00 Build 0)  -->
<svg version="1.1" id="Layer_1" xmlns="http://www.w3.org/2000/svg" xmlns:xlink="http://www.w3.org/1999/xlink" x="0px" y="0px"
	 viewBox="0 0 846.9 727" style="enable-background:new 0 0 846.9 727;" xml:space="preserve">
<title>EH-Asset 26-layername</title>
<g id="Layer_2_1_">
	<g id="ElMuzil">
		<g>
			<path d="M420.4,198l-2.2-1.7C364,222,318.3,241.8,281,255.6c-0.4-1.8-0.9-3.5-1.4-5.2c-6.8,4.3-13.6,8.4-21,11.3
				c0.2,0.7,0.4,1.3,0.6,2l-27.8,12c0-47,1.1-71.9,3.4-74.7c5.5,9.7,10.2,19.9,13.9,30.5c2,5.3,5.3,15.4,9.9,30.3
				c7.4-2.9,14.2-7,21-11.3c-11.6-44-27.2-82.6-46.7-115.6c-9,28.3-13.6,57.7-13.7,87.4c0,8.6,0.2,19.2,0.5,31.7
				c0.2,13.7,0.2,22.5,0.2,26.6c-1.2,0.5-2.4,1.1-3.5,1.6c0.7,3,1.2,6,1.3,9c0.7-0.3,1.5-0.7,2.2-1c-0.5,21.5-1,43-1.7,64.4
				c-0.8,25.9-2.7,47.3-5.6,64.2l2.7,1.7l2.7-1.2c4.6-7.7,7.6-28.7,8.9-63c1.6-41.3,3-65.1,4.2-71.3l30.5-12.5
				c8.1,32.9,12.2,62.1,12.2,87.7c0,49.5-15.4,94-45.9,133.3c-30.6,39.4-66.1,59.1-106.6,59.1c-21.5,0-38.9-7.7-52.4-23
				c-12.7-14.6-19-32.9-19-54.7c0-43.3,23-83.8,69-121.6c31.4-25.6,64.3-46.3,98.7-62.2c-0.1-3-0.6-6-1.3-9
				c-46.9,21.1-82,41-105.4,59.9c-20.6,16.5-38,36.6-51.3,59.4c-14.8,25.1-22.2,49.1-22.2,72.3c0,33.5,5.8,60.7,17.4,81.5
				c14.8,26.5,37.6,39.8,68.4,39.8c26.6,0,50.2-8.9,70.9-26.7c14.5-12.5,30.5-32.8,48.2-61c33.1-53.1,49.6-105.6,49.6-157.7
				c-0.2-28.6-3.3-57.2-9.3-85.2c45.7-18.6,91.3-39.7,136.7-63.5L420.4,198z"/>
			<path d="M350.6,664.1c-3.4,11.1-8.1,18.1-14.2,21l-85.4,42c2.6-10.1,10.3-18.3,23-24.7L350.6,664.1z"/>
			<path d="M577.4,131.1c0-7-4-10.5-12.2-10.5c-8.1,0-16.8,5.7-26,17c-0.5,0.6-1,1.2-1.5,1.8c2.1,1.3,4.2,2.6,6.2,4
				c0.1-0.2,0.3-0.4,0.5-0.6l3.7-1.5c6.4,0,9.7,3.8,9.7,11.3c0,2.9-1.5,6.9-4.5,12c-7.8-6.4-11.7-11.2-11.7-14.5
				c0-2.5,0.8-4.8,2.3-6.8c-2-1.4-4.1-2.7-6.2-4c-8.3,10.6-12.4,19.8-12.4,27.8c0,4.7,3.2,10.2,9.6,16.4
				c-21.6,15.8-42.4,28.5-62.3,38.1c6.3,2,10.8,2.9,13.4,2.9c13.2,0,32.4-11.7,57.6-35.3c5.1,4.6,10.5,8.8,16.1,12.7l8.5-24.2
				l-7.5-7.3C571.9,156.3,577.4,143.1,577.4,131.1z"/>
			<path d="M634,437.5l-12.5,46.4c-5.8,3.6-12.5,5.6-19.3,5.6c-11.5,0-20.6-5.1-27.3-15.3c-13.7,16.9-22.2,25.4-25.6,25.4
				c-3.7,0-9.3-4.3-16.6-12.9c-6.8-8-10.9-14.3-12.2-18.8c-3.7,5-10.7,11-21,18l12.2-45.4c7.5-7,18.7-17.4,33.7-31.3
				c1.6,0,9.7,6.1,24.2,18.3c14.5,12.2,26.8,18.3,37.1,18.3C616.5,446,626,443.1,634,437.5z"/>
			<path d="M655,71c-4.4-5.3-9.5-8-15.2-8c-12.7,0-24.2,6.8-34.3,20.3c-1.4,1.9-2.7,3.8-4,5.7c1.5,2.2,2.8,4.5,4.6,6.5
				c0.9-1.7,2.1-3.4,3.6-5c4-4.5,8.5-6.7,13.4-6.7c3.9,0,8.5,2.3,13.9,6.9s8,8.9,8,12.9c0,7.8-7.4,11.6-22.1,11.6
				c-12.8,0-19.2-3.5-19.2-10.7c0-3.1,0.8-6.2,2.4-9.1c-1.8-1.9-3.1-4.3-4.6-6.5c-6.7,10.6-10,21.4-10,32.6
				c0,11.7,6.7,17.6,20.1,17.6c12.7,0,24.1-5.4,34.2-16.4c10-10.9,15.1-22.7,15.1-35.4C660.9,81.4,658.8,75.6,655,71z"/>
			<path d="M708,283.5c0,45.9-5.8,83.8-17.3,113.8c-14,35.8-37.9,65.4-71.8,88.9l12.2-45.6c41.5-33.2,62.3-66.6,62.3-100.1
				c0-25.1-7.9-55.4-23.7-91.1c-3.1,16-7.7,39.8-13.8,71.5c-2.6,13.7-4.8,20.5-6.5,20.5l-2.2-0.7l-0.5-3.2
				c0-13.2,3.4-37.9,10.2-74.2c7.1-39.2,13.3-61.8,18.5-67.6c8.9,5.5,16.8,19,23.6,40.3C705,254.2,708,270.1,708,283.5z"/>
			<path d="M755.9,76.2c-3.4,11.1-8.1,18.1-14.2,21l-85.5,42c2.6-10.1,10.3-18.3,23-24.7L755.9,76.2z"/>
			<path d="M108.2,43.4l-7.3-5.4c9.8-10.3,14.7-17.5,14.7-21.6c0-4.1-1.5-8-4-11.2c-2.7-3.5-5.9-5.3-9.6-5.3
				c-6.7,0-13.4,2.6-20.3,7.8c1.1,1.6,2.3,3.3,3.4,4.9c1.4-1.3,3.3-1.9,5.8-1.9c5.1,2,7.7,4.9,7.7,8.8c0,3.7-1.8,8.3-5.3,13.6
				c-7.1-5.5-10.6-10-10.6-13.4c0-3.2,0.8-5.6,2.4-7.1c-1.2-1.6-2.3-3.2-3.4-4.9c-1.7,1.3-3.4,2.7-5.1,4.3
				c-8.6,8.1-12.9,16.2-12.9,24.4l1,5.9c1.9,3,4,5.8,6.4,8.3c-19.4,11.4-38.5,19.4-57.4,24c5.5,3.3,10.4,4.9,14.4,4.9
				c10.4,0,27.7-8,51.9-23.9c10.4,4.6,18.8,6.9,25,7.1c2.6-8.3,3.8-13.6,3.7-15.7L108.2,43.4z"/>
			<path d="M67.6,100c-6.3,0-9.3-3.8-9-11.4l0.3-4.8l-6.3,1.4C40.5,104.4,30.7,114,23.2,114c-5.2,0-7.8-3-7.8-9l1.7-10.9L12,94.6
				C4,105.5,0,115.3,0,124l1.7,8.6c3.4,4.4,7.5,6.6,12.2,6.6c12.7,0,22.8-6.6,30.5-19.7c3.9,4.2,7.1,6.2,9.7,6.2
				c21.6,0,36.9-17.5,46-52.5L94,74.7C85.4,91.6,76.6,100,67.6,100z"/>
			<path d="M435.1,441.6c0-8.5,0.8-17,2.4-25.4c1-5.2,1.7-8.6,2.2-10.3l-0.5-2.5l-2.4-2.2c-9.3,4.1-22.2,18.9-38.8,44.6
				c-11.2,18.4-22.5,36.7-33.7,54.9c-8.8,12.9-23.8,27.1-44.9,42.7c-19.7,14.7-37.3,24.5-52.7,29.5c-15.5,5-35.5,7.5-60.1,7.6
				l-3.4,2l-0.7,1.5c2.4,2,10.7,3.8,24.9,5.5c9.2,1.1,18.4,1.8,27.6,2c16.1,0,27.7-0.7,34.7-2c9.3-1.6,20.1-5.4,32.5-11.5
				c21.2-10.4,44-38.5,68.6-84.2c10.4-19.4,17.4-31.3,21.1-35.8c3.7-4.5,6-6.7,7-6.7h2c-0.9,5.2-1.3,10.6-1.5,15.9
				c0,27.2,9,40.8,27.1,40.8c6.7,0,16.6-3.1,29.8-9.3c9.8-4.4,19.2-9.8,28.1-16l12.5-46.5c-25.1,20.9-45.1,31.4-59.9,31.4
				C442.3,467.8,435.1,459.1,435.1,441.6z"/>
			<path d="M437,325.4l9.8-17.6c0-4.9-7.4-10.5-22.2-16.8c-10.2,14.8-17.6,26.4-22,34.7l21.7,14.9C428.7,337,432.9,332,437,325.4z"
				/>
			<path d="M827.9,278.1c-11.2-35.8-26.2-70.4-44.8-103c-10.1,30.3-15.1,75.6-15.1,136c0,32.5,2.7,49.3,8,50.3
				c3.7-1.8,5.5-11.1,5.5-28.1c0-9.1,2.1-29.3,6.3-60.5c8.2,15.4,17,36.2,26.5,62.3c10.8,29.8,16.2,50.8,16.2,63
				c0,17.1-5.1,34-15.4,50.8c-6,9.9-17.1,24-33.5,42.2l-21.2,22.2c-8.3,9-14.2,17.1-17.8,24.4c0.1,1.2,1.1,2,2.2,2
				c0.1,0,0.1,0,0.2,0c1.5,0,4.9-1,10.2-2.9c38-13.8,63.3-32.1,75.8-54.9c10.5-19,15.8-50.2,15.8-93.5
				C846.9,355.3,840.6,318.6,827.9,278.1z"/>
			<path d="M760.3,157.7c0-4.9-2.9-7.3-8.8-7.3c-8.1,0-12.2-1.1-12.2-3.4c0-4.1,2.4-6.1,7.3-6.1c1.7,0,3.3,0.3,4.9,1
				c1.6-1.1,4-4.6,7-10.3c3-5.7,4.8-9.8,5.3-12.2c-1.7-0.9-3.5-1.5-5.4-1.7c-6.9,0-14.8,5.9-23.8,17.8S721,156.9,721,163.8
				c0,6.4,3.2,9.4,9.7,9.3c5.1-0.2,7.9,0.2,8.4,1.2c-2.6,3.6-11.2,8.1-25.6,13.4L683.6,198c0,1.9,1.1,2.9,3.2,2.9
				c13.7,0,28.7-3.8,44.9-11.5C750.7,180.4,760.3,169.8,760.3,157.7z"/>
		</g>
	</g>
</g>
</svg>
