<?xml version="1.0" encoding="utf-8"?>
<!-- Generator: Adobe Illustrator 22.1.0, SVG Export Plug-In . SVG Version: 6.00 Build 0)  -->
<svg version="1.1" id="Layer_1" xmlns="http://www.w3.org/2000/svg" xmlns:xlink="http://www.w3.org/1999/xlink" x="0px" y="0px"
	 viewBox="0 0 847.2 720.5" style="enable-background:new 0 0 847.2 720.5;" xml:space="preserve">
<title>EH-Asset 47-layername</title>
<g id="Layer_2_1_">
	<g id="ElHakim">
		<g>
			<path d="M154.3,68.1c0-7-4-10.5-12.1-10.5c-7.2,0-14.9,4.5-23.1,13.6c2.7,2,4.9,4.3,6.2,7.2c6.3,0.1,9.5,3.8,9.5,11.3
				c0,2.9-1.5,6.9-4.5,12c-7.8-6.4-11.6-11.2-11.6-14.5c0-2.7,0.9-5.3,2.7-7.3l3.7-1.5c0.1,0,0.1,0,0.2,0c-1.2-2.9-3.5-5.3-6.2-7.2
				c-1,1.1-2,2.2-2.9,3.4c-9.2,11.3-13.9,21.2-13.9,29.7c0,4.7,3.2,10.2,9.6,16.4c-21.6,15.8-42.4,28.5-62.3,38.1
				c6.3,2,10.8,2.9,13.4,2.9c13.2,0,32.4-11.7,57.6-35.3c5.1,4.6,10.5,8.8,16.1,12.7l8.5-24.2l-7.5-7.3
				C148.8,93.3,154.3,80.1,154.3,68.1z"/>
			<path d="M222.9,374.8l-12.2,45.6c-18.7,11.7-37.4,23.4-56.1,34.9c-25.7,17.7-38.5,30.8-38.5,39.1c0,1.8,1,2.7,2.9,2.7
				c4.9,0,12.2-5.2,22-15.6c6.7-7.2,13.3-14.4,19.8-21.7c1.1,0.8,1.7,2.2,1.7,4.1c0,2.3-1.2,8.6-3.7,19c-3.1,13.3-4.8,20.5-5.1,21.5
				c-2.4,7-5.9,13.5-10.5,19.3c-7,9.1-22.5,22.3-46.4,39.5c-27.4,19.7-45.8,34.3-55.3,43.7c-17.8,17.6-26.7,34.3-26.7,50.1
				c0,15.9,13.2,28.4,39.5,37.4c21.6,7.5,46.1,11.2,73.2,11.2c44.6,0,74.4-0.7,89.4-2.2l0.5,1.2c0,4.7-13.4,8.7-40.3,12
				c-20.8,2.6-38.2,3.8-52,3.8c-83.3,0-125-21.1-125-63.2c0-19.4,7.9-41.2,23.7-65.4c14.2-21.6,30.3-39,48.2-52l30.1-22
				c-1.3-4.2-2-8.6-1.9-12.9c0-12.7,5-27.6,14.9-44.7c9.9-16.4,20.4-28.2,31.5-35.4C180.3,403.1,205.8,386.5,222.9,374.8z"/>
			<path d="M201.4,486.6c-10.6,21.5-15.8,34.8-15.6,39.8c9.6-5,16.7-9,21.4-11.7c20-11.4,31.2-18.4,33.8-21c6-6,11.1-18.2,15.3-36.6
				c-19.3,11.7-31.4,18.6-36.5,20.8C210.5,481.9,204.3,484.8,201.4,486.6z"/>
			<path d="M271.8,392.1c-11.9,6.2-21.7,9.3-29.5,9.3c-6.7,0-11.4-0.9-14.2-2.7c12.6-17.4,18.9-32.1,18.9-43.9
				c0-2.8-0.2-5.6-0.7-8.3c-9.1,10.4-18,20.7-26.7,30.8l-12.1,45.3l6.6-5.2c6.5,12,16.7,18,30.7,18c13.2,0,26.6-5,40.3-15l12.5-46.5
				C290.9,380.3,282.4,386.4,271.8,392.1z"/>
			<path d="M354.5,576.7c-3.4,11.1-8.1,18.1-14.2,21l-85.4,42c2.6-10.1,10.3-18.3,22.9-24.7L354.5,576.7z"/>
			<path d="M485.6,98.6c-3.4,11.1-8.1,18.1-14.2,21l-85.5,42c2.6-10.1,10.3-18.3,23-24.7L485.6,98.6z"/>
			<path d="M566.9,396.5c-12.7,0-23.4-3.6-32-10.7c-9.3-7.6-13.9-17.7-13.9-30.3c0-6.6,0.6-13.3,1.7-19.8
				c17.4-15.5,42.6-26.5,75.4-33.2c7.5-10.6,12.7-23.7,15.6-39.3c-10.1,4.6-21.1,6.9-32.2,6.8c-7.3,0-17.9-2.1-31.9-6.2
				c-13.9-4.1-24.5-6.2-31.6-6.2c-27.4,0-47.8,12.4-61.2,37.1c-6.7,12.4-13.9,36.2-21.5,71.2c4.9-2.1,9.7-4.3,13.3-8.5
				c-1.1,0.9-2.2,1.8-3.3,2.7c6.5-41.8,24.7-62.7,54.5-62.7c5.2,0,14.6,1.6,28.3,4.9h0c-13.5,6.2-27.9,14.9-43.2,26.2
				c-6.7,4.9-18.8,14.5-36.3,28.9c-3.5,4.2-8.4,6.4-13.3,8.5c-0.2,0.7-0.3,1.5-0.5,2.2l-9,8.5l-12.5,45.9
				c7.8-5.8,13.7-10.3,17.6-13.4l-2,30.3v30.5l1.2,1.2l1.2-0.7l2.2-4.1c-0.6-17.6,1.6-39.2,6.6-65c24.7-21.5,47.8-40.5,69.3-56.9
				c-2.9,13-4.4,23.7-4.4,32c0,17.4,5.1,32.1,15.3,44.1c10.8,12.7,24.8,19,42,19c19.9,0,39.8-6.2,59.8-18.5l12.5-46.5
				C616,389.1,593.4,396.5,566.9,396.5z"/>
			<path d="M655.3,8.1c-4.4-5.4-9.5-8.1-15.2-8.1c-12.7,0-24.1,6.8-34.3,20.3c-2.4,3.2-4.5,6.4-6.3,9.7c2.4,0.6,4.8,1.3,7.2,2
				c0.9-1.5,2-3.1,3.3-4.5c4-4.5,8.5-6.7,13.4-6.7c3.9,0,8.5,2.3,13.9,6.9s8,8.9,8,12.9c0,7.8-7.4,11.7-22.1,11.7
				c-12.8,0-19.2-3.6-19.2-10.7c0-3.3,0.9-6.5,2.7-9.6c-2.4-0.7-4.8-1.4-7.2-2c-5.1,9.3-7.7,18.9-7.7,28.6
				c0,11.7,6.7,17.6,20.1,17.6c12.7,0,24.1-5.4,34.2-16.4c10-10.9,15.1-22.7,15.1-35.4C661.1,18.4,659,12.7,655.3,8.1z"/>
			<path d="M708.3,220.5c0,45.9-5.8,83.8-17.3,113.8c-14,35.8-37.9,65.4-71.8,88.9l12.2-45.7c41.5-33.2,62.3-66.6,62.3-100.1
				c0-25.1-7.9-55.4-23.7-91.1c-3.1,15.9-7.7,39.8-13.8,71.5c-2.6,13.7-4.8,20.5-6.5,20.5l-2.2-0.7l-0.5-3.2
				c0-13.2,3.4-37.9,10.2-74.2c7.1-39.2,13.3-61.8,18.5-67.6c8.9,5.5,16.8,19,23.6,40.3C705.3,191.3,708.3,207.1,708.3,220.5z"/>
			<path d="M756.1,13.2c-3.4,11.1-8.1,18.1-14.2,21l-85.5,42c2.6-10.1,10.3-18.3,23-24.7L756.1,13.2z"/>
			<path d="M355.2,383.5c-3.2-4.5-5.2-13.4-5.9-26.6c-0.7-12.7-1.2-37.5-1.5-74.5c-0.2-31.1-1.1-55.9-2.9-74.5l-2.2-1
				c-2.1,2.1-4.8,7.9-8.2,17.2c-3.4,9.4-5.1,15.7-5,18.9c0,6.8,0.4,17,1.2,30.5c0.8,13.5,1.2,23.7,1.2,30.6
				c0,18.5-2.6,32.5-7.9,41.8c-4.3,7.8-14.3,18.3-30.2,31.5L281.7,423c20.1-14.3,36.3-35.2,48.6-62.5c0.7,26,1.9,42.3,3.7,48.8
				c4.9,18,16.2,27,34.1,27c17.2,0,33.5-5.3,48.7-16l12.4-46.3c-15,12.9-31.1,19.3-48.3,19.3C368.3,393.3,359.7,390.1,355.2,383.5z"
				/>
			<path d="M486.3,3.7C462.7,48.1,447,76.9,439,90.1c-19.3,31.6-39.5,57.2-60.5,76.9c-32.7,25.2-57.6,43.2-74.9,54l2.9,1
				c17.2-3.6,38.8-15.9,64.7-36.9c22.6-18.1,40.7-35.9,54.4-53.5c-0.3,12.5,0.3,22.4,2,29.5l4.4-2.9c1.3-28.1,21.3-79.9,59.8-155.3
				l-2.2-1.2L486.3,3.7z"/>
			<path d="M760.5,93.8c0-4.9-2.9-7.3-8.8-7.3c-8.1,0-12.2-1.1-12.2-3.4c0-4.1,2.4-6.1,7.3-6.1c1.7,0,3.3,0.3,4.9,1
				c1.6-1.1,4-4.6,7-10.3c3-5.7,4.8-9.8,5.3-12.2c-1.7-0.9-3.5-1.5-5.4-1.7c-6.9,0-14.8,5.9-23.8,17.8s-13.5,21.3-13.6,28.3
				c0,6.4,3.2,9.4,9.7,9.3c5.1-0.2,7.9,0.3,8.4,1.2c-2.6,3.6-11.1,8.1-25.6,13.4L683.8,134c0,2,1.1,2.9,3.2,2.9
				c13.7,0,28.6-3.8,44.9-11.5C751,116.4,760.5,105.8,760.5,93.8z"/>
			<path d="M828.2,215.1c-11.2-35.8-26.2-70.4-44.8-103c-10.1,30.3-15.1,75.6-15.1,136c0,32.5,2.7,49.3,8,50.3
				c3.7-1.8,5.5-11.1,5.5-28.1c0-9.1,2.1-29.3,6.3-60.5c8.2,15.5,17,36.2,26.5,62.3c10.8,29.8,16.2,50.8,16.2,63
				c0,17.1-5.1,34-15.4,50.8c-6,9.9-17.2,24-33.5,42.2l-21.3,22.2c-8.3,9-14.2,17.1-17.8,24.4c0.2,1.3,1,2,2.4,2s4.9-1,10.2-2.9
				c38-13.8,63.3-32.1,75.8-54.9c10.5-19,15.8-50.2,15.8-93.5C847.2,292.3,840.8,255.6,828.2,215.1z"/>
		</g>
	</g>
</g>
</svg>
