<?xml version="1.0" encoding="utf-8"?>
<!-- Generator: Adobe Illustrator 22.1.0, SVG Export Plug-In . SVG Version: 6.00 Build 0)  -->
<svg version="1.1" id="Layer_1" xmlns="http://www.w3.org/2000/svg" xmlns:xlink="http://www.w3.org/1999/xlink" x="0px" y="0px"
	 viewBox="0 0 1067.1 597.2" style="enable-background:new 0 0 1067.1 597.2;" xml:space="preserve">
<title>EH-Asset 48-layername</title>
<g id="Layer_2_1_">
	<g id="ElWedud">
		<g>
			<path d="M119.9,68.1c0-7-4-10.5-12.2-10.5c-7.1,0-14.6,4.3-22.5,12.9c1.7,2.5,3.1,5.4,4.1,8.4l1.3-0.5c6.4,0,9.7,3.8,9.7,11.3
				c0,2.9-1.5,6.9-4.4,12c-7.8-6.4-11.6-11.2-11.6-14.5c0-2.7,0.9-5.3,2.7-7.3l2.3-0.9c-1-3-2.4-5.9-4.1-8.4
				c-1.2,1.3-2.3,2.6-3.5,4.1c-9.2,11.3-13.8,21.2-13.8,29.7c0,4.7,3.2,10.2,9.6,16.4c-21.7,15.8-42.4,28.5-62.3,38.1
				c6.3,2,10.8,2.9,13.4,2.9c13.2,0,32.4-11.7,57.6-35.3c5.1,4.6,10.5,8.8,16.1,12.7l8.5-24.2l-7.5-7.3
				C114.4,93.3,119.9,80.1,119.9,68.1z"/>
			<path d="M258.1,304.2c0,33-11.4,70.4-34.2,112.1c-22.9,42.5-52,73-87.2,91.5c-9.4,5-28.5,9.3-57.1,12.7
				c-23.9,2.9-44.3,4.4-61,4.4c-9.3,0-15.1-0.4-17.6-1.2L0,522c3.6-0.7,9.6-1.4,18.1-2.2c22.5-2.1,45.9-8.9,70.3-20.3
				c46.9-22,86.9-55.6,120.1-100.7c20.7-28,31-47.8,31-59.4c0-8-3.5-15.7-10.5-23c-7-7.3-14.5-11-22.5-11c-9.4,0-25,4.9-46.6,14.7
				c-23.8,10.8-35.6,20.2-35.6,28.4c0,0.8,2.8,4,8.4,9.5c6.4,6.3,11.6,13.8,15.3,22c5.6,12.5,8.4,27.6,8.4,45.2
				c0,4.9-1.2,11.3-3.7,19.3c-3,9.6-6.3,14.4-9.9,14.4l-2.2-2l1.7-14.4c0-6.5-6.8-18.3-20.3-35.5s-20.3-30.7-20.3-40.6
				c0-3.6,2.6-12.4,7.8-26.4c4.9-13.3,8.8-22.4,11.7-27.3c5.4-9.1,21.2-19.9,47.4-32.5c25.7-12.1,44.7-18.2,56.9-18.2
				c9.4,0,17.4,4.9,23.9,14.6C254.9,284.7,258,294.3,258.1,304.2z"/>
			<path d="M431.1,314.7c0,33.5-13.5,71.1-40.5,112.8c-27.8,42.5-56.7,68.8-86.6,78.9c-21.6,7.3-52.9,11-93.8,11
				c-11.9,0-17.8-1.5-17.8-4.6c0-1.5,6.4-3.8,19.3-7.1c19-4.7,33.3-8.7,42.7-12c29.1-10.1,56.6-25.5,82.6-46.2
				c25.9-20.8,46.6-44.1,61.9-70.2c10.6-17.9,15.9-32.7,15.9-44.4c0-3.2-1.2-8.4-3.7-15.4c-9.1,10.1-19.7,15.1-31.7,15.1
				c-5.3,0-10.4-1.7-14.6-4.9c-4.2-2.9-6.7-7.6-6.6-12.7c0-10.9,6.4-28,19.3-51.3c3.9-7.2,9.6-10.7,17.1-10.7
				C418.9,252.9,431.2,273.5,431.1,314.7z"/>
			<path d="M489,68.1c0-7-4-10.5-12.1-10.5c-7.5,0-15.4,4.8-23.8,14.5c2.3,2,4.2,4.2,5.5,6.9l1.4-0.5c6.4,0,9.7,3.8,9.7,11.3
				c0,2.9-1.5,6.9-4.5,12c-7.8-6.4-11.7-11.2-11.7-14.5c0-2.7,0.9-5.3,2.7-7.3l2.4-0.9c-1.2-2.7-3.1-4.9-5.5-6.9
				c-0.7,0.8-1.4,1.7-2.2,2.5c-9.2,11.3-13.9,21.2-13.9,29.7c0,4.7,3.2,10.2,9.6,16.4c-21.6,15.8-42.4,28.5-62.3,38.1
				c6.3,2,10.8,2.9,13.4,2.9c13.2,0,32.4-11.7,57.6-35.3c5.1,4.6,10.5,8.8,16.1,12.7l8.5-24.2l-7.5-7.3
				C483.5,93.3,489,80.1,489,68.1z"/>
			<path d="M627.2,304.2c0,33-11.4,70.4-34.2,112.1c-22.9,42.5-52,73-87.2,91.5c-9.4,5-28.5,9.3-57.1,12.7
				c-23.9,2.9-44.3,4.4-61,4.4c-9.3,0-15.1-0.4-17.6-1.2l-1-1.7c3.6-0.7,9.6-1.4,18.1-2.2c22.5-2.1,45.9-8.9,70.3-20.3
				c46.9-22,86.9-55.6,120.1-100.7c20.7-28,31-47.8,31-59.4c0-8-3.5-15.7-10.5-23c-7-7.3-14.5-11-22.5-11c-9.4,0-25,4.9-46.6,14.7
				c-23.8,10.8-35.6,20.2-35.6,28.4c0,0.8,2.8,4,8.4,9.5c6.4,6.3,11.6,13.8,15.2,22.1c5.6,12.5,8.4,27.6,8.4,45.2
				c0,4.9-1.2,11.3-3.7,19.3c-3,9.6-6.3,14.4-9.9,14.4l-2.2-2l1.7-14.4c0-6.5-6.8-18.3-20.3-35.5c-13.5-17.2-20.3-30.7-20.2-40.6
				c0-3.6,2.6-12.4,7.8-26.4c4.9-13.3,8.8-22.4,11.7-27.3c5.4-9.1,21.2-19.9,47.4-32.5c25.7-12.2,44.7-18.3,56.9-18.3
				c9.4,0,17.4,4.9,23.9,14.6C624.1,284.7,627.2,294.3,627.2,304.2z"/>
			<path d="M691.9,159.7c-3.4,11.1-8.1,18.1-14.2,21l-85.4,42c2.6-10.1,10.2-18.3,22.9-24.7L691.9,159.7z"/>
			<path d="M865.2,373.8l-12.5,46.4c-10.4,8.3-29.2,18.3-56.4,29.8c-5.4,24.3-18.5,50.3-39.1,78c-21.5,29-43,48.2-64.5,57.5
				c-18.1,7.8-40.8,11.7-68.1,11.7c-10.4,0-25.9-1.7-46.4-5.2c-24.4-4-37-8.2-37.8-12.6l2-1.5c4.9,0.2,12.6,1.1,23.2,2.9
				c10.1,1.6,17.9,2.4,23.4,2.4c11.2,0,27.7-3.2,49.3-9.5c47-13.8,87.8-41.1,122.3-81.8c12-14.2,18.9-26.5,20.5-37.1
				c-14.2,3.9-23.7,5.9-28.6,5.9c-14.8,0-22.2-4.9-22.2-14.6c0-10.2,4.2-23.2,12.5-38.8c9.3-17.4,18.5-26.1,27.6-26.1
				c8,0,15.1,3.1,21.3,9.3s9.4,13.3,9.4,21.2C828.6,400.1,849.9,387.5,865.2,373.8z"/>
			<path d="M875.2,8.1C870.8,2.7,865.7,0,860,0c-12.7,0-24.1,6.8-34.2,20.3c-2,2.6-3.7,5.2-5.3,7.9c2.5,0.6,5,1.2,7.5,1.8
				c0.6-0.8,1.3-1.7,2-2.5c4-4.5,8.5-6.7,13.4-6.7c3.9,0,8.5,2.3,13.9,6.9s8,8.9,8,12.9c0,7.8-7.4,11.7-22.1,11.7
				c-12.8,0-19.2-3.6-19.2-10.7c0-4,1.3-7.9,4-11.6c-2.5-0.6-5-1.2-7.5-1.8c-5.8,9.9-8.7,20.1-8.7,30.5c0,11.7,6.7,17.6,20.1,17.6
				c12.7,0,24.1-5.4,34.2-16.4c10-10.9,15.1-22.7,15.1-35.4C881.1,18.4,879,12.7,875.2,8.1z"/>
			<path d="M928.2,220.5c0,45.9-5.8,83.8-17.3,113.8c-14,35.8-37.9,65.4-71.8,88.9l12.2-45.7c41.5-33.2,62.3-66.6,62.3-100.1
				c0-25.1-7.9-55.4-23.7-91.1c-3.1,15.9-7.7,39.8-13.8,71.5c-2.6,13.7-4.8,20.5-6.5,20.5l-2.2-0.7l-0.5-3.2
				c0-13.2,3.4-37.9,10.2-74.2c7.1-39.2,13.3-61.8,18.5-67.6c8.9,5.5,16.8,19,23.6,40.3C925.2,191.3,928.2,207.1,928.2,220.5z"/>
			<path d="M976.1,13.2c-3.4,11.1-8.1,18.1-14.2,21l-85.5,42c2.6-10.1,10.3-18.3,22.9-24.7L976.1,13.2z"/>
			<path d="M980.5,93.8c0-4.9-2.9-7.3-8.8-7.3c-8.1,0-12.2-1.1-12.2-3.4c0-4.1,2.4-6.1,7.3-6.1c1.7,0,3.3,0.3,4.9,1
				c1.6-1.1,4-4.6,7-10.3c3-5.7,4.8-9.8,5.3-12.2c-1.7-0.9-3.5-1.5-5.4-1.7c-6.9,0-14.8,5.9-23.8,17.8s-13.5,21.3-13.5,28.3
				c0,6.4,3.2,9.4,9.7,9.3c5.1-0.2,7.9,0.3,8.4,1.2c-2.6,3.6-11.1,8.1-25.6,13.4L903.8,134c0,2,1.1,2.9,3.2,2.9
				c13.7,0,28.6-3.8,44.9-11.5C970.9,116.4,980.5,105.8,980.5,93.8z"/>
			<path d="M1048.2,215.1c-11.2-35.8-26.2-70.4-44.8-103c-10.1,30.3-15.1,75.6-15.1,136c0,32.5,2.7,49.3,8,50.3
				c3.7-1.8,5.5-11.1,5.5-28.1c0-9.1,2.1-29.3,6.3-60.5c8.2,15.5,17,36.2,26.5,62.3c10.8,29.8,16.2,50.8,16.2,63
				c0,17.1-5.1,34-15.4,50.8c-6,9.9-17.1,24-33.5,42.2l-21.3,22.2c-8.3,9-14.2,17.1-17.8,24.4c0.2,1.3,1,2,2.4,2s4.9-1,10.2-2.9
				c38-13.8,63.3-32.1,75.8-54.9c10.5-19,15.8-50.2,15.8-93.5C1067.1,292.3,1060.8,255.6,1048.2,215.1z"/>
		</g>
	</g>
</g>
</svg>
