<svg xmlns="http://www.w3.org/2000/svg" viewBox="0 0 1067.14 597.17">
  <title>EH-Asset 48-layername</title>
  <g id="Layer_2" data-name="Layer 2">
    <g id="ElWedud">
      <g>
        <path d="M119.87,68.11q0,18-16.39,39.52l7.47,7.31L102.4,139.1a170.85,170.85,0,0,1-16.12-12.74q-37.85,35.27-57.62,35.26-3.9,0-13.42-2.93Q45,144.29,77.49,120.61q-9.61-9.28-9.62-16.36,0-12.69,13.85-29.67t26-17Q119.87,57.62,119.87,68.11ZM100.34,89.63q0-11.25-9.66-11.26L87,79.84a10.94,10.94,0,0,0-2.73,7.34q0,4.91,11.65,14.45Q100.34,94,100.34,89.63Z"/>
        <path d="M258.06,304.2q0,49.56-34.18,112.06Q189.46,480,136.72,507.81q-14.16,7.57-57.13,12.7-35.9,4.4-61,4.39-13.9,0-17.57-1.22L0,522q5.37-1,18.07-2.2,33.69-3.18,70.31-20.28,70.31-33,120.12-100.7,31-42,31-59.4,0-12-10.5-23t-22.46-11q-14.16,0-46.63,14.66-35.64,16.14-35.64,28.36,0,1.21,8.36,9.53a71.68,71.68,0,0,1,15.25,22q8.37,18.81,8.37,45.21,0,7.33-3.72,19.31-4.46,14.43-9.92,14.42l-2.23-2,1.71-14.4q0-9.76-20.26-35.51t-20.27-40.63q0-5.37,7.82-26.36,7.32-20,11.71-27.34,8.05-13.65,47.37-32.45Q207,262,225.34,262q14.16,0,23.93,14.65A48.23,48.23,0,0,1,258.06,304.2Z"/>
        <path d="M431.15,314.7q0,50.3-40.52,112.79Q348.87,491.21,304,506.35q-32.47,11-93.75,11-17.82,0-17.83-4.63,0-2.21,19.29-7.08,28.56-7.08,42.72-12Q298.1,478.52,337,447.39t61.89-70.19q15.85-26.86,15.86-44.44,0-4.87-3.66-15.38-13.67,15.15-31.74,15.14a24,24,0,0,1-14.64-4.88,15.11,15.11,0,0,1-6.6-12.7q0-16.35,19.29-51.27,5.87-10.74,17.09-10.74Q431.16,252.93,431.15,314.7Z"/>
        <path d="M489,68.11q0,18-16.39,39.52l7.47,7.31-8.55,24.16a169.51,169.51,0,0,1-16.11-12.74q-37.86,35.27-57.63,35.26-3.9,0-13.42-2.93,29.78-14.4,62.25-38.08Q437,111.33,437,104.25q0-12.69,13.85-29.67t26-17Q489,57.62,489,68.11ZM469.48,89.63q0-11.25-9.66-11.26l-3.72,1.47a10.94,10.94,0,0,0-2.73,7.34q0,4.91,11.65,14.45Q469.48,94,469.48,89.63Z"/>
        <path d="M627.2,304.2q0,49.56-34.18,112.06Q558.6,480,505.86,507.81q-14.16,7.57-57.13,12.7-35.89,4.4-61,4.39-13.92,0-17.58-1.22l-1-1.71q5.37-1,18.07-2.2,33.69-3.18,70.31-20.28,70.31-33,120.12-100.7,31-42,31-59.4,0-12-10.5-23t-22.46-11q-14.16,0-46.63,14.66-35.64,16.14-35.64,28.36,0,1.21,8.36,9.53A71.68,71.68,0,0,1,517,380q8.37,18.81,8.37,45.21,0,7.33-3.72,19.31-4.45,14.43-9.92,14.42l-2.23-2,1.71-14.4q0-9.76-20.26-35.51T470.7,366.42q0-5.37,7.82-26.36,7.32-20,11.71-27.34,8.07-13.65,47.37-32.45Q576.17,262,594.48,262q14.16,0,23.93,14.65A48.23,48.23,0,0,1,627.2,304.2Z"/>
        <path d="M691.89,159.67q-5.11,16.61-14.16,21l-85.44,42q3.9-15.14,22.94-24.66Z"/>
        <path d="M865.23,373.78l-12.45,46.4Q837.17,432.65,796.39,450q-8.17,36.44-39.07,78-32.22,43.51-64.45,57.45-27.11,11.73-68.11,11.74-15.63,0-46.39-5.19-36.61-5.94-37.84-12.61l2-1.49q7.32.24,23.19,2.93,15.15,2.45,23.44,2.44,16.85,0,49.32-9.52Q709,553,760.74,491.94q18.07-21.24,20.51-37.11-21.24,5.87-28.56,5.86-22.23,0-22.22-14.65,0-15.37,12.45-38.81,13.92-26.13,27.59-26.13,11.94,0,21.35,9.28t9.41,21.24Q842.28,394.29,865.23,373.78Z"/>
        <path d="M881.1,24.41q0,19-15.06,35.4T831.86,76.17q-20.1,0-20.09-17.58,0-19.77,14-38.33Q840.93,0,860,0q8.58,0,15.2,8.06A26.15,26.15,0,0,1,881.1,24.41ZM865.23,40.59q0-5.94-8-12.9t-13.87-6.94q-7.38,0-13.39,6.7t-6,14.13q0,10.67,19.16,10.67Q865.23,52.25,865.23,40.59Z"/>
        <path d="M928.22,220.46q0,68.85-17.33,113.77-21,53.72-71.78,88.87l12.21-45.66q62.25-49.8,62.25-100.1,0-37.59-23.68-91.06-4.59,23.92-13.77,71.53-3.87,20.51-6.52,20.51l-2.17-.73-.49-3.18q0-19.77,10.22-74.21,10.7-58.84,18.48-67.63,13.36,8.3,23.58,40.28Q928.22,200.45,928.22,220.46Z"/>
        <path d="M976.07,13.18q-5.12,16.61-14.16,21l-85.45,42Q880.38,61,899.41,51.51Z"/>
        <path d="M980.47,93.75q0-7.32-8.79-7.32-12.21,0-12.21-3.42,0-6.11,7.33-6.11a11.92,11.92,0,0,1,4.88,1q2.43-1.69,7-10.28t5.25-12.2a15.25,15.25,0,0,0-5.4-1.69q-10.32,0-23.82,17.82T941.16,99.85q0,9.53,9.65,9.28c5.11-.16,7.92.25,8.41,1.22q-3.9,5.37-25.63,13.43L903.8,134c0,2,1.06,2.93,3.18,2.93q20.5,0,44.92-11.47Q980.46,111.82,980.47,93.75Z"/>
        <path d="M1048.15,215.09a524.76,524.76,0,0,0-44.78-103q-15.09,45.41-15.09,136,0,48.82,8,50.29,5.55-2.68,5.55-28.08,0-13.67,6.27-60.54,12.27,23.19,26.52,62.25,16.2,44.68,16.2,63,0,25.64-15.38,50.78-9,14.89-33.45,42.24L980.71,450.2q-12.45,13.43-17.82,24.41c.16,1.3,1,1.95,2.44,1.95s4.87-1,10.23-2.93q57-20.75,75.75-54.93,15.82-28.56,15.83-93.5Q1067.14,275.88,1048.15,215.09Z"/>
      </g>
    </g>
  </g>
</svg>
