<?xml version="1.0" encoding="utf-8"?>
<!-- Generator: Adobe Illustrator 22.1.0, SVG Export Plug-In . SVG Version: 6.00 Build 0)  -->
<svg version="1.1" id="Layer_1" xmlns="http://www.w3.org/2000/svg" xmlns:xlink="http://www.w3.org/1999/xlink" x="0px" y="0px"
	 viewBox="0 0 918.8 672.1" style="enable-background:new 0 0 918.8 672.1;" xml:space="preserve">
<title>EH-Asset 4-layername</title>
<g id="Layer_2_1_">
	<g id="ElMelik">
		<g>
			<path d="M104.6,15.1c0-7-4-10.5-12.2-10.5c-8.1,0-16.8,5.7-26,17c-0.3,0.4-0.6,0.7-0.8,1c2.1,1.3,4,2.9,5.7,4.7
				c0.1-0.2,0.3-0.3,0.4-0.5l3.7-1.5c6.4,0,9.7,3.8,9.7,11.3c0,2.9-1.5,6.9-4.5,12C72.9,42.3,69,37.5,69,34.2c0-2.5,0.8-4.9,2.3-6.9
				c-1.6-1.8-3.6-3.4-5.7-4.7c-8.7,10.9-13,20.4-13,28.6c0,4.7,3.2,10.2,9.6,16.4C40.6,83.4,19.9,96.1,0,105.7
				c6.3,2,10.8,2.9,13.4,2.9c13.2,0,32.4-11.7,57.6-35.3c5.1,4.6,10.5,8.8,16.1,12.7L95.7,62l-7.5-7.3
				C99.2,40.3,104.6,27.1,104.6,15.1z"/>
			<path d="M583.9,0.2L582.7,0l-2.9,0.2c-10.7,7.8-23,22.2-36.9,43.2c-10.4,16.6-20.8,33.2-31,49.8c-28,43.6-54.6,78.6-79.9,105
				c-30,31.4-64.8,58.3-104.3,80.6c-12.9-19.4-24.6-33.2-35.2-41.2c-13.8-10.3-30.9-15.4-51.1-15.4c-33.1,0-66.9,13.3-101.4,39.8
				c-31.9,24.6-55.6,52.9-71.1,85c-12.5,26.1-18.8,54.4-18.8,85c0,29.8,8.1,54,24.4,72.6c17.1,19.4,40.3,29.1,69.6,29.1
				c36.1,0,74.9-16.4,116.5-49.1c19.5-15.3,51.1-45.8,94.7-91.3c31.4-32.7,52.6-49.1,63.7-49.1c4.1,0,6.1,2,6.1,5.9
				c0,8.3-2.2,20.4-6.5,36.4c-4.3,15.9-6.5,28.1-6.5,36.4c0,10.6,1.6,19.9,4.9,28.1c4.4,11.1,11.1,16.6,20.1,16.6
				c8.2,0,19.8-4.9,34.8-14.7l12.5-46.5c-3.6,4.4-8.9,8.5-16.1,12.4c-7.7,4.2-14.1,6.3-19.3,6.3c-10.7,0-16.1-11.9-16.1-35.8
				c0-13.8,0.4-23.1,1.2-28c4.7-28.1,7.1-42.9,7.1-44.4c0-9.6-2.2-14.4-6.6-14.4c-16.9,0-40.4,17.2-70.6,51.7
				c-30.9,35.3-62.3,64.5-94,87.8c-43.1,31.2-81.7,46.8-115.7,46.8c-57.5,0-86.2-25.1-86.2-75.4c0-23.9,7.1-50.2,21.2-78.8
				c15.9-32.4,38.3-57.7,67.2-76s61.2-27.5,97-27.4c23.7,0,46.5,16.8,68.3,50.5c-17.7,10.1-38.4,19.4-62.2,28.1l-1.7,2.9l1.2,1
				c18,0,41.9-6.2,71.7-18.5l8.8,21.7l1.2,0.3c1.3-0.5,2-1.2,2-2.2c0-1.8-2.4-9.2-7.3-22.2c14.7-8,30.1-17.5,46.4-28.6
				c28.7-19.4,58.7-50.5,90-93.5C490.2,145.9,514,109,543.6,60c-2.4,9.1-3.6,18.4-3.7,27.8c0,17.1,4.9,37.2,14.7,60.3l3.9-6.6
				c-3.5-16.3-5.2-32.9-5.1-49.6C553.4,56.7,563.5,26.1,583.9,0.2z"/>
			<path d="M183,380l3.2,1.2c5.4-8.3,23-17.6,52.9-28l13.7-15.4l-2.4-2.7c-14.5,6.5-26.7,9.8-36.8,9.8c-9.4,0-14.1-2.4-14.1-7.3
				c0-2.3,1.4-4.5,4.1-6.6c2.6-2,5.7-3.2,9-3.2c3.1,0,6.2,2.4,9.3,7.3l11-10.3c0.7-1.2,1-2.5,1-3.9c0-5.7-2.4-8.5-7.1-8.5
				c-7.5,0-16,3.7-25.4,11.1c-9.4,7.4-14.4,14.7-15.1,21.8c3.8,4.1,9.8,7.7,18.1,11C191.3,364.2,184.2,372.1,183,380z"/>
			<path d="M540.9,609.1c-3.4,11.1-8.1,18.1-14.2,21l-85.5,42c2.6-10.1,10.2-18.3,23-24.7L540.9,609.1z"/>
			<path d="M587.5,406.5l-12.5,46.2c-10.4,8.1-21.4,12.1-33,12.1c-17.6,0-26.1-16-25.6-48l0.3-23.9c-12.3,27.3-28.5,48.2-48.6,62.5
				l12.2-45.5c16.2-13.3,26.4-24.1,30.7-32.2c5.1-9.3,7.6-23.5,7.6-42.7c0-8.3-0.4-20.6-1.2-37c-0.8-16.4-1.2-28.7-1.2-37
				c0-4.2,1.6-11.3,4.8-21.1c3.2-9.8,6.1-16,8.7-18.4l2.2,1c1.6,28.2,2.4,84.8,2.4,169.9c0,19.5,6.8,29.3,20.3,29.3
				C564.8,421.6,575.9,416.6,587.5,406.5z"/>
			<path d="M644.2,131.1c-3.4,11.1-8.1,18.1-14.2,21l-85.5,42c2.6-10.1,10.3-18.3,23-24.7L644.2,131.1z"/>
			<path d="M706,407l-12.5,46.4c-5.8,3.7-12.5,5.6-19.3,5.6c-11.6,0-20.7-5.1-27.3-15.3c-13.7,16.9-22.2,25.4-25.6,25.4
				c-3.7,0-9.3-4.3-16.6-12.9c-6.8-8-10.9-14.3-12.2-18.8c-3.7,5-10.7,11-21,18l12.2-45.4c7.5-7,18.7-17.4,33.7-31.3
				c1.6,0,9.7,6.1,24.2,18.3c14.5,12.2,26.8,18.3,37.1,18.3C688.4,415.5,698,412.6,706,407z"/>
			<path d="M727,40.5c-4.4-5.4-9.5-8.1-15.2-8.1c-12.7,0-24.2,6.8-34.3,20.3c-0.9,1.2-1.7,2.3-2.5,3.5c1.9,1.6,3.9,3.1,5.9,4.6
				c0.3-0.3,0.5-0.7,0.8-1c4-4.5,8.5-6.7,13.4-6.7c3.9,0,8.5,2.4,13.9,7c5.3,4.6,8,8.9,8,12.9c0,7.8-7.4,11.6-22.1,11.6
				c-12.8,0-19.2-3.5-19.2-10.7c0-4.6,1.7-9,5.2-13.1c-2-1.5-3.9-3.1-5.9-4.6c-7.7,11.3-11.5,22.9-11.5,34.8
				c0,11.7,6.7,17.6,20.1,17.6c12.7,0,24.1-5.4,34.2-16.4s15.1-22.7,15.1-35.4C732.8,50.9,730.7,45.2,727,40.5z"/>
			<path d="M779.9,252.9c0,45.9-5.8,83.8-17.3,113.8c-14,35.8-37.9,65.4-71.8,88.9l12.2-45.7c41.5-33.2,62.3-66.6,62.3-100.1
				c0-25.1-7.9-55.4-23.7-91.1c-3.1,15.9-7.7,39.8-13.8,71.5c-2.6,13.7-4.8,20.5-6.5,20.5l-2.2-0.7l-0.5-3.2
				c0-13.2,3.4-37.9,10.2-74.2c7.1-39.2,13.3-61.8,18.5-67.6c8.9,5.5,16.8,19,23.6,40.3C776.9,223.7,779.9,239.6,779.9,252.9z"/>
			<path d="M827.8,45.7c-3.4,11.1-8.1,18.1-14.2,21l-85.5,42c2.6-10.1,10.3-18.3,23-24.7L827.8,45.7z"/>
			<path d="M832.2,126.2c0-4.9-2.9-7.3-8.8-7.3c-8.1,0-12.2-1.1-12.2-3.4c0-4.1,2.4-6.1,7.3-6.1c1.7,0,3.3,0.3,4.9,1
				c1.6-1.1,4-4.6,7-10.3c3-5.7,4.8-9.8,5.3-12.2c-1.7-0.9-3.5-1.5-5.4-1.7c-6.9,0-14.8,5.9-23.8,17.8s-13.5,21.3-13.5,28.3
				c0,6.3,3.2,9.4,9.7,9.3c5.1-0.2,7.9,0.3,8.4,1.2c-2.6,3.6-11.1,8.1-25.6,13.4l-29.8,10.2c0,2,1.1,2.9,3.2,2.9
				c13.7,0,28.6-3.8,44.9-11.5C822.6,148.8,832.2,138.3,832.2,126.2z"/>
			<path d="M899.9,247.6c-11.2-35.8-26.2-70.4-44.8-103c-10.1,30.3-15.1,75.6-15.1,136c0,32.6,2.7,49.3,8,50.3
				c3.7-1.8,5.5-11.2,5.5-28.1c0-9.1,2.1-29.3,6.3-60.5c8.2,15.5,17,36.2,26.5,62.3c10.8,29.8,16.2,50.8,16.2,63
				c0,17.1-5.1,34-15.4,50.8c-6,9.9-17.2,24-33.5,42.2l-21.2,22.2c-8.3,8.9-14.3,17.1-17.9,24.4c0.2,1.3,1,2,2.4,2s4.9-1,10.2-2.9
				c38-13.8,63.3-32.1,75.8-54.9c10.6-19,15.8-50.2,15.8-93.5C918.8,324.8,912.5,288.1,899.9,247.6z"/>
		</g>
	</g>
</g>
</svg>
