<?xml version="1.0" encoding="utf-8"?>
<!-- Generator: Adobe Illustrator 22.1.0, SVG Export Plug-In . SVG Version: 6.00 Build 0)  -->
<svg version="1.1" id="Layer_1" xmlns="http://www.w3.org/2000/svg" xmlns:xlink="http://www.w3.org/1999/xlink" x="0px" y="0px"
	 viewBox="0 0 841.9 590.8" style="enable-background:new 0 0 841.9 590.8;" xml:space="preserve">
<title>EH-Asset 19-layername</title>
<g id="Layer_2_1_">
	<g id="ElFetah">
		<g>
			<path d="M104.6,88.4c0-7-4-10.5-12.2-10.5c-8,0-16.5,5.5-25.6,16.5c1.7,2,2.9,4.3,4.1,6.7c0.2-0.3,0.5-0.7,0.8-1l3.7-1.5
				c6.4,0,9.7,3.8,9.7,11.3c0,2.9-1.5,6.9-4.5,12c-7.8-6.4-11.7-11.2-11.7-14.4c0-2.3,0.7-4.5,2-6.4c-1.2-2.4-2.4-4.7-4.1-6.7
				c-0.1,0.2-0.3,0.3-0.4,0.5c-9.2,11.3-13.8,21.2-13.8,29.7c0,4.7,3.2,10.2,9.6,16.4C40.6,156.7,19.9,169.4,0,179
				c6.3,1.9,10.8,2.9,13.4,2.9c13.2,0,32.4-11.8,57.6-35.3c5.1,4.6,10.5,8.8,16.1,12.7l8.5-24.1l-7.5-7.3
				C99.2,113.6,104.6,100.4,104.6,88.4z"/>
			<path d="M310.7,158c0,3.6-3,13.5-9,29.8s-10.4,26.5-13.2,30.5c-14.5,20.5-35.9,41.7-64.2,63.5c-24.6,18.1-49.1,36.1-73.4,54.2
				c-26.8,21.5-49.6,44.3-68.5,68.4c-24.7,31.8-37,59.8-37,84c0,15.1,7.5,30,22.6,44.8c12.3,12.1,26.9,21.7,42.8,28.3
				c16,6.7,37.9,12,65.8,16.1c24.6,3.8,46.8,5.6,66.7,5.6c10.4,0,23.1-1.4,38.1-4.2l1.2,0.8l-1.7,2c-12.2,6-36.1,9-71.8,9
				c-40.9,0-76.1-6.8-105.7-20.5c-24.1-11.1-41.2-22.7-51.5-34.7c-13.2-15.2-19.8-34.9-19.8-59.4c0-24.9,12-55.2,36.1-90.7
				c20.7-30.3,43-55.2,66.9-74.8c8.5-6.9,25-19.8,49.6-38.9c-0.2-2.8-1.3-6.8-3.4-12.2c-2.1-5.4-3.2-9.5-3.2-12.5
				c0-11.4,7.1-29.1,21.2-53c2.9-5.1,18.8-14.3,47.7-27.6c28.9-13.4,47.2-20,54.8-20.1C307.8,150.9,310.7,154.7,310.7,158z
				 M288.7,187c-14.2,2.4-30.2,7-48.1,13.7c-20.5,7.8-34.8,15.6-43,23.4c4.5,10.3,6.7,17.3,6.7,21c0.1,5.8-1.4,11.5-4.2,16.6
				c26.9-17.9,42.9-28.9,48.1-33C265.7,215.2,279.2,201.3,288.7,187L288.7,187z"/>
			<path d="M423.7,394.5l-12.5,46.8c-13,8.8-26.2,13.3-39.5,13.3c-18.4,0-31-10.3-37.8-31c-3.7-11.6-5.9-29.5-6.6-53.8l-1.8-73.7
				c-1.4-55.3-2.1-83.5-2.1-84.5c0-2.1,2-9,5.9-20.8s6.6-18.6,8.1-20.5h1.4c0.5,28.2,1.5,70.2,2.9,126.2c0.2,15.6,1.9,38.7,5.1,69.3
				c6.5,31.4,19,47.1,37.4,47.1C397.9,413.1,411,406.9,423.7,394.5z"/>
			<path d="M488.2,0l-69.6,24.4c-10.9,3.7-19.9,11.2-27.1,22.5l79.8-28.3C477.8,16.3,483.5,10.1,488.2,0z"/>
			<path d="M450.6,55.7c-6.2,0-9.3-5.9-9.3-17.8l-5.9,1.5c-12.4,21.6-22.4,32.5-30,32.5c-5.7,0-8.5-3.8-8.5-11.5l0.7-7.6l-8.5,4.6
				c-4.6,12.4-6.8,20.8-6.8,25.3c0,9.2,4.7,13.8,14.2,13.8c10.9,0,21.3-7.1,31.1-21.2c5.9,4.2,10.7,6.3,14.4,6.3
				c11.8,0,21.5-7.1,29.1-21.2c5.7-10.4,9.4-22.6,11-36.6l-7.6,2.2C468,45.7,460,55.7,450.6,55.7z"/>
			<path d="M455,217.8c-20.5,13.2-38.9,23.1-55.2,29.8c-10.6,20.5-15.7,33.8-15.4,39.8c8.6-4.6,15-8,19.2-10.5
				c21.3-11.9,33-19,35.3-21.2C445.4,249.4,450.8,236.8,455,217.8z"/>
			<path d="M474.1,412.4c-11.9,6.2-21.7,9.3-29.5,9.3c-6.7,0-11.4-0.9-14.2-2.7c12.7-17.4,19-32.1,19-44c0-2.8-0.2-5.6-0.7-8.3
				c-9.1,10.4-18,20.7-26.8,30.8l-12.2,45.3l6.6-5.2c6.5,12,16.7,18,30.7,18c13.2,0,26.6-5,40.3-15l12.5-46.6
				C493.2,400.5,484.7,406.7,474.1,412.4z"/>
			<path d="M556.8,33.5c-3.4,11.1-8.1,18.1-14.2,21l-85.5,42c2.6-10.1,10.3-18.3,23-24.7L556.8,33.5z"/>
			<path d="M572,413.8c-20.2,0-33.1-4.2-38.8-12.5c22.4-25.7,33.5-46.5,33.5-62.3c0-20.7-4.7-31-14.1-31c-4.5,0-11.3,3.6-20.4,10.8
				c-9.1,7.2-17.5,17.6-25.3,31.3c-8.3,14.7-12.4,27.2-12.4,37.7c0,3.1,0.3,6.2,1,9.3l-0.9,3.5c9.8-3.5,18.5-9.6,24.6-18
				c-0.1,0-0.1,0.1-0.2,0.1c-5.6-6.5-8.4-11.7-8.4-15.6c0-2.9,3.7-7.6,11.1-14.1c7.4-6.5,12.6-9.7,15.7-9.7c8.5,0,12.8,3.2,12.8,9.5
				c0,9.2-10.3,19.2-31,29.8c-6.1,8.4-14.8,14.5-24.6,18L483.1,444c9.7-6.9,19-14.4,27.8-22.3c9.9,11.6,17.7,19.6,23.4,23.8
				c9,6.7,20,10.4,31.3,10.3c18.4,0.1,36.4-5.3,51.8-15.4l12.7-47.2C612.1,406.9,592.8,413.8,572,413.8z"/>
			<path d="M566.8,232.7c0-2.4-3.3-5.7-9.8-9.8c-2.9-1.8-7.1-4.1-12.7-6.8l-22.2,34.4l21.7,15.1
				C550.7,260.4,558.4,249.4,566.8,232.7z"/>
			<path d="M650.1,28.3c-4.4-5.4-9.5-8.1-15.2-8.1c-12.4,0-23.5,6.4-33.5,19.2c2.2,1.7,4.4,3.5,6.5,5.3c3.2-2.5,6.6-3.8,10.3-3.8
				c3.9,0,8.5,2.4,13.8,7c5.3,4.6,8,8.9,8,12.9c0,7.8-7.4,11.6-22.1,11.6c-12.8,0-19.2-3.6-19.2-10.7c0-5,2-9.7,6-14.1
				c1-1.1,2-2.1,3.1-2.9c-2.1-1.8-4.3-3.6-6.5-5.3c-0.3,0.4-0.6,0.7-0.8,1.1c-9.3,12.4-14,25.1-14,38.3c0,11.7,6.7,17.6,20.1,17.6
				c12.7,0,24.1-5.4,34.2-16.4c10-10.9,15.1-22.7,15.1-35.4C655.9,38.7,653.8,32.9,650.1,28.3z"/>
			<path d="M703,240.7c0,45.9-5.8,83.8-17.3,113.8c-14,35.8-37.9,65.4-71.8,88.9l12.2-45.6c41.5-33.2,62.3-66.6,62.3-100.1
				c0-25.1-7.9-55.4-23.7-91.1c-3.1,16-7.7,39.8-13.8,71.5c-2.6,13.7-4.7,20.5-6.5,20.5l-2.2-0.7l-0.5-3.2
				c0-13.2,3.4-37.9,10.2-74.2c7.1-39.2,13.3-61.8,18.5-67.6c8.9,5.5,16.8,19,23.6,40.3C700,211.5,703,227.4,703,240.7z"/>
			<path d="M750.9,33.5c-3.4,11.1-8.1,18.1-14.2,21l-85.5,42c2.6-10.1,10.3-18.3,23-24.7L750.9,33.5z"/>
			<path d="M755.3,114c0-4.9-2.9-7.3-8.8-7.3c-8.1,0-12.2-1.1-12.2-3.4c0-4.1,2.4-6.1,7.3-6.1c1.7,0,3.3,0.3,4.9,1
				c1.6-1.1,4-4.5,7-10.3c3-5.7,4.8-9.8,5.3-12.2c-1.7-0.9-3.5-1.5-5.4-1.7c-6.9,0-14.8,5.9-23.9,17.8S716,113.1,716,120.1
				c0,6.3,3.2,9.4,9.7,9.3c5.1-0.2,7.9,0.3,8.4,1.2c-2.6,3.6-11.2,8-25.7,13.4l-29.8,10.3c0,1.9,1,2.9,3.2,2.9
				c13.7,0,28.6-3.8,44.9-11.5C745.8,136.6,755.3,126.1,755.3,114z"/>
			<path d="M823,235.4c-11.2-35.8-26.2-70.4-44.8-103c-10.1,30.3-15.1,75.6-15.1,136c0,32.6,2.7,49.3,8,50.3
				c3.7-1.8,5.5-11.1,5.5-28.1c0-9.1,2.1-29.3,6.3-60.6c8.2,15.5,17,36.2,26.5,62.3c10.8,29.8,16.2,50.8,16.2,63
				c0,17.1-5.1,34-15.4,50.8c-6,9.9-17.1,24-33.4,42.2l-21.2,22.2c-8.3,9-14.2,17.1-17.8,24.4c0.1,1.2,1,2.1,2.2,2
				c0.1,0,0.2,0,0.2,0c1.5,0,4.9-1,10.2-2.9c38-13.8,63.3-32.2,75.8-54.9c10.5-19,15.8-50.2,15.8-93.5
				C842,312.6,835.6,275.9,823,235.4z"/>
		</g>
	</g>
</g>
</svg>
