<?xml version="1.0" encoding="utf-8"?>
<!-- Generator: Adobe Illustrator 22.1.0, SVG Export Plug-In . SVG Version: 6.00 Build 0)  -->
<svg version="1.1" id="Layer_1" xmlns="http://www.w3.org/2000/svg" xmlns:xlink="http://www.w3.org/1999/xlink" x="0px" y="0px"
	 viewBox="0 0 849.4 684.3" style="enable-background:new 0 0 849.4 684.3;" xml:space="preserve">
<title>EH-Asset 51-layername</title>
<g id="Layer_2_1_">
	<g id="EsShehid">
		<g>
			<path d="M153.3,88.4c0-7-4-10.5-12.2-10.5c-8.1,0-16.8,5.7-26,17c-0.3,0.3-0.5,0.6-0.7,0.9c2.2,1.2,4.2,2.6,5.8,4.5
				c0-0.1,0.1-0.1,0.1-0.2l3.7-1.5c6.4,0,9.7,3.8,9.7,11.3c0,2.9-1.5,6.9-4.5,12c-7.8-6.4-11.7-11.2-11.7-14.4
				c0-2.6,0.9-5.2,2.6-7.2c-1.6-1.9-3.6-3.3-5.8-4.5c-8.7,10.9-13.1,20.5-13.1,28.7c0,4.7,3.2,10.2,9.6,16.4
				c-21.6,15.8-42.4,28.5-62.3,38.1c6.4,1.9,10.8,2.9,13.4,2.9c13.2,0,32.4-11.8,57.6-35.3c5.1,4.6,10.5,8.8,16.1,12.7l8.5-24.1
				l-7.5-7.3C147.9,113.6,153.3,100.4,153.3,88.4z"/>
			<path d="M314.2,393.8l-12.5,46.5c-8.8,6.2-18.2,11.5-28.1,16c-13.2,6.2-23.1,9.3-29.8,9.3c-18.1,0-27.1-13.6-27.1-40.8
				c0.1-5.3,0.6-10.6,1.5-15.9h-1.9c-1,0-3.3,2.2-7,6.7s-10.7,16.4-21.1,35.8c-24.6,45.7-47.4,73.8-68.6,84.2
				c-12.4,6-23.2,9.8-32.5,11.5c-7,1.3-18.6,2-34.7,2c-9.2-0.2-18.4-0.9-27.6-2c-14.1-1.7-22.4-3.6-24.9-5.6l0.7-1.5l3.4-2
				c24.6,0,44.6-2.5,60.1-7.6s33-14.9,52.7-29.5c21.2-15.6,36.1-29.9,44.9-42.7c11.2-18.2,22.5-36.5,33.7-54.9
				c16.6-25.7,29.6-40.6,38.8-44.7l2.4,2.2l0.5,2.4c-0.5,1.6-1.2,5-2.2,10.3c-1.6,8.4-2.5,16.9-2.4,25.4c0,17.4,7.2,26.1,21.7,26.1
				C269.2,425.1,289.1,414.6,314.2,393.8z"/>
			<path d="M444.8,621.3c-3.4,11.1-8.1,18.1-14.2,21l-85.4,42c2.6-10.1,10.3-18.3,23-24.7L444.8,621.3z"/>
			<path d="M484.1,394.3l-12.5,46.4c-4.1,2.8-11.4,7.2-22,13.2c-18.2,10.4-33.5,25.3-44.4,43.2c-11.4,18.6-17.1,38.3-17.1,59.3
				c-3.5,6.3-7.5,12.1-12.1,17.6c-10.6-15.5-15.9-35.6-15.9-60.5c0-19.5,8.2-58.1,24.7-115.7c8.5-9.9,17.4-20.2,26.9-30.8
				c0.5,2.7,0.7,5.5,0.7,8.3c0,8.6-3,18.9-9,30.8c-5.4,10.9-11.5,19.8-18.3,26.6c-6.2,26.5-9.3,45.2-9.3,55.9
				c0,11.1,1.5,18.4,4.6,22c4-14.7,11.8-30.9,23.4-48.6c10.4-16,22.5-28.9,36.3-38.9L484.1,394.3z"/>
			<path d="M710.5,240.7c0,45.9-5.8,83.8-17.3,113.8c-14,35.8-37.9,65.4-71.8,88.9l12.2-45.6c41.5-33.2,62.3-66.6,62.3-100.1
				c0-25.1-7.9-55.4-23.7-91.1c-3.1,16-7.7,39.8-13.8,71.5c-2.6,13.7-4.8,20.5-6.5,20.5l-2.2-0.7l-0.5-3.2
				c0-13.2,3.4-37.9,10.2-74.2c7.1-39.2,13.3-61.8,18.5-67.6c8.9,5.5,16.8,19,23.6,40.3C707.5,211.5,710.5,227.4,710.5,240.7z"/>
			<path d="M758.3,33.5c-3.4,11.1-8.1,18.1-14.2,21l-85.5,42c2.6-10.1,10.3-18.3,23-24.7L758.3,33.5z"/>
			<path d="M291.8,506.8c-10.6,21.5-15.8,34.7-15.6,39.8c9.6-5,16.7-8.9,21.4-11.7c19.9-11.4,31.2-18.4,33.8-21
				c6-6,11.1-18.2,15.3-36.6c-19.3,11.7-31.4,18.6-36.5,20.8C300.8,502.1,294.7,505.1,291.8,506.8z"/>
			<path d="M332.6,421.6c-6.7,0-11.4-0.9-14.2-2.7c12.6-17.4,18.9-32.1,18.9-44c0-2.8-0.2-5.6-0.7-8.3
				c-9.1,10.4-17.9,20.7-26.7,30.8l-12.1,45.3l6.5-5.2c6.5,12,16.7,18,30.7,18c13.2,0,26.6-5,40.3-15l12.4-46.6
				c-6.5,6.5-15.1,12.6-25.6,18.3C350.3,418.5,340.4,421.6,332.6,421.6z"/>
			<path d="M486,75.3c5.9,4.2,10.7,6.3,14.4,6.3c11.8,0,21.5-7.1,29.1-21.2c5.7-10.4,9.4-22.6,11-36.6l-7.6,2.2
				c-6.5,19.9-14.5,29.8-24,29.8c-6.2,0-9.3-5.9-9.3-17.8l-5.9,1.5c-12.4,21.6-22.4,32.5-30,32.5c-5.7,0-8.5-3.8-8.5-11.5l0.7-7.6
				l-8.5,4.6c-4.6,12.4-6.8,20.8-6.8,25.3c0,9.2,4.7,13.8,14.2,13.8C465.8,96.4,476.2,89.4,486,75.3z"/>
			<path d="M546.6,0L477,24.4c-10.9,3.7-19.9,11.2-27,22.5l79.8-28.3C536.3,16.3,541.9,10.1,546.6,0z"/>
			<path d="M546.6,391.4c10.9-6.8,20.4-19.4,28.4-37.8c7.3-16.9,11-32.4,11-46.6v-4.9l-1.2-1.5c-0.7,0.3-3.9,6.7-9.8,19
				c-6.4,13-12.5,21.7-18.6,26.1c-5.4,3.9-8.9,5.9-10.5,5.9c1-6.3,1.5-10.1,1.5-11.2l-0.5-11.2l-1.5-1.5c-2.9,2.6-4.7,5.1-5.4,7.6
				c-3.3,10.7-5.6,17.5-7.1,20.2c-2.5,4.4-7.2,9.9-14.2,16.6c-8.2,7.8-14.1,11.7-17.7,11.7c1-6.8,1.6-13.6,2-20.5l-1.9-0.7
				c-2.6,2.6-5.6,8.5-9.2,17.9c-3.3,8.3-7,13.8-11.2,16.4l-12.5,46c5.4-3.9,10.5-8.2,15.4-12.8c8.4,1,17.7-2.4,27.7-10.2
				c8.1-6.4,14.9-14.2,20.2-23.1l5.3-1c-0.5,3.4-0.7,6.8-0.7,10.3c0,13.5,3.7,24.8,11.2,34c8.1,9.8,19,14.6,32.7,14.6
				c17.6,0,32.3-4.4,44.2-13.2l12.7-47.1c-17.9,15.8-36.7,23.8-56.4,23.8C559.6,418,548.3,409.1,546.6,391.4z"/>
			<path d="M578.6,190.7c3.1,0,6.2,1.1,8.6,3.2l1,3.9l2.7,3.2c3.6,0,8.5-4.4,14.9-13.3c6.4-8.8,9.5-15.3,9.6-19.4
				c0-10.1-5-15.2-14.9-15.2c-15.3,0-33.1,13-53.2,39.1c-19.4,24.9-29.4,45.7-30,62.4C540.9,212,561.4,190.7,578.6,190.7z"/>
			<path d="M830.4,235.4c-11.2-35.8-26.2-70.4-44.8-103c-10.1,30.3-15.1,75.6-15.1,136c0,32.6,2.7,49.3,8,50.3
				c3.7-1.8,5.5-11.1,5.5-28.1c0-9.1,2.1-29.3,6.3-60.6c8.2,15.5,17,36.2,26.5,62.3c10.8,29.8,16.2,50.8,16.2,63
				c0,17.1-5.1,34-15.4,50.8c-6,9.9-17.1,24-33.5,42.2L763,470.5c-8.3,9-14.2,17.1-17.8,24.4c0,1.2,1,2.1,2.2,2c0.1,0,0.2,0,0.2,0
				c1.5,0,4.9-1,10.2-2.9c38-13.8,63.3-32.2,75.8-54.9c10.6-19,15.8-50.2,15.8-93.5C849.4,312.6,843,275.9,830.4,235.4z"/>
			<path d="M762.7,114c0-4.9-2.9-7.3-8.8-7.3c-8.1,0-12.2-1.1-12.2-3.4c0-4.1,2.4-6.1,7.3-6.1c1.7,0,3.3,0.3,4.9,1
				c1.6-1.1,4-4.5,7-10.3c3-5.7,4.8-9.8,5.3-12.2c-1.7-0.9-3.5-1.5-5.4-1.7c-6.9,0-14.8,5.9-23.8,17.8s-13.5,21.3-13.5,28.3
				c0,6.3,3.2,9.4,9.7,9.3c5.1-0.2,7.9,0.3,8.4,1.2c-2.6,3.6-11.2,8-25.7,13.4L686,154.3c0,1.9,1.1,2.9,3.2,2.9
				c13.7,0,28.6-3.8,44.9-11.5C753.2,136.6,762.7,126.1,762.7,114z"/>
		</g>
	</g>
</g>
</svg>
