<?xml version="1.0" encoding="utf-8"?>
<!-- Generator: Adobe Illustrator 22.1.0, SVG Export Plug-In . SVG Version: 6.00 Build 0)  -->
<svg version="1.1" id="Layer_1" xmlns="http://www.w3.org/2000/svg" xmlns:xlink="http://www.w3.org/1999/xlink" x="0px" y="0px"
	 viewBox="0 0 686.5 652.3" style="enable-background:new 0 0 686.5 652.3;" xml:space="preserve">
<title>EH-Asset 52-layername</title>
<g id="Layer_2_1_">
	<g id="ElHaqq">
		<g>
			<path d="M266.6,436.8l-12.4,46.1c-8.2,5.9-17.1,10.7-26.6,14.2c-1.5,25.6-15.6,57.2-42.2,94.9c-28.3,40.3-54.2,60.4-77.6,60.4
				c-30.3,0-45.4-23.1-45.4-69.2c0-18.1,2.3-34.3,6.8-48.7c2.6-7.8,3.9-13.3,3.9-16.4c0-3.9-2.4-5.9-7.3-5.9
				c-7.2,0-16.6,6.4-28.3,19.1c-9.8,10.5-17,20.3-21.7,29.4l-2,1.5l-1.9-1.7c1.4-11.9,4.2-23.5,8.5-34.6c0.3-1,4.5-7.1,12.5-18.5
				c15.8-22.8,30.1-34.1,43-34.1c9.2,0,13.9,5.7,13.9,17.1c0,9-2.4,22.1-7.1,39.6c-4.7,17.4-7,30.7-6.8,39.8
				c0,24.1,12.3,36.1,36.9,36.1c20.3,0,40.4-11.4,60.1-34.3c17.3-20.1,28.7-41.2,34.4-63.4c-19,7.5-31.1,11.2-36.1,11.2
				c-3.3,0-6.5-1.3-8.9-3.7c-2.5-2.1-4-5.2-4-8.5c0-33.5,9-55,27-64.4c1.9-0.2,3.6-0.3,5.1-0.3c9.9,0,20,7.2,30.2,21.7
				C232.4,460,247.9,450.9,266.6,436.8z"/>
			<path d="M325,161.6c-3.4,11.1-8.1,18.1-14.2,21l-85.4,42c2.6-10.1,10.3-18.3,22.9-24.7L325,161.6z"/>
			<path d="M289.1,419.4c-0.9,0.7-1.8,1.5-2.7,2.3C287.4,421,288.3,420.2,289.1,419.4z"/>
			<path d="M406.2,459.5c-12.7,0-23.4-3.6-32-10.7c-9.3-7.7-13.9-17.7-13.9-30.3c0-6.6,0.6-13.3,1.7-19.8
				c17.4-15.5,42.6-26.5,75.4-33.2c7.5-10.6,12.7-23.7,15.6-39.3c-10.1,4.6-21.1,6.9-32.2,6.8c-7.3,0-17.9-2.1-31.9-6.2
				c-13.9-4.1-24.5-6.2-31.6-6.2c-27.4,0-47.8,12.4-61.2,37.1c-6.5,12-13.3,34.4-20.7,67.4c3.3-0.4,6.5-1.2,9.2-2.5
				c6.6-41.4,24.7-62.2,54.4-62.2c5.2,0,14.6,1.6,28.3,4.9c-13.5,6.2-27.9,14.9-43.2,26.2c-6.6,4.8-18.3,14.1-35.1,27.9
				c-0.8,0.9-1.7,1.6-2.7,2.3c-0.6,0.5-1.1,0.9-1.7,1.4c0-0.2,0.1-0.3,0.1-0.5c-2.7,1.3-5.9,2.1-9.2,2.5c-0.4,2-0.9,4-1.3,6l-9,8.5
				l-12.5,45.9c7.8-5.8,13.7-10.3,17.6-13.4l-2,30.3v30.5l1.2,1.2l1.2-0.7l2.2-4.2c-0.7-17.6,1.5-39.2,6.5-64.9
				c24.6-21.5,47.8-40.5,69.3-57c-2.9,13-4.4,23.7-4.4,32c0,17.4,5.1,32.1,15.3,44.1c10.7,12.7,24.7,19,42,19
				c19.9,0,39.8-6.2,59.8-18.5l12.5-46.5C455.4,452.1,432.7,459.5,406.2,459.5z"/>
			<path d="M494.6,71c-4.4-5.3-9.5-8-15.2-8c-12.7,0-24.2,6.8-34.3,20.3c-1,1.4-2,2.7-2.9,4.1c2.3,1.1,4.5,2.3,6.7,3.6
				c0.1-0.2,0.3-0.3,0.4-0.5c4-4.5,8.5-6.7,13.4-6.7c3.9,0,8.5,2.3,13.9,6.9c5.3,4.6,8,8.9,8,12.9c0,7.8-7.4,11.6-22.1,11.6
				c-12.8,0-19.2-3.5-19.2-10.7c0-4.8,1.9-9.3,5.6-13.7c-2.2-1.3-4.4-2.4-6.7-3.6c-7.4,11.1-11.1,22.5-11.1,34.3
				c0,11.7,6.7,17.6,20.1,17.6c12.7,0,24.1-5.4,34.2-16.4s15.1-22.7,15.1-35.4C500.5,81.4,498.4,75.6,494.6,71z"/>
			<path d="M547.6,283.5c0,45.9-5.8,83.8-17.3,113.8c-14,35.8-37.9,65.4-71.8,88.9l12.2-45.6c41.5-33.2,62.3-66.6,62.3-100.1
				c0-25.1-7.9-55.4-23.7-91.1c-3.1,16-7.6,39.8-13.8,71.5c-2.6,13.7-4.8,20.5-6.5,20.5l-2.2-0.7l-0.5-3.2
				c0-13.2,3.4-37.9,10.2-74.2c7.1-39.2,13.3-61.8,18.5-67.6c8.9,5.5,16.8,19,23.6,40.3C544.6,254.2,547.6,270.1,547.6,283.5z"/>
			<path d="M595.5,76.2c-3.4,11.1-8.1,18.1-14.2,21l-85.5,42c2.6-10.1,10.2-18.3,23-24.7L595.5,76.2z"/>
			<path d="M108.2,43.4l-7.3-5.4c9.8-10.3,14.7-17.5,14.7-21.6c0-4.1-1.5-8-4-11.2c-2.7-3.5-5.9-5.3-9.6-5.3C95,0,88.1,2.7,81.1,8.2
				c1.6,1.2,3.1,2.6,4.4,4c1.3-0.9,3-1.4,5.2-1.4c5.1,2,7.7,4.9,7.7,8.8c0,3.7-1.8,8.3-5.3,13.6c-7.1-5.5-10.6-10-10.6-13.4
				c0-3.6,1-6.2,3-7.6c-1.4-1.5-2.9-2.8-4.4-4c-1.5,1.2-3.1,2.5-4.7,4c-8.6,8.1-12.9,16.2-12.9,24.4l1,5.9c1.9,3,4,5.8,6.4,8.3
				c-19.4,11.4-38.5,19.4-57.4,24c5.5,3.3,10.4,4.9,14.4,4.9c10.4,0,27.7-8,51.9-23.9c10.4,4.6,18.8,6.9,25,7.1
				c2.6-8.3,3.8-13.6,3.7-15.7L108.2,43.4z"/>
			<path d="M67.6,100c-6.3,0-9.3-3.8-9-11.4l0.3-4.8l-6.3,1.4C40.5,104.4,30.7,114,23.2,114c-5.2,0-7.8-3-7.8-9l1.7-10.9L12,94.6
				C4,105.5,0,115.3,0,124l1.7,8.6c3.4,4.4,7.5,6.6,12.2,6.6c12.7,0,22.8-6.6,30.5-19.7c3.9,4.2,7.1,6.2,9.7,6.2
				c21.6,0,36.9-17.5,46-52.5L94,74.7C85.4,91.6,76.6,100,67.6,100z"/>
			<path d="M667.5,278.1c-11.2-35.8-26.2-70.4-44.8-103c-10.1,30.3-15.1,75.6-15.1,136c0,32.5,2.7,49.3,8,50.3
				c3.7-1.8,5.5-11.1,5.5-28.1c0-9.1,2.1-29.3,6.3-60.5c8.1,15.4,17,36.2,26.5,62.3c10.8,29.8,16.2,50.8,16.2,63
				c0,17.1-5.1,34-15.4,50.8c-6,9.9-17.2,24-33.5,42.2l-21.3,22.2c-8.3,9-14.2,17.1-17.8,24.4c0.1,1.2,1.1,2,2.2,2
				c0.1,0,0.1,0,0.2,0c1.5,0,4.9-1,10.2-2.9c38-13.8,63.3-32.1,75.8-54.9c10.5-19,15.8-50.2,15.8-93.5
				C686.5,355.3,680.2,318.6,667.5,278.1z"/>
			<path d="M599.8,156.7c0-4.9-2.9-7.3-8.8-7.3c-8.1,0-12.2-1.1-12.2-3.4c0-4.1,2.4-6.1,7.3-6.1c1.7,0,3.3,0.3,4.9,1
				c1.6-1.1,4-4.6,7-10.3c3-5.7,4.8-9.8,5.3-12.2c-1.7-0.9-3.5-1.5-5.4-1.7c-6.9,0-14.8,5.9-23.8,17.8s-13.5,21.3-13.5,28.3
				c0,6.4,3.2,9.4,9.7,9.3c5.1-0.2,7.9,0.2,8.4,1.2c-2.6,3.6-11.2,8.1-25.6,13.4L523.2,197c0,1.9,1.1,2.9,3.2,2.9
				c13.7,0,28.7-3.8,44.9-11.5C590.3,179.4,599.8,168.8,599.8,156.7z"/>
		</g>
	</g>
</g>
</svg>
