<?xml version="1.0" encoding="utf-8"?>
<!-- Generator: Adobe Illustrator 22.1.0, SVG Export Plug-In . SVG Version: 6.00 Build 0)  -->
<svg version="1.1" id="Layer_1" xmlns="http://www.w3.org/2000/svg" xmlns:xlink="http://www.w3.org/1999/xlink" x="0px" y="0px"
	 viewBox="0 0 892.5 667.5" style="enable-background:new 0 0 892.5 667.5;" xml:space="preserve">
<title>EH-Asset 53-layername</title>
<g id="Layer_2_1_">
	<g id="ElWekil">
		<g>
			<path d="M104.6,10.5c0-7-4-10.5-12.2-10.5c-8.1,0-16.8,5.7-26,17c-0.1,0.2-0.2,0.3-0.4,0.5c2.1,1.3,3.9,3,5.5,4.9
				c0-0.1,0.1-0.1,0.1-0.2l3.7-1.5c6.4,0,9.7,3.8,9.7,11.3c0,3-1.5,7-4.5,12C72.9,37.6,69,32.8,69,29.6c0-2.6,0.9-5.2,2.6-7.2
				c-1.5-2-3.4-3.6-5.5-4.9c-9,11.1-13.5,20.9-13.5,29.2c0,4.7,3.2,10.2,9.6,16.4C40.6,78.8,19.9,91.5,0,101.1
				c6.3,2,10.8,2.9,13.4,2.9c13.2,0,32.4-11.8,57.6-35.3c5.1,4.6,10.5,8.8,16.1,12.7l8.5-24.1L88.2,50
				C99.2,35.7,104.6,22.5,104.6,10.5z"/>
			<path d="M351.5,273l-0.9-1.2c-36.9,15.6-74.9,28.6-113.5,39.1c0.5-47.7-3.8-88.6-12.7-122.6c-5.3,12.9-9.8,26.1-13.7,39.5
				c1.5,3.6,3.7,16.1,6.5,37.6c2.7,20.5,4,33.8,4,40v10c-1.6,0.6-3.5,1.2-5.7,1.8c0.8,3.8,1.2,7.8,1.4,11.8c1.5-0.4,2.9-0.8,4.4-1.2
				v15.6c0.2,38.5-2.2,65.4-7.1,80.9c-9.1,28.8-23.1,51.7-41.9,68.7c-20.8,18.7-45.5,28.1-74.1,28.1c-16.6,0-29.6-5.9-39-17.6
				c-8.9-10.9-13.4-24.8-13.4-41.8c0-37.5,21-68.3,63-92.4c23.8-13.9,59.9-27.4,108.1-40.4c-0.2-4-0.6-8-1.4-11.8
				c-8,2.4-19.4,5.1-34.2,8.2c-17.3,3.4-30.4,7-39.4,10.8c-39.1,16-67.2,35.8-84.1,59.4c-17.6,24.8-26.4,57.8-26.4,99.2
				c0,16.3,6.9,31.3,20.6,45c13.7,13.7,28.7,20.5,45,20.5c10,0,21.7-2.5,35.1-7.5c45.8-17.1,77.4-59.4,95-127
				c5.7,23.3,17.2,35,34.7,35c9.1,0,19.4-4.3,30.8-12.9l12.5-46.2c-13.3,10.7-23.7,16.1-31,16.1c-16.3,0-27-12.6-32.2-37.7
				c-1.6-8-3.1-27.2-4.4-57.5c16.1-5.4,36.9-13.3,62.3-23.7C332.8,285.4,350,276.8,351.5,273z"/>
			<path d="M283.6,514.4c-10.6,21.5-15.8,34.8-15.6,39.8c9.6-5,16.7-8.9,21.4-11.7c19.9-11.4,31.2-18.4,33.8-21
				c6-6,11.1-18.2,15.3-36.6c-19.3,11.7-31.4,18.6-36.5,20.8C292.7,509.7,286.5,512.6,283.6,514.4z"/>
			<path d="M354,419.9c-11.9,6.2-21.7,9.3-29.5,9.3c-6.7,0-11.4-0.9-14.2-2.7c12.6-17.4,18.9-32.1,18.9-43.9c0-2.8-0.2-5.6-0.7-8.3
				c-9.1,10.4-18,20.7-26.7,30.7l-12.1,45.3l6.6-5.2c6.5,12,16.7,18,30.7,18c13.2,0,26.6-5,40.3-15l12.5-46.5
				C373.1,408.1,364.6,414.2,354,419.9z"/>
			<path d="M436.7,604.5c-3.4,11.1-8.1,18.1-14.2,21l-85.5,42c2.6-10.1,10.3-18.3,22.9-24.7L436.7,604.5z"/>
			<path d="M517.2,187.5c-3.4,11.1-8.1,18.1-14.2,21l-85.4,42c2.6-10.1,10.2-18.3,22.9-24.7L517.2,187.5z"/>
			<path d="M690.6,401.6L678.1,448c-10.4,8.3-29.2,18.3-56.4,29.8c-5.5,24.3-18.5,50.3-39.1,78c-21.5,29-43,48.2-64.5,57.5
				c-18.1,7.8-40.8,11.7-68.1,11.7c-10.4,0-25.9-1.7-46.4-5.2c-24.4-4-37-8.2-37.8-12.6l2-1.5c4.9,0.2,12.6,1.1,23.2,2.9
				c10.1,1.6,17.9,2.4,23.4,2.4c11.2,0,27.7-3.2,49.3-9.5c47-13.8,87.8-41.1,122.3-81.8c12-14.2,18.9-26.5,20.5-37.1
				c-14.2,3.9-23.7,5.9-28.6,5.9c-14.8,0-22.2-4.9-22.2-14.6c0-10.3,4.2-23.2,12.5-38.8c9.3-17.4,18.5-26.1,27.6-26.1
				c8,0,15.1,3.1,21.3,9.3s9.4,13.3,9.4,21.2C654,427.9,675.3,415.3,690.6,401.6z"/>
			<path d="M700.6,35.9c-4.4-5.4-9.5-8.1-15.2-8.1c-12.7,0-24.2,6.8-34.3,20.3c-0.7,0.9-1.3,1.8-2,2.7c2.1,1.4,4.2,2.8,6.1,4.5
				c0,0,0,0,0.1-0.1c4-4.5,8.5-6.7,13.4-6.7c3.9,0,8.5,2.4,13.9,7c5.3,4.6,8,8.9,8,12.9c0,7.8-7.4,11.6-22.1,11.6
				c-12.8,0-19.2-3.5-19.2-10.7c0-4.9,2-9.6,5.9-14.1c-1.9-1.6-4-3.1-6.1-4.5c-8,11.5-12,23.4-12,35.6c0,11.7,6.7,17.6,20.1,17.6
				c12.7,0,24.1-5.4,34.2-16.3c10-10.9,15.1-22.7,15.1-35.4C706.4,46.3,704.4,40.5,700.6,35.9z"/>
			<path d="M753.6,248.3c0,45.9-5.8,83.8-17.3,113.8c-14,35.8-37.9,65.4-71.8,88.9l12.2-45.7c41.5-33.2,62.3-66.6,62.3-100.1
				c0-25.1-7.9-55.4-23.7-91.1c-3.1,15.9-7.7,39.8-13.8,71.5c-2.6,13.7-4.8,20.5-6.5,20.5l-2.2-0.7l-0.5-3.2
				c0-13.2,3.4-37.9,10.2-74.2c7.1-39.2,13.3-61.8,18.5-67.6c8.9,5.5,16.8,19,23.6,40.3C750.6,219.1,753.6,234.9,753.6,248.3z"/>
			<path d="M801.4,41c-3.4,11.1-8.1,18.1-14.2,21l-85.5,42c2.6-10.1,10.3-18.3,23-24.7L801.4,41z"/>
			<path d="M578.8,83.5l-3.4,1.2c-20.8,29.6-47,58-78.4,85c-34,29.5-66.1,50.1-96.4,61.8c-15,5.9-32.8,12-53.5,18.3l-1.7,2.9
				l1.5,1.7c17.1-2.1,36.1-6.7,57.1-13.9c-4.7,7.8-10.7,21.3-17.8,40.5c-7.5,20.3-11.2,33.8-11.2,40.5c0,2.4,0.2,5.7,0.5,9.8l1.2,1
				c3.7-2,7.1-7.9,10-17.8c3.6-11.7,6.3-18.8,8.1-21.2c10.4,13.5,15.6,31.7,15.6,54.7c0,11.2-3.6,21.9-10.7,32
				c-4.1,6-11.8,14.5-23.2,25.4L364.1,451c28.7-21.8,46.6-48.9,53.8-81.3c5.4-24.6,8.2-40.9,8.2-49.1c0-12.2-1.4-26.6-4.3-43.2
				c-3.5-20.7-7.9-33.4-13.3-38.3c24.5-9,47.5-21.5,68.4-37.1c8.8-6.7,28.4-23.6,58.8-50.8c-3.6,4.7-9.5,19.9-17.8,45.7
				c-3.4,10.7-8.4,26.9-14.9,48.6l2.7-0.5l3.7-3.9c16.3-41.7,24.7-63.2,25.4-64.7c14.5-28.8,25.6-50.3,33.2-64.4
				c5.7-10.3,10-18.1,12.9-23.4c0.3-0.9,0.6-1.8,0.7-2.7C581.7,84.2,580.7,83.5,578.8,83.5z"/>
			<path d="M873.5,242.9c-11.2-35.8-26.2-70.4-44.8-103c-10.1,30.3-15.1,75.6-15.1,136c0,32.6,2.7,49.3,8,50.3
				c3.7-1.8,5.5-11.2,5.5-28.1c0-9.1,2.1-29.3,6.3-60.6c8.2,15.5,17,36.2,26.5,62.2c10.8,29.8,16.2,50.8,16.2,63
				c0,17.1-5.1,34-15.4,50.8c-6,9.9-17.2,24-33.5,42.2L806,478c-8.3,9-14.2,17.1-17.8,24.4c0.2,1.3,1,2,2.4,2s4.9-1,10.2-2.9
				c38-13.8,63.3-32.1,75.8-54.9c10.6-19,15.8-50.2,15.8-93.5C892.5,320.1,886.1,283.4,873.5,242.9z"/>
			<path d="M805.8,121.6c0-4.9-2.9-7.3-8.8-7.3c-8.1,0-12.2-1.1-12.2-3.4c0-4.1,2.4-6.1,7.3-6.1c1.7,0,3.3,0.3,4.9,1
				c1.6-1.1,4-4.6,7-10.3s4.8-9.8,5.3-12.2c-1.7-0.9-3.5-1.5-5.4-1.7c-6.9,0-14.8,5.9-23.8,17.8s-13.5,21.3-13.5,28.3
				c0,6.3,3.2,9.4,9.7,9.3c5.1-0.2,7.9,0.3,8.4,1.2c-2.6,3.6-11.1,8.1-25.6,13.4l-29.8,10.3c0,1.9,1.1,2.9,3.2,2.9
				c13.7,0,28.6-3.8,44.9-11.5C796.3,144.2,805.8,133.6,805.8,121.6z"/>
		</g>
	</g>
</g>
</svg>
