<svg xmlns="http://www.w3.org/2000/svg" viewBox="0 0 823.97 712.89">
  <title>EH-Asset 54-layername</title>
  <g id="Layer_2" data-name="Layer 2">
    <g id="ElQawijj">
      <g>
        <path d="M279.3,122.56q-28.08,55.91-64,87.89Q187.51,234.62,159.67,259q-35.4,31.5-56.89,56.4Q72.51,351.09,61,390.63q-8.55,29.78-8.55,74,0,54.45,54.54,54.44,20.79,0,52.58-23.39t31.8-40q0-6.86-17.16-9.06-24.5-2.69-32.1-6.11Q125,432.89,125,412.64q0-41.92,31.25-90.45,10.26-16.33,27.1-33.16,21.48-21.69,33.94-21.7,19,0,29.54,13.38-1.22,8.27-8,21.89-7.72,15.07-13.29,17.26l-2.17-3.18q0-10.28-13.47-10.28-17.88,0-41.63,25.46t-23.76,43.33q0,12.48,13.18,18.11,7.08,2.94,27.35,6.12,17.58,2.44,22.46,6.6,7.08,5.87,7.08,21.76,0,44-41.45,89.73-42.42,46.69-85.82,46.7-57.3,0-57.3-85.45,0-87.64,65.18-170.17,21.26-26.85,57.87-58.83l63-53.72q27.34-24.16,59.82-74.95l2.93-1.71Z"/>
        <path d="M319.09,649.9q-5.13,16.61-14.16,21l-85.45,42q3.9-15.14,23-24.66Z"/>
        <path d="M492.43,373.78,480,420.18q-15.63,12.46-56.4,29.82-8.16,36.44-39.06,78-32.22,43.51-64.45,57.45Q293,597.16,252,597.17q-15.62,0-46.38-5.19-36.63-5.94-37.85-12.61l2-1.49q7.32.24,23.19,2.93,15.13,2.45,23.44,2.44,16.84,0,49.32-9.52Q336.18,553,387.94,491.94,406,470.7,408.45,454.83q-21.24,5.87-28.57,5.86-22.22,0-22.21-14.65,0-15.37,12.45-38.81Q384,381.1,397.71,381.1q11.94,0,21.35,9.28t9.41,21.24Q469.48,394.29,492.43,373.78Z"/>
        <path d="M538.82,13.18q-5.13,16.61-14.16,21l-85.45,42q3.9-15.14,23-24.66Z"/>
        <path d="M637.94,24.41q0,19-15.07,35.4T588.7,76.17q-20.1,0-20.1-17.58,0-19.77,14-38.33Q597.75,0,616.87,0q8.57,0,15.19,8.06A26.1,26.1,0,0,1,637.94,24.41ZM622.07,40.59q0-5.94-8-12.9t-13.88-6.94q-7.37,0-13.38,6.7t-6,14.13q0,10.67,19.16,10.67Q622.07,52.25,622.07,40.59Z"/>
        <path d="M685.06,220.46q0,68.85-17.34,113.77-21,53.72-71.77,88.87l12.2-45.66q62.26-49.8,62.26-100.1,0-37.59-23.68-91.06-4.59,23.92-13.77,71.53-3.87,20.51-6.52,20.51l-2.18-.73-.48-3.18q0-19.77,10.21-74.21,10.71-58.84,18.48-67.63,13.38,8.3,23.59,40.28Q685.06,200.45,685.06,220.46Z"/>
        <path d="M732.91,13.18q-5.13,16.61-14.16,21l-85.45,42q3.9-15.14,23-24.66Z"/>
        <path d="M111.47,27.73q-4-5.27-9.64-5.27-12.47,0-25.41,12.13T63.48,59l1,5.87a57.62,57.62,0,0,0,6.44,8.33q-29.1,17.15-57.44,24,8.31,4.89,14.44,4.88,15.65,0,51.87-23.92,15.66,6.83,25,7.08,3.92-12.51,3.67-15.69l-.25-3.68-7.3-5.39Q115.51,45,115.5,38.88A18.06,18.06,0,0,0,111.47,27.73ZM93.1,55.66Q82.51,47.37,82.52,42.24q0-9,8.17-9,7.69,2.94,7.7,8.79Q98.39,47.62,93.1,55.66Z"/>
        <path d="M67.63,122.41q-9.52,0-9-11.39l.25-4.85-6.35,1.45q-18.08,28.86-29.3,28.85-7.82,0-7.81-9l1.71-10.91-5.05.48Q0,133.49,0,146.45L1.71,155q5.12,6.62,12.17,6.61,19,0,30.45-19.66,5.84,6.24,9.74,6.23,32.38,0,46-52.49L94,97.16Q81.06,122.42,67.63,122.41Z"/>
        <path d="M568.42,201.17q2.93-12.45,4.15-18.8-35.66,22-55.67,30-15.13,30-15.13,36.38l.24,2.93Q563.78,220.95,568.42,201.17Z"/>
        <path d="M515.28,381.1q33.54-38.57,33.55-62.25,0-31-14.12-31-6.81,0-20.43,10.76T489,329.89q-12.41,22-12.41,37.64a35.09,35.09,0,0,0,1.2,9.29l-12.45,46.94a304.8,304.8,0,0,0,27.8-22.35Q508,418.86,516.5,425.23a51.85,51.85,0,0,0,31.25,10.32,92.92,92.92,0,0,0,51.76-15.43l12.69-47.24q-26.85,20.67-58.1,20.67Q523.81,393.55,515.28,381.1ZM501,362.41q-8.36-9.72-8.35-15.57,0-4.38,11.05-14.11T519.45,323q12.78,0,12.78,9.49Q532.23,346.35,501,362.41Z"/>
        <path d="M737.3,93.75q0-7.32-8.78-7.32-12.21,0-12.21-3.42,0-6.11,7.32-6.11a12,12,0,0,1,4.89,1q2.43-1.69,7-10.28t5.25-12.2a15.14,15.14,0,0,0-5.4-1.69q-10.32,0-23.82,17.82T698,99.85q0,9.53,9.65,9.28,7.67-.24,8.41,1.22-3.9,5.37-25.63,13.43L660.64,134c0,2,1.06,2.93,3.17,2.93q20.52,0,44.93-11.47Q737.3,111.82,737.3,93.75Z"/>
        <path d="M805,215.09a525.35,525.35,0,0,0-44.78-103q-15.11,45.41-15.09,136,0,48.82,8,50.29,5.55-2.68,5.55-28.08,0-13.67,6.27-60.54,12.29,23.19,26.52,62.25,16.22,44.68,16.21,63,0,25.64-15.38,50.78-9,14.89-33.45,42.24L737.55,450.2q-12.45,13.43-17.82,24.41a2.11,2.11,0,0,0,2.43,1.95q2.19,0,10.23-2.93,57-20.75,75.75-54.93Q824,390.14,824,325.2,824,275.88,805,215.09Z"/>
      </g>
    </g>
  </g>
</svg>
