<?xml version="1.0" encoding="utf-8"?>
<!-- Generator: Adobe Illustrator 22.1.0, SVG Export Plug-In . SVG Version: 6.00 Build 0)  -->
<svg version="1.1" id="Layer_1" xmlns="http://www.w3.org/2000/svg" xmlns:xlink="http://www.w3.org/1999/xlink" x="0px" y="0px"
	 viewBox="0 0 824 712.9" style="enable-background:new 0 0 824 712.9;" xml:space="preserve">
<title>EH-Asset 54-layername</title>
<g id="Layer_2_1_">
	<g id="ElQawijj">
		<g>
			<path d="M279.3,122.6c-18.7,37.3-40.1,66.6-64,87.9c-18.5,16.1-37.1,32.3-55.6,48.6c-23.6,21-42.6,39.8-56.9,56.4
				c-20.2,23.8-34.1,48.9-41.8,75.2c-5.7,19.9-8.5,44.5-8.5,74c0,36.3,18.2,54.4,54.5,54.4c13.9,0,31.4-7.8,52.6-23.4
				c21.2-15.6,31.8-28.9,31.8-40c0-4.6-5.7-7.6-17.2-9.1c-16.3-1.8-27-3.8-32.1-6.1c-11.4-5.1-17.1-14.4-17.1-27.9
				c0-27.9,10.4-58.1,31.3-90.5c6.8-10.9,15.9-21.9,27.1-33.2c14.3-14.5,25.6-21.7,33.9-21.7c12.7,0,22.5,4.5,29.5,13.4
				c-0.8,5.5-3.5,12.8-8,21.9c-5.1,10-9.6,15.8-13.3,17.3l-2.2-3.2c0-6.9-4.5-10.3-13.5-10.3c-11.9,0-25.8,8.5-41.6,25.5
				c-15.8,17-23.8,31.4-23.8,43.3c0,8.3,4.4,14.4,13.2,18.1c4.7,2,13.8,4,27.4,6.1c11.7,1.6,19.2,3.8,22.5,6.6
				c4.7,3.9,7.1,11.2,7.1,21.8c0,29.3-13.8,59.2-41.4,89.7c-28.3,31.1-56.9,46.7-85.8,46.7c-38.2,0-57.3-28.5-57.3-85.5
				c0-58.4,21.7-115.1,65.2-170.2c14.2-17.9,33.5-37.5,57.9-58.8l63-53.7c18.2-16.1,38.2-41.1,59.8-74.9l2.9-1.7L279.3,122.6z"/>
			<path d="M319.1,649.9c-3.4,11.1-8.1,18.1-14.2,21l-85.4,42c2.6-10.1,10.3-18.3,23-24.7L319.1,649.9z"/>
			<path d="M492.4,373.8L480,420.2c-10.4,8.3-29.2,18.2-56.4,29.8c-5.4,24.3-18.5,50.3-39.1,78c-21.5,29-43,48.2-64.4,57.5
				c-18.1,7.8-40.8,11.7-68.1,11.7c-10.4,0-25.9-1.7-46.4-5.2c-24.4-4-37-8.2-37.9-12.6l2-1.5c4.9,0.2,12.6,1.1,23.2,2.9
				c10.1,1.6,17.9,2.4,23.4,2.4c11.2,0,27.7-3.2,49.3-9.5c47-13.8,87.7-41.1,122.2-81.8c12-14.2,18.9-26.5,20.5-37.1
				c-14.2,3.9-23.7,5.9-28.6,5.9c-14.8,0-22.2-4.9-22.2-14.6c0-10.2,4.2-23.2,12.5-38.8c9.3-17.4,18.4-26.1,27.6-26.1
				c8,0,15.1,3.1,21.4,9.3s9.4,13.3,9.4,21.2C455.8,400.1,477.1,387.5,492.4,373.8z"/>
			<path d="M538.8,13.2c-3.4,11.1-8.1,18.1-14.2,21l-85.5,42c2.6-10.1,10.3-18.3,23-24.7L538.8,13.2z"/>
			<path d="M632.1,8.1c-4.4-5.4-9.5-8.1-15.2-8.1c-12.7,0-24.2,6.8-34.3,20.3c-3.8,5.1-6.9,10.3-9.1,15.5c2.7,0,5.5,0,8.3,0.1
				c1-2.9,2.6-5.7,5.1-8.4c4-4.5,8.5-6.7,13.4-6.7c3.9,0,8.5,2.3,13.9,6.9c5.3,4.6,8,8.9,8,12.9c0,7.8-7.4,11.7-22.1,11.7
				c-12.8,0-19.2-3.6-19.2-10.7c0-1.9,0.3-3.8,0.9-5.7c-2.8-0.1-5.5-0.2-8.3-0.1c-3.2,7.5-4.9,15.1-4.9,22.8
				c0,11.7,6.7,17.6,20.1,17.6c12.7,0,24.1-5.4,34.2-16.4s15.1-22.7,15.1-35.4C637.9,18.4,635.8,12.7,632.1,8.1z"/>
			<path d="M685.1,220.5c0,45.9-5.8,83.8-17.3,113.8c-14,35.8-37.9,65.4-71.8,88.9l12.2-45.7c41.5-33.2,62.3-66.6,62.3-100.1
				c0-25.1-7.9-55.4-23.7-91.1c-3.1,15.9-7.7,39.8-13.8,71.5c-2.6,13.7-4.8,20.5-6.5,20.5l-2.2-0.7l-0.5-3.2
				c0-13.2,3.4-37.9,10.2-74.2c7.1-39.2,13.3-61.8,18.5-67.6c8.9,5.5,16.8,19,23.6,40.3C682.1,191.3,685.1,207.1,685.1,220.5z"/>
			<path d="M732.9,13.2c-3.4,11.1-8.1,18.1-14.2,21l-85.5,42c2.6-10.1,10.3-18.3,23-24.7L732.9,13.2z"/>
			<path d="M108.2,65.9l-7.3-5.4c9.7-10.3,14.6-17.5,14.6-21.6c-0.1-4.1-1.5-8-4-11.2c-2.7-3.5-5.9-5.3-9.6-5.3
				c-6.7,0-13.6,2.7-20.5,8c1.1,1.6,2.2,3.3,3.3,5c1.4-1.5,3.4-2.2,6.1-2.2c5.1,2,7.7,4.9,7.7,8.8c0,3.7-1.8,8.3-5.3,13.6
				c-7.1-5.5-10.6-10-10.6-13.4c0-3,0.7-5.3,2.1-6.8c-1.1-1.7-2.2-3.4-3.3-5c-1.6,1.2-3.3,2.6-4.9,4.2C67.8,42.7,63.5,50.8,63.5,59
				l1,5.9c1.9,3,4,5.8,6.4,8.3c-19.4,11.4-38.5,19.4-57.4,24c5.5,3.3,10.4,4.9,14.4,4.9c10.4,0,27.7-8,51.9-23.9
				c10.4,4.6,18.8,6.9,25,7.1c2.6-8.3,3.8-13.6,3.7-15.7L108.2,65.9z"/>
			<path d="M67.6,122.4c-6.3,0-9.3-3.8-9-11.4l0.3-4.8l-6.3,1.4c-12.1,19.2-21.8,28.9-29.3,28.8c-5.2,0-7.8-3-7.8-9l1.7-10.9
				l-5.1,0.5C4,128,0,137.8,0,146.4l1.7,8.6c3.4,4.4,7.5,6.6,12.2,6.6c12.7,0,22.8-6.6,30.5-19.7c3.9,4.2,7.1,6.2,9.7,6.2
				c21.6,0,36.9-17.5,46-52.5L94,97.2C85.4,114,76.6,122.4,67.6,122.4z"/>
			<path d="M568.4,201.2c2-8.3,3.3-14.6,4.2-18.8c-23.8,14.7-42.3,24.7-55.7,30c-10.1,20-15.1,32.1-15.1,36.4l0.2,2.9
				C543.2,231.2,565.3,214.4,568.4,201.2z"/>
			<path d="M554.1,393.6c-20.2,0-33.1-4.2-38.8-12.5c22.4-25.7,33.5-46.5,33.5-62.3c0-20.7-4.7-31-14.1-31
				c-4.5,0-11.3,3.6-20.4,10.8c-9.1,7.2-17.5,17.6-25.3,31.3c-8.3,14.7-12.4,27.2-12.4,37.6c0,3.1,0.4,6.3,1.2,9.3l-0.2,0.9
				c7.5-5.6,15.2-11,21.6-17.5c-4.3-5.5-6.5-9.9-6.5-13.3c0-2.9,3.7-7.6,11-14.1c7.4-6.5,12.6-9.7,15.8-9.7c8.5,0,12.8,3.2,12.8,9.5
				c0,9.2-10.4,19.2-31.2,29.9c-0.7-0.8-1.3-1.5-1.8-2.2c-6.5,6.5-14.2,12-21.6,17.5l-12.2,46.1c9.7-6.9,19-14.4,27.8-22.3
				c9.9,11.6,17.7,19.6,23.4,23.8c9,6.7,20,10.4,31.3,10.3c18.4,0.1,36.4-5.3,51.8-15.4l12.7-47.2
				C594.3,386.7,574.9,393.6,554.1,393.6z"/>
			<path d="M737.3,93.8c0-4.9-2.9-7.3-8.8-7.3c-8.1,0-12.2-1.1-12.2-3.4c0-4.1,2.4-6.1,7.3-6.1c1.7,0,3.3,0.3,4.9,1
				c1.6-1.1,4-4.6,7-10.3c3-5.7,4.8-9.8,5.3-12.2c-1.7-0.9-3.5-1.5-5.4-1.7c-6.9,0-14.8,5.9-23.8,17.8c-9,11.9-13.5,21.3-13.5,28.3
				c0,6.4,3.2,9.4,9.7,9.3c5.1-0.2,7.9,0.2,8.4,1.2c-2.6,3.6-11.1,8.1-25.6,13.4L660.6,134c0,2,1.1,2.9,3.2,2.9
				c13.7,0,28.7-3.8,44.9-11.5C727.8,116.4,737.3,105.8,737.3,93.8z"/>
			<path d="M805,215.1c-11.2-35.8-26.2-70.4-44.8-103c-10.1,30.3-15.1,75.6-15.1,136c0,32.5,2.7,49.3,8,50.3
				c3.7-1.8,5.5-11.1,5.5-28.1c0-9.1,2.1-29.3,6.3-60.5c8.2,15.5,17,36.2,26.5,62.3c10.8,29.8,16.2,50.8,16.2,63
				c0,17.1-5.1,34-15.4,50.8c-6,9.9-17.2,24-33.5,42.2l-21.3,22.2c-8.3,9-14.2,17.1-17.8,24.4c0.1,1.2,1.1,2,2.2,2
				c0.1,0,0.1,0,0.2,0c1.5,0,4.9-1,10.2-2.9c38-13.8,63.3-32.1,75.8-54.9c10.6-19,15.9-50.2,15.9-93.5
				C824,292.3,817.7,255.6,805,215.1z"/>
		</g>
	</g>
</g>
</svg>
