<svg xmlns="http://www.w3.org/2000/svg" viewBox="0 0 826.07 650.88">
  <title>EH-Asset 27-layername</title>
  <g id="Layer_2" data-name="Layer 2">
    <g id="EsSemiu">
      <g>
        <path d="M104.64,54.92q0,18.06-16.4,39.52l7.47,7.32-8.54,24.15a168.14,168.14,0,0,1-16.12-12.73q-37.84,35.25-57.62,35.26-3.91,0-13.43-2.93,29.79-14.4,62.26-38.09-9.63-9.27-9.62-16.36,0-12.69,13.85-29.66t26-17Q104.64,44.43,104.64,54.92ZM85.11,76.45q0-11.26-9.67-11.26l-3.72,1.46A11,11,0,0,0,69,74q0,4.91,11.65,14.45Q85.11,80.86,85.11,76.45Z"/>
        <path d="M266.41,360.66,254,407.18q-31.5,19.1-51.52,19.09-24.67,0-36.64-31.43L89.56,452.05q-61.35,46.21-61.34,53.79,0,10.28,33.69,10.27,44.93,0,106.45-24.41,57.85-23.19,95.95-53.47h1.22Q262.59,453.4,205,495q-31.74,23-77.39,41.83-51,21-84,21-41,0-41-18.57,0-36.66,65.18-92.62,26.13-22.23,93.75-69.15-.74-11.49-2.2-15.64-2.94-8.81-11.5-9.53-11-1-11-3.18,0-5.62,6.09-20.65t10.23-20.16q3.41-4.39,23.63-8.06,17.05-2.94,26.8-2.94,24.6,0,24.6,15.1,0,21.42-40.13,61.11,7.8,10.95,34.67,10.95Q235.88,384.52,266.41,360.66Z"/>
        <path d="M397.85,587.89q-5.13,16.61-14.16,21l-85.45,42q3.9-15.14,22.95-24.66Z"/>
        <path d="M459.62,361.33l-12.45,46.42a36.09,36.09,0,0,1-19.29,5.58q-17.34,0-27.34-15.3Q380,423.42,374.9,423.42q-5.62,0-16.6-12.94-10.26-12-12.21-18.76-5.61,7.53-21,18l12.2-45.43Q348.54,353.76,371,333q2.44,0,24.17,18.31t37.11,18.31A46.84,46.84,0,0,0,459.62,361.33Z"/>
        <path d="M613.67,360.79,601,408q-17.84,13.19-44.19,13.19-20.52,0-32.72-14.65-11.24-13.68-11.23-33.95a72.11,72.11,0,0,1,.73-10.25l-5.35,1a85.19,85.19,0,0,1-20.17,23.09Q473,398,460.34,396.56A151.87,151.87,0,0,1,445,409.34l12.45-46q6.29-3.92,11.11-16.4,5.31-13.91,9.18-17.82l1.93.73a199.38,199.38,0,0,1-2,20.51q5.4,0,17.67-11.72,10.54-10,14.23-16.6,2.21-4.14,7.12-20.26,1-3.66,5.39-7.57l1.47,1.46.49,11.23q0,1.72-1.46,11.24,2.46,0,10.51-5.86,9-6.6,18.56-26.13,8.79-18.54,9.76-19l1.22,1.46v4.89q0,21.24-11,46.63-12,27.58-28.32,37.84,2.43,26.61,33.93,26.61Q586.82,384.52,613.67,360.79Z"/>
        <path d="M687.16,207.28q0,68.84-17.34,113.76-21,53.71-71.77,88.87l12.2-45.65q62.26-49.81,62.26-100.1,0-37.59-23.68-91.06-4.59,23.93-13.77,71.53-3.87,20.5-6.52,20.51l-2.18-.74-.48-3.17q0-19.77,10.21-74.22,10.7-58.83,18.48-67.63,13.38,8.31,23.59,40.29Q687.15,187.26,687.16,207.28Z"/>
        <path d="M735,0q-5.13,16.61-14.16,21L635.4,63q3.9-15.14,23-24.66Z"/>
        <path d="M244.77,473.39q-15.87,32.22-15.62,39.79,14.35-7.56,21.41-11.72,29.93-17.08,33.82-21,9-9,15.33-36.62-28.93,17.58-36.47,20.75Q249.15,470.71,244.77,473.39Z"/>
        <path d="M285.65,388.18q-10,0-14.16-2.68,18.93-26.13,18.94-43.95a43.22,43.22,0,0,0-.73-8.3Q276.1,348.88,263,364l-12.15,45.32,6.56-5.16q9.72,18,30.69,17.95,19.77,0,40.28-15l12.45-46.52q-9.76,9.76-25.63,18.31Q297.37,388.18,285.65,388.18Z"/>
        <path d="M485.74,107.67q-9.28,0-9.28-17.83l-5.86,1.47q-18.56,32.47-30,32.47-8.54,0-8.54-11.48l.73-7.56-8.54,4.64q-6.84,18.59-6.84,25.25,0,13.81,14.2,13.81,16.4,0,31.08-21.15,8.8,6.26,14.44,6.25,17.63,0,29.12-21.24,8.56-15.61,11-36.62l-7.56,2.2Q499.89,107.67,485.74,107.67Z"/>
        <path d="M426.66,98.88l79.83-28.32q9.76-3.42,16.85-18.56L453.76,76.42Q437.4,82,426.66,98.88Z"/>
        <path d="M807.09,201.9a525.52,525.52,0,0,0-44.78-103q-15.1,45.41-15.09,136,0,48.84,7.95,50.3,5.55-2.69,5.55-28.08,0-13.66,6.27-60.55,12.27,23.21,26.52,62.26,16.2,44.67,16.21,63,0,25.64-15.39,50.78-9,14.9-33.44,42.23-10.5,11-21.24,22.22-12.45,13.42-17.83,24.42a2.12,2.12,0,0,0,2.44,1.95q2.19,0,10.23-2.93,57-20.74,75.75-54.93,15.82-28.57,15.83-93.51Q826.07,262.71,807.09,201.9Z"/>
        <path d="M739.4,80.57q0-7.33-8.79-7.33c-8.14,0-12.2-1.13-12.2-3.42q0-6.09,7.32-6.1a11.88,11.88,0,0,1,4.88,1q2.45-1.71,7-10.28t5.25-12.2a15,15,0,0,0-5.4-1.69q-10.32,0-23.82,17.82T700.1,86.67q0,9.52,9.65,9.28c5.11-.16,7.91.24,8.41,1.22q-3.92,5.37-25.64,13.43l-29.78,10.25q0,2.93,3.17,2.93,20.51,0,44.92-11.48Q739.41,98.64,739.4,80.57Z"/>
      </g>
    </g>
  </g>
</svg>
