<?xml version="1.0" encoding="utf-8"?>
<!-- Generator: Adobe Illustrator 22.1.0, SVG Export Plug-In . SVG Version: 6.00 Build 0)  -->
<svg version="1.1" id="Layer_1" xmlns="http://www.w3.org/2000/svg" xmlns:xlink="http://www.w3.org/1999/xlink" x="0px" y="0px"
	 viewBox="0 0 826.1 650.9" style="enable-background:new 0 0 826.1 650.9;" xml:space="preserve">
<title>EH-Asset 27-layername</title>
<g id="Layer_2_1_">
	<g id="EsSemiu">
		<g>
			<path d="M104.6,54.9c0-7-4-10.5-12.2-10.5c-7.1,0-14.7,4.4-22.8,13.2c2.2,2.2,4.1,4.7,5.4,7.6l0.3-0.1c6.4,0,9.7,3.8,9.7,11.3
				c0,2.9-1.5,6.9-4.5,12C72.9,82.1,69,77.3,69,74c0-2.7,0.9-5.3,2.7-7.4l3.4-1.4c-1.4-2.9-3.2-5.4-5.4-7.6
				c-1.1,1.2-2.1,2.4-3.2,3.8c-9.2,11.3-13.8,21.2-13.8,29.7c0,4.7,3.2,10.2,9.6,16.4C40.6,123.2,19.9,135.9,0,145.5
				c6.3,2,10.8,2.9,13.4,2.9c13.2,0,32.4-11.8,57.6-35.3c5.1,4.6,10.5,8.8,16.1,12.7l8.5-24.1l-7.5-7.3
				C99.2,80.1,104.6,67,104.6,54.9z"/>
			<path d="M266.4,360.7L254,407.2c-21,12.7-38.2,19.1-51.5,19.1c-16.4,0-28.7-10.5-36.6-31.4L89.6,452
				c-40.9,30.8-61.3,48.7-61.3,53.8c0,6.9,11.2,10.3,33.7,10.3c30,0,65.4-8.1,106.4-24.4c38.6-15.5,70.6-33.3,96-53.5h1.2
				c-2,10.1-22.1,29-60.5,56.8c-21.2,15.3-47,29.3-77.4,41.8c-34,14-62,21-84,21c-27.3,0-41-6.2-41-18.6c0-24.4,21.7-55.3,65.2-92.6
				c17.4-14.8,48.7-37.9,93.8-69.1c-0.5-7.7-1.2-12.9-2.2-15.6c-2-5.9-5.8-9-11.5-9.5c-7.3-0.7-11-1.7-11-3.2c0-3.7,2-10.6,6.1-20.6
				c4.1-10,7.5-16.7,10.2-20.2c2.3-2.9,10.2-5.6,23.6-8.1c11.4-2,20.3-2.9,26.8-2.9c16.4,0,24.6,5,24.6,15.1
				c0,14.3-13.4,34.7-40.1,61.1c5.2,7.3,16.8,11,34.7,11C231.5,384.5,246.1,376.6,266.4,360.7z"/>
			<path d="M397.9,587.9c-3.4,11.1-8.1,18.1-14.2,21l-85.5,42c2.6-10.1,10.3-18.3,23-24.7L397.9,587.9z"/>
			<path d="M459.6,361.3l-12.5,46.4c-5.8,3.6-12.5,5.6-19.3,5.6c-11.6,0-20.7-5.1-27.3-15.3c-13.7,16.9-22.2,25.4-25.6,25.4
				c-3.7,0-9.3-4.3-16.6-12.9c-6.8-8-10.9-14.3-12.2-18.8c-3.7,5-10.7,11-21,18l12.2-45.4c7.5-7,18.7-17.5,33.7-31.3
				c1.6,0,9.7,6.1,24.2,18.3c14.5,12.2,26.9,18.3,37.1,18.3C442,369.8,451.6,366.9,459.6,361.3z"/>
			<path d="M613.7,360.8L601,408c-11.9,8.8-26.6,13.2-44.2,13.2c-13.7,0-24.6-4.9-32.7-14.6c-7.5-9.1-11.2-20.4-11.2-34
				c0-3.4,0.2-6.9,0.7-10.3l-5.4,1c-5.3,8.9-12.1,16.7-20.2,23.1c-10,7.7-19.3,11.1-27.7,10.1c-4.8,4.6-10,8.9-15.3,12.8l12.5-46
				c4.2-2.6,7.9-8.1,11.1-16.4c3.5-9.3,6.6-15.2,9.2-17.8l1.9,0.7c-0.3,6.9-1,13.7-2,20.5c3.6,0,9.5-3.9,17.7-11.7
				c7-6.7,11.8-12.2,14.2-16.6c1.5-2.8,3.8-9.5,7.1-20.3c0.7-2.4,2.5-5,5.4-7.6l1.5,1.5l0.5,11.2c0,1.1-0.5,4.9-1.5,11.2
				c1.6,0,5.1-2,10.5-5.9c6-4.4,12.2-13.1,18.6-26.1c5.9-12.4,9.1-18.7,9.8-19l1.2,1.5v4.9c0,14.2-3.7,29.7-11,46.6
				c-8,18.4-17.4,31-28.3,37.8c1.6,17.7,12.9,26.6,33.9,26.6C577,384.5,595.8,376.6,613.7,360.8z"/>
			<path d="M687.2,207.3c0,45.9-5.8,83.8-17.3,113.8c-14,35.8-37.9,65.4-71.8,88.9l12.2-45.6c41.5-33.2,62.3-66.6,62.3-100.1
				c0-25.1-7.9-55.4-23.7-91.1c-3.1,16-7.7,39.8-13.8,71.5c-2.6,13.7-4.8,20.5-6.5,20.5l-2.2-0.7l-0.5-3.2
				c0-13.2,3.4-37.9,10.2-74.2c7.1-39.2,13.3-61.8,18.5-67.6c8.9,5.5,16.8,19,23.6,40.3C684.2,178.1,687.2,193.9,687.2,207.3z"/>
			<path d="M735,0c-3.4,11.1-8.1,18.1-14.2,21l-85.4,42c2.6-10.1,10.3-18.3,23-24.7L735,0z"/>
			<path d="M244.8,473.4c-10.6,21.5-15.8,34.7-15.6,39.8c9.6-5,16.7-8.9,21.4-11.7c20-11.4,31.2-18.4,33.8-21
				c6-6,11.1-18.2,15.3-36.6c-19.3,11.7-31.4,18.6-36.5,20.8C253.8,468.7,247.7,471.6,244.8,473.4z"/>
			<path d="M285.6,388.2c-6.7,0-11.4-0.9-14.2-2.7c12.6-17.4,18.9-32.1,18.9-44c0-2.8-0.2-5.6-0.7-8.3c-9.1,10.4-18,20.7-26.7,30.8
				l-12.1,45.3l6.6-5.2c6.5,12,16.7,18,30.7,18c13.2,0,26.6-5,40.3-15l12.5-46.5c-6.5,6.5-15.1,12.6-25.6,18.3
				C303.3,385.1,293.5,388.2,285.6,388.2z"/>
			<path d="M485.7,107.7c-6.2,0-9.3-5.9-9.3-17.8l-5.9,1.5c-12.4,21.6-22.4,32.5-30,32.5c-5.7,0-8.5-3.8-8.5-11.5l0.7-7.6l-8.5,4.6
				c-4.6,12.4-6.8,20.8-6.8,25.3c0,9.2,4.7,13.8,14.2,13.8c10.9,0,21.3-7.1,31.1-21.2c5.9,4.2,10.7,6.3,14.4,6.3
				c11.8,0,21.5-7.1,29.1-21.2c5.7-10.4,9.4-22.6,11-36.6l-7.6,2.2C503.2,97.7,495.2,107.7,485.7,107.7z"/>
			<path d="M426.7,98.9l79.8-28.3c6.5-2.3,12.1-8.5,16.8-18.6l-69.6,24.4C442.9,80.1,433.8,87.6,426.7,98.9z"/>
			<path d="M807.1,201.9c-11.2-35.8-26.2-70.4-44.8-103c-10.1,30.3-15.1,75.6-15.1,136c0,32.6,2.7,49.3,8,50.3
				c3.7-1.8,5.5-11.2,5.5-28.1c0-9.1,2.1-29.3,6.3-60.6c8.2,15.5,17,36.2,26.5,62.3c10.8,29.8,16.2,50.8,16.2,63
				c0,17.1-5.1,34-15.4,50.8c-6,9.9-17.1,24-33.4,42.2c-7,7.3-14.1,14.7-21.2,22.2c-8.3,8.9-14.2,17.1-17.8,24.4
				c0.1,1.2,1.1,2.1,2.3,2c0.1,0,0.1,0,0.2,0c1.5,0,4.9-1,10.2-2.9c38-13.8,63.3-32.1,75.8-54.9c10.5-19,15.8-50.2,15.8-93.5
				C826.1,279.2,819.7,242.4,807.1,201.9z"/>
			<path d="M739.4,80.6c0-4.9-2.9-7.3-8.8-7.3c-8.1,0-12.2-1.1-12.2-3.4c0-4.1,2.4-6.1,7.3-6.1c1.7,0,3.3,0.3,4.9,1
				c1.6-1.1,4-4.6,7-10.3s4.8-9.8,5.3-12.2c-1.7-0.9-3.5-1.5-5.4-1.7c-6.9,0-14.8,5.9-23.8,17.8c-9,11.9-13.5,21.3-13.5,28.3
				c0,6.3,3.2,9.4,9.7,9.3c5.1-0.2,7.9,0.2,8.4,1.2c-2.6,3.6-11.2,8.1-25.6,13.4l-29.8,10.3c0,2,1.1,2.9,3.2,2.9
				c13.7,0,28.6-3.8,44.9-11.5C729.9,103.2,739.4,92.6,739.4,80.6z"/>
		</g>
	</g>
</g>
</svg>
