<?xml version="1.0" encoding="utf-8"?>
<!-- Generator: Adobe Illustrator 22.1.0, SVG Export Plug-In . SVG Version: 6.00 Build 0)  -->
<svg version="1.1" id="Layer_1" xmlns="http://www.w3.org/2000/svg" xmlns:xlink="http://www.w3.org/1999/xlink" x="0px" y="0px"
	 viewBox="0 0 908.1 667.5" style="enable-background:new 0 0 908.1 667.5;" xml:space="preserve">
<title>EH-Asset 12-layername</title>
<g id="Layer_2_1_">
	<g id="ElHalik">
		<g>
			<path d="M104.6,10.5c0-7-4-10.5-12.2-10.5c-7.8,0-16.1,5.2-24.9,15.7c4.1,1,7.7,2.6,10.1,5.3c4.9,0.8,7.4,4.5,7.4,11.1
				c0,3-1.5,7-4.5,12C72.9,37.6,69,32.8,69,29.6c0-2.7,0.9-5.3,2.7-7.4l3.7-1.5c0.8,0,1.6,0.1,2.3,0.2c-2.4-2.7-6-4.3-10.1-5.3
				c-0.4,0.4-0.8,0.9-1.1,1.3c-9.2,11.3-13.9,21.2-13.9,29.7c0,4.7,3.2,10.2,9.6,16.4C40.6,78.8,19.9,91.5,0,101.1
				c6.3,2,10.8,2.9,13.4,2.9c13.2,0,32.4-11.8,57.6-35.3c5.1,4.6,10.5,8.8,16.1,12.7l8.5-24.1L88.2,50
				C99.2,35.7,104.6,22.5,104.6,10.5z"/>
			<path d="M266.8,401.6l-12.5,46.1c-8.2,5.9-17.1,10.7-26.6,14.2c-1.5,25.6-15.5,57.2-42.2,94.9c-28.3,40.3-54.2,60.4-77.6,60.4
				c-30.3,0-45.4-23.1-45.4-69.2c0-18.1,2.3-34.3,6.8-48.7c2.6-7.8,3.9-13.3,3.9-16.4c0-3.9-2.4-5.9-7.3-5.9
				c-7.2,0-16.6,6.4-28.3,19.1c-9.8,10.4-17,20.2-21.7,29.4l-2,1.5l-2-1.7c1.4-11.9,4.3-23.5,8.5-34.6c0.3-1,4.5-7.1,12.5-18.5
				C48.6,449.4,63,438,75.9,438c9.3,0,13.9,5.7,13.9,17.1c0,9-2.4,22.1-7.1,39.5c-4.7,17.4-7,30.7-6.8,39.8
				c0,24.1,12.3,36.1,36.9,36.1c20.3,0,40.4-11.4,60.1-34.3c17.3-20.1,28.7-41.2,34.4-63.4c-19,7.5-31.1,11.2-36.2,11.2
				c-3.3,0-6.5-1.3-8.9-3.7c-2.5-2.1-4-5.3-4-8.5c0-33.5,9-55,27-64.5c1.9-0.2,3.6-0.2,5.1-0.2c9.9,0,19.9,7.2,30.2,21.7
				C232.6,424.9,248,415.8,266.8,401.6z"/>
			<path d="M325.1,604.5c-3.4,11.1-8.1,18.1-14.2,21l-85.4,42c2.6-10.1,10.2-18.3,22.9-24.7L325.1,604.5z"/>
			<path d="M341.7,248.3c0,45.9-5.8,83.8-17.3,113.8c-14,35.8-37.9,65.4-71.8,88.9l12.2-45.7c41.5-33.2,62.3-66.6,62.3-100.1
				c0-25.1-7.9-55.4-23.7-91.1c-3.1,15.9-7.7,39.8-13.8,71.5c-2.6,13.7-4.8,20.5-6.5,20.5l-2.2-0.7l-0.5-3.2
				c0-13.2,3.4-37.9,10.2-74.2c7.1-39.2,13.3-61.8,18.5-67.6c8.9,5.5,16.8,19,23.6,40.3C338.7,219.1,341.7,234.9,341.7,248.3z"/>
			<path d="M488.2,402.1l-12.5,46.8c-13,8.8-26.2,13.3-39.5,13.3c-18.4,0-31-10.3-37.8-31c-3.7-11.6-5.9-29.5-6.6-53.8l-1.8-73.7
				c-1.4-55.3-2.1-83.5-2.1-84.5c0-2.1,2-9,5.9-20.8c3.9-11.7,6.6-18.6,8-20.5h1.4c0.5,28.2,1.5,70.2,2.9,126.2
				c0.2,15.6,1.9,38.7,5.1,69.3c6.5,31.4,19,47.1,37.4,47.1C462.3,420.6,475.5,414.5,488.2,402.1z"/>
			<path d="M546.3,126.5c-3.4,11.1-8.1,18.1-14.2,21l-85.5,42c2.6-10.1,10.3-18.3,23-24.7L546.3,126.5z"/>
			<path d="M578.4,200.7c0-2.6-3.2-5.9-9.5-9.8c-3.1-1.8-7.4-4-12.9-6.6c-13.7,20.5-21.2,32.1-22.5,34.7
				c6.9,5.3,14.2,10.2,21.7,14.6C562.9,227.1,570.6,216.1,578.4,200.7z"/>
			<path d="M627.6,424.3c-12.7,0-23.3-3.6-32-10.8c-9.3-7.6-13.9-17.7-13.9-30.3c0-6.6,0.6-13.3,1.7-19.8
				c17.4-15.5,42.6-26.5,75.4-33.2c7.5-10.6,12.7-23.7,15.6-39.3c-10.1,4.6-21.1,6.9-32.2,6.8c-7.3,0-18-2.1-31.9-6.2
				c-13.9-4.1-24.4-6.2-31.6-6.2c-27.4,0-47.8,12.4-61.2,37.1c-6.7,12.3-13.8,35.9-21.4,70.7c3.7-2,7.2-4.4,10.2-7.2
				c6.8-40.5,24.8-60.7,54.1-60.7c5.2,0,14.6,1.6,28.3,4.9c-13.5,6.2-27.9,14.9-43.2,26.1l0,0c-7.2,5.2-20.3,15.7-39.5,31.6
				c0.1-0.7,0.2-1.3,0.3-1.9c-3,2.8-6.5,5.2-10.2,7.2c-0.2,0.9-0.4,1.8-0.6,2.7l-9,8.5L474,450.3c7.8-5.8,13.7-10.3,17.6-13.3
				l-2,30.3v30.5l1.2,1.2l1.2-0.7l2.2-4.2c-0.7-17.6,1.5-39.2,6.6-64.9c24.7-21.5,47.8-40.5,69.3-56.9c-2.9,13-4.4,23.7-4.4,32
				c0,17.4,5.1,32.1,15.3,44.1c10.8,12.7,24.8,19,42,19c19.9,0,39.8-6.2,59.8-18.5l12.5-46.5C676.7,417,654.1,424.3,627.6,424.3z"/>
			<path d="M716.2,35.9c-4.4-5.4-9.5-8.1-15.2-8.1c-12.6,0-23.9,6.6-33.9,19.8c2.3,1.6,4.4,3.3,6.6,5c3.3-2.7,6.8-4.1,10.6-4.1
				c3.9,0,8.5,2.4,13.9,7c5.3,4.6,8,8.9,8,12.9c0,7.8-7.4,11.6-22.1,11.6c-12.8,0-19.2-3.5-19.2-10.7c0-5,2-9.7,6-14.1
				c0.9-1,1.8-1.9,2.7-2.6c-2.1-1.7-4.3-3.4-6.6-5c-0.1,0.2-0.2,0.3-0.4,0.5c-9.3,12.4-14,25.1-14,38.3c0,11.7,6.7,17.6,20.1,17.6
				c12.7,0,24.1-5.4,34.2-16.3c10-10.9,15.1-22.7,15.1-35.4C722,46.3,720,40.5,716.2,35.9z"/>
			<path d="M769.2,248.3c0,45.9-5.8,83.8-17.3,113.8c-14,35.8-37.9,65.4-71.8,88.9l12.2-45.7c41.5-33.2,62.3-66.6,62.3-100.1
				c0-25.1-7.9-55.4-23.7-91.1c-3.1,15.9-7.7,39.8-13.8,71.5c-2.6,13.7-4.8,20.5-6.5,20.5l-2.2-0.7l-0.5-3.2
				c0-13.2,3.4-37.9,10.2-74.2c7.1-39.2,13.3-61.8,18.5-67.6c8.9,5.5,16.8,19,23.6,40.3C766.2,219.1,769.2,234.9,769.2,248.3z"/>
			<path d="M817,41c-3.4,11.1-8.1,18.1-14.2,21l-85.5,42c2.6-10.1,10.3-18.3,23-24.7L817,41z"/>
			<path d="M821.4,121.6c0-4.9-2.9-7.3-8.8-7.3c-8.1,0-12.2-1.1-12.2-3.4c0-4.1,2.4-6.1,7.3-6.1c1.7,0,3.3,0.3,4.9,1
				c1.6-1.1,4-4.6,7-10.3s4.8-9.8,5.3-12.2c-1.7-0.9-3.5-1.5-5.4-1.7c-6.9,0-14.8,5.9-23.8,17.8s-13.5,21.3-13.5,28.3
				c0,6.3,3.2,9.4,9.7,9.3c5.1-0.2,7.9,0.2,8.4,1.2c-2.6,3.6-11.2,8.1-25.6,13.4l-29.8,10.3c0,1.9,1.1,2.9,3.2,2.9
				c13.7,0,28.7-3.8,44.9-11.5C811.9,144.2,821.4,133.6,821.4,121.6z"/>
			<path d="M889.1,242.9c-11.2-35.8-26.2-70.4-44.8-103c-10.1,30.3-15.1,75.6-15.1,136c0,32.6,2.7,49.3,8,50.3
				c3.7-1.8,5.6-11.2,5.5-28.1c0-9.1,2.1-29.3,6.3-60.6c8.2,15.5,17,36.2,26.5,62.2c10.8,29.8,16.2,50.8,16.2,63
				c0,17.1-5.1,34-15.4,50.8c-6,9.9-17.1,24-33.5,42.2L821.7,478c-8.3,9-14.2,17.1-17.8,24.4c0.2,1.3,1,2,2.4,2s4.9-1,10.2-2.9
				c38-13.8,63.3-32.1,75.8-54.9c10.6-19,15.8-50.2,15.8-93.5C908.1,320.1,901.8,283.4,889.1,242.9z"/>
		</g>
	</g>
</g>
</svg>
