<?xml version="1.0" encoding="utf-8"?>
<!-- Generator: Adobe Illustrator 22.1.0, SVG Export Plug-In . SVG Version: 6.00 Build 0)  -->
<svg version="1.1" id="Layer_1" xmlns="http://www.w3.org/2000/svg" xmlns:xlink="http://www.w3.org/1999/xlink" x="0px" y="0px"
	 viewBox="0 0 925.5 664.1" style="enable-background:new 0 0 925.5 664.1;" xml:space="preserve">
<title>EH-Asset 57-layername</title>
<g id="Layer_2_1_">
	<g id="ElHamid">
		<g>
			<path d="M153.3,68.1c0-7-4-10.5-12.2-10.5c-7.7,0-16,5.2-24.7,15.5c2,1.9,3.9,3.9,5.7,6.1l2-0.8c6.4,0,9.7,3.8,9.7,11.3
				c0,2.9-1.5,6.9-4.5,12c-7.8-6.4-11.7-11.2-11.7-14.5c0-2.7,0.9-5.3,2.7-7.3l1.7-0.7c-1.7-2.2-3.6-4.2-5.7-6.1
				c-0.4,0.5-0.9,1-1.3,1.5c-9.2,11.3-13.8,21.2-13.8,29.7c0,4.7,3.2,10.2,9.6,16.4c-21.6,15.8-42.4,28.5-62.3,38.1
				c6.4,2,10.8,2.9,13.4,2.9c13.2,0,32.4-11.7,57.6-35.3c5.1,4.6,10.5,8.8,16.1,12.7l8.5-24.2l-7.5-7.3
				C147.9,93.3,153.3,80.1,153.3,68.1z"/>
			<path d="M314.2,373.5L301.8,420c-8.8,6.2-18.2,11.6-28.1,16c-13.2,6.2-23.1,9.3-29.8,9.3c-18.1,0-27.1-13.6-27.1-40.8
				c0.1-5.3,0.6-10.6,1.5-15.9h-1.9c-1,0-3.3,2.2-7,6.7c-3.7,4.5-10.7,16.4-21.1,35.8c-24.6,45.7-47.4,73.8-68.6,84.2
				c-12.4,6-23.2,9.8-32.5,11.5c-7,1.3-18.6,2-34.7,2c-9.2-0.2-18.4-0.9-27.6-2c-14.1-1.7-22.4-3.5-24.9-5.5l0.7-1.5l3.4-2
				c24.6,0,44.6-2.5,60.1-7.6c15.5-5,33-14.9,52.7-29.5c21.2-15.6,36.1-29.9,44.9-42.7c11.2-18.2,22.5-36.5,33.7-54.9
				c16.6-25.7,29.6-40.6,38.8-44.7l2.4,2.2l0.5,2.4c-0.5,1.6-1.2,5-2.2,10.3c-1.6,8.4-2.5,16.9-2.4,25.4c0,17.4,7.2,26.1,21.7,26.1
				C269.2,404.8,289.1,394.4,314.2,373.5z"/>
			<path d="M444.8,601.1c-3.4,11.1-8.1,18.1-14.2,21l-85.4,42c2.6-10.1,10.3-18.3,23-24.7L444.8,601.1z"/>
			<path d="M506.6,374.5l-12.5,46.4c-5.8,3.6-12.5,5.6-19.3,5.6c-11.6,0-20.7-5.1-27.3-15.3c-13.7,16.9-22.2,25.4-25.6,25.4
				c-3.7,0-9.3-4.3-16.6-12.9c-6.8-8-10.9-14.3-12.2-18.8c-3.7,5-10.7,11-21,18l12.2-45.4c7.5-7,18.7-17.4,33.7-31.3
				c1.6,0,9.7,6.1,24.2,18.3s26.9,18.3,37.1,18.3C489,383,498.6,380.1,506.6,374.5z"/>
			<path d="M564,98.6c-3.4,11.1-8.1,18.1-14.2,21l-85.4,42c2.6-10.1,10.2-18.3,22.9-24.7L564,98.6z"/>
			<path d="M645.3,396.5c-12.7,0-23.4-3.6-32-10.7c-9.3-7.6-13.9-17.7-13.9-30.3c0-6.6,0.6-13.3,1.7-19.8
				c17.4-15.5,42.6-26.5,75.4-33.2c7.5-10.6,12.7-23.7,15.6-39.3c-10.1,4.6-21.1,6.9-32.2,6.8c-7.3,0-17.9-2.1-31.9-6.2
				c-13.9-4.1-24.5-6.2-31.6-6.2c-27.4,0-47.8,12.4-61.2,37.1c-6.8,12.7-14.1,37.1-21.9,73.2c6.5-2.7,12.4-6.5,15.8-12.3
				c-1.8,1.4-3.6,2.9-5.4,4.5c6.5-41.8,24.7-62.7,54.5-62.7c5.2,0,14.6,1.6,28.3,4.9h0c-13.5,6.2-27.9,14.9-43.2,26.2
				c-6.5,4.7-17.9,13.7-34.1,27.1c-3.4,5.7-9.3,9.6-15.8,12.3c0,0.1,0,0.2-0.1,0.2l-9,8.5l-12.5,45.9c7.8-5.8,13.7-10.3,17.6-13.4
				l-2,30.3v30.5l1.2,1.2l1.2-0.7l2.2-4.1c-0.7-17.6,1.5-39.2,6.5-65c24.7-21.5,47.8-40.5,69.3-56.9c-2.9,13-4.4,23.7-4.4,32
				c0,17.4,5.1,32.1,15.3,44.1c10.7,12.7,24.7,19,42,19c19.9,0,39.8-6.2,59.8-18.5l12.4-46.5C694.4,389.1,671.8,396.5,645.3,396.5z"
				/>
			<path d="M733.6,8.1c-4.4-5.4-9.5-8.1-15.2-8.1c-12.7,0-24.2,6.8-34.3,20.3c-1.5,2-2.8,4-4.1,5.9c2.7,0.5,5.3,1.1,8,1.7
				c0.1-0.1,0.2-0.3,0.3-0.4c4-4.5,8.5-6.7,13.4-6.7c3.9,0,8.5,2.3,13.9,6.9c5.3,4.6,8,8.9,8,12.9c0,7.8-7.4,11.7-22.1,11.7
				c-12.8,0-19.2-3.6-19.2-10.7c0-4.8,1.9-9.4,5.7-13.7c-2.7-0.6-5.3-1.1-8-1.7c-6.6,10.5-9.9,21.3-9.9,32.4
				c0,11.7,6.7,17.6,20.1,17.6c12.7,0,24.1-5.4,34.2-16.4c10-10.9,15.1-22.7,15.1-35.4C739.5,18.4,737.4,12.7,733.6,8.1z"/>
			<path d="M786.6,220.5c0,45.9-5.8,83.8-17.3,113.8c-14,35.8-37.9,65.4-71.8,88.9l12.2-45.7c41.5-33.2,62.3-66.6,62.3-100.1
				c0-25.1-7.9-55.4-23.7-91.1c-3.1,15.9-7.7,39.8-13.8,71.5c-2.6,13.7-4.8,20.5-6.5,20.5l-2.2-0.7l-0.5-3.2
				c0-13.2,3.4-37.9,10.2-74.2c7.1-39.2,13.3-61.8,18.5-67.6c8.9,5.5,16.8,19,23.6,40.3C783.6,191.3,786.6,207.1,786.6,220.5z"/>
			<path d="M834.5,13.2c-3.4,11.1-8.1,18.1-14.2,21l-85.5,42c2.6-10.1,10.3-18.3,23-24.7L834.5,13.2z"/>
			<path d="M332.6,401.4c-6.7,0-11.4-0.9-14.2-2.7c12.6-17.4,18.9-32.1,18.9-43.9c0-2.8-0.2-5.6-0.7-8.3
				c-9.1,10.4-17.9,20.7-26.7,30.8l-12.1,45.3l6.5-5.2c6.5,12,16.7,18,30.7,18c13.2,0,26.6-5,40.3-15l12.5-46.5
				c-6.5,6.5-15.1,12.6-25.6,18.3C350.3,398.3,340.4,401.4,332.6,401.4z"/>
			<path d="M291.8,486.6c-10.6,21.5-15.8,34.8-15.6,39.8c9.6-5,16.7-9,21.4-11.7c19.9-11.4,31.2-18.4,33.8-21
				c6-6,11.1-18.2,15.3-36.6c-19.3,11.7-31.4,18.6-36.5,20.8C300.8,481.9,294.7,484.8,291.8,486.6z"/>
			<path d="M906.5,215.1c-11.2-35.8-26.2-70.4-44.8-103c-10.1,30.3-15.1,75.6-15.1,136c0,32.5,2.7,49.3,8,50.3
				c3.7-1.8,5.5-11.1,5.5-28.1c0-9.1,2.1-29.3,6.3-60.5c8.2,15.4,17,36.2,26.5,62.2c10.8,29.8,16.2,50.8,16.2,63
				c0,17.1-5.1,34-15.4,50.8c-6,9.9-17.2,24-33.5,42.2l-21.3,22.2c-8.3,9-14.2,17.1-17.8,24.4c0.2,1.3,1,2,2.4,2s4.9-1,10.2-2.9
				c38-13.8,63.3-32.1,75.8-54.9c10.5-19,15.8-50.2,15.8-93.5C925.5,292.3,919.2,255.6,906.5,215.1z"/>
			<path d="M838.9,93.8c0-4.9-2.9-7.3-8.8-7.3c-8.1,0-12.2-1.1-12.2-3.4c0-4.1,2.4-6.1,7.3-6.1c1.7,0,3.3,0.3,4.9,1
				c1.6-1.1,4-4.6,7-10.3c3-5.7,4.8-9.8,5.3-12.2c-1.7-0.9-3.5-1.5-5.4-1.7c-6.9,0-14.8,5.9-23.8,17.8c-9,11.9-13.5,21.3-13.5,28.3
				c0,6.4,3.2,9.4,9.7,9.3c5.1-0.2,7.9,0.3,8.4,1.2c-2.6,3.6-11.1,8.1-25.6,13.4L762.2,134c0,2,1.1,2.9,3.2,2.9
				c13.7,0,28.6-3.8,44.9-11.5C829.3,116.4,838.9,105.8,838.9,93.8z"/>
		</g>
	</g>
</g>
</svg>
