<?xml version="1.0" encoding="utf-8"?>
<!-- Generator: Adobe Illustrator 22.1.0, SVG Export Plug-In . SVG Version: 6.00 Build 0)  -->
<svg version="1.1" id="Layer_1" xmlns="http://www.w3.org/2000/svg" xmlns:xlink="http://www.w3.org/1999/xlink" x="0px" y="0px"
	 viewBox="0 0 1002.7 699.5" style="enable-background:new 0 0 1002.7 699.5;" xml:space="preserve">
<title>EH-Asset 58-layername</title>
<g id="Layer_2_1_">
	<g id="ElMuhsi">
		<g>
			<path d="M233.9,374l-12.7,46.6c-13.7,8.5-27.3,17-41,25.6c-24.9,16.6-37.4,27.6-37.4,33c0,9.9,10,18.6,30,26.1
				c14,5.1,21,12.1,21,21c0,34-14.3,70.6-42.8,109.9c-30.5,42.1-62.1,63.2-94.7,63.2C18.8,699.5,0,675.3,0,627
				c0-27.4,5.7-54.5,16.6-79.6c7.8-18.4,20.9-40.8,39.1-67.1c25-36.3,40-58.9,45.2-67.7c9.6-16.3,20.1-43.5,31.6-81.6l3.9,1.7
				c-1.8,21-10.9,49.2-27.3,84.7c-6.5,14-18.9,33.9-37.1,59.8c-19.9,27.8-33.2,48.3-40,61.5c-12.5,23.8-18.8,45.9-18.8,66.4
				c0,17.3,5.6,30.7,16.9,40.3c10.6,9,24.7,13.4,42.2,13.4c16.1,0,38.1-13.3,66-39.9c27.9-26.6,41.8-47.1,41.9-61.4
				c0-3.9-4.4-7.2-13.2-10c-12.2-3.7-20.3-7-24.2-9.8c-8.8-6-13.2-15.1-13.2-27.3c0-41.2,9.4-69.3,28.3-84.2
				C175,414.6,200.4,397.1,233.9,374z"/>
			<path d="M285.4,601.1c-3.4,11.1-8.1,18.1-14.2,21l-85.4,42c2.6-10.1,10.3-18.3,23-24.7L285.4,601.1z"/>
			<path d="M392.3,396c-12.4,0-24.6-5.5-36.7-16.4c39.4-25.7,66.2-57.3,80.3-94.7c4.9-12.9,7.3-20.7,7.3-23.4
				c0-5.7-1.4-9.8-4.1-12.4c-1.2-0.1-2.4-0.2-3.7-0.2c-7,0-21.6,4.2-44,12.7c-24.1,9.1-39.8,16.8-47.1,23
				c-9.4,7.8-17.8,21.7-25.1,41.5c-3.4,9-7.7,23.6-13.1,43.9c2.7-0.4,5.2-1.1,7.6-2.1c5.1-20.6,11-34.7,17.9-42.3
				c6.7-7.1,20.9-15,42.7-23.6c20.5-8.1,34.6-12.2,42.2-12.2l4.4,0.5c0.6,0.9,1,1.9,1,2.9c0,2.9-9,11.5-26.9,25.9
				c-25.3,20.3-52.8,37.6-82,51.5c0.2-0.9,0.4-1.8,0.7-2.7c-2.4,1-5,1.7-7.6,2.1c-0.4,1.4-0.7,2.8-1.1,4.2
				c-27.7,12.7-46.8,19-57.4,19h-9.3c9.6-15.6,14.4-28.3,14.4-38.1c0-2.8-0.2-5.6-0.7-8.3l-26.9,30.7l-12.2,45.1
				c7-5.4,12.1-9.7,15.4-12.8l6.6,1.2c25.1,0,47-2.6,65.7-7.8c-0.5,9.5-0.6,19.1-0.5,28.8l1.2,0.5l1.2-0.5c2-10.8,3.3-20.9,4.1-30.2
				c8.8-1.9,19.7-6.1,32.6-12.5C350.1,421,368.3,437,394,437c22.3,0,42.1-5.5,59.4-16.6l12.5-46.6C446.3,388.6,421.8,396,392.3,396z
				"/>
			<path d="M485.6,93.5c-4.4-5.4-9.5-8.1-15.2-8.1c-12.7,0-24.2,6.8-34.3,20.3c-0.4,0.6-0.9,1.2-1.3,1.8c1.7,2,3.3,4,4.9,6.1
				c0.2-0.3,0.4-0.5,0.6-0.8c4-4.5,8.5-6.7,13.4-6.7c3.9,0,8.5,2.3,13.9,6.9c5.3,4.6,8,8.9,8,12.9c0,7.8-7.4,11.7-22.1,11.7
				c-12.8,0-19.1-3.6-19.1-10.7c0-4.7,1.8-9.1,5.4-13.4c-1.6-2.1-3.2-4.2-4.9-6.1c-8.5,11.8-12.7,24-12.7,36.6
				c0,11.7,6.7,17.6,20.1,17.6c12.7,0,24.1-5.4,34.2-16.4c10-10.9,15.1-22.7,15.1-35.4C491.4,103.9,489.4,98.1,485.6,93.5z"/>
			<path d="M603.3,396.5c-12.7,0-23.4-3.6-32-10.7c-9.3-7.6-13.9-17.7-13.9-30.3c0-6.6,0.6-13.3,1.7-19.8
				c17.4-15.5,42.6-26.5,75.4-33.2c7.5-10.6,12.7-23.7,15.6-39.3c-10.1,4.6-21.1,6.9-32.2,6.8c-7.3,0-17.9-2.1-31.9-6.2
				c-13.9-4.1-24.5-6.2-31.6-6.2c-27.4,0-47.8,12.4-61.2,37.1c-6.8,12.7-14.2,37.2-22,73.4l-2.8,2.7c5.5-2.9,10.8-6.7,14.3-11.6
				c-0.3,0.3-0.7,0.6-1,0.8c6.5-41.8,24.7-62.7,54.4-62.7c5.2,0,14.6,1.6,28.3,4.9h0c-13.5,6.2-27.9,14.9-43.2,26.2
				c-7,5.1-19.9,15.4-38.5,30.7c-3.5,4.9-8.8,8.7-14.3,11.6l-6.2,5.9l-12.5,45.9c7.8-5.8,13.7-10.3,17.6-13.4l-2,30.3v30.5l1.2,1.2
				l1.2-0.7l2.2-4.1c-0.7-17.6,1.5-39.2,6.6-65c24.7-21.5,47.8-40.5,69.3-56.9c-2.9,13-4.4,23.7-4.4,32c0,17.4,5.1,32.1,15.3,44.1
				c10.7,12.7,24.7,19,42,19c19.9,0,39.8-6.2,59.8-18.5l12.5-46.5C652.4,389.1,629.8,396.5,603.3,396.5z"/>
			<path d="M733.2,68.1c0-7-4-10.5-12.2-10.5c-7.3,0-15,4.6-23.1,13.7c1.8,2.5,3.4,5,4.6,7.7l1.5-0.6c6.4,0,9.7,3.8,9.7,11.3
				c0,2.9-1.5,6.9-4.5,12c-7.8-6.4-11.7-11.2-11.7-14.5c0-2.7,0.9-5.3,2.7-7.3l2.2-0.9c-1.2-2.7-2.8-5.3-4.6-7.7
				c-0.9,1.1-1.9,2.2-2.9,3.3c-9.2,11.3-13.8,21.2-13.8,29.7c0,4.7,3.2,10.2,9.6,16.4c-21.6,15.8-42.4,28.5-62.3,38.1
				c6.3,2,10.8,2.9,13.4,2.9c13.2,0,32.4-11.7,57.6-35.3c5.1,4.6,10.5,8.8,16.1,12.7l8.5-24.2l-7.5-7.3
				C727.7,93.3,733.2,80.1,733.2,68.1z"/>
			<path d="M789.8,374.5l-12.5,46.4c-5.8,3.6-12.5,5.6-19.3,5.6c-11.6,0-20.7-5.1-27.3-15.3c-13.7,16.9-22.2,25.4-25.6,25.4
				c-3.7,0-9.3-4.3-16.6-12.9c-6.8-8-10.9-14.3-12.2-18.8c-3.7,5-10.7,11-21,18l12.2-45.4c7.5-7,18.7-17.4,33.7-31.3
				c1.6,0,9.7,6.1,24.2,18.3c14.5,12.2,26.8,18.3,37.1,18.3C772.2,383,781.8,380.1,789.8,374.5z"/>
			<path d="M810.8,8.1c-4.4-5.4-9.5-8.1-15.2-8.1c-12.7,0-24.2,6.8-34.3,20.3c-0.9,1.2-1.8,2.5-2.7,3.8c2.4,1,4.7,2.1,7,3.3
				c4-4.4,8.4-6.6,13.3-6.6c3.9,0,8.5,2.3,13.9,6.9s8,8.9,8,12.9c0,7.8-7.4,11.7-22.1,11.7c-12.8,0-19.2-3.6-19.2-10.7
				c0-5,2-9.7,6-14.1c0,0,0.1-0.1,0.1-0.1c-2.3-1.2-4.6-2.3-7-3.3c-7.5,11.2-11.3,22.7-11.3,34.6c0,11.7,6.7,17.6,20.1,17.6
				c12.7,0,24.1-5.4,34.2-16.4c10-10.9,15.1-22.7,15.1-35.4C816.6,18.4,814.5,12.7,810.8,8.1z"/>
			<path d="M863.8,220.5c0,45.9-5.8,83.8-17.3,113.8c-14,35.8-37.9,65.4-71.8,88.9l12.2-45.7c41.5-33.2,62.3-66.6,62.3-100.1
				c0-25.1-7.9-55.4-23.7-91.1c-3.1,15.9-7.7,39.8-13.8,71.5c-2.6,13.7-4.8,20.5-6.5,20.5l-2.2-0.7l-0.5-3.2
				c0-13.2,3.4-37.9,10.2-74.2c7.1-39.2,13.3-61.8,18.5-67.6c8.9,5.5,16.8,19,23.6,40.3C860.8,191.3,863.8,207.1,863.8,220.5z"/>
			<path d="M911.6,13.2c-3.4,11.1-8.1,18.1-14.2,21l-85.5,42c2.6-10.1,10.3-18.3,23-24.7L911.6,13.2z"/>
			<path d="M916,93.8c0-4.9-2.9-7.3-8.8-7.3c-8.1,0-12.2-1.1-12.2-3.4c0-4.1,2.4-6.1,7.3-6.1c1.7,0,3.3,0.3,4.9,1
				c1.6-1.1,3.9-4.6,7-10.3c3-5.7,4.8-9.8,5.3-12.2c-1.7-0.9-3.5-1.5-5.4-1.7c-6.9,0-14.8,5.9-23.8,17.8s-13.5,21.3-13.5,28.3
				c0,6.4,3.2,9.4,9.7,9.3c5.1-0.2,7.9,0.3,8.4,1.2c-2.6,3.6-11.1,8.1-25.6,13.4L839.3,134c0,2,1.1,2.9,3.2,2.9
				c13.7,0,28.6-3.8,44.9-11.5C906.5,116.4,916,105.8,916,93.8z"/>
			<path d="M983.7,215.1c-11.2-35.8-26.2-70.4-44.8-103c-10.1,30.3-15.1,75.6-15.1,136c0,32.5,2.7,49.3,8,50.3
				c3.7-1.8,5.5-11.1,5.5-28.1c0-9.1,2.1-29.3,6.3-60.5c8.2,15.5,17,36.2,26.5,62.3c10.8,29.8,16.2,50.8,16.2,63
				c0,17.1-5.1,34-15.4,50.8c-6,9.9-17.2,24-33.5,42.2l-21.3,22.2c-8.3,9-14.2,17.1-17.8,24.4c0.2,1.3,1,2,2.4,2s4.9-1,10.2-2.9
				c38-13.8,63.2-32.1,75.8-54.9c10.6-19,15.8-50.2,15.8-93.5C1002.7,292.3,996.4,255.6,983.7,215.1z"/>
		</g>
	</g>
</g>
</svg>
