<svg xmlns="http://www.w3.org/2000/svg" viewBox="0 0 890.53 691.89">
  <title>EH-Asset 59-layername</title>
  <g id="Layer_2" data-name="Layer 2">
    <g id="ElMubdiu">
      <g>
        <path d="M104.64,10.49q0,18.06-16.4,39.52l7.47,7.32L87.17,81.48A171,171,0,0,1,71.05,68.75Q33.21,104,13.43,104,9.52,104,0,101.07,29.79,86.67,62.26,63q-9.63-9.29-9.62-16.36,0-12.69,13.85-29.66t26-17Q104.64,0,104.64,10.49ZM85.11,32q0-11.26-9.67-11.27l-3.72,1.47A11,11,0,0,0,69,29.57Q69,34.46,80.64,44C83.62,39,85.11,35,85.11,32Z"/>
        <path d="M319.24,628.91q-5.13,16.59-14.16,21l-85.45,42q3.9-15.14,23-24.65Z"/>
        <path d="M485.25,401.37,472.8,447.85a174.28,174.28,0,0,1-28.07,16q-19.78,9.35-29.79,9.33-27.1,0-27.1-40.77a111.59,111.59,0,0,1,1.47-15.87h-2q-1.46,0-7,6.72T359.28,459q-36.87,68.61-68.61,84.23-18.56,9-32.47,11.48-10.5,1.95-34.67,1.95a266.12,266.12,0,0,1-27.58-2q-21.24-2.49-24.91-5.49l.74-1.5,3.41-2q36.87,0,60.06-7.56T288,508.54q31.72-23.43,44.92-42.72,16.84-27.35,33.69-54.93,24.93-38.58,38.82-44.68l2.44,2.2.49,2.44q-.74,2.44-2.2,10.25a131.49,131.49,0,0,0-2.44,25.39q0,26.13,21.73,26.13Q447.66,432.62,485.25,401.37Z"/>
        <path d="M510.4,198.73q0,19.05-15.07,35.4t-34.17,16.36q-20.1,0-20.1-17.58,0-19.77,14-38.33,15.18-20.27,34.3-20.26,8.57,0,15.19,8.05A26.15,26.15,0,0,1,510.4,198.73Zm-15.87,16.18q0-6-8-12.9t-13.88-6.94q-7.37,0-13.38,6.69t-6,14.14q0,10.66,19.16,10.66Q494.53,226.56,494.53,214.91Z"/>
        <path d="M621,95.94q0,18-16.39,39.52l7.47,7.32-8.55,24.15a169.51,169.51,0,0,1-16.11-12.74q-37.85,35.26-57.62,35.26-3.91,0-13.43-2.93,29.77-14.4,62.25-38.08Q569,139.16,569,132.08q0-12.69,13.85-29.66t26-17Q621,85.45,621,95.94Zm-19.53,21.53q0-11.27-9.66-11.27l-3.72,1.47a11,11,0,0,0-2.73,7.35q0,4.89,11.65,14.44C600,124.41,601.46,120.4,601.46,117.47Z"/>
        <path d="M677.64,402.34l-12.46,46.42a36.07,36.07,0,0,1-19.28,5.59q-17.34,0-27.35-15.3-20.5,25.4-25.63,25.39-5.62,0-16.6-12.94-10.26-12-12.21-18.76-5.62,7.53-21,18l12.21-45.43Q566.55,394.79,589,374q2.44,0,24.17,18.31t37.11,18.31A46.77,46.77,0,0,0,677.64,402.34Z"/>
        <path d="M704.49,52.25q0,19-15.07,35.4T655.25,104q-20.1,0-20.1-17.57,0-19.79,14-38.33,15.18-20.26,34.3-20.27,8.58,0,15.19,8.06A26.15,26.15,0,0,1,704.49,52.25ZM688.62,68.42q0-5.94-8-12.89t-13.88-7q-7.37,0-13.38,6.7t-6,14.14q0,10.67,19.16,10.66Q688.62,80.08,688.62,68.42Z"/>
        <path d="M751.61,248.29q0,68.85-17.33,113.77-21,53.71-71.78,88.87l12.21-45.66Q737,355.47,737,305.18q0-37.6-23.68-91.07-4.59,23.92-13.77,71.53-3.87,20.52-6.52,20.51l-2.18-.73-.48-3.17q0-19.78,10.21-74.22Q711.25,169.19,719,160.4q13.38,8.31,23.59,40.28Q751.61,228.28,751.61,248.29Z"/>
        <path d="M799.46,41q-5.13,16.6-14.16,21l-85.45,42q3.9-15.14,22.95-24.65Z"/>
        <path d="M102.93,343.25q21.48-24.9,56.88-56.4,27.84-24.41,55.67-48.58,35.88-32,64-87.9L279,147.2,276,148.91q-32.46,50.81-59.81,75l-63,53.75q-36.61,32-57.86,58.87Q30.17,419.08,30.17,506.79q0,85.24,57.3,85.25,43.4,0,85.82-46.7,41.46-45.72,41.45-89.73,0-15.89-7.08-21.76-4.87-4.16-22.46-6.6-20.26-3.18-27.34-6.12-13.19-5.62-13.18-18.11,0-17.86,23.75-43.33t41.63-25.46q13.47,0,13.47,10.28l2.18,3.18q5.55-2.18,13.29-17.26,6.76-13.62,8-21.89-10.5-13.37-29.54-13.37-12.45,0-33.94,21.69-16.85,16.83-27.1,33.16-31.24,48.53-31.25,90.45,0,20.23,17.16,27.8,7.59,3.41,32.1,6.1,17.15,2.22,17.15,9.07,0,16.65-31.79,40t-52.59,23.4q-54.54,0-54.53-54.45,0-44.19,8.54-74Q72.66,378.9,102.93,343.25Z"/>
        <path d="M143.46,228.87q20.52,0,45-11.49Q217,203.67,217,185.58q0-7.34-8.71-7.34-12.1,0-12.1-3.42,0-6.12,7.3-6.12a11.82,11.82,0,0,1,4.86,1q2.44-1.69,6.94-10.28t5.23-12.2a15,15,0,0,0-5.39-1.69q-10.29,0-23.77,17.88t-13.48,28.35q0,9.49,9.65,9.25,7.66-.24,8.42,1.22Q192,207.6,170.2,215.66l-29.92,10.28C140.28,227.9,141.34,228.87,143.46,228.87Z"/>
        <path d="M476.22,495.36q-21,32.24-22,34.43l21.48,14.89q11-10,22.71-33Q498.44,503.42,476.22,495.36Z"/>
        <path d="M503.56,429.2q-10,0-14.16-2.69,19.05-26.11,19.05-43.94a42.39,42.39,0,0,0-.74-8.3Q494,389.9,480.86,405l-12.21,45.32,6.59-5.17q9.76,18,30.76,17.95,19.79,0,40.29-15l12.45-46.53q-9.76,9.76-25.64,18.31Q515.28,429.21,503.56,429.2Z"/>
        <path d="M803.86,121.58q0-7.32-8.79-7.32-12.21,0-12.21-3.42,0-6.11,7.32-6.1a12,12,0,0,1,4.89,1Q797.5,104,802,95.44c3-5.72,4.77-9.79,5.25-12.21a15.14,15.14,0,0,0-5.4-1.69q-10.32,0-23.82,17.83t-13.5,28.32q0,9.51,9.65,9.27c5.11-.16,7.92.25,8.41,1.22q-3.9,5.38-25.63,13.43l-29.79,10.26q0,2.92,3.18,2.92,20.5,0,44.92-11.47Q803.85,139.66,803.86,121.58Z"/>
        <path d="M871.54,242.92a525.35,525.35,0,0,0-44.78-103q-15.09,45.42-15.09,136,0,48.83,8,50.29,5.54-2.69,5.54-28.07,0-13.68,6.27-60.55Q843.72,260.74,858,299.8q16.21,44.68,16.21,63,0,25.63-15.38,50.78-9,14.9-33.45,42.24L804.1,478q-12.45,13.43-17.82,24.41c.16,1.31,1,1.95,2.44,1.95s4.86-1,10.22-2.93q57-20.74,75.75-54.93Q890.53,418,890.53,353,890.53,303.71,871.54,242.92Z"/>
      </g>
    </g>
  </g>
</svg>
