<?xml version="1.0" encoding="utf-8"?>
<!-- Generator: Adobe Illustrator 22.1.0, SVG Export Plug-In . SVG Version: 6.00 Build 0)  -->
<svg version="1.1" id="Layer_1" xmlns="http://www.w3.org/2000/svg" xmlns:xlink="http://www.w3.org/1999/xlink" x="0px" y="0px"
	 viewBox="0 0 890.5 691.9" style="enable-background:new 0 0 890.5 691.9;" xml:space="preserve">
<title>EH-Asset 59-layername</title>
<g id="Layer_2_1_">
	<g id="ElMubdiu">
		<g>
			<path d="M104.6,10.5c0-7-4-10.5-12.2-10.5c-8.1,0-16.8,5.7-26,17c-0.6,0.7-1.1,1.4-1.6,2c2.2,1.1,4.4,2.2,6.5,3.6
				c0.1-0.2,0.2-0.3,0.4-0.5l3.7-1.5c6.4,0,9.7,3.8,9.7,11.3c0,3-1.5,7-4.5,12C72.9,37.6,69,32.8,69,29.6c0-2.5,0.8-4.9,2.4-6.9
				c-2-1.4-4.2-2.5-6.5-3.6c-8.2,10.5-12.2,19.7-12.2,27.6c0,4.7,3.2,10.2,9.6,16.4C40.6,78.8,19.9,91.5,0,101.1
				c6.3,2,10.8,2.9,13.4,2.9c13.2,0,32.4-11.8,57.6-35.3c5.1,4.6,10.5,8.8,16.1,12.7l8.5-24.1L88.2,50
				C99.2,35.7,104.6,22.5,104.6,10.5z"/>
			<path d="M319.2,628.9c-3.4,11.1-8.1,18.1-14.2,21l-85.4,42c2.6-10.1,10.3-18.3,23-24.7L319.2,628.9z"/>
			<path d="M485.3,401.4l-12.5,46.5c-8.8,6.2-18.2,11.5-28.1,16c-13.2,6.2-23.1,9.3-29.8,9.3c-18.1,0-27.1-13.6-27.1-40.8
				c0.1-5.3,0.6-10.6,1.5-15.9h-2c-1,0-3.3,2.2-7,6.7c-3.7,4.5-10.7,16.4-21,35.7c-24.6,45.7-47.5,73.8-68.6,84.2
				c-12.4,6-23.2,9.8-32.5,11.5c-7,1.3-18.6,2-34.7,2c-9.2-0.2-18.4-0.9-27.6-2c-14.2-1.7-22.5-3.5-24.9-5.5l0.7-1.5l3.4-2
				c24.6,0,44.6-2.5,60.1-7.6s33-14.9,52.8-29.6c21.1-15.6,36.1-29.9,44.9-42.7c11.2-18.2,22.5-36.5,33.7-54.9
				c16.6-25.7,29.6-40.6,38.8-44.7l2.4,2.2l0.5,2.4c-0.5,1.6-1.2,5-2.2,10.3c-1.6,8.4-2.5,16.9-2.4,25.4c0,17.4,7.2,26.1,21.7,26.1
				C440.3,432.6,460.2,422.2,485.3,401.4z"/>
			<path d="M504.5,182.4c-4.4-5.4-9.5-8-15.2-8c-12.7,0-24.2,6.7-34.3,20.3c-0.1,0.1-0.2,0.2-0.3,0.3c2.1,1.6,4.2,3.4,6.1,5.2
				c3.6-3.4,7.5-5,11.8-5c3.9,0,8.5,2.3,13.9,6.9c5.3,4.6,8,8.9,8,12.9c0,7.8-7.4,11.7-22.1,11.7c-12.8,0-19.2-3.6-19.2-10.7
				c0-5,2-9.7,6-14.1c0.5-0.6,1.1-1.1,1.6-1.7c-1.9-1.8-4-3.5-6.1-5.2c-9.2,12.3-13.7,24.9-13.7,38c0,11.7,6.7,17.6,20.1,17.6
				c12.7,0,24.1-5.5,34.2-16.4s15.1-22.7,15.1-35.4C510.4,192.8,508.3,187,504.5,182.4z"/>
			<path d="M621,95.9c0-7-4-10.5-12.2-10.5c-8.1,0-16.8,5.7-26,17c-0.2,0.2-0.3,0.4-0.5,0.6c2,1.5,3.7,3.2,5.3,5.1
				c0.1-0.2,0.3-0.4,0.4-0.5l3.7-1.5c6.4,0,9.7,3.8,9.7,11.3h0c0,2.9-1.5,6.9-4.4,12c-7.8-6.4-11.7-11.2-11.7-14.4
				c0-2.5,0.8-4.9,2.3-6.8c-1.6-1.9-3.4-3.6-5.3-5.1c-8.9,11-13.3,20.7-13.3,29c0,4.7,3.2,10.2,9.6,16.4
				c-21.7,15.8-42.4,28.5-62.3,38.1c6.3,2,10.8,2.9,13.4,2.9c13.2,0,32.4-11.8,57.6-35.3c5.1,4.6,10.5,8.8,16.1,12.7l8.5-24.1
				l-7.5-7.3C615.5,121.1,621,107.9,621,95.9z"/>
			<path d="M677.6,402.3l-12.5,46.4c-5.8,3.7-12.5,5.6-19.3,5.6c-11.6,0-20.7-5.1-27.3-15.3c-13.7,16.9-22.2,25.4-25.6,25.4
				c-3.7,0-9.3-4.3-16.6-12.9c-6.8-8-10.9-14.3-12.2-18.8c-3.7,5-10.7,11-21,18l12.2-45.4c7.5-7,18.7-17.4,33.7-31.3
				c1.6,0,9.7,6.1,24.2,18.3c14.5,12.2,26.9,18.3,37.1,18.3C660,410.8,669.6,407.9,677.6,402.3z"/>
			<path d="M698.6,35.9c-4.4-5.4-9.5-8.1-15.2-8.1c-12.5,0-23.7,6.5-33.7,19.5c2.2,1.6,4.4,3.3,6.5,5.1c3.2-2.6,6.7-3.9,10.5-3.9
				c3.9,0,8.5,2.4,13.9,7c5.3,4.6,8,8.9,8,12.9c0,7.8-7.4,11.6-22.1,11.6c-12.8,0-19.2-3.5-19.2-10.7c0-5,2-9.7,6-14.1
				c0.9-1.1,1.9-2,2.9-2.8c-2.1-1.8-4.3-3.5-6.5-5.1c-0.2,0.3-0.4,0.5-0.6,0.8c-9.3,12.4-14,25.1-14,38.3c0,11.7,6.7,17.6,20.1,17.6
				c12.7,0,24.1-5.4,34.2-16.3c10-10.9,15.1-22.7,15.1-35.4C704.5,46.3,702.4,40.5,698.6,35.9z"/>
			<path d="M751.6,248.3c0,45.9-5.8,83.8-17.3,113.8c-14,35.8-37.9,65.4-71.8,88.9l12.2-45.7c41.5-33.2,62.3-66.6,62.3-100.1
				c0-25.1-7.9-55.4-23.7-91.1c-3.1,15.9-7.7,39.8-13.8,71.5c-2.6,13.7-4.8,20.5-6.5,20.5l-2.2-0.7l-0.5-3.2
				c0-13.2,3.4-37.9,10.2-74.2c7.1-39.2,13.3-61.8,18.4-67.6c8.9,5.5,16.8,19,23.6,40.3C748.6,219.1,751.6,234.9,751.6,248.3z"/>
			<path d="M799.5,41c-3.4,11.1-8.1,18.1-14.2,21l-85.5,42c2.6-10.1,10.3-18.3,23-24.7L799.5,41z"/>
			<path d="M102.9,343.3c14.3-16.6,33.3-35.4,56.9-56.4c18.6-16.3,37.1-32.5,55.7-48.6c23.9-21.3,45.3-50.6,64-87.9l-0.5-3.2l-3,1.7
				c-21.6,33.9-41.6,58.9-59.8,75l-63,53.8c-24.4,21.3-43.7,41-57.9,58.9c-43.4,55-65.2,111.8-65.2,170.3
				c0,56.8,19.1,85.2,57.3,85.3c28.9,0,57.5-15.6,85.8-46.7c27.6-30.5,41.5-60.4,41.4-89.7c0-10.6-2.4-17.8-7.1-21.8
				c-3.2-2.8-10.7-5-22.5-6.6c-13.5-2.1-22.6-4.2-27.3-6.1c-8.8-3.7-13.2-9.8-13.2-18.1c0-11.9,7.9-26.4,23.8-43.3
				c15.8-17,29.7-25.5,41.6-25.5c9,0,13.5,3.4,13.5,10.3l2.2,3.2c3.7-1.5,8.1-7.2,13.3-17.3c4.5-9.1,7.2-16.4,8-21.9
				c-7-8.9-16.8-13.4-29.5-13.4c-8.3,0-19.6,7.2-33.9,21.7c-11.2,11.2-20.3,22.3-27.1,33.2c-20.8,32.4-31.2,62.5-31.3,90.4
				c0,13.5,5.7,22.8,17.2,27.8c5.1,2.3,15.8,4.3,32.1,6.1c11.4,1.5,17.1,4.5,17.1,9.1c0,11.1-10.6,24.4-31.8,40
				s-38.7,23.4-52.6,23.4c-36.4,0-54.5-18.2-54.5-54.5c0-29.5,2.8-54.1,8.5-74C68.8,392.1,82.8,367,102.9,343.3z"/>
			<path d="M143.5,228.9c13.7,0,28.7-3.8,45-11.5c19-9.1,28.5-19.7,28.5-31.8c0-4.9-2.9-7.3-8.7-7.3c-8.1,0-12.1-1.1-12.1-3.4
				c0-4.1,2.4-6.1,7.3-6.1c1.7,0,3.3,0.3,4.9,1c1.6-1.1,3.9-4.6,6.9-10.3s4.7-9.8,5.2-12.2c-1.7-0.9-3.5-1.5-5.4-1.7
				c-6.9,0-14.8,6-23.8,17.9c-9,11.9-13.5,21.4-13.5,28.4c0,6.3,3.2,9.4,9.6,9.3c5.1-0.2,7.9,0.2,8.4,1.2
				c-2.6,3.6-11.2,8.1-25.7,13.4l-29.9,10.3C140.3,227.9,141.3,228.9,143.5,228.9z"/>
			<path d="M476.2,495.4c-14,21.5-21.3,33-22,34.4l21.5,14.9c7.3-6.7,14.9-17.7,22.7-33C498.4,506.2,491,500.7,476.2,495.4z"/>
			<path d="M503.6,429.2c-6.7,0-11.4-0.9-14.2-2.7c12.7-17.4,19-32.1,19-43.9c0-2.8-0.2-5.6-0.7-8.3c-9.1,10.4-18.1,20.7-26.9,30.7
				l-12.2,45.3l6.6-5.2c6.5,12,16.8,18,30.8,18c13.2,0,26.6-5,40.3-15l12.5-46.5c-6.5,6.5-15.1,12.6-25.6,18.3
				C521.2,426.1,511.4,429.2,503.6,429.2z"/>
			<path d="M803.9,121.6c0-4.9-2.9-7.3-8.8-7.3c-8.1,0-12.2-1.1-12.2-3.4c0-4.1,2.4-6.1,7.3-6.1c1.7,0,3.3,0.3,4.9,1
				c1.6-1.2,3.9-4.6,6.9-10.3c3-5.7,4.8-9.8,5.3-12.2c-1.7-0.9-3.5-1.5-5.4-1.7c-6.9,0-14.8,5.9-23.8,17.8s-13.5,21.3-13.5,28.3
				c0,6.3,3.2,9.4,9.7,9.3c5.1-0.2,7.9,0.3,8.4,1.2c-2.6,3.6-11.1,8.1-25.6,13.4l-29.8,10.3c0,1.9,1.1,2.9,3.2,2.9
				c13.7,0,28.6-3.8,44.9-11.5C794.3,144.2,803.9,133.6,803.9,121.6z"/>
			<path d="M871.5,242.9c-11.2-35.8-26.2-70.4-44.8-103c-10.1,30.3-15.1,75.6-15.1,136c0,32.6,2.7,49.3,8,50.3
				c3.7-1.8,5.5-11.2,5.5-28.1c0-9.1,2.1-29.3,6.3-60.6c8.2,15.4,17,36.2,26.5,62.2c10.8,29.8,16.2,50.8,16.2,63
				c0,17.1-5.1,34-15.4,50.8c-6,9.9-17.2,24-33.5,42.2L804.1,478c-8.3,9-14.2,17.1-17.8,24.4c0.2,1.3,1,2,2.4,2s4.9-1,10.2-2.9
				c38-13.8,63.3-32.1,75.8-54.9c10.6-19,15.8-50.2,15.8-93.5C890.5,320.1,884.2,283.4,871.5,242.9z"/>
		</g>
	</g>
</g>
</svg>
