<?xml version="1.0" encoding="utf-8"?>
<!-- Generator: Adobe Illustrator 22.1.0, SVG Export Plug-In . SVG Version: 6.00 Build 0)  -->
<svg version="1.1" id="Layer_1" xmlns="http://www.w3.org/2000/svg" xmlns:xlink="http://www.w3.org/1999/xlink" x="0px" y="0px"
	 viewBox="0 0 1060.4 566.7" style="enable-background:new 0 0 1060.4 566.7;" xml:space="preserve">
<title>EH-Asset 5-layername</title>
<g id="Layer_2_1_">
	<g id="ElKudus">
		<g>
			<path d="M104.6,95.9c0-7-4-10.5-12.2-10.5c-7.9,0-16.4,5.5-25.4,16.3c1.5,2.1,2.9,4.2,4.4,6.3c0.1-0.1,0.2-0.2,0.3-0.3l3.7-1.5
				c6.4,0,9.7,3.8,9.7,11.3c0,2.9-1.5,6.9-4.5,12C72.9,123.1,69,118.3,69,115c0-2.6,0.9-5,2.5-7c-1.4-2.1-2.9-4.2-4.4-6.3
				c-0.2,0.2-0.4,0.5-0.6,0.7c-9.2,11.3-13.9,21.2-13.9,29.7c0,4.7,3.2,10.2,9.6,16.4C40.6,164.2,19.9,176.9,0,186.5
				c6.3,2,10.8,2.9,13.4,2.9c13.2,0,32.4-11.8,57.6-35.3c5.1,4.6,10.5,8.8,16.1,12.7l8.5-24.1l-7.5-7.3
				C99.2,121.2,104.6,108,104.6,95.9z"/>
			<path d="M377.3,176.3l-5.3,8.8c-10.4,6.5-37.6,20.2-81.5,41c-47.7,22.6-79.5,38.3-95.5,47.1c-45.3,25.2-78.2,49.1-98.7,71.8
				c-28.5,31.4-42.7,67.9-42.7,109.6c0,49.3,18.3,74,54.9,74c21.2,0,44.2-11.2,69.1-33.5c25.2-23,37.9-45,37.9-65.9
				c0-18.3-4.5-32-13.4-41.1c-6-4.6-11.9-9.1-17.8-13.5c4.4-12.5,9.5-24.7,15.3-36.6c9.9,4.1,19.2,12.7,28,25.9
				c3.5,1.1,7.1,1.7,10.7,1.7c16.9,0,30.9-6.4,41.9-19.3c10.5-12,15.7-26.4,15.3-43c1.8-3.7,3.5-5.6,5.1-5.6l1.2,0.5
				c-1.8,13.3-2.5,23.7-2.2,31l2.4,1.2c5.2,0,10.8-4.8,16.8-14.4c5.7-8.9,9.3-19,10.5-29.5c1.9-17.9,3.3-28.1,3.9-30.5
				c0.8-3.4,2.2-5.1,4.1-5.1c2.3,0,3.4,5.6,3.4,16.8c0,66.4-18.7,102.7-56.1,108.9c-3.7,7.3-10.2,13.7-19.3,19s-17.8,8-26.1,7.9
				c-3.3,0-5.7-0.4-7.3-1.2c-2,34-13.4,68.3-34.4,102.8c-25.2,41.2-54.6,61.8-88.1,61.7c-23.6,0-41.7-10.8-54.2-32.3
				c-10.1-17.7-15.1-39.4-15.1-64.9c0-47.2,14.3-88.6,43-124.3c23.8-29.8,59.1-57.2,106-82.3c18.9-10.1,50.5-24.4,95-43
				C325.6,202.7,356.7,188.2,377.3,176.3z"/>
			<path d="M500.9,342.5c0,33.5-13.5,71.1-40.5,112.8c-27.8,42.5-56.7,68.7-86.7,78.9c-21.7,7.3-52.9,11-93.8,11
				c-11.9,0-17.8-1.5-17.8-4.6c0-1.5,6.4-3.8,19.3-7.1c19.1-4.7,33.3-8.7,42.7-12c29.1-10.1,56.7-25.5,82.6-46.3
				s46.6-44.1,61.9-70.2c10.6-17.9,15.9-32.7,15.9-44.4c0-3.3-1.2-8.4-3.7-15.4c-9.1,10.1-19.7,15.1-31.7,15.1
				c-5.3,0-10.4-1.7-14.6-4.9c-4.2-2.9-6.7-7.6-6.6-12.7c0-10.9,6.4-28,19.3-51.3c3.9-7.2,9.6-10.7,17.1-10.7
				C488.7,280.8,500.9,301.4,500.9,342.5z"/>
			<path d="M562.4,93.7l-7.3-5.4c9.8-10.3,14.6-17.5,14.7-21.6c0-4.1-1.5-8-4-11.2c-2.7-3.5-5.9-5.3-9.6-5.3c-4,0-8,0.9-12.1,2.8
				c0.4,2.6,0.6,5.3,0.8,8c0,0,0.1,0,0.1,0c5.1,2,7.7,4.9,7.7,8.8c0,3.7-1.8,8.3-5.3,13.7c-7.1-5.5-10.6-10-10.6-13.4
				c0-5.9,2.7-8.9,8-9c-0.1-2.7-0.4-5.4-0.8-8c-4.4,2-8.8,5.1-13.3,9.3c-8.6,8.1-13,16.2-13,24.4l1,5.9c1.9,3,4,5.7,6.4,8.3
				c-19.4,11.4-38.5,19.4-57.4,24c5.5,3.3,10.4,4.9,14.4,4.9c10.4,0,27.7-8,51.9-23.9c10.4,4.6,18.8,6.9,25,7.1
				c2.6-8.3,3.8-13.6,3.7-15.7L562.4,93.7z"/>
			<path d="M521.9,150.3c-6.3,0-9.3-3.8-9-11.4l0.2-4.9l-6.3,1.5c-12.1,19.2-21.8,28.9-29.3,28.9c-5.2,0-7.8-3-7.8-9l1.7-10.9
				l-5.1,0.5c-8,10.9-12,20.7-12,29.4l1.7,8.6c3.4,4.4,7.5,6.6,12.2,6.6c12.7,0,22.8-6.6,30.4-19.7c3.9,4.2,7.1,6.2,9.7,6.2
				c21.6,0,36.9-17.5,46-52.5l-6.1,1.4C539.6,141.8,530.8,150.3,521.9,150.3z"/>
			<path d="M719.6,401.4l-12.5,46.5c-8.8,6.2-18.2,11.5-28.1,16c-13.2,6.2-23.1,9.3-29.8,9.3c-18.1,0-27.1-13.6-27.1-40.8
				c0.1-5.3,0.6-10.6,1.5-15.9h-2c-1,0-3.3,2.2-7,6.7S604,439.7,593.7,459c-24.6,45.7-47.4,73.8-68.6,84.2
				c-12.4,6-23.2,9.8-32.5,11.5c-7,1.3-18.6,2-34.7,2c-9.2-0.2-18.4-0.9-27.6-2c-14.2-1.7-22.5-3.5-24.9-5.5l0.7-1.5l3.4-2
				c24.6,0,44.6-2.5,60.1-7.6c15.5-5,33-14.9,52.7-29.5c21.2-15.6,36.1-29.9,44.9-42.7c11.2-18.2,22.5-36.5,33.7-54.9
				c16.6-25.7,29.6-40.6,38.8-44.7l2.4,2.2l0.5,2.4c-0.5,1.6-1.2,5-2.2,10.3c-1.6,8.4-2.5,16.9-2.5,25.4c0,17.4,7.2,26.1,21.7,26.1
				C674.6,432.6,694.5,422.2,719.6,401.4z"/>
			<path d="M780.4,10.5c0-7-4.1-10.5-12.2-10.5c-8.1,0-16.8,5.7-26,17c0,0-0.1,0.1-0.1,0.1c1.5,2.1,2.9,4.3,4.2,6.6
				c0.3-0.5,0.7-1.1,1.1-1.6l3.7-1.5c6.4,0,9.7,3.8,9.7,11.3c0,3-1.5,7-4.5,12c-7.8-6.4-11.7-11.2-11.7-14.4c0-2.1,0.5-4.1,1.6-5.8
				c-1.3-2.3-2.7-4.5-4.2-6.6c-9.2,11.3-13.7,21.1-13.7,29.5c0,4.7,3.2,10.2,9.6,16.4c-21.6,15.8-42.4,28.5-62.2,38.1
				c6.3,2,10.8,2.9,13.4,2.9c13.2,0,32.4-11.8,57.7-35.3c5.1,4.6,10.5,8.8,16.1,12.7l8.5-24.1L764,50
				C775,35.7,780.4,22.5,780.4,10.5z"/>
			<path d="M790.6,421.4c-20.2,0-33.1-4.2-38.8-12.5c22.4-25.7,33.6-46.5,33.5-62.3c0-20.7-4.7-31-14.1-31
				c-4.5,0-11.4,3.6-20.4,10.8s-17.5,17.6-25.3,31.3c-3,5.2-5.4,10.2-7.3,14.9c3.8,0,7.6,0,11.5,0c1.2-2.9,4.7-6.9,10.6-12.1
				c7.4-6.5,12.6-9.7,15.7-9.7c8.5,0,12.8,3.2,12.8,9.5c0,9.2-10.4,19.2-31.2,29.9c-5.6-6.5-8.4-11.7-8.3-15.6c0-0.6,0.2-1.3,0.5-2
				c-3.8,0-7.6,0-11.5,0c-3.4,8.4-5.1,16-5.1,22.7c0,3.1,0.4,6.3,1.2,9.3l-12.5,46.9c9.7-6.9,19-14.4,27.8-22.3
				c9.9,11.6,17.7,19.6,23.4,23.8c9,6.7,20,10.4,31.3,10.3c18.4,0.1,36.4-5.2,51.8-15.4l12.7-47.3
				C830.8,414.5,811.4,421.4,790.6,421.4z"/>
			<path d="M804.9,229c2-8.3,3.3-14.6,4.2-18.8c-23.8,14.7-42.3,24.7-55.7,30c-10.1,20-15.1,32.1-15.1,36.4l0.2,2.9
				C779.7,259,801.8,242.2,804.9,229z"/>
			<path d="M868.6,35.9c-4.4-5.4-9.5-8.1-15.2-8.1c-12.7,0-24.2,6.8-34.3,20.3c-0.1,0.1-0.1,0.1-0.1,0.2c2.1,1.7,4.1,3.4,6.2,5
				c3.5-3.2,7.3-4.8,11.5-4.8c3.9,0,8.5,2.4,13.9,7c5.3,4.6,8,8.9,8,12.9c0,7.8-7.4,11.6-22.1,11.6c-12.8,0-19.2-3.5-19.2-10.7
				c0-5,2-9.7,6-14.1c0.6-0.7,1.3-1.3,1.9-1.9c-2.1-1.6-4.2-3.3-6.2-5c-9.2,12.3-13.9,25-13.9,38.1c0,11.7,6.7,17.6,20.1,17.6
				c12.7,0,24.1-5.4,34.2-16.3c10-10.9,15.1-22.7,15.1-35.4C874.4,46.3,872.3,40.5,868.6,35.9z"/>
			<path d="M921.5,248.3c0,45.9-5.8,83.8-17.3,113.8c-14,35.8-37.9,65.4-71.8,88.9l12.2-45.7c41.5-33.2,62.3-66.6,62.3-100.1
				c0-25.1-7.9-55.4-23.7-91.1c-3.1,15.9-7.7,39.8-13.8,71.5c-2.6,13.7-4.8,20.5-6.5,20.5l-2.2-0.7l-0.5-3.2
				c0-13.2,3.4-37.9,10.2-74.2c7.1-39.2,13.3-61.8,18.5-67.6c8.9,5.5,16.8,19,23.6,40.3C918.5,219.1,921.5,234.9,921.5,248.3z"/>
			<path d="M969.4,41c-3.4,11.1-8.1,18.1-14.2,21l-85.5,42c2.6-10.1,10.3-18.3,23-24.7L969.4,41z"/>
			<path d="M973.8,121.6c0-4.9-2.9-7.3-8.8-7.3c-8.1,0-12.2-1.1-12.2-3.4c0-4.1,2.4-6.1,7.3-6.1c1.7,0,3.3,0.3,4.9,1
				c1.6-1.1,4-4.6,7-10.3c3-5.7,4.8-9.8,5.3-12.2c-1.7-0.9-3.5-1.5-5.4-1.7c-6.9,0-14.8,5.9-23.8,17.8c-9,11.9-13.5,21.3-13.5,28.3
				c0,6.3,3.2,9.4,9.7,9.3c5.1-0.2,7.9,0.3,8.4,1.2c-2.6,3.6-11.1,8.1-25.6,13.4l-29.8,10.3c0,1.9,1.1,2.9,3.2,2.9
				c13.7,0,28.6-3.8,44.9-11.5C964.3,144.2,973.8,133.6,973.8,121.6z"/>
			<path d="M1041.5,242.9c-11.2-35.8-26.2-70.4-44.8-103c-10.1,30.3-15.1,75.6-15.1,136c0,32.6,2.7,49.3,8,50.3
				c3.7-1.8,5.5-11.2,5.5-28.1c0-9.1,2.1-29.3,6.3-60.6c8.2,15.5,17,36.2,26.5,62.2c10.8,29.8,16.2,50.8,16.2,63
				c0,17.1-5.1,34-15.4,50.8c-6,9.9-17.2,24-33.5,42.2L974,478c-8.3,9-14.2,17.1-17.8,24.4c0.2,1.3,1,2,2.4,2s4.9-1,10.2-2.9
				c38-13.8,63.3-32.1,75.8-54.9c10.6-19,15.8-50.2,15.8-93.5C1060.4,320.1,1054.1,283.4,1041.5,242.9z"/>
		</g>
	</g>
</g>
</svg>
