<svg xmlns="http://www.w3.org/2000/svg" viewBox="0 0 1060.45 566.65">
  <title>EH-Asset 5-layername</title>
  <g id="Layer_2" data-name="Layer 2">
    <g id="ElKudus">
      <g>
        <path d="M104.64,95.94q0,18.06-16.4,39.52l7.47,7.32-8.54,24.15a168.32,168.32,0,0,1-16.12-12.74q-37.84,35.26-57.62,35.26-3.91,0-13.43-2.93,29.79-14.4,62.26-38.08-9.63-9.28-9.63-16.36,0-12.69,13.86-29.66t26-17Q104.64,85.45,104.64,95.94ZM85.11,117.47q0-11.27-9.67-11.27l-3.72,1.47A11,11,0,0,0,69,115q0,4.89,11.65,14.44Q85.11,121.87,85.11,117.47Z"/>
        <path d="M377.34,176.27,372,185.06q-15.63,9.76-81.54,41Q218.9,260,195,273.19,127.1,311,96.34,345,53.6,392.09,53.61,454.59q0,74,54.93,74,31.74,0,69.09-33.54,37.85-34.53,37.85-65.87,0-27.43-13.43-41.14-9-6.86-17.82-13.47a333.88,333.88,0,0,1,15.34-36.65q14.87,6.11,28,25.88a35.05,35.05,0,0,0,10.72,1.71q25.33,0,41.9-19.29,15.82-18.06,15.34-43,2.68-5.61,5.13-5.61l1.22.49q-2.68,20-2.19,31l2.44,1.22q7.8,0,16.84-14.4a69.93,69.93,0,0,0,10.5-29.54q2.92-26.86,3.91-30.52,1.22-5.13,4.15-5.13,3.4,0,3.41,16.85,0,99.65-56.15,108.88-5.61,11-19.28,19t-26.13,7.94c-3.26,0-5.7-.4-7.32-1.22q-2.93,51-34.43,102.76-37.85,61.76-88.13,61.75-35.4,0-54.2-32.26-15.14-26.58-15.14-64.91,0-70.8,43-124.27,35.64-44.67,106-82.27,28.32-15.13,95-43Q346.33,194.1,377.34,176.27Z"/>
        <path d="M500.88,342.53q0,50.3-40.53,112.79Q418.6,519,373.68,534.18q-32.48,11-93.75,11-17.82,0-17.82-4.64,0-2.21,19.28-7.08,28.58-7.08,42.73-12,43.69-15.14,82.64-46.26T468.65,405q15.87-26.85,15.87-44.43,0-4.89-3.66-15.39-13.68,15.15-31.74,15.14a24,24,0,0,1-14.65-4.88,15.13,15.13,0,0,1-6.59-12.7q0-16.35,19.29-51.27,5.85-10.74,17.09-10.74Q500.88,280.76,500.88,342.53Z"/>
        <path d="M562.4,93.67l-7.3-5.39q14.64-15.44,14.65-21.56a18.12,18.12,0,0,0-4-11.16q-4-5.27-9.64-5.27-12.47,0-25.41,12.13T517.72,86.79l1,5.88a58.08,58.08,0,0,0,6.43,8.32q-29.08,17.16-57.44,24,8.32,4.89,14.44,4.88,15.66,0,51.88-23.92,15.65,6.84,25,7.08,3.91-12.5,3.67-15.69ZM547.34,83.5q-10.58-8.31-10.57-13.43,0-9,8.17-9,7.69,2.93,7.69,8.78Q552.63,75.44,547.34,83.5Z"/>
        <path d="M521.87,150.25q-9.51,0-9-11.4l.24-4.85-6.34,1.46q-18.08,28.85-29.3,28.85-7.81,0-7.81-9l1.71-10.91-5.06.49q-12,16.4-12,29.36l1.7,8.57q5.12,6.6,12.18,6.6,19,0,30.44-19.66,5.85,6.24,9.74,6.24,32.4,0,46-52.49l-6.1,1.45Q535.3,150.25,521.87,150.25Z"/>
        <path d="M719.63,401.37l-12.45,46.48a174.42,174.42,0,0,1-28.08,16q-19.77,9.35-29.79,9.33-27.09,0-27.1-40.77a111.59,111.59,0,0,1,1.47-15.87h-1.95q-1.47,0-7,6.72T593.65,459q-36.87,68.61-68.6,84.23-18.56,9-32.47,11.48-10.5,1.95-34.67,1.95a266.1,266.1,0,0,1-27.59-2q-21.24-2.49-24.9-5.49l.73-1.5,3.42-2q36.87,0,60.06-7.56t52.73-29.55q31.74-23.43,44.92-42.72,16.85-27.35,33.69-54.93,24.94-38.58,38.82-44.68l2.44,2.2.49,2.44q-.74,2.44-2.19,10.25a131.5,131.5,0,0,0-2.45,25.39q0,26.13,21.73,26.13Q682,432.62,719.63,401.37Z"/>
        <path d="M780.42,10.49q0,18.06-16.4,39.52l7.48,7.32L763,81.48a169.58,169.58,0,0,1-16.12-12.74Q709,104,689.21,104q-3.91,0-13.43-2.93Q705.57,86.67,738,63q-9.63-9.29-9.62-16.36,0-12.69,13.85-29.66t26-17Q780.42,0,780.42,10.49ZM760.89,32q0-11.26-9.67-11.27l-3.72,1.47a11,11,0,0,0-2.73,7.35q0,4.89,11.65,14.44C759.4,39,760.89,35,760.89,32Z"/>
        <path d="M790.57,421.39q-30.27,0-38.82-12.45,33.56-38.58,33.55-62.26,0-31-14.11-31-6.81,0-20.44,10.76t-25.31,31.29q-12.41,22-12.4,37.65a35.14,35.14,0,0,0,1.2,9.29l-12.45,46.93a307.64,307.64,0,0,0,27.79-22.34q14.86,17.43,23.39,23.81a51.87,51.87,0,0,0,31.25,10.32A93,93,0,0,0,836,448l12.69-47.25Q821.82,421.38,790.57,421.39ZM737.5,390.24q-8.36-9.72-8.35-15.57,0-4.38,11.05-14.11t15.72-9.73q12.78,0,12.78,9.49Q768.7,374.18,737.5,390.24Z"/>
        <path d="M804.89,229q2.93-12.45,4.15-18.79-35.65,22-55.66,30-15.15,30-15.14,36.38l.24,2.93Q800.25,248.77,804.89,229Z"/>
        <path d="M874.41,52.25q0,19-15.07,35.4T825.17,104q-20.1,0-20.09-17.57,0-19.79,14-38.33,15.19-20.26,34.3-20.27,8.58,0,15.19,8.06A26.15,26.15,0,0,1,874.41,52.25ZM858.54,68.42q0-5.94-8-12.89t-13.88-7q-7.36,0-13.38,6.7t-6,14.14q0,10.67,19.16,10.66Q858.53,80.08,858.54,68.42Z"/>
        <path d="M921.53,248.29q0,68.85-17.33,113.77-21,53.71-71.78,88.87l12.21-45.66q62.25-49.8,62.25-100.09,0-37.6-23.68-91.07-4.59,23.92-13.77,71.53-3.87,20.52-6.52,20.51l-2.17-.73-.49-3.17q0-19.78,10.21-74.22Q881.17,169.19,889,160.4q13.37,8.31,23.58,40.28Q921.53,228.28,921.53,248.29Z"/>
        <path d="M969.38,41q-5.13,16.6-14.16,21l-85.45,42q3.91-15.14,23-24.65Z"/>
        <path d="M973.78,121.58q0-7.32-8.79-7.32-12.21,0-12.21-3.42,0-6.11,7.33-6.1a12,12,0,0,1,4.88,1q2.43-1.69,7-10.27t5.25-12.21a15.23,15.23,0,0,0-5.41-1.69q-10.31,0-23.82,17.83t-13.5,28.32q0,9.51,9.65,9.27c5.11-.16,7.92.25,8.41,1.22q-3.9,5.38-25.63,13.43l-29.79,10.26q0,2.92,3.18,2.92,20.51,0,44.92-11.47Q973.77,139.66,973.78,121.58Z"/>
        <path d="M1041.46,242.92a525.35,525.35,0,0,0-44.78-103q-15.09,45.42-15.09,136,0,48.83,8,50.29,5.54-2.69,5.54-28.07,0-13.68,6.28-60.55,12.27,23.19,26.51,62.25,16.21,44.68,16.21,63,0,25.63-15.38,50.78-9,14.9-33.45,42.24L974,478q-12.45,13.43-17.82,24.41c.16,1.31,1,1.95,2.44,1.95s4.86-1,10.22-2.93q57-20.74,75.76-54.93,15.83-28.56,15.83-93.5Q1060.45,303.71,1041.46,242.92Z"/>
      </g>
    </g>
  </g>
</svg>
