<svg xmlns="http://www.w3.org/2000/svg" viewBox="0 0 841.06 699.46">
  <title>EH-Asset 61-layername</title>
  <g id="Layer_2" data-name="Layer 2">
    <g id="ElMuhji">
      <g>
        <path d="M233.89,374l-12.7,46.63q-20.5,12.71-41,25.64-37.37,24.9-37.36,33,0,14.89,30,26.12,21,7.58,21,21,0,51-42.83,109.86-45.78,63.22-94.73,63.23Q0,699.46,0,627a200.39,200.39,0,0,1,16.63-79.59q11.75-27.58,39.14-67.14Q93.2,425.79,101,412.6q14.43-24.42,31.55-81.55l3.9,1.71q-2.68,31.5-27.34,84.72-9.76,21-37.11,59.81-29.79,41.76-40,61.53-18.8,35.64-18.8,66.4,0,25.88,16.85,40.29,15.87,13.43,42.24,13.43,24.17,0,66-39.92t41.87-61.4q0-5.86-13.19-10-18.3-5.62-24.17-9.77-13.19-9-13.18-27.34,0-61.77,28.32-84.23Q183.6,408.69,233.89,374Z"/>
        <path d="M285.4,601.07q-5.13,16.6-14.16,21l-85.45,42q3.9-15.13,23-24.66Z"/>
        <path d="M329.83,109.86q0,19-15.06,35.4t-34.18,16.36q-20.1,0-20.09-17.58,0-19.77,14-38.33,15.19-20.25,34.31-20.26,8.57,0,15.19,8.06A26.15,26.15,0,0,1,329.83,109.86ZM314,126q0-6-8-12.9t-13.87-6.94q-7.38,0-13.39,6.7t-6,14.13q0,10.66,19.15,10.67Q314,137.7,314,126Z"/>
        <path d="M509.49,374.46,497,421q-30,18.51-59.81,18.5-25.89,0-42-19-15.33-18-15.33-44.13,0-12.44,4.38-31.95Q351.92,369,314.94,401.29q-7.57,38.58-6.59,64.95l-2.2,4.15-1.22.73-1.22-1.22V439.38l2-30.27q-5.85,4.61-17.57,13.35l12.45-45.86,9-8.54q11.76-54.39,22-73.42,20.08-37.06,61.21-37.07,10.76,0,31.63,6.19t31.86,6.18a76.74,76.74,0,0,0,32.23-6.79q-4.39,23.44-15.63,39.32-49.32,10-75.44,33.21a112.59,112.59,0,0,0-1.74,19.78q0,18.81,13.92,30.28,12.93,10.74,32,10.74Q481.42,396.48,509.49,374.46Zm-106.66-72.2q-20.5-4.89-28.32-4.9-44.67,0-54.44,62.66,28.8-23.75,39.55-31.57Q382.57,311.56,402.83,302.26Z"/>
        <path d="M571.53,68.11q0,18-16.39,39.52l7.47,7.31-8.55,24.16a170.85,170.85,0,0,1-16.12-12.74q-37.85,35.27-57.62,35.26-3.9,0-13.42-2.93,29.78-14.4,62.25-38.08-9.61-9.28-9.62-16.36,0-12.69,13.85-29.67t26-17Q571.53,57.62,571.53,68.11ZM552,89.63q0-11.25-9.66-11.26l-3.72,1.47a10.94,10.94,0,0,0-2.73,7.34q0,4.91,11.65,14.45Q552,94,552,89.63Z"/>
        <path d="M628.17,374.51l-12.45,46.42a36.06,36.06,0,0,1-19.28,5.58q-17.34,0-27.35-15.29-20.51,25.39-25.63,25.39-5.62,0-16.6-12.94-10.26-12-12.21-18.76-5.62,7.53-21,18l12.21-45.43q11.22-10.49,33.69-31.25,2.44,0,24.17,18.31t37.11,18.31A46.74,46.74,0,0,0,628.17,374.51Z"/>
        <path d="M655,24.41q0,19-15.07,35.4T605.79,76.17q-20.1,0-20.1-17.58,0-19.77,14-38.33Q614.84,0,634,0q8.58,0,15.19,8.06A26.1,26.1,0,0,1,655,24.41ZM639.16,40.59q0-5.94-8-12.9T617.3,20.75q-7.37,0-13.38,6.7t-6,14.13q0,10.67,19.16,10.67Q639.16,52.25,639.16,40.59Z"/>
        <path d="M702.15,220.46q0,68.85-17.34,113.77-21,53.72-71.77,88.87l12.2-45.66q62.26-49.8,62.26-100.1,0-37.59-23.68-91.06-4.59,23.92-13.77,71.53-3.87,20.51-6.52,20.51l-2.18-.73-.48-3.18q0-19.77,10.21-74.21,10.7-58.84,18.48-67.63,13.38,8.3,23.59,40.28Q702.15,200.45,702.15,220.46Z"/>
        <path d="M750,13.18q-5.13,16.61-14.16,21l-85.45,42q3.9-15.14,23-24.66Z"/>
        <path d="M207.28,486.57q-15.89,32.24-15.63,39.8,14.35-7.57,21.41-11.72,29.92-17.08,33.82-21,9-9,15.33-36.62-28.93,17.58-36.46,20.75Q211.65,483.89,207.28,486.57Z"/>
        <path d="M248.15,401.37c-6.68,0-11.39-.9-14.16-2.69q18.94-26.12,18.94-43.94a42.43,42.43,0,0,0-.73-8.3q-13.6,15.62-26.71,30.76l-12.15,45.32,6.56-5.17q9.72,18,30.69,17.95,19.77,0,40.28-15l12.46-46.52q-9.78,9.77-25.64,18.31Q259.87,401.38,248.15,401.37Z"/>
        <path d="M754.39,93.75q0-7.32-8.78-7.32c-8.15,0-12.21-1.14-12.21-3.42q0-6.11,7.32-6.11a12,12,0,0,1,4.89,1q2.43-1.69,6.95-10.28t5.25-12.2a15.14,15.14,0,0,0-5.4-1.69q-10.32,0-23.82,17.82t-13.5,28.32q0,9.53,9.65,9.28,7.66-.24,8.41,1.22-3.92,5.37-25.63,13.43L677.73,134c0,2,1.06,2.93,3.17,2.93q20.52,0,44.93-11.47Q754.39,111.82,754.39,93.75Z"/>
        <path d="M822.08,215.09a525.35,525.35,0,0,0-44.78-103q-15.1,45.41-15.09,136,0,48.82,7.95,50.29,5.55-2.68,5.55-28.08,0-13.67,6.27-60.54Q794.26,232.91,808.5,272q16.21,44.68,16.21,63,0,25.64-15.38,50.78-9,14.89-33.45,42.24L754.64,450.2q-12.45,13.43-17.82,24.41a2.11,2.11,0,0,0,2.43,1.95q2.19,0,10.23-2.93,57-20.75,75.75-54.93,15.84-28.56,15.83-93.5Q841.06,275.88,822.08,215.09Z"/>
      </g>
    </g>
  </g>
</svg>
