<?xml version="1.0" encoding="utf-8"?>
<!-- Generator: Adobe Illustrator 22.1.0, SVG Export Plug-In . SVG Version: 6.00 Build 0)  -->
<svg version="1.1" id="Layer_1" xmlns="http://www.w3.org/2000/svg" xmlns:xlink="http://www.w3.org/1999/xlink" x="0px" y="0px"
	 viewBox="0 0 900.6 691.9" style="enable-background:new 0 0 900.6 691.9;" xml:space="preserve">
<title>EH-Asset 28-layername</title>
<g id="Layer_2_1_">
	<g id="ElBesir">
		<g>
			<path d="M213.6,10.5c0-7-4-10.5-12.1-10.5c-6.7,0-13.8,3.9-21.3,11.7c2.8,2.8,5.4,5.8,6.8,9.2c4.7,0.9,7.1,4.6,7.1,11
				c0,3-1.5,7-4.4,12c-7.8-6.4-11.7-11.2-11.7-14.4c0-2.7,0.9-5.3,2.7-7.4l3.7-1.5c0.9,0,1.7,0.1,2.5,0.2c-1.5-3.4-4-6.4-6.8-9.2
				c-1.5,1.6-3.1,3.3-4.7,5.3c-9.2,11.3-13.9,21.2-13.9,29.7c0,4.7,3.2,10.2,9.6,16.4c-21.6,15.8-42.4,28.5-62.3,38.1
				c6.3,2,10.8,2.9,13.4,2.9c13.2,0,32.4-11.8,57.6-35.3c5.1,4.6,10.5,8.8,16.2,12.7l8.5-24.1l-7.5-7.3
				C208.2,35.7,213.6,22.5,213.6,10.5z"/>
			<path d="M433.6,628.9c-3.4,11.1-8.1,18.1-14.2,21l-85.5,42c2.6-10.1,10.3-18.3,23-24.7L433.6,628.9z"/>
			<path d="M540.6,423.9c-12.4,0-24.6-5.5-36.6-16.4c39.4-25.7,66.2-57.3,80.3-94.7c4.9-12.9,7.3-20.7,7.3-23.4
				c0-5.7-1.4-9.9-4.2-12.5c-1.2-0.1-2.4-0.2-3.7-0.3c-7,0-21.7,4.2-44,12.7c-24.1,9.1-39.8,16.8-47.1,23
				c-9.4,7.8-17.8,21.6-25.1,41.5c-3.4,9.2-7.9,24.2-13.4,45.1c3-1.6,5.8-3.7,8.5-5.8c4.9-19.3,10.7-32.6,17.3-39.9
				c6.7-7.1,20.9-15,42.7-23.6c20.5-8.1,34.6-12.2,42.2-12.2l4.4,0.5c0.6,0.9,1,1.9,1,2.9h0c0,2.9-9,11.6-26.9,25.9
				c-25.3,20.3-52.8,37.6-82,51.5c0.4-1.7,0.8-3.4,1.3-5.1c-2.7,2.1-5.5,4.1-8.5,5.8c-0.3,1-0.5,2-0.8,3c-27.7,12.7-46.8,19-57.4,19
				h-9.3c9.6-15.6,14.4-28.3,14.4-38.1c0-2.8-0.2-5.6-0.7-8.3l-26.9,30.7l-12.2,45.1c7-5.4,12.1-9.7,15.4-12.8l6.6,1.2
				c25.1,0,47-2.6,65.7-7.8c-0.5,9.5-0.6,19.1-0.5,28.8l1.2,0.5l1.2-0.5c1.9-10.8,3.3-20.9,4.2-30.2c8.8-1.9,19.7-6.1,32.6-12.5
				c10.6,31.9,28.8,47.8,54.5,47.8c22.3,0,42.1-5.5,59.3-16.6l12.5-46.6C594.5,416.4,570,423.8,540.6,423.9z"/>
			<path d="M670.2,187.5c-3.4,11.1-8.1,18.1-14.2,21l-85.5,42c2.6-10.1,10.3-18.3,23-24.7L670.2,187.5z"/>
			<path d="M708.8,35.9c-4.4-5.4-9.5-8.1-15.2-8.1c-12.7,0-24.2,6.8-34.3,20.3c-0.3,0.4-0.6,0.8-0.8,1.1c2.7,1,5.2,2.2,7.3,3.8
				c3.4-3,7.1-4.5,11.2-4.5c3.9,0,8.5,2.4,13.9,7c5.3,4.6,8,8.9,8,12.9c0,7.8-7.4,11.6-22.1,11.6c-12.8,0-19.2-3.5-19.2-10.7
				c0-5,2-9.7,6-14.1c0.7-0.8,1.5-1.5,2.2-2.2c-2.1-1.6-4.6-2.8-7.3-3.8c-8.8,12-13.2,24.4-13.2,37.2c0,11.7,6.7,17.6,20.1,17.6
				c12.7,0,24.1-5.4,34.2-16.3c10-10.9,15.1-22.7,15.1-35.4C714.6,46.3,712.5,40.5,708.8,35.9z"/>
			<path d="M761.7,248.3c0,45.9-5.8,83.8-17.3,113.8c-14,35.8-37.9,65.4-71.8,88.9l12.2-45.7c41.5-33.2,62.3-66.6,62.3-100.1
				c0-25.1-7.9-55.4-23.7-91.1c-3.1,15.9-7.6,39.8-13.8,71.5c-2.6,13.7-4.8,20.5-6.5,20.5l-2.2-0.7l-0.5-3.2
				c0-13.2,3.4-37.9,10.2-74.2c7.1-39.2,13.3-61.8,18.5-67.6c8.9,5.5,16.8,19,23.6,40.3C758.7,219.1,761.7,234.9,761.7,248.3z"/>
			<path d="M809.6,41c-3.4,11.1-8.1,18.1-14.2,21L710,104c2.6-10.1,10.3-18.3,23-24.7L809.6,41z"/>
			<path d="M308.1,422.1c-6.1-3.9-9.7-10.8-9.5-18.1l-1.2-3.2c-21,12.1-36.7,21.4-47.1,27.8c-12.8,7.8-23.1,22.6-30.8,44.5
				c-5.4,17.9-10.8,35.8-16.4,53.8c-22.8,59.8-57.5,101.4-104,124.9c-24.9,12.5-48.3,18.8-70.1,18.8c-9.1,0-18.1-0.8-27.1-2.4
				l-2,2.5l0.2,1.7c14.3,6.8,40.1,10.2,77.4,10.2c63.3,0,108-41.9,134-125.7c3.3-11.7,6.6-23.6,10-35.5c4.4-13.7,9.8-24.4,16.4-32.3
				c9.3-11.2,25.3-23.1,48.1-35.7c3.9,13.4,12.3,20.1,25.1,20.1c13.7,0,31.7-8.3,54-24.8l12.5-46.3c-20.8,16.8-37.2,25.1-49.1,25.1
				C320.6,427.7,313.8,425.9,308.1,422.1z"/>
			<path d="M241.2,620.8l0.3,2.2c8.1-3.9,17.3-8.9,27.5-14.9c17.2-10.1,27.3-17,30.4-20.7c4.4-5,8.7-16.4,12.9-34.2
				c-25.6,14.2-44.1,24.2-55.4,30C246.4,603.3,241.2,615.8,241.2,620.8z"/>
			<path d="M632.8,429.2c-6.7,0-11.4-0.9-14.2-2.7c12.7-17.4,19-32.1,19-43.9c0-2.8-0.2-5.6-0.7-8.3c-9.1,10.4-18.1,20.7-26.9,30.7
				l-12.2,45.4l6.6-5.2c6.5,12,16.8,18,30.8,18c13.2,0,26.6-5,40.3-15l12.5-46.5c-6.5,6.5-15.1,12.6-25.6,18.3
				C650.5,426.1,640.6,429.2,632.8,429.2z"/>
			<path d="M605.5,495.4c-14,21.5-21.3,33-22,34.4l21.5,14.9c7.3-6.7,14.9-17.7,22.7-33C627.7,506.2,620.3,500.7,605.5,495.4z"/>
			<path d="M814,121.6c0-4.9-2.9-7.3-8.8-7.3c-8.1,0-12.2-1.1-12.2-3.4c0-4.1,2.4-6.1,7.3-6.1c1.7,0,3.3,0.3,4.9,1
				c1.6-1.1,4-4.6,7-10.3s4.8-9.8,5.3-12.2c-1.7-0.9-3.5-1.5-5.4-1.7c-6.9,0-14.8,5.9-23.8,17.8s-13.5,21.3-13.5,28.3
				c0,6.3,3.2,9.4,9.7,9.3c5.1-0.2,7.9,0.2,8.4,1.2c-2.6,3.6-11.1,8.1-25.6,13.4l-29.9,10.2c0,1.9,1.1,2.9,3.2,2.9
				c13.7,0,28.7-3.8,44.9-11.5C804.5,144.2,814,133.6,814,121.6z"/>
			<path d="M881.7,242.9c-11.2-35.8-26.2-70.4-44.8-103c-10.1,30.3-15.1,75.6-15.1,136c0,32.6,2.7,49.3,8,50.3
				c3.7-1.8,5.5-11.2,5.5-28.1c0-9.1,2.1-29.3,6.3-60.6c8.2,15.5,17,36.2,26.5,62.2c10.8,29.8,16.2,50.8,16.2,63
				c0,17.1-5.1,34-15.4,50.8c-6,9.9-17.2,24-33.5,42.2L814.2,478c-8.3,9-14.2,17.1-17.8,24.4c0.2,1.3,1,2,2.4,2s4.9-1,10.2-2.9
				c38-13.8,63.3-32.1,75.8-54.9c10.6-19,15.8-50.2,15.8-93.5C900.6,320.1,894.3,283.4,881.7,242.9z"/>
		</g>
	</g>
</g>
</svg>
