<?xml version="1.0" encoding="utf-8"?>
<!-- Generator: Adobe Illustrator 22.1.0, SVG Export Plug-In . SVG Version: 6.00 Build 0)  -->
<svg version="1.1" id="Layer_1" xmlns="http://www.w3.org/2000/svg" xmlns:xlink="http://www.w3.org/1999/xlink" x="0px" y="0px"
	 viewBox="0 0 977.2 664.1" style="enable-background:new 0 0 977.2 664.1;" xml:space="preserve">
<title>EH-Asset 62-layername</title>
<g id="Layer_2_1_">
	<g id="ElMumiit">
		<g>
			<path d="M104.6,68.1c0-7-4-10.5-12.2-10.5c-8.1,0-16.8,5.7-26,17c-0.3,0.4-0.6,0.7-0.8,1c1.7,1.9,3.3,3.8,5,5.7
				c0.3-0.5,0.7-1,1.1-1.5l3.7-1.5c6.4,0,9.7,3.8,9.7,11.3c0,2.9-1.5,6.9-4.5,12C72.9,95.3,69,90.5,69,87.2c0-2.1,0.6-4.1,1.6-5.9
				c-1.6-1.9-3.3-3.8-5-5.7c-8.7,10.9-13,20.4-13,28.6c0,4.7,3.2,10.2,9.6,16.4C40.6,136.4,19.9,149.1,0,158.7
				c6.3,2,10.8,2.9,13.4,2.9c13.2,0,32.4-11.7,57.6-35.3c5.1,4.6,10.5,8.8,16.1,12.7l8.5-24.2l-7.5-7.3
				C99.2,93.3,104.6,80.1,104.6,68.1z"/>
			<path d="M414.9,392.1c-6.4,0.1-12.6-2.1-17.5-6.2c-4.9-3.7-7.8-9.5-7.7-15.7c0-4.2,1.5-10.2,4.5-18c3-7.8,4.6-13.7,4.8-17.8
				l-1-2.4l-3.9,0.5l-113,105.4c-48.5,42.5-94.6,63.8-138.2,63.8c-23.4,0-44.4-9.1-63-27.2s-27.8-38.9-27.8-62.4
				c0-11.5,2.3-23,6.6-33.7c23.8-59.4,85.1-89.1,183.9-89.1c22.9,0,43.1-3.3,60.5-10c32.5-12.5,51.3-20.5,56.4-23.9l-0.2-2.7
				c-42,16.9-79.7,25.3-113,25.1l-43-0.2c-34.7-0.2-65.4,8.5-92.3,26.1S63.8,346,50,377.9c-7.2,16.4-10.8,31.5-10.8,45.2
				c0,33.2,9.2,60.9,27.6,83c19.7,23.5,45.8,35.2,78.4,35.2c30.4,0,64.4-13.9,101.8-41.6c23.6-17.6,51.8-43.7,84.5-78.3
				c27.5-29,43.2-43.9,47.1-44.7l0.5,1.2c-1.3,3.9-2,9.2-2,15.7c0,10.8,2.6,19.9,7.7,27.2c5.8,8.5,13.8,12.7,24,12.8
				c8,0,18.3-4.4,30.8-13.2l12.5-46.6C440.8,386,428.5,392.1,414.9,392.1z"/>
			<path d="M327.5,197.8c1.8-9.3,3.2-15.5,4.1-18.6c-17.8,11.2-36.4,21.2-55.7,29.8c-10.4,20.7-15.4,33.9-15.1,39.8
				C302.9,228.1,325.1,211.1,327.5,197.8z"/>
			<path d="M583.4,601.1c-3.4,11.1-8.1,18.1-14.2,21l-85.5,42c2.6-10.1,10.3-18.3,23-24.7L583.4,601.1z"/>
			<path d="M645.2,374.5l-12.5,46.4c-5.8,3.6-12.5,5.6-19.3,5.6c-11.6,0-20.7-5.1-27.3-15.3c-13.7,16.9-22.2,25.4-25.6,25.4
				c-3.7,0-9.3-4.3-16.6-12.9c-6.8-8-10.9-14.3-12.2-18.8c-3.7,5-10.7,11-21,18l12.2-45.4c7.5-7,18.7-17.4,33.7-31.3
				c1.6,0,9.7,6.1,24.2,18.3c14.5,12.2,26.9,18.3,37.1,18.3C627.6,383,637.1,380.1,645.2,374.5z"/>
			<path d="M707.7,68.1c0-7-4.1-10.5-12.2-10.5c-8.1,0-16.8,5.7-26,17c-1.8,2.2-3.3,4.3-4.8,6.3c2.4,1.8,4.8,3.5,7.3,5.1
				c0.2-2.3,1.2-4.4,2.7-6.2l3.7-1.5c6.4,0,9.7,3.8,9.7,11.3c0,2.9-1.5,6.9-4.5,12c-7.8-6.4-11.7-11.2-11.7-14.5
				c0-0.4,0-0.8,0.1-1.2c-2.5-1.6-4.9-3.3-7.3-5.1c-6.1,8.7-9.1,16.5-9.1,23.4c0,4.7,3.2,10.2,9.6,16.4
				c-21.6,15.8-42.4,28.5-62.3,38.1c6.3,2,10.8,2.9,13.4,2.9c13.2,0,32.4-11.7,57.6-35.3c5.1,4.6,10.5,8.8,16.1,12.7l8.5-24.2
				l-7.5-7.3C702.2,93.3,707.7,80.1,707.7,68.1z"/>
			<path d="M764.3,374.5l-12.5,46.4c-5.8,3.6-12.5,5.6-19.3,5.6c-11.6,0-20.7-5.1-27.3-15.3c-13.7,16.9-22.2,25.4-25.6,25.4
				c-3.7,0-9.3-4.3-16.6-12.9c-6.8-8-10.9-14.3-12.2-18.8c-3.7,5-10.7,11-21,18l12.2-45.5c7.5-7,18.7-17.4,33.7-31.3
				c1.6,0,9.7,6.1,24.2,18.3c14.5,12.2,26.9,18.3,37.1,18.3C746.7,383,756.3,380.1,764.3,374.5z"/>
			<path d="M785.3,8.1c-4.4-5.4-9.5-8.1-15.2-8.1c-12.7,0-24.2,6.8-34.3,20.3c-2.3,3-4.3,6-6,9.1c2.4,0.6,4.8,1.3,7.3,2
				c0.8-1.3,1.8-2.6,2.9-3.9c4-4.5,8.5-6.7,13.4-6.7c3.9,0,8.5,2.3,13.9,6.9c5.3,4.6,8,8.9,8,12.9c0,7.8-7.4,11.7-22.1,11.7
				c-12.8,0-19.2-3.6-19.2-10.7c0-3.5,1-6.9,3.1-10.2c-2.4-0.7-4.8-1.4-7.3-2c-5.3,9.5-8,19.3-8,29.2c0,11.7,6.7,17.6,20.1,17.6
				c12.7,0,24.1-5.4,34.2-16.4s15.1-22.7,15.1-35.4C791.1,18.4,789,12.7,785.3,8.1z"/>
			<path d="M838.3,220.5c0,45.9-5.8,83.8-17.3,113.8c-14,35.8-37.9,65.4-71.8,88.9l12.2-45.7c41.5-33.2,62.3-66.6,62.3-100.1
				c0-25.1-7.9-55.4-23.7-91.1c-3.1,15.9-7.7,39.8-13.8,71.5c-2.6,13.7-4.8,20.5-6.5,20.5l-2.2-0.7l-0.5-3.2
				c0-13.2,3.4-37.9,10.2-74.2c7.1-39.2,13.3-61.8,18.5-67.6c8.9,5.5,16.8,19,23.6,40.3C835.3,191.3,838.3,207.1,838.3,220.5z"/>
			<path d="M886.1,13.2c-3.4,11.1-8.1,18.1-14.1,21l-85.5,42c2.6-10.1,10.3-18.3,23-24.7L886.1,13.2z"/>
			<path d="M430.3,486.6c-10.6,21.5-15.8,34.8-15.6,39.8c9.6-5,16.7-9,21.4-11.7c19.9-11.4,31.2-18.4,33.8-21
				c6-6,11.1-18.2,15.3-36.6c-19.3,11.7-31.4,18.6-36.5,20.8C439.4,481.9,433.2,484.8,430.3,486.6z"/>
			<path d="M471.2,401.4c-6.7,0-11.4-0.9-14.2-2.7c12.6-17.4,19-32.1,19-43.9c0-2.8-0.2-5.6-0.7-8.3c-9.1,10.4-18,20.7-26.7,30.8
				l-12.1,45.3l6.6-5.2c6.5,12,16.7,18,30.7,18c13.2,0,26.6-5,40.3-15l12.5-46.5c-6.5,6.5-15.1,12.6-25.6,18.3
				C488.9,398.3,479,401.4,471.2,401.4z"/>
			<path d="M958.2,215.1c-11.2-35.8-26.2-70.4-44.8-103c-10.1,30.3-15.1,75.6-15.1,136c0,32.5,2.7,49.3,8,50.3
				c3.7-1.8,5.5-11.1,5.5-28.1c0-9.1,2.1-29.3,6.3-60.5c8.2,15.4,17,36.2,26.5,62.2c10.8,29.8,16.2,50.8,16.2,63
				c0,17.1-5.1,34-15.4,50.8c-6,9.9-17.1,24-33.5,42.2l-21.2,22.2c-8.3,9-14.2,17.1-17.8,24.4c0.2,1.3,1,2,2.4,2s4.9-1,10.2-2.9
				c38-13.8,63.3-32.1,75.8-54.9c10.6-19,15.8-50.2,15.8-93.5C977.2,292.3,970.9,255.6,958.2,215.1z"/>
			<path d="M890.5,93.8c0-4.9-2.9-7.3-8.8-7.3c-8.1,0-12.2-1.1-12.2-3.4c0-4.1,2.4-6.1,7.3-6.1c1.7,0,3.3,0.3,4.9,1
				c1.6-1.1,4-4.6,7-10.3c3-5.7,4.8-9.8,5.3-12.2c-1.7-0.9-3.5-1.5-5.4-1.7c-6.9,0-14.8,5.9-23.8,17.8s-13.5,21.3-13.5,28.3
				c0,6.4,3.2,9.4,9.7,9.3c5.1-0.2,7.9,0.3,8.4,1.2c-2.6,3.6-11.1,8.1-25.6,13.4L813.9,134c0,2,1.1,2.9,3.2,2.9
				c13.7,0,28.6-3.8,44.9-11.5C881,116.4,890.5,105.8,890.5,93.8z"/>
		</g>
	</g>
</g>
</svg>
