<?xml version="1.0" encoding="utf-8"?>
<!-- Generator: Adobe Illustrator 22.1.0, SVG Export Plug-In . SVG Version: 6.00 Build 0)  -->
<svg version="1.1" id="Layer_1" xmlns="http://www.w3.org/2000/svg" xmlns:xlink="http://www.w3.org/1999/xlink" x="0px" y="0px"
	 viewBox="0 0 891 691.9" style="enable-background:new 0 0 891 691.9;" xml:space="preserve">
<title>EH-Asset 13-layername</title>
<g id="Layer_2_1_">
	<g id="ElBari">
		<g>
			<path d="M104.6,10.5c0-7-4-10.5-12.2-10.5c-8.1,0-16.8,5.7-26,17c-1.8,2.2-3.4,4.4-4.9,6.5c2.6,1.5,5.1,3.1,7.5,4.9
				c0.2-2.3,1.1-4.4,2.7-6.1l3.7-1.5c6.4,0,9.7,3.8,9.7,11.3c0,3-1.5,7-4.5,12C72.9,37.6,69,32.8,69,29.6c0-0.4,0-0.8,0.1-1.2
				c-2.4-1.7-4.9-3.3-7.5-4.9c-6,8.6-9,16.4-9,23.2c0,4.7,3.2,10.2,9.6,16.4C40.6,78.8,19.9,91.5,0,101.1c6.3,2,10.8,2.9,13.4,2.9
				c13.2,0,32.4-11.8,57.6-35.3c5.1,4.6,10.5,8.8,16.1,12.7l8.5-24.1L88.2,50C99.2,35.7,104.6,22.5,104.6,10.5z"/>
			<path d="M143.5,228.9c13.7,0,28.7-3.8,45-11.5c19-9.1,28.5-19.7,28.5-31.8c0-4.9-2.9-7.3-8.7-7.3c-8.1,0-12.1-1.1-12.1-3.4
				c0-4.1,2.4-6.1,7.3-6.1c1.7,0,3.3,0.3,4.9,1c1.6-1.1,3.9-4.6,6.9-10.3s4.7-9.8,5.2-12.2c-1.7-0.9-3.5-1.5-5.4-1.7
				c-6.9,0-14.8,6-23.8,17.9c-9,11.9-13.5,21.4-13.5,28.4c0,6.3,3.2,9.4,9.6,9.3c5.1-0.2,7.9,0.2,8.4,1.2
				c-2.6,3.6-11.2,8.1-25.7,13.4l-29.9,10.3C140.3,227.9,141.3,228.9,143.5,228.9z"/>
			<path d="M217.4,295.2c-8.3,0-19.6,7.2-33.9,21.7c-11.2,11.2-20.3,22.3-27.1,33.2c-20.8,32.4-31.2,62.5-31.3,90.5
				c0,13.5,5.7,22.8,17.2,27.8c5.1,2.3,15.8,4.3,32.1,6.1c11.4,1.5,17.1,4.5,17.1,9.1c0,11.1-10.6,24.4-31.8,40
				c-21.2,15.6-38.7,23.4-52.6,23.4c-36.4,0-54.5-18.1-54.5-54.5c0-29.5,2.8-54.1,8.5-74c7.7-26.4,21.6-51.4,41.7-75.2
				c14.3-16.6,33.3-35.4,56.9-56.4c18.6-16.3,37.1-32.5,55.7-48.6c23.9-21.3,45.3-50.6,64-87.9l-0.5-3.1l-3,1.7
				c-21.6,33.9-41.6,58.9-59.8,75l-63,53.8c-24.4,21.3-43.7,41-57.9,58.9c-43.4,55-65.2,111.8-65.2,170.3
				c0,56.8,19.1,85.2,57.3,85.3c28.9,0,57.5-15.6,85.8-46.7c27.6-30.5,41.5-60.4,41.4-89.7c0-10.6-2.4-17.8-7.1-21.8
				c-3.2-2.8-10.7-5-22.5-6.6c-13.5-2.1-22.6-4.2-27.3-6.1c-8.8-3.7-13.2-9.8-13.2-18.1c0-11.9,7.9-26.4,23.8-43.3
				c15.8-17,29.7-25.5,41.6-25.5c9,0,13.5,3.4,13.5,10.3l2.2,3.2c3.7-1.5,8.1-7.2,13.3-17.3c4.5-9.1,7.2-16.4,8-21.9
				C240,299.6,230.1,295.2,217.4,295.2z"/>
			<path d="M319.2,628.9c-3.4,11.1-8.1,18.1-14.2,21l-85.4,42c2.6-10.1,10.3-18.3,23-24.7L319.2,628.9z"/>
			<path d="M446.7,325.3c0,17.5-2.7,26.7-8.1,27.7l-6.6-8c-4.6,0.2-8.3,2.9-11.2,8.1c-8,13.8-16.5,31.9-25.4,54.3
				c-7.3,18.7-14.7,37.4-22,56c-6.2,14.7-15.7,29.2-28.6,43.5c-13.7,15.3-27.3,26-40.8,32c-15.3,7-36.4,10.5-63.2,10.5
				c-40.5,0-61.5-2.1-62.8-6.3l2.4-1.8c34.2,0,65.9-7.3,95.2-22c30.4-15.3,54.8-36.8,73.2-64.6c9.9-15.1,20.6-35.2,32-60.2
				l22.5-50.2c12.7-25.2,22.5-37.8,29.5-37.8c3.9,0,7.2,2.3,10,6.8C445.4,316.8,446.6,321,446.7,325.3z"/>
			<path d="M602.4,402.1L590,448.9c-13,8.8-26.2,13.3-39.5,13.3c-18.4,0-31-10.3-37.8-31c-3.7-11.6-5.9-29.5-6.6-53.7l-1.8-73.7
				c-1.4-55.3-2.1-83.5-2.1-84.5c0-2.1,2-9,5.9-20.8s6.6-18.6,8-20.5h1.4c0.5,28.2,1.5,70.2,2.9,126.2c0.2,15.6,1.9,38.7,5.1,69.3
				c6.5,31.4,19,47.1,37.3,47.1C576.5,420.7,589.7,414.5,602.4,402.1z"/>
			<path d="M660.5,187.5c-3.4,11.1-8.1,18.1-14.2,21l-85.4,42c2.6-10.1,10.2-18.3,22.9-24.7L660.5,187.5z"/>
			<path d="M595.8,495.4c-14,21.5-21.3,33-22,34.4l21.5,14.9c7.3-6.7,14.9-17.7,22.7-33C618,506.2,610.7,500.7,595.8,495.4z"/>
			<path d="M652.7,419.9c-11.9,6.2-21.7,9.3-29.5,9.3c-6.7,0-11.4-0.9-14.2-2.7c12.7-17.4,19-32.1,19-43.9c0-2.8-0.2-5.6-0.7-8.3
				c-9.1,10.4-18,20.7-26.8,30.7l-12.2,45.3l6.6-5.2c6.5,12,16.8,18,30.8,18c13.2,0,26.6-5,40.3-15l12.5-46.5
				C671.9,408.1,663.3,414.2,652.7,419.9z"/>
			<path d="M699.1,35.9c-4.4-5.4-9.5-8.1-15.2-8.1c-12.7,0-24.2,6.8-34.3,20.3c-2,2.6-3.8,5.3-5.3,8c2.1,1.2,4.1,2.5,6.2,3.8
				c0.9-1.6,2-3.1,3.4-4.6c4-4.5,8.5-6.7,13.4-6.7c3.9,0,8.5,2.4,13.9,7c5.3,4.6,8,8.9,8,12.9c0,7.8-7.4,11.6-22.1,11.6
				c-12.8,0-19.2-3.5-19.2-10.7c0-3.3,0.9-6.4,2.6-9.5c-2-1.3-4.1-2.5-6.2-3.8c-5.8,9.9-8.7,20-8.7,30.4c0,11.7,6.7,17.6,20.1,17.6
				c12.8,0,24.2-5.4,34.2-16.3C700,76.7,705,64.9,705,52.3C705,46.3,702.9,40.5,699.1,35.9z"/>
			<path d="M752.1,248.3c0,45.9-5.8,83.8-17.3,113.8c-14,35.8-37.9,65.4-71.8,88.9l12.2-45.7c41.5-33.2,62.3-66.6,62.3-100.1
				c0-25.1-7.9-55.4-23.7-91.1c-3.1,15.9-7.7,39.8-13.8,71.5c-2.6,13.7-4.8,20.5-6.5,20.5l-2.2-0.7l-0.5-3.2
				c0-13.2,3.4-37.9,10.2-74.2c7.1-39.2,13.3-61.8,18.5-67.6c8.9,5.5,16.8,19,23.6,40.3C749.1,219.1,752.1,234.9,752.1,248.3z"/>
			<path d="M800,41c-3.4,11.1-8.1,18.1-14.2,21l-85.5,42c2.6-10.1,10.3-18.3,23-24.7L800,41z"/>
			<path d="M804.3,121.6c0-4.9-2.9-7.3-8.8-7.3c-8.1,0-12.2-1.1-12.2-3.4c0-4.1,2.4-6.1,7.3-6.1c1.7,0,3.3,0.3,4.9,1
				c1.6-1.1,4-4.6,7-10.3s4.8-9.8,5.3-12.2c-1.7-0.9-3.5-1.5-5.4-1.7c-6.9,0-14.8,5.9-23.8,17.8s-13.5,21.3-13.6,28.3
				c0,6.3,3.2,9.4,9.7,9.3c5.1-0.2,7.9,0.2,8.4,1.2c-2.6,3.6-11.2,8.1-25.6,13.4l-29.8,10.3c0,1.9,1.1,2.9,3.2,2.9
				c13.7,0,28.7-3.8,44.9-11.5C794.8,144.2,804.3,133.6,804.3,121.6z"/>
			<path d="M872,242.9c-11.2-35.8-26.2-70.4-44.8-103c-10.1,30.3-15.1,75.6-15.1,136c0,32.6,2.7,49.3,8,50.3
				c3.7-1.8,5.5-11.2,5.5-28.1c0-9.1,2.1-29.3,6.3-60.6c8.2,15.5,17,36.2,26.5,62.2c10.8,29.8,16.2,50.8,16.2,63
				c0,17.1-5.1,34-15.4,50.8c-6,9.9-17.2,24-33.5,42.2L804.6,478c-8.3,9-14.2,17.1-17.8,24.4c0.2,1.3,1,2,2.4,2s4.9-1,10.2-2.9
				c38-13.8,63.3-32.1,75.8-54.9c10.5-19,15.8-50.2,15.8-93.5C891,320.1,884.7,283.4,872,242.9z"/>
		</g>
	</g>
</g>
</svg>
