<svg xmlns="http://www.w3.org/2000/svg" viewBox="0 0 904.93 597.17">
  <title>EH-Asset 64-layername</title>
  <g id="Layer_2" data-name="Layer 2">
    <g id="ElKajjum">
      <g>
        <path d="M104.64,68.11q0,18-16.4,39.52l7.47,7.31L87.17,139.1a168.32,168.32,0,0,1-16.12-12.74q-37.84,35.27-57.62,35.26-3.91,0-13.43-2.93,29.79-14.4,62.26-38.08-9.63-9.28-9.63-16.36,0-12.69,13.86-29.67t26-17Q104.64,57.62,104.64,68.11ZM85.11,89.63q0-11.25-9.67-11.26l-3.72,1.47A10.94,10.94,0,0,0,69,87.18q0,4.91,11.65,14.45Q85.11,94,85.11,89.63Z"/>
        <path d="M316.55,106.93Q308.5,165,251.18,220.21,200,263.92,148.49,307.86,45.54,403.58,45.55,474.12q0,44.92,69.26,71,52.92,20,106.33,20a385.3,385.3,0,0,0,41-2.2l-3.66,3.9Q226.22,575.2,215,575.2q-72.51,0-118.65-20.51-64-28.08-64-91.07,0-82.51,97.42-176.27,35.39-33.93,105-87.4c-1-1.46-1.46-4.39-1.46-8.79q0-3.9,8.78-32.47,23.67,0,40-12.94,10-7.56,21-24.17Q312.15,107.66,316.55,106.93Z"/>
        <path d="M498.44,373.78,486,420.18Q470.37,432.65,429.59,450q-8.18,36.44-39.06,78-32.23,43.51-64.46,57.45Q299,597.16,258,597.17q-15.63,0-46.39-5.19Q175,586,173.73,579.37l2-1.49q7.32.24,23.2,2.93,15.13,2.45,23.43,2.44,16.84,0,49.32-9.52Q342.18,553,393.94,491.94,412,470.7,414.45,454.83q-21.24,5.87-28.56,5.86-22.23,0-22.22-14.65,0-15.37,12.45-38.81Q390,381.1,403.71,381.1q11.94,0,21.35,9.28t9.41,21.24Q475.48,394.29,498.44,373.78Z"/>
        <path d="M466.7,486.57q-15.87,32.24-15.63,39.8,14.35-7.57,21.41-11.72,29.92-17.08,33.82-21,9-9,15.33-36.62-28.92,17.58-36.46,20.75Q471.07,483.89,466.7,486.57Z"/>
        <path d="M537.11,392.09q-17.82,9.29-29.54,9.28-10,0-14.16-2.69,18.94-26.12,18.94-43.94a42.43,42.43,0,0,0-.73-8.3Q498,362.06,484.91,377.2l-12.14,45.32,6.55-5.17Q489,435.3,510,435.3q19.79,0,40.29-15l12.45-46.52Q553,383.55,537.11,392.09Z"/>
        <path d="M619.77,13.18q-5.12,16.61-14.16,21l-85.45,42q3.92-15.14,23-24.66Z"/>
        <path d="M718.89,24.41q0,19-15.06,35.4T669.65,76.17q-20.1,0-20.09-17.58,0-19.77,14-38.33Q678.71,0,697.83,0,706.4,0,713,8.06A26.15,26.15,0,0,1,718.89,24.41ZM703,40.59q0-5.94-8-12.9t-13.87-6.94q-7.38,0-13.39,6.7t-6,14.13q0,10.67,19.15,10.67Q703,52.25,703,40.59Z"/>
        <path d="M766,220.46q0,68.85-17.33,113.77-21,53.72-71.78,88.87l12.21-45.66q62.25-49.8,62.26-100.1,0-37.59-23.69-91.06-4.59,23.92-13.77,71.53-3.87,20.51-6.52,20.51l-2.17-.73-.49-3.18q0-19.77,10.22-74.21,10.69-58.84,18.48-67.63,13.37,8.3,23.58,40.28Q766,200.45,766,220.46Z"/>
        <path d="M813.87,13.18q-5.13,16.61-14.16,21l-85.45,42q3.9-15.14,23-24.66Z"/>
        <path d="M513.08,183.45q-9.51,0-9-11.4l.24-4.84L498,168.66q-18.07,28.85-29.3,28.85-7.81,0-7.81-9l1.71-10.91-5.06.49q-12,16.4-12,29.37l1.7,8.56q5.11,6.62,12.18,6.61,19,0,30.44-19.66,5.85,6.23,9.74,6.23,32.4,0,46-52.49l-6.1,1.46Q526.51,183.45,513.08,183.45Z"/>
        <path d="M473.35,163.09q15.66,0,51.88-23.93,15.64,6.84,25,7.08,3.9-12.5,3.67-15.69l-.25-3.67-7.3-5.39Q561,106,561,99.92a18,18,0,0,0-4-11.15q-4-5.28-9.64-5.27-12.46,0-25.41,12.12T508.93,120l1,5.88a59.66,59.66,0,0,0,6.43,8.33q-29.09,17.15-57.43,24Q467.23,163.09,473.35,163.09Zm62.8-68.85q7.7,2.92,7.7,8.79,0,5.61-5.3,13.67Q528,108.41,528,103.27,528,94.24,536.15,94.24Z"/>
        <path d="M596.23,381.1q33.56-38.57,33.55-62.25,0-31-14.11-31-6.81,0-20.44,10.76t-25.3,31.29q-12.42,22-12.41,37.64a35.09,35.09,0,0,0,1.2,9.29l-12.45,46.94a306.18,306.18,0,0,0,27.8-22.35q14.85,17.44,23.38,23.82a51.87,51.87,0,0,0,31.25,10.32,92.9,92.9,0,0,0,51.76-15.43l12.7-47.24q-26.86,20.67-58.11,20.67Q604.78,393.55,596.23,381.1ZM582,362.41q-8.36-9.72-8.36-15.57,0-4.38,11.06-14.11T600.41,323q12.76,0,12.77,9.49Q613.18,346.35,582,362.41Z"/>
        <path d="M649.37,201.17q2.94-12.45,4.15-18.8-35.64,22-55.66,30-15.15,30-15.14,36.38l.25,2.93Q644.72,220.95,649.37,201.17Z"/>
        <path d="M885.94,215.09a524.76,524.76,0,0,0-44.78-103q-15.09,45.41-15.09,136,0,48.82,8,50.29,5.55-2.68,5.55-28.08,0-13.67,6.27-60.54,12.27,23.19,26.52,62.25,16.2,44.68,16.2,63,0,25.64-15.38,50.78-9,14.89-33.45,42.24L818.5,450.2q-12.45,13.43-17.82,24.41c.16,1.3,1,1.95,2.44,1.95s4.87-1,10.23-2.93q57-20.75,75.75-54.93,15.82-28.56,15.83-93.5Q904.93,275.88,885.94,215.09Z"/>
        <path d="M818.26,93.75q0-7.32-8.79-7.32-12.21,0-12.21-3.42,0-6.11,7.33-6.11a11.88,11.88,0,0,1,4.88,1q2.44-1.69,7-10.28t5.25-12.2a15.25,15.25,0,0,0-5.4-1.69q-10.32,0-23.82,17.82T779,99.85q0,9.53,9.65,9.28c5.12-.16,7.92.25,8.42,1.22q-3.91,5.37-25.64,13.43L741.6,134c0,2,1,2.93,3.17,2.93q20.51,0,44.92-11.47Q818.25,111.82,818.26,93.75Z"/>
      </g>
    </g>
  </g>
</svg>
