<?xml version="1.0" encoding="utf-8"?>
<!-- Generator: Adobe Illustrator 22.1.0, SVG Export Plug-In . SVG Version: 6.00 Build 0)  -->
<svg version="1.1" id="Layer_1" xmlns="http://www.w3.org/2000/svg" xmlns:xlink="http://www.w3.org/1999/xlink" x="0px" y="0px"
	 viewBox="0 0 904.9 597.2" style="enable-background:new 0 0 904.9 597.2;" xml:space="preserve">
<title>EH-Asset 64-layername</title>
<g id="Layer_2_1_">
	<g id="ElKajjum">
		<g>
			<path d="M104.6,68.1c0-7-4-10.5-12.2-10.5c-8.1,0-16.8,5.7-26,17c-0.3,0.4-0.6,0.7-0.8,1c1.9,1.7,3.6,3.5,5.2,5.4
				c0.3-0.4,0.6-0.8,0.9-1.2l3.7-1.5c6.4,0,9.7,3.8,9.7,11.3c0,2.9-1.5,6.9-4.5,12C72.9,95.3,69,90.5,69,87.2c0-2.2,0.6-4.4,1.8-6.2
				c-1.6-1.9-3.3-3.7-5.2-5.4c-8.7,10.9-13,20.4-13,28.6c0,4.7,3.2,10.2,9.6,16.4C40.6,136.4,19.9,149.1,0,158.7
				c6.3,2,10.8,2.9,13.4,2.9c13.2,0,32.4-11.7,57.6-35.3c5.1,4.6,10.5,8.8,16.1,12.7l8.5-24.2l-7.5-7.3
				C99.2,93.3,104.6,80.1,104.6,68.1z"/>
			<path d="M316.5,106.9c-5.4,38.7-27.2,76.5-65.4,113.3c-34.1,29.1-68.3,58.4-102.7,87.6C79.9,371.7,45.5,427.1,45.5,474.1
				c0,29.9,23.1,53.6,69.3,71c35.3,13.3,70.7,20,106.3,20c13.7,0,27.4-0.7,41-2.2l-3.7,3.9c-21.5,5.6-36,8.4-43.5,8.4
				c-48.3,0-87.9-6.8-118.7-20.5c-42.7-18.7-64-49.1-64-91.1c0-55,32.5-113.8,97.4-176.3c23.6-22.6,58.6-51.8,105-87.4
				c-1-1.5-1.5-4.4-1.5-8.8c0-2.6,2.9-13.4,8.8-32.5c15.8,0,29.1-4.3,40-12.9c6.7-5,13.7-13.1,21-24.2
				C309.1,112.3,313.6,107.4,316.5,106.9z"/>
			<path d="M498.4,373.8L486,420.2c-10.4,8.3-29.2,18.3-56.4,29.8c-5.5,24.3-18.5,50.3-39.1,78c-21.5,29-43,48.2-64.5,57.5
				c-18,7.8-40.7,11.7-68.1,11.7c-10.4,0-25.9-1.7-46.4-5.2c-24.4-4-37-8.2-37.9-12.6l2-1.5c4.9,0.2,12.6,1.1,23.2,2.9
				c10.1,1.6,17.9,2.4,23.4,2.4c11.2,0,27.7-3.2,49.3-9.5c47-13.8,87.8-41.1,122.3-81.8c12-14.2,18.9-26.5,20.5-37.1
				c-14.2,3.9-23.7,5.9-28.6,5.9c-14.8,0-22.2-4.9-22.2-14.6c0-10.2,4.2-23.2,12.5-38.8c9.3-17.4,18.4-26.1,27.6-26.1
				c8,0,15.1,3.1,21.4,9.3s9.4,13.3,9.4,21.2C461.8,400.1,483.1,387.5,498.4,373.8z"/>
			<path d="M466.7,486.6c-10.6,21.5-15.8,34.8-15.6,39.8c9.6-5,16.7-9,21.4-11.7c19.9-11.4,31.2-18.4,33.8-21
				c6-6,11.1-18.2,15.3-36.6c-19.3,11.7-31.4,18.6-36.5,20.8C475.8,481.9,469.6,484.8,466.7,486.6z"/>
			<path d="M537.1,392.1c-11.9,6.2-21.7,9.3-29.5,9.3c-6.7,0-11.4-0.9-14.2-2.7c12.6-17.4,18.9-32.1,18.9-43.9
				c0-2.8-0.2-5.6-0.7-8.3c-9.1,10.4-18,20.7-26.7,30.8l-12.1,45.3l6.5-5.2c6.5,12,16.7,17.9,30.7,17.9c13.2,0,26.6-5,40.3-15
				l12.5-46.5C556.2,380.3,547.7,386.4,537.1,392.1z"/>
			<path d="M619.8,13.2c-3.4,11.1-8.1,18.1-14.2,21l-85.5,42c2.6-10.1,10.3-18.3,23-24.7L619.8,13.2z"/>
			<path d="M713,8.1c-4.4-5.4-9.5-8.1-15.2-8.1c-12,0-22.9,6-32.6,18.1c2.3,1.8,4.6,3.6,6.8,5.6c2.8-1.9,5.9-2.9,9.1-2.9
				c3.9,0,8.5,2.3,13.9,6.9s8,8.9,8,12.9c0,7.8-7.4,11.7-22.1,11.7c-12.8,0-19.2-3.6-19.2-10.7c0-5,2-9.7,6-14.1
				c1.4-1.5,2.8-2.8,4.3-3.8c-2.2-1.9-4.4-3.8-6.8-5.6c-0.6,0.7-1.1,1.4-1.7,2.2c-9.3,12.4-14,25.1-14,38.3
				c0,11.7,6.7,17.6,20.1,17.6c12.7,0,24.1-5.4,34.2-16.4c10-10.9,15.1-22.7,15.1-35.4C718.8,18.4,716.8,12.7,713,8.1z"/>
			<path d="M766,220.5c0,45.9-5.8,83.8-17.3,113.8c-14,35.8-37.9,65.4-71.8,88.9l12.2-45.7c41.5-33.2,62.3-66.6,62.3-100.1
				c0-25.1-7.9-55.4-23.7-91.1c-3.1,15.9-7.7,39.8-13.8,71.5c-2.6,13.7-4.8,20.5-6.5,20.5l-2.2-0.7l-0.5-3.2
				c0-13.2,3.4-37.9,10.2-74.2c7.1-39.2,13.3-61.8,18.5-67.6c8.9,5.5,16.8,19,23.6,40.3C763,191.3,766,207.1,766,220.5z"/>
			<path d="M813.9,13.2c-3.4,11.1-8.1,18.1-14.2,21l-85.5,42c2.6-10.1,10.3-18.3,23-24.7L813.9,13.2z"/>
			<path d="M513.1,183.4c-6.3,0-9.3-3.8-9-11.4l0.2-4.8l-6.3,1.4c-12,19.2-21.8,28.9-29.3,28.9c-5.2,0-7.8-3-7.8-9l1.7-10.9
				l-5.1,0.5c-8,10.9-12,20.7-12,29.4l1.7,8.6c3.4,4.4,7.5,6.6,12.2,6.6c12.7,0,22.8-6.6,30.4-19.7c3.9,4.2,7.1,6.2,9.7,6.2
				c21.6,0,36.9-17.5,46-52.5l-6.1,1.5C530.8,175,522,183.4,513.1,183.4z"/>
			<path d="M553.6,126.9l-7.3-5.4c9.8-10.3,14.7-17.5,14.7-21.6c0-4.1-1.4-8-4-11.1c-2.7-3.5-5.9-5.3-9.6-5.3
				c-6.4,0-12.9,2.4-19.5,7.2c1.2,1.6,2.2,3.2,3.3,4.8c1.3-0.9,2.9-1.3,5-1.3c5.1,1.9,7.7,4.9,7.7,8.8c0,3.7-1.8,8.3-5.3,13.7
				c-7-5.5-10.6-10-10.6-13.4c0-3.7,1.1-6.3,3.2-7.7c-1-1.7-2.1-3.3-3.3-4.8c-2,1.4-3.9,3.1-5.9,4.9c-8.6,8.1-13,16.2-13,24.4l1,5.9
				c1.9,3,4,5.7,6.4,8.3c-19.4,11.4-38.5,19.4-57.4,24c5.5,3.3,10.3,4.9,14.4,4.9c10.4,0,27.7-8,51.9-23.9c10.4,4.6,18.8,6.9,25,7.1
				c2.6-8.3,3.8-13.6,3.7-15.7L553.6,126.9z"/>
			<path d="M635.1,393.6c-20.2,0-33.1-4.2-38.8-12.5c22.4-25.7,33.6-46.5,33.5-62.3c0-20.7-4.7-31-14.1-31
				c-4.5,0-11.4,3.6-20.4,10.8s-17.5,17.6-25.3,31.3c-8.3,14.7-12.4,27.2-12.4,37.6c0,2.1,0.2,4.1,0.5,6.2
				c9.1-2.9,18.4-5.7,24.9-11.8c-0.3,0.2-0.7,0.3-1,0.5c-5.6-6.5-8.4-11.7-8.4-15.6c0-2.9,3.7-7.6,11.1-14.1
				c7.4-6.5,12.6-9.7,15.7-9.7c8.5,0,12.8,3.2,12.8,9.5c0,9.1-10.1,18.9-30.2,29.4c-6.5,6.1-15.9,8.9-24.9,11.8
				c0.2,1,0.4,2.1,0.7,3.1l-12.5,46.9c9.7-6.9,19-14.4,27.8-22.3c9.9,11.6,17.7,19.6,23.4,23.8c9,6.7,20,10.4,31.3,10.3
				c18.4,0.1,36.4-5.3,51.8-15.4l12.7-47.2C675.3,386.7,655.9,393.6,635.1,393.6z"/>
			<path d="M649.4,201.2c2-8.3,3.3-14.6,4.2-18.8c-23.8,14.7-42.3,24.7-55.7,30c-10.1,20-15.1,32.1-15.1,36.4l0.3,2.9
				C624.1,231.2,646.3,214.4,649.4,201.2z"/>
			<path d="M885.9,215.1c-11.2-35.8-26.2-70.4-44.8-103c-10.1,30.3-15.1,75.6-15.1,136c0,32.5,2.7,49.3,8,50.3
				c3.7-1.8,5.5-11.1,5.5-28.1c0-9.1,2.1-29.3,6.3-60.5c8.2,15.5,17,36.2,26.5,62.3c10.8,29.8,16.2,50.8,16.2,63
				c0,17.1-5.1,34-15.4,50.8c-6,9.9-17.1,24-33.5,42.2l-21.3,22.2c-8.3,9-14.2,17.1-17.8,24.4c0.2,1.3,1,2,2.4,2s4.9-1,10.2-2.9
				c38-13.8,63.2-32.1,75.8-54.9c10.5-19,15.8-50.2,15.8-93.5C904.9,292.3,898.6,255.6,885.9,215.1z"/>
			<path d="M818.3,93.8c0-4.9-2.9-7.3-8.8-7.3c-8.1,0-12.2-1.1-12.2-3.4c0-4.1,2.4-6.1,7.3-6.1c1.7,0,3.3,0.3,4.9,1
				c1.6-1.1,4-4.6,7-10.3c3-5.7,4.8-9.8,5.3-12.2c-1.7-0.9-3.5-1.5-5.4-1.7c-6.9,0-14.8,5.9-23.8,17.8S779,92.9,779,99.8
				c0,6.4,3.2,9.4,9.7,9.3c5.1-0.2,7.9,0.3,8.4,1.2c-2.6,3.6-11.2,8.1-25.6,13.4L741.6,134c0,2,1,2.9,3.2,2.9
				c13.7,0,28.6-3.8,44.9-11.5C808.7,116.4,818.3,105.8,818.3,93.8z"/>
		</g>
	</g>
</g>
</svg>
