<svg xmlns="http://www.w3.org/2000/svg" viewBox="0 0 1053.71 664.06">
  <title>EH-Asset 65-layername</title>
  <g id="Layer_2" data-name="Layer 2">
    <g id="ElWadzid">
      <g>
        <path d="M153.32,68.11q0,18-16.4,39.52l7.48,7.31-8.55,24.16a170.85,170.85,0,0,1-16.12-12.74q-37.85,35.27-57.62,35.26-3.9,0-13.43-2.93,29.79-14.4,62.26-38.08-9.63-9.28-9.62-16.36,0-12.69,13.85-29.67t26-17Q153.32,57.62,153.32,68.11ZM133.79,89.63q0-11.25-9.67-11.26l-3.72,1.47a10.93,10.93,0,0,0-2.72,7.34q0,4.91,11.65,14.45Q133.79,94,133.79,89.63Z"/>
        <path d="M314.21,373.54,301.76,420a173.64,173.64,0,0,1-28.08,16q-19.77,9.33-29.78,9.33-27.1,0-27.1-40.77a112.58,112.58,0,0,1,1.46-15.87h-1.95q-1.47,0-7,6.72t-21.12,35.76q-36.87,68.61-68.6,84.23-18.55,9-32.47,11.48-10.5,1.95-34.67,1.95a266.28,266.28,0,0,1-27.59-2Q3.66,524.32,0,521.32l.73-1.5,3.42-2q36.87,0,60.06-7.57t52.73-29.54q31.74-23.43,44.93-42.72,16.84-27.35,33.69-54.93,24.93-38.58,38.82-44.68l2.44,2.2.48,2.44c-.48,1.63-1.22,5-2.19,10.25a131.49,131.49,0,0,0-2.44,25.39q0,26.13,21.72,26.13Q276.61,404.79,314.21,373.54Z"/>
        <path d="M369.87,601.07q-5.12,16.6-14.16,21l-85.45,42q3.92-15.13,22.95-24.66Z"/>
        <path d="M619.14,325.2q0,64.94-15.64,93.5-18.78,34.19-75.91,54.93-8.05,2.94-10.26,2.93a2.12,2.12,0,0,1-2.44-1.95q5.37-11,17.82-24.41L554,428q24.4-27.35,33.44-42.24Q602.79,360.6,602.78,335q0-18.31-16.2-63-14.25-39.06-26.52-62.25-6.27,46.88-6.27,60.54,0,25.39-5.55,28.08-8-1.47-8-50.29,0-90.59,15.09-136a525.38,525.38,0,0,1,44.79,103Q619.14,275.89,619.14,325.2Z"/>
        <path d="M678.47,159.67q-5.13,16.61-14.16,21l-85.45,42q3.9-15.14,22.95-24.66Z"/>
        <path d="M851.81,373.78l-12.45,46.4Q823.73,432.65,783,450q-8.18,36.44-39.06,78-32.24,43.51-64.46,57.45-27.09,11.73-68.11,11.74-15.63,0-46.39-5.19Q528.32,586,527.1,579.37l1.95-1.49q7.34.24,23.2,2.93,15.13,2.45,23.43,2.44,16.85,0,49.32-9.52Q695.56,553,747.31,491.94q18.08-21.24,20.51-37.11-21.24,5.87-28.56,5.86Q717,460.69,717,446q0-15.37,12.45-38.81,13.92-26.13,27.59-26.13,11.94,0,21.35,9.28t9.41,21.24Q828.87,394.29,851.81,373.78Z"/>
        <path d="M867.68,24.41q0,19-15.07,35.4T818.43,76.17q-20.1,0-20.09-17.58,0-19.77,14-38.33Q827.49,0,846.61,0q8.57,0,15.19,8.06A26.16,26.16,0,0,1,867.68,24.41ZM851.81,40.59q0-5.94-8-12.9T830,20.75q-7.37,0-13.39,6.7t-6,14.13q0,10.67,19.15,10.67Q851.81,52.25,851.81,40.59Z"/>
        <path d="M914.79,220.46q0,68.85-17.33,113.77-21,53.72-71.78,88.87l12.21-45.66q62.25-49.8,62.26-100.1,0-37.59-23.69-91.06-4.58,23.92-13.77,71.53-3.86,20.51-6.52,20.51l-2.17-.73-.48-3.18q0-19.77,10.21-74.21,10.69-58.84,18.48-67.63,13.38,8.3,23.59,40.28Q914.79,200.45,914.79,220.46Z"/>
        <path d="M962.65,13.18q-5.13,16.61-14.16,21L863,76.17q3.9-15.14,23-24.66Z"/>
        <path d="M437,249.27a111.79,111.79,0,0,1-14.4-1.35,113.34,113.34,0,0,0-14.41-1.34q-37.84,0-55.42,17.34-16.11,15.61-22.85,53.95-4.74,27.35-4.73,32l.24,13.92-15.38,12.94-12.45,45.9a263.54,263.54,0,0,0,30-23.68,433.5,433.5,0,0,0,11.47,61.76l1.71.74a4.23,4.23,0,0,0,1.47-2.93V457q-5.62-51.75-5.38-60.55v-5.85q33-33,66.17-65.92a285.48,285.48,0,0,1,78.61-50.3q2.69-4.14,6-17.57t3.3-19.29l-.25-2.69Q466.79,249.27,437,249.27Zm-64.7,71.53q-24.4,24.9-37.1,35.16v-9.28a77.54,77.54,0,0,1,6.1-29.05q8.54-21.24,27.83-27.35,11-3.66,40.53-4.15Q395.75,296.89,372.31,320.8Z"/>
        <path d="M339.84,496.34q-20.26,30.53-22.46,34.42,10.74,8.29,21.73,15.38,15.13-19.29,22.71-33.2Q361.82,504.15,339.84,496.34Z"/>
        <path d="M1034.73,215.09a525.38,525.38,0,0,0-44.79-103q-15.09,45.41-15.09,136,0,48.82,8,50.29,5.55-2.68,5.55-28.08,0-13.67,6.27-60.54,12.27,23.19,26.52,62.25,16.2,44.68,16.2,63,0,25.64-15.38,50.78-9,14.89-33.44,42.24L967.29,450.2q-12.46,13.43-17.83,24.41a2.12,2.12,0,0,0,2.44,1.95q2.19,0,10.23-2.93,57-20.75,75.75-54.93,15.82-28.56,15.83-93.5Q1053.71,275.88,1034.73,215.09Z"/>
        <path d="M967,93.75q0-7.32-8.79-7.32Q946,86.43,946,83q0-6.11,7.33-6.11a11.88,11.88,0,0,1,4.88,1q2.44-1.69,7-10.28t5.25-12.2a15.25,15.25,0,0,0-5.4-1.69q-10.32,0-23.82,17.82T927.73,99.85q0,9.53,9.66,9.28,7.67-.24,8.41,1.22-3.91,5.37-25.64,13.43L890.38,134c0,2,1,2.93,3.17,2.93q20.51,0,44.92-11.47Q967,111.82,967,93.75Z"/>
      </g>
    </g>
  </g>
</svg>
