<svg xmlns="http://www.w3.org/2000/svg" viewBox="0 0 959.47 664.06">
  <title>EH-Asset 66-layername</title>
  <g id="Layer_2" data-name="Layer 2">
    <g id="ElMadzid">
      <g>
        <path d="M153.32,68.11q0,18-16.4,39.52l7.48,7.31-8.55,24.16a170.85,170.85,0,0,1-16.12-12.74q-37.85,35.27-57.62,35.26-3.9,0-13.43-2.93,29.79-14.4,62.26-38.08-9.63-9.28-9.62-16.36,0-12.69,13.85-29.67t26-17Q153.32,57.62,153.32,68.11ZM133.79,89.63q0-11.25-9.67-11.26l-3.72,1.47a10.93,10.93,0,0,0-2.72,7.34q0,4.91,11.65,14.45Q133.79,94,133.79,89.63Z"/>
        <path d="M314.21,373.54,301.76,420a173.64,173.64,0,0,1-28.08,16q-19.77,9.33-29.78,9.33-27.1,0-27.1-40.77a112.58,112.58,0,0,1,1.46-15.87h-1.95q-1.47,0-7,6.72t-21.12,35.76q-36.87,68.61-68.6,84.23-18.55,9-32.47,11.48-10.5,1.95-34.67,1.95a266.28,266.28,0,0,1-27.59-2Q3.66,524.32,0,521.32l.73-1.5,3.42-2q36.87,0,60.06-7.57t52.73-29.54q31.74-23.43,44.93-42.72,16.84-27.35,33.69-54.93,24.93-38.58,38.82-44.68l2.44,2.2.48,2.44c-.48,1.63-1.22,5-2.19,10.25a131.49,131.49,0,0,0-2.44,25.39q0,26.13,21.72,26.13Q276.61,404.79,314.21,373.54Z"/>
        <path d="M369.87,601.07q-5.12,16.6-14.16,21l-85.45,42q3.92-15.13,22.95-24.66Z"/>
        <path d="M626.71,374.27l-12.45,46.8q-19.54,13.26-39.55,13.26-27.6,0-37.84-30.95-5.62-17.38-6.6-53.77l-1.84-73.73q-2.07-83-2.06-84.47,0-3.18,5.88-20.76t8.06-20.5h1.44q.74,42.24,2.93,126.22.24,23.43,5.12,69.33,9.76,47.13,37.36,47.12Q607.67,392.82,626.71,374.27Z"/>
        <path d="M684.81,98.63q-5.12,16.61-14.16,21l-85.44,42q3.9-15.13,22.94-24.66Z"/>
        <path d="M746.58,374.51l-12.45,46.42a36.07,36.07,0,0,1-19.29,5.58q-17.33,0-27.34-15.29-20.5,25.39-25.63,25.39-5.62,0-16.61-12.94-10.25-12-12.2-18.76-5.62,7.53-21,18l12.21-45.43Q635.49,367,658,346.19q2.43,0,24.17,18.31t37.11,18.31A46.74,46.74,0,0,0,746.58,374.51Z"/>
        <path d="M773.44,24.41q0,19-15.07,35.4T724.19,76.17q-20.09,0-20.09-17.58,0-19.77,14-38.33Q733.25,0,752.37,0q8.57,0,15.19,8.06A26.1,26.1,0,0,1,773.44,24.41ZM757.57,40.59q0-5.94-8-12.9t-13.87-6.94q-7.37,0-13.39,6.7t-6,14.13q0,10.67,19.16,10.67Q757.57,52.25,757.57,40.59Z"/>
        <path d="M820.56,220.46q0,68.85-17.34,113.77-21,53.72-71.77,88.87l12.2-45.66q62.26-49.8,62.26-100.1,0-37.59-23.68-91.06-4.59,23.92-13.77,71.53-3.87,20.51-6.52,20.51l-2.18-.73-.48-3.18q0-19.77,10.21-74.21,10.69-58.84,18.48-67.63,13.38,8.3,23.59,40.28Q820.55,200.45,820.56,220.46Z"/>
        <path d="M868.41,13.18q-5.13,16.61-14.16,21l-85.45,42q3.9-15.14,23-24.66Z"/>
        <path d="M339.84,496.34q-20.26,30.53-22.46,34.42,10.74,8.29,21.73,15.38,15.13-19.29,22.71-33.2Q361.82,504.15,339.84,496.34Z"/>
        <path d="M437,249.27a111.79,111.79,0,0,1-14.4-1.35,113.34,113.34,0,0,0-14.41-1.34q-37.84,0-55.42,17.34-16.11,15.61-22.85,53.95-4.74,27.35-4.73,32l.24,13.92-15.38,12.94-12.45,45.9a263.54,263.54,0,0,0,30-23.68,433.5,433.5,0,0,0,11.47,61.76l1.71.74a4.23,4.23,0,0,0,1.47-2.93V457q-5.62-51.75-5.38-60.55v-5.85q33-33,66.17-65.92a285.48,285.48,0,0,1,78.61-50.3q2.69-4.14,6-17.57t3.3-19.29l-.25-2.69Q466.79,249.27,437,249.27Zm-64.7,71.53q-24.4,24.9-37.1,35.16v-9.28a77.54,77.54,0,0,1,6.1-29.05q8.54-21.24,27.83-27.35,11-3.66,40.53-4.15Q395.75,296.89,372.31,320.8Z"/>
        <path d="M940.49,215.09a525.35,525.35,0,0,0-44.78-103q-15.11,45.41-15.09,136,0,48.82,8,50.29,5.55-2.68,5.55-28.08,0-13.67,6.27-60.54,12.27,23.19,26.52,62.25,16.2,44.68,16.21,63,0,25.64-15.39,50.78-9,14.89-33.44,42.24L873.05,450.2q-12.45,13.43-17.83,24.41a2.12,2.12,0,0,0,2.44,1.95q2.19,0,10.23-2.93,57-20.75,75.75-54.93,15.83-28.56,15.83-93.5Q959.47,275.88,940.49,215.09Z"/>
        <path d="M872.8,93.75q0-7.32-8.79-7.32-12.21,0-12.2-3.42,0-6.11,7.32-6.11a11.88,11.88,0,0,1,4.88,1q2.44-1.69,7-10.28t5.25-12.2a15.25,15.25,0,0,0-5.4-1.69q-10.32,0-23.82,17.82T833.5,99.85q0,9.53,9.65,9.28,7.67-.24,8.41,1.22-3.91,5.37-25.64,13.43L796.14,134c0,2,1.06,2.93,3.17,2.93q20.51,0,44.92-11.47Q872.81,111.82,872.8,93.75Z"/>
      </g>
    </g>
  </g>
</svg>
