<svg xmlns="http://www.w3.org/2000/svg" viewBox="0 0 1056.64 664.06">
  <title>EH-Asset 67-layername</title>
  <g id="Layer_2" data-name="Layer 2">
    <g id="ElWahid">
      <g>
        <path d="M153.32,68.11q0,18-16.4,39.52l7.48,7.31-8.55,24.16a170.85,170.85,0,0,1-16.12-12.74q-37.85,35.27-57.62,35.26-3.9,0-13.43-2.93,29.79-14.4,62.26-38.08-9.63-9.28-9.62-16.36,0-12.69,13.85-29.67t26-17Q153.32,57.62,153.32,68.11ZM133.79,89.63q0-11.25-9.67-11.26l-3.72,1.47a10.93,10.93,0,0,0-2.72,7.34q0,4.91,11.65,14.45Q133.79,94,133.79,89.63Z"/>
        <path d="M314.21,373.54,301.76,420a173.64,173.64,0,0,1-28.08,16q-19.77,9.33-29.78,9.33-27.1,0-27.1-40.77a112.58,112.58,0,0,1,1.46-15.87h-1.95q-1.47,0-7,6.72t-21.12,35.76q-36.87,68.61-68.6,84.23-18.55,9-32.47,11.48-10.5,1.95-34.67,1.95a266.28,266.28,0,0,1-27.59-2Q3.66,524.32,0,521.32l.73-1.5,3.42-2q36.87,0,60.06-7.57t52.73-29.54q31.74-23.43,44.93-42.72,16.84-27.35,33.69-54.93,24.93-38.58,38.82-44.68l2.44,2.2.48,2.44c-.48,1.63-1.22,5-2.19,10.25a131.49,131.49,0,0,0-2.44,25.39q0,26.13,21.72,26.13Q276.61,404.79,314.21,373.54Z"/>
        <path d="M369.87,601.07q-5.12,16.6-14.16,21l-85.45,42q3.92-15.13,22.95-24.66Z"/>
        <path d="M491,237.55q0,5.87-3.3,19.29t-6,17.57a285.48,285.48,0,0,0-78.61,50.3q-33.21,33-66.17,65.92v5.85q-.24,8.79,5.38,60.55v1.47a4.23,4.23,0,0,1-1.47,2.93l-1.71-.74a433.5,433.5,0,0,1-11.47-61.76,263.54,263.54,0,0,1-30,23.68l12.45-45.9,15.38-12.94-.24-13.92q0-4.64,4.73-32,6.74-38.33,22.85-53.95,17.58-17.34,55.42-17.34a113.34,113.34,0,0,1,14.41,1.34,111.79,111.79,0,0,0,14.4,1.35q29.79,0,53.71-14.41Zm-81.3,48.58q-29.55.5-40.53,4.15-19.29,6.11-27.83,27.35a77.54,77.54,0,0,0-6.1,29.05V356q12.69-10.26,37.1-35.16Q395.76,296.88,409.67,286.13Z"/>
        <path d="M622.07,325.2q0,64.94-15.64,93.5-18.78,34.19-75.91,54.93-8.06,2.94-10.26,2.93a2.12,2.12,0,0,1-2.44-1.95q5.37-11,17.82-24.41L556.88,428q24.42-27.35,33.45-42.24Q605.72,360.6,605.71,335q0-18.31-16.2-63Q575.26,232.91,563,209.72q-6.27,46.88-6.27,60.54,0,25.39-5.55,28.08-8-1.47-8-50.29,0-90.59,15.09-136a524.76,524.76,0,0,1,44.78,103Q622.07,275.89,622.07,325.2Z"/>
        <path d="M681.4,159.67q-5.13,16.61-14.16,21l-85.45,42q3.9-15.14,23-24.66Z"/>
        <path d="M854.74,373.78l-12.45,46.4q-15.63,12.46-56.4,29.82-8.17,36.44-39.06,78-32.24,43.51-64.46,57.45-27.09,11.73-68.11,11.74-15.63,0-46.39-5.19Q531.26,586,530,579.37l2-1.49q7.34.24,23.2,2.93,15.14,2.45,23.43,2.44,16.85,0,49.32-9.52Q698.48,553,750.24,491.94q18.07-21.24,20.51-37.11-21.24,5.87-28.56,5.86Q720,460.69,720,446q0-15.37,12.45-38.81Q746.34,381.1,760,381.1q11.94,0,21.35,9.28t9.41,21.24Q831.8,394.29,854.74,373.78Z"/>
        <path d="M870.61,24.41q0,19-15.07,35.4T821.36,76.17q-20.1,0-20.09-17.58,0-19.77,14-38.33Q830.42,0,849.54,0q8.57,0,15.19,8.06A26.16,26.16,0,0,1,870.61,24.41ZM854.74,40.59q0-5.94-8-12.9t-13.87-6.94c-4.92,0-9.37,2.23-13.39,6.7s-6,9.18-6,14.13q0,10.67,19.15,10.67Q854.74,52.25,854.74,40.59Z"/>
        <path d="M917.72,220.46q0,68.85-17.33,113.77-21,53.72-71.78,88.87l12.21-45.66q62.25-49.8,62.26-100.1,0-37.59-23.69-91.06-4.57,23.92-13.77,71.53-3.87,20.51-6.52,20.51l-2.17-.73-.48-3.18q0-19.77,10.21-74.21,10.7-58.84,18.48-67.63,13.36,8.3,23.59,40.28Q917.72,200.45,917.72,220.46Z"/>
        <path d="M965.58,13.18q-5.13,16.61-14.16,21L866,76.17q3.9-15.14,22.95-24.66Z"/>
        <path d="M970,93.75q0-7.32-8.79-7.32Q949,86.43,949,83q0-6.11,7.33-6.11a11.88,11.88,0,0,1,4.88,1q2.45-1.69,7-10.28t5.25-12.2a15.25,15.25,0,0,0-5.4-1.69q-10.32,0-23.82,17.82T930.66,99.85q0,9.53,9.66,9.28,7.66-.24,8.41,1.22-3.91,5.37-25.64,13.43L893.31,134c0,2,1.05,2.93,3.17,2.93q20.5,0,44.92-11.47Q970,111.82,970,93.75Z"/>
        <path d="M1037.65,215.09a524.76,524.76,0,0,0-44.78-103q-15.09,45.41-15.09,136,0,48.82,8,50.29,5.55-2.68,5.55-28.08,0-13.67,6.27-60.54,12.27,23.19,26.52,62.25,16.2,44.68,16.2,63,0,25.64-15.38,50.78-9,14.89-33.44,42.24L970.21,450.2q-12.45,13.43-17.82,24.41a2.12,2.12,0,0,0,2.44,1.95q2.19,0,10.23-2.93,57-20.75,75.75-54.93,15.82-28.56,15.83-93.5Q1056.64,275.88,1037.65,215.09Z"/>
      </g>
    </g>
  </g>
</svg>
