<?xml version="1.0" encoding="utf-8"?>
<!-- Generator: Adobe Illustrator 22.1.0, SVG Export Plug-In . SVG Version: 6.00 Build 0)  -->
<svg version="1.1" id="Layer_1" xmlns="http://www.w3.org/2000/svg" xmlns:xlink="http://www.w3.org/1999/xlink" x="0px" y="0px"
	 viewBox="0 0 1056.6 664.1" style="enable-background:new 0 0 1056.6 664.1;" xml:space="preserve">
<title>EH-Asset 67-layername</title>
<g id="Layer_2_1_">
	<g id="ElWahid">
		<g>
			<path d="M153.3,68.1c0-7-4-10.5-12.2-10.5c-7.7,0-15.9,5.2-24.7,15.4c1.9,2,3.8,4,5.6,6.2l2-0.8c6.4,0,9.7,3.8,9.7,11.3
				c0,2.9-1.5,6.9-4.5,12c-7.8-6.4-11.7-11.2-11.7-14.5c0-2.7,0.9-5.3,2.7-7.3l1.7-0.7c-1.8-2.1-3.7-4.2-5.6-6.2
				c-0.4,0.5-0.9,1-1.3,1.6c-9.2,11.3-13.8,21.2-13.8,29.7c0,4.7,3.2,10.2,9.6,16.4c-21.6,15.8-42.4,28.5-62.3,38.1
				c6.4,2,10.8,2.9,13.4,2.9c13.2,0,32.4-11.7,57.6-35.3c5.1,4.6,10.5,8.8,16.1,12.7l8.5-24.2l-7.5-7.3
				C147.9,93.3,153.3,80.1,153.3,68.1z"/>
			<path d="M314.2,373.5L301.8,420c-8.8,6.2-18.2,11.6-28.1,16c-13.2,6.2-23.1,9.3-29.8,9.3c-18.1,0-27.1-13.6-27.1-40.8
				c0.1-5.3,0.6-10.6,1.5-15.9h-1.9c-1,0-3.3,2.2-7,6.7c-3.7,4.5-10.7,16.4-21.1,35.8c-24.6,45.7-47.4,73.8-68.6,84.2
				c-12.4,6-23.2,9.8-32.5,11.5c-7,1.3-18.6,2-34.7,2c-9.2-0.2-18.4-0.9-27.6-2c-14.1-1.7-22.4-3.5-24.9-5.5l0.7-1.5l3.4-2
				c24.6,0,44.6-2.5,60.1-7.6c15.5-5,33-14.9,52.7-29.5c21.2-15.6,36.1-29.9,44.9-42.7c11.2-18.2,22.5-36.5,33.7-54.9
				c16.6-25.7,29.6-40.6,38.8-44.7l2.4,2.2l0.5,2.4c-0.5,1.6-1.2,5-2.2,10.3c-1.6,8.4-2.5,16.9-2.4,25.4c0,17.4,7.2,26.1,21.7,26.1
				C269.2,404.8,289.1,394.4,314.2,373.5z"/>
			<path d="M369.9,601.1c-3.4,11.1-8.1,18.1-14.2,21l-85.4,42c2.6-10.1,10.3-18.3,23-24.7L369.9,601.1z"/>
			<path d="M409.7,286.1C409.7,286.1,409.7,286.1,409.7,286.1C409.7,286.1,409.7,286.1,409.7,286.1L409.7,286.1z"/>
			<path d="M490.8,234.8c-15.9,9.6-33.8,14.4-53.7,14.4c-4.8-0.1-9.6-0.6-14.4-1.3c-4.8-0.8-9.6-1.2-14.4-1.3
				c-25.2,0-43.7,5.8-55.4,17.3c-10.7,10.4-18.4,28.4-22.9,54c-3.2,18.2-4.7,28.9-4.7,32l0.2,10.4c3.6-2.3,6.9-5,9.8-8v-5.6
				c0.1-10,2.2-19.8,6.1-29c5.7-14.2,15-23.3,27.8-27.4c7.3-2.4,20.8-3.8,40.5-4.1c0,0,0,0,0,0h0c0,0,0,0,0,0
				c-9.3,7.2-21.7,18.7-37.3,34.7c-16.3,16.6-28.6,28.3-37.1,35.2v-3.7c-2.9,3-6.2,5.7-9.8,8l0.1,3.5l-15.4,12.9l-12.5,45.9
				c10.6-7.2,20.6-15.1,30-23.7c2.3,20.8,6.2,41.5,11.5,61.8l1.7,0.7c0.9-0.7,1.4-1.8,1.5-2.9V457c-3.7-34.5-5.5-54.7-5.4-60.5v-5.8
				c22-21.9,44-43.9,66.2-65.9c23.3-21,49.8-38,78.6-50.3c1.8-2.8,3.8-8.6,6-17.6s3.3-15.4,3.3-19.3L490.8,234.8z"/>
			<path d="M622.1,325.2c0,43.3-5.2,74.5-15.6,93.5c-12.5,22.8-37.8,41.1-75.9,54.9c-5.4,2-8.8,2.9-10.3,2.9
				c-1.2,0.2-2.2-0.6-2.4-1.8c0-0.1,0-0.1,0-0.2c3.6-7.3,9.5-15.5,17.8-24.4l21.2-22.2c16.3-18.2,27.4-32.3,33.5-42.2
				c10.3-16.8,15.4-33.7,15.4-50.8c0-12.2-5.4-33.2-16.2-63c-9.5-26.1-18.3-46.8-26.5-62.3c-4.2,31.3-6.3,51.4-6.3,60.5
				c0,16.9-1.9,26.3-5.5,28.1c-5.3-1-8-17.7-8-50.3c0-60.4,5-105.7,15.1-136c18.6,32.6,33.6,67.2,44.8,103
				C615.7,255.6,622.1,292.3,622.1,325.2z"/>
			<path d="M681.4,159.7c-3.4,11.1-8.1,18.1-14.2,21l-85.5,42c2.6-10.1,10.3-18.3,23-24.7L681.4,159.7z"/>
			<path d="M854.7,373.8l-12.5,46.4c-10.4,8.3-29.2,18.2-56.4,29.8c-5.4,24.3-18.5,50.3-39.1,78c-21.5,29-43,48.2-64.5,57.5
				c-18.1,7.8-40.8,11.7-68.1,11.7c-10.4,0-25.9-1.7-46.4-5.2c-24.4-4-37-8.2-37.9-12.6l2-1.5c4.9,0.2,12.6,1.1,23.2,2.9
				c10.1,1.6,17.9,2.4,23.4,2.4c11.2,0,27.7-3.2,49.3-9.5c47-13.8,87.8-41.1,122.3-81.8c12-14.2,18.9-26.5,20.5-37.1
				c-14.2,3.9-23.7,5.9-28.6,5.9c-14.8,0-22.2-4.9-22.2-14.7c0-10.2,4.1-23.2,12.5-38.8c9.3-17.4,18.4-26.1,27.5-26.1
				c8,0,15.1,3.1,21.3,9.3s9.4,13.3,9.4,21.2C818.1,400.1,839.4,387.5,854.7,373.8z"/>
			<path d="M864.7,8.1c-4.4-5.4-9.5-8.1-15.2-8.1c-12.7,0-24.2,6.8-34.3,20.3c-4.4,5.9-7.8,11.8-10.1,17.9c3-0.5,6-1,9-1.3
				c0.9-3.2,2.6-6.3,5.3-9.3c4-4.5,8.5-6.7,13.4-6.7c3.9,0,8.5,2.3,13.9,6.9s8,8.9,8,12.9c0,7.8-7.4,11.7-22.1,11.7
				c-12.8,0-19.2-3.6-19.2-10.7c0-1.6,0.2-3.2,0.7-4.8c-3,0.4-6,0.8-9,1.3c-2.6,6.7-3.9,13.5-3.9,20.5c0,11.7,6.7,17.6,20.1,17.6
				c12.7,0,24.1-5.4,34.2-16.4c10-10.9,15.1-22.7,15.1-35.4C870.6,18.4,868.5,12.7,864.7,8.1z"/>
			<path d="M917.7,220.5c0,45.9-5.8,83.8-17.3,113.8c-14,35.8-37.9,65.4-71.8,88.9l12.2-45.7c41.5-33.2,62.3-66.6,62.3-100.1
				c0-25.1-7.9-55.4-23.7-91.1c-3,15.9-7.6,39.8-13.8,71.5c-2.6,13.7-4.8,20.5-6.5,20.5l-2.2-0.7l-0.5-3.2
				c0-13.2,3.4-37.9,10.2-74.2c7.1-39.2,13.3-61.8,18.5-67.6c8.9,5.5,16.8,19,23.6,40.3C914.7,191.3,917.7,207.1,917.7,220.5z"/>
			<path d="M965.6,13.2c-3.4,11.1-8.1,18.1-14.2,21l-85.4,42c2.6-10.1,10.3-18.3,23-24.7L965.6,13.2z"/>
			<path d="M970,93.8c0-4.9-2.9-7.3-8.8-7.3c-8.1,0-12.2-1.1-12.2-3.4c0-4.1,2.4-6.1,7.3-6.1c1.7,0,3.3,0.3,4.9,1
				c1.6-1.1,4-4.6,7-10.3s4.8-9.8,5.3-12.2c-1.7-0.9-3.5-1.5-5.4-1.7c-6.9,0-14.8,5.9-23.8,17.8s-13.5,21.3-13.6,28.3
				c0,6.4,3.2,9.4,9.7,9.3c5.1-0.2,7.9,0.2,8.4,1.2c-2.6,3.6-11.2,8.1-25.6,13.4L893.3,134c0,2,1,2.9,3.2,2.9
				c13.7,0,28.6-3.8,44.9-11.5C960.5,116.4,970,105.8,970,93.8z"/>
			<path d="M1037.7,215.1c-11.2-35.8-26.2-70.4-44.8-103c-10.1,30.3-15.1,75.6-15.1,136c0,32.5,2.7,49.3,8,50.3
				c3.7-1.8,5.5-11.1,5.5-28.1c0-9.1,2.1-29.3,6.3-60.5c8.2,15.5,17,36.2,26.5,62.3c10.8,29.8,16.2,50.8,16.2,63
				c0,17.1-5.1,34-15.4,50.8c-6,9.9-17.1,24-33.4,42.2l-21.3,22.2c-8.3,9-14.2,17.1-17.8,24.4c0.1,1.2,1.1,2.1,2.3,2
				c0.1,0,0.1,0,0.2,0c1.5,0,4.9-1,10.2-2.9c38-13.8,63.3-32.1,75.8-54.9c10.5-19,15.8-50.2,15.8-93.5
				C1056.6,292.3,1050.3,255.6,1037.7,215.1z"/>
		</g>
	</g>
</g>
</svg>
