<?xml version="1.0" encoding="utf-8"?>
<!-- Generator: Adobe Illustrator 22.1.0, SVG Export Plug-In . SVG Version: 6.00 Build 0)  -->
<svg version="1.1" id="Layer_1" xmlns="http://www.w3.org/2000/svg" xmlns:xlink="http://www.w3.org/1999/xlink" x="0px" y="0px"
	 viewBox="0 0 881.1 515.6" style="enable-background:new 0 0 881.1 515.6;" xml:space="preserve">
<title>EH-Asset 68-layername</title>
<g id="Layer_2_1_">
	<g id="EsSamed">
		<g>
			<path d="M153.3,54.9c0-7-4-10.5-12.2-10.5c-8,0-16.5,5.6-25.6,16.6c2.3,1.5,4.4,3.2,6.3,5.1l2.3-0.9c6.4,0,9.7,3.8,9.7,11.3
				c0,2.9-1.5,6.9-4.5,12c-7.8-6.4-11.7-11.2-11.7-14.5c0-2.7,0.9-5.3,2.7-7.4l1.4-0.5c-1.8-1.9-4-3.6-6.3-5.1
				c-0.1,0.1-0.2,0.3-0.4,0.4c-9.2,11.3-13.8,21.2-13.8,29.7c0,4.7,3.2,10.2,9.6,16.4c-21.6,15.8-42.4,28.5-62.3,38.1
				c6.4,2,10.8,2.9,13.4,2.9c13.2,0,32.4-11.8,57.6-35.3c5.1,4.6,10.5,8.8,16.1,12.7l8.5-24.1l-7.5-7.3
				C147.9,80.1,153.3,67,153.3,54.9z"/>
			<path d="M314.2,360.4l-12.5,46.5c-8.8,6.2-18.2,11.6-28.1,16c-13.2,6.2-23.1,9.3-29.8,9.3c-18.1,0-27.1-13.6-27.1-40.8
				c0.1-5.3,0.6-10.6,1.5-15.9h-1.9c-1,0-3.3,2.2-7,6.7s-10.7,16.4-21.1,35.8c-24.6,45.7-47.4,73.8-68.6,84.2
				c-12.4,6-23.2,9.8-32.5,11.5c-7,1.3-18.6,2-34.7,2c-9.2-0.2-18.4-0.9-27.6-2C10.7,512,2.4,510.2,0,508.2l0.7-1.5l3.4-2
				c24.6,0,44.6-2.5,60.1-7.6s33-14.9,52.7-29.5c21.2-15.6,36.1-29.9,44.9-42.7c11.2-18.2,22.5-36.5,33.7-54.9
				c16.6-25.7,29.6-40.6,38.8-44.7l2.4,2.2l0.5,2.4c-0.5,1.6-1.2,5-2.2,10.3c-1.6,8.4-2.5,16.9-2.4,25.4c0,17.4,7.2,26.1,21.7,26.1
				C269.2,391.6,289.1,381.2,314.2,360.4z"/>
			<path d="M369.9,85.4c-3.4,11.1-8.1,18.1-14.2,21l-85.4,42c2.6-10.1,10.3-18.3,23-24.7L369.9,85.4z"/>
			<path d="M431.6,361.3l-12.5,46.4c-5.8,3.6-12.5,5.6-19.3,5.6c-11.6,0-20.7-5.1-27.3-15.3c-13.7,16.9-22.2,25.4-25.6,25.4
				c-3.7,0-9.3-4.3-16.6-12.9c-6.8-8-10.9-14.3-12.2-18.8c-3.7,5-10.7,11-21,18l12.2-45.4c7.5-7,18.7-17.4,33.7-31.3
				c1.6,0,9.7,6.1,24.2,18.3c14.5,12.2,26.9,18.3,37.1,18.3C414,369.8,423.6,366.9,431.6,361.3z"/>
			<path d="M596,382.8c-12.4,0-24.6-5.5-36.6-16.3c39.4-25.7,66.2-57.3,80.3-94.7c4.9-12.9,7.3-20.7,7.3-23.4
				c0-5.7-1.4-9.8-4.2-12.4c-1.2-0.1-2.4-0.2-3.7-0.2c-7,0-21.7,4.2-44,12.7c-24.1,9.2-39.8,16.8-47.1,23
				c-9.4,7.8-17.8,21.6-25.2,41.5c-3.5,9.4-8.1,25-13.8,46.6c3-1.6,5.8-3.5,8.4-5.6c5-20.2,10.9-34.2,17.7-41.7
				c6.7-7.1,20.9-15,42.7-23.6c20.5-8.1,34.6-12.2,42.2-12.2l4.4,0.5c0.6,0.9,1,1.9,1,2.9c0,2.9-9,11.5-26.9,25.8
				c-25.3,20.3-52.8,37.6-82,51.5c0.3-1.1,0.5-2.2,0.8-3.3c-2.6,2.1-5.4,4-8.4,5.6c-0.1,0.5-0.3,1-0.4,1.5
				c-27.7,12.7-46.8,19-57.4,19h-9.3c9.6-15.6,14.4-28.3,14.4-38.1c0-2.8-0.2-5.6-0.7-8.3L429,364.2l-12.2,45.1
				c7-5.4,12.1-9.7,15.4-12.8l6.6,1.2c25.1,0,47-2.6,65.7-7.8c-0.5,9.5-0.7,19.1-0.5,28.8l1.2,0.5l1.2-0.5
				c1.9-10.8,3.3-20.9,4.1-30.2c8.8-1.9,19.7-6.1,32.6-12.5c10.6,31.9,28.8,47.8,54.5,47.9c22.3,0,42.1-5.5,59.3-16.6l12.4-46.6
				C649.9,375.4,625.4,382.8,596,382.8z"/>
			<path d="M742.2,207.3c0,45.9-5.8,83.8-17.3,113.8c-14,35.8-37.9,65.4-71.8,88.9l12.2-45.6c41.5-33.2,62.3-66.6,62.3-100.1
				c0-25.1-7.9-55.4-23.7-91.1c-3.1,16-7.7,39.8-13.8,71.5c-2.6,13.7-4.8,20.5-6.5,20.5l-2.2-0.7l-0.5-3.2
				c0-13.2,3.4-37.9,10.2-74.2c7.1-39.2,13.3-61.8,18.5-67.6c8.9,5.5,16.8,19,23.6,40.3C739.2,178.1,742.2,193.9,742.2,207.3z"/>
			<path d="M790,0c-3.4,11.1-8.1,18.1-14.2,21l-85.4,42c2.6-10.1,10.3-18.3,23-24.7L790,0z"/>
			<path d="M457.8,107.7c-6.2,0-9.3-5.9-9.3-17.8l-5.9,1.5c-12.4,21.6-22.4,32.5-30,32.5c-5.7,0-8.5-3.8-8.5-11.5l0.7-7.6l-8.5,4.6
				c-4.6,12.4-6.9,20.8-6.9,25.3c0,9.2,4.7,13.8,14.2,13.8c10.9,0,21.3-7.1,31.1-21.2c5.9,4.2,10.7,6.3,14.4,6.3
				c11.8,0,21.5-7.1,29.1-21.2c5.7-10.4,9.4-22.6,11-36.6l-7.6,2.2C475.2,97.7,467.2,107.7,457.8,107.7z"/>
			<path d="M398.7,98.9l79.8-28.3c6.5-2.3,12.1-8.5,16.8-18.6l-69.6,24.4C414.9,80.1,405.8,87.6,398.7,98.9z"/>
			<path d="M862.1,201.9c-11.2-35.8-26.2-70.4-44.8-103c-10.1,30.3-15.1,75.6-15.1,136c0,32.6,2.7,49.3,8,50.3
				c3.7-1.8,5.6-11.2,5.5-28.1c0-9.1,2.1-29.3,6.3-60.6c8.2,15.5,17,36.2,26.5,62.3c10.8,29.8,16.2,50.8,16.2,63
				c0,17.1-5.1,34-15.4,50.8c-6,9.9-17.1,24-33.5,42.2c-7,7.3-14.1,14.7-21.2,22.2c-8.3,8.9-14.2,17.1-17.8,24.4
				c0.1,1.2,1.1,2,2.2,2c0.1,0,0.1,0,0.2,0c1.5,0,4.9-1,10.2-2.9c38-13.8,63.3-32.1,75.8-54.9c10.5-19.1,15.8-50.3,15.8-93.6
				C881.1,279.1,874.8,242.4,862.1,201.9z"/>
			<path d="M794.4,80.6c0-4.9-2.9-7.3-8.8-7.3c-8.1,0-12.2-1.1-12.2-3.4c0-4.1,2.4-6.1,7.3-6.1c1.7,0,3.3,0.3,4.9,1
				c1.6-1.1,4-4.6,7-10.3s4.8-9.8,5.3-12.2c-1.7-0.9-3.5-1.5-5.4-1.7c-6.9,0-14.8,5.9-23.8,17.8s-13.5,21.3-13.5,28.3
				c0,6.3,3.2,9.4,9.7,9.3c5.1-0.2,7.9,0.2,8.4,1.2c-2.6,3.6-11.2,8.1-25.6,13.4l-29.8,10.3c0,2,1.1,2.9,3.2,2.9
				c13.7,0,28.7-3.8,44.9-11.5C784.9,103.2,794.4,92.6,794.4,80.6z"/>
		</g>
	</g>
</g>
</svg>
