<?xml version="1.0" encoding="utf-8"?>
<!-- Generator: Adobe Illustrator 22.1.0, SVG Export Plug-In . SVG Version: 6.00 Build 0)  -->
<svg version="1.1" id="Layer_1" xmlns="http://www.w3.org/2000/svg" xmlns:xlink="http://www.w3.org/1999/xlink" x="0px" y="0px"
	 viewBox="0 0 772.2 720.5" style="enable-background:new 0 0 772.2 720.5;" xml:space="preserve">
<title>EH-Asset 29-layername</title>
<g id="Layer_2_1_">
	<g id="ElHakem">
		<g>
			<path d="M154.3,68.1c0-7-4-10.5-12.1-10.5c-8.1,0-16.8,5.7-26,17c-0.9,1.2-1.8,2.3-2.7,3.4c2.3,1,4.7,2,6.9,3.1
				c0.3-0.4,0.6-0.9,1-1.3l3.7-1.5c6.4,0,9.7,3.8,9.7,11.3c0,2.9-1.5,6.9-4.5,12c-7.8-6.4-11.6-11.2-11.6-14.5
				c0-2.2,0.6-4.3,1.8-6.1c-2.3-1.1-4.6-2.1-6.9-3.1c-7.5,9.9-11.2,18.7-11.2,26.3c0,4.7,3.2,10.2,9.6,16.4
				c-21.6,15.8-42.4,28.5-62.3,38.1c6.3,2,10.8,2.9,13.4,2.9c13.2,0,32.4-11.7,57.6-35.3c5.1,4.6,10.5,8.8,16.1,12.7l8.5-24.2
				l-7.5-7.3C148.8,93.3,154.3,80.1,154.3,68.1z"/>
			<path d="M222.9,374.8l-12.2,45.6c-18.7,11.7-37.4,23.4-56.1,34.9c-25.7,17.7-38.5,30.8-38.5,39.1c0,1.8,1,2.7,2.9,2.7
				c4.9,0,12.2-5.2,22-15.6c6.7-7.2,13.3-14.4,19.8-21.7c1.1,0.8,1.7,2.2,1.7,4.1c0,2.3-1.2,8.6-3.7,19c-3.1,13.3-4.8,20.5-5.1,21.5
				c-2.4,7-5.9,13.5-10.5,19.3c-7,9.1-22.5,22.3-46.4,39.5c-27.4,19.7-45.8,34.3-55.3,43.7c-17.8,17.6-26.7,34.3-26.7,50.1
				c0,15.9,13.2,28.4,39.5,37.4c21.6,7.5,46.1,11.2,73.2,11.2c44.6,0,74.4-0.7,89.4-2.2l0.5,1.2c0,4.7-13.4,8.7-40.3,12
				c-20.8,2.6-38.2,3.8-52,3.8c-83.3,0-125-21.1-125-63.2c0-19.4,7.9-41.2,23.7-65.4c14.2-21.6,30.3-39,48.2-52l30.1-22
				c-1.3-4.2-2-8.6-1.9-12.9c0-12.7,5-27.6,14.9-44.7c9.9-16.4,20.4-28.2,31.5-35.4C180.3,403.1,205.8,386.5,222.9,374.8z"/>
			<path d="M279.5,13.2c-3.4,11.1-8.1,18.1-14.2,21l-85.4,42c2.6-10.1,10.3-18.3,22.9-24.7L279.5,13.2z"/>
			<path d="M410.6,98.6c-3.4,11.1-8.1,18.1-14.2,21l-85.4,42c2.6-10.1,10.3-18.3,23-24.6L410.6,98.6z"/>
			<path d="M491.9,396.5c-12.7,0-23.4-3.6-32-10.7c-9.3-7.6-13.9-17.7-13.9-30.3c0-6.6,0.6-13.3,1.7-19.8
				c17.4-15.5,42.6-26.5,75.4-33.2c7.5-10.6,12.7-23.7,15.6-39.3c-10.1,4.6-21.1,6.9-32.2,6.8c-7.3,0-17.9-2.1-31.9-6.2
				c-13.9-4.1-24.5-6.2-31.6-6.2c-27.4,0-47.8,12.4-61.2,37.1c-6.8,12.6-14,36.8-21.8,72.5c4.1-2.4,7.4-6,10.7-9.5
				c6.8-40.2,24.8-60.3,54-60.3c5.2,0,14.7,1.6,28.3,4.9h0c-13.5,6.2-27.9,14.9-43.2,26.2c-7.2,5.2-20.3,15.7-39.5,31.6
				c0.1-0.8,0.3-1.6,0.4-2.4c-3.3,3.5-6.5,7.1-10.7,9.5c-0.1,0.3-0.1,0.6-0.2,0.9l-9,8.5l-12.5,45.9c7.8-5.8,13.7-10.3,17.6-13.4
				l-2,30.3v30.5l1.2,1.2l1.2-0.7l2.2-4.1c-0.6-17.6,1.6-39.2,6.6-65c24.7-21.5,47.8-40.5,69.3-56.9c-2.9,13-4.4,23.7-4.4,32
				c0,17.4,5.1,32.1,15.3,44.1c10.7,12.7,24.7,19,42,19c19.9,0,39.8-6.2,59.8-18.5l12.5-46.5C541.1,389.1,518.4,396.5,491.9,396.5z"
				/>
			<path d="M580.3,8.1c-4.4-5.4-9.5-8.1-15.2-8.1c-12.7,0-24.2,6.8-34.3,20.3c-3,4-5.6,8.1-7.6,12.2c2.4,0.8,4.8,1.5,7.2,2.2
				c1-2.5,2.5-4.9,4.6-7.2c4-4.5,8.5-6.7,13.4-6.7c3.9,0,8.5,2.3,13.9,6.9c5.3,4.6,8,8.9,8,12.9c0,7.8-7.4,11.7-22.1,11.7
				c-12.8,0-19.2-3.6-19.2-10.7c0-2.4,0.5-4.6,1.4-6.9c-2.4-0.7-4.8-1.4-7.2-2.2c-4.2,8.5-6.4,17.2-6.4,26.1
				c0,11.7,6.7,17.6,20.1,17.6c12.7,0,24.1-5.4,34.2-16.4s15.1-22.7,15.1-35.4C586.1,18.4,584.1,12.7,580.3,8.1z"/>
			<path d="M633.3,220.5c0,45.9-5.8,83.8-17.3,113.8c-14,35.8-37.9,65.4-71.8,88.9l12.2-45.7c41.5-33.2,62.3-66.6,62.3-100.1
				c0-25.1-7.9-55.4-23.7-91.1c-3.1,15.9-7.7,39.8-13.8,71.5c-2.6,13.7-4.8,20.5-6.5,20.5l-2.2-0.7l-0.5-3.2
				c0-13.2,3.4-37.9,10.2-74.2c7.1-39.2,13.3-61.8,18.5-67.6c8.9,5.5,16.8,19,23.6,40.3C630.3,191.3,633.3,207.1,633.3,220.5z"/>
			<path d="M681.2,13.2c-3.4,11.1-8.2,18.1-14.2,21l-85.5,42c2.6-10.1,10.3-18.3,23-24.7L681.2,13.2z"/>
			<path d="M411.4,3.7C387.8,48.1,372,76.9,364,90.1c-19.3,31.6-39.5,57.2-60.5,76.9c-32.7,25.2-57.6,43.2-74.9,54l2.9,1
				c17.2-3.6,38.8-15.9,64.7-36.9c22.6-18.1,40.7-35.9,54.4-53.5c-0.3,12.5,0.3,22.4,2,29.5l4.4-2.9c1.3-28.2,21.2-80,59.8-155.3
				l-2.2-1.2L411.4,3.7z"/>
			<path d="M280.3,383.5c-3.2-4.5-5.2-13.4-5.9-26.6c-0.7-12.7-1.2-37.5-1.5-74.5c-0.2-31.1-1.1-55.9-3-74.5l-2.2-1
				c-2.1,2.1-4.8,7.9-8.2,17.2c-3.4,9.4-5,15.7-5.1,18.9c0,6.8,0.4,17,1.2,30.5c0.8,13.5,1.2,23.7,1.2,30.5
				c0,18.5-2.6,32.5-7.9,41.8c-4.3,7.8-14.3,18.3-30.2,31.5l-12.2,45.5c20.1-14.3,36.3-35.2,48.6-62.5c0.7,26,1.9,42.3,3.7,48.8
				c4.9,18,16.2,27,34.1,27c17.2,0,33.4-5.3,48.7-16l12.4-46.2c-15,12.9-31.1,19.3-48.3,19.3C293.4,393.3,284.8,390.1,280.3,383.5z"
				/>
			<path d="M685.5,93.8c0-4.9-2.9-7.3-8.8-7.3c-8.1,0-12.2-1.1-12.2-3.4c0-4.1,2.4-6.1,7.3-6.1c1.7,0,3.3,0.3,4.9,1
				c1.6-1.1,4-4.6,7-10.3c3-5.7,4.8-9.8,5.2-12.2c-1.7-0.9-3.5-1.5-5.4-1.7c-6.9,0-14.8,5.9-23.8,17.8c-9,11.9-13.5,21.3-13.5,28.3
				c0,6.4,3.2,9.4,9.7,9.3c5.1-0.2,7.9,0.3,8.4,1.2c-2.6,3.6-11.1,8.1-25.6,13.4L608.9,134c0,2,1.1,2.9,3.2,2.9
				c13.7,0,28.6-3.8,44.9-11.5C676,116.4,685.5,105.8,685.5,93.8z"/>
			<path d="M753.2,215.1c-11.2-35.8-26.2-70.4-44.8-103c-10.1,30.3-15.1,75.6-15.1,136c0,32.5,2.7,49.3,8,50.3
				c3.7-1.8,5.5-11.1,5.5-28.1c0-9.1,2.1-29.3,6.3-60.5c8.2,15.5,17,36.2,26.5,62.3c10.8,29.8,16.2,50.8,16.2,63
				c0,17.1-5.1,34-15.4,50.8c-6,9.9-17.2,24-33.5,42.2l-21.3,22.2c-8.3,9-14.2,17.1-17.8,24.4c0.2,1.3,1,2,2.4,2s4.9-1,10.2-2.9
				c38-13.8,63.3-32.1,75.8-54.9c10.6-19,15.8-50.2,15.8-93.5C772.2,292.3,765.9,255.6,753.2,215.1z"/>
		</g>
	</g>
</g>
</svg>
