<svg xmlns="http://www.w3.org/2000/svg" viewBox="0 0 894.19 562.01">
  <title>EH-Asset 6-layername</title>
  <g id="Layer_2" data-name="Layer 2">
    <g id="EsSelam">
      <g>
        <path d="M104.64,54.92q0,18.06-16.4,39.52l7.47,7.32-8.54,24.15a168.14,168.14,0,0,1-16.12-12.73q-37.84,35.25-57.62,35.26-3.91,0-13.43-2.93,29.79-14.4,62.26-38.09-9.63-9.27-9.63-16.36,0-12.69,13.86-29.66t26-17Q104.64,44.43,104.64,54.92ZM85.11,76.45q0-11.26-9.67-11.26l-3.72,1.46A11,11,0,0,0,69,74q0,4.91,11.65,14.45Q85.11,80.86,85.11,76.45Z"/>
        <path d="M316.55,93.75Q308.5,151.86,251.18,207,200,250.74,148.49,294.68,45.54,390.38,45.55,460.94q0,44.93,69.26,71,52.92,20,106.33,20a382.68,382.68,0,0,0,41-2.2l-3.66,3.91Q226.22,562,215,562q-72.51,0-118.65-20.51-64-28.07-64-91.06,0-82.51,97.42-176.27,35.39-33.93,105-87.4c-1-1.47-1.46-4.4-1.46-8.79q0-3.9,8.78-32.47,23.67,0,40-12.94,10-7.56,21-24.17Q312.15,94.48,316.55,93.75Z"/>
        <path d="M496,12.21q-5.12,16.61-14.16,21l-85.45,42q3.92-15.14,22.95-24.66Z"/>
        <path d="M528.46,360.6,516,406.81q-15.13,12.87-30.76,12.87-23.19,0-34.41-39.09Q434,443,420.59,470.84q-27.81,58-65.86,58-29,0-49.51-28-46.87,45.66-139.64,45.66l-2-.25-.24-1.22q0-2.93,9.76-5.12l12.7-2.45Q251,521.56,294.73,479.49,288,458.25,288,441.89q0-41.49,2.44-55.17,4.88-28.08,24.9-79.84,18.8-48.83,34.18-76.9,16.85,76.91,16.85,103.27,0,33.21-3.4,46.63-16.5,65.43-36.89,95.95,14.16,11,33.21,11,42.48,0,75.68-95.95,7.08-20.5,7.08-63.72,0-23.44-5.14-72.51Q431,198,424.9,188.72l16.51-40.28Q446,152.6,453.56,207q2.67,18.81,7,56.15.73,34.19,1.46,68.12,5.61,45.4,35.64,45.41Q510.89,376.71,528.46,360.6ZM351.22,374.42q0-18.07-3.66-43.22-4.65-31-11.72-39.3Q299,372.71,299,412q0,28.82,12.7,48.83Q351.23,415.44,351.22,374.42Z"/>
        <path d="M591.45,52,521.87,76.42Q505.52,82,494.77,98.88l79.84-28.32Q584.38,67.14,591.45,52Z"/>
        <path d="M553.86,107.67q-9.29,0-9.28-17.83l-5.86,1.47q-18.56,32.47-30,32.47-8.55,0-8.55-11.48l.74-7.56-8.55,4.64q-6.84,18.59-6.83,25.25,0,13.81,14.19,13.81,16.4,0,31.08-21.15,8.82,6.26,14.44,6.25,17.63,0,29.13-21.24,8.55-15.61,11-36.62l-7.57,2.2Q568,107.67,553.86,107.67Z"/>
        <path d="M681.79,360.79,669.09,408q-17.82,13.19-44.19,13.19-20.5,0-32.71-14.65Q581,392.81,581,372.54a72.11,72.11,0,0,1,.73-10.25l-5.35,1a85.23,85.23,0,0,1-20.18,23.09Q541.1,398,528.45,396.56a153.21,153.21,0,0,1-15.37,12.78l12.46-46q6.27-3.92,11.1-16.4,5.31-13.91,9.18-17.82l1.93.73a199.44,199.44,0,0,1-2,20.51q5.4,0,17.66-11.72,10.56-10,14.24-16.6,2.2-4.14,7.11-20.26c.66-2.44,2.45-5,5.4-7.57l1.47,1.46.49,11.23q0,1.72-1.47,11.24,2.46,0,10.52-5.86,9-6.6,18.55-26.13,8.79-18.54,9.77-19l1.22,1.46v4.89q0,21.24-11,46.63-12,27.58-28.32,37.84,2.44,26.61,33.94,26.61Q654.93,384.52,681.79,360.79Z"/>
        <path d="M755.27,207.28q0,68.84-17.33,113.76-21,53.71-71.78,88.87l12.21-45.65q62.25-49.81,62.25-100.1,0-37.59-23.68-91.06-4.59,23.93-13.77,71.53-3.87,20.5-6.52,20.51l-2.17-.74-.49-3.17q0-19.77,10.21-74.22,10.71-58.83,18.49-67.63,13.37,8.31,23.58,40.29Q755.27,187.26,755.27,207.28Z"/>
        <path d="M803.12,0Q798,16.61,789,21L703.51,63q3.91-15.14,23-24.66Z"/>
        <path d="M807.52,80.57q0-7.33-8.79-7.33c-8.14,0-12.21-1.13-12.21-3.42q0-6.09,7.33-6.1a12,12,0,0,1,4.88,1q2.43-1.71,7-10.28t5.25-12.2a15,15,0,0,0-5.41-1.69q-10.31,0-23.82,17.82t-13.5,28.32q0,9.52,9.65,9.28c5.11-.16,7.92.24,8.41,1.22q-3.9,5.37-25.63,13.43l-29.79,10.25q0,2.93,3.18,2.93,20.51,0,44.92-11.48Q807.51,98.64,807.52,80.57Z"/>
        <path d="M875.2,201.9a525.52,525.52,0,0,0-44.78-103q-15.09,45.41-15.09,136,0,48.84,8,50.3,5.54-2.69,5.54-28.08,0-13.66,6.28-60.55,12.27,23.21,26.52,62.26,16.2,44.67,16.2,63,0,25.64-15.38,50.78-9,14.9-33.45,42.23-10.5,11-21.24,22.22-12.45,13.42-17.82,24.42c.16,1.3,1,1.95,2.44,1.95s4.86-1,10.22-2.93q57-20.74,75.76-54.93,15.82-28.57,15.83-93.51Q894.19,262.71,875.2,201.9Z"/>
      </g>
    </g>
  </g>
</svg>
