<?xml version="1.0" encoding="utf-8"?>
<!-- Generator: Adobe Illustrator 22.1.0, SVG Export Plug-In . SVG Version: 6.00 Build 0)  -->
<svg version="1.1" id="Layer_1" xmlns="http://www.w3.org/2000/svg" xmlns:xlink="http://www.w3.org/1999/xlink" x="0px" y="0px"
	 viewBox="0 0 1026.6 664.1" style="enable-background:new 0 0 1026.6 664.1;" xml:space="preserve">
<title>EH-Asset 70-layername</title>
<g id="Layer_2_1_">
	<g id="ElMuktedir">
		<g>
			<path d="M146.2,129.1c0-7-4.1-10.5-12.2-10.5c-7.5,0-15.6,4.9-24.1,14.8c1.1,2.6,2.1,5.2,3.1,7.8c0.1-0.1,0.2-0.2,0.3-0.3
				l3.7-1.5c6.4,0,9.7,3.8,9.7,11.3c0,2.9-1.5,6.9-4.5,12c-7.8-6.4-11.6-11.2-11.6-14.5c0-2.6,0.8-5,2.4-7c-1-2.6-2-5.2-3.1-7.8
				c-0.6,0.7-1.3,1.5-1.9,2.2c-9.2,11.3-13.8,21.2-13.8,29.7c0,4.7,3.2,10.2,9.6,16.4c-21.6,15.8-42.4,28.5-62.3,38.1
				c6.4,2,10.8,2.9,13.4,2.9c13.2,0,32.4-11.8,57.7-35.3c5.1,4.6,10.5,8.8,16.1,12.7l8.5-24.2l-7.5-7.3
				C140.8,154.4,146.2,141.2,146.2,129.1z"/>
			<path d="M268.5,297.5c0,17.5-2.7,26.7-8,27.7l-6.6-8.1c-4.6,0.2-8.3,2.9-11.2,8.1c-8,13.9-16.5,31.9-25.4,54.3
				c-7.3,18.7-14.7,37.4-22,56c-6.2,14.7-15.7,29.2-28.6,43.5c-13.7,15.3-27.3,26-40.8,32c-15.3,7-36.4,10.5-63.2,10.5
				c-40.5,0-61.4-2.1-62.7-6.3l2.4-1.8c34.2,0,65.9-7.3,95.2-22c30.4-15.3,54.8-36.8,73.2-64.6c9.9-15.1,20.6-35.2,32-60.2
				l22.5-50.2c12.7-25.2,22.5-37.8,29.5-37.8c3.9,0,7.2,2.3,10,6.8C267.3,289,268.5,293.2,268.5,297.5z"/>
			<path d="M325.7,601.1c-3.4,11.1-8.1,18.1-14.2,21l-85.4,42c2.6-10.1,10.3-18.3,23-24.7L325.7,601.1z"/>
			<path d="M491.7,373.5L479.3,420c-8.8,6.2-18.2,11.6-28.1,16c-13.2,6.2-23.1,9.3-29.8,9.3c-18.1,0-27.1-13.6-27.1-40.8
				c0.1-5.3,0.6-10.6,1.5-15.9h-2c-1,0-3.3,2.2-7,6.7c-3.7,4.5-10.7,16.4-21.1,35.8c-24.6,45.7-47.4,73.8-68.6,84.2
				c-12.4,6-23.2,9.8-32.5,11.5c-7,1.3-18.6,2-34.7,2c-9.2-0.2-18.4-0.9-27.6-2c-14.2-1.7-22.5-3.5-24.9-5.5l0.7-1.5l3.4-2
				c24.6,0,44.6-2.5,60.1-7.6c15.5-5,33-14.9,52.7-29.5c21.2-15.6,36.1-29.9,44.9-42.7c11.2-18.2,22.5-36.5,33.7-54.9
				c16.6-25.7,29.6-40.6,38.8-44.7l2.4,2.2l0.5,2.4c-0.5,1.6-1.2,5-2.2,10.3c-1.6,8.4-2.5,16.9-2.4,25.4c0,17.4,7.2,26.1,21.7,26.1
				C446.7,404.8,466.6,394.4,491.7,373.5z"/>
			<path d="M547.4,13.2c-3.4,11.1-8.1,18.1-14.2,21l-85.5,42c2.6-10.1,10.3-18.3,23-24.7L547.4,13.2z"/>
			<path d="M520.5,197.5c-20.5,13.2-38.9,23.1-55.2,29.8c-10.6,20.5-15.7,33.8-15.4,39.8c8.6-4.5,15-8,19.2-10.5
				c21.3-11.9,33-19,35.3-21.2C510.9,229.2,516.3,216.6,520.5,197.5z"/>
			<path d="M539.6,392.1c-11.9,6.2-21.7,9.3-29.5,9.3c-6.7,0-11.4-0.9-14.2-2.7c12.7-17.4,19-32.1,19-43.9c0-2.8-0.2-5.6-0.7-8.3
				c-9.1,10.4-18,20.7-26.8,30.8l-12.2,45.3l6.6-5.2c6.5,12,16.7,18,30.7,18c13.2,0,26.6-5,40.3-15l12.5-46.5
				C558.8,380.3,550.2,386.4,539.6,392.1z"/>
			<path d="M585.9,8.1c-4.4-5.4-9.5-8.1-15.2-8.1c-12.7,0-24.2,6.8-34.3,20.3c-9.3,12.4-14,25.1-14,38.3c0,11.7,6.7,17.6,20.1,17.6
				c12.7,0,24.1-5.4,34.2-16.4c1.3-1.5,2.6-2.9,3.7-4.4c-2.3-2.8-4.8-5.4-7.5-7.9c-3.4,3.1-9.8,4.7-19.2,4.7
				c-12.8,0-19.2-3.6-19.2-10.7c0-5,2-9.7,6-14.1c4-4.5,8.5-6.7,13.4-6.7c3.9,0,8.5,2.3,13.9,6.9c5.3,4.6,8,8.9,8,12.9
				c0,2.8-1,5.1-2.9,6.9c2.7,2.5,5.2,5.1,7.5,7.9c7.6-9.7,11.3-20,11.3-31C591.8,18.4,589.7,12.7,585.9,8.1z"/>
			<path d="M757.1,68.1c0-7-4-10.5-12.2-10.5c-8,0-16.6,5.6-25.8,16.7c2.2,1.5,4.3,3.2,6.2,5l2.5-1c6.4,0,9.7,3.8,9.7,11.3
				c0,2.9-1.5,6.9-4.5,12c-7.8-6.4-11.6-11.2-11.7-14.5c0-2.7,0.9-5.3,2.7-7.3l1.2-0.5c-1.9-1.8-4-3.5-6.2-5
				c-0.1,0.1-0.1,0.2-0.2,0.3c-9.2,11.3-13.8,21.2-13.8,29.7c0,4.7,3.2,10.2,9.6,16.4c-21.6,15.8-42.4,28.5-62.3,38.1
				c6.4,2,10.8,2.9,13.4,2.9c13.2,0,32.4-11.7,57.6-35.3c5.1,4.6,10.5,8.8,16.1,12.7l8.5-24.2l-7.5-7.3
				C751.6,93.3,757.1,80.1,757.1,68.1z"/>
			<path d="M813.7,374.5l-12.5,46.4c-5.8,3.6-12.4,5.6-19.3,5.6c-11.6,0-20.7-5.1-27.3-15.3c-13.7,16.9-22.2,25.4-25.6,25.4
				c-3.7,0-9.3-4.3-16.6-12.9c-6.8-8-10.9-14.3-12.2-18.8c-3.7,5-10.7,11-21,18l12.2-45.4c7.5-7,18.7-17.4,33.7-31.3
				c1.6,0,9.7,6.1,24.2,18.3c14.5,12.2,26.9,18.3,37.1,18.3C796.1,383,805.7,380.1,813.7,374.5z"/>
			<path d="M834.7,8.1c-4.4-5.4-9.5-8.1-15.2-8.1c-12.7,0-24.2,6.8-34.3,20.3c-1.5,2-2.9,4-4.1,6c2.5,0.7,5,1.4,7.4,2.2
				c0.3-0.4,0.6-0.7,0.9-1.1c4-4.5,8.5-6.7,13.4-6.7c3.9,0,8.5,2.3,13.9,6.9c5.3,4.6,8,8.9,8,12.9c0,7.8-7.4,11.7-22.1,11.7
				c-12.8,0-19.2-3.6-19.2-10.7c0-4.6,1.7-8.9,5.1-13.1c-2.5-0.8-5-1.5-7.4-2.2c-6.6,10.5-9.9,21.3-9.9,32.3
				c0,11.7,6.7,17.6,20.1,17.6c12.7,0,24.1-5.4,34.2-16.4s15.1-22.7,15.1-35.4C840.5,18.4,838.5,12.7,834.7,8.1z"/>
			<path d="M887.7,220.5c0,45.9-5.8,83.8-17.3,113.8c-14,35.8-37.9,65.4-71.8,88.9l12.2-45.7c41.5-33.2,62.3-66.6,62.3-100.1
				c0-25.1-7.9-55.4-23.7-91.1c-3.1,15.9-7.7,39.8-13.8,71.5c-2.6,13.7-4.7,20.5-6.5,20.5l-2.2-0.7l-0.5-3.2
				c0-13.2,3.4-37.9,10.2-74.2c7.1-39.2,13.3-61.8,18.5-67.6c8.9,5.5,16.8,19,23.6,40.3C884.7,191.3,887.7,207.1,887.7,220.5z"/>
			<path d="M935.5,13.2c-3.4,11.1-8.1,18.1-14.2,21l-85.5,42c2.6-10.1,10.3-18.3,23-24.7L935.5,13.2z"/>
			<path d="M637.6,393.5c-20.2,0-33.1-4.2-38.8-12.5c22.4-25.7,33.6-46.5,33.5-62.3c0-20.7-4.7-31-14.1-31
				c-4.5,0-11.4,3.6-20.4,10.8s-17.5,17.6-25.3,31.3c-8.3,14.7-12.4,27.2-12.4,37.6c0,3.1,0.4,6.3,1.2,9.3l-0.2,0.7
				c7.7-5.2,14.6-11.3,21.4-17.6c-4.2-5.3-6.3-9.7-6.3-13.1c0-2.9,3.7-7.6,11.1-14.1c7.4-6.5,12.6-9.7,15.8-9.7
				c8.5,0,12.8,3.2,12.8,9.5c0,9.2-10.4,19.2-31.2,29.9c-0.7-0.8-1.4-1.7-2-2.5c-6.9,6.3-13.7,12.4-21.4,17.6l-12.3,46.2
				c9.7-6.9,19-14.4,27.8-22.3c9.9,11.6,17.7,19.6,23.4,23.8c9,6.7,20,10.4,31.3,10.3c18.4,0.1,36.4-5.3,51.8-15.4l12.7-47.2
				C677.8,386.7,658.4,393.5,637.6,393.5z"/>
			<path d="M651.9,201.2c2-8.3,3.3-14.6,4.2-18.8c-23.8,14.7-42.3,24.7-55.7,30c-10.1,20-15.1,32.1-15.1,36.4l0.3,2.9
				C626.7,231.2,648.8,214.4,651.9,201.2z"/>
			<path d="M939.9,93.8c0-4.9-2.9-7.3-8.8-7.3c-8.1,0-12.2-1.1-12.2-3.4c0-4.1,2.4-6.1,7.3-6.1c1.7,0,3.3,0.3,4.9,1
				c1.6-1.1,4-4.6,7-10.3c3-5.7,4.8-9.8,5.3-12.2c-1.7-0.9-3.5-1.5-5.4-1.7c-6.9,0-14.8,5.9-23.8,17.8s-13.5,21.3-13.5,28.3
				c0,6.4,3.2,9.4,9.7,9.3c5.1-0.2,7.9,0.2,8.4,1.2c-2.6,3.6-11.2,8.1-25.6,13.4L863.3,134c0,2,1,2.9,3.2,2.9
				c13.7,0,28.6-3.8,44.9-11.5C930.4,116.4,939.9,105.8,939.9,93.8z"/>
			<path d="M1007.6,215.1c-11.2-35.8-26.2-70.4-44.8-103c-10.1,30.3-15.1,75.6-15.1,136c0,32.5,2.7,49.3,8,50.3
				c3.7-1.8,5.5-11.1,5.5-28.1c0-9.1,2.1-29.3,6.3-60.5c8.2,15.4,17,36.2,26.5,62.2c10.8,29.8,16.2,50.8,16.2,63
				c0,17.1-5.1,34-15.4,50.8c-6,9.9-17.1,24-33.4,42.2l-21.2,22.2c-8.3,9-14.3,17.1-17.8,24.4c0.1,1.2,1.1,2.1,2.3,2
				c0.1,0,0.1,0,0.2,0c1.5,0,4.9-1,10.2-2.9c38-13.8,63.3-32.1,75.8-54.9c10.6-19,15.8-50.2,15.8-93.5
				C1026.6,292.3,1020.3,255.6,1007.6,215.1z"/>
		</g>
	</g>
</g>
</svg>
