<?xml version="1.0" encoding="utf-8"?>
<!-- Generator: Adobe Illustrator 22.1.0, SVG Export Plug-In . SVG Version: 6.00 Build 0)  -->
<svg version="1.1" id="Layer_1" xmlns="http://www.w3.org/2000/svg" xmlns:xlink="http://www.w3.org/1999/xlink" x="0px" y="0px"
	 viewBox="0 0 951.1 575.2" style="enable-background:new 0 0 951.1 575.2;" xml:space="preserve">
<title>EH-Asset 71-layername</title>
<g id="Layer_2_1_">
	<g id="ElMukaddim">
		<g>
			<path d="M104.6,68.1c0-7-4-10.5-12.2-10.5c-6.9,0-14.2,4.1-22,12.4c1,3,1.9,6.2,2.7,9.3l2.2-0.9c6.4,0,9.7,3.8,9.7,11.3
				c0,2.9-1.5,6.9-4.5,12C72.9,95.3,69,90.5,69,87.2c0-2.7,0.9-5.3,2.7-7.3l1.5-0.6c-0.9-3.1-1.7-6.2-2.7-9.3c-1.3,1.4-2.7,3-4,4.6
				c-9.2,11.3-13.8,21.2-13.8,29.7c0,4.7,3.2,10.2,9.6,16.4C40.6,136.4,19.9,149.1,0,158.7c6.3,2,10.8,2.9,13.4,2.9
				c13.2,0,32.4-11.7,57.6-35.3c5.1,4.6,10.5,8.8,16.1,12.7l8.5-24.2l-7.5-7.3C99.2,93.3,104.6,80.1,104.6,68.1z"/>
			<path d="M316.5,106.9c-5.4,38.7-27.2,76.5-65.4,113.3c-34.1,29.1-68.3,58.4-102.7,87.6C79.9,371.7,45.5,427.1,45.6,474.1
				c0,29.9,23.1,53.6,69.3,71c35.3,13.3,70.7,20,106.3,20c13.7,0,27.4-0.7,41-2.2l-3.7,3.9c-21.5,5.6-36,8.4-43.5,8.4
				c-48.3,0-87.9-6.8-118.7-20.5c-42.7-18.7-64-49.1-64-91.1c0-55,32.5-113.8,97.4-176.3c23.6-22.6,58.6-51.8,105-87.4
				c-1-1.5-1.5-4.4-1.5-8.8c0-2.6,2.9-13.4,8.8-32.5c15.8,0,29.1-4.3,40-12.9c6.7-5,13.7-13.1,21-24.2
				C309.1,112.3,313.6,107.4,316.5,106.9z"/>
			<path d="M491.1,373.5L478.7,420c-8.8,6.2-18.2,11.6-28.1,16c-13.2,6.2-23.1,9.3-29.8,9.3c-18.1,0-27.1-13.6-27.1-40.8
				c0.1-5.3,0.6-10.6,1.5-15.9h-2c-1,0-3.3,2.2-7,6.7s-10.7,16.4-21.1,35.8c-24.6,45.7-47.4,73.8-68.6,84.2
				c-12.4,6-23.2,9.8-32.5,11.5c-7,1.3-18.6,2-34.7,2c-9.2-0.2-18.4-0.9-27.6-2c-14.2-1.7-22.5-3.5-24.9-5.5l0.7-1.5l3.4-2
				c24.6,0,44.6-2.5,60.1-7.6c15.5-5,33-14.9,52.7-29.5c21.1-15.6,36.1-29.9,44.9-42.7c11.2-18.2,22.5-36.5,33.7-54.9
				c16.6-25.7,29.6-40.6,38.8-44.7l2.4,2.2l0.5,2.4c-0.5,1.6-1.2,5-2.2,10.3c-1.6,8.4-2.5,16.9-2.4,25.4c0,17.4,7.2,26.1,21.7,26.1
				C446.1,404.8,466,394.4,491.1,373.5z"/>
			<path d="M546.8,13.2c-3.4,11.1-8.1,18.1-14.2,21l-85.5,42c2.6-10.1,10.3-18.3,23-24.7L546.8,13.2z"/>
			<path d="M681.5,68.1c0-7-4-10.5-12.1-10.5c-8.1,0-16.8,5.7-26,17c-0.4,0.5-0.8,1-1.1,1.4c2,1.4,3.9,2.9,5.8,4.5
				c0.2-0.2,0.4-0.5,0.6-0.7l3.7-1.5c6.4,0,9.7,3.8,9.7,11.3c0,2.9-1.5,6.9-4.5,12c-7.8-6.4-11.7-11.2-11.7-14.5
				c0-2.4,0.7-4.7,2.2-6.7c-1.8-1.6-3.8-3.1-5.8-4.5c-8.5,10.7-12.7,20.1-12.7,28.2c0,4.7,3.2,10.2,9.6,16.4
				c-21.6,15.8-42.4,28.5-62.3,38.1c6.4,2,10.8,2.9,13.4,2.9c13.2,0,32.4-11.7,57.6-35.3c5.1,4.6,10.5,8.8,16.1,12.7l8.5-24.2
				l-7.5-7.3C676.1,93.3,681.5,80.1,681.5,68.1z"/>
			<path d="M738.2,374.5l-12.5,46.4c-5.8,3.6-12.5,5.6-19.3,5.6c-11.6,0-20.7-5.1-27.3-15.3c-13.7,16.9-22.2,25.4-25.6,25.4
				c-3.7,0-9.3-4.3-16.6-12.9c-6.8-8-10.9-14.3-12.2-18.8c-3.7,5-10.7,11-21,18l12.2-45.4c7.5-7,18.7-17.4,33.7-31.3
				c1.6,0,9.7,6.1,24.2,18.3c14.5,12.2,26.9,18.3,37.1,18.3C720.6,383,730.2,380.1,738.2,374.5z"/>
			<path d="M759.2,8.1C754.8,2.7,749.7,0,744,0c-12.8,0-24.2,6.8-34.3,20.3c-0.7,1-1.4,1.9-2.1,2.9c2.5,1,4.9,2.1,7.3,3.3
				c3.8-3.8,7.9-5.7,12.4-5.7c3.9,0,8.5,2.3,13.9,6.9c5.3,4.6,8,8.9,8,12.9c0,7.8-7.4,11.7-22.1,11.7c-12.8,0-19.2-3.6-19.2-10.7
				c0-5,2-9.7,6-14.1c0.3-0.4,0.7-0.7,1-1c-2.4-1.2-4.8-2.3-7.3-3.3c-7.9,11.5-11.9,23.3-11.9,35.4c0,11.7,6.7,17.6,20.1,17.6
				c12.7,0,24.1-5.4,34.1-16.4C760,48.9,765,37.1,765,24.4C765,18.5,762.9,12.7,759.2,8.1z"/>
			<path d="M812.2,220.5c0,45.9-5.8,83.8-17.3,113.8c-14,35.8-37.9,65.4-71.8,88.9l12.2-45.7c41.5-33.2,62.3-66.6,62.3-100.1
				c0-25.1-7.9-55.4-23.7-91.1c-3.1,15.9-7.7,39.8-13.8,71.5c-2.6,13.7-4.8,20.5-6.5,20.5l-2.2-0.7l-0.5-3.2
				c0-13.2,3.4-37.9,10.2-74.2c7.1-39.2,13.3-61.8,18.5-67.6c8.9,5.5,16.8,19,23.6,40.3C809.2,191.3,812.2,207.1,812.2,220.5z"/>
			<path d="M860,13.2c-3.4,11.1-8.1,18.1-14.2,21l-85.5,42c2.6-10.1,10.3-18.3,23-24.7L860,13.2z"/>
			<path d="M236.7,146.7c-2.4,2.4-6.2,7.4-11.2,14.9l77.4-31c8.3-3.4,15-10.4,20-21l-70.1,27.8C245.7,140.2,240.3,143.3,236.7,146.7
				z"/>
			<path d="M306.5,83.5c-5.2,0-7.8-8-7.8-23.9l-4.9,1.4c-12.4,26.4-23.2,39.5-32.5,39.6c-3.7,0-5.6-2.1-5.6-6.3
				c0.1-7,1.3-14,3.4-20.8l-5.8,1c-9,15.1-13.5,26.8-13.5,35c0,10.7,4.8,16.1,14.4,16.1c5.8,0,11.8-2.1,18-6.3s10.5-9.1,12.9-14.7
				c4.9,3.5,9.7,5.3,14.4,5.3c12.5,0,22.6-8,30.2-23.9c6.1-12.7,9.2-26.7,9-40.8l-6.4,2.4C324.6,71.5,316,83.5,306.5,83.5z"/>
			<path d="M562,393.6c-20.2,0-33.1-4.2-38.8-12.5c22.4-25.7,33.5-46.5,33.5-62.3c0-20.7-4.7-31-14.1-31c-4.5,0-11.3,3.6-20.4,10.8
				s-17.5,17.6-25.3,31.3c-8.3,14.7-12.4,27.2-12.4,37.6c0,2.6,0.3,5.1,0.8,7.6c7.8-4.2,15.3-8.8,22-14.8
				c-4.4-5.5-6.7-10.1-6.7-13.5c0-2.9,3.7-7.6,11.1-14.1c7.4-6.5,12.6-9.7,15.7-9.7c8.5,0,12.8,3.2,12.8,9.5
				c0,9.2-10.4,19.2-31.2,29.9c-0.6-0.7-1.2-1.4-1.7-2c-6.6,6-14.2,10.6-22,14.8c0.1,0.6,0.2,1.1,0.4,1.6l-12.5,46.9
				c9.7-6.9,19-14.4,27.8-22.3c9.9,11.6,17.7,19.6,23.4,23.8c9,6.7,20,10.4,31.3,10.3c18.4,0.1,36.4-5.3,51.8-15.4l12.7-47.2
				C602.3,386.7,582.9,393.6,562,393.6z"/>
			<path d="M576.4,201.2c2-8.3,3.3-14.6,4.2-18.8c-23.8,14.7-42.3,24.7-55.7,30c-10.1,20-15.1,32.1-15.1,36.4l0.3,2.9
				C551.1,231.2,573.3,214.4,576.4,201.2z"/>
			<path d="M864.4,93.8c0-4.9-2.9-7.3-8.8-7.3c-8.1,0-12.2-1.1-12.2-3.4c0-4.1,2.4-6.1,7.3-6.1c1.7,0,3.3,0.3,4.9,1
				c1.6-1.1,4-4.6,7-10.3c3-5.7,4.8-9.8,5.3-12.2c-1.7-0.9-3.5-1.5-5.4-1.7c-6.9,0-14.8,5.9-23.8,17.8c-9,11.9-13.5,21.3-13.5,28.3
				c0,6.4,3.2,9.4,9.7,9.3c5.1-0.2,7.9,0.2,8.4,1.2c-2.6,3.6-11.2,8.1-25.6,13.4L787.7,134c0,2,1.1,2.9,3.2,2.9
				c13.7,0,28.6-3.8,44.9-11.5C854.9,116.4,864.4,105.8,864.4,93.8z"/>
			<path d="M932.1,215.1c-11.2-35.8-26.2-70.4-44.8-103c-10.1,30.3-15.1,75.6-15.1,136c0,32.5,2.7,49.3,8,50.3
				c3.7-1.8,5.5-11.1,5.5-28.1c0-9.1,2.1-29.3,6.3-60.5c8.2,15.5,17,36.2,26.5,62.3c10.8,29.8,16.2,50.8,16.2,63
				c0,17.1-5.1,34-15.4,50.8c-6,9.9-17.1,24-33.4,42.2l-21.2,22.2c-8.3,9-14.2,17.1-17.8,24.4c0.1,1.2,1.1,2.1,2.3,2
				c0.1,0,0.1,0,0.2,0c1.5,0,4.9-1,10.2-2.9c38-13.8,63.3-32.1,75.8-54.9c10.5-19,15.8-50.2,15.8-93.5
				C951.1,292.3,944.7,255.6,932.1,215.1z"/>
		</g>
	</g>
</g>
</svg>
