<?xml version="1.0" encoding="utf-8"?>
<!-- Generator: Adobe Illustrator 22.1.0, SVG Export Plug-In . SVG Version: 6.00 Build 0)  -->
<svg version="1.1" id="Layer_1" xmlns="http://www.w3.org/2000/svg" xmlns:xlink="http://www.w3.org/1999/xlink" x="0px" y="0px"
	 viewBox="0 0 1028.1 634.5" style="enable-background:new 0 0 1028.1 634.5;" xml:space="preserve">
<title>EH-Asset 72-layername</title>
<g id="Layer_2_1_">
	<g id="ElMuehir">
		<g>
			<path d="M219.5,129.1c0-7-4-10.5-12.1-10.5c-8.1,0-16.8,5.7-26,17c-0.4,0.5-0.7,0.9-1.1,1.4c1.8,1.8,3.6,3.6,5.2,5.6
				c0.4-0.6,0.8-1.2,1.2-1.7l3.7-1.5c6.4,0,9.7,3.8,9.7,11.3c0,2.9-1.5,6.9-4.5,12c-7.8-6.4-11.6-11.2-11.6-14.5
				c0-2,0.5-3.9,1.5-5.6c-1.6-2-3.3-3.8-5.2-5.6c-8.5,10.7-12.7,20.2-12.7,28.3c0,4.7,3.2,10.2,9.6,16.4
				c-21.6,15.8-42.4,28.5-62.3,38.1c6.3,2,10.8,2.9,13.4,2.9c13.2,0,32.4-11.8,57.6-35.3c5.1,4.6,10.5,8.8,16.1,12.7l8.6-24.2
				l-7.5-7.3C214,154.4,219.5,141.2,219.5,129.1z"/>
			<path d="M312.7,374L300,421.1c-20.2,11.7-34.3,20.3-42.2,25.6c-19,12.7-30.7,23.2-34.9,31.5c-13,28.2-26,56.2-39.1,84.2
				c-18.9,35.8-38.6,57.1-59.1,64c-15.6,5.3-32.8,8-51.5,8c-37.6,0-61.8-3.2-72.5-9.5L0,623.8l2-2.2c10.5,2,21.3,3,32,2.9
				c29.9,0,58.3-9.6,85-28.8c23.6-17.2,43.5-40,59.8-68.4c1.1-2.1,8.9-17.4,23.2-45.9c9.3-18.6,18.3-33.1,27-43.6
				s22.5-21.6,41.4-33.3C291.3,391.5,305.4,381.3,312.7,374z"/>
			<path d="M643.5,181.6c-3.4,11.1-8.1,18.1-14.2,21l-85.4,42c2.6-10.1,10.2-18.3,22.9-24.7L643.5,181.6z"/>
			<path d="M758.5,68.1c0-7-4-10.5-12.1-10.5c-7.7,0-16,5.2-24.7,15.5c2.3,1.7,4.5,3.7,6.3,5.8l1.3-0.5c6.4,0,9.7,3.8,9.7,11.3
				c0,2.9-1.5,6.9-4.5,12c-7.8-6.4-11.7-11.2-11.7-14.5c0-2.7,0.9-5.3,2.7-7.3l2.4-0.9c-1.8-2.2-4-4.1-6.3-5.8
				c-0.4,0.5-0.8,1-1.3,1.5c-9.2,11.3-13.8,21.2-13.8,29.7c0,4.7,3.2,10.2,9.6,16.4c-21.7,15.8-42.4,28.5-62.3,38.1
				c6.3,2,10.8,2.9,13.4,2.9c13.2,0,32.4-11.7,57.6-35.3c5.1,4.6,10.5,8.8,16.1,12.7l8.5-24.2l-7.5-7.3
				C753.1,93.3,758.5,80.1,758.5,68.1z"/>
			<path d="M815.2,374.5l-12.5,46.4c-5.8,3.6-12.5,5.6-19.3,5.6c-11.6,0-20.7-5.1-27.3-15.3c-13.7,16.9-22.2,25.4-25.6,25.4
				c-3.7,0-9.3-4.3-16.6-12.9c-6.8-8-10.9-14.3-12.2-18.8c-3.7,5-10.7,11-21,18l12.2-45.4c7.5-7,18.7-17.4,33.7-31.3
				c1.6,0,9.7,6.1,24.2,18.3c14.5,12.2,26.8,18.3,37.1,18.3C797.6,383,807.2,380.1,815.2,374.5z"/>
			<path d="M836.2,8.1C831.8,2.7,826.7,0,821,0c-12.8,0-24.2,6.8-34.3,20.3c-0.7,0.9-1.3,1.8-2,2.7c2.4,1.1,4.7,2.3,6.9,3.7
				c3.8-3.9,8-5.9,12.6-5.9c3.9,0,8.5,2.3,13.9,6.9c5.3,4.6,8,8.9,8,12.9c0,7.8-7.4,11.7-22.1,11.7c-12.8,0-19.2-3.6-19.2-10.7
				c0-5,2-9.7,6-14.1c0.2-0.3,0.5-0.5,0.7-0.8c-2.2-1.4-4.5-2.6-6.9-3.7c-8,11.5-12,23.4-12,35.6c0,11.7,6.7,17.6,20.1,17.6
				c12.7,0,24.1-5.4,34.1-16.4C837,48.9,842,37.1,842,24.4C842,18.5,839.9,12.7,836.2,8.1z"/>
			<path d="M889.2,220.5c0,45.9-5.8,83.8-17.3,113.8c-14,35.8-37.9,65.4-71.8,88.9l12.2-45.7c41.5-33.2,62.3-66.6,62.3-100.1
				c0-25.1-7.9-55.4-23.7-91.1c-3.1,15.9-7.7,39.8-13.8,71.5c-2.6,13.7-4.8,20.5-6.5,20.5l-2.2-0.7l-0.5-3.2
				c0-13.2,3.4-37.9,10.2-74.2c7.1-39.2,13.3-61.8,18.5-67.6c8.9,5.5,16.8,19,23.6,40.3C886.2,191.3,889.2,207.1,889.2,220.5z"/>
			<path d="M937,13.2c-3.4,11.1-8.1,18.1-14.2,21l-85.5,42c2.6-10.1,10.3-18.3,23-24.7L937,13.2z"/>
			<path d="M367.4,109.6l-70.1,27.8c-7.2,2.8-12.5,5.9-16.1,9.3c-2.4,2.4-6.2,7.4-11.2,14.9l77.4-31
				C355.7,127.2,362.4,120.2,367.4,109.6z"/>
			<path d="M298.8,125.6c5.8,0,11.8-2.1,18-6.3c6.2-4.2,10.5-9.1,12.9-14.7c4.9,3.5,9.7,5.3,14.4,5.3c12.5,0,22.6-8,30.2-23.9
				c6.1-12.7,9.2-26.7,9-40.8l-6.3,2.4c-7.8,23.9-16.5,35.9-25.9,35.9c-5.2,0-7.8-8-7.8-23.9l-4.9,1.4
				c-12.4,26.4-23.2,39.5-32.5,39.6c-3.7,0-5.6-2.1-5.6-6.3c0.1-7,1.3-14,3.4-20.8l-5.8,1c-9,15.1-13.5,26.8-13.5,35
				C284.4,120.2,289.2,125.6,298.8,125.6z"/>
			<path d="M490.5,234.9c-16,9.6-33.9,14.4-53.7,14.4c-4.8-0.1-9.6-0.6-14.4-1.4c-4.8-0.8-9.6-1.2-14.4-1.3
				c-25.2,0-43.7,5.8-55.4,17.3c-10.7,10.4-18.4,28.4-22.8,54c-3.2,18.2-4.7,28.9-4.7,32l0.2,10.7c3.6-2.6,6.9-5.5,9.8-8.7v-5.2
				c0.1-10,2.2-19.8,6.1-29c5.7-14.2,15-23.3,27.8-27.4c7.3-2.4,20.8-3.8,40.5-4.1c-9.3,7.2-21.7,18.7-37.4,34.7
				c-16.3,16.6-28.7,28.3-37.1,35.2v-4.1c-3,3.3-6.3,6.2-9.8,8.7l0.1,3.2l-15.4,12.9l-12.5,45.9c10.6-7.2,20.6-15.1,30-23.7
				c2.3,20.8,6.2,41.5,11.5,61.8l1.7,0.7c0.9-0.8,1.4-1.8,1.4-3V457c-3.7-34.5-5.5-54.7-5.3-60.5v-5.8c22-22,44.1-44,66.2-65.9
				c23.3-21,49.8-38,78.6-50.3c1.8-2.8,3.8-8.6,6-17.6c2.2-9,3.3-15.4,3.3-19.3L490.5,234.9z"/>
			<path d="M368.4,129.9c-10.1,14.5-17.4,25.9-22,34.2c9.6,6.8,16.8,11.9,21.7,15.1c8.3-8.3,15.9-19.3,23-33c0-2.9-3.2-6.3-9.5-10
				C377.3,133.8,372.9,131.7,368.4,129.9z"/>
			<path d="M623.9,390.4c-6.3-6.2-13.4-9.3-21.3-9.3c-9.1,0-18.3,8.7-27.6,26.1c-8.3,15.6-12.5,28.5-12.5,38.8
				c0,9.8,7.4,14.6,22.2,14.6c4.9,0,14.4-2,28.6-5.9c-0.8,7.2-3.2,14.1-7.1,20.3c-1.6,2.4-6.1,8.1-13.4,16.8
				c-34.5,40.7-75.3,68-122.3,81.8c-21.6,6.4-38.1,9.5-49.3,9.5c-5.5,0-13.3-0.8-23.4-2.4c-10.6-1.8-18.3-2.8-23.2-2.9l-2,1.5
				c0.8,4.4,13.4,8.6,37.8,12.6c20.5,3.5,36,5.2,46.4,5.2c27.3,0,50-3.9,68.1-11.7c21.5-9.3,43-28.4,64.5-57.4
				c20.6-27.7,33.6-53.7,39.1-78c27.2-11.6,46-21.5,56.4-29.8l12.5-46.4c-15.3,13.7-36.7,26.3-64,37.9
				C633.3,403.7,630.2,396.6,623.9,390.4z"/>
			<path d="M551.5,317.3c13.7,0,28.6-3.8,44.9-11.5c18.9-9.1,28.4-19.7,28.4-31.8c0-4.9-2.9-7.3-8.7-7.3c-8.1,0-12.1-1.1-12.1-3.4
				c0-4.1,2.4-6.1,7.3-6.1c1.7,0,3.3,0.3,4.8,1c1.6-1.1,3.9-4.6,6.9-10.3c3-5.7,4.7-9.8,5.2-12.2c-1.7-0.9-3.5-1.5-5.4-1.7
				c-6.8,0-14.7,6-23.7,17.9c-9,11.9-13.4,21.4-13.4,28.4c0,6.3,3.2,9.4,9.7,9.2c5.1-0.2,7.9,0.3,8.4,1.2
				c-2.6,3.6-11.2,8.1-25.6,13.5l-29.8,10.3C548.3,316.3,549.4,317.3,551.5,317.3z"/>
			<path d="M1009.1,215.1c-11.2-35.8-26.2-70.4-44.8-103c-10.1,30.3-15.1,75.6-15.1,136c0,32.5,2.7,49.3,8,50.3
				c3.7-1.8,5.5-11.1,5.5-28.1c0-9.1,2.1-29.3,6.3-60.5c8.2,15.5,17,36.2,26.5,62.3c10.8,29.8,16.2,50.8,16.2,63
				c0,17.1-5.1,34-15.4,50.8c-6,9.9-17.2,24-33.5,42.2l-21.3,22.2c-8.3,9-14.2,17.1-17.8,24.4c0.2,1.3,1,2,2.4,2s4.9-1,10.2-2.9
				c38-13.8,63.3-32.1,75.8-54.9c10.5-19,15.8-50.2,15.8-93.5C1028.1,292.3,1021.8,255.6,1009.1,215.1z"/>
			<path d="M941.4,93.8c0-4.9-2.9-7.3-8.8-7.3c-8.1,0-12.2-1.1-12.2-3.4c0-4.1,2.4-6.1,7.3-6.1c1.7,0,3.3,0.3,4.9,1
				c1.6-1.1,4-4.6,7-10.3c3-5.7,4.8-9.8,5.2-12.2c-1.7-0.9-3.5-1.5-5.4-1.7c-6.9,0-14.8,5.9-23.8,17.8s-13.5,21.3-13.5,28.3
				c0,6.4,3.2,9.4,9.7,9.3c5.1-0.2,7.9,0.3,8.4,1.2c-2.6,3.6-11.1,8.1-25.6,13.4L864.7,134c0,2,1.1,2.9,3.2,2.9
				c13.7,0,28.6-3.8,44.9-11.5C931.9,116.4,941.4,105.8,941.4,93.8z"/>
		</g>
	</g>
</g>
</svg>
