<?xml version="1.0" encoding="utf-8"?>
<!-- Generator: Adobe Illustrator 22.1.0, SVG Export Plug-In . SVG Version: 6.00 Build 0)  -->
<svg version="1.1" id="Layer_1" xmlns="http://www.w3.org/2000/svg" xmlns:xlink="http://www.w3.org/1999/xlink" x="0px" y="0px"
	 viewBox="0 0 1056.6 597.2" style="enable-background:new 0 0 1056.6 597.2;" xml:space="preserve">
<title>EH-Asset 14-layername</title>
<g id="Layer_2_1_">
	<g id="ElMusavir">
		<g>
			<path d="M146.2,129.1c0-7-4.1-10.5-12.2-10.5c-8.1,0-16.8,5.7-26,17c-0.4,0.5-0.8,1-1.2,1.5c1.6,2.2,3.1,4.5,4.6,6.6
				c0.4-1,1-2,1.8-2.9l3.7-1.5c6.4,0,9.7,3.8,9.7,11.3c0,2.9-1.5,6.9-4.5,12c-7.8-6.4-11.6-11.2-11.6-14.5c0-1.6,0.3-3.1,0.9-4.5
				c-1.5-2.2-3.1-4.4-4.6-6.6c-8.4,10.7-12.7,20.1-12.7,28.2c0,4.7,3.2,10.2,9.6,16.4c-21.6,15.8-42.4,28.5-62.3,38.1
				c6.4,2,10.8,2.9,13.4,2.9c13.2,0,32.4-11.8,57.7-35.3c5.1,4.6,10.5,8.8,16.1,12.7l8.5-24.2l-7.5-7.3
				C140.8,154.4,146.2,141.2,146.2,129.1z"/>
			<path d="M268.5,297.5c0,17.5-2.7,26.7-8,27.7l-6.6-8.1c-4.6,0.2-8.3,2.9-11.2,8.1c-8,13.9-16.5,31.9-25.4,54.3
				c-7.3,18.7-14.7,37.4-22,56c-6.2,14.7-15.7,29.2-28.6,43.5c-13.7,15.3-27.3,26-40.8,32c-15.3,7-36.4,10.5-63.2,10.5
				c-40.5,0-61.4-2.1-62.7-6.3l2.4-1.8c34.2,0,65.9-7.3,95.2-22c30.4-15.3,54.8-36.8,73.2-64.6c9.9-15.1,20.6-35.2,32-60.2
				l22.5-50.2c12.7-25.2,22.5-37.8,29.5-37.8c3.9,0,7.2,2.3,10,6.8C267.3,289,268.5,293.2,268.5,297.5z"/>
			<path d="M237.3,207.8c-2.4,2.4-6.2,7.4-11.2,14.9l77.4-31c8.3-3.4,15-10.4,20-21l-70.1,27.8C246.2,201.3,240.9,204.3,237.3,207.8
				z"/>
			<path d="M333,108.6c-7.8,23.9-16.4,35.9-25.9,35.9c-5.2,0-7.8-8-7.8-23.9l-4.9,1.5c-12.4,26.4-23.2,39.6-32.4,39.5
				c-3.7,0-5.6-2.1-5.6-6.4c0.1-7,1.3-14,3.4-20.8l-5.8,1c-9,15.1-13.5,26.8-13.5,35c0,10.7,4.8,16.1,14.4,16.1
				c5.8,0,11.8-2.1,18-6.4s10.5-9.1,12.9-14.6c4.9,3.5,9.7,5.3,14.4,5.3c12.5,0,22.6-8,30.2-23.9c6.1-12.7,9.2-26.7,9-40.8
				L333,108.6z"/>
			<path d="M499,373.8l-12.5,46.4c-10.4,8.3-29.2,18.3-56.4,29.8c-5.5,24.3-18.5,50.3-39.1,78c-21.5,29-43,48.2-64.5,57.5
				c-18.1,7.8-40.8,11.7-68.1,11.7c-10.4,0-25.9-1.7-46.4-5.2c-24.4-4-37-8.2-37.8-12.6l2-1.5c4.9,0.2,12.6,1.1,23.2,2.9
				c10.1,1.6,17.9,2.4,23.4,2.4c11.2,0,27.7-3.2,49.3-9.5c47-13.8,87.8-41.1,122.3-81.8c12-14.2,18.9-26.5,20.5-37.1
				c-14.2,3.9-23.7,5.9-28.6,5.9c-14.8,0-22.2-4.9-22.2-14.6c0-10.2,4.1-23.2,12.5-38.8c9.3-17.4,18.5-26.1,27.6-26.1
				c8,0,15.1,3.1,21.4,9.3c6.3,6.2,9.4,13.3,9.4,21.2C462.4,400.1,483.7,387.5,499,373.8z"/>
			<path d="M545.4,98.6c-3.4,11.1-8.1,18.1-14.2,21l-85.5,42c2.6-10.1,10.2-18.3,23-24.7L545.4,98.6z"/>
			<path d="M652.3,396c-12.4,0-24.6-5.5-36.6-16.4c39.4-25.7,66.2-57.3,80.3-94.7c4.9-12.9,7.3-20.7,7.3-23.4
				c0-5.7-1.4-9.8-4.2-12.4c-1.2-0.1-2.4-0.2-3.7-0.2c-7,0-21.7,4.2-44,12.7c-24.1,9.1-39.8,16.8-47.1,23
				c-9.4,7.8-17.8,21.7-25.1,41.5c-3.6,9.6-8.3,25.6-14.2,48.1c-0.6,0.3-1.2,0.5-1.8,0.8c3.6-1.2,6.9-2.8,9.9-5
				c5.2-21.8,11.3-36.6,18.4-44.5c6.7-7.1,20.9-15,42.7-23.6c20.5-8.1,34.6-12.2,42.2-12.2l4.4,0.5c0.6,0.9,1,1.9,1,2.9
				c0,2.9-9,11.5-26.9,25.9c-25.3,20.3-52.8,37.6-82,51.5c0-0.2,0.1-0.3,0.1-0.5c-3,2.2-6.3,3.7-9.9,5
				c-26.7,12.2-45.3,18.3-55.6,18.3h-9.3c9.6-15.6,14.4-28.3,14.4-38.1c0-2.8-0.2-5.6-0.7-8.3l-26.9,30.7l-12.2,45.1
				c7-5.4,12.1-9.7,15.4-12.8l6.6,1.2c25.1,0,47-2.6,65.7-7.8c-0.5,9.5-0.7,19.1-0.5,28.8l1.2,0.5l1.2-0.5c2-10.8,3.3-20.9,4.2-30.2
				c8.8-1.9,19.7-6.1,32.6-12.5C610.2,421,628.3,437,654,437c22.3,0,42.1-5.5,59.3-16.6l12.5-46.6C706.3,388.6,681.8,396,652.3,396z
				"/>
			<path d="M787.1,68.1c0-7-4-10.5-12.2-10.5c-8.1,0-16.8,5.7-26,17c-0.1,0.1-0.2,0.2-0.2,0.3c2.3,1.3,4.4,2.8,6.2,4.7l3-1.2
				c6.4,0,9.7,3.8,9.7,11.3c0,2.9-1.5,6.9-4.5,12c-7.8-6.4-11.7-11.2-11.7-14.5c0-2.7,0.9-5.3,2.7-7.3l0.7-0.3
				c-1.8-1.8-3.9-3.3-6.2-4.7c-9.1,11.2-13.6,21-13.6,29.4c0,4.7,3.2,10.2,9.6,16.4c-21.6,15.8-42.4,28.5-62.3,38.1
				c6.3,2,10.8,2.9,13.4,2.9c13.2,0,32.4-11.7,57.6-35.3c5.1,4.6,10.5,8.8,16.1,12.7l8.5-24.2l-7.5-7.3
				C781.6,93.3,787.1,80.1,787.1,68.1z"/>
			<path d="M843.8,374.5l-12.5,46.4c-5.8,3.7-12.5,5.6-19.3,5.6c-11.6,0-20.7-5.1-27.3-15.3c-13.7,16.9-22.2,25.4-25.6,25.4
				c-3.7,0-9.3-4.3-16.6-12.9c-6.8-8-10.9-14.3-12.2-18.8c-3.7,5-10.7,11-21,18l12.2-45.4c7.5-7,18.7-17.4,33.7-31.3
				c1.6,0,9.7,6.1,24.2,18.3c14.5,12.2,26.9,18.3,37.1,18.3C826.2,383,835.7,380.1,843.8,374.5z"/>
			<path d="M864.7,8.1c-4.4-5.4-9.5-8.1-15.2-8.1c-12.7,0-24.2,6.8-34.3,20.3c-2.6,3.5-4.9,7-6.8,10.6c2.2,1,4.5,2,6.7,3
				c1-2.2,2.4-4.3,4.2-6.3c4-4.5,8.5-6.7,13.4-6.7c3.9,0,8.5,2.3,13.9,6.9s8,8.9,8,12.9c0,7.8-7.4,11.7-22.1,11.7
				c-12.8,0-19.2-3.6-19.2-10.7c0-2.7,0.6-5.3,1.8-7.8c-2.2-1-4.5-2-6.7-3c-4.8,9-7.2,18.3-7.2,27.8c0,11.7,6.7,17.6,20.1,17.6
				c12.7,0,24.1-5.4,34.2-16.4c10-10.9,15.1-22.7,15.1-35.4C870.6,18.4,868.5,12.7,864.7,8.1z"/>
			<path d="M917.7,220.5c0,45.9-5.8,83.8-17.3,113.8c-14,35.8-37.9,65.4-71.8,88.9l12.2-45.7c41.5-33.2,62.3-66.6,62.3-100.1
				c0-25.1-7.9-55.4-23.7-91.1c-3.1,15.9-7.7,39.8-13.8,71.5c-2.6,13.7-4.8,20.5-6.5,20.5l-2.2-0.7l-0.5-3.2
				c0-13.2,3.4-37.9,10.2-74.2c7.1-39.2,13.3-61.8,18.5-67.6c8.9,5.5,16.8,19,23.6,40.3C914.7,191.3,917.7,207.1,917.7,220.5z"/>
			<path d="M965.6,13.2c-3.4,11.1-8.1,18.1-14.2,21l-85.4,42c2.6-10.1,10.3-18.3,23-24.7L965.6,13.2z"/>
			<path d="M970,93.8c0-4.9-2.9-7.3-8.8-7.3c-8.1,0-12.2-1.1-12.2-3.4c0-4.1,2.4-6.1,7.3-6.1c1.7,0,3.3,0.3,4.9,1
				c1.6-1.1,4-4.6,7-10.3s4.8-9.8,5.3-12.2c-1.7-0.9-3.5-1.5-5.4-1.7c-6.9,0-14.8,5.9-23.8,17.8s-13.5,21.3-13.6,28.3
				c0,6.4,3.2,9.4,9.7,9.3c5.1-0.2,7.9,0.2,8.4,1.2c-2.6,3.6-11.2,8.1-25.6,13.4L893.3,134c0,2,1,2.9,3.2,2.9
				c13.7,0,28.6-3.8,44.9-11.5C960.5,116.4,970,105.8,970,93.8z"/>
			<path d="M1037.7,215.1c-11.2-35.8-26.2-70.4-44.8-103c-10.1,30.3-15.1,75.6-15.1,136c0,32.5,2.7,49.3,8,50.3
				c3.7-1.8,5.5-11.1,5.5-28.1c0-9.1,2.1-29.3,6.3-60.5c8.2,15.5,17,36.2,26.5,62.3c10.8,29.8,16.2,50.8,16.2,63
				c0,17.1-5.1,34-15.4,50.8c-6,9.9-17.1,24-33.4,42.2l-21.3,22.2c-8.3,9-14.2,17.1-17.8,24.4c0.1,1.2,1.1,2.1,2.3,2
				c0.1,0,0.1,0,0.2,0c1.5,0,4.9-1,10.2-2.9c38-13.8,63.3-32.1,75.8-54.9c10.5-19,15.8-50.2,15.8-93.5
				C1056.6,292.3,1050.3,255.6,1037.7,215.1z"/>
		</g>
	</g>
</g>
</svg>
