<?xml version="1.0" encoding="utf-8"?>
<!-- Generator: Adobe Illustrator 22.1.0, SVG Export Plug-In . SVG Version: 6.00 Build 0)  -->
<svg version="1.1" id="Layer_1" xmlns="http://www.w3.org/2000/svg" xmlns:xlink="http://www.w3.org/1999/xlink" x="0px" y="0px"
	 viewBox="0 0 835.8 559.8" style="enable-background:new 0 0 835.8 559.8;" xml:space="preserve">
<title>EH-Asset 73-layername</title>
<g id="Layer_2_1_">
	<g id="ElEwwel">
		<g>
			<path d="M104.6,10.5c0-7-4-10.5-12.2-10.5c-7.8,0-16,5.2-24.8,15.6c2.2,1.6,4.2,3.5,5.9,5.9l1.9-0.7c6.4,0,9.7,3.8,9.7,11.3
				c0,3-1.5,7-4.5,12C72.9,37.6,69,32.8,69,29.6c0-2.7,0.9-5.3,2.7-7.4l1.8-0.7c-1.7-2.3-3.7-4.2-5.9-5.9c-0.4,0.5-0.8,0.9-1.2,1.4
				c-9.2,11.3-13.9,21.2-13.9,29.7c0,4.7,3.2,10.2,9.6,16.4C40.6,78.8,19.9,91.5,0,101.1c6.3,2,10.8,2.9,13.4,2.9
				c13.2,0,32.4-11.8,57.6-35.3c5.1,4.6,10.5,8.8,16.1,12.7l8.5-24.1L88.2,50C99.2,35.7,104.6,22.5,104.6,10.5z"/>
			<path d="M420.5,162.8l-2.2-1.7c-54.2,25.7-99.9,45.5-137.2,59.3c-11.7-46.2-27.8-86.5-48.1-120.8c-9,28.3-13.6,57.7-13.7,87.4
				c0,8.6,0.2,19.2,0.5,31.7c0.1,4.3,0.1,8.1,0.1,11.5c4,0.1,7.9-0.1,11.6-0.9c0.2-39.8,1.3-61,3.4-63.5c5.5,9.8,10.2,20,13.9,30.6
				c2.1,5.5,5.6,16.3,10.5,32.2l-27.8,11.9c0-3.9,0-7.6,0-11.2c-3.7,0.8-7.7,0.9-11.6,0.9c0.1,7.3,0.1,12.3,0.1,15.1
				c-1.7,0.7-3.3,1.5-5,2.2c0.7,3,1.1,6,1.2,9.1c1.3-0.6,2.5-1.2,3.8-1.8c-0.5,21.5-1,43-1.7,64.5c-0.8,25.9-2.7,47.3-5.6,64.2
				l2.7,1.7l2.7-1.2c4.6-7.7,7.6-28.7,8.9-63c1.6-41.3,3-65.1,4.2-71.2l30.5-12.5c8.1,32.9,12.2,62.1,12.2,87.7
				c0,49.5-15.3,93.9-45.9,133.3s-66.1,59.1-106.6,59.1c-21.5,0-38.9-7.7-52.4-23c-12.7-14.6-19-32.9-19-54.7
				c0-43.3,23-83.8,69-121.6c30.8-25.3,63.2-45.7,97.1-61.5c-0.1-3.1-0.5-6.1-1.2-9.1c-46.2,20.9-80.8,40.6-103.9,59.3
				c-20.6,16.5-38,36.6-51.3,59.3c-14.8,25.1-22.2,49.2-22.2,72.3c0,33.5,5.8,60.7,17.4,81.5c14.8,26.5,37.6,39.8,68.4,39.8
				c26.6,0,50.2-8.9,70.9-26.6c14.5-12.5,30.5-32.8,48.2-61c33.1-53.1,49.6-105.6,49.6-157.7c-0.2-28.6-3.3-57.2-9.3-85.2
				c45.7-18.6,91.3-39.7,136.7-63.5L420.5,162.8z"/>
			<path d="M459.1,342.5c0,33.5-13.5,71.1-40.5,112.8c-27.8,42.5-56.7,68.7-86.7,78.9c-21.7,7.3-52.9,11-93.8,11
				c-11.9,0-17.8-1.5-17.8-4.6c0-1.5,6.4-3.8,19.3-7.1c19-4.7,33.3-8.7,42.7-12c29.1-10.1,56.7-25.5,82.6-46.3s46.6-44.1,61.9-70.2
				c10.6-17.9,15.9-32.7,15.9-44.4c0-3.3-1.2-8.4-3.7-15.4c-9.1,10.1-19.7,15.1-31.7,15.1c-5.3,0-10.4-1.7-14.6-4.9
				c-4.2-2.9-6.7-7.6-6.6-12.7c0-10.9,6.4-28,19.3-51.3c3.9-7.2,9.6-10.7,17.1-10.7C446.9,280.8,459.1,301.4,459.1,342.5z"/>
			<path d="M577.8,93.5c-3.4,11.1-8.1,18.1-14.2,21l-85.5,42c2.6-10.1,10.3-18.3,23-24.6L577.8,93.5z"/>
			<path d="M670.8,48.1c-4.4-5.4-9.5-8.1-15.2-8.1c-12.7,0-24.2,6.8-34.3,20.3c-0.6,0.8-1.2,1.6-1.8,2.5c2.3,1.3,4.6,2.6,7,3.7
				c3.8-3.8,7.9-5.7,12.4-5.7c3.9,0,8.5,2.3,13.9,6.9c5.3,4.6,8,8.9,8,12.9c0,7.8-7.4,11.7-22.1,11.7c-12.8,0-19.2-3.6-19.2-10.7
				c0-5,2-9.7,6-14.1c0.3-0.4,0.7-0.7,1-1c-2.4-1.2-4.7-2.4-7-3.7c-8.1,11.6-12.2,23.6-12.2,35.9c0,11.7,6.7,17.6,20.1,17.6
				c12.7,0,24.1-5.4,34.2-16.4c10-10.9,15.1-22.7,15.1-35.4C676.6,58.5,674.6,52.7,670.8,48.1z"/>
			<path d="M744.8,41c-3.4,11.1-8.1,18.1-14.2,21l-85.5,42c2.6-10.1,10.3-18.3,23-24.7L744.8,41z"/>
			<path d="M260.4,200.9l79.8-28.3c6.5-2.3,12.1-8.5,16.9-18.6l-69.6,24.4C276.6,182.2,267.6,189.7,260.4,200.9z"/>
			<path d="M319.5,209.7c-6.2,0-9.3-5.9-9.3-17.8l-5.9,1.5c-12.4,21.6-22.4,32.5-30,32.5c-5.7,0-8.5-3.8-8.5-11.5l0.7-7.6l-8.5,4.6
				c-4.6,12.4-6.8,20.8-6.8,25.3c0,9.2,4.7,13.8,14.2,13.8c10.9,0,21.3-7.1,31.1-21.1c5.9,4.2,10.7,6.3,14.4,6.3
				c11.8,0,21.5-7.1,29.1-21.2c5.7-10.4,9.4-22.6,11-36.6l-7.6,2.2C336.9,199.8,328.9,209.7,319.5,209.7z"/>
			<path d="M475.5,239.3c13.7,0,28.6-3.8,44.9-11.5c19-9.1,28.5-19.7,28.5-31.8c0-4.9-2.9-7.3-8.7-7.3c-8.1,0-12.1-1.1-12.1-3.4
				c0-4.1,2.4-6.1,7.3-6.1c1.7,0,3.3,0.3,4.9,1c1.6-1.1,3.9-4.6,6.9-10.3c3-5.7,4.7-9.8,5.2-12.2c-1.7-0.9-3.5-1.5-5.4-1.7
				c-6.9,0-14.8,6-23.8,17.9c-9,11.9-13.5,21.4-13.5,28.3c0,6.3,3.2,9.4,9.6,9.2c5.1-0.2,7.9,0.2,8.4,1.2
				c-2.6,3.6-11.1,8.1-25.6,13.4l-29.8,10.3C472.3,238.3,473.3,239.3,475.5,239.3z"/>
			<path d="M649.2,164.7c-3.1,0-6.3,4.9-9.5,14.9c-18.6,56.9-27.9,118.1-27.9,183.6c0,2.3,0.8,3.4,2.4,3.4c2.4,0,4.5-5.4,6.1-16.1
				c0.8-7.2,1.6-14.3,2.4-21.3c2.6-18.7,8.1-46.3,16.4-82.6c15.8,17.3,23.7,41.8,23.7,73.5c-0.1,14-1.5,27.9-4.4,41.5
				c-4.6,22.7-15,47.8-31.2,75.3c-19.5,33.4-37.9,50.1-55.3,50.1c-12.2,0-23.3-8.9-33.4-26.6c32.8-56.7,49.1-116.9,49.1-180.5
				c0-14.2-3.8-47.3-11.5-99.4l-3.9-2.9l-2.2,2c-0.7,7.2-4.9,19.3-12.7,36.4L539.8,253c-24.3,55.1-36.5,104-36.5,146.8
				c0,20.6,0.7,36.4,2.1,47.5c7.4-6.6,13.4-14.7,18.7-23c-3.5-11.6-5.3-23.6-5.4-35.7c0,0,0,0,0,0v0c0,0,0,0,0,0
				c0-30.1,13.7-73.7,41-130.7c7.3,18.3,11,35,11,50.3c0,42-15,82.4-44.9,121.2c-0.6-1.7-1.1-3.4-1.6-5.1
				c-5.3,8.3-11.3,16.5-18.7,23c0.3,2.1,0.5,4,0.8,5.7c-44.1,46.6-91.5,78.7-142.1,96.5L360,554v1.2l2.2,1c9.4,0,24.6-2.8,45.4-8.3
				c47.3-12.5,84-32.5,110.1-60.1c8.5,16.7,16.3,28.6,23.5,35.7c10.8,10.7,23.6,16,38.6,16c16.5,0,35.2-22.2,56.2-66.6
				c16.5-34.5,27.7-65.2,33.7-92.3c8.3-37.1,12.5-63.5,12.5-79.3C682.3,259.4,671.2,213.8,649.2,164.7z"/>
			<polygon points="518.7,388.6 518.7,388.6 518.7,388.6 			"/>
			<path d="M749.2,121.6c0-4.9-2.9-7.3-8.8-7.3c-8.1,0-12.2-1.1-12.2-3.4c0-4.1,2.4-6.1,7.3-6.1c1.7,0,3.3,0.3,4.9,1
				c1.6-1.1,4-4.6,7-10.3s4.8-9.8,5.3-12.2c-1.7-0.9-3.5-1.5-5.4-1.7c-6.9,0-14.8,5.9-23.8,17.8c-9,11.9-13.5,21.3-13.5,28.3
				c0,6.3,3.2,9.4,9.7,9.3c5.1-0.2,7.9,0.3,8.4,1.2c-2.6,3.6-11.1,8.1-25.6,13.4l-29.8,10.2c0,1.9,1.1,2.9,3.2,2.9
				c13.7,0,28.6-3.8,44.9-11.5C739.6,144.2,749.2,133.6,749.2,121.6z"/>
			<path d="M816.8,242.9c-11.2-35.8-26.2-70.4-44.8-103c-10,30.3-15.1,75.6-15.1,136c0,32.6,2.7,49.3,8,50.3
				c3.7-1.8,5.5-11.1,5.5-28.1c0-9.1,2.1-29.3,6.3-60.6c8.1,15.5,16.9,36.2,26.5,62.2c10.8,29.8,16.2,50.8,16.2,63
				c0,17.1-5.1,34-15.4,50.8c-6,9.9-17.2,24-33.5,42.2L749.4,478c-8.3,9-14.2,17.1-17.8,24.4c0.2,1.3,1,2,2.4,2s4.9-1,10.2-2.9
				c38-13.8,63.3-32.1,75.8-54.9c10.5-19,15.8-50.2,15.8-93.5C835.8,320.1,829.5,283.4,816.8,242.9z"/>
		</g>
	</g>
</g>
</svg>
