<svg xmlns="http://www.w3.org/2000/svg" viewBox="0 0 839.84 676.27">
  <title>EH-Asset 74-layername</title>
  <g id="Layer_2" data-name="Layer 2">
    <g id="ElAahir">
      <g>
        <path d="M219.48,141.35q0,18-16.39,39.52l7.47,7.32L202,212.34a170.85,170.85,0,0,1-16.12-12.74Q148,234.87,128.27,234.86q-3.9,0-13.42-2.93,29.78-14.4,62.25-38.08-9.63-9.28-9.62-16.36,0-12.69,13.85-29.66t26-17Q219.48,130.86,219.48,141.35ZM200,162.88q0-11.26-9.66-11.27l-3.72,1.47a11,11,0,0,0-2.73,7.35q0,4.89,11.65,14.44C198.46,169.82,200,165.81,200,162.88Z"/>
        <path d="M312.74,386.23l-12.69,47.12Q269.78,450.93,257.81,459q-28.56,19-34.91,31.5-19.53,42.24-39.06,84.23-28.32,53.7-59.08,64-23.45,8-51.52,8-56.4,0-72.51-9.51L0,636l2-2.2a163.57,163.57,0,0,0,32,2.93q44.91,0,85-28.81,35.39-25.87,59.81-68.36,1.71-3.16,23.19-45.9,13.92-27.82,27-43.58t41.38-33.32Q301.76,397.22,312.74,386.23Z"/>
        <path d="M369.63,613.28q-5.13,16.61-14.16,21l-85.45,42q3.9-15.13,23-24.66Z"/>
        <path d="M692.38,24.41q0,19-15.07,35.4T643.14,76.17q-20.1,0-20.09-17.58,0-19.77,14-38.33Q652.2,0,671.31,0q8.58,0,15.19,8.06A26.1,26.1,0,0,1,692.38,24.41ZM676.51,40.59q0-5.94-8-12.9t-13.87-6.94q-7.38,0-13.39,6.7t-6,14.13q0,10.67,19.16,10.67Q676.51,52.25,676.51,40.59Z"/>
        <path d="M748.78,25.39q-5.13,16.61-14.16,21l-85.45,42q3.9-15.13,23-24.66Z"/>
        <path d="M336.67,408.69v-5.86q33-33,66.16-65.92a285.88,285.88,0,0,1,78.62-50.29q2.67-4.14,6-17.58t3.29-19.28l-.24-2.69q-23.93,14.42-53.71,14.4a111.5,111.5,0,0,1-14.41-1.34,113.22,113.22,0,0,0-14.4-1.34q-37.84,0-55.42,17.33-16.12,15.63-22.85,54-4.74,27.35-4.74,32L325.2,376l-15.39,12.94-12.45,45.89a262.43,262.43,0,0,0,30-23.68,433.44,433.44,0,0,0,11.48,61.77l1.71.73A4.22,4.22,0,0,0,342,470.7v-1.46Q336.42,417.48,336.67,408.69ZM335,358.89a77.63,77.63,0,0,1,6.1-29.06q8.55-21.24,27.84-27.34,11-3.66,40.52-4.15Q395.52,309.08,372.07,333q-24.42,24.9-37.11,35.15Z"/>
        <path d="M391.11,158.45q0-4.39-9.52-10a101.21,101.21,0,0,0-13.18-6.35q-15.15,21.74-22,34.18,14.4,10.26,21.72,15.14Q380.61,179,391.11,158.45Z"/>
        <path d="M562,148.44a59.1,59.1,0,0,1,7.57.73,59.1,59.1,0,0,0,7.57.73q19,0,39.92-19.9t23.31-39.92l-3.42.24Q622.32,109.13,615.72,115q-16.85,14.65-36.62,14.41-9.52,0-12.57-.24c-2-.16-3.63-.24-4.76-.24q-8.79,0-21.49,14.32A112.92,112.92,0,0,0,524.17,166l4.64,2.19Q548.58,148.45,562,148.44Z"/>
        <path d="M646.58,163.83q-27.93,85.51-27.93,183.73c0,2.28.81,3.42,2.44,3.42q3.67,0,6.11-16.12,1.21-10.75,2.44-21.26,3.9-28.1,16.36-82.58,23.67,25.89,23.68,73.54a207.37,207.37,0,0,1-4.4,41.54q-6.84,34-31.25,75.25-29.29,50.08-55.42,50.09-18.3,0-33.44-26.64,49.3-85,49.31-180.55,0-21.25-11.47-99.44l-3.91-2.93-2.2,2q-1,10.75-12.65,36.4l-17.51,37.13q-36.48,82.58-36.49,146.82,0,36.65,2.93,53.26Q447,507.31,371.09,533.93l-4.15,4.4v1.22l2.2,1q14.16,0,45.41-8.3,71-18.79,110.12-60.07,12.72,25,23.48,35.73,16.13,16,38.62,16,24.69,0,56.23-66.65,24.69-51.76,33.74-92.29,12.46-55.67,12.47-79.35,0-63-33.07-136.71Q651.47,148.93,646.58,163.83ZM525.63,373q0-45.2,41-130.71,11,27.36,11,50.33,0,63-44.93,121.19A129,129,0,0,1,525.63,373Z"/>
        <path d="M820.86,227.29a525.52,525.52,0,0,0-44.78-103Q761,169.68,761,260.25q0,48.84,8,50.3,5.55-2.69,5.55-28.08,0-13.67,6.27-60.55,12.27,23.21,26.52,62.26,16.2,44.67,16.21,63,0,25.63-15.38,50.78-9,14.9-33.45,42.24L753.42,462.4Q741,475.84,735.6,486.82a2.11,2.11,0,0,0,2.43,1.95q2.19,0,10.23-2.93,57-20.74,75.75-54.93,15.82-28.56,15.83-93.51Q839.84,288.09,820.86,227.29Z"/>
        <path d="M753.17,106q0-7.33-8.79-7.33c-8.14,0-12.2-1.13-12.2-3.42q0-6.09,7.32-6.1a11.88,11.88,0,0,1,4.88,1q2.45-1.7,7-10.28t5.25-12.2a15,15,0,0,0-5.4-1.69q-10.32,0-23.82,17.82t-13.5,28.32q0,9.52,9.65,9.28c5.11-.16,7.91.24,8.41,1.22Q728,127.93,706.29,136l-29.78,10.25q0,2.92,3.17,2.93,20.52,0,44.93-11.47Q753.17,124,753.17,106Z"/>
      </g>
    </g>
  </g>
</svg>
