<svg xmlns="http://www.w3.org/2000/svg" viewBox="0 0 867.09 691.89">
  <title>EH-Asset 22-layername</title>
  <g id="Layer_2" data-name="Layer 2">
    <g id="ElBasit">
      <g>
        <path d="M104.64,10.49q0,18.06-16.4,39.52l7.47,7.32L87.17,81.48A171,171,0,0,1,71.05,68.75Q33.21,104,13.43,104,9.52,104,0,101.07,29.79,86.67,62.26,63q-9.63-9.29-9.62-16.36,0-12.69,13.85-29.66t26-17Q104.64,0,104.64,10.49ZM85.11,32q0-11.26-9.67-11.27l-3.72,1.47A11,11,0,0,0,69,29.57Q69,34.46,80.64,44C83.62,39,85.11,35,85.11,32Z"/>
        <path d="M301,401.61l-12.45,46.14Q250.71,475.17,139.31,501q-2.77,10.25-11.24,24.9l-1.95-1.22,5.13-22q-33.94,5.61-77.39,5.61a195.78,195.78,0,0,1-36.63-3.25l-1-2.24q1.95-3.75,8-5.5,17.58-2.21,50.79-7.13,29.3-5.16,66.4-23.87,17.17-65.93,36.31-88.38,13.5-38.82,13.5-65.67,0-14.65-5.13-44.44-5.62-32.46-11-42Q157.63,281,140,346.19c-.65,3.26-1.8,8-3.42,14.16q-3.27,8.55-9,10l-.5-2.2Q140,314.22,153.22,260q17.58-66.4,37.35-102.3,10.26,13.68,16.36,58.35a484.74,484.74,0,0,1,4.4,61.77q0,11.48-7.48,44.92-7.72,34.42-12.54,42.48,53.28-31,68.61-31,1.95,5.13,1.94,14.16,0,6.11-4.87,23.68-14.15,50.79-51.45,82.52,12.21-3.42,49-23.93T301,401.61Zm-66.72-15.14q-39.81,12-53.23,24t-27.34,49.69Q226,426.51,234.28,386.47Z"/>
        <path d="M356.83,628.91q-5.11,16.59-14.16,21l-85.44,42q3.9-15.14,22.94-24.65Z"/>
        <path d="M432.76,265.14a172,172,0,0,1-10.5,58.35Q410.05,356.69,390,372.17q-10.5,8.2-17.58,7.47-25.15,33.93-49.56,33.93-4.89,15.15-38.33,36.87l12.21-45.17q31.73-29.11,37.59-43.21,2.2-6.1,7.08-18.07l3.18,2.93.73,2.2-2.69,14.41a3.3,3.3,0,0,0,2,3.17q8.79,0,20-13.43,9.75-12,12.45-22,1.69-8.06,5.37-23.93l3.42-2.44,1,1.71q1.47,5.37,1.47,26.37l1.46.49q15.87-7.58,24.66-25.88,5.37-11,9.52-31,3.42-16.11,5.86-17.58C431.79,259.85,432.76,261.88,432.76,265.14Z"/>
        <path d="M578.51,402.1l-12.45,46.8q-19.53,13.26-39.55,13.26-27.58,0-37.84-31-5.62-17.38-6.59-53.77l-1.84-73.73q-2.07-83-2.07-84.47,0-3.17,5.89-20.75T492.11,178h1.44q.74,42.24,2.93,126.22.24,23.43,5.13,69.34,9.76,47.11,37.35,47.11Q559.48,420.65,578.51,402.1Z"/>
        <path d="M636.62,187.5q-5.13,16.6-14.16,21l-85.45,42q3.9-15.13,23-24.66Z"/>
        <path d="M681.05,52.25q0,19-15.07,35.4T631.81,104q-20.1,0-20.09-17.57,0-19.79,14-38.33,15.2-20.26,34.3-20.27,8.58,0,15.19,8.06A26.15,26.15,0,0,1,681.05,52.25ZM665.18,68.42q0-5.94-8-12.89t-13.87-7q-7.38,0-13.39,6.7t-6,14.14q0,10.67,19.16,10.66Q665.18,80.08,665.18,68.42Z"/>
        <path d="M728.17,248.29q0,68.85-17.33,113.77-21,53.71-71.78,88.87l12.21-45.66q62.25-49.8,62.25-100.09,0-37.6-23.68-91.07-4.59,23.92-13.77,71.53-3.87,20.52-6.52,20.51l-2.17-.73-.49-3.17q0-19.78,10.21-74.22,10.71-58.84,18.49-67.63,13.36,8.31,23.58,40.28Q728.17,228.28,728.17,248.29Z"/>
        <path d="M776,41q-5.12,16.6-14.16,21l-85.45,42q3.92-15.14,23-24.65Z"/>
        <path d="M571.92,495.36q-21,32.24-22,34.43l21.48,14.89q11-10,22.71-33Q594.14,503.42,571.92,495.36Z"/>
        <path d="M599.27,429.2q-10,0-14.16-2.69,19-26.11,19-43.94a43.22,43.22,0,0,0-.73-8.3Q589.74,389.9,576.56,405l-12.21,45.32,6.6-5.17q9.75,18,30.76,17.95,19.77,0,40.28-15l12.45-46.53q-9.77,9.76-25.63,18.31Q611,429.21,599.27,429.2Z"/>
        <path d="M780.42,121.58q0-7.32-8.79-7.32-12.21,0-12.21-3.42,0-6.11,7.33-6.1a11.91,11.91,0,0,1,4.88,1q2.43-1.69,7-10.27t5.25-12.21a15.25,15.25,0,0,0-5.4-1.69q-10.32,0-23.82,17.83t-13.51,28.32q0,9.51,9.65,9.27c5.11-.16,7.92.25,8.41,1.22q-3.9,5.38-25.63,13.43l-29.79,10.26q0,2.92,3.18,2.92,20.51,0,44.92-11.47Q780.41,139.66,780.42,121.58Z"/>
        <path d="M848.1,242.92a525.35,525.35,0,0,0-44.78-103q-15.09,45.42-15.09,136,0,48.83,8,50.29,5.55-2.69,5.54-28.07,0-13.68,6.28-60.55,12.27,23.19,26.52,62.25,16.2,44.68,16.2,63,0,25.63-15.38,50.78-9,14.9-33.45,42.24L780.66,478q-12.45,13.43-17.82,24.41c.16,1.31,1,1.95,2.44,1.95s4.87-1,10.23-2.93q57-20.74,75.75-54.93Q867.08,418,867.09,353,867.09,303.71,848.1,242.92Z"/>
      </g>
    </g>
  </g>
</svg>
