<?xml version="1.0" encoding="utf-8"?>
<!-- Generator: Adobe Illustrator 22.1.0, SVG Export Plug-In . SVG Version: 6.00 Build 0)  -->
<svg version="1.1" id="Layer_1" xmlns="http://www.w3.org/2000/svg" xmlns:xlink="http://www.w3.org/1999/xlink" x="0px" y="0px"
	 viewBox="0 0 832.2 639.7" style="enable-background:new 0 0 832.2 639.7;" xml:space="preserve">
<title>EH-Asset 76-layername</title>
<g id="Layer_2_1_">
	<g id="ElBatin">
		<g>
			<path d="M104.6,129.1c0-7-4-10.5-12.2-10.5c-7.2,0-15,4.6-23.1,13.7c0.9,2.8,1.8,5.6,2.8,8.4l3.3-1.3c6.4,0,9.7,3.8,9.7,11.3
				c0,2.9-1.5,6.9-4.5,12c-7.8-6.4-11.7-11.2-11.7-14.5c0-2.7,0.9-5.3,2.7-7.3l0.4-0.2c-1-2.8-1.9-5.6-2.8-8.4
				c-1,1.1-1.9,2.2-2.9,3.3c-9.2,11.3-13.9,21.2-13.9,29.7c0,4.7,3.2,10.2,9.6,16.4C40.6,197.4,19.9,210.1,0,219.7
				c6.3,2,10.8,2.9,13.4,2.9c13.2,0,32.4-11.8,57.6-35.3c5.1,4.6,10.5,8.8,16.1,12.8l8.5-24.1l-7.5-7.3
				C99.2,154.4,104.6,141.2,104.6,129.1z"/>
			<path d="M262.6,373.8L250.1,420c-16.4,12.3-29.8,18-40,17.2l-4.6,21.5c-5.7,26.5-18.9,53-39.7,79.6c-23.8,30.4-47.4,45.6-71,45.6
				c-29.7,0-44.6-18-44.6-54c0-20.9,7.8-48.9,23.4-84.1c-21,0.8-37.7,11.5-50,32l-1.5,0.5l-1.5-1.5c0-16.3,6.8-32.8,20.5-49.5
				c14.3-17.6,29.4-26.4,45.2-26.5c7.2,0,10.8,3.2,10.8,9.5c0,6.2-4.5,19.7-13.6,40.6C74.5,471.9,70,487.7,70,498.5
				c0,12.2,3.6,22.1,10.9,29.5c7.3,7.4,17,11.1,29.2,11.1c14.8,0,31-8.3,48.4-24.9c16.5-15.6,26.6-31,30.6-46.2
				c2.6-9.6,4-19.4,4.2-29.3c0-10.4-4-19.6-12-27.6c-0.3-10.7,6-25.5,18.9-44.4c4.9,2.1,10.9,12.5,18,31.3
				C229.7,398,244.5,389.9,262.6,373.8z"/>
			<path d="M318.8,576.7c-3.4,11.1-8.1,18.1-14.2,21l-85.4,42c2.6-10.1,10.3-18.3,23-24.7L318.8,576.7z"/>
			<path d="M379.3,278.6C379.3,278.6,379.3,278.6,379.3,278.6L379.3,278.6L379.3,278.6z"/>
			<path d="M391.5,238c-10.4,0-26.6,6-48.6,17.9c-19,10.4-34,20.3-44.9,29.5c11.1-46.9,16.6-79.8,16.6-98.9
				c0-39.4-6.3-65.8-19.1-79.3c-4.4-4.7-7.7-7.2-9.8-7.3c-10.6,5.9-20.4,20.5-29.6,43.9c-7.5,19-12.3,36.8-14.4,53.2l2.2,2.2l2-1.5
				c4.2-10.9,8.5-21.9,12.7-33c7.2-16.5,13.1-24.8,17.8-25c14.2,6.7,21.2,35.4,21.2,86.2c0,24.8-9.7,71.6-29.1,140.5
				c3.3-1.2,6.4-2.8,9.3-4.7l9.9-36.7c10.3-10.1,24.3-20.4,42.3-31c20.7-12,36.5-18.1,47.4-18.1l1.7,2.7c0,0,0,0,0,0v0l0,0
				c-0.2,7.8-14.8,22.4-43.7,43.7l-57.7,39.5l0.1-0.2c-2.8,1.9-6,3.5-9.3,4.7c-0.2,0.9-0.5,1.7-0.7,2.6l-9.3,8.6l-12.2,45.2
				c7.8-5.4,13.8-9.6,17.8-12.7l1.5,19l2.2,0.5l2.2-3.2l2.2-21.7c30.4-22.8,53-41.6,68-56.4c23.4-23.1,40.2-46.9,50.4-71.3
				c7.5-17.7,11.2-27.8,11.2-30.3C402,240.9,398.5,238,391.5,238z"/>
			<path d="M543.6,374.3l-12.5,46.8c-13,8.8-26.2,13.3-39.5,13.3c-18.4,0-31-10.3-37.8-31c-3.7-11.6-5.9-29.5-6.6-53.8l-1.8-73.7
				c-1.4-55.3-2.1-83.5-2.1-84.5c0-2.1,2-9,5.9-20.8c3.9-11.7,6.6-18.6,8-20.5h1.4c0.5,28.2,1.5,70.2,2.9,126.2
				c0.2,15.6,1.9,38.7,5.1,69.3c6.5,31.4,19,47.1,37.4,47.1C517.7,392.8,530.9,386.6,543.6,374.3z"/>
			<path d="M601.7,159.7c-3.4,11.1-8.1,18.1-14.2,21l-85.5,42c2.6-10.1,10.3-18.3,22.9-24.7L601.7,159.7z"/>
			<path d="M640.3,8.1c-4.4-5.4-9.5-8.1-15.2-8.1c-12.7,0-24.1,6.8-34.3,20.3c-1.1,1.5-2.1,2.9-3.1,4.4c2.2,1.2,4.4,2.4,6.6,3.7
				c0.2-0.3,0.5-0.6,0.7-0.9c4-4.5,8.5-6.7,13.4-6.7c3.9,0,8.5,2.3,13.9,6.9s8,8.9,8,12.9c0,7.8-7.4,11.7-22.1,11.7
				c-12.8,0-19.2-3.6-19.2-10.7c0-4.6,1.8-9,5.3-13.3c-2.1-1.3-4.3-2.5-6.6-3.7c-7.3,11-10.9,22.3-10.9,34
				c0,11.7,6.7,17.6,20.1,17.6c12.7,0,24.1-5.4,34.2-16.4c10-10.9,15.1-22.7,15.1-35.4C646.1,18.4,644,12.7,640.3,8.1z"/>
			<path d="M693.3,220.5c0,45.9-5.8,83.8-17.3,113.8c-14,35.8-37.9,65.4-71.8,88.9l12.2-45.7c41.5-33.2,62.3-66.6,62.3-100.1
				c0-25.1-7.9-55.4-23.7-91.1c-3.1,15.9-7.7,39.8-13.8,71.5c-2.6,13.7-4.8,20.5-6.5,20.5l-2.2-0.7l-0.5-3.2
				c0-13.2,3.4-37.9,10.2-74.2c7.1-39.2,13.3-61.8,18.5-67.6c8.9,5.5,16.8,19,23.6,40.3C690.3,191.3,693.3,207.1,693.3,220.5z"/>
			<path d="M741.1,13.2c-3.4,11.1-8.1,18.1-14.1,21l-85.5,42c2.6-10.1,10.3-18.3,23-24.7L741.1,13.2z"/>
			<path d="M537,467.5c-14,21.5-21.3,33-22,34.5l21.5,14.9c7.3-6.7,14.9-17.7,22.7-33C559.2,478.4,551.8,472.9,537,467.5z"/>
			<path d="M564.3,401.4c-6.7,0-11.4-0.9-14.2-2.7c12.7-17.4,19-32.1,19-43.9c0-2.8-0.2-5.6-0.7-8.3c-9.1,10.4-18.1,20.7-26.8,30.8
				l-12.2,45.3l6.6-5.2c6.5,12,16.8,18,30.8,18c13.2,0,26.6-5,40.3-15l12.5-46.5c-6.5,6.5-15.1,12.6-25.6,18.3
				C582,398.3,572.2,401.4,564.3,401.4z"/>
			<path d="M813.2,215.1c-11.2-35.8-26.2-70.4-44.8-103c-10.1,30.3-15.1,75.6-15.1,136c0,32.5,2.7,49.3,8,50.3
				c3.7-1.8,5.5-11.1,5.5-28.1c0-9.1,2.1-29.3,6.3-60.5c8.2,15.5,17,36.2,26.5,62.3c10.8,29.8,16.2,50.8,16.2,63
				c0,17.1-5.1,34-15.4,50.8c-6.1,9.9-17.2,24-33.5,42.2l-21.3,22.2c-8.3,9-14.2,17.1-17.8,24.4c0.2,1.3,1,2,2.4,2s4.9-1,10.2-2.9
				c38-13.8,63.3-32.1,75.8-54.9c10.6-19,15.8-50.2,15.8-93.5C832.2,292.3,825.9,255.6,813.2,215.1z"/>
			<path d="M745.5,93.8c0-4.9-2.9-7.3-8.8-7.3c-8.1,0-12.2-1.1-12.2-3.4c0-4.1,2.4-6.1,7.3-6.1c1.7,0,3.3,0.3,4.9,1
				c1.6-1.1,3.9-4.6,7-10.3c3-5.7,4.8-9.8,5.3-12.2c-1.7-0.9-3.5-1.5-5.4-1.7c-6.9,0-14.8,5.9-23.8,17.8s-13.5,21.3-13.5,28.3
				c0,6.4,3.2,9.4,9.7,9.3c5.1-0.2,7.9,0.3,8.4,1.2c-2.6,3.6-11.1,8.1-25.6,13.4L668.8,134c0,2,1.1,2.9,3.2,2.9
				c13.7,0,28.6-3.8,44.9-11.5C736,116.4,745.5,105.8,745.5,93.8z"/>
		</g>
	</g>
</g>
</svg>
