<?xml version="1.0" encoding="utf-8"?>
<!-- Generator: Adobe Illustrator 22.1.0, SVG Export Plug-In . SVG Version: 6.00 Build 0)  -->
<svg version="1.1" id="Layer_1" xmlns="http://www.w3.org/2000/svg" xmlns:xlink="http://www.w3.org/1999/xlink" x="0px" y="0px"
	 viewBox="0 0 909.8 621.3" style="enable-background:new 0 0 909.8 621.3;" xml:space="preserve">
<title>EH-Asset 2-layername</title>
<g id="Layer_2_1_">
	<g id="ArRahman">
		<g>
			<path d="M104.6,116c0-7-4-10.5-12.2-10.5c-8.1,0-16.8,5.7-26,17c-1.4,1.7-2.6,3.3-3.8,5c2.4,1,4.8,2,7.3,3.1c0.4-1,1-2,1.8-2.8
				l3.7-1.5c6.4,0,9.7,3.8,9.7,11.3c0,2.9-1.5,6.9-4.5,12C72.9,143.1,69,138.3,69,135c0-1.6,0.3-3.1,0.9-4.5
				c-2.4-1.1-4.8-2.1-7.3-3.1c-6.7,9.3-10.1,17.5-10.1,24.7c0,4.7,3.2,10.2,9.6,16.4C40.6,184.3,19.9,197,0,206.6
				c6.3,2,10.8,2.9,13.4,2.9c13.2,0,32.4-11.8,57.6-35.3c5.1,4.6,10.5,8.8,16.1,12.7l8.5-24.2l-7.5-7.3
				C99.2,141.2,104.6,128,104.6,116z"/>
			<path d="M262.6,360.6l-12.5,46.3c-16.4,12.3-29.8,18-40,17.2l-4.6,21.6c-5.7,26.4-18.9,53-39.7,79.6
				c-23.8,30.4-47.4,45.6-71,45.6c-29.7,0-44.6-18-44.6-54c0-20.9,7.8-48.9,23.4-84.1c-21,0.8-37.7,11.5-50,32l-1.5,0.5l-1.5-1.5
				c0-16.3,6.8-32.8,20.5-49.5c14.3-17.6,29.4-26.5,45.2-26.5c7.2,0,10.8,3.2,10.8,9.5c0,6.2-4.5,19.7-13.6,40.6S70,474.6,70,485.3
				c0,12.2,3.6,22.1,10.9,29.5c7.3,7.4,17,11.1,29.2,11.1c14.8,0,31-8.3,48.4-24.9c16.5-15.6,26.7-31,30.6-46.1
				c2.6-9.6,4-19.4,4.2-29.3c0-10.4-4-19.6-12-27.6c-0.3-10.7,6-25.5,18.9-44.4c4.9,2.1,10.9,12.5,18,31.3
				C229.7,384.8,244.5,376.7,262.6,360.6z"/>
			<path d="M318.8,85.4c-3.4,11.1-8.1,18.1-14.2,21l-85.4,42c2.6-10.1,10.3-18.3,23-24.7L318.8,85.4z"/>
			<path d="M380.5,361.3l-12.5,46.4c-5.8,3.6-12.5,5.6-19.3,5.6c-11.6,0-20.7-5.1-27.4-15.3c-13.7,16.9-22.2,25.4-25.6,25.4
				c-3.7,0-9.3-4.3-16.6-12.9c-6.8-8-10.9-14.3-12.2-18.8c-3.7,5-10.7,11-21,18l12.2-45.4c7.5-7,18.7-17.4,33.7-31.3
				c1.6,0,9.7,6.1,24.2,18.3s26.9,18.3,37.1,18.3C362.9,369.8,372.5,366.9,380.5,361.3z"/>
			<path d="M401.5,80.3c-4.4-5.3-9.5-8-15.2-8c-11.6,0-22,5.6-31.4,16.7c1.7,2.5,3.5,4.8,5.1,7.4c3-2.2,6.2-3.3,9.6-3.3
				c3.9,0,8.5,2.4,13.9,7c5.3,4.6,8,8.9,8,12.9c0,7.8-7.4,11.6-22.1,11.6c-12.8,0-19.2-3.6-19.2-10.7c0-5,2-9.7,6-14.1
				c1.2-1.3,2.5-2.5,3.7-3.4c-1.6-2.5-3.4-4.9-5.1-7.4c-1,1.1-1.9,2.3-2.9,3.6c-9.3,12.4-14,25.2-14,38.3c0,11.7,6.7,17.6,20.1,17.6
				c12.7,0,24.1-5.4,34.2-16.4c10-10.9,15.1-22.7,15.1-35.4C407.4,90.7,405.3,84.9,401.5,80.3z"/>
			<path d="M558.7,221.7c-16,9.6-33.9,14.4-53.7,14.4c-4.8-0.2-9.6-0.6-14.3-1.4c-4.8-0.8-9.6-1.2-14.4-1.3
				c-25.2,0-43.7,5.8-55.4,17.3c-10.8,10.5-18.4,28.5-22.9,54c-3.2,18.2-4.7,28.9-4.7,32l0.1,8.2c3.4-1.1,6.8-2.2,9.8-3.6v-7.7
				c0.1-10,2.2-19.9,6.1-29.1c5.7-14.2,15-23.3,27.8-27.3c7.3-2.4,20.8-3.8,40.5-4.1c-9.3,7.1-21.7,18.7-37.3,34.7
				c-16.3,16.6-28.6,28.3-37.1,35.1v-1.6c-3,1.5-6.4,2.5-9.8,3.6l0.1,5.7l-15.4,12.9l-12.5,45.9c10.6-7.2,20.6-15.1,30-23.7
				c2.3,20.8,6.2,41.5,11.5,61.8l1.7,0.7c0.9-0.7,1.4-1.8,1.5-2.9v-1.5c-3.7-34.5-5.5-54.7-5.4-60.5v-5.9c22-21.9,44-43.9,66.2-65.9
				c23.3-21,49.8-37.9,78.6-50.3c1.8-2.8,3.8-8.6,6-17.6c2.2-9,3.3-15.4,3.3-19.3L558.7,221.7z"/>
			<path d="M605.4,113l-69.6,24.4c-10.9,3.8-19.9,11.2-27.1,22.5l79.8-28.3C595,129.3,600.6,123.1,605.4,113z"/>
			<path d="M567.8,168.7c-6.2,0-9.3-5.9-9.3-17.8l-5.9,1.5c-12.4,21.6-22.4,32.5-30,32.5c-5.7,0-8.5-3.8-8.5-11.5l0.7-7.6l-8.5,4.6
				c-4.6,12.4-6.8,20.8-6.8,25.3c0,9.2,4.7,13.8,14.2,13.8c10.9,0,21.3-7.1,31.1-21.1c5.9,4.2,10.7,6.3,14.4,6.3
				c11.8,0,21.5-7.1,29.1-21.2c5.7-10.4,9.4-22.6,11-36.6l-7.6,2.2C585.2,158.8,577.2,168.7,567.8,168.7z"/>
			<path d="M697.4,360.8L684.7,408c-20.2,11.7-34.3,20.3-42.2,25.6c-19,12.7-30.7,23.2-34.9,31.5c-13,28.1-26.1,56.2-39.1,84.2
				c-18.9,35.8-38.6,57.1-59.1,64c-15.6,5.3-32.8,8-51.5,8c-37.6,0-61.8-3.2-72.5-9.5l-0.7-1.2l2-2.2c10.5,2,21.3,3,32,2.9
				c29.9,0,58.3-9.6,85-28.8c23.6-17.2,43.5-40,59.8-68.4c1.1-2.1,8.9-17.4,23.2-45.9c9.3-18.6,18.3-33.1,27-43.6
				c8.7-10.5,22.5-21.6,41.4-33.3C676,378.3,690.1,368.2,697.4,360.8z"/>
			<path d="M770.9,207.3c0,45.9-5.8,83.8-17.3,113.8c-14,35.8-37.9,65.4-71.8,88.9l12.2-45.6c41.5-33.2,62.3-66.6,62.3-100.1
				c0-25.1-7.9-55.4-23.7-91.1c-3.1,15.9-7.7,39.8-13.8,71.5c-2.6,13.7-4.7,20.5-6.5,20.5l-2.2-0.7l-0.5-3.2
				c0-13.2,3.4-37.9,10.2-74.2c7.1-39.2,13.3-61.8,18.5-67.6c8.9,5.5,16.8,19,23.6,40.3C767.9,178.1,770.9,193.9,770.9,207.3z"/>
			<path d="M818.8,0c-3.4,11.1-8.1,18.1-14.2,21l-85.5,42c2.6-10.1,10.3-18.3,23-24.7L818.8,0z"/>
			<path d="M823.1,80.6c0-4.9-2.9-7.3-8.8-7.3c-8.1,0-12.2-1.1-12.2-3.4c0-4.1,2.4-6.1,7.3-6.1c1.7,0,3.3,0.3,4.9,1
				c1.6-1.1,4-4.6,7-10.3s4.8-9.8,5.3-12.2c-1.7-0.9-3.5-1.5-5.4-1.7c-6.9,0-14.8,5.9-23.8,17.8c-9,11.9-13.5,21.3-13.5,28.3
				c0,6.3,3.2,9.4,9.7,9.3c5.1-0.2,7.9,0.2,8.4,1.2c-2.6,3.6-11.2,8.1-25.6,13.4l-29.8,10.3c0,2,1.1,2.9,3.2,2.9
				c13.7,0,28.6-3.8,44.9-11.5C813.6,103.2,823.1,92.6,823.1,80.6z"/>
			<path d="M890.8,201.9c-11.2-35.8-26.2-70.4-44.8-103c-10.1,30.3-15.1,75.6-15.1,136c0,32.6,2.7,49.3,8,50.3
				c3.7-1.8,5.5-11.2,5.5-28.1c0-9.1,2.1-29.3,6.3-60.6c8.2,15.5,17,36.2,26.5,62.3c10.8,29.8,16.2,50.8,16.2,63
				c0,17.1-5.1,34-15.4,50.8c-6,9.9-17.1,24-33.4,42.2c-7,7.3-14.1,14.7-21.2,22.2c-8.3,8.9-14.2,17.1-17.8,24.4
				c0.1,1.2,1.1,2.1,2.3,2c0.1,0,0.1,0,0.2,0c1.5,0,4.9-1,10.2-2.9c38-13.8,63.3-32.1,75.8-54.9c10.5-19,15.8-50.2,15.8-93.5
				C909.8,279.2,903.5,242.4,890.8,201.9z"/>
		</g>
	</g>
</g>
</svg>
