<svg xmlns="http://www.w3.org/2000/svg" viewBox="0 0 909.81 621.34">
  <title>EH-Asset 2-layername</title>
  <g id="Layer_2" data-name="Layer 2">
    <g id="ArRahman">
      <g>
        <path d="M104.64,116q0,18-16.4,39.52l7.47,7.32L87.17,187a168.32,168.32,0,0,1-16.12-12.74q-37.84,35.26-57.62,35.26-3.91,0-13.43-2.93,29.79-14.4,62.26-38.08-9.63-9.28-9.63-16.36,0-12.69,13.86-29.66t26-17Q104.64,105.47,104.64,116ZM85.11,137.49q0-11.27-9.67-11.27l-3.72,1.47A11,11,0,0,0,69,135q0,4.89,11.65,14.44Q85.11,141.89,85.11,137.49Z"/>
        <path d="M262.6,360.6l-12.46,46.27q-24.66,18.45-40,17.2l-4.64,21.56q-8.53,39.67-39.73,79.61Q130.14,570.8,94.8,570.8q-44.61,0-44.61-54,0-31.31,23.45-84.13-31.5,1.22-50,32l-1.46.49-1.47-1.47q0-24.5,20.51-49.47,21.48-26.46,45.19-26.45,10.76,0,10.76,9.53,0,9.3-13.58,40.61T70,485.28q0,18.35,10.88,29.47t29.24,11.13q22.26,0,48.43-24.9,24.72-23.44,30.58-46.15a118.25,118.25,0,0,0,4.16-29.29q0-15.63-12-27.59-.48-16.11,18.9-44.43,7.28,3.17,18,31.25Q235.5,384.77,262.6,360.6Z"/>
        <path d="M318.75,85.45q-5.13,16.6-14.16,21l-85.45,42q3.9-15.13,23-24.66Z"/>
        <path d="M380.52,361.33l-12.46,46.42a36.06,36.06,0,0,1-19.28,5.58q-17.34,0-27.35-15.3-20.51,25.39-25.63,25.39-5.62,0-16.6-12.94-10.26-12-12.21-18.76-5.62,7.53-21,18l12.21-45.43q11.24-10.5,33.69-31.25,2.44,0,24.17,18.31t37.11,18.31A46.84,46.84,0,0,0,380.52,361.33Z"/>
        <path d="M407.37,96.68q0,19-15.07,35.4t-34.17,16.36q-20.1,0-20.09-17.58,0-19.77,14-38.33,15.19-20.27,34.3-20.26,8.58,0,15.19,8A26.15,26.15,0,0,1,407.37,96.68ZM391.5,112.86q0-6-8-12.9T369.64,93q-7.36,0-13.38,6.69t-6,14.14q0,10.66,19.16,10.66Q391.5,124.51,391.5,112.86Z"/>
        <path d="M559,224.37q0,5.85-3.29,19.28t-6,17.58a285.73,285.73,0,0,0-78.62,50.29q-33.19,33-66.16,65.92v5.86q-.24,8.79,5.37,60.55v1.46a4.22,4.22,0,0,1-1.46,2.93l-1.71-.73a433.44,433.44,0,0,1-11.48-61.77,262.43,262.43,0,0,1-30,23.68l12.45-45.89,15.39-12.94-.25-13.92q0-4.64,4.74-32,6.72-38.32,22.85-54,17.58-17.32,55.42-17.33a113.22,113.22,0,0,1,14.4,1.34A111.5,111.5,0,0,0,505,236.08q29.78,0,53.71-14.4ZM477.68,273q-29.54.49-40.52,4.15-19.29,6.11-27.84,27.34a77.63,77.63,0,0,0-6.1,29.06v9.27q12.69-10.25,37.11-35.15Q463.78,283.7,477.68,273Z"/>
        <path d="M605.37,113l-69.58,24.41q-16.37,5.63-27.1,22.46l79.83-28.32Q598.29,128.17,605.37,113Z"/>
        <path d="M567.77,168.7q-9.28,0-9.28-17.82l-5.86,1.46q-18.55,32.47-30,32.47-8.55,0-8.55-11.47l.73-7.57-8.54,4.64q-6.84,18.6-6.84,25.25,0,13.82,14.2,13.81,16.39,0,31.08-21.15,8.8,6.26,14.44,6.26,17.63,0,29.12-21.24,8.57-15.61,11-36.62l-7.57,2.2Q581.94,168.71,567.77,168.7Z"/>
        <path d="M697.41,360.84,684.71,408q-30.27,17.58-42.23,25.63-28.56,19.05-34.91,31.5Q588,507.33,568.5,549.32q-28.32,53.7-59.08,64-23.43,8-51.51,8-56.4,0-72.51-9.51l-.73-1.23,1.95-2.2a163.46,163.46,0,0,0,32,2.93q44.92,0,85-28.81,35.4-25.87,59.82-68.36,1.7-3.17,23.19-45.9,13.92-27.83,27-43.58t41.38-33.32Q686.43,371.83,697.41,360.84Z"/>
        <path d="M770.9,207.28q0,68.84-17.34,113.76-21,53.71-71.77,88.87L694,364.26q62.26-49.81,62.26-100.1,0-37.59-23.68-91.06Q728,197,718.79,244.63q-3.85,20.5-6.51,20.51l-2.18-.74-.48-3.17q0-19.77,10.21-74.22,10.7-58.83,18.48-67.63,13.38,8.31,23.59,40.29Q770.89,187.26,770.9,207.28Z"/>
        <path d="M818.75,0q-5.13,16.61-14.16,21L719.14,63q3.9-15.14,23-24.66Z"/>
        <path d="M823.14,80.57q0-7.33-8.79-7.33c-8.14,0-12.2-1.13-12.2-3.42q0-6.09,7.32-6.1a11.88,11.88,0,0,1,4.88,1q2.45-1.71,7-10.28t5.25-12.2a15,15,0,0,0-5.4-1.69q-10.32,0-23.82,17.82t-13.5,28.32q0,9.52,9.65,9.28c5.11-.16,7.91.24,8.41,1.22q-3.92,5.37-25.64,13.43l-29.78,10.25q0,2.93,3.17,2.93,20.51,0,44.92-11.48Q823.15,98.64,823.14,80.57Z"/>
        <path d="M890.83,201.9a525.52,525.52,0,0,0-44.78-103q-15.1,45.41-15.09,136,0,48.84,7.95,50.3,5.55-2.69,5.55-28.08,0-13.66,6.27-60.55,12.27,23.21,26.52,62.26,16.2,44.67,16.21,63,0,25.64-15.39,50.78-9,14.9-33.44,42.23-10.5,11-21.24,22.22-12.45,13.42-17.83,24.42a2.12,2.12,0,0,0,2.44,1.95q2.19,0,10.23-2.93,57-20.74,75.75-54.93,15.82-28.57,15.83-93.51Q909.81,262.71,890.83,201.9Z"/>
      </g>
    </g>
  </g>
</svg>
