<?xml version="1.0" encoding="utf-8"?>
<!-- Generator: Adobe Illustrator 22.1.0, SVG Export Plug-In . SVG Version: 6.00 Build 0)  -->
<svg version="1.1" id="Layer_1" xmlns="http://www.w3.org/2000/svg" xmlns:xlink="http://www.w3.org/1999/xlink" x="0px" y="0px"
	 viewBox="0 0 879.6 776.9" style="enable-background:new 0 0 879.6 776.9;" xml:space="preserve">
<title>EH-Asset 102-layername</title>
<g id="Layer_2_1_">
	<g id="El-Vaalii">
		<g>
			<path d="M26,775.2l0.2,1.7c10.5-4.9,20.6-10.5,30.5-16.6C73,750.2,82.4,743.4,85,740c4.1-4.9,8-15.7,11.9-32.5
				c-24.6,13.5-43.1,23.3-55.4,29.5C31.2,758.2,26,770.9,26,775.2z"/>
			<path d="M180.2,446.3c13.7-8.6,27.3-17.2,41-25.6l12.7-46.7c-33.5,23.1-58.8,40.6-75.9,52.3c-18.9,15-28.3,43.1-28.3,84.2
				c0,12.2,4.4,21.3,13.2,27.3c3.9,2.8,12,6,24.2,9.8c8.8,2.8,13.2,6.1,13.2,10c0,14.3-14,34.8-41.9,61.4
				c-27.9,26.6-49.9,39.9-66,39.9c-17.6,0-31.7-4.5-42.2-13.4c-11.3-9.6-16.9-23-16.9-40.3c0-20.5,6.3-42.6,18.8-66.4
				c6.8-13.2,20.2-33.7,40-61.5c18.2-25.9,30.6-45.8,37.1-59.8c16.4-35.5,25.6-63.7,27.3-84.7l-3.9-1.7
				c-11.4,38.1-21.9,65.3-31.6,81.6c-5.2,8.8-20.3,31.3-45.3,67.6c-18.3,26.4-31.3,48.7-39.1,67.1C5.7,572.5,0,599.6,0,627
				c0,48.3,18.8,72.5,56.3,72.5c32.6,0,64.2-21.1,94.7-63.2c28.5-39.2,42.8-75.9,42.8-109.9c0-9-7-16-21-21c-20-7.5-30-16.2-30-26.1
				C142.8,473.9,155.3,462.9,180.2,446.3z"/>
			<path d="M289.5,576.7c-3.4,11.1-8.1,18.1-14.2,21l-85.4,42c2.6-10.1,10.3-18.3,22.9-24.7L289.5,576.7z"/>
			<path d="M306.1,220.5c0,45.9-5.8,83.8-17.3,113.8c-14,35.8-37.9,65.4-71.8,88.9l12.2-45.7c41.5-33.2,62.2-66.6,62.2-100.1
				c0-25.1-7.9-55.4-23.7-91.1c-3.1,15.9-7.6,39.8-13.8,71.5c-2.6,13.7-4.8,20.5-6.5,20.5l-2.2-0.7l-0.5-3.2
				c0-13.2,3.4-37.9,10.2-74.2c7.1-39.2,13.3-61.8,18.5-67.6c8.9,5.5,16.8,19,23.6,40.3C303.1,191.3,306.1,207.1,306.1,220.5z"/>
			<path d="M445.1,325.2c0,43.3-5.2,74.5-15.6,93.5c-12.5,22.8-37.8,41.1-75.9,54.9c-5.4,2-8.8,2.9-10.3,2.9
				c-1.2,0.2-2.2-0.6-2.4-1.8c0-0.1,0-0.1,0-0.2c3.6-7.3,9.5-15.5,17.8-24.4l21.2-22.2c16.3-18.2,27.4-32.3,33.5-42.2
				c10.3-16.8,15.4-33.7,15.4-50.8c0-12.2-5.4-33.2-16.2-63c-9.5-26.1-18.3-46.8-26.5-62.3c-4.2,31.3-6.3,51.4-6.3,60.5
				c0,16.9-1.9,26.3-5.5,28.1c-5.3-1-8-17.7-8-50.3c0-60.4,5-105.7,15.1-136c18.6,32.6,33.6,67.2,44.8,103
				C438.7,255.6,445.1,292.3,445.1,325.2z"/>
			<path d="M504.4,159.7c-3.4,11.1-8.1,18.1-14.2,21l-85.4,42c2.6-10.1,10.2-18.3,22.9-24.7L504.4,159.7z"/>
			<path d="M677.7,373.8l-12.5,46.4c-10.4,8.3-29.2,18.3-56.4,29.8c-5.4,24.3-18.5,50.3-39.1,78c-21.5,29-43,48.2-64.5,57.5
				c-18.1,7.8-40.8,11.7-68.1,11.7c-10.4,0-25.9-1.7-46.4-5.2c-24.4-4-37-8.2-37.9-12.6l2-1.5c4.9,0.2,12.6,1.1,23.2,2.9
				c10.1,1.6,17.9,2.4,23.4,2.4c11.2,0,27.7-3.2,49.3-9.5c47-13.8,87.8-41.1,122.3-81.8c12-14.2,18.9-26.5,20.5-37.1
				c-14.2,3.9-23.7,5.9-28.6,5.9c-14.8,0-22.2-4.9-22.2-14.7c0-10.2,4.1-23.2,12.5-38.8c9.3-17.4,18.4-26.1,27.5-26.1
				c8,0,15.1,3.1,21.3,9.3s9.4,13.3,9.4,21.2C641.1,400.1,662.4,387.5,677.7,373.8z"/>
			<path d="M687.7,8.1c-4.4-5.4-9.5-8.1-15.2-8.1c-12.7,0-24.2,6.8-34.3,20.3c-1.2,1.5-2.2,3.1-3.3,4.6c2.4,0.9,4.8,1.9,7.2,2.8
				c0.1-0.1,0.2-0.2,0.2-0.3c4-4.5,8.5-6.7,13.4-6.7c3.9,0,8.5,2.3,13.9,6.9s8,8.9,8,12.9c0,7.8-7.4,11.7-22.1,11.7
				c-12.8,0-19.2-3.6-19.2-10.7c0-4.9,1.9-9.5,5.8-13.9c-2.4-1-4.8-1.9-7.2-2.8c-7.2,10.9-10.7,22.2-10.7,33.7
				c0,11.7,6.7,17.6,20.1,17.6c12.7,0,24.1-5.4,34.2-16.4c10-10.9,15.1-22.7,15.1-35.4C693.6,18.5,691.5,12.7,687.7,8.1z"/>
			<path d="M740.7,220.5c0,45.9-5.8,83.8-17.3,113.8c-14,35.8-37.9,65.4-71.8,88.9l12.2-45.7c41.5-33.2,62.3-66.6,62.3-100.1
				c0-25.1-7.9-55.4-23.7-91.1c-3.1,15.9-7.7,39.8-13.8,71.5c-2.6,13.7-4.8,20.5-6.5,20.5l-2.2-0.7l-0.5-3.2
				c0-13.2,3.4-37.9,10.2-74.2c7.1-39.2,13.3-61.8,18.5-67.6c8.9,5.5,16.8,19,23.6,40.3C737.7,191.3,740.7,207.1,740.7,220.5z"/>
			<path d="M788.6,13.2c-3.4,11.1-8.1,18.1-14.2,21l-85.4,42c2.6-10.1,10.2-18.3,22.9-24.7L788.6,13.2z"/>
			<path d="M793,93.8c0-4.9-2.9-7.3-8.8-7.3c-8.1,0-12.2-1.1-12.2-3.4c0-4.1,2.4-6.1,7.3-6.1c1.7,0,3.3,0.3,4.9,1
				c1.6-1.1,4-4.6,7-10.3c3-5.7,4.8-9.8,5.3-12.2c-1.7-0.9-3.5-1.5-5.4-1.7c-6.9,0-14.8,5.9-23.8,17.8s-13.5,21.3-13.6,28.3
				c0,6.4,3.2,9.4,9.7,9.3c5.1-0.2,7.9,0.3,8.4,1.2c-2.6,3.6-11.2,8.1-25.6,13.4L716.3,134c0,2,1,2.9,3.2,2.9
				c13.7,0,28.6-3.8,44.9-11.5C783.5,116.4,793,105.8,793,93.8z"/>
			<path d="M860.7,215.1c-11.2-35.8-26.2-70.4-44.8-103c-10.1,30.3-15.1,75.6-15.1,136c0,32.5,2.7,49.3,8,50.3
				c3.7-1.8,5.5-11.1,5.5-28.1c0-9.1,2.1-29.3,6.3-60.5c8.2,15.5,17,36.2,26.5,62.3c10.8,29.8,16.2,50.8,16.2,63
				c0,17.1-5.1,34-15.4,50.8c-6,9.9-17.1,24-33.5,42.2l-21.3,22.2c-8.3,9-14.2,17.1-17.8,24.4c0.2,1.3,1,2,2.4,2s4.9-1,10.2-2.9
				c38-13.8,63.3-32.1,75.8-54.9c10.6-19,15.8-50.2,15.8-93.5C879.6,292.3,873.3,255.6,860.7,215.1z"/>
		</g>
	</g>
</g>
</svg>
