<svg xmlns="http://www.w3.org/2000/svg" viewBox="0 0 879.64 776.86">
  <title>EH-Asset 102-layername</title>
  <g id="Layer_2" data-name="Layer 2">
    <g id="El-Vaalii">
      <g>
        <path d="M26,775.15l.24,1.71A294.94,294.94,0,0,0,56.7,760.25Q81.08,745.12,85,740q6.09-7.32,11.94-32.47Q60,727.79,41.5,737.06,26,768.8,26,775.15Z"/>
        <path d="M180.18,446.29q20.5-12.94,41-25.64L233.89,374Q183.6,408.7,158,426.27q-28.32,22.47-28.32,84.23,0,18.32,13.18,27.34,5.87,4.15,24.17,9.77,13.19,4.14,13.19,10,0,21.48-41.87,61.4t-66,39.92q-26.37,0-42.24-13.43Q13.19,631.1,13.18,605.22q0-30.75,18.8-66.4Q42.24,519,72,477.3q27.35-38.82,37.11-59.82,24.66-53.22,27.34-84.72l-3.9-1.71Q115.44,388.18,101,412.6q-7.83,13.18-45.25,67.62-27.41,39.55-39.14,67.14A200.39,200.39,0,0,0,0,627q0,72.51,56.29,72.51,48.95,0,94.73-63.23,42.82-58.85,42.83-109.86,0-13.43-21-21-30-11.22-30-26.12Q142.82,471.2,180.18,446.29Z"/>
        <path d="M289.55,576.66q-5.13,16.61-14.16,21l-85.45,42q3.9-15.15,22.95-24.66Z"/>
        <path d="M306.15,220.46q0,68.85-17.33,113.77-21,53.72-71.78,88.87l12.21-45.66q62.25-49.8,62.25-100.1,0-37.59-23.68-91.06-4.59,23.92-13.77,71.53-3.87,20.51-6.52,20.51l-2.17-.73-.49-3.18q0-19.77,10.22-74.21,10.7-58.84,18.48-67.63,13.37,8.3,23.58,40.28Q306.15,200.45,306.15,220.46Z"/>
        <path d="M445.07,325.2q0,64.94-15.64,93.5-18.8,34.19-75.91,54.93c-5.38,2-8.79,2.93-10.26,2.93a2.12,2.12,0,0,1-2.44-1.95q5.37-11,17.82-24.41L379.88,428q24.42-27.35,33.45-42.24Q428.71,360.6,428.71,335q0-18.31-16.2-63Q398.26,232.91,386,209.72q-6.27,46.88-6.27,60.54,0,25.39-5.55,28.08-8-1.47-8-50.29,0-90.59,15.09-136a524.76,524.76,0,0,1,44.78,103Q445.07,275.89,445.07,325.2Z"/>
        <path d="M504.39,159.67q-5.11,16.61-14.16,21l-85.44,42q3.9-15.14,22.94-24.66Z"/>
        <path d="M677.73,373.78l-12.45,46.4Q649.67,432.65,608.89,450q-8.17,36.44-39.07,78-32.22,43.51-64.45,57.45-27.11,11.73-68.11,11.74-15.63,0-46.39-5.19Q354.26,586,353,579.36l2-1.48q7.32.24,23.19,2.93,15.15,2.45,23.44,2.44,16.84,0,49.32-9.52Q521.47,553,573.24,491.94q18.07-21.24,20.51-37.11-21.24,5.87-28.56,5.86Q543,460.69,543,446q0-15.37,12.45-38.81Q569.34,381.1,583,381.1q11.94,0,21.35,9.28t9.41,21.24Q654.78,394.29,677.73,373.78Z"/>
        <path d="M693.6,24.41q0,19-15.06,35.4T644.36,76.17q-20.1,0-20.09-17.58,0-19.77,14-38.33Q653.42,0,672.54,0q8.57,0,15.19,8.06A26.15,26.15,0,0,1,693.6,24.41ZM677.73,40.59q0-6-8-12.9t-13.87-6.94q-7.38,0-13.39,6.7t-6,14.13q0,10.67,19.16,10.67Q677.73,52.25,677.73,40.59Z"/>
        <path d="M740.72,220.46q0,68.85-17.33,113.77-21,53.72-71.78,88.87l12.21-45.66q62.25-49.8,62.25-100.1,0-37.59-23.68-91.06-4.59,23.92-13.77,71.53-3.87,20.51-6.52,20.51l-2.17-.73-.49-3.18q0-19.77,10.22-74.21,10.7-58.84,18.48-67.63,13.36,8.3,23.58,40.28Q740.72,200.45,740.72,220.46Z"/>
        <path d="M788.57,13.18q-5.12,16.61-14.16,21L689,76.17q3.9-15.14,22.94-24.66Z"/>
        <path d="M793,93.75q0-7.32-8.79-7.32Q772,86.43,772,83q0-6.11,7.33-6.11a11.92,11.92,0,0,1,4.88,1q2.43-1.69,7-10.28t5.25-12.2a15.25,15.25,0,0,0-5.4-1.69q-10.32,0-23.82,17.82T753.66,99.85q0,9.53,9.65,9.28c5.12-.16,7.92.25,8.42,1.22q-3.91,5.37-25.64,13.43L716.31,134c0,2,1.05,2.93,3.17,2.93q20.5,0,44.92-11.47Q793,111.82,793,93.75Z"/>
        <path d="M860.65,215.09a524.76,524.76,0,0,0-44.78-103q-15.09,45.41-15.09,136,0,48.82,8,50.29,5.55-2.68,5.55-28.08,0-13.67,6.27-60.54,12.27,23.19,26.52,62.25,16.2,44.68,16.2,63,0,25.64-15.38,50.78-9,14.89-33.45,42.24L793.21,450.2q-12.45,13.43-17.82,24.41c.16,1.3,1,1.95,2.44,1.95s4.87-1,10.23-2.93q57-20.75,75.75-54.93,15.83-28.56,15.83-93.5Q879.64,275.88,860.65,215.09Z"/>
      </g>
    </g>
  </g>
</svg>
