<svg xmlns="http://www.w3.org/2000/svg" viewBox="0 0 972.17 699.46">
  <title>EH-Asset 78-layername</title>
  <g id="Layer_2" data-name="Layer 2">
    <g id="ElMuteali">
      <g>
        <path d="M233.89,374l-12.7,46.63q-20.5,12.71-41,25.64-37.37,24.9-37.36,33,0,14.89,30,26.12,21,7.58,21,21,0,51-42.83,109.86-45.78,63.22-94.73,63.23Q0,699.46,0,627a200.39,200.39,0,0,1,16.63-79.59q11.75-27.58,39.14-67.14Q93.2,425.79,101,412.6q14.43-24.42,31.55-81.55l3.9,1.71q-2.68,31.5-27.34,84.72-9.76,21-37.11,59.81-29.79,41.76-40,61.53-18.8,35.64-18.8,66.4,0,25.88,16.85,40.29,15.87,13.43,42.24,13.43,24.17,0,66-39.92t41.87-61.4q0-5.86-13.19-10-18.3-5.62-24.17-9.77-13.19-9-13.18-27.34,0-61.77,28.32-84.23Q183.6,408.69,233.89,374Z"/>
        <path d="M285.4,576.66q-5.13,16.61-14.16,21l-85.45,42q3.9-15.15,23-24.66Z"/>
        <path d="M302,220.46q0,68.85-17.33,113.77-21,53.72-71.78,88.87l12.21-45.66q62.25-49.8,62.25-100.1,0-37.59-23.68-91.06-4.59,23.92-13.77,71.53-3.87,20.51-6.52,20.51l-2.17-.73-.49-3.18q0-19.77,10.21-74.21,10.71-58.84,18.49-67.63,13.36,8.3,23.58,40.28Q302,200.45,302,220.46Z"/>
        <path d="M448.49,374.27,436,421.07q-19.55,13.26-39.56,13.26-27.59,0-37.84-30.95Q353,386,352.05,349.61l-1.84-73.73q-2.07-83-2.07-84.47,0-3.18,5.89-20.76t8.05-20.5h1.45q.72,42.24,2.93,126.22.24,23.43,5.12,69.33,9.76,47.13,37.36,47.12Q429.45,392.82,448.49,374.27Z"/>
        <path d="M506.59,98.63q-5.13,16.61-14.16,21l-85.45,42q3.9-15.13,22.95-24.66Z"/>
        <path d="M566.65,372.8,554,420.11q-21.26,13.72-40.29,13.73-30.15,0-42.48-45.17-23.07,24.56-37.07,34.12l12.28-45.31,8.1-8.32a17,17,0,0,0-12.28-5.39q-12,0-15.71,1.46,0-6.8,8.3-28.43a136.48,136.48,0,0,1,7.82-16q8.79-9.48,49.56-9.48,28.56,0,28.56,15.58,0,14.11-24.17,40.4,6.6,25.56,27.83,25.56Q543.94,392.82,566.65,372.8Z"/>
        <path d="M622.56,13.18q-5.13,16.61-14.16,21L523,76.17Q526.85,61,545.9,51.51Z"/>
        <path d="M702.64,68.11q0,18-16.4,39.52l7.47,7.31-8.54,24.16a168.32,168.32,0,0,1-16.12-12.74q-37.84,35.27-57.62,35.26-3.91,0-13.43-2.93,29.78-14.4,62.26-38.08-9.63-9.28-9.63-16.36,0-12.69,13.86-29.67t26-17Q702.64,57.62,702.64,68.11ZM683.11,89.63q0-11.25-9.67-11.26l-3.72,1.47A10.94,10.94,0,0,0,667,87.18q0,4.91,11.65,14.45Q683.11,94,683.11,89.63Z"/>
        <path d="M759.28,374.51l-12.45,46.42a36.09,36.09,0,0,1-19.29,5.58q-17.34,0-27.34-15.29-20.52,25.39-25.64,25.39-5.62,0-16.6-12.94-10.26-12-12.21-18.76-5.61,7.53-21,18L637,377.44Q648.2,367,670.65,346.19q2.45,0,24.17,18.31t37.11,18.31A46.77,46.77,0,0,0,759.28,374.51Z"/>
        <path d="M786.13,24.41q0,19-15.07,35.4T736.89,76.17q-20.1,0-20.09-17.58,0-19.77,14-38.33Q746,0,765.06,0q8.58,0,15.19,8.06A26.1,26.1,0,0,1,786.13,24.41ZM770.26,40.59q0-6-8-12.9t-13.87-6.94q-7.38,0-13.39,6.7t-6,14.13q0,10.67,19.16,10.67Q770.26,52.25,770.26,40.59Z"/>
        <path d="M833.25,220.46q0,68.85-17.33,113.77-21,53.72-71.78,88.87l12.21-45.66q62.25-49.8,62.25-100.1,0-37.59-23.68-91.06-4.59,23.92-13.77,71.53-3.87,20.51-6.52,20.51l-2.17-.73-.49-3.18q0-19.77,10.21-74.21,10.71-58.84,18.49-67.63,13.37,8.3,23.58,40.28Q833.25,200.45,833.25,220.46Z"/>
        <path d="M881.1,13.18q-5.11,16.61-14.16,21l-85.45,42q3.91-15.14,23-24.66Z"/>
        <path d="M595.7,197.51Q565,217.28,540.53,227.29q-15.87,30.77-15.38,39.8,12.89-6.82,19.22-10.5,31.88-17.82,35.28-21.24Q589.37,226.08,595.7,197.51Z"/>
        <path d="M585.27,401.37q-10,0-14.16-2.69,19-26.12,19-43.94a43.22,43.22,0,0,0-.73-8.3q-13.62,15.62-26.76,30.76l-12.16,45.32,6.57-5.17q9.72,18,30.7,17.95,19.78,0,40.29-15l12.45-46.52q-9.76,9.77-25.64,18.31Q597,401.38,585.27,401.37Z"/>
        <path d="M953.18,215.09a525.35,525.35,0,0,0-44.78-103q-15.09,45.41-15.09,136,0,48.82,8,50.29,5.54-2.68,5.54-28.08,0-13.67,6.28-60.54,12.27,23.19,26.52,62.25,16.2,44.68,16.2,63,0,25.64-15.38,50.78Q931.4,400.64,907,428L885.74,450.2q-12.45,13.43-17.82,24.41c.16,1.3,1,1.95,2.44,1.95s4.87-1,10.22-2.93q57-20.75,75.76-54.93,15.82-28.56,15.83-93.5Q972.17,275.88,953.18,215.09Z"/>
        <path d="M885.5,93.75q0-7.32-8.79-7.32-12.21,0-12.21-3.42,0-6.11,7.33-6.11a11.92,11.92,0,0,1,4.88,1q2.43-1.69,7-10.28t5.25-12.2a15.23,15.23,0,0,0-5.41-1.69q-10.31,0-23.81,17.82T846.19,99.85q0,9.53,9.65,9.28c5.11-.16,7.92.25,8.41,1.22q-3.9,5.37-25.63,13.43L808.83,134c0,2,1.06,2.93,3.18,2.93q20.5,0,44.92-11.47Q885.49,111.82,885.5,93.75Z"/>
      </g>
    </g>
  </g>
</svg>
