<svg xmlns="http://www.w3.org/2000/svg" viewBox="0 0 600.1 664.06">
  <title>EH-Asset 79-layername</title>
  <g id="Layer_2" data-name="Layer 2">
    <g id="ElBirr">
      <g>
        <path d="M312.74,374l-12.69,47.12q-30.27,17.58-42.24,25.64-28.56,19-34.91,31.49-19.53,42.24-39.06,84.23-28.32,53.7-59.08,64-23.45,8-51.52,8-56.4,0-72.51-9.51L0,623.78l2-2.2a162.8,162.8,0,0,0,32,2.93q44.91,0,85-28.81,35.39-25.87,59.81-68.36,1.71-3.17,23.19-45.89,13.92-27.84,27-43.58t41.38-33.33Q301.76,385,312.74,374Z"/>
        <path d="M369.63,601.07q-5.13,16.6-14.16,21l-85.45,42q3.9-15.13,23-24.66Z"/>
        <path d="M414.06,24.41q0,19-15.07,35.4T364.82,76.17q-20.1,0-20.09-17.58,0-19.77,14-38.33Q373.89,0,393,0q8.58,0,15.19,8.06A26.1,26.1,0,0,1,414.06,24.41ZM398.19,40.59q0-6-8-12.9t-13.87-6.94q-7.38,0-13.39,6.7t-6,14.13q0,10.67,19.16,10.67Q398.19,52.25,398.19,40.59Z"/>
        <path d="M461.18,220.46q0,68.85-17.33,113.77-21,53.72-71.78,88.87l12.21-45.66q62.25-49.8,62.25-100.1,0-37.59-23.68-91.06-4.59,23.92-13.77,71.53-3.87,20.51-6.52,20.51l-2.17-.73-.49-3.18q0-19.77,10.21-74.21,10.71-58.84,18.49-67.63,13.36,8.3,23.58,40.28Q461.18,200.45,461.18,220.46Z"/>
        <path d="M509,13.18q-5.11,16.61-14.16,21l-85.45,42Q413.33,61,432.37,51.51Z"/>
        <path d="M226.46,88.77q-4-5.28-9.64-5.27-12.47,0-25.41,12.12T178.47,120l1,5.88a58.79,58.79,0,0,0,6.44,8.33q-29.1,17.15-57.44,24,8.33,4.89,14.44,4.89,15.65,0,51.87-23.93,15.66,6.84,25,7.08,3.92-12.5,3.67-15.69l-.25-3.67-7.3-5.39Q230.5,106,230.49,99.92A18,18,0,0,0,226.46,88.77ZM208.09,116.7q-10.59-8.3-10.58-13.43,0-9,8.17-9,7.69,2.92,7.7,8.79Q213.38,108.64,208.09,116.7Z"/>
        <path d="M182.62,183.45q-9.52,0-9-11.4l.25-4.84-6.35,1.45q-18.07,28.85-29.3,28.85-7.81,0-7.81-9l1.71-10.91-5.05.49q-12,16.4-12,29.37l1.71,8.56q5.11,6.62,12.17,6.61,19,0,30.45-19.66,5.84,6.23,9.74,6.23,32.38,0,46-52.49L209,158.2Q196.05,183.45,182.62,183.45Z"/>
        <path d="M332.28,401.37q-10,0-14.16-2.69,19-26.12,19-43.94a43.22,43.22,0,0,0-.73-8.3q-13.68,15.62-26.86,30.76l-12.21,45.32,6.6-5.17q9.75,18,30.76,17.95,19.77,0,40.28-15l12.45-46.52q-9.76,9.77-25.63,18.31Q344,401.38,332.28,401.37Z"/>
        <path d="M304.93,467.53q-21,32.22-22,34.42l21.48,14.9q11-10,22.71-33Q327.15,475.6,304.93,467.53Z"/>
        <path d="M581.11,215.09a525.35,525.35,0,0,0-44.78-103q-15.09,45.41-15.09,136,0,48.82,8,50.29,5.53-2.68,5.54-28.08,0-13.67,6.28-60.54,12.27,23.19,26.52,62.25,16.2,44.68,16.2,63,0,25.64-15.38,50.78-9,14.89-33.45,42.24L513.67,450.2q-12.45,13.43-17.82,24.41c.16,1.3,1,1.95,2.44,1.95s4.86-1,10.22-2.93q57-20.75,75.76-54.93,15.83-28.56,15.83-93.5Q600.1,275.88,581.11,215.09Z"/>
        <path d="M513.43,93.75q0-7.32-8.79-7.32-12.21,0-12.21-3.42,0-6.11,7.33-6.11a12,12,0,0,1,4.88,1q2.43-1.69,7-10.28t5.25-12.2a15.23,15.23,0,0,0-5.41-1.69q-10.31,0-23.81,17.82T474.12,99.85q0,9.53,9.65,9.28c5.11-.16,7.92.25,8.41,1.22q-3.9,5.37-25.63,13.43L436.76,134c0,2,1.06,2.93,3.18,2.93q20.51,0,44.92-11.47Q513.42,111.82,513.43,93.75Z"/>
      </g>
    </g>
  </g>
</svg>
