<svg xmlns="http://www.w3.org/2000/svg" viewBox="0 0 936.67 664.06">
  <title>EH-Asset 7-layername</title>
  <g id="Layer_2" data-name="Layer 2">
    <g id="ElMumin">
      <g>
        <path d="M104.64,129.14q0,18.06-16.4,39.52L95.71,176l-8.54,24.15A169.73,169.73,0,0,1,71.05,187.4q-37.84,35.25-57.62,35.26-3.91,0-13.43-2.93,29.79-14.4,62.26-38.09-9.63-9.27-9.62-16.36,0-12.69,13.85-29.66t26-17Q104.64,118.65,104.64,129.14ZM85.11,150.67q0-11.26-9.67-11.27l-3.72,1.47A11,11,0,0,0,69,148.22q0,4.91,11.65,14.45Q85.11,155.08,85.11,150.67Z"/>
        <path d="M262.6,373.78l-12.46,46.27q-24.66,18.46-40,17.21l-4.64,21.55q-8.53,39.69-39.73,79.61Q130.14,584,94.8,584q-44.61,0-44.61-54.05,0-31.3,23.45-84.13-31.5,1.23-50,32l-1.46.49-1.47-1.47q0-24.48,20.51-49.47,21.48-26.44,45.19-26.45,10.76,0,10.76,9.54,0,9.29-13.57,40.6T70,498.46q0,18.35,10.88,29.47t29.24,11.13q22.26,0,48.43-24.9Q183.24,490.73,189.1,468a118.33,118.33,0,0,0,4.16-29.3q0-15.62-12-27.59-.48-16.11,18.9-44.43,7.28,3.18,18,31.25Q235.5,398,262.6,373.78Z"/>
        <path d="M318.75,601.07q-5.13,16.6-14.16,21l-85.45,42q3.9-15.13,23-24.66Z"/>
        <path d="M366.84,310.55q-2.19,12.45-16.6,36.37-14.4-2.69-21.24-2.68-21,0-44.19,33-28.08,39.54-38.33,45.41l12.45-45.9q7.81-6.34,18.31-22.58t17.34-22.34v-1.71l-4.4-4.64q5.13-18.79,18.56-37.84,8.79,6.34,29.17,11.72T366.84,310.55Z"/>
        <path d="M521.63,192.87q0,19-15.07,35.4t-34.17,16.36q-20.1,0-20.1-17.58,0-19.77,14-38.33,15.18-20.26,34.3-20.26,8.58,0,15.19,8A26.15,26.15,0,0,1,521.63,192.87Zm-15.87,16.18q0-6-8-12.9t-13.88-6.94q-7.36,0-13.38,6.69t-6,14.14q0,10.67,19.16,10.66Q505.76,220.7,505.76,209.05Z"/>
        <path d="M460.1,317.26q20.5,0,44.92-11.5,28.4-13.69,28.39-31.8,0-7.33-8.71-7.34-12.11,0-12.1-3.42,0-6.12,7.25-6.12a11.68,11.68,0,0,1,4.83,1q2.42-1.69,6.89-10.27t5.2-12.21a14.82,14.82,0,0,0-5.37-1.69q-10.26,0-23.69,17.88t-13.42,28.36q0,9.48,9.65,9.24,7.67-.24,8.41,1.23-3.92,5.37-25.64,13.45l-29.78,10.27Q456.93,317.26,460.1,317.26Z"/>
        <path d="M541.89,411.62q0-12-9.4-21.24t-21.36-9.28q-13.68,0-27.59,26.13Q471.09,430.66,471.09,446q0,14.65,22.22,14.65,7.32,0,28.56-5.86a48.32,48.32,0,0,1-7.08,20.27q-2.44,3.66-13.42,16.84-51.76,61-122.32,81.79-32.48,9.53-49.32,9.52-8.3,0-23.43-2.44-15.87-2.68-23.2-2.93l-2,1.49Q282.38,586,319,592q30.76,5.19,46.39,5.19,41,0,68.11-11.74Q465.73,571.51,498,528q30.88-41.56,39.06-78,40.77-17.34,56.4-29.82l12.45-46.44Q582.91,394.28,541.89,411.62Z"/>
        <path d="M667.14,68.11q0,18-16.4,39.52l7.47,7.31-8.54,24.16a169.58,169.58,0,0,1-16.12-12.74q-37.84,35.27-57.62,35.26-3.91,0-13.43-2.93,29.79-14.4,62.26-38.08-9.63-9.28-9.62-16.36,0-12.69,13.85-29.67t26-17Q667.14,57.62,667.14,68.11ZM647.61,89.63q0-11.25-9.67-11.26l-3.72,1.47a10.94,10.94,0,0,0-2.73,7.34q0,4.91,11.65,14.45Q647.61,94,647.61,89.63Z"/>
        <path d="M723.78,374.51l-12.45,46.42A36.09,36.09,0,0,1,692,426.51q-17.34,0-27.34-15.29-20.52,25.39-25.64,25.39-5.62,0-16.6-12.94-10.26-12-12.21-18.76-5.61,7.53-21,18l12.2-45.43Q612.7,367,635.15,346.19q2.45,0,24.17,18.31t37.11,18.31A46.77,46.77,0,0,0,723.78,374.51Z"/>
        <path d="M750.63,24.41q0,19-15.06,35.4T701.39,76.17q-20.1,0-20.09-17.58,0-19.77,14-38.33Q710.46,0,729.56,0q8.58,0,15.19,8.06A26.1,26.1,0,0,1,750.63,24.41ZM734.76,40.59q0-5.94-8-12.9t-13.87-6.94q-7.38,0-13.39,6.7t-6,14.13q0,10.67,19.16,10.67Q734.76,52.25,734.76,40.59Z"/>
        <path d="M797.75,220.46q0,68.85-17.33,113.77-21,53.72-71.78,88.87l12.21-45.66q62.25-49.8,62.25-100.1,0-37.59-23.68-91.06-4.59,23.92-13.77,71.53-3.87,20.51-6.52,20.51l-2.17-.73-.49-3.18q0-19.77,10.21-74.21,10.71-58.84,18.49-67.63,13.37,8.3,23.58,40.28Q797.75,200.45,797.75,220.46Z"/>
        <path d="M845.6,13.18q-5.11,16.61-14.16,21L746,76.17q3.91-15.14,23-24.66Z"/>
        <path d="M850,93.75q0-7.32-8.79-7.32Q829,86.43,829,83q0-6.11,7.33-6.11a11.92,11.92,0,0,1,4.88,1q2.43-1.69,7-10.28t5.25-12.2A15.23,15.23,0,0,0,848,53.71q-10.31,0-23.81,17.82T810.69,99.85q0,9.53,9.65,9.28c5.11-.16,7.92.25,8.41,1.22q-3.9,5.37-25.63,13.43L773.33,134c0,2,1.06,2.93,3.18,2.93q20.5,0,44.92-11.47Q850,111.82,850,93.75Z"/>
        <path d="M917.68,215.09a524.76,524.76,0,0,0-44.78-103q-15.09,45.41-15.09,136,0,48.82,8,50.29,5.55-2.68,5.55-28.08,0-13.67,6.27-60.54,12.27,23.19,26.52,62.25,16.2,44.68,16.2,63,0,25.64-15.38,50.78-9,14.89-33.45,42.24L850.24,450.2q-12.45,13.43-17.82,24.41c.16,1.3,1,1.95,2.44,1.95s4.87-1,10.23-2.93q57-20.75,75.75-54.93,15.82-28.56,15.83-93.5Q936.67,275.88,917.68,215.09Z"/>
      </g>
    </g>
  </g>
</svg>
