<?xml version="1.0" encoding="utf-8"?>
<!-- Generator: Adobe Illustrator 22.1.0, SVG Export Plug-In . SVG Version: 6.00 Build 0)  -->
<svg version="1.1" id="Layer_1" xmlns="http://www.w3.org/2000/svg" xmlns:xlink="http://www.w3.org/1999/xlink" x="0px" y="0px"
	 viewBox="0 0 1095.6 642.3" style="enable-background:new 0 0 1095.6 642.3;" xml:space="preserve">
<title>EH-Asset 80-layername</title>
<g id="Layer_2_1_">
	<g id="EtTewwab">
		<g>
			<path d="M104.6,149.4c0-7-4-10.5-12.2-10.5c-7.8,0-16.2,5.3-25.1,15.9c1.6,2,3.1,4.1,4.5,6.3l3.5-1.4c6.4,0,9.7,3.8,9.7,11.3
				c0,2.9-1.5,6.9-4.5,12c-7.8-6.4-11.7-11.2-11.7-14.5c0-2.7,0.9-5.3,2.7-7.3l0.2-0.1c-1.4-2.2-2.9-4.2-4.5-6.3
				c-0.3,0.4-0.6,0.7-0.9,1.1c-9.2,11.3-13.8,21.2-13.8,29.7c0,4.7,3.2,10.2,9.6,16.3C40.6,217.7,19.9,230.4,0,240
				c6.3,1.9,10.8,2.9,13.4,2.9c13.2,0,32.4-11.8,57.6-35.3c5.1,4.6,10.5,8.8,16.1,12.7l8.5-24.2l-7.5-7.3
				C99.2,174.6,104.6,161.4,104.6,149.4z"/>
			<path d="M586.1,345.5c0,43.3-5.2,74.5-15.6,93.5c-12.5,22.8-37.8,41.1-75.9,54.9c-5.4,2-8.8,2.9-10.3,2.9c-1.5,0-2.3-0.6-2.5-2
				c3.6-7.3,9.5-15.5,17.8-24.4l21.2-22.2c16.3-18.2,27.4-32.3,33.4-42.2c10.3-16.8,15.4-33.7,15.4-50.8c0-12.2-5.4-33.2-16.2-63
				c-9.5-26-18.3-46.7-26.5-62.2c-4.2,31.3-6.3,51.4-6.3,60.5c0,16.9-1.9,26.3-5.5,28.1c-5.3-1-8-17.7-8-50.3
				c0-60.4,5-105.7,15.1-136c18.6,32.6,33.6,67.2,44.8,103C579.8,275.9,586.1,312.6,586.1,345.5z"/>
			<path d="M818.8,394l-12.5,46.4c-10.4,8.3-29.2,18.2-56.4,29.8c-5.4,24.3-18.5,50.3-39.1,78c-21.5,29-43,48.2-64.5,57.5
				c-18.1,7.8-40.8,11.7-68.1,11.7c-10.4,0-25.9-1.7-46.4-5.2c-24.4-3.9-37-8.1-37.9-12.6l2-1.5c4.9,0.2,12.6,1.1,23.2,2.9
				c10.1,1.6,17.9,2.5,23.4,2.5c11.2,0,27.7-3.2,49.3-9.5c47-13.8,87.8-41.1,122.3-81.8c12-14.2,18.9-26.5,20.5-37.1
				c-14.1,3.9-23.6,5.9-28.5,5.9c-14.8,0-22.2-4.9-22.2-14.7c0-10.3,4.1-23.2,12.5-38.8c9.3-17.4,18.5-26.1,27.6-26.1
				c8,0,15.1,3.1,21.4,9.3c6.2,6.2,9.4,13.3,9.4,21.2C782.1,420.3,803.5,407.7,818.8,394z"/>
			<path d="M956.7,240.7c0,45.9-5.8,83.8-17.3,113.8c-14,35.8-37.9,65.4-71.8,88.9l12.2-45.6c41.5-33.2,62.2-66.6,62.2-100.1
				c0-25.1-7.9-55.4-23.7-91.1c-3.1,16-7.7,39.8-13.8,71.5c-2.6,13.7-4.8,20.5-6.5,20.5l-2.2-0.7l-0.5-3.2
				c0-13.2,3.4-37.9,10.2-74.2c7.1-39.2,13.3-61.8,18.5-67.6c8.9,5.5,16.8,19,23.6,40.3C953.7,211.5,956.7,227.4,956.7,240.7z"/>
			<path d="M1004.5,33.5c-3.4,11.1-8.1,18.1-14.2,21l-85.5,42c2.6-10.1,10.3-18.3,23-24.7L1004.5,33.5z"/>
			<path d="M127.6,599.4c-3.3-1.8-7.7-3.9-13.2-6.3l-22,34.7l22,14.6c10.8-14.2,18.3-25.2,22.7-33
				C137.1,606.4,133.9,603.1,127.6,599.4z"/>
			<path d="M425.4,305.7c-19.9,22-39.6,44-59.3,65.9c-43.6,47.5-77,80.9-100.1,100.1c-46.4,38.7-87.2,58.1-122.6,58.1
				c-26.9,0-48.6-8.6-65.2-25.8s-24.9-39.3-24.9-66.3c0-31.2,14.2-57.9,42.7-79.8c21.8-16.8,47.4-27.8,76.7-33.2
				c12.1-2.3,40.6-4.6,85.7-7.1c50.3-2.8,77.5-5.8,81.5-9l-0.3-2.7H230.1c-33,0-58.9,2.3-77.6,6.8c-26.4,6.5-48.9,19-67.6,37.4
				c-33,32-49.6,71.7-49.6,119.1c0,28.7,9.6,52.5,28.8,71.7s43,28.7,71.5,28.7c42.7,0,87.9-21,135.8-63
				c24.7-22,60.9-61.8,108.4-119.4c24.1-29.1,44.5-50.3,61.3-63.5c7-8.8,9.9-20.1,8.8-33.9C435,298.9,426.9,304.2,425.4,305.7z"/>
			<path d="M614.2,202.1c-6.2,0-9.3-5.9-9.3-17.8l-5.9,1.5c-12.4,21.6-22.4,32.5-30,32.5c-5.7,0-8.5-3.8-8.5-11.5l0.7-7.6l-8.5,4.6
				c-4.6,12.4-6.8,20.8-6.8,25.3c0,9.2,4.7,13.8,14.2,13.8c10.9,0,21.3-7,31.1-21.1c5.9,4.2,10.7,6.3,14.4,6.3
				c11.8,0,21.5-7.1,29.1-21.2c5.7-10.4,9.4-22.6,11-36.6l-7.6,2.2C631.6,192.2,623.6,202.1,614.2,202.1z"/>
			<path d="M555.1,193.4l79.8-28.4c6.5-2.3,12.1-8.5,16.8-18.6l-69.6,24.5C571.3,174.6,562.2,182.1,555.1,193.4z"/>
			<path d="M779.7,96.4c10.9,0,21.3-7.1,31.1-21.2c5.9,4.2,10.7,6.3,14.4,6.3c11.8,0,21.5-7.1,29.1-21.2c5.7-10.4,9.4-22.6,11-36.6
				l-7.6,2.2c-6.5,19.9-14.5,29.8-23.9,29.8c-6.2,0-9.3-5.9-9.3-17.8l-5.9,1.5c-12.4,21.6-22.4,32.5-30,32.5
				c-5.7,0-8.5-3.8-8.5-11.5l0.7-7.6l-8.5,4.6c-4.6,12.4-6.8,20.8-6.8,25.3C765.5,91.8,770.3,96.4,779.7,96.4z"/>
			<path d="M871.5,0l-69.6,24.4C791,28.1,782,35.6,774.8,46.9l79.8-28.3C861.2,16.3,866.8,10.1,871.5,0z"/>
			<path d="M827.8,421.6c-6.7,0-11.4-0.9-14.2-2.7c12.7-17.4,19-32.1,19-44c0-2.8-0.2-5.6-0.7-8.3c-9.1,10.4-18,20.7-26.8,30.8
				L793,442.8l6.6-5.2c6.5,12,16.7,18,30.7,18c13.2,0,26.6-5,40.3-15L883,394c-6.5,6.5-15.1,12.6-25.6,18.3
				C845.5,418.5,835.7,421.6,827.8,421.6z"/>
			<path d="M838.3,217.8c-20.5,13.2-38.9,23.1-55.2,29.8c-10.6,20.5-15.7,33.8-15.4,39.8c8.6-4.6,15-8,19.2-10.5
				c21.2-11.9,33-19,35.3-21.2C828.7,249.4,834.1,236.8,838.3,217.8z"/>
			<path d="M1008.9,114c0-4.9-2.9-7.3-8.8-7.3c-8.2,0-12.2-1.1-12.2-3.4c0-4.1,2.4-6.1,7.3-6.1c1.7,0,3.3,0.3,4.9,1
				c1.6-1.1,4-4.5,7-10.3c3-5.7,4.8-9.8,5.3-12.2c-1.7-0.9-3.5-1.5-5.4-1.7c-6.9,0-14.8,5.9-23.8,17.8s-13.5,21.3-13.5,28.3
				c0,6.3,3.2,9.4,9.7,9.3c5.1-0.2,7.9,0.3,8.4,1.2c-2.6,3.6-11.2,8-25.7,13.4l-29.8,10.3c0,1.9,1.1,2.9,3.2,2.9
				c13.7,0,28.7-3.8,44.9-11.5C999.4,136.6,1008.9,126.1,1008.9,114z"/>
			<path d="M1076.6,235.4c-11.2-35.8-26.2-70.4-44.8-103c-10.1,30.3-15.1,75.6-15.1,136c0,32.6,2.7,49.3,8,50.3
				c3.7-1.8,5.6-11.1,5.6-28.1c0-9.1,2.1-29.3,6.3-60.6c8.2,15.5,17,36.2,26.5,62.3c10.8,29.8,16.2,50.8,16.2,63
				c0,17.1-5.1,34-15.4,50.8c-6,9.9-17.2,24-33.4,42.2l-21.2,22.2c-8.3,9-14.2,17.1-17.8,24.4c0,1.2,1,2.1,2.2,2c0.1,0,0.2,0,0.2,0
				c1.5,0,4.9-1,10.2-2.9c38-13.8,63.3-32.2,75.8-54.9c10.5-19,15.8-50.2,15.8-93.5C1095.6,312.6,1089.3,275.9,1076.6,235.4z"/>
		</g>
	</g>
</g>
</svg>
