<svg xmlns="http://www.w3.org/2000/svg" viewBox="0 0 1095.6 642.33">
  <title>EH-Asset 80-layername</title>
  <g id="Layer_2" data-name="Layer 2">
    <g id="EtTewwab">
      <g>
        <path d="M104.64,149.41q0,18-16.4,39.52l7.47,7.31-8.54,24.15a169.39,169.39,0,0,1-16.12-12.73q-37.84,35.26-57.62,35.26Q9.52,242.92,0,240q29.79-14.4,62.26-38.09-9.63-9.27-9.62-16.35,0-12.69,13.85-29.67t26-17Q104.64,138.92,104.64,149.41ZM85.11,170.93q0-11.25-9.67-11.26l-3.72,1.47A10.94,10.94,0,0,0,69,168.48q0,4.91,11.65,14.45Q85.11,175.34,85.11,170.93Z"/>
        <path d="M586.08,345.46q0,64.95-15.63,93.5-18.8,34.19-75.92,54.94-8.05,2.93-10.25,2.93c-1.47,0-2.29-.65-2.45-2q5.37-11,17.83-24.41l21.24-22.22q24.4-27.33,33.44-42.23,15.39-25.15,15.39-50.79,0-18.3-16.21-63Q539.27,253.18,527,230q-6.27,46.88-6.27,60.55,0,25.39-5.55,28.07-7.95-1.46-7.95-50.29,0-90.57,15.09-136a525.61,525.61,0,0,1,44.78,103Q586.08,296.15,586.08,345.46Z"/>
        <path d="M818.75,394l-12.45,46.4q-15.63,12.46-56.4,29.82-8.17,36.44-39.06,78-32.24,43.51-64.45,57.45-27.1,11.73-68.12,11.73-15.63,0-46.39-5.19Q495.27,606.3,494,599.63l1.95-1.49q7.33.24,23.2,2.93,15.13,2.45,23.44,2.45,16.85,0,49.31-9.53,70.56-20.75,122.32-81.78,18.06-21.24,20.5-37.11Q713.52,481,706.2,481,684,481,684,466.31q0-15.39,12.45-38.82,13.92-26.12,27.59-26.12,12,0,21.36,9.27t9.4,21.24Q795.81,414.55,818.75,394Z"/>
        <path d="M956.69,240.72q0,68.85-17.34,113.77-21,53.72-71.77,88.87l12.2-45.65Q942,347.9,942,297.61q0-37.61-23.68-91.07-4.59,23.94-13.77,71.54-3.87,20.51-6.52,20.5l-2.18-.73-.48-3.17q0-19.79,10.21-74.22,10.7-58.83,18.48-67.63,13.38,8.31,23.59,40.29Q956.69,220.71,956.69,240.72Z"/>
        <path d="M1004.54,33.45q-5.13,16.61-14.16,21l-85.45,42q3.9-15.14,23-24.66Z"/>
        <path d="M127.59,599.37q-4.89-2.7-13.19-6.35l-22,34.67,22,14.64q16.13-21.24,22.71-33Q137.11,605,127.59,599.37Z"/>
        <path d="M425.44,305.66q-29.79,33-59.33,65.92-65.43,71.3-100.1,100.1-69.57,58.11-122.55,58.11-40.29,0-65.19-25.76t-24.9-66.29q0-46.87,42.72-79.83,32.72-25.14,76.66-33.2,18.08-3.42,85.7-7.08,75.44-4.15,81.54-9l-.25-2.68H230.13q-49.57,0-77.64,6.83-39.56,9.78-67.63,37.36Q35.3,398.19,35.3,469.24q0,43,28.81,71.65t71.53,28.69q64,0,135.75-63,37.1-33,108.39-119.38,36.14-43.71,61.28-63.48,10.5-13.19,8.79-33.94Q427.64,303.47,425.44,305.66Z"/>
        <path d="M614.16,202.15q-9.28,0-9.28-17.82L599,185.79q-18.56,32.47-30,32.47-8.55,0-8.54-11.47l.73-7.57-8.54,4.64q-6.84,18.6-6.84,25.25,0,13.81,14.19,13.81,16.41,0,31.09-21.15,8.8,6.25,14.43,6.26,17.63,0,29.13-21.24,8.57-15.63,11-36.62l-7.57,2.19Q628.32,202.15,614.16,202.15Z"/>
        <path d="M555.08,193.36,634.91,165q9.76-3.42,16.85-18.56L582.18,170.9Q565.82,176.51,555.08,193.36Z"/>
        <path d="M779.72,96.44q16.39,0,31.08-21.16,8.82,6.27,14.44,6.26,17.63,0,29.13-21.24,8.55-15.61,11-36.62l-7.57,2.2Q848,55.67,833.89,55.66q-9.28,0-9.28-17.82l-5.86,1.47q-18.56,32.47-30,32.47-8.55,0-8.55-11.48l.74-7.57-8.55,4.64q-6.84,18.6-6.83,25.26Q765.53,96.43,779.72,96.44Z"/>
        <path d="M871.48,0,801.9,24.41Q785.55,30,774.8,46.88l79.84-28.33Q864.41,15.15,871.48,0Z"/>
        <path d="M827.85,421.63c-6.68,0-11.39-.89-14.16-2.68q19-26.13,19-43.95a42.43,42.43,0,0,0-.73-8.3q-13.62,15.63-26.75,30.76L793,442.78l6.56-5.17q9.74,18,30.71,18,19.79,0,40.29-15L883,394q-9.78,9.76-25.64,18.31Q839.57,421.64,827.85,421.63Z"/>
        <path d="M838.28,217.77q-30.76,19.78-55.18,29.79-15.87,30.76-15.38,39.79,12.9-6.83,19.23-10.49,31.86-17.82,35.27-21.24Q832,246.34,838.28,217.77Z"/>
        <path d="M1008.93,114q0-7.32-8.78-7.32c-8.15,0-12.21-1.14-12.21-3.42q0-6.09,7.32-6.1a12.13,12.13,0,0,1,4.89,1q2.43-1.69,7-10.27t5.25-12.21A15.19,15.19,0,0,0,1007,74q-10.32,0-23.82,17.83t-13.5,28.32q0,9.51,9.65,9.27,7.66-.24,8.41,1.23Q983.78,136,962.06,144L932.27,154.3q0,2.92,3.17,2.93,20.52,0,44.93-11.48Q1008.93,132.08,1008.93,114Z"/>
        <path d="M1076.62,235.35a525.61,525.61,0,0,0-44.78-103q-15.1,45.42-15.09,136,0,48.84,8,50.29,5.55-2.69,5.55-28.07,0-13.68,6.27-60.55,12.27,23.21,26.52,62.26,16.21,44.67,16.21,63,0,25.63-15.38,50.79-9,14.89-33.45,42.23l-21.24,22.22q-12.45,13.43-17.82,24.41a2.11,2.11,0,0,0,2.43,2q2.19,0,10.23-2.93,57-20.76,75.75-54.94,15.82-28.56,15.83-93.5Q1095.6,296.14,1076.62,235.35Z"/>
      </g>
    </g>
  </g>
</svg>
