<?xml version="1.0" encoding="utf-8"?>
<!-- Generator: Adobe Illustrator 22.1.0, SVG Export Plug-In . SVG Version: 6.00 Build 0)  -->
<svg version="1.1" id="Layer_1" xmlns="http://www.w3.org/2000/svg" xmlns:xlink="http://www.w3.org/1999/xlink" x="0px" y="0px"
	 viewBox="0 0 883.5 541.8" style="enable-background:new 0 0 883.5 541.8;" xml:space="preserve">
<title>EH-Asset 15-layername</title>
<g id="Layer_2_1_">
	<g id="ElGafar">
		<g>
			<path d="M146.2,149.4c0-7-4.1-10.5-12.2-10.5c-8.1,0-16.8,5.7-26,17c-0.7,0.9-1.4,1.7-2,2.6c1.9,1.7,3.8,3.5,5.6,5.3
				c0.4-0.9,1-1.8,1.7-2.6l3.7-1.5c6.4,0,9.7,3.8,9.7,11.3c0,2.9-1.5,6.9-4.5,12c-7.8-6.4-11.6-11.2-11.6-14.5c0-1.6,0.3-3.3,1-4.7
				c-1.8-1.8-3.7-3.6-5.6-5.3c-7.9,10.2-11.8,19.3-11.8,27.1c0,4.7,3.2,10.2,9.6,16.4c-21.6,15.8-42.4,28.5-62.3,38.1
				c6.4,2,10.8,2.9,13.4,2.9c13.2,0,32.4-11.7,57.7-35.3c5.1,4.6,10.5,8.8,16.1,12.7l8.5-24.2l-7.5-7.3
				C140.8,174.6,146.2,161.4,146.2,149.4z"/>
			<path d="M268.5,317.8c0,17.5-2.7,26.7-8,27.7l-6.6-8.1c-4.6,0.2-8.3,2.9-11.2,8.1c-8,13.8-16.5,31.9-25.4,54.3
				c-7.3,18.7-14.7,37.4-22,56c-6.2,14.7-15.7,29.2-28.6,43.5c-13.7,15.3-27.3,26-40.8,32c-15.3,7-36.4,10.5-63.2,10.5
				c-40.5,0-61.4-2.1-62.7-6.3l2.4-1.8c34.2,0,65.9-7.3,95.2-22c30.4-15.3,54.8-36.8,73.2-64.6c9.9-15.1,20.6-35.2,32-60.2
				l22.5-50.2c12.7-25.2,22.5-37.8,29.5-37.8c3.9,0,7.2,2.3,10,6.8C267.3,309.2,268.5,313.4,268.5,317.8z"/>
			<path d="M424.3,394.5l-12.5,46.8c-13,8.8-26.2,13.3-39.6,13.3c-18.4,0-31-10.3-37.8-31c-3.7-11.6-5.9-29.5-6.6-53.8l-1.9-73.7
				c-1.4-55.3-2.1-83.5-2.1-84.5c0-2.1,2-9,5.9-20.8c3.9-11.7,6.6-18.6,8-20.5h1.5c0.5,28.2,1.5,70.2,2.9,126.2
				c0.2,15.6,1.9,38.7,5.1,69.3c6.5,31.4,19,47.1,37.4,47.1C398.4,413.1,411.6,406.9,424.3,394.5z"/>
			<path d="M488.8,0l-69.6,24.4c-10.9,3.7-19.9,11.2-27.1,22.5l79.8-28.3C478.4,16.3,484.1,10.1,488.8,0z"/>
			<path d="M451.2,55.7c-6.2,0-9.3-5.9-9.3-17.8l-5.9,1.5c-12.4,21.6-22.4,32.5-30,32.5c-5.7,0-8.5-3.8-8.5-11.5l0.7-7.6l-8.5,4.6
				c-4.6,12.4-6.8,20.8-6.8,25.3c0,9.2,4.7,13.8,14.2,13.8c10.9,0,21.3-7.1,31.1-21.2c5.9,4.2,10.7,6.3,14.4,6.3
				c11.8,0,21.5-7.1,29.1-21.2c5.7-10.4,9.4-22.6,11-36.6l-7.6,2.2C468.6,45.7,460.6,55.7,451.2,55.7z"/>
			<path d="M492.4,232.7c0-2.4-3.2-5.7-9.8-9.8c-2.9-1.8-7.1-4.1-12.7-6.8l-22.2,34.4l21.7,15.1C476.3,260.4,484,249.4,492.4,232.7z
				"/>
			<polygon points="444.6,382.7 444.6,382.7 444.6,382.7 			"/>
			<path d="M497.6,413.8c-20.1,0-33.1-4.2-38.8-12.5c22.4-25.7,33.6-46.5,33.5-62.3c0-20.7-4.7-31-14.1-31
				c-4.5,0-11.4,3.6-20.4,10.8c-9.1,7.2-17.5,17.6-25.3,31.3c-8.3,14.7-12.4,27.2-12.4,37.7c0,2.1,0.2,4.2,0.5,6.3
				c7.6-4.2,14.3-9.8,21-15.1c-3.6-4.8-5.4-8.8-5.4-11.9c0-2.9,3.7-7.6,11-14.1c7.4-6.5,12.6-9.7,15.7-9.7c8.5,0,12.8,3.2,12.8,9.5
				c0,9.3-10.4,19.2-31.2,29.9c0,0,0,0,0,0h0c0,0,0,0,0,0c-1.1-1.3-2.1-2.5-3-3.7c-6.8,5.3-13.4,10.9-21,15.1c0.1,1,0.3,2,0.5,3
				L408.7,444c9.7-6.9,19-14.4,27.8-22.3c9.9,11.6,17.8,19.6,23.5,23.8c9,6.7,20,10.4,31.3,10.3c18.4,0.1,36.4-5.3,51.8-15.4
				l12.7-47.3C537.8,406.9,518.4,413.8,497.6,413.8z"/>
			<path d="M612.1,33.5c-3.4,11.1-8.1,18.1-14.2,21l-85.5,42c2.6-10.1,10.3-18.3,23-24.7L612.1,33.5z"/>
			<path d="M608.4,251.7c0-3.1-2-5.7-6.1-7.8c-2.3-2.9-7.6-5.8-16-8.6c-13.3,19.7-20.8,31.2-22.4,34.4c9.6,6.8,16.9,11.8,21.9,14.9
				C592.1,278.3,599.7,267.3,608.4,251.7z"/>
			<path d="M629.9,413.1c-14.2,0-23.4-8.5-27.8-25.6c16.1-17.5,24.2-31,24.2-40.4c0-10.4-9.5-15.6-28.6-15.6
				c-27.2,0-43.7,3.2-49.6,9.5c-3,5.2-5.6,10.5-7.8,16c-5.5,14.4-8.3,23.9-8.3,28.5c2.5-1,7.7-1.5,15.7-1.5c4.7,0,9.1,2,12.3,5.4
				l-8.1,8.3L539.6,443c9.3-6.4,21.7-17.8,37.1-34.1c8.2,30.1,22.4,45.2,42.5,45.2c12.7,0,26.1-4.6,40.3-13.7l12.7-47.3
				C657,406.4,642.9,413.1,629.9,413.1z"/>
			<path d="M691.7,28.3c-4.4-5.4-9.5-8.1-15.2-8.1c-12.7,0-24.2,6.8-34.3,20.3c-5.5,7.3-9.4,14.7-11.6,22.3c3.3-0.5,6.6-0.8,9.9-1.2
				c0.1-4.9,2-9.5,6-13.9c4-4.5,8.5-6.7,13.4-6.7c3.9,0,8.5,2.4,13.9,7c5.3,4.6,8,8.9,8,12.9c0,7.8-7.4,11.6-22.1,11.6
				c-12.8,0-19.2-3.6-19.2-10.7c0-0.1,0-0.1,0-0.2c-3.3,0.4-6.6,0.8-9.9,1.2c-1.6,5.3-2.4,10.6-2.4,16c0,11.7,6.7,17.6,20.1,17.6
				c12.7,0,24.1-5.4,34.2-16.4c10-10.9,15.1-22.7,15.1-35.4C697.5,38.7,695.4,32.9,691.7,28.3z"/>
			<path d="M744.6,240.7c0,45.9-5.8,83.8-17.3,113.8c-14,35.8-37.9,65.4-71.8,88.9l12.2-45.6c41.5-33.2,62.3-66.6,62.3-100.1
				c0-25.1-7.9-55.4-23.7-91.1c-3.1,16-7.7,39.8-13.8,71.5c-2.6,13.7-4.8,20.5-6.5,20.5l-2.2-0.7l-0.5-3.2
				c0-13.2,3.4-37.9,10.2-74.2c7.1-39.2,13.3-61.8,18.5-67.6c8.9,5.5,16.8,19,23.6,40.3C741.6,211.5,744.6,227.4,744.6,240.7z"/>
			<path d="M792.5,33.5c-3.4,11.1-8.1,18.1-14.2,21l-85.5,42c2.6-10.1,10.3-18.3,23-24.7L792.5,33.5z"/>
			<path d="M796.9,114c0-4.9-2.9-7.3-8.8-7.3c-8.1,0-12.2-1.1-12.2-3.4c0-4.1,2.4-6.1,7.3-6.1c1.7,0,3.3,0.3,4.9,1
				c1.6-1.1,3.9-4.5,7-10.3c3-5.7,4.8-9.8,5.3-12.2c-1.7-0.9-3.5-1.5-5.4-1.7c-6.9,0-14.8,5.9-23.8,17.8s-13.5,21.3-13.5,28.3
				c0,6.3,3.2,9.4,9.7,9.3c5.1-0.2,7.9,0.2,8.4,1.2c-2.6,3.6-11.1,8-25.6,13.4l-29.8,10.3c0,1.9,1.1,2.9,3.2,2.9
				c13.7,0,28.7-3.8,44.9-11.5C787.4,136.6,796.9,126.1,796.9,114z"/>
			<path d="M864.6,235.4c-11.2-35.8-26.2-70.4-44.8-103c-10.1,30.3-15.1,75.6-15.1,136c0,32.6,2.7,49.3,8,50.3
				c3.7-1.8,5.5-11.1,5.5-28.1c0-9.1,2.1-29.3,6.3-60.6c8.2,15.5,17,36.2,26.5,62.3c10.8,29.8,16.2,50.8,16.2,63
				c0,17.1-5.1,34-15.4,50.8c-6,9.9-17.1,24-33.5,42.2l-21.2,22.2c-8.3,9-14.2,17.1-17.8,24.4c0,1.2,1,2.1,2.2,2c0.1,0,0.2,0,0.2,0
				c1.5,0,4.9-1,10.2-2.9c38-13.8,63.3-32.2,75.8-54.9c10.6-19,15.8-50.2,15.8-93.5C883.5,312.6,877.2,275.9,864.6,235.4z"/>
		</g>
	</g>
</g>
</svg>
