<svg xmlns="http://www.w3.org/2000/svg" viewBox="0 0 772.22 625">
  <title>EH-Asset 82-layername</title>
  <g id="Layer_2" data-name="Layer 2">
    <g id="ElAfuww">
      <g>
        <path d="M324.71,401.61,312.26,448q-15.63,12.47-56.4,29.82-8.18,36.44-39.06,78-32.24,43.5-64.46,57.45Q125.25,625,84.23,625q-15.63,0-46.39-5.19Q1.22,613.87,0,607.2l2-1.49q7.33.24,23.2,2.93,15.14,2.45,23.43,2.44,16.85,0,49.32-9.52,70.56-20.74,122.31-81.78,18.07-21.24,20.51-37.11-21.24,5.85-28.56,5.86-22.22,0-22.22-14.65,0-15.39,12.45-38.82,13.92-26.13,27.59-26.12,12,0,21.35,9.27t9.41,21.24Q301.77,422.13,324.71,401.61Z"/>
        <path d="M376.22,10.49q0,18.06-16.39,39.52l7.47,7.32-8.55,24.15a170.85,170.85,0,0,1-16.12-12.74Q304.78,104,285,104q-3.9,0-13.43-2.93Q301.37,86.67,333.84,63q-9.63-9.29-9.62-16.36,0-12.69,13.85-29.66t26-17Q376.22,0,376.22,10.49ZM356.69,32q0-11.26-9.67-11.27l-3.72,1.47a11,11,0,0,0-2.72,7.35q0,4.89,11.65,14.44C355.2,39,356.69,35,356.69,32Z"/>
        <path d="M500.73,126.46q-5.13,16.62-14.16,21l-85.45,42q3.9-15.13,22.95-24.66Z"/>
        <path d="M560.79,400.63,548.1,447.94q-21.24,13.74-40.29,13.73-30.15,0-42.48-45.17-23.07,24.56-37.07,34.12l12.28-45.3,8.1-8.33a17,17,0,0,0-12.28-5.39q-12,0-15.71,1.47,0-6.81,8.31-28.44a136.16,136.16,0,0,1,7.81-16q8.79-9.48,49.56-9.48,28.56,0,28.56,15.58,0,14.13-24.17,40.41,6.6,25.56,27.83,25.55Q538.08,420.65,560.79,400.63Z"/>
        <path d="M586.18,52.25q0,19-15.07,35.4T536.94,104q-20.1,0-20.09-17.57,0-19.79,14-38.33,15.2-20.26,34.3-20.27,8.58,0,15.19,8.06A26.15,26.15,0,0,1,586.18,52.25ZM570.31,68.42q0-5.94-8-12.89t-13.88-7q-7.37,0-13.38,6.7t-6,14.14q0,10.67,19.16,10.66Q570.31,80.08,570.31,68.42Z"/>
        <path d="M633.3,248.29q0,68.85-17.33,113.77-21,53.71-71.78,88.87l12.21-45.66q62.25-49.8,62.25-100.09,0-37.6-23.68-91.07Q590.38,238,581.2,285.64q-3.87,20.52-6.52,20.51l-2.17-.73-.49-3.17q0-19.78,10.21-74.22,10.71-58.84,18.49-67.63,13.37,8.31,23.58,40.28Q633.3,228.28,633.3,248.29Z"/>
        <path d="M681.15,41Q676,57.63,667,62l-85.45,42q3.9-15.14,23-24.65Z"/>
        <path d="M163.47,116.6q-4-5.26-9.64-5.27-12.47,0-25.4,12.13t-13,24.36l1,5.88A58.3,58.3,0,0,0,122.9,162q-29.1,17.15-57.44,24,8.33,4.88,14.44,4.88,15.66,0,51.87-23.93,15.66,6.84,25,7.08,3.92-12.49,3.67-15.68l-.24-3.68-7.31-5.39q14.66-15.44,14.65-21.57A18,18,0,0,0,163.47,116.6ZM145.1,144.53q-10.57-8.29-10.58-13.43,0-9,8.18-9,7.68,2.93,7.69,8.79Q150.39,136.49,145.1,144.53Z"/>
        <path d="M119.63,211.28q-9.52,0-9-11.39l.24-4.85-6.35,1.45Q86.43,225.35,75.2,225.34q-7.83,0-7.82-9l1.71-10.91L64,206q-12,16.4-12,29.37l1.71,8.56q5.11,6.62,12.17,6.61,19,0,30.45-19.66,5.83,6.24,9.74,6.23,32.38,0,46-52.49L146,186Q133.06,211.29,119.63,211.28Z"/>
        <path d="M381.1,240.23q0-3.66-9.75-9.76-4.38-2.68-12.67-6.84L336.5,258.06l21.69,15.13Q368.42,265.39,381.1,240.23Z"/>
        <path d="M347.55,408.94q33.56-38.58,33.55-62.26,0-31-14.11-31-6.81,0-20.44,10.76t-25.3,31.29q-12.42,22-12.41,37.65a42.83,42.83,0,0,0,1,9.29l-12.45,46.93a310.18,310.18,0,0,0,27.84-22.34q14.88,17.43,23.43,23.81a51.87,51.87,0,0,0,31.25,10.32A93,93,0,0,0,431.64,448l12.7-47.25q-26.82,20.67-58,20.68Q356.09,421.39,347.55,408.94Zm-14.24-18.7Q325,380.52,325,374.67q0-4.38,11.06-14.11t15.72-9.73q12.76,0,12.77,9.49Q364.5,374.18,333.31,390.24Z"/>
        <path d="M753.23,242.92a525.35,525.35,0,0,0-44.78-103q-15.09,45.42-15.09,136,0,48.83,8,50.29,5.53-2.69,5.54-28.07,0-13.68,6.27-60.55,12.29,23.19,26.52,62.25,16.22,44.68,16.21,63,0,25.63-15.38,50.78-9,14.9-33.45,42.24L685.79,478Q673.34,491.46,668,502.44c.16,1.31,1,1.95,2.44,1.95s4.86-1,10.22-2.93q57-20.74,75.76-54.93Q772.22,418,772.22,353,772.22,303.71,753.23,242.92Z"/>
        <path d="M685.55,121.58q0-7.32-8.79-7.32-12.21,0-12.21-3.42,0-6.11,7.33-6.1a12,12,0,0,1,4.88,1q2.43-1.69,7-10.27T689,83.23a15.14,15.14,0,0,0-5.4-1.69q-10.3,0-23.82,17.83t-13.5,28.32q0,9.51,9.65,9.27c5.11-.16,7.92.25,8.41,1.22q-3.9,5.38-25.63,13.43l-29.79,10.26q0,2.92,3.18,2.92,20.51,0,44.92-11.47Q685.54,139.66,685.55,121.58Z"/>
      </g>
    </g>
  </g>
</svg>
