<?xml version="1.0" encoding="utf-8"?>
<!-- Generator: Adobe Illustrator 22.1.0, SVG Export Plug-In . SVG Version: 6.00 Build 0)  -->
<svg version="1.1" id="Layer_1" xmlns="http://www.w3.org/2000/svg" xmlns:xlink="http://www.w3.org/1999/xlink" x="0px" y="0px"
	 viewBox="0 0 1035.8 640.6" style="enable-background:new 0 0 1035.8 640.6;" xml:space="preserve">
<title>EH-Asset 23-layername</title>
<g id="Layer_2_1_">
	<g id="ElHafid">
		<g>
			<path d="M104.6,68.1c0-7-4-10.5-12.2-10.5c-7.8,0-16.2,5.3-25.1,15.9c1.6,2,3.1,4.1,4.5,6.3l3.6-1.4c6.4,0,9.7,3.8,9.7,11.3
				c0,2.9-1.5,6.9-4.5,12C72.9,95.3,69,90.5,69,87.2c0-2.7,0.9-5.3,2.7-7.3l0.2-0.1c-1.4-2.1-2.9-4.2-4.5-6.3
				c-0.3,0.4-0.6,0.7-0.9,1.1c-9.2,11.3-13.9,21.2-13.9,29.7c0,4.7,3.2,10.2,9.6,16.4C40.6,136.4,19.9,149.1,0,158.7
				c6.3,2,10.8,2.9,13.4,2.9c13.2,0,32.4-11.7,57.6-35.3c5.1,4.6,10.5,8.8,16.1,12.7l8.5-24.2l-7.5-7.3
				C99.2,93.3,104.6,80.1,104.6,68.1z"/>
			<path d="M439.4,576.7c-3.4,11.1-8.1,18.1-14.2,21l-85.5,42c2.6-10.1,10.3-18.3,23-24.7L439.4,576.7z"/>
			<path d="M615.9,374.3l-12.5,46.8c-13,8.8-26.2,13.3-39.5,13.3c-18.4,0-31-10.3-37.8-31c-3.7-11.6-5.9-29.5-6.6-53.8l-1.8-73.7
				c-1.4-55.3-2.1-83.5-2.1-84.5c0-2.1,2-9,5.9-20.8c3.9-11.7,6.6-18.6,8-20.5h1.5c0.5,28.2,1.5,70.2,2.9,126.2
				c0.2,15.6,1.9,38.7,5.1,69.3c6.5,31.4,19,47.1,37.4,47.1C590,392.8,603.2,386.6,615.9,374.3z"/>
			<path d="M674,98.6c-3.4,11.1-8.1,18.1-14.2,21l-85.5,42c2.6-10.1,10.3-18.3,23-24.7L674,98.6z"/>
			<path d="M843.9,8.1c-4.4-5.4-9.5-8.1-15.2-8.1c-12.7,0-24.2,6.8-34.3,20.3c-1.1,1.4-2.1,2.8-3,4.2c2.1,1.4,4,2.8,5.9,4.4
				c0.4-0.5,0.8-1,1.2-1.5c4-4.5,8.5-6.7,13.4-6.7c3.9,0,8.5,2.3,13.9,6.9c5.3,4.6,8,8.9,8,12.9c0,7.8-7.4,11.7-22.1,11.7
				c-12.8,0-19.1-3.6-19.2-10.7c0-4.4,1.6-8.6,4.8-12.6c-1.9-1.6-3.9-3.1-5.9-4.4c-7.3,11-11,22.4-11,34.1
				c0,11.7,6.7,17.6,20.1,17.6c12.7,0,24.1-5.4,34.2-16.4c10-10.9,15.1-22.7,15.1-35.4C849.7,18.5,847.6,12.7,843.9,8.1z"/>
			<path d="M896.9,220.5c0,45.9-5.8,83.8-17.3,113.8c-14,35.8-37.9,65.4-71.8,88.9l12.2-45.7c41.5-33.2,62.3-66.6,62.3-100.1
				c0-25.1-7.9-55.4-23.7-91.1c-3.1,15.9-7.7,39.8-13.8,71.5c-2.6,13.7-4.8,20.5-6.5,20.5l-2.2-0.7l-0.5-3.2
				c0-13.2,3.4-37.9,10.2-74.2c7.1-39.2,13.3-61.8,18.5-67.6c8.9,5.5,16.8,19,23.6,40.3C893.9,191.3,896.9,207.1,896.9,220.5z"/>
			<path d="M944.7,13.2c-3.4,11.1-8.1,18.1-14.2,21l-85.4,42c2.6-10.1,10.2-18.3,22.9-24.7L944.7,13.2z"/>
			<path d="M384.2,373c-1.2,1.1-2.5,2.2-3.9,3.3c1.2-0.8,2.5-1.7,3.7-2.6L384.2,373z"/>
			<path d="M270.2,259.5c0-2.3-3.3-5.5-9.8-9.5c-3.1-1.8-7.3-4.1-12.7-6.8c-9.4,14-16.8,25.5-22,34.4l21.5,15.1
				C255.7,285.1,263.3,274,270.2,259.5z"/>
			<path d="M379.8,376.8c-8.8,7-18.1,13.4-27.8,19.2c-15.5,9.3-27.2,14.7-35.2,16.3c31.3-44.6,46.9-79.8,46.9-105.7
				c0-3.9-1.1-5.9-3.4-5.9c-12,0-31.1,8.3-57.1,24.9c-39.7,25.3-66.1,62.8-79,112.4c3.8,0.2,7.7,0,11.3-1.2
				c8.7-20,16.2-34,22.7-41.9c8.8-10.9,23.4-21.7,43.7-32.5c16.6-8.8,26.9-13.2,31-13.2l2.2,2.2c-6.5,17.8-20.7,36.2-42.5,55.2
				c-21,18.6-40.9,30.7-59.8,36.4c0.9-2.1,1.8-4.2,2.7-6.2c-3.6,1.2-7.5,1.4-11.3,1.2c-0.6,2.4-1.2,4.8-1.8,7.3
				c-7.6,1.3-15.3,2-23.1,2.2c-11.2,0-18.8-2.7-22.8-8c-3.4-4.2-5.4-12.1-6.1-23.8l-2-1.2l-1.7,0.5c-11.4,25.3-18.2,42.2-20.5,50.8
				c6.5,9.6,9.9,20.9,10,32.5c0,20.2-9.8,41.6-29.5,64.1c-20,23-39.9,34.5-59.8,34.5c-13.5,0-24.3-4.4-32.5-13.3
				c-8.1-8.9-12.2-20.2-12.2-33.8c0-31.6,11.7-59.6,35.2-84.1c14.2-14.8,39.8-33.7,77-56.6c37.2-22.9,62.5-41.3,76-55.4
				c10.7-11.2,16.5-18.9,17.3-23l-0.7-1l-2.7,0.5c-17.6,19.2-44.8,39.7-81.7,61.5c-41.3,24.6-68.7,42.8-82.2,54.7
				c-27.1,24.1-45.2,53.4-54.1,87.9c-3.9,15-5.8,28.6-5.8,40.8c0,18.4,3.7,33.4,11.2,44.9c8.8,13.7,21.9,20.5,39.3,20.5
				c20.8,0,41.7-10.1,62.5-30.3c16.8-16.3,30.6-35.7,41.5-58.3c11.1-27.2,19-47.8,23.9-61.8c2.1,1.6,5.8,2.5,11.1,2.5
				c6.3-0.2,12.5-1,18.7-2.5c-4.7,21.5-8.2,37.8-10.5,48.7l1.7,2.5l3.4-2.5l13.9-50.9c14.7,0,39.5-12.3,74.5-36.9
				c9,0.2,22.6-3.5,41-11c17.4-7.1,30.4-13.9,38.8-20.2l0.2-0.7c-1.4,1.1-2.9,2.2-4.3,3.3L379.8,376.8z"/>
			<path d="M410.8,195.3l10-17.6c0-5.7-7.4-11.2-22.2-16.6c-14,21.5-21.3,33-22,34.4c6.9,5.4,14,10.3,21.5,14.9
				C401.8,207.8,406,202.8,410.8,195.3z"/>
			<path d="M379.8,376.7v0.1l0.5-0.4L379.8,376.7z"/>
			<path d="M406.4,246.3c-7.6,0-16.1,9.3-25.4,27.8c-8.6,17.2-12.9,30.4-12.9,39.6c0,4.8,2.2,9.4,6.1,12.2c3.7,3,8.2,4.5,12.9,4.4
				c7,0,15.9-4.5,26.9-13.4c3.1,1.3,4.6,4.1,4.6,8.5c0,7.8-4.8,17.4-14.4,28.8c-5.9,7.3-12.7,13.9-20.2,19.5l-12.3,45.5
				c27.3-21.1,46.8-50.4,58.5-87.8c6.4-20.7,9.6-34.3,9.6-41c0-9.4-3.2-18.9-9.6-28.3C423.3,251.6,415.3,246.3,406.4,246.3z"/>
			<path d="M380.3,376.4l-0.5,0.4l-12.4,45.8c1.5-1.1,2.9-2.2,4.3-3.3l12.3-45.5C382.8,374.7,381.5,375.6,380.3,376.4z"/>
			<path d="M706.1,172.9c0-2.6-3.2-5.9-9.5-9.8c-3.1-1.8-7.4-4-12.9-6.6c-13.7,20.5-21.2,32.1-22.5,34.7
				c6.9,5.3,14.2,10.2,21.7,14.6C690.6,199.3,698.3,188.3,706.1,172.9z"/>
			<path d="M755.3,396.4c-12.7,0-23.4-3.5-32-10.7c-9.3-7.7-13.9-17.7-13.9-30.3c0-6.6,0.6-13.3,1.7-19.8
				c17.4-15.5,42.6-26.5,75.4-33.2c7.5-10.6,12.7-23.7,15.6-39.3c-10.1,4.6-21.1,6.9-32.2,6.8c-7.3,0-18-2.1-31.9-6.2
				s-24.5-6.2-31.6-6.2c-27.4,0-47.8,12.4-61.2,37.1c-6.5,12.1-13.5,34.8-20.9,68.3c3.7-2.6,7.1-5.5,10.3-8.6c7.2-38,25-57,53.4-57
				c5.2,0,14.7,1.6,28.3,4.9c-13.5,6.2-27.9,15-43.2,26.2l0,0c-7.2,5.2-20.4,15.7-39.6,31.6c0.3-1.9,0.6-3.8,1-5.7
				c-3.2,3.2-6.7,6-10.3,8.6c-0.4,1.7-0.7,3.4-1.1,5.1l-9,8.5l-12.5,45.9c7.8-5.8,13.7-10.3,17.6-13.4l-2,30.3v30.5l1.2,1.2l1.2-0.7
				l2.2-4.1c-0.7-17.6,1.5-39.2,6.6-65c24.7-21.5,47.8-40.5,69.3-56.9c-2.9,13-4.4,23.7-4.4,32c0,17.4,5.1,32.1,15.3,44.1
				c10.7,12.7,24.7,19,42,19c19.8,0,39.8-6.2,59.8-18.5l12.5-46.5C804.4,389.1,781.8,396.4,755.3,396.4z"/>
			<path d="M949.1,93.8c0-4.9-2.9-7.3-8.8-7.3c-8.1,0-12.2-1.1-12.2-3.4c0-4.1,2.4-6.1,7.3-6.1c1.7,0,3.3,0.3,4.9,1
				c1.6-1.1,3.9-4.6,7-10.3s4.8-9.8,5.3-12.2c-1.7-0.9-3.5-1.5-5.4-1.7c-6.9,0-14.8,5.9-23.8,17.8c-9,11.9-13.5,21.3-13.5,28.3
				c0,6.4,3.2,9.4,9.7,9.3c5.1-0.2,7.9,0.3,8.4,1.2c-2.6,3.6-11.2,8.1-25.6,13.4L872.5,134c0,2,1,2.9,3.2,2.9
				c13.7,0,28.6-3.8,44.9-11.5C939.6,116.4,949.1,105.8,949.1,93.8z"/>
			<path d="M1016.8,215.1c-11.2-35.8-26.2-70.4-44.8-103c-10.1,30.3-15.1,75.6-15.1,136c0,32.5,2.7,49.3,8,50.3
				c3.7-1.8,5.5-11.1,5.5-28.1c0-9.1,2.1-29.3,6.3-60.5c8.2,15.4,17,36.2,26.5,62.2c10.8,29.8,16.2,50.8,16.2,63
				c0,17.1-5.1,34-15.4,50.8c-6,9.9-17.2,24-33.5,42.2l-21.2,22.2c-8.3,9-14.2,17.1-17.8,24.4c0.2,1.3,1,2,2.4,2s4.9-1,10.2-2.9
				c38-13.8,63.3-32.1,75.8-54.9c10.5-19,15.8-50.2,15.8-93.5C1035.8,292.3,1029.5,255.6,1016.8,215.1z"/>
		</g>
	</g>
</g>
</svg>
