<svg xmlns="http://www.w3.org/2000/svg" viewBox="0 0 1015.53 621.34">
  <title>EH-Asset 83-layername</title>
  <g id="Layer_2" data-name="Layer 2">
    <g id="ErReuf">
      <g>
        <path d="M104.64,54.92q0,18.06-16.4,39.52l7.47,7.32-8.54,24.15a168.14,168.14,0,0,1-16.12-12.73q-37.84,35.25-57.62,35.26-3.91,0-13.43-2.93,29.79-14.4,62.26-38.09-9.63-9.27-9.63-16.36,0-12.69,13.86-29.66t26-17Q104.64,44.43,104.64,54.92ZM85.11,76.45q0-11.26-9.67-11.26l-3.72,1.46A11,11,0,0,0,69,74q0,4.91,11.65,14.45Q85.11,80.86,85.11,76.45Z"/>
        <path d="M469.63,335q0,10.26-15.13,43.46-9.27,20.5-16.35,30-38.55,52.24-132.74,92.28-88.82,37.59-159.09,37.6-116.38,0-116.39-90.58,0-41,28.56-74.7,23.19-27.35,59.57-44.44,25.38-12,77.38-24.17,66.15-15.37,79.58-19.77,62.49-19.79,108.39-59.57-7.34-4.64-19.79-14.41,8.31-11.48,26.14-32a155.29,155.29,0,0,1,14.66,8.55q10,6.83,10.26,12.2L404.42,217q-7.59,11.47-13.2,14.16l-4.15-3.66q-53.74,52.74-109.44,69.09l-72.31,20.51q-48.13,14.16-78.91,27.59-75.24,33-75.24,83.49,0,40.53,44.7,58.6Q127.64,500,175.27,500q59.85,0,148-38.64,94.54-41.57,121.41-87.55a9.81,9.81,0,0,0,1.47-5.13q0-9.78-7.57-14.92-10.28,14.65-29.07,14.65-11.49,0-13.93-7.08,3.9-16.84,15.1-37.84,13.86-26.37,25.07-26.37,9,0,21.42,13.43T469.63,335Z"/>
        <path d="M643.21,28.07q0,18-16.39,39.52l7.47,7.32-8.55,24.15a170.85,170.85,0,0,1-16.12-12.74Q571.78,121.59,552,121.58q-3.9,0-13.43-2.93,29.79-14.4,62.26-38.08-9.63-9.28-9.62-16.36,0-12.69,13.85-29.66t26-17Q643.21,17.58,643.21,28.07ZM623.68,49.59q0-11.25-9.67-11.26l-3.72,1.47a10.94,10.94,0,0,0-2.72,7.35q0,4.89,11.65,14.44Q623.68,54,623.68,49.59Z"/>
        <path d="M673.48,168.7q-9.27,0-9.27-17.82l-5.86,1.46q-18.55,32.47-30,32.47-8.55,0-8.55-11.47l.74-7.57L612,170.41q-6.84,18.6-6.83,25.25,0,13.82,14.19,13.81,16.39,0,31.08-21.15,8.82,6.26,14.44,6.26,17.63,0,29.13-21.24,8.55-15.61,11-36.62l-7.57,2.2Q687.65,168.71,673.48,168.7Z"/>
        <path d="M711.08,113,641.5,137.45q-16.35,5.63-27.1,22.46l79.84-28.32Q704,128.17,711.08,113Z"/>
        <path d="M803.12,360.84,790.43,408q-30.28,17.58-42.24,25.63-28.56,19.05-34.91,31.5-19.53,42.24-39.06,84.23-28.34,53.7-59.09,64-23.43,8-51.51,8-56.4,0-72.51-9.51l-.73-1.23,1.95-2.2a163.54,163.54,0,0,0,32,2.93q44.93,0,85-28.81,35.38-25.87,59.81-68.36,1.71-3.17,23.19-45.9,13.92-27.83,27-43.58t41.38-33.32Q792.14,371.83,803.12,360.84Z"/>
        <path d="M876.61,207.28q0,68.84-17.33,113.76-21,53.71-71.78,88.87l12.21-45.65Q862,314.45,862,264.16q0-37.59-23.68-91.06-4.59,23.93-13.77,71.53-3.87,20.5-6.52,20.51l-2.18-.74-.48-3.17q0-19.77,10.21-74.22,10.71-58.83,18.48-67.63,13.38,8.31,23.59,40.29Q876.61,187.26,876.61,207.28Z"/>
        <path d="M924.46,0q-5.13,16.61-14.16,21L824.85,63q3.9-15.14,22.95-24.66Z"/>
        <path d="M550.68,201.56q20.51,0,44.92-11.5,28.56-13.69,28.56-31.81,0-7.35-8.78-7.35-12.21,0-12.21-3.42,0-6.12,7.31-6.12a11.83,11.83,0,0,1,4.87,1q2.45-1.69,6.94-10.28t5.24-12.2a15,15,0,0,0-5.39-1.7q-10.3,0-23.79,17.9t-13.49,28.35q0,9.51,9.65,9.25c5.11-.16,7.92.25,8.41,1.23q-3.9,5.38-25.63,13.46L547.5,198.63C547.5,200.59,548.56,201.56,550.68,201.56Z"/>
        <path d="M603.66,239.75q-11.24,0-17.09,10.74-19.29,34.92-19.29,51.27a15.08,15.08,0,0,0,6.6,12.69,24,24,0,0,0,14.64,4.89q18.08,0,31.74-15.14,3.66,10.5,3.66,15.38,0,17.58-15.87,44.43-22.95,39.08-61.88,70.19t-82.65,46.27q-14.16,4.89-42.72,12-19.29,4.89-19.29,7.08,0,4.65,17.82,4.64,61.29,0,93.75-11Q558,478,599.75,414.31q40.53-62.51,40.53-112.8Q640.28,239.75,603.66,239.75Z"/>
        <path d="M996.54,201.9a525.52,525.52,0,0,0-44.78-103q-15.09,45.41-15.09,136,0,48.84,8,50.3,5.54-2.69,5.54-28.08,0-13.66,6.27-60.55,12.28,23.21,26.52,62.26,16.21,44.67,16.21,63,0,25.64-15.38,50.78-9,14.9-33.45,42.23-10.5,11-21.24,22.22-12.45,13.42-17.82,24.42a2.11,2.11,0,0,0,2.43,1.95q2.19,0,10.23-2.93,57-20.74,75.75-54.93,15.84-28.57,15.84-93.51Q1015.53,262.71,996.54,201.9Z"/>
        <path d="M928.86,80.57q0-7.33-8.79-7.33c-8.14,0-12.21-1.13-12.21-3.42q0-6.09,7.32-6.1a12,12,0,0,1,4.89,1Q922.5,63,927,54.42c3-5.72,4.77-9.78,5.25-12.2a14.93,14.93,0,0,0-5.4-1.69q-10.32,0-23.82,17.82t-13.5,28.32q0,9.52,9.65,9.28c5.11-.16,7.92.24,8.41,1.22q-3.9,5.37-25.63,13.43l-29.79,10.25q0,2.93,3.18,2.93,20.5,0,44.92-11.48Q928.85,98.64,928.86,80.57Z"/>
      </g>
    </g>
  </g>
</svg>
