<?xml version="1.0" encoding="utf-8"?>
<!-- Generator: Adobe Illustrator 22.1.0, SVG Export Plug-In . SVG Version: 6.00 Build 0)  -->
<svg version="1.1" id="Layer_1" xmlns="http://www.w3.org/2000/svg" xmlns:xlink="http://www.w3.org/1999/xlink" x="0px" y="0px"
	 viewBox="0 0 843.9 559.8" style="enable-background:new 0 0 843.9 559.8;" xml:space="preserve">
<title>EH-Asset 30-layername</title>
<g id="Layer_2_1_">
	<g id="ElAdl">
		<g>
			<path d="M104.6,10.5c0-7-4-10.5-12.2-10.5c-8.1,0-16.8,5.7-26,17c-0.4,0.5-0.8,1-1.2,1.5c2.2,1.2,4.3,2.6,5.9,4.4
				c0.2-0.2,0.3-0.4,0.5-0.6l3.7-1.5c6.4,0,9.7,3.8,9.7,11.3c0,3-1.5,7-4.5,12C72.9,37.6,69,32.8,69,29.6c0-2.4,0.8-4.8,2.2-6.7
				c-1.6-1.8-3.7-3.2-5.9-4.4c-8.5,10.7-12.7,20.1-12.7,28.2c0,4.7,3.2,10.2,9.6,16.4C40.6,78.8,19.9,91.5,0,101.1
				c6.3,2,10.8,2.9,13.4,2.9c13.2,0,32.4-11.8,57.6-35.3c5.1,4.6,10.5,8.8,16.1,12.7l8.5-24.1L88.2,50
				C99.2,35.7,104.6,22.5,104.6,10.5z"/>
			<path d="M420.6,162.8l-2.2-1.7c-54.2,25.7-99.9,45.5-137.2,59.3c-0.3-1.3-0.7-2.6-1-3.8c-6,5-14,7.3-21.1,10.7
				c0.1,0.4,0.3,0.9,0.4,1.3l-27.8,11.9c0-47,1.1-71.9,3.4-74.7c5.5,9.8,10.2,20,13.9,30.6c2.1,5.4,5.4,15.7,10.1,30.9
				c7.1-3.4,15.1-5.6,21.1-10.7C268.5,172,252.8,133,233,99.6c-9,28.3-13.6,57.7-13.7,87.4c0,8.6,0.2,19.2,0.5,31.7
				c0.2,13.7,0.3,22.5,0.3,26.6c-1.6,0.7-3.1,1.4-4.7,2.1c0.6,3,0.6,6.1,0.6,9.3c1.4-0.6,2.7-1.3,4.1-1.9c-0.5,21.5-1,43-1.7,64.5
				c-0.8,25.9-2.7,47.3-5.6,64.2l2.7,1.7l2.7-1.2c4.6-7.7,7.6-28.7,8.9-63c1.6-41.3,3-65.1,4.2-71.2l30.5-12.5
				c8.1,32.9,12.2,62.1,12.2,87.7c0,49.5-15.3,93.9-45.9,133.3s-66.1,59.1-106.6,59.1c-21.5,0-38.9-7.7-52.4-23
				c-12.7-14.6-19-32.9-19-54.7c0-43.3,23-83.8,69-121.6c30.8-25.2,63.1-45.6,96.9-61.4c0-3.2-0.1-6.3-0.6-9.3
				c-46.3,20.9-81.1,40.7-104.2,59.4c-20.6,16.5-38,36.6-51.3,59.3c-14.8,25.1-22.2,49.2-22.2,72.3c0,33.5,5.8,60.7,17.4,81.5
				c14.8,26.5,37.6,39.8,68.4,39.8c26.6,0,50.2-8.9,70.9-26.6c14.5-12.5,30.5-32.8,48.1-61c33.1-53.1,49.6-105.6,49.6-157.7
				c-0.2-28.6-3.3-57.2-9.3-85.2c45.7-18.6,91.3-39.7,136.7-63.5L420.6,162.8z"/>
			<path d="M303,158.9c-2.7,4.4-9.6,6.6-20.7,6.6c-12.8,0-19.2-3.6-19.2-10.7c0-5,2-9.7,6-14.1c4-4.5,8.5-6.7,13.4-6.7
				c3.9,0,8.5,2.3,13.9,7c5.3,4.6,8,8.9,8,12.9C304.3,155.8,303.9,157.5,303,158.9c3.1,1.6,6.2,3.3,9.4,4.8c5.2-8.2,7.8-16.9,7.8-26
				c0-6-2.1-11.7-5.8-16.4c-4.4-5.4-9.5-8.1-15.2-8.1c-12.7,0-24.2,6.8-34.3,20.3c-9.3,12.4-14,25.2-14,38.3
				c0,11.7,6.7,17.6,20.1,17.6c12.7,0,24.1-5.4,34.2-16.4c2.8-3,5.2-6.2,7.2-9.4C309.2,162.2,306.1,160.6,303,158.9z"/>
			<path d="M516.8,401.4l-12.5,46.5c-8.8,6.2-18.2,11.5-28.1,16c-13.2,6.2-23.1,9.3-29.8,9.3c-18.1,0-27.1-13.6-27.1-40.8
				c0.1-5.3,0.6-10.6,1.5-15.9h-2c-1,0-3.3,2.2-7,6.7s-10.7,16.4-21.1,35.7c-24.6,45.7-47.4,73.8-68.6,84.2
				c-12.4,6-23.2,9.8-32.5,11.5c-7,1.3-18.6,2-34.7,2c-9.2-0.2-18.4-0.9-27.6-2c-14.2-1.7-22.5-3.5-24.9-5.5l0.7-1.5l3.4-2
				c24.6,0,44.6-2.5,60.1-7.6s33-14.9,52.7-29.5c21.2-15.6,36.1-29.9,44.9-42.7c11.2-18.2,22.5-36.5,33.7-54.9
				c16.6-25.7,29.6-40.6,38.8-44.7l2.4,2.2l0.5,2.4c-0.5,1.6-1.2,5-2.2,10.3c-1.6,8.4-2.5,16.9-2.5,25.4c0,17.4,7.2,26.1,21.7,26.1
				C471.7,432.6,491.7,422.2,516.8,401.4z"/>
			<path d="M572.4,126.5c-3.4,11.1-8.1,18.1-14.2,21l-85.5,42c2.6-10.1,10.2-18.3,23-24.7L572.4,126.5z"/>
			<path d="M632.5,400.6l-12.7,47.3c-14.2,9.2-27.6,13.7-40.3,13.7c-20.1,0-34.3-15.1-42.5-45.2c-15.4,16.4-27.7,27.7-37.1,34.1
				l12.3-45.3l8.1-8.3c-3.2-3.4-7.6-5.4-12.3-5.4c-8,0-13.2,0.5-15.7,1.5c0-4.5,2.8-14,8.3-28.4c2.3-5.5,4.9-10.8,7.8-16
				c5.9-6.3,22.4-9.5,49.6-9.5c19,0,28.6,5.2,28.6,15.6c0,9.4-8.1,22.9-24.2,40.4c4.4,17,13.7,25.6,27.8,25.5
				C603.2,420.7,617.3,414,632.5,400.6z"/>
			<path d="M652,35.9c-4.4-5.4-9.5-8.1-15.2-8.1c-12.7,0-24.2,6.8-34.3,20.3c-0.8,1.1-1.6,2.2-2.3,3.2c2.7,0.7,5.3,1.6,7.7,2.7
				c3.7-3.6,7.8-5.5,12.2-5.5c3.9,0,8.5,2.4,13.9,7c5.3,4.6,8,8.9,8,12.9c0,7.8-7.4,11.6-22.1,11.6c-12.8,0-19.2-3.5-19.2-10.7
				c0-5,2-9.7,6-14.1c0.4-0.4,0.8-0.8,1.2-1.2c-2.5-1.1-5.1-1.9-7.7-2.7c-7.8,11.3-11.7,23-11.7,35.1c0,11.7,6.7,17.6,20.1,17.6
				c12.7,0,24.1-5.4,34.2-16.3c10-10.9,15.1-22.7,15.1-35.4C657.8,46.3,655.8,40.5,652,35.9z"/>
			<path d="M705,248.3c0,45.9-5.8,83.8-17.3,113.8c-14,35.8-37.9,65.4-71.8,88.9l12.2-45.7c41.5-33.2,62.3-66.6,62.3-100.1
				c0-25.1-7.9-55.4-23.7-91.1c-3.1,15.9-7.7,39.8-13.8,71.5c-2.6,13.7-4.8,20.5-6.5,20.5l-2.2-0.7l-0.5-3.2
				c0-13.2,3.4-37.9,10.2-74.2c7.1-39.2,13.3-61.8,18.5-67.6c8.9,5.5,16.8,19,23.6,40.3C702,219.1,705,234.9,705,248.3z"/>
			<path d="M752.8,41c-3.4,11.1-8.1,18.1-14.2,21l-85.5,42c2.6-10.1,10.3-18.3,23-24.7L752.8,41z"/>
			<path d="M757.2,121.6c0-4.9-2.9-7.3-8.8-7.3c-8.1,0-12.2-1.1-12.2-3.4c0-4.1,2.4-6.1,7.3-6.1c1.7,0,3.3,0.3,4.9,1
				c1.6-1.1,3.9-4.6,7-10.3c3-5.7,4.8-9.8,5.3-12.2c-1.7-0.9-3.5-1.5-5.4-1.7c-6.9,0-14.8,5.9-23.8,17.8s-13.5,21.3-13.5,28.3
				c0,6.3,3.2,9.4,9.7,9.3c5.1-0.2,7.9,0.3,8.4,1.2c-2.6,3.6-11.1,8.1-25.6,13.4l-29.8,10.3c0,1.9,1.1,2.9,3.2,2.9
				c13.7,0,28.7-3.8,44.9-11.5C747.7,144.2,757.2,133.6,757.2,121.6z"/>
			<path d="M824.9,242.9c-11.2-35.8-26.2-70.4-44.8-103c-10.1,30.3-15.1,75.6-15.1,136c0,32.6,2.7,49.3,8,50.3
				c3.7-1.8,5.5-11.1,5.5-28.1c0-9.1,2.1-29.3,6.3-60.6c8.2,15.5,17,36.2,26.5,62.2c10.8,29.8,16.2,50.8,16.2,63
				c0,17.1-5.1,34-15.4,50.8c-6,9.9-17.2,24-33.5,42.2L757.5,478c-8.3,9-14.3,17.1-17.8,24.4c0.2,1.3,1,2,2.4,2s4.9-1,10.2-2.9
				c38-13.8,63.3-32.1,75.8-54.9c10.6-19,15.8-50.2,15.8-93.5C843.9,320.1,837.6,283.4,824.9,242.9z"/>
		</g>
	</g>
</g>
</svg>
