<?xml version="1.0" encoding="utf-8"?>
<!-- Generator: Adobe Illustrator 22.1.0, SVG Export Plug-In . SVG Version: 6.00 Build 0)  -->
<svg version="1.1" id="Layer_1" xmlns="http://www.w3.org/2000/svg" xmlns:xlink="http://www.w3.org/1999/xlink" x="0px" y="0px"
	 viewBox="0 0 2021.5 672.1" style="enable-background:new 0 0 2021.5 672.1;" xml:space="preserve">
<title>EH-Asset 84-layername</title>
<g id="Layer_2_1_">
	<g id="ElMelikul_Mulki">
		<g>
			<path d="M99.6,609.1c-3.4,11.1-8.1,18.1-14.2,21L0,672.1c2.6-10.1,10.3-18.3,23-24.7L99.6,609.1z"/>
			<path d="M504.7,40.5c-4.4-5.4-9.5-8.1-15.2-8.1c-11.9,0-22.7,5.9-32.3,17.7c2.5,1.7,5,3.5,7.4,5.4c2.6-1.6,5.3-2.4,8.2-2.4
				c3.9,0,8.5,2.4,13.9,7c5.3,4.6,8,8.9,8,12.9c0,7.8-7.4,11.6-22.1,11.6c-12.8,0-19.2-3.5-19.2-10.7c0-5,2-9.7,6-14.1
				c1.6-1.8,3.4-3.3,5.2-4.3c-2.4-1.9-4.8-3.7-7.4-5.4c-0.7,0.8-1.3,1.7-2,2.6c-9.3,12.4-14,25.2-14,38.3c0,11.7,6.7,17.6,20.1,17.6
				c12.7,0,24.1-5.4,34.2-16.4s15.1-22.7,15.1-35.4C510.5,50.9,508.4,45.2,504.7,40.5z"/>
			<path d="M587.7,406.5l-12.5,46.2c-10.4,8.1-21.4,12.1-33,12.1c-17.6,0-26.1-16-25.6-48l0.3-23.9c-12.3,27.3-28.5,48.2-48.6,62.5
				l12.2-45.5c16.2-13.3,26.4-24.1,30.7-32.2c5.1-9.3,7.6-23.5,7.6-42.7c0-8.3-0.4-20.6-1.2-37c-0.8-16.4-1.2-28.7-1.2-37
				c0-4.2,1.6-11.3,4.8-21.1c3.2-9.8,6.1-16,8.7-18.4l2.2,1c1.6,28.2,2.4,84.8,2.4,169.9c0,19.5,6.8,29.3,20.3,29.3
				C564.9,421.6,575.9,416.6,587.7,406.5z"/>
			<path d="M649.4,100.6c0-7-4-10.5-12.1-10.5c-8.1,0-16.8,5.7-26,17c0,0-0.1,0.1-0.1,0.1c1.6,2,3.1,4,4.5,6.2
				c0.2-0.4,0.5-0.7,0.8-1l3.7-1.5c6.4,0,9.7,3.8,9.7,11.3c0,2.9-1.5,6.9-4.5,12c-7.8-6.4-11.7-11.2-11.7-14.4
				c0-2.3,0.7-4.5,1.9-6.3c-1.4-2.1-2.9-4.2-4.5-6.2c-9.2,11.3-13.8,21.1-13.8,29.6c0,4.7,3.2,10.2,9.6,16.4
				c-21.6,15.8-42.4,28.5-62.3,38.1c6.3,2,10.8,2.9,13.4,2.9c13.2,0,32.4-11.7,57.6-35.3c5.1,4.6,10.5,8.8,16.1,12.7l8.5-24.2
				l-7.5-7.3C643.9,125.8,649.4,112.6,649.4,100.6z"/>
			<path d="M706,407l-12.5,46.4c-5.8,3.7-12.5,5.6-19.3,5.6c-11.5,0-20.7-5.1-27.3-15.3c-13.7,16.9-22.2,25.4-25.6,25.4
				c-3.7,0-9.3-4.3-16.6-12.9c-6.8-8-10.9-14.3-12.2-18.8c-3.7,5-10.7,11-21,18l12.2-45.4c7.5-7,18.7-17.4,33.7-31.3
				c1.6,0,9.7,6.1,24.2,18.3s26.8,18.3,37.1,18.3C688.5,415.5,698,412.6,706,407z"/>
			<path d="M727.1,40.5c-4.4-5.4-9.5-8.1-15.2-8.1c-12.7,0-24.2,6.8-34.3,20.3c-0.4,0.5-0.8,1.1-1.2,1.6c0.9,0.6,1.7,1.2,2.6,1.8
				c1.3,0.8,2.6,1.6,4,2.5c3.7-3.6,7.7-5.4,12.2-5.4c3.9,0,8.5,2.4,13.9,7c5.3,4.6,8,8.9,8,12.9c0,7.8-7.4,11.6-22.1,11.6
				c-12.8,0-19.2-3.5-19.2-10.7c0-5,2-9.7,6-14.1c0.4-0.4,0.8-0.9,1.2-1.3c-1.3-0.9-2.7-1.7-4-2.5c-0.9-0.6-1.8-1.2-2.6-1.8
				c-8.5,11.9-12.8,24.1-12.8,36.7c0,11.7,6.7,17.6,20.1,17.6c12.7,0,24.1-5.4,34.2-16.4s15.1-22.7,15.1-35.4
				C732.9,50.9,730.8,45.2,727.1,40.5z"/>
			<path d="M780,252.9c0,45.9-5.8,83.8-17.3,113.8c-14,35.8-37.9,65.4-71.8,88.9l12.2-45.7c41.5-33.2,62.3-66.6,62.3-100.1
				c0-25.1-7.9-55.4-23.7-91.1c-3.1,15.9-7.7,39.8-13.8,71.5c-2.6,13.7-4.8,20.5-6.5,20.5l-2.2-0.7l-0.5-3.2
				c0-13.2,3.4-37.9,10.2-74.2c7.1-39.2,13.3-61.8,18.5-67.6c8.9,5.5,16.8,19,23.6,40.3C777,223.7,780,239.6,780,252.9z"/>
			<path d="M919,357.7c0,43.3-5.2,74.5-15.6,93.5c-12.5,22.8-37.8,41.1-75.9,54.9c-5.4,1.9-8.8,2.9-10.3,2.9c-1.5,0-2.3-0.6-2.4-2
				c3.6-7.3,9.5-15.5,17.8-24.4l21.2-22.2c16.3-18.2,27.4-32.3,33.5-42.2c10.3-16.8,15.4-33.7,15.4-50.8c0-12.2-5.4-33.2-16.2-63
				c-9.5-26-18.3-46.8-26.5-62.3c-4.2,31.3-6.3,51.4-6.3,60.5c0,16.9-1.8,26.3-5.5,28.1c-5.3-1-7.9-17.7-8-50.3
				c0-60.4,5-105.7,15.1-136c18.6,32.6,33.6,67.2,44.8,103C912.7,288.1,919,324.8,919,357.7z"/>
			<path d="M1089.4,15.1c0-7-4.1-10.5-12.2-10.5c-8.1,0-16.8,5.7-26,17c-2.5,3.1-4.7,6.1-6.5,8.9c2.9,1.6,6,3.1,9.1,4.4
				c0-0.3-0.1-0.5-0.1-0.8c0-2.7,0.9-5.3,2.7-7.4l3.7-1.5c6.4,0,9.7,3.8,9.7,11.3c0,2.9-1.5,6.9-4.5,12c-7.2-5.9-11-10.4-11.6-13.7
				c-3.1-1.3-6.2-2.9-9.1-4.4c-4.9,7.7-7.3,14.6-7.3,20.7c0,4.7,3.2,10.2,9.6,16.4c-21.6,15.8-42.4,28.5-62.3,38.1
				c6.3,2,10.8,2.9,13.4,2.9c13.2,0,32.4-11.7,57.6-35.3c5.1,4.6,10.5,8.8,16.1,12.7l8.6-24.2l-7.5-7.3
				C1083.9,40.3,1089.4,27.1,1089.4,15.1z"/>
			<path d="M1525.7,609.1c-3.4,11.1-8.1,18.1-14.2,21l-85.4,42c2.6-10.1,10.3-18.3,23-24.7L1525.7,609.1z"/>
			<path d="M1542.3,252.9c0,45.9-5.8,83.8-17.3,113.8c-14,35.8-37.9,65.4-71.8,88.9l12.2-45.7c41.5-33.2,62.3-66.6,62.3-100.1
				c0-25.1-7.9-55.4-23.7-91.1c-3.1,15.9-7.7,39.8-13.8,71.5c-2.6,13.7-4.8,20.5-6.5,20.5l-2.2-0.7l-0.5-3.2
				c0-13.2,3.4-37.9,10.2-74.2c7.1-39.2,13.3-61.8,18.5-67.6c8.9,5.5,16.8,19,23.6,40.3C1539.3,223.7,1542.3,239.6,1542.3,252.9z"/>
			<path d="M1688.8,406.7l-12.4,46.8c-13,8.8-26.2,13.3-39.6,13.3c-18.4,0-31-10.3-37.8-31c-3.7-11.6-5.9-29.5-6.6-53.8l-1.8-73.7
				c-1.4-55.3-2.1-83.5-2.1-84.5c0-2.1,2-9,5.9-20.8c3.9-11.7,6.6-18.6,8.1-20.5h1.4c0.5,28.2,1.5,70.2,2.9,126.2
				c0.2,15.6,1.9,38.7,5.1,69.3c6.5,31.4,19,47.1,37.4,47.1C1662.9,425.3,1676.1,419.1,1688.8,406.7z"/>
			<path d="M1746.9,131.1c-3.4,11.1-8.1,18.1-14.2,21l-85.4,42c2.6-10.1,10.3-18.3,23-24.7L1746.9,131.1z"/>
			<path d="M1808.6,407l-12.4,46.4c-5.8,3.6-12.5,5.6-19.3,5.6c-11.6,0-20.7-5.1-27.3-15.3c-13.7,16.9-22.2,25.4-25.6,25.4
				c-3.7,0-9.3-4.3-16.6-12.9c-6.8-8-10.9-14.3-12.2-18.8c-3.7,5-10.7,11-21,18l12.2-45.4c7.5-7,18.7-17.4,33.7-31.3
				c1.6,0,9.7,6.1,24.2,18.3c14.5,12.2,26.9,18.3,37.1,18.3C1791.1,415.5,1800.6,412.6,1808.6,407z"/>
			<path d="M1829.6,40.5c-4.4-5.4-9.5-8.1-15.2-8.1c-12.7,0-24.2,6.8-34.3,20.3c-1.7,2.3-3.3,4.6-4.7,6.9c2.1,1.3,4.1,2.6,6,4
				c0.8-1.3,1.7-2.5,2.9-3.8c4-4.5,8.5-6.7,13.4-6.7c3.9,0,8.5,2.4,13.9,7c5.3,4.6,8,8.9,8,12.9c0,7.8-7.4,11.6-22.1,11.6
				c-12.8,0-19.2-3.5-19.2-10.7c0-3.6,1-7,3.1-10.4c-1.9-1.4-3.9-2.8-6-4c-6.2,10.2-9.3,20.7-9.3,31.5c0,11.7,6.7,17.6,20.1,17.6
				c12.7,0,24.1-5.4,34.2-16.4s15.1-22.7,15.1-35.4C1835.5,50.9,1833.4,45.2,1829.6,40.5z"/>
			<path d="M1882.6,252.9c0,45.9-5.8,83.8-17.3,113.8c-14,35.8-37.9,65.4-71.8,88.9l12.2-45.7c41.5-33.2,62.3-66.6,62.3-100.1
				c0-25.1-7.9-55.4-23.7-91.1c-3.1,15.9-7.7,39.8-13.8,71.5c-2.6,13.7-4.7,20.5-6.5,20.5l-2.2-0.7l-0.5-3.2
				c0-13.2,3.4-37.9,10.2-74.2c7.1-39.2,13.3-61.8,18.5-67.6c8.9,5.5,16.8,19,23.6,40.3C1879.6,223.7,1882.6,239.6,1882.6,252.9z"/>
			<path d="M1930.5,45.7c-3.4,11.1-8.1,18.1-14.2,21l-85.4,42c2.6-10.1,10.3-18.3,23-24.7L1930.5,45.7z"/>
			<path d="M183.1,380l3.2,1.2c5.4-8.3,23-17.6,52.9-28l13.7-15.4l-2.4-2.7c-14.5,6.5-26.7,9.8-36.8,9.8c-9.4,0-14.1-2.4-14.1-7.3
				c0-2.3,1.4-4.5,4.1-6.6c2.6-2,5.7-3.2,9-3.2c3.1,0,6.2,2.4,9.3,7.3l11-10.3c0.7-1.2,1-2.5,1-3.9c0-5.7-2.4-8.5-7.1-8.5
				c-7.5,0-16,3.7-25.4,11.1c-9.4,7.4-14.4,14.7-15.1,21.8c3.8,4.1,9.8,7.7,18.1,11C191.3,364.2,184.3,372.1,183.1,380z"/>
			<path d="M582.8,0l-2.9,0.2c-10.7,7.8-23,22.2-36.8,43.2c-10.4,16.6-20.8,33.2-31,49.8c-28,43.6-54.6,78.6-79.9,105
				c-30,31.4-64.7,58.3-104.3,80.6c-12.9-19.4-24.6-33.2-35.2-41.2c-13.9-10.3-30.9-15.4-51.1-15.4c-33.1,0-66.9,13.3-101.4,39.8
				c-31.9,24.6-55.6,52.9-71.1,85c-12.5,26.1-18.8,54.4-18.8,85c0,29.8,8.1,54,24.4,72.6c17.1,19.4,40.3,29.1,69.6,29.1
				c36.1,0,74.9-16.4,116.4-49.1c19.5-15.3,51.1-45.8,94.7-91.3c31.4-32.7,52.6-49.1,63.7-49.1c4.1,0,6.1,2,6.1,5.9
				c0,8.3-2.2,20.4-6.5,36.4c-4.3,15.9-6.5,28.1-6.5,36.4c0,10.6,1.6,19.9,4.9,28.1c4.4,11.1,11.1,16.6,20.1,16.6
				c8.2,0,19.8-4.9,34.8-14.7l12.5-46.5c-3.6,4.4-8.9,8.5-16.1,12.4c-7.7,4.2-14.1,6.3-19.3,6.3c-10.7,0-16.1-11.9-16.1-35.8
				c0-13.8,0.4-23.1,1.2-28c4.7-28.1,7.1-42.9,7.1-44.4c0-9.6-2.2-14.4-6.6-14.4c-16.9,0-40.5,17.2-70.6,51.7
				c-30.9,35.3-62.3,64.5-94,87.8c-43.1,31.2-81.7,46.8-115.7,46.8c-57.5,0-86.2-25.1-86.2-75.4c0-23.9,7.1-50.2,21.2-78.8
				c15.9-32.4,38.3-57.7,67.2-76s61.2-27.5,97-27.4c23.8,0,46.5,16.8,68.3,50.5c-17.7,10.1-38.4,19.5-62.1,28.1l-1.7,2.9l1.2,1
				c18,0,41.9-6.2,71.7-18.5l8.8,21.7l1.2,0.3c1.3-0.5,2-1.2,2-2.2c0-1.8-2.4-9.2-7.3-22.2c14.7-8,30.1-17.5,46.4-28.6
				c28.7-19.4,58.7-50.5,90-93.5c18.1-24.7,41.9-61.6,71.5-110.6c-2.4,9.1-3.7,18.4-3.8,27.8c0,17.1,4.9,37.2,14.7,60.3l3.9-6.6
				c-3.5-16.3-5.2-32.9-5.1-49.6c0-35.3,10.2-65.9,30.5-91.8L582.8,0z"/>
			<path d="M1567.4,0l-2.9,0.2c-10.7,7.8-23,22.2-36.9,43.2c-10.4,16.6-20.8,33.2-31,49.8c-28,43.6-54.6,78.6-79.9,105
				c-30.6,31.9-65.7,59-104.3,80.6c-12.9-19.4-24.6-33.2-35.2-41.2c-13.8-10.3-30.9-15.4-51.1-15.4c-33.1,0-66.8,13.3-101.4,39.8
				c-31.9,24.6-55.6,52.9-71.1,85c-12.5,26.1-18.8,54.4-18.8,85c0,29.8,8.1,54,24.4,72.6c17.1,19.4,40.3,29.1,69.6,29.1
				c36.1,0,75-16.4,116.5-49.1c19.5-15.3,51.1-45.8,94.7-91.3c31.4-32.7,52.6-49.1,63.7-49.1c4.1,0,6.1,2,6.1,5.9
				c0,8.3-2.2,20.4-6.5,36.4s-6.5,28.1-6.5,36.4c0,10.6,1.6,19.9,4.9,28.1c4.4,11.1,11.1,16.6,20.1,16.6c8.2,0,19.8-4.9,34.8-14.7
				l12.5-46.5c-3.6,4.4-9,8.5-16.1,12.4c-7.7,4.2-14.1,6.3-19.3,6.3c-10.7,0-16.1-11.9-16.1-35.8c0-13.8,0.4-23.1,1.2-28
				c4.7-28.1,7.1-42.9,7.1-44.4c0-9.6-2.2-14.4-6.6-14.4c-16.9,0-40.5,17.2-70.6,51.7c-30.9,35.3-62.3,64.5-94,87.8
				c-43.1,31.2-81.7,46.8-115.7,46.8c-57.5,0-86.2-25.1-86.2-75.4c0-23.9,7.1-50.2,21.2-78.8c15.9-32.4,38.3-57.7,67.2-76
				s61.2-27.5,97-27.4c23.8,0,46.5,16.8,68.3,50.5c-17.7,10.1-38.4,19.4-62.2,28.1l-1.7,2.9l1.2,1c18.1,0,42-6.2,71.7-18.5l8.8,21.7
				l1.2,0.3c1.3-0.5,2-1.2,2-2.2c0-1.8-2.4-9.2-7.3-22.2c14.7-8,30.1-17.5,46.4-28.6c28.6-19.4,58.6-50.5,90-93.5
				c18.1-24.7,41.9-61.6,71.5-110.6c-2.4,9.1-3.6,18.4-3.7,27.8c0,17.1,4.9,37.2,14.6,60.3l3.9-6.6c-3.5-16.3-5.2-32.9-5.1-49.6
				c0-35.3,10.2-65.9,30.5-91.8L1567.4,0z"/>
			<path d="M1167.8,380l3.2,1.2c5.4-8.3,23-17.6,52.9-28l13.7-15.4l-2.4-2.7c-14.5,6.5-26.7,9.8-36.8,9.8c-9.4,0-14.1-2.4-14.1-7.3
				c0-2.3,1.4-4.5,4.2-6.6c2.6-2,5.7-3.2,9-3.2c3.1,0,6.2,2.4,9.3,7.3l11-10.3c0.7-1.2,1-2.5,1-3.9c0-5.7-2.4-8.5-7.1-8.5
				c-7.5,0-16,3.7-25.4,11.1c-9.4,7.4-14.4,14.7-15.1,21.8c3.8,4.1,9.8,7.7,18.1,11C1176,364.2,1168.9,372.1,1167.8,380z"/>
			<path d="M2002.5,247.6c-11.2-35.8-26.2-70.4-44.8-103c-10.1,30.3-15.1,75.6-15.1,136c0,32.6,2.6,49.3,7.9,50.3
				c3.7-1.8,5.6-11.2,5.6-28.1c0-9.1,2.1-29.3,6.3-60.5c8.2,15.5,17,36.2,26.5,62.3c10.8,29.8,16.2,50.8,16.2,63
				c0,17.1-5.1,34-15.4,50.8c-6,9.9-17.1,24-33.4,42.2l-21.2,22.2c-8.3,9-14.2,17.1-17.8,24.4c0.1,1.2,1.1,2.1,2.3,2
				c0.1,0,0.1,0,0.2,0c1.5,0,4.9-1,10.2-2.9c38-13.8,63.3-32.1,75.8-54.9c10.5-19,15.8-50.2,15.8-93.5
				C2021.5,324.8,2015.2,288.1,2002.5,247.6z"/>
			<path d="M1934.8,126.2c0-4.9-2.9-7.3-8.8-7.3c-8.1,0-12.2-1.1-12.2-3.4c0-4.1,2.4-6.1,7.3-6.1c1.7,0,3.3,0.3,4.9,1
				c1.6-1.1,4-4.6,7-10.3c3-5.7,4.8-9.8,5.3-12.2c-1.7-0.9-3.5-1.5-5.4-1.7c-6.9,0-14.8,5.9-23.8,17.8s-13.5,21.3-13.5,28.3
				c0,6.3,3.2,9.4,9.7,9.3c5.1-0.2,7.9,0.2,8.4,1.2c-2.6,3.6-11.2,8.1-25.6,13.4l-29.8,10.3c0,2,1.1,2.9,3.2,2.9
				c13.7,0,28.6-3.8,44.9-11.5C1925.3,148.9,1934.9,138.3,1934.8,126.2z"/>
		</g>
	</g>
</g>
</svg>
