<svg xmlns="http://www.w3.org/2000/svg" viewBox="0 0 2694.41 688.48">
  <title>EH-Asset 85-layername</title>
  <g id="Layer_2" data-name="Layer 2">
    <g id="ZulDzelaliWelIkram">
      <g>
        <path d="M99.61,625.49q-5.13,16.59-14.16,21L0,688.48q3.9-15.15,23-24.66Z"/>
        <path d="M316.65,106.93Q308.59,165,251.28,220.21q-51.22,43.71-102.69,87.65Q45.64,403.58,45.65,474.12q0,44.92,69.26,71,52.92,20,106.33,20a385.3,385.3,0,0,0,41-2.2l-3.67,3.9q-32.22,8.31-43.45,8.31-72.51,0-118.65-20.51-64-28.08-64-91.07,0-82.51,97.42-176.27,35.38-33.93,105-87.4c-1-1.46-1.46-4.39-1.46-8.79q0-3.9,8.78-32.47,23.67,0,40-12.94,10-7.56,21-24.17Q312.25,107.66,316.65,106.93Z"/>
        <path d="M416.26,325.2q0,64.94-15.64,93.5-18.78,34.19-75.91,54.93-8.06,2.94-10.26,2.93a2.12,2.12,0,0,1-2.44-1.95q5.37-11,17.82-24.41L351.07,428q24.42-27.35,33.45-42.24Q399.91,360.6,399.9,335q0-18.31-16.2-63-14.25-39.06-26.52-62.25-6.27,46.88-6.27,60.54,0,25.39-5.55,28.08-8-1.47-8-50.29,0-90.59,15.09-136a524.76,524.76,0,0,1,44.78,103Q416.26,275.89,416.26,325.2Z"/>
        <path d="M475.59,159.67q-5.13,16.61-14.16,21l-85.45,42q3.9-15.14,22.95-24.66Z"/>
        <path d="M574,374l-12.69,47.12Q531,438.72,519,446.78q-28.56,19-34.91,31.49-19.53,42.24-39.06,84.23-28.32,53.7-59.08,64-23.44,8-51.52,8-56.4,0-72.51-9.51l-.73-1.23,1.95-2.2a162.8,162.8,0,0,0,32,2.93q44.93,0,85-28.81,35.39-25.87,59.81-68.36,1.71-3.17,23.19-45.89,13.92-27.84,27-43.58t41.38-33.33Q563,385,574,374Z"/>
        <path d="M600.34,24.41q0,19-15.07,35.4T551.1,76.17Q531,76.17,531,58.59q0-19.77,14-38.33Q560.17,0,579.27,0q8.58,0,15.19,8.06A26.1,26.1,0,0,1,600.34,24.41ZM584.47,40.59q0-6-8-12.9t-13.88-6.94q-7.36,0-13.38,6.7t-6,14.13q0,10.67,19.16,10.67Q584.47,52.25,584.47,40.59Z"/>
        <path d="M691.89,613.28q-5.11,16.61-14.16,21l-85.44,42q3.9-15.13,22.94-24.66Z"/>
        <path d="M870.12,36.62q0,19.05-15.07,35.4T820.87,88.38q-20.08,0-20.09-17.58,0-19.77,14-38.33,15.18-20.26,34.3-20.26,8.57,0,15.19,8.05A26.15,26.15,0,0,1,870.12,36.62ZM854.25,52.8q0-6-8-12.9T832.39,33Q825,33,819,39.65t-6,14.14q0,10.67,19.16,10.66Q854.25,64.45,854.25,52.8Z"/>
        <path d="M1025.39,325.2q0,64.94-15.64,93.5Q991,452.89,933.84,473.63q-8.05,2.94-10.26,2.93a2.12,2.12,0,0,1-2.44-1.95q5.37-11,17.82-24.41L960.2,428q24.42-27.35,33.45-42.24Q1009,360.6,1009,335q0-18.31-16.2-63-14.25-39.06-26.52-62.25Q960,256.6,960,270.26q0,25.39-5.55,28.08-8-1.47-8-50.29,0-90.59,15.09-136a524.76,524.76,0,0,1,44.78,103Q1025.39,275.89,1025.39,325.2Z"/>
        <path d="M1190.71,159.67q-5.13,16.61-14.16,21l-85.45,42q3.9-15.14,23-24.66Z"/>
        <path d="M1299.11,314.7q0,50.3-40.53,112.79-41.74,63.72-86.67,78.86-32.48,11-93.75,11-17.82,0-17.82-4.63,0-2.21,19.29-7.08,28.56-7.08,42.72-12,43.71-15.13,82.64-46.26t61.89-70.19q15.87-26.86,15.87-44.44,0-4.87-3.66-15.38-13.68,15.15-31.74,15.14a24.08,24.08,0,0,1-14.65-4.88,15.13,15.13,0,0,1-6.59-12.7q0-16.35,19.29-51.27,5.86-10.74,17.09-10.74Q1299.11,252.93,1299.11,314.7Z"/>
        <path d="M1457.84,601.07q-5.13,16.6-14.16,21l-85.45,42q3.9-15.13,23-24.66Z"/>
        <path d="M1778.88,135l-1,2.93q-68.12,35.66-136.72,63.48a417.23,417.23,0,0,1,9.28,85.2q0,78.13-49.61,157.72-26.4,42.24-48.14,61-31,26.61-70.87,26.61-46.18,0-68.43-39.79-17.34-31.24-17.35-81.55,0-34.65,22.22-72.26a215.05,215.05,0,0,1,51.27-59.33q35.88-29,108.89-61.52,0-6.1-.25-26.61-.5-18.79-.49-31.74a288.32,288.32,0,0,1,13.67-87.4q30.52,51.51,48.1,120.85,55.9-20.76,137.21-59.33ZM1632.4,297.12q0-38.33-12.21-87.65l-30.51,12.45q-1.74,9.29-4.21,71.29-2,51.53-8.9,63l-2.72,1.22-2.72-1.71q4.38-25.38,5.61-64.21,1-32.22,1.71-64.45-52.92,23.92-100.93,63.23-69,56.64-69,121.59,0,32.72,19,54.68,20.23,22.95,52.43,22.95,60.72,0,106.57-59.08T1632.4,297.12Zm-14.65-96.44q-7.32-23.93-10.5-32.22a186.81,186.81,0,0,0-13.91-30.52q-3.42,4.16-3.42,74.71Z"/>
        <path d="M1880,25.39q-5.13,16.61-14.16,21l-85.45,42q3.9-15.13,23-24.66Z"/>
        <path d="M1912.43,373.78,1900,420q-15.15,12.87-30.76,12.87-23.21,0-34.42-39.08Q1818,456.15,1804.56,484q-27.81,58-65.86,58-29,0-49.52-28-46.86,45.64-139.64,45.65l-2-.24-.25-1.22q0-2.94,9.77-5.13l12.69-2.44q65.19-15.87,108.89-57.94-6.74-21.24-6.74-37.6,0-41.5,2.44-55.18,4.89-28.06,24.9-79.83,18.81-48.82,34.18-76.91,16.86,76.91,16.85,103.28,0,33.19-3.4,46.63Q1730.42,458.5,1710,489q14.14,11,33.2,11,42.48,0,75.68-95.95,7.08-20.51,7.08-63.72,0-23.43-5.14-72.51-5.88-56.64-12-65.92l16.52-40.28q4.61,4.15,12.14,58.59,2.67,18.81,7,56.16.72,34.19,1.45,68.11,5.63,45.42,35.65,45.41Q1894.86,389.89,1912.43,373.78ZM1735.18,387.6q0-18.06-3.66-43.21-4.63-31-11.72-39.31-36.87,80.82-36.86,120.12,0,28.8,12.69,48.83Q1735.19,428.61,1735.18,387.6Z"/>
        <path d="M1969.07,159.67q-5.13,16.61-14.16,21l-85.45,42q3.9-15.14,23-24.66Z"/>
        <path d="M2144.61,24.41q0,19-15.07,35.4t-34.18,16.36q-20.09,0-20.09-17.58,0-19.77,14-38.33Q2104.42,0,2123.54,0q8.57,0,15.19,8.06A26.1,26.1,0,0,1,2144.61,24.41Zm-15.87,16.18q0-6-8-12.9t-13.87-6.94q-7.37,0-13.39,6.7t-6,14.13q0,10.67,19.16,10.67Q2128.73,52.25,2128.74,40.59Z"/>
        <path d="M2191.73,220.46q0,68.85-17.34,113.77-21,53.72-71.77,88.87l12.2-45.66q62.26-49.8,62.26-100.1,0-37.59-23.68-91.06-4.59,23.92-13.77,71.53-3.87,20.51-6.52,20.51l-2.18-.73-.48-3.18q0-19.77,10.21-74.21,10.7-58.84,18.48-67.63,13.38,8.3,23.59,40.28Q2191.71,200.45,2191.73,220.46Z"/>
        <path d="M2330.64,325.2q0,64.94-15.63,93.5-18.8,34.19-75.92,54.93-8.06,2.94-10.25,2.93c-1.47,0-2.29-.65-2.45-1.95q5.37-11,17.83-24.41L2265.46,428q24.4-27.35,33.44-42.24,15.39-25.14,15.39-50.78,0-18.31-16.21-63-14.25-39.06-26.52-62.25-6.27,46.88-6.27,60.54,0,25.39-5.55,28.08-7.95-1.47-7.95-50.29,0-90.59,15.09-136a525.35,525.35,0,0,1,44.78,103Q2330.64,275.89,2330.64,325.2Z"/>
        <path d="M2498.37,314.7q0,50.3-40.53,112.79-41.74,63.72-86.67,78.86-32.48,11-93.75,11-17.82,0-17.82-4.63,0-2.21,19.28-7.08,28.57-7.08,42.73-12,43.69-15.13,82.64-46.26t61.89-70.19Q2482,350.34,2482,332.76q0-4.87-3.66-15.38-13.68,15.15-31.74,15.14a24.08,24.08,0,0,1-14.65-4.88,15.13,15.13,0,0,1-6.59-12.7q0-16.35,19.29-51.27,5.85-10.74,17.09-10.74Q2498.36,252.93,2498.37,314.7Z"/>
        <path d="M2556.23,68.11q0,18-16.4,39.52l7.48,7.31-8.55,24.16a170.85,170.85,0,0,1-16.12-12.74q-37.84,35.27-57.62,35.26-3.92,0-13.43-2.93,29.79-14.4,62.26-38.08-9.63-9.28-9.62-16.36,0-12.69,13.85-29.67t26-17Q2556.23,57.62,2556.23,68.11ZM2536.7,89.63q0-11.25-9.67-11.26l-3.72,1.47a10.94,10.94,0,0,0-2.73,7.34q0,4.91,11.65,14.45Q2536.7,94,2536.7,89.63Z"/>
        <path d="M580.32,253.17q-11.24,30.53-11.23,40.53,0,3.66.49,9.77l1.22,1q5.61-2.93,10-17.82,5.37-17.58,8.06-21.24,15.61,20.26,15.62,54.69,0,16.85-10.74,32-6.11,9-23.19,25.39L558.35,423.1q43-32.72,53.84-81.3,8.16-36.87,8.17-49.08,0-18.3-4.33-43.21-5.28-31-13.25-38.33a271.62,271.62,0,0,0,68.36-37.11q13.18-10,58.84-50.78-5.37,7.08-17.82,45.66-5.13,16.11-14.89,48.58L700,217l3.66-3.91Q728,150.64,729,148.44,750.74,105.23,762.21,84q8.53-15.37,12.94-23.43a13.89,13.89,0,0,0,.73-2.69c0-1.46-1-2.2-2.93-2.2l-3.42,1.22q-31.24,44.45-78.37,85-51,44.19-96.43,61.76-22.47,8.79-53.47,18.31l-1.71,2.93,1.47,1.71q25.63-3.17,57.12-13.91Q591.06,224.37,580.32,253.17Z"/>
        <path d="M824.31,151.86q-27.93,85.44-27.92,183.59c0,2.28.81,3.42,2.44,3.42q3.66,0,6.1-16.12,1.22-10.74,2.44-21.24,3.9-28.06,16.36-82.52,23.68,25.89,23.68,73.49A206.88,206.88,0,0,1,843,334q-6.84,33.94-31.25,75.2-29.29,50.06-55.42,50.05-18.32,0-33.45-26.61,49.32-85,49.32-180.42,0-21.24-11.48-99.37l-3.9-2.93-2.2,2q-1,10.74-12.65,36.37l-17.51,37.11Q688,307.87,688,372.07q0,36.62,2.93,53.22-66.17,69.82-142.09,96.44l-4.15,4.39v1.22l2.2,1q14.16,0,45.41-8.3,71-18.79,110.12-60.06,12.71,25,23.47,35.72,16.14,16,38.63,16,24.69,0,56.23-66.61,24.69-51.72,33.73-92.22,12.48-55.63,12.47-79.3,0-62.94-33.07-136.63Q829.21,137,824.31,151.86Zm-120.94,209q0-45.16,41-130.62,11,27.36,11,50.3,0,63-44.92,121.09A128.79,128.79,0,0,1,703.37,360.84Z"/>
        <path d="M667.48,565.92a11.88,11.88,0,0,1,4.88,1q2.45-1.7,7-10.27t5.25-12.21a15.25,15.25,0,0,0-5.4-1.69q-10.32,0-23.82,17.83t-13.5,28.32q0,9.51,9.65,9.27,7.66-.24,8.41,1.23-3.92,5.36-25.64,13.42l-29.78,10.26q0,2.93,3.17,2.93,20.51,0,44.92-11.48,28.57-13.68,28.57-31.74,0-7.32-8.79-7.32-12.21,0-12.2-3.42Q660.16,565.92,667.48,565.92Z"/>
        <path d="M1939.1,496.34q-20.31,30.53-22.52,34.42,10.77,8.29,21.79,15.38,15.18-19.29,22.77-33.2Q1961.14,504.15,1939.1,496.34Z"/>
        <path d="M2018.36,385.74q-13.92-11.48-13.92-30.28a112.59,112.59,0,0,1,1.74-19.78q26.11-23.21,75.44-33.21,11.22-15.87,15.62-39.32a76.7,76.7,0,0,1-32.22,6.79q-11,0-31.86-6.18t-31.63-6.19q-41.13,0-61.21,37.07-10.27,19-22,73.42l-9,8.54-12.46,45.86q11.73-8.74,17.58-13.35l-2,30.27V469.9l1.22,1.22,1.22-.73,2.2-4.15q-1-26.37,6.59-64.95,37-32.25,69.34-56.94-4.39,19.51-4.38,31.95,0,26.08,15.32,44.13,16.13,19,42,19,29.79,0,59.82-18.5l12.45-46.49q-28.08,22-67.87,22Q2031.29,396.48,2018.36,385.74Zm-50-57.29q-10.75,7.83-39.55,31.57,9.75-62.65,54.44-62.66,7.82,0,28.32,4.9Q1991.29,311.56,1968.34,328.45Z"/>
        <path d="M2685.62,276.61Q2675.86,262,2661.7,262q-18.32,0-56.89,18.31-39.3,18.78-47.36,32.46-4.39,7.32-11.72,27.33-7.82,21-7.81,26.36,0,14.88,20.26,40.63t20.27,35.51l-1.71,14.4,2.23,2q5.45,0,9.92-14.42,3.72-12,3.72-19.31,0-26.4-8.37-45.21A71.86,71.86,0,0,0,2569,358q-8.37-8.31-8.37-9.53,0-12.22,35.65-28.36,32.46-14.65,46.63-14.66,12,0,22.46,11t10.5,23q0,17.36-31,59.4-49.8,67.69-120.12,100.69-36.61,17.12-70.31,20.29-12.69,1.23-18.06,2.2l1,1.71q3.66,1.23,17.58,1.22,25.14,0,61-4.39,43-5.13,57.12-12.7,52.74-27.82,87.16-91.55,34.18-62.49,34.18-112.06A48.23,48.23,0,0,0,2685.62,276.61Z"/>
        <path d="M2652.24,167.26q0-4.39-9.25-10a101.64,101.64,0,0,0-13.14-6.35q-20.2,30.28-22.15,34.43l21.66,14.89Q2639.59,192.17,2652.24,167.26Z"/>
      </g>
    </g>
  </g>
</svg>
