<svg xmlns="http://www.w3.org/2000/svg" viewBox="0 0 964.74 664.06">
  <title>EH-Asset 87-layername</title>
  <g id="Layer_2" data-name="Layer 2">
    <g id="ElDzamiu">
      <g>
        <path d="M104.64,68.11q0,18-16.4,39.52l7.47,7.31L87.17,139.1a169.58,169.58,0,0,1-16.12-12.74q-37.84,35.27-57.62,35.26-3.91,0-13.43-2.93,29.79-14.4,62.26-38.08-9.63-9.28-9.62-16.36,0-12.69,13.85-29.67t26-17Q104.64,57.62,104.64,68.11ZM85.11,89.63q0-11.25-9.67-11.26l-3.72,1.47A10.94,10.94,0,0,0,69,87.18q0,4.91,11.65,14.45Q85.11,94,85.11,89.63Z"/>
        <path d="M266.41,373.85,254,420.36q-31.5,19.09-51.52,19.09-24.67,0-36.64-31.43L89.56,465.24Q28.21,511.44,28.22,519q0,10.28,33.69,10.27,44.93,0,106.45-24.42,57.85-23.19,95.95-53.46h1.22q-2.94,15.16-60.55,56.75-31.74,23-77.39,41.84-51,21-84,21-41,0-41-18.57,0-36.66,65.18-92.61,26.13-22.25,93.75-69.16-.74-11.47-2.2-15.64-2.94-8.79-11.5-9.53-11-1-11-3.18,0-5.61,6.09-20.64t10.23-20.17q3.41-4.4,23.63-8.06,17.05-2.93,26.8-2.93,24.6,0,24.6,15.09,0,21.42-40.13,61.11,7.82,11,34.67,11Q235.9,397.71,266.41,373.85Z"/>
        <path d="M322.9,601.07q-5.13,16.6-14.16,21l-85.45,42q3.9-15.13,23-24.66Z"/>
        <path d="M371,310.55q-2.19,12.45-16.6,36.37-14.4-2.69-21.24-2.68-21,0-44.19,33-28.08,39.54-38.33,45.41l12.45-45.9q7.82-6.34,18.32-22.58t17.33-22.34v-1.71l-4.4-4.64q5.13-18.79,18.56-37.84,8.79,6.34,29.17,11.72T371,310.55Z"/>
        <path d="M545.07,374.27l-12.45,46.8q-19.54,13.26-39.56,13.26-27.58,0-37.84-30.95-5.61-17.4-6.59-53.77l-1.84-73.73q-2.07-83-2.06-84.47,0-3.18,5.88-20.76t8.05-20.5h1.45q.72,42.24,2.93,126.22.24,23.43,5.12,69.33,9.76,47.13,37.36,47.12Q526,392.82,545.07,374.27Z"/>
        <path d="M603.17,159.67q-5.13,16.61-14.16,21l-85.45,42q3.9-15.14,22.95-24.66Z"/>
        <path d="M778.71,24.41q0,19-15.07,35.4T729.47,76.17q-20.1,0-20.1-17.58,0-19.77,14-38.33Q738.52,0,757.64,0q8.58,0,15.19,8.06A26.1,26.1,0,0,1,778.71,24.41ZM762.84,40.59q0-6-8-12.9T741,20.75q-7.37,0-13.38,6.7t-6,14.13q0,10.67,19.16,10.67Q762.84,52.25,762.84,40.59Z"/>
        <path d="M825.83,220.46q0,68.85-17.34,113.77-21,53.72-71.77,88.87l12.2-45.66q62.26-49.8,62.26-100.1,0-37.59-23.68-91.06-4.59,23.92-13.77,71.53-3.87,20.51-6.52,20.51l-2.18-.73-.48-3.18q0-19.77,10.21-74.21,10.69-58.84,18.48-67.63,13.38,8.3,23.59,40.28Q825.83,200.45,825.83,220.46Z"/>
        <path d="M873.68,13.18q-5.13,16.61-14.16,21l-85.45,42Q778,61,797,51.51Z"/>
        <path d="M652.46,385.74q-13.92-11.48-13.92-30.28a112.59,112.59,0,0,1,1.74-19.78q26.13-23.21,75.44-33.21Q727,286.6,731.35,263.15a76.74,76.74,0,0,1-32.23,6.79q-11,0-31.86-6.18t-31.63-6.19q-41.13,0-61.21,37.07-10.27,19-22,73.42l-9,8.54-12.45,45.86q11.72-8.74,17.57-13.35l-2,30.27V469.9l1.22,1.22,1.22-.73,2.2-4.15q-1-26.37,6.59-64.95,37-32.25,69.34-56.94-4.38,19.51-4.38,31.95,0,26.08,15.33,44.13,16.11,19,42,19,29.78,0,59.81-18.5l12.45-46.49q-28.08,22-67.87,22Q665.41,396.48,652.46,385.74Zm-50-57.29Q591.7,336.28,562.89,360q9.76-62.65,54.44-62.66,7.81,0,28.32,4.9Q625.39,311.56,602.44,328.45Z"/>
        <path d="M573.2,496.34q-20.31,30.53-22.52,34.42,10.77,8.29,21.79,15.38,15.18-19.29,22.77-33.2Q595.24,504.15,573.2,496.34Z"/>
        <path d="M878.07,93.75q0-7.32-8.78-7.32-12.21,0-12.21-3.42,0-6.11,7.32-6.11a12,12,0,0,1,4.89,1q2.43-1.69,7-10.28t5.25-12.2a15.14,15.14,0,0,0-5.4-1.69q-10.32,0-23.82,17.82t-13.5,28.32q0,9.53,9.65,9.28,7.67-.24,8.41,1.22-3.9,5.37-25.63,13.43L801.41,134c0,2,1.06,2.93,3.17,2.93q20.52,0,44.93-11.47Q878.07,111.82,878.07,93.75Z"/>
        <path d="M945.76,215.09a525.35,525.35,0,0,0-44.78-103q-15.09,45.41-15.09,136,0,48.82,8,50.29,5.55-2.68,5.55-28.08,0-13.67,6.27-60.54,12.29,23.19,26.52,62.25,16.22,44.68,16.21,63,0,25.64-15.38,50.78-9,14.89-33.45,42.24L878.32,450.2q-12.45,13.43-17.82,24.41a2.11,2.11,0,0,0,2.43,1.95q2.19,0,10.23-2.93,57-20.75,75.75-54.93,15.84-28.56,15.83-93.5Q964.74,275.88,945.76,215.09Z"/>
      </g>
    </g>
  </g>
</svg>
