<svg xmlns="http://www.w3.org/2000/svg" viewBox="0 0 631.84 699.46">
  <title>EH-Asset 88-layername</title>
  <g id="Layer_2" data-name="Layer 2">
    <g id="ElGanijj">
      <g>
        <path d="M233.89,374l-12.7,46.63q-20.5,12.71-41,25.64-37.37,24.9-37.36,33,0,14.89,30,26.12,21,7.58,21,21,0,51-42.83,109.86-45.78,63.22-94.73,63.23Q0,699.46,0,627a200.39,200.39,0,0,1,16.63-79.59q11.75-27.58,39.14-67.14Q93.2,425.79,101,412.6q14.43-24.42,31.55-81.55l3.9,1.71q-2.68,31.5-27.34,84.72-9.76,21-37.11,59.81-29.79,41.76-40,61.53-18.8,35.64-18.8,66.4,0,25.88,16.85,40.29,15.87,13.43,42.24,13.43,24.17,0,66-39.92t41.87-61.4q0-5.86-13.19-10-18.3-5.62-24.17-9.77-13.19-9-13.18-27.34,0-61.77,28.32-84.23Q183.6,408.69,233.89,374Z"/>
        <path d="M285.4,576.66q-5.13,16.61-14.16,21l-85.45,42q3.9-15.15,23-24.66Z"/>
        <path d="M277.59,392.09q-17.82,9.29-29.54,9.28-10,0-14.16-2.69,19-26.12,19-43.94a42.43,42.43,0,0,0-.73-8.3q-13.68,15.62-26.86,30.76l-12.21,45.32,6.6-5.17q9.75,18,30.76,17.95,19.77,0,40.28-15l12.45-46.52Q293.45,383.55,277.59,392.09Z"/>
        <path d="M267.82,242.68q-1.95-6.6-9-10.75-6.6-3.17-13.18-6.1-18.31,26.61-22.47,34.67l21.73,15.13Q254.4,269.28,267.82,242.68Z"/>
        <path d="M360.35,13.18q-5.13,16.61-14.16,21l-85.45,42q3.9-15.14,22.95-24.66Z"/>
        <path d="M445.8,24.41q0,19-15.07,35.4T396.56,76.17q-20.1,0-20.1-17.58,0-19.77,14-38.33Q405.61,0,424.73,0q8.58,0,15.19,8.06A26.1,26.1,0,0,1,445.8,24.41ZM429.93,40.59q0-6-8-12.9t-13.88-6.94q-7.36,0-13.38,6.7t-6,14.13q0,10.67,19.16,10.67Q429.93,52.25,429.93,40.59Z"/>
        <path d="M492.92,220.46q0,68.85-17.33,113.77-21,53.72-71.78,88.87L416,377.44q62.25-49.8,62.25-100.1,0-37.59-23.68-91.06-4.59,23.92-13.77,71.53-3.87,20.51-6.52,20.51l-2.17-.73-.49-3.18q0-19.77,10.21-74.21,10.71-58.84,18.48-67.63,13.38,8.3,23.59,40.28Q492.92,200.45,492.92,220.46Z"/>
        <path d="M540.77,13.18q-5.13,16.61-14.16,21l-85.45,42q3.9-15.14,22.95-24.66Z"/>
        <path d="M117.82,88.77q-4-5.28-9.64-5.27-12.47,0-25.41,12.12T69.82,120l1,5.88a59.66,59.66,0,0,0,6.43,8.33q-29.08,17.15-57.43,24,8.31,4.89,14.43,4.89,15.66,0,51.88-23.93,15.64,6.84,25,7.08,3.92-12.5,3.67-15.69l-.25-3.67-7.3-5.39Q121.85,106,121.85,99.92A18,18,0,0,0,117.82,88.77ZM99.45,116.7q-10.59-8.3-10.58-13.43,0-9,8.17-9,7.69,2.92,7.7,8.79Q104.74,108.64,99.45,116.7Z"/>
        <path d="M74,183.45q-9.51,0-9-11.4l.25-4.84-6.35,1.45q-18.08,28.85-29.3,28.85-7.82,0-7.81-9l1.71-10.91-5.06.49q-12,16.4-12,29.37l1.7,8.56q5.12,6.62,12.18,6.61,19,0,30.44-19.66,5.85,6.23,9.74,6.23,32.4,0,46-52.49l-6.11,1.46Q87.39,183.45,74,183.45Z"/>
        <path d="M356.69,231.45q0-4.63-6.08-7.82-3.41-4.4-16.05-8.54-19.95,29.53-22.37,34.42,14.34,10.26,21.88,14.89Q343.56,254.89,356.69,231.45Z"/>
        <path d="M350.34,367.26q24.18-26.28,24.17-40.4,0-15.58-28.56-15.58-40.79,0-49.56,9.48a136.48,136.48,0,0,0-7.82,16q-8.29,21.63-8.3,28.43,3.69-1.46,15.71-1.46a17,17,0,0,1,12.28,5.39l-8.1,8.32-12.28,45.31q14-9.57,37.07-34.12,12.33,45.18,42.48,45.17,19.05,0,40.28-13.73l12.7-47.31q-22.71,20-42.24,20Q356.93,392.82,350.34,367.26Z"/>
        <path d="M612.85,215.09a525.35,525.35,0,0,0-44.78-103Q553,157.47,553,248.05q0,48.82,8,50.29,5.53-2.68,5.54-28.08,0-13.67,6.27-60.54Q585,232.91,599.27,272q16.22,44.68,16.21,63,0,25.64-15.38,50.78-9,14.89-33.45,42.24L545.41,450.2Q533,463.63,527.59,474.61c.16,1.3,1,1.95,2.44,1.95s4.86-1,10.22-2.93q57-20.75,75.75-54.93,15.84-28.56,15.84-93.5Q631.84,275.88,612.85,215.09Z"/>
        <path d="M545.17,93.75q0-7.32-8.79-7.32-12.21,0-12.21-3.42,0-6.11,7.32-6.11a12,12,0,0,1,4.89,1q2.43-1.69,7-10.28c3-5.71,4.77-9.78,5.25-12.2a15.14,15.14,0,0,0-5.4-1.69q-10.32,0-23.82,17.82t-13.5,28.32q0,9.53,9.65,9.28c5.11-.16,7.92.25,8.41,1.22q-3.9,5.37-25.63,13.43L468.5,134c0,2,1.06,2.93,3.18,2.93q20.51,0,44.92-11.47Q545.16,111.82,545.17,93.75Z"/>
      </g>
    </g>
  </g>
</svg>
