<svg xmlns="http://www.w3.org/2000/svg" viewBox="0 0 750.98 699.46">
  <title>EH-Asset 90-layername</title>
  <g id="Layer_2" data-name="Layer 2">
    <g id="ElMugni">
      <g>
        <path d="M233.89,374l-12.7,46.63q-20.5,12.71-41,25.64-37.37,24.9-37.36,33,0,14.89,30,26.12,21,7.58,21,21,0,51-42.83,109.86-45.78,63.22-94.73,63.23Q0,699.46,0,627a200.39,200.39,0,0,1,16.63-79.59q11.75-27.58,39.14-67.14Q93.2,425.79,101,412.6q14.43-24.42,31.55-81.55l3.9,1.71q-2.68,31.5-27.34,84.72-9.76,21-37.11,59.81-29.79,41.76-40,61.53-18.8,35.64-18.8,66.4,0,25.88,16.85,40.29,15.87,13.43,42.24,13.43,24.17,0,66-39.92t41.87-61.4q0-5.86-13.19-10-18.3-5.62-24.17-9.77-13.19-9-13.18-27.34,0-61.77,28.32-84.23Q183.6,408.69,233.89,374Z"/>
        <path d="M285.4,576.66q-5.13,16.61-14.16,21l-85.45,42q3.9-15.15,23-24.66Z"/>
        <path d="M267.82,242.68q-1.95-6.6-9-10.75-6.6-3.17-13.18-6.1-18.31,26.61-22.47,34.67l21.73,15.13Q254.4,269.28,267.82,242.68Z"/>
        <path d="M277.59,392.09q-17.82,9.29-29.54,9.28-10,0-14.16-2.69,19-26.12,19-43.94a42.43,42.43,0,0,0-.73-8.3q-13.68,15.62-26.86,30.76l-12.21,45.32,6.6-5.17q9.75,18,30.76,17.95,19.77,0,40.28-15l12.45-46.52Q293.45,383.55,277.59,392.09Z"/>
        <path d="M329.83,24.41q0,19-15.06,35.4T280.59,76.17q-20.1,0-20.09-17.58,0-19.77,14-38.33Q289.65,0,308.77,0,317.34,0,324,8.06A26.15,26.15,0,0,1,329.83,24.41ZM314,40.59q0-6-8-12.9t-13.87-6.94q-7.38,0-13.39,6.7t-6,14.13q0,10.67,19.15,10.67Q314,52.25,314,40.59Z"/>
        <path d="M481.45,68.11q0,18-16.4,39.52l7.47,7.31L464,139.1a169.51,169.51,0,0,1-16.11-12.74Q410,161.63,390.24,161.62q-3.92,0-13.43-2.93,29.78-14.4,62.25-38.08-9.62-9.28-9.62-16.36,0-12.69,13.85-29.67t26-17Q481.43,57.62,481.45,68.11ZM461.91,89.63q0-11.25-9.66-11.26l-3.72,1.47a10.94,10.94,0,0,0-2.73,7.34q0,4.91,11.65,14.45Q461.92,94,461.91,89.63Z"/>
        <path d="M538.09,374.51l-12.46,46.42a36.06,36.06,0,0,1-19.28,5.58q-17.34,0-27.35-15.29-20.5,25.39-25.63,25.39-5.62,0-16.6-12.94-10.26-12-12.21-18.76-5.62,7.53-21,18l12.21-45.43Q427,367,449.46,346.19q2.44,0,24.17,18.31t37.11,18.31A46.77,46.77,0,0,0,538.09,374.51Z"/>
        <path d="M564.94,24.41q0,19-15.07,35.4T515.7,76.17q-20.1,0-20.09-17.58,0-19.77,14-38.33Q524.77,0,543.87,0q8.58,0,15.19,8.06A26.1,26.1,0,0,1,564.94,24.41ZM549.07,40.59q0-6-8-12.9t-13.88-6.94q-7.37,0-13.38,6.7t-6,14.13q0,10.67,19.16,10.67Q549.07,52.25,549.07,40.59Z"/>
        <path d="M612.06,220.46q0,68.85-17.33,113.77-21,53.72-71.78,88.87l12.21-45.66q62.25-49.8,62.25-100.1,0-37.59-23.68-91.06-4.59,23.92-13.77,71.53-3.87,20.51-6.52,20.51l-2.17-.73-.49-3.18q0-19.77,10.21-74.21,10.71-58.84,18.49-67.63,13.37,8.3,23.58,40.28Q612.06,200.45,612.06,220.46Z"/>
        <path d="M659.91,13.18q-5.13,16.61-14.16,21l-85.45,42q3.9-15.14,23-24.66Z"/>
        <path d="M350.34,367.26q24.18-26.28,24.17-40.4,0-15.58-28.56-15.58-40.79,0-49.56,9.48a136.48,136.48,0,0,0-7.82,16q-8.29,21.63-8.3,28.43,3.69-1.46,15.71-1.46a17,17,0,0,1,12.28,5.39l-8.1,8.32-12.28,45.31q14-9.57,37.07-34.12,12.33,45.18,42.48,45.17,19.05,0,40.28-13.73l12.7-47.31q-22.71,20-42.24,20Q356.93,392.82,350.34,367.26Z"/>
        <path d="M356.69,231.45q0-4.63-6.08-7.82-3.41-4.4-16.05-8.54-19.95,29.53-22.37,34.42,14.34,10.26,21.88,14.89Q343.56,254.89,356.69,231.45Z"/>
        <path d="M664.31,93.75q0-7.32-8.79-7.32-12.21,0-12.21-3.42,0-6.11,7.32-6.11a12,12,0,0,1,4.89,1q2.43-1.69,7-10.28t5.24-12.2a15.14,15.14,0,0,0-5.4-1.69q-10.3,0-23.82,17.82T625,99.85q0,9.53,9.65,9.28c5.11-.16,7.92.25,8.41,1.22q-3.9,5.37-25.63,13.43L587.64,134c0,2,1.06,2.93,3.18,2.93q20.5,0,44.92-11.47Q664.3,111.82,664.31,93.75Z"/>
        <path d="M732,215.09a525.35,525.35,0,0,0-44.78-103q-15.09,45.41-15.09,136,0,48.82,8,50.29,5.53-2.68,5.54-28.08,0-13.67,6.27-60.54,12.29,23.19,26.52,62.25,16.22,44.68,16.21,63,0,25.64-15.38,50.78-9,14.89-33.45,42.24L664.55,450.2q-12.45,13.43-17.82,24.41c.16,1.3,1,1.95,2.44,1.95s4.86-1,10.22-2.93q57-20.75,75.76-54.93Q751,390.14,751,325.2,751,275.88,732,215.09Z"/>
      </g>
    </g>
  </g>
</svg>
