<svg xmlns="http://www.w3.org/2000/svg" viewBox="0 0 863.04 553.71">
  <title>EH-Asset 16-layername</title>
  <g id="Layer_2" data-name="Layer 2">
    <g id="ElKahar">
      <g>
        <path d="M146.24,129.14q0,18.06-16.4,39.52l7.48,7.32-8.55,24.15a172.3,172.3,0,0,1-16.12-12.73Q74.81,222.65,55,222.66q-3.9,0-13.43-2.93,29.79-14.4,62.26-38.09-9.63-9.27-9.62-16.36,0-12.69,13.85-29.66t26-17Q146.24,118.65,146.24,129.14Zm-19.53,21.53q0-11.26-9.67-11.27l-3.72,1.47a11,11,0,0,0-2.72,7.35q0,4.91,11.65,14.45Q126.71,155.08,126.71,150.67Z"/>
        <path d="M268.55,297.51q0,26.24-8.05,27.69l-6.59-8.06q-6.84.24-11.23,8.07-12,20.78-25.39,54.26-11,28.11-22,56-9.27,22-28.56,43.51-20.5,23-40.77,32-23,10.51-63.24,10.51Q2,521.48,0,515.19l2.44-1.76q51.27,0,95.22-21.95,45.65-22.92,73.24-64.63,14.88-22.68,32-60.24l22.46-50.24q19-37.8,29.54-37.81,5.87,0,10,6.81A22.49,22.49,0,0,1,268.55,297.51Z"/>
        <path d="M424.32,374.27l-12.45,46.8q-19.55,13.26-39.56,13.26-27.58,0-37.84-30.95-5.61-17.38-6.59-53.77L326,275.88q-2.07-83-2.07-84.47,0-3.18,5.89-20.76t8.05-20.5h1.45q.72,42.24,2.93,126.22.24,23.43,5.12,69.33,9.76,47.13,37.36,47.12Q405.28,392.82,424.32,374.27Z"/>
        <path d="M488.77,65.19,419.19,89.6q-16.37,5.63-27.1,22.46l79.83-28.32Q481.69,80.32,488.77,65.19Z"/>
        <path d="M451.17,120.85q-9.29,0-9.28-17.82L436,104.49Q417.47,137,406,137q-8.55,0-8.55-11.47l.73-7.57-8.54,4.64q-6.84,18.6-6.84,25.25,0,13.81,14.2,13.81,16.39,0,31.08-21.15,8.81,6.25,14.44,6.26,17.63,0,29.12-21.24,8.57-15.63,11-36.62l-7.57,2.19Q465.33,120.85,451.17,120.85Z"/>
        <path d="M521.73,374l-12.45,46.39q-6.11,4.15-22,13.18a124.36,124.36,0,0,0-44.43,43.22q-17.08,27.82-17.09,59.32a108.31,108.31,0,0,1-12.21,17.58q-15.87-23.19-15.86-60.55,0-29.3,24.65-115.72,12.69-14.88,26.86-30.76A44.9,44.9,0,0,1,450,355q0,12.94-9,30.76-8.06,16.36-18.31,26.61-9.28,39.79-9.28,55.91,0,16.61,4.64,22,6-22,23.44-48.58,15.61-23.92,36.37-38.82Z"/>
        <path d="M577.88,13.18q-5.13,16.61-14.16,21l-85.45,42q3.9-15.14,23-24.66Z"/>
        <path d="M593.16,393.55q-30.27,0-38.82-12.45,33.55-38.57,33.55-62.25,0-31-14.11-31-6.81,0-20.44,10.76T528,329.89q-12.4,22-12.4,37.64a35.09,35.09,0,0,0,1.2,9.29l-12.45,46.94a306.23,306.23,0,0,0,27.79-22.35q14.87,17.44,23.39,23.82a51.87,51.87,0,0,0,31.25,10.32,92.9,92.9,0,0,0,51.76-15.43l12.69-47.24Q624.41,393.55,593.16,393.55Zm-53.07-31.14q-8.36-9.72-8.35-15.57,0-4.38,11-14.11T558.51,323q12.78,0,12.78,9.49Q571.29,346.35,540.09,362.41Z"/>
        <path d="M607.48,201.17q2.92-12.45,4.15-18.8-35.65,22-55.66,30-15.15,30-15.14,36.38l.24,2.93Q602.84,220.95,607.48,201.17Z"/>
        <path d="M677,24.41q0,19-15.07,35.4T627.76,76.17q-20.1,0-20.09-17.58,0-19.77,14-38.33Q636.83,0,655.93,0q8.58,0,15.19,8.06A26.1,26.1,0,0,1,677,24.41ZM661.13,40.59q0-5.94-8-12.9t-13.88-6.94q-7.37,0-13.38,6.7t-6,14.13q0,10.67,19.16,10.67Q661.13,52.25,661.13,40.59Z"/>
        <path d="M724.12,220.46q0,68.85-17.33,113.77-21,53.72-71.78,88.87l12.21-45.66q62.25-49.8,62.25-100.1,0-37.59-23.68-91.06Q681.2,210.21,672,257.81q-3.87,20.51-6.52,20.51l-2.17-.73-.49-3.18q0-19.77,10.21-74.21,10.71-58.84,18.49-67.63,13.37,8.3,23.58,40.28Q724.12,200.45,724.12,220.46Z"/>
        <path d="M772,13.18q-5.13,16.61-14.16,21l-85.45,42q3.9-15.14,22.95-24.66Z"/>
        <path d="M844.05,215.09a525.35,525.35,0,0,0-44.78-103q-15.09,45.41-15.09,136,0,48.82,8,50.29,5.54-2.68,5.54-28.08,0-13.67,6.28-60.54,12.27,23.19,26.51,62.25,16.21,44.68,16.21,63,0,25.64-15.38,50.78-9,14.89-33.45,42.24L776.61,450.2q-12.45,13.43-17.82,24.41c.16,1.3,1,1.95,2.44,1.95s4.86-1,10.22-2.93q57-20.75,75.76-54.93Q863,390.14,863,325.2,863,275.88,844.05,215.09Z"/>
        <path d="M776.37,93.75q0-7.32-8.79-7.32-12.21,0-12.21-3.42,0-6.11,7.33-6.11a12,12,0,0,1,4.88,1q2.43-1.69,7-10.28t5.25-12.2a15.23,15.23,0,0,0-5.41-1.69q-10.3,0-23.82,17.82t-13.5,28.32q0,9.53,9.65,9.28c5.11-.16,7.92.25,8.41,1.22q-3.9,5.37-25.63,13.43L699.7,134c0,2,1.06,2.93,3.18,2.93q20.5,0,44.92-11.47Q776.36,111.82,776.37,93.75Z"/>
      </g>
    </g>
  </g>
</svg>
