<?xml version="1.0" encoding="utf-8"?>
<!-- Generator: Adobe Illustrator 22.1.0, SVG Export Plug-In . SVG Version: 6.00 Build 0)  -->
<svg version="1.1" id="Layer_1" xmlns="http://www.w3.org/2000/svg" xmlns:xlink="http://www.w3.org/1999/xlink" x="0px" y="0px"
	 viewBox="0 0 862 626.5" style="enable-background:new 0 0 862 626.5;" xml:space="preserve">
<title>EH-Asset 24-layername</title>
<g id="Layer_2_1_">
	<g id="ErRafi">
		<g>
			<path d="M104.6,54.9c0-7-4-10.5-12.2-10.5c-7.5,0-15.4,4.8-23.8,14.5c1.6,2.3,3,4.8,4.1,7.4l2.7-1c6.4,0,9.7,3.8,9.7,11.3
				c0,2.9-1.5,6.9-4.5,12C72.9,82.1,69,77.3,69,74c0-2.7,0.9-5.3,2.7-7.4l1.1-0.4c-1.1-2.6-2.5-5-4.1-7.4c-0.7,0.8-1.4,1.7-2.2,2.5
				c-9.2,11.3-13.9,21.2-13.9,29.7c0,4.7,3.2,10.2,9.6,16.4C40.6,123.2,19.9,135.9,0,145.5c6.3,2,10.8,2.9,13.4,2.9
				c13.2,0,32.4-11.8,57.6-35.3c5.1,4.6,10.5,8.8,16.1,12.7l8.5-24.1l-7.5-7.3C99.2,80.1,104.6,67,104.6,54.9z"/>
			<path d="M266.4,360.7L254,407.2c-21,12.7-38.2,19.1-51.5,19.1c-16.4,0-28.7-10.5-36.6-31.4L89.6,452
				c-40.9,30.8-61.3,48.7-61.3,53.8c0,6.9,11.2,10.3,33.7,10.3c30,0,65.4-8.1,106.4-24.4c38.6-15.5,70.5-33.3,95.9-53.5h1.2
				c-2,10.1-22.1,29-60.5,56.8c-21.2,15.3-47,29.3-77.4,41.8c-34,14-62,21-84,21c-27.3,0-41-6.2-41-18.6c0-24.4,21.7-55.3,65.2-92.6
				c17.4-14.8,48.7-37.9,93.8-69.1c-0.5-7.7-1.2-12.9-2.2-15.6c-2-5.9-5.8-9-11.5-9.5c-7.3-0.7-11-1.7-11-3.2c0-3.7,2-10.6,6.1-20.6
				c4.1-10,7.5-16.7,10.2-20.2c2.3-2.9,10.2-5.6,23.6-8.1c11.4-2,20.3-2.9,26.8-2.9c16.4,0,24.6,5,24.6,15.1
				c0,14.3-13.4,34.7-40.1,61.1c5.2,7.3,16.8,11,34.7,11C231.5,384.5,246.1,376.6,266.4,360.7z"/>
			<path d="M322.9,563.5c-3.4,11.1-8.1,18.1-14.2,21l-85.4,42c2.6-10.1,10.3-18.3,23-24.7L322.9,563.5z"/>
			<path d="M491.8,312c0,43.3-5.2,74.5-15.6,93.5c-12.5,22.8-37.8,41.1-75.9,54.9c-5.4,2-8.8,2.9-10.3,2.9c-1.5,0-2.3-0.6-2.4-2
				c3.6-7.3,9.5-15.5,17.8-24.4c7.2-7.5,14.2-14.9,21.2-22.2c16.3-18.2,27.4-32.3,33.5-42.2c10.3-16.8,15.4-33.7,15.4-50.8
				c0-12.2-5.4-33.2-16.2-63c-9.5-26-18.4-46.8-26.5-62.2c-4.2,31.3-6.3,51.4-6.3,60.5c0,16.9-1.9,26.3-5.5,28.1
				c-5.3-1-8-17.7-8-50.3c0-60.4,5-105.7,15.1-136c18.6,32.6,33.6,67.2,44.8,103C485.5,242.4,491.8,279.1,491.8,312z"/>
			<path d="M649.6,360.8L636.9,408c-20.2,11.7-34.3,20.3-42.2,25.6c-19,12.7-30.7,23.2-34.9,31.5c-13,28.2-26,56.2-39.1,84.2
				c-18.9,35.8-38.6,57.1-59.1,64c-15.6,5.3-32.8,8-51.5,8c-37.6,0-61.8-3.2-72.5-9.5l-0.7-1.2l2-2.2c10.5,2,21.3,3,32,2.9
				c29.9,0,58.3-9.6,85-28.8c23.6-17.2,43.5-40,59.8-68.4c1.1-2.1,8.9-17.4,23.2-45.9c9.3-18.6,18.3-33.1,27-43.6
				c8.7-10.5,22.5-21.6,41.4-33.3C628.1,378.3,642.2,368.2,649.6,360.8z"/>
			<path d="M723,207.3c0,45.9-5.8,83.8-17.3,113.8c-14,35.8-37.9,65.4-71.8,88.9l12.2-45.6c41.5-33.2,62.3-66.6,62.3-100.1
				c0-25.1-7.9-55.4-23.7-91.1c-3.1,16-7.6,39.8-13.8,71.5c-2.6,13.7-4.7,20.5-6.5,20.5l-2.2-0.7l-0.5-3.2
				c0-13.2,3.4-37.9,10.2-74.2c7.1-39.2,13.3-61.8,18.5-67.6c8.9,5.5,16.8,19,23.6,40.3C720,178.1,723,193.9,723,207.3z"/>
			<path d="M770.9,0c-3.4,11.1-8.1,18.1-14.2,21l-85.5,42c2.6-10.1,10.3-18.3,23-24.7L770.9,0z"/>
			<path d="M289.9,233.1c-7.6,0-16.1,9.3-25.4,27.8c-8.6,17.3-12.9,30.4-12.9,39.5c0,4.8,2.2,9.3,6.1,12.2c3.7,3,8.2,4.5,12.9,4.4
				c7,0,16-4.5,26.9-13.4c3.1,1.3,4.6,4.1,4.6,8.5c0,7.8-4.8,17.4-14.4,28.8c-8.1,9.8-16.3,17.3-24.4,22.5l-12.4,45.9
				c29.6-21.3,50.6-51.7,62.8-91.1c6.4-20.7,9.7-34.3,9.7-41c0-9.4-3.2-18.9-9.7-28.3C306.8,238.5,298.9,233.2,289.9,233.1z"/>
			<path d="M294.3,182.1l10-17.6c0-5.7-7.4-11.2-22.2-16.6c-14,21.5-21.3,33-22,34.4c6.9,5.4,14,10.4,21.5,14.9
				C285.3,194.7,289.6,189.6,294.3,182.1z"/>
			<path d="M460.8,159.9l79.8-28.3c6.5-2.3,12.1-8.5,16.8-18.6l-69.6,24.4C477,141.2,468,148.7,460.8,159.9z"/>
			<path d="M519.9,168.7c-6.2,0-9.3-5.9-9.3-17.8l-5.9,1.5c-12.4,21.6-22.4,32.5-30,32.5c-5.7,0-8.5-3.8-8.5-11.5l0.7-7.6l-8.5,4.6
				c-4.6,12.4-6.8,20.8-6.8,25.3c0,9.2,4.7,13.8,14.2,13.8c10.9,0,21.3-7.1,31.1-21.1c5.9,4.2,10.7,6.3,14.4,6.3
				c11.8,0,21.5-7.1,29.1-21.2c5.7-10.4,9.4-22.6,11-36.6l-7.6,2.2C537.3,158.8,529.4,168.7,519.9,168.7z"/>
			<path d="M843,201.9c-11.2-35.8-26.2-70.4-44.8-103c-10.1,30.3-15.1,75.6-15.1,136c0,32.6,2.7,49.3,8,50.3
				c3.7-1.8,5.5-11.2,5.5-28.1c0-9.1,2.1-29.3,6.3-60.6c8.2,15.5,17,36.2,26.5,62.3c10.8,29.8,16.2,50.8,16.2,63
				c0,17.1-5.1,34-15.4,50.8c-6,9.9-17.1,24-33.4,42.2c-7,7.3-14.1,14.7-21.2,22.2c-8.3,8.9-14.3,17.1-17.8,24.4
				c0.1,1.2,1.1,2.1,2.3,2c0.1,0,0.1,0,0.2,0c1.5,0,4.9-1,10.2-2.9c38-13.8,63.3-32.1,75.8-54.9c10.5-19.1,15.8-50.3,15.8-93.6
				C862,279.1,855.7,242.4,843,201.9z"/>
			<path d="M775.3,80.6c0-4.9-2.9-7.3-8.8-7.3c-8.1,0-12.2-1.1-12.2-3.4c0-4.1,2.4-6.1,7.3-6.1c1.7,0,3.3,0.3,4.9,1
				c1.6-1.1,4-4.6,7-10.3s4.8-9.8,5.3-12.2c-1.7-0.9-3.5-1.5-5.4-1.7c-6.9,0-14.8,5.9-23.8,17.8S736,79.7,736,86.7
				c0,6.3,3.2,9.4,9.7,9.3c5.1-0.2,7.9,0.2,8.4,1.2c-2.6,3.6-11.2,8.1-25.6,13.4l-29.8,10.3c0,2,1,2.9,3.2,2.9
				c13.7,0,28.6-3.8,44.9-11.5C765.8,103.2,775.3,92.6,775.3,80.6z"/>
		</g>
	</g>
</g>
</svg>
