<?xml version="1.0" encoding="utf-8"?>
<!-- Generator: Adobe Illustrator 22.1.0, SVG Export Plug-In . SVG Version: 6.00 Build 0)  -->
<svg version="1.1" id="Layer_1" xmlns="http://www.w3.org/2000/svg" xmlns:xlink="http://www.w3.org/1999/xlink" x="0px" y="0px"
	 viewBox="0 0 1214.7 659.9" style="enable-background:new 0 0 1214.7 659.9;" xml:space="preserve">
<title>EH-Asset 31-layername</title>
<g id="Layer_2_1_">
	<g id="ElLatif">
		<g>
			<path d="M104.6,88.4c0-7-4-10.5-12.2-10.5c-7.6,0-15.8,5.1-24.4,15.1c2.1,1.9,4.1,4,5.7,6.3l1.6-0.6c6.4,0,9.7,3.8,9.7,11.3
				c0,2.9-1.5,6.9-4.5,12c-7.8-6.4-11.7-11.2-11.7-14.4c0-2.7,0.9-5.3,2.7-7.4l2.1-0.8c-1.7-2.3-3.6-4.4-5.7-6.3
				c-0.5,0.6-1.1,1.3-1.6,1.9c-9.2,11.3-13.8,21.2-13.8,29.7c0,4.7,3.2,10.2,9.6,16.4C40.6,156.7,19.9,169.4,0,179
				c6.3,1.9,10.8,2.9,13.4,2.9c13.2,0,32.4-11.8,57.6-35.3c5.1,4.6,10.5,8.8,16.1,12.7l8.5-24.1l-7.5-7.3
				C99.2,113.6,104.6,100.4,104.6,88.4z"/>
			<path d="M635.3,413.1c-6.2,3.6-15.7,8.8-28.6,15.6c3.1-7.9,4.7-14.9,4.7-20.9c0-23.3-6.5-35-19.6-35c-10.4,0-22.1,12.4-35,37.2
				c-3.9,7.5-7.2,14.5-9.8,20.9c3.7,0.3,7.3,0.9,10.8,1.6c1.5-2.9,4.3-6.5,8.5-10.9c6.5-6.9,11.4-10.4,14.7-10.4
				c8.6,0,12.9,6.3,12.9,18.8v0c0,1.6-2.2,4.1-6.5,7.6c-10.7,2.4-17.6,3.7-20.6,3.7c-6.8,0-10.2-1.5-10.2-4.4c0-1.2,0.5-2.7,1.3-4.4
				c-3.6-0.7-7.1-1.3-10.8-1.6c-5.4,13-8,23.6-8,31.9l1.7,8.1c-41,27.4-90.4,51.2-148.2,71.4c-61.5,21.3-114.7,32-159.4,32
				c-44.3,0-83.7-6.1-118.2-18.3c-48.5-17.2-72.8-43.7-72.8-79.3c0-30.1,12.9-55.7,38.8-76.7c32.2-26.2,71.7-39.3,118.4-39.3
				c13.2-0.2,32.9,0.4,59.2,1.7c26.3,1.3,46,2,59.2,2c34.5,0,63.7-3.1,87.4-9.4c28.3-7.4,54.6-20.7,78.9-39.7
				c23.2-17.9,42.7-40.3,57.4-65.7c-8.1-10.4-15.1-18-20.8-22.7c-13.7,13.8-23.6,25-29.8,33.4c8.3,8.8,14.8,14.3,19.5,16.6
				c-5.2,11.4-15,22.1-29.3,32.2c-36.9,26-82.6,39.1-136.9,39.1c-14.2-0.2-35.4-1.3-63.8-3.4c-28.4-2.1-49.6-3.2-63.6-3.2
				c-57.6,0-104.8,17.3-141.8,51.8c-35.3,32.9-53,68.4-53,106.7c0,37.6,21.9,66.9,65.6,87.9c35,16.9,73.7,25.4,116,25.4
				c63,0,127.8-12.5,194.3-37.6c64.3-24.1,121.6-56.5,171.9-97.4c24.1-4.2,50.4-16.9,79.1-37.9l12.5-46.5
				C653.3,401.1,644.6,407.5,635.3,413.1z"/>
			<path d="M792.4,596.9c-3.4,11.1-8.1,18.1-14.2,21l-85.5,42c2.6-10.1,10.3-18.3,23-24.7L792.4,596.9z"/>
			<path d="M873.7,410.6c-11.1,4.7-20.9,7.1-29.5,7.1c-12.4,0-23.4-2-33-6.1c-12.7-5.4-19-13.3-19-23.9
				c21.4-19.1,35.4-32.5,42.1-40.3c11.7-13.7,21.8-30.4,30.2-50.3c7.5-17.7,11.2-27.8,11.2-30.3c0-5.7-3.5-8.5-10.5-8.5
				c-10.4,0-26.6,5.9-48.6,17.7c-19,10.4-34,20.2-45,29.5c11.2-46.8,16.8-79.7,16.8-98.8c0-39.3-6.4-65.8-19.2-79.3
				c-4.4-4.7-7.7-7.2-9.8-7.3c-10.6,5.9-20.4,20.5-29.5,43.9c-7.5,19-12.3,36.8-14.4,53.2l2.2,2.2l2-1.5
				c15.1-38.5,25.3-57.8,30.5-58c14.2,7.3,21.2,36.1,21.2,86.2c0,24.8-9.8,72-29.4,141.6c3.7-2,6.9-4.6,10.1-7.3l9.5-35.2
				c10.3-10.1,24.4-20.5,42.3-31.1c20.7-12.1,36.5-18.1,47.4-18.1l1.7,2.7c-0.2,7.8-14.7,22.4-43.7,43.8l-57.6,39.6l0.5-1.8
				c-3.2,2.6-6.4,5.3-10.1,7.3c-0.1,0.4-0.2,0.8-0.4,1.3l-9.2,8.5l-12.2,45.2c7.8-5.3,13.7-9.5,17.8-12.6l1.5,18.9l1.5,1
				c2.8-8.2,4.5-16.7,5-25.3c13.7-10.4,24.2-18.6,31.5-24.6c2.8,16.2,9.3,29.3,19.5,39.4c10.7,10.9,24.1,16.3,40,16.3
				c17.4,0,34.1-5.1,50-15.3l12.5-46.2C893.4,400.4,884.8,405.9,873.7,410.6z"/>
			<path d="M1002.6,394.3l-12.5,46.2c-10.4,8.1-21.4,12.1-33,12.1c-17.6,0-26.1-16-25.6-48l0.3-23.9c-12.3,27.3-28.5,48.2-48.6,62.5
				l12.2-45.5c16.2-13.3,26.4-24.1,30.7-32.2c5.1-9.3,7.6-23.5,7.6-42.7c0-8.3-0.4-20.6-1.2-37s-1.2-28.7-1.2-37
				c0-4.2,1.6-11.3,4.8-21.1s6.1-16,8.7-18.4l2.2,1c1.6,28.2,2.4,84.8,2.4,169.9c0,19.5,6.8,29.3,20.3,29.3
				C979.9,409.4,990.9,404.4,1002.6,394.3z"/>
			<path d="M1075.8,240.7c0,45.9-5.8,83.8-17.3,113.8c-14,35.8-37.9,65.4-71.8,88.9l12.2-45.6c41.5-33.2,62.3-66.6,62.3-100.1
				c0-25.1-7.9-55.4-23.7-91.1c-3.1,16-7.6,39.8-13.8,71.5c-2.6,13.7-4.8,20.5-6.5,20.5l-2.2-0.7l-0.5-3.2
				c0-13.2,3.4-37.9,10.2-74.2c7.1-39.2,13.3-61.8,18.5-67.6c8.9,5.5,16.8,19,23.6,40.3C1072.8,211.5,1075.8,227.4,1075.8,240.7z"/>
			<path d="M1123.7,33.5c-3.4,11.1-8.1,18.1-14.2,21l-85.4,42c2.6-10.1,10.3-18.3,23-24.7L1123.7,33.5z"/>
			<path d="M680.2,421.6c-6.7,0-11.4-0.9-14.2-2.7c12.7-17.4,19-32.1,19-44c0-2.8-0.2-5.6-0.7-8.3c-9.1,10.4-18,20.7-26.7,30.8
				l-12.2,45.3l6.6-5.2c6.5,12,16.7,18,30.7,18c13.2,0,26.6-5,40.3-15l12.4-46.6c-6.5,6.5-15.1,12.6-25.6,18.3
				C697.8,418.5,688,421.6,680.2,421.6z"/>
			<path d="M639.3,506.8c-10.6,21.5-15.8,34.7-15.6,39.8c9.6-5,16.7-8.9,21.4-11.7c19.9-11.4,31.2-18.4,33.8-21
				c6-6,11.1-18.2,15.3-36.6C675,489,662.8,495.9,657.8,498C648.4,502.1,642.2,505.1,639.3,506.8z"/>
			<path d="M924.7,55.7c-6.2,0-9.3-5.9-9.3-17.8l-5.9,1.5c-12.4,21.6-22.4,32.5-30,32.5c-5.7,0-8.6-3.8-8.6-11.5l0.7-7.6l-8.5,4.6
				c-4.6,12.4-6.8,20.8-6.8,25.3c0,9.2,4.7,13.8,14.2,13.8c10.9,0,21.3-7.1,31.1-21.2c5.9,4.2,10.7,6.3,14.4,6.3
				c11.8,0,21.5-7.1,29.1-21.2c5.7-10.4,9.4-22.6,11-36.6l-7.6,2.2C942.1,45.7,934.1,55.7,924.7,55.7z"/>
			<path d="M865.6,46.9l79.8-28.3c6.5-2.3,12.1-8.5,16.8-18.6l-69.6,24.4C881.8,28.1,872.8,35.6,865.6,46.9z"/>
			<path d="M1195.8,235.4c-11.2-35.8-26.2-70.4-44.8-103c-10.1,30.3-15.1,75.6-15.1,136c0,32.6,2.7,49.3,7.9,50.3
				c3.7-1.8,5.6-11.1,5.6-28.1c0-9.1,2.1-29.3,6.3-60.6c8.2,15.5,17,36.2,26.5,62.3c10.8,29.8,16.2,50.8,16.2,63
				c0,17.1-5.1,34-15.4,50.8c-6,9.9-17.2,24-33.4,42.2l-21.2,22.2c-8.3,9-14.2,17.1-17.8,24.4c0,1.2,1,2.1,2.2,2c0.1,0,0.2,0,0.2,0
				c1.5,0,4.9-1,10.2-2.9c38-13.8,63.3-32.2,75.8-54.9c10.6-19,15.8-50.2,15.8-93.5C1214.7,312.6,1208.4,275.9,1195.8,235.4z"/>
			<path d="M1128.1,114c0-4.9-2.9-7.3-8.8-7.3c-8.1,0-12.2-1.1-12.2-3.4c0-4.1,2.4-6.1,7.3-6.1c1.7,0,3.3,0.3,4.9,1
				c1.6-1.1,4-4.5,7-10.3c3-5.7,4.8-9.8,5.3-12.2c-1.7-0.9-3.5-1.5-5.4-1.7c-6.9,0-14.8,5.9-23.8,17.8s-13.5,21.3-13.5,28.3
				c0,6.3,3.2,9.4,9.7,9.3c5.1-0.2,7.9,0.2,8.4,1.2c-2.6,3.6-11.1,8.1-25.6,13.4l-29.8,10.3c0,1.9,1.1,2.9,3.2,2.9
				c13.7,0,28.7-3.8,44.9-11.5C1118.6,136.6,1128.1,126.1,1128.1,114z"/>
		</g>
	</g>
</g>
</svg>
