<svg xmlns="http://www.w3.org/2000/svg" viewBox="0 0 787.99 659.91">
  <title>EH-Asset 93-layername</title>
  <g id="Layer_2" data-name="Layer 2">
    <g id="EnNafiu">
      <g>
        <path d="M104.64,88.37q0,18.06-16.4,39.52l7.47,7.32-8.54,24.15a169.73,169.73,0,0,1-16.12-12.73q-37.84,35.25-57.62,35.25Q9.52,181.88,0,179q29.79-14.42,62.26-38.09-9.63-9.27-9.63-16.36,0-12.69,13.86-29.66t26-17Q104.64,77.88,104.64,88.37ZM85.11,109.9q0-11.27-9.67-11.27l-3.72,1.47A11,11,0,0,0,69,107.45q0,4.89,11.65,14.44C83.62,116.84,85.11,112.83,85.11,109.9Z"/>
        <path d="M266.41,394.11,254,440.62q-31.5,19.1-51.52,19.1-24.67,0-36.64-31.44L89.56,485.5q-61.35,46.21-61.34,53.79,0,10.28,33.69,10.27,44.93,0,106.45-24.41Q226.22,502,264.3,471.68h1.23q-2.94,15.17-60.55,56.75-31.74,23-77.39,41.84-51,21-84,21-41,0-41-18.58,0-36.65,65.18-92.61Q93.9,457.89,161.52,411q-.74-11.47-2.2-15.64-2.94-8.79-11.5-9.52-11-1-11-3.18,0-5.62,6.09-20.65t10.23-20.16q3.41-4.4,23.63-8.07,17.05-2.92,26.8-2.93,24.6,0,24.6,15.1,0,21.42-40.13,61.1,7.8,11,34.67,11Q235.88,418,266.41,394.11Z"/>
        <path d="M322.9,596.92q-5.13,16.61-14.16,21l-85.45,42q3.9-15.13,23-24.66Z"/>
        <path d="M499.41,394.53,487,441.33q-19.53,13.26-39.55,13.26-27.59,0-37.84-30.94-5.62-17.4-6.59-53.78l-1.84-73.73q-2.07-83-2.07-84.47,0-3.16,5.89-20.75T413,170.41h1.44q.74,42.24,2.93,126.22.24,23.44,5.13,69.34,9.76,47.11,37.35,47.12Q480.36,413.09,499.41,394.53Z"/>
        <path d="M649.07,240.72q0,68.85-17.33,113.77-21,53.72-71.78,88.87l12.21-45.65q62.25-49.81,62.25-100.1,0-37.61-23.68-91.07-4.59,23.94-13.77,71.54-3.87,20.51-6.52,20.5l-2.17-.73-.49-3.17q0-19.79,10.21-74.22,10.71-58.83,18.49-67.63,13.37,8.31,23.58,40.29Q649.07,220.71,649.07,240.72Z"/>
        <path d="M696.92,33.45q-5.13,16.61-14.16,21l-85.45,42q3.9-15.14,23-24.66Z"/>
        <path d="M294.31,215.58l10-17.58q0-8.55-22.22-16.6-21,32.22-22,34.42a226.53,226.53,0,0,0,21.48,14.89Q287.22,226.81,294.31,215.58Z"/>
        <path d="M289.94,266.6q-11.47,0-25.39,27.83Q251.6,320.32,251.61,334a15,15,0,0,0,6.1,12.21,19.79,19.79,0,0,0,12.94,4.4q10.5,0,26.86-13.43,4.64,1.95,4.64,8.54,0,11.73-14.41,28.81Q275.53,389.17,263.33,397l-12.45,45.9q44.43-32,62.85-91.06,9.66-31,9.66-41,0-14.16-9.66-28.32Q303.35,266.6,289.94,266.6Z"/>
        <path d="M563.87,0,494.29,24.41Q477.92,30,467.19,46.88L547,18.55Q556.79,15.15,563.87,0Z"/>
        <path d="M503.18,75.28q8.82,6.27,14.44,6.26,17.63,0,29.13-21.24,8.57-15.61,11-36.62l-7.57,2.2q-9.77,29.79-23.92,29.78-9.28,0-9.28-17.82l-5.86,1.47q-18.56,32.47-30,32.47-8.55,0-8.54-11.48l.73-7.57-8.55,4.64q-6.83,18.6-6.83,25.26,0,13.8,14.19,13.81Q488.51,96.44,503.18,75.28Z"/>
        <path d="M520.16,421.63q-10,0-14.16-2.68,19.05-26.13,19-43.95a42.39,42.39,0,0,0-.74-8.3q-13.66,15.63-26.85,30.76l-12.21,45.32,6.59-5.17q9.77,18,30.77,18,19.77,0,40.28-15L575.34,394q-9.76,9.76-25.63,18.31Q531.88,421.64,520.16,421.63Z"/>
        <path d="M530.91,252.2q-6.6-3.18-13.19-6.11-18.3,26.62-22.46,34.67L517,295.9q9.53-6.34,23-33Q538,256.34,530.91,252.2Z"/>
        <path d="M701.32,114q0-7.32-8.79-7.32-12.21,0-12.21-3.42,0-6.09,7.32-6.1a12.13,12.13,0,0,1,4.89,1q2.43-1.69,7-10.27t5.24-12.21a15.14,15.14,0,0,0-5.4-1.69Q689,74,675.51,91.8T662,120.12q0,9.51,9.65,9.27c5.11-.16,7.92.25,8.41,1.23Q676.17,136,654.44,144L624.65,154.3q0,2.92,3.18,2.93,20.5,0,44.92-11.48Q701.31,132.08,701.32,114Z"/>
        <path d="M769,235.35a525.61,525.61,0,0,0-44.78-103q-15.09,45.42-15.09,136,0,48.84,8,50.29,5.53-2.69,5.54-28.07,0-13.68,6.27-60.55,12.29,23.21,26.52,62.26,16.22,44.67,16.21,63,0,25.63-15.38,50.79-9,14.89-33.45,42.23l-21.24,22.22q-12.45,13.43-17.82,24.41a2.12,2.12,0,0,0,2.44,2q2.18,0,10.22-2.93,57-20.76,75.76-54.94Q788,410.4,788,345.46,788,296.14,769,235.35Z"/>
      </g>
    </g>
  </g>
</svg>
