<?xml version="1.0" encoding="utf-8"?>
<!-- Generator: Adobe Illustrator 22.1.0, SVG Export Plug-In . SVG Version: 6.00 Build 0)  -->
<svg version="1.1" id="Layer_1" xmlns="http://www.w3.org/2000/svg" xmlns:xlink="http://www.w3.org/1999/xlink" x="0px" y="0px"
	 viewBox="0 0 788 659.9" style="enable-background:new 0 0 788 659.9;" xml:space="preserve">
<title>EH-Asset 93-layername</title>
<g id="Layer_2_1_">
	<g id="EnNafiu">
		<g>
			<path d="M104.6,88.4c0-7-4-10.5-12.2-10.5c-6.9,0-14.2,4.2-22,12.4c1.9,2.7,3.6,5.5,5,8.4c6.4,0.1,9.5,3.8,9.5,11.3
				c0,2.9-1.5,6.9-4.5,12c-7.8-6.4-11.7-11.2-11.7-14.4c0-2.7,0.9-5.3,2.7-7.4l3.7-1.5c0,0,0.1,0,0.1,0c-1.5-2.9-3.2-5.7-5-8.4
				c-1.3,1.4-2.7,2.9-4,4.6c-9.2,11.3-13.9,21.2-13.9,29.7c0,4.7,3.2,10.2,9.6,16.4C40.6,156.7,19.9,169.4,0,179
				c6.3,1.9,10.8,2.9,13.4,2.9c13.2,0,32.4-11.8,57.6-35.3c5.1,4.6,10.5,8.8,16.1,12.7l8.5-24.1l-7.5-7.3
				C99.2,113.6,104.6,100.4,104.6,88.4z"/>
			<path d="M266.4,394.1L254,440.6c-21,12.7-38.2,19.1-51.5,19.1c-16.4,0-28.7-10.5-36.6-31.4l-76.3,57.2
				c-40.9,30.8-61.3,48.7-61.3,53.8c0,6.9,11.2,10.3,33.7,10.3c30,0,65.4-8.1,106.4-24.4c38.6-15.4,70.6-33.3,95.9-53.5h1.2
				c-2,10.1-22.1,29-60.6,56.8c-21.2,15.3-47,29.3-77.4,41.8c-34,14-62,21-84,21c-27.3,0-41-6.2-41-18.6c0-24.4,21.7-55.3,65.2-92.6
				c17.4-14.8,48.7-37.8,93.8-69.1c-0.5-7.6-1.2-12.9-2.2-15.6c-2-5.9-5.8-9-11.5-9.5c-7.3-0.7-11-1.7-11-3.2c0-3.7,2-10.6,6.1-20.6
				s7.5-16.7,10.2-20.2c2.3-2.9,10.1-5.6,23.6-8.1c11.4-1.9,20.3-2.9,26.8-2.9c16.4,0,24.6,5,24.6,15.1c0,14.3-13.4,34.6-40.1,61.1
				c5.2,7.3,16.8,11,34.7,11C231.5,418,246.1,410,266.4,394.1z"/>
			<path d="M322.9,596.9c-3.4,11.1-8.1,18.1-14.2,21l-85.4,42c2.6-10.1,10.3-18.3,23-24.7L322.9,596.9z"/>
			<path d="M499.4,394.5L487,441.3c-13,8.8-26.2,13.3-39.5,13.3c-18.4,0-31-10.3-37.8-30.9c-3.7-11.6-5.9-29.5-6.6-53.8l-1.8-73.7
				c-1.4-55.3-2.1-83.5-2.1-84.5c0-2.1,2-9,5.9-20.8c3.9-11.7,6.6-18.6,8-20.5h1.4c0.5,28.2,1.5,70.2,2.9,126.2
				c0.2,15.6,1.9,38.7,5.1,69.3c6.5,31.4,19,47.1,37.4,47.1C473.5,413.1,486.7,406.9,499.4,394.5z"/>
			<path d="M649.1,240.7c0,45.9-5.8,83.8-17.3,113.8c-14,35.8-37.9,65.4-71.8,88.9l12.2-45.6c41.5-33.2,62.3-66.6,62.3-100.1
				c0-25.1-7.9-55.4-23.7-91.1c-3.1,16-7.7,39.8-13.8,71.5c-2.6,13.7-4.8,20.5-6.5,20.5l-2.2-0.7l-0.5-3.2
				c0-13.2,3.4-37.9,10.2-74.2c7.1-39.2,13.3-61.8,18.5-67.6c8.9,5.5,16.8,19,23.6,40.3C646.1,211.5,649.1,227.4,649.1,240.7z"/>
			<path d="M696.9,33.5c-3.4,11.1-8.1,18.1-14.2,21l-85.5,42c2.6-10.1,10.3-18.3,23-24.7L696.9,33.5z"/>
			<path d="M294.3,215.6l10-17.6c0-5.7-7.4-11.2-22.2-16.6c-14,21.5-21.3,33-22,34.4c6.9,5.4,14,10.3,21.5,14.9
				C285.3,228.1,289.6,223.1,294.3,215.6z"/>
			<path d="M289.9,266.6c-7.6,0-16.1,9.3-25.4,27.8c-8.6,17.3-12.9,30.5-12.9,39.6c0,4.8,2.2,9.4,6.1,12.2c3.7,3,8.2,4.5,12.9,4.4
				c7,0,16-4.5,26.9-13.4c3.1,1.3,4.6,4.1,4.6,8.5c0,7.8-4.8,17.4-14.4,28.8c-8.1,9.8-16.3,17.3-24.4,22.5l-12.4,45.9
				c29.6-21.3,50.6-51.7,62.8-91.1c6.4-20.7,9.7-34.3,9.7-41c0-9.4-3.2-18.9-9.7-28.3C306.8,271.9,298.9,266.6,289.9,266.6z"/>
			<path d="M563.9,0l-69.6,24.4c-10.9,3.7-19.9,11.2-27.1,22.5L547,18.5C553.5,16.3,559.1,10.1,563.9,0z"/>
			<path d="M503.2,75.3c5.9,4.2,10.7,6.3,14.4,6.3c11.8,0,21.5-7.1,29.1-21.2c5.7-10.4,9.4-22.6,11-36.6l-7.6,2.2
				c-6.5,19.9-14.5,29.8-23.9,29.8c-6.2,0-9.3-5.9-9.3-17.8l-5.9,1.5c-12.4,21.6-22.4,32.5-30,32.5c-5.7,0-8.5-3.8-8.5-11.5l0.7-7.6
				l-8.5,4.6c-4.6,12.4-6.8,20.8-6.8,25.3c0,9.2,4.7,13.8,14.2,13.8C483,96.4,493.4,89.4,503.2,75.3z"/>
			<path d="M520.2,421.6c-6.7,0-11.4-0.9-14.2-2.7c12.7-17.4,19-32.1,19-44c0-2.8-0.2-5.6-0.7-8.3c-9.1,10.4-18.1,20.7-26.9,30.8
				l-12.2,45.3l6.6-5.2c6.5,12,16.8,18,30.8,18c13.2,0,26.6-5,40.3-15l12.5-46.6c-6.5,6.5-15,12.6-25.6,18.3
				C537.8,418.5,528,421.6,520.2,421.6z"/>
			<path d="M530.9,252.2c-4.4-2.1-8.8-4.2-13.2-6.1c-12.2,17.7-19.7,29.3-22.5,34.7l21.7,15.1c6.4-4.2,14-15.2,23-33
				C538.7,258.5,535.6,255,530.9,252.2z"/>
			<path d="M701.3,114c0-4.9-2.9-7.3-8.8-7.3c-8.1,0-12.2-1.1-12.2-3.4c0-4.1,2.4-6.1,7.3-6.1c1.7,0,3.3,0.3,4.9,1
				c1.6-1.1,4-4.5,7-10.3c3-5.7,4.8-9.8,5.2-12.2c-1.7-0.9-3.5-1.5-5.4-1.7c-6.9,0-14.9,5.9-23.9,17.8S662,113.1,662,120.1
				c0,6.3,3.2,9.4,9.7,9.3c5.1-0.2,7.9,0.3,8.4,1.2c-2.6,3.6-11.1,8-25.6,13.4l-29.8,10.3c0,1.9,1.1,2.9,3.2,2.9
				c13.7,0,28.6-3.8,44.9-11.5C691.8,136.6,701.3,126.1,701.3,114z"/>
			<path d="M769,235.4c-11.2-35.8-26.2-70.4-44.8-103c-10.1,30.3-15.1,75.6-15.1,136c0,32.6,2.7,49.3,8,50.3
				c3.7-1.8,5.5-11.1,5.5-28.1c0-9.1,2.1-29.3,6.3-60.6c8.2,15.5,17,36.2,26.5,62.3c10.8,29.8,16.2,50.8,16.2,63
				c0,17.1-5.1,34-15.4,50.8c-6,9.9-17.2,24-33.5,42.2l-21.2,22.2c-8.3,9-14.2,17.1-17.8,24.4c0.1,1.2,1,2.1,2.2,2
				c0.1,0,0.2,0,0.2,0c1.5,0,4.9-1,10.2-2.9c38-13.8,63.3-32.2,75.8-54.9c10.5-19.1,15.8-50.3,15.8-93.6
				C788,312.6,781.7,275.9,769,235.4z"/>
		</g>
	</g>
</g>
</svg>
