<?xml version="1.0" encoding="utf-8"?>
<!-- Generator: Adobe Illustrator 22.1.0, SVG Export Plug-In . SVG Version: 6.00 Build 0)  -->
<svg version="1.1" id="Layer_1" xmlns="http://www.w3.org/2000/svg" xmlns:xlink="http://www.w3.org/1999/xlink" x="0px" y="0px"
	 viewBox="0 0 775.9 660.2" style="enable-background:new 0 0 775.9 660.2;" xml:space="preserve">
<title>EH-Asset 94-layername</title>
<g id="Layer_2_1_">
	<g id="EnNuur">
		<g>
			<path d="M146.2,192.1c0-7-4.1-10.5-12.2-10.5c-7.2,0-14.9,4.5-23,13.5c1.3,2.7,2.5,5.5,3.6,8.2l2.4-0.9c6.4,0,9.7,3.8,9.7,11.3
				c0,2.9-1.5,6.9-4.5,12c-7.8-6.4-11.6-11.2-11.6-14.4c0-2.7,0.9-5.3,2.7-7.4l1.4-0.5c-1.2-2.7-2.4-5.5-3.6-8.2c-1,1.1-2,2.2-3,3.5
				c-9.2,11.3-13.8,21.2-13.8,29.7c0,4.7,3.2,10.2,9.6,16.4c-21.6,15.8-42.4,28.5-62.3,38.1c6.4,2,10.8,2.9,13.4,2.9
				c13.2,0,32.4-11.8,57.7-35.3c5.1,4.6,10.5,8.8,16.1,12.7l8.5-24.1l-7.5-7.3C140.8,217.3,146.2,204.2,146.2,192.1z"/>
			<path d="M268.5,360.5c0,17.5-2.7,26.7-8,27.7l-6.6-8c-4.6,0.2-8.3,2.8-11.2,8.1c-8,13.9-16.5,31.9-25.4,54.3
				c-7.3,18.7-14.7,37.4-22,56c-6.2,14.7-15.7,29.2-28.6,43.5c-13.7,15.3-27.3,26-40.8,32c-15.3,7-36.4,10.5-63.2,10.5
				c-40.5,0-61.4-2.1-62.7-6.3l2.4-1.8c34.2,0,65.9-7.3,95.2-22c30.4-15.3,54.8-36.8,73.2-64.6c9.9-15.1,20.6-35.2,32-60.2
				l22.5-50.2c12.7-25.2,22.5-37.8,29.5-37.8c3.9,0,7.2,2.3,10,6.8C267.3,352,268.5,356.2,268.5,360.5z"/>
			<path d="M499,436.8l-12.5,46.4c-10.4,8.3-29.2,18.3-56.4,29.8c-5.5,24.3-18.5,50.3-39.1,78c-21.5,29-43,48.2-64.5,57.5
				c-18.1,7.8-40.8,11.7-68.1,11.7c-10.4,0-25.9-1.7-46.4-5.2c-24.4-4-37-8.2-37.8-12.6l2-1.5c4.9,0.2,12.6,1.1,23.2,2.9
				c10.1,1.6,17.9,2.4,23.4,2.4c11.2,0,27.7-3.2,49.3-9.5c47-13.8,87.8-41.1,122.3-81.8c12-14.2,18.9-26.5,20.5-37.1
				c-14.2,3.9-23.7,5.9-28.6,5.9c-14.8,0-22.2-4.9-22.2-14.6c0-10.2,4.1-23.2,12.5-38.8c9.3-17.4,18.5-26.1,27.6-26.1
				c8,0,15.1,3.1,21.4,9.3s9.4,13.3,9.4,21.2C462.4,463,483.7,450.4,499,436.8z"/>
			<path d="M637,283.5c0,45.9-5.8,83.8-17.3,113.8c-14,35.8-37.9,65.4-71.8,88.9l12.2-45.6c41.5-33.2,62.3-66.6,62.3-100.1
				c0-25.1-7.9-55.4-23.7-91.1c-3.1,16-7.7,39.8-13.8,71.5c-2.6,13.7-4.8,20.5-6.5,20.5l-2.2-0.7l-0.5-3.2
				c0-13.2,3.4-37.9,10.2-74.2c7.1-39.2,13.3-61.8,18.5-67.6c8.9,5.5,16.8,19,23.6,40.3C634,254.2,637,270.1,637,283.5z"/>
			<path d="M684.8,76.2c-3.4,11.1-8.1,18.1-14.2,21l-85.4,42c2.6-10.1,10.2-18.3,22.9-24.7L684.8,76.2z"/>
			<path d="M554.2,43.4l-7.3-5.4c9.8-10.3,14.6-17.5,14.7-21.6c0-4.1-1.5-8-4-11.1c-2.7-3.5-5.9-5.3-9.7-5.3
				C541,0,534,2.8,526.9,8.3c1.6,1.2,3.1,2.5,4.4,4.1c1.3-1.1,3.1-1.6,5.4-1.6c5.1,2,7.7,4.9,7.7,8.8c0,3.8-1.8,8.3-5.3,13.7
				c-7-5.5-10.6-10-10.6-13.4c0-3.5,0.9-6,2.7-7.4c-1.3-1.5-2.8-2.9-4.4-4.1c-1.5,1.2-3,2.4-4.5,3.8c-8.6,8.1-13,16.2-13,24.4l1,5.9
				c1.9,3,4,5.8,6.4,8.3c-19.4,11.4-38.5,19.4-57.4,24c5.6,3.3,10.4,4.9,14.5,4.9c10.4,0,27.7-8,51.9-23.9c10.4,4.6,18.8,6.9,25,7.1
				c2.6-8.3,3.8-13.6,3.7-15.7L554.2,43.4z"/>
			<path d="M490.4,119.5c3.9,4.2,7.1,6.2,9.7,6.2c21.6,0,36.9-17.5,46-52.5l-6.1,1.5c-8.6,16.9-17.4,25.3-26.3,25.3
				c-6.3,0-9.3-3.8-9-11.4l0.2-4.8l-6.3,1.4c-12.1,19.2-21.8,28.8-29.3,28.8c-5.2,0-7.8-3-7.8-9l1.7-10.9l-5,0.5
				c-8.1,11-12.1,20.8-12.1,29.4l1.7,8.6c3.4,4.4,7.5,6.6,12.2,6.6C472.6,139.2,482.7,132.6,490.4,119.5z"/>
			<path d="M518.8,294.9c-4.4-2.1-8.8-4.1-13.2-6.1c-12.2,17.7-19.7,29.3-22.5,34.7l21.7,15.1c6.3-4.2,14-15.2,23-33
				C526.5,301.3,523.5,297.7,518.8,294.9z"/>
			<path d="M508.1,464.4c-6.7,0-11.4-0.9-14.2-2.7c12.7-17.4,19-32.1,19-44c0-2.8-0.2-5.6-0.7-8.3c-9.1,10.4-18.1,20.7-26.9,30.8
				l-12.2,45.3l6.6-5.2c6.5,12,16.8,18,30.8,18c13.2,0,26.6-5,40.3-15l12.5-46.5c-6.5,6.5-15.1,12.6-25.6,18.3
				C525.7,461.3,515.9,464.4,508.1,464.4z"/>
			<path d="M756.9,278.1c-11.2-35.8-26.2-70.4-44.8-103C702,205.3,697,250.6,697,311c0,32.5,2.7,49.3,8,50.3
				c3.7-1.8,5.5-11.1,5.5-28.1c0-9.1,2.1-29.3,6.3-60.5c8.2,15.5,17,36.3,26.5,62.3c10.8,29.8,16.2,50.8,16.2,63
				c0,17.1-5.1,34-15.4,50.8c-6,9.9-17.2,24-33.5,42.2l-21.2,22.2c-8.3,8.9-14.2,17-17.8,24.4c0.2,1.3,1,2,2.4,2s4.9-1,10.2-2.9
				c38-13.8,63.3-32.1,75.8-54.9c10.6-19,15.8-50.2,15.8-93.5C775.9,355.3,769.5,318.6,756.9,278.1z"/>
			<path d="M689.2,156.7c0-4.9-2.9-7.3-8.8-7.3c-8.1,0-12.2-1.1-12.2-3.4c0-4.1,2.4-6.1,7.3-6.1c1.7,0,3.3,0.3,4.9,1
				c1.6-1.1,4-4.6,7-10.3c3-5.7,4.8-9.8,5.3-12.2c-1.7-0.9-3.5-1.5-5.4-1.7c-6.9,0-14.8,5.9-23.8,17.8s-13.5,21.3-13.5,28.3
				c0,6.4,3.2,9.4,9.7,9.3c5.1-0.2,7.9,0.2,8.4,1.2c-2.6,3.6-11.1,8.1-25.6,13.4L612.5,197c0,1.9,1.1,2.9,3.2,2.9
				c13.7,0,28.6-3.8,44.9-11.5C679.7,179.4,689.2,168.8,689.2,156.7z"/>
		</g>
	</g>
</g>
</svg>
