<svg xmlns="http://www.w3.org/2000/svg" viewBox="0 0 904.79 664.06">
  <title>EH-Asset 95-layername</title>
  <g id="Layer_2" data-name="Layer 2">
    <g id="ElHadi">
      <g>
        <path d="M249.27,122.56q-28.08,55.91-64,87.89Q157.48,234.62,129.64,259q-35.4,31.5-56.89,56.4Q42.48,351.09,31,390.63q-8.55,29.78-8.55,74Q22.46,519.05,77,519q20.79,0,52.58-23.39t31.8-40q0-6.86-17.16-9.06-24.5-2.69-32.09-6.11Q95,432.89,95,412.64q0-41.92,31.25-90.45,10.26-16.33,27.1-33.16,21.48-21.69,33.94-21.7,19,0,29.54,13.38-1.22,8.27-8,21.89-7.73,15.07-13.29,17.26l-2.17-3.18q0-10.28-13.47-10.28-17.88,0-41.63,25.46T114.5,375.19q0,12.48,13.19,18.11,7.06,2.94,27.34,6.12,17.58,2.44,22.46,6.6,7.08,5.88,7.08,21.76,0,44-41.45,89.73Q100.7,564.2,57.3,564.21,0,564.21,0,478.76q0-87.64,65.19-170.17,21.24-26.85,57.86-58.83L186,196q27.33-24.16,59.81-74.95l2.93-1.71Z"/>
        <path d="M289.06,601.07q-5.13,16.6-14.16,21l-85.45,42q3.9-15.13,23-24.66Z"/>
        <path d="M432.37,304.2q0,49.56-34.18,112.06Q363.77,480,311,507.81q-14.18,7.57-57.13,12.7-35.9,4.4-61,4.39-13.92,0-17.58-1.22l-1-1.71q5.37-1,18.06-2.2,33.69-3.18,70.32-20.28,70.31-33,120.11-100.7,31-42,31-59.4,0-12-10.5-23t-22.46-11q-14.16,0-46.63,14.66-35.66,16.14-35.65,28.36,0,1.21,8.37,9.53a71.86,71.86,0,0,1,15.25,22q8.37,18.81,8.37,45.21,0,7.33-3.72,19.31-4.47,14.43-9.92,14.42l-2.23-2,1.71-14.4q0-9.76-20.27-35.51t-20.26-40.63q0-5.37,7.81-26.36,7.32-20,11.72-27.33,8.05-13.67,47.36-32.46Q381.35,262,399.66,262q14.16,0,23.92,14.65A48.23,48.23,0,0,1,432.37,304.2Z"/>
        <path d="M595.7,374.27l-12.45,46.8q-19.53,13.26-39.55,13.26-27.59,0-37.84-30.95-5.62-17.4-6.59-53.77l-1.84-73.73q-2.07-83-2.07-84.47,0-3.18,5.89-20.76t8.05-20.5h1.44q.74,42.24,2.93,126.22.24,23.43,5.13,69.33,9.76,47.13,37.35,47.12Q576.66,392.82,595.7,374.27Z"/>
        <path d="M653.81,98.63q-5.13,16.61-14.16,21l-85.45,42q3.9-15.13,22.95-24.66Z"/>
        <path d="M693.12,374l-12.46,46.39q-6.1,4.15-22,13.18a124.28,124.28,0,0,0-44.43,43.22q-17.1,27.82-17.09,59.32A109,109,0,0,1,585,553.71q-15.87-23.19-15.87-60.55,0-29.3,24.66-115.72,12.69-14.88,26.86-30.76a45.78,45.78,0,0,1,.73,8.3q0,12.94-9,30.76Q604.24,402.1,594,412.35q-9.27,39.79-9.27,55.91,0,16.61,4.64,22,6-22,23.43-48.58,15.63-23.92,36.38-38.82Z"/>
        <path d="M718.75,24.41q0,19-15.07,35.4T669.51,76.17q-20.1,0-20.1-17.58,0-19.77,14-38.33Q678.56,0,697.68,0q8.58,0,15.19,8.06A26.1,26.1,0,0,1,718.75,24.41ZM702.88,40.59q0-5.94-8-12.9T681,20.75q-7.37,0-13.38,6.7t-6,14.13q0,10.67,19.16,10.67Q702.88,52.25,702.88,40.59Z"/>
        <path d="M765.87,220.46q0,68.85-17.33,113.77-21,53.72-71.78,88.87L689,377.44q62.26-49.8,62.26-100.1,0-37.59-23.68-91.06-4.59,23.92-13.77,71.53-3.87,20.51-6.52,20.51l-2.18-.73-.48-3.18q0-19.77,10.21-74.21,10.71-58.84,18.48-67.63,13.38,8.3,23.59,40.28Q765.87,200.45,765.87,220.46Z"/>
        <path d="M813.72,13.18q-5.13,16.61-14.16,21l-85.45,42Q718,61,737.06,51.51Z"/>
        <path d="M818.12,93.75q0-7.32-8.79-7.32-12.21,0-12.21-3.42,0-6.11,7.32-6.11a12,12,0,0,1,4.89,1q2.43-1.69,6.95-10.28t5.25-12.2a15.14,15.14,0,0,0-5.4-1.69q-10.32,0-23.82,17.82t-13.5,28.32q0,9.53,9.65,9.28c5.11-.16,7.92.25,8.41,1.22q-3.9,5.37-25.63,13.43L741.45,134c0,2,1.06,2.93,3.18,2.93q20.5,0,44.92-11.47Q818.11,111.82,818.12,93.75Z"/>
        <path d="M885.8,215.09a525.35,525.35,0,0,0-44.78-103q-15.09,45.41-15.09,136,0,48.82,8,50.29,5.54-2.68,5.54-28.08,0-13.67,6.27-60.54Q858,232.91,872.22,272q16.21,44.68,16.21,63,0,25.64-15.38,50.78Q864,400.64,839.6,428L818.36,450.2q-12.45,13.43-17.82,24.41a2.11,2.11,0,0,0,2.43,1.95q2.19,0,10.23-2.93,57-20.75,75.75-54.93,15.84-28.56,15.84-93.5Q904.79,275.88,885.8,215.09Z"/>
      </g>
    </g>
  </g>
</svg>
