<svg xmlns="http://www.w3.org/2000/svg" viewBox="0 0 855.61 664.06">
  <title>EH-Asset 96-layername</title>
  <g id="Layer_2" data-name="Layer 2">
    <g id="ElBediu">
      <g>
        <path d="M104.64,68.11q0,18-16.4,39.52l7.47,7.31L87.17,139.1a169.58,169.58,0,0,1-16.12-12.74q-37.84,35.27-57.62,35.26-3.91,0-13.43-2.93,29.79-14.4,62.26-38.08-9.63-9.28-9.62-16.36,0-12.69,13.85-29.67t26-17Q104.64,57.62,104.64,68.11ZM85.11,89.63q0-11.25-9.67-11.26l-3.72,1.47A10.94,10.94,0,0,0,69,87.18q0,4.91,11.65,14.45Q85.11,94,85.11,89.63Z"/>
        <path d="M266.41,373.85,254,420.36q-31.5,19.09-51.52,19.09-24.67,0-36.64-31.43L89.56,465.24Q28.21,511.44,28.22,519q0,10.28,33.69,10.27,44.93,0,106.45-24.42,57.85-23.19,95.95-53.46h1.22q-2.94,15.16-60.55,56.75-31.74,23-77.39,41.84-51,21-84,21-41,0-41-18.57,0-36.66,65.18-92.61,26.13-22.25,93.75-69.16-.74-11.47-2.2-15.64-2.94-8.79-11.5-9.53-11-1-11-3.18,0-5.61,6.09-20.64t10.23-20.17q3.41-4.4,23.63-8.06,17.05-2.93,26.8-2.93,24.6,0,24.6,15.09,0,21.42-40.13,61.11,7.8,11,34.67,11Q235.88,397.71,266.41,373.85Z"/>
        <path d="M403.47,601.07q-5.13,16.6-14.16,21l-85.45,42q3.9-15.13,22.95-24.66Z"/>
        <path d="M569.48,373.54,557,420A173.64,173.64,0,0,1,529,436q-19.77,9.33-29.78,9.33-27.1,0-27.1-40.77a112.58,112.58,0,0,1,1.46-15.87h-1.95q-1.47,0-7,6.72T443.5,431.15q-36.86,68.61-68.6,84.23-18.56,9-32.47,11.48-10.5,1.95-34.67,1.95a266.28,266.28,0,0,1-27.59-2q-21.24-2.49-24.9-5.49l.73-1.5,3.42-2q36.87,0,60.06-7.57t52.74-29.54q31.72-23.43,44.92-42.72,16.85-27.35,33.69-54.93,24.93-38.58,38.82-44.68l2.44,2.2.49,2.44q-.74,2.44-2.2,10.25a131.49,131.49,0,0,0-2.44,25.39q0,26.13,21.73,26.13Q531.89,404.79,569.48,373.54Z"/>
        <path d="M625.15,159.67q-5.13,16.61-14.17,21l-85.44,42q3.9-15.14,22.94-24.66Z"/>
        <path d="M669.58,24.41q0,19-15.07,35.4T620.33,76.17q-20.08,0-20.09-17.58,0-19.77,14-38.33Q629.39,0,648.51,0q8.57,0,15.19,8.06A26.1,26.1,0,0,1,669.58,24.41ZM653.71,40.59q0-5.94-8-12.9t-13.88-6.94q-7.36,0-13.38,6.7t-6,14.13q0,10.67,19.16,10.67Q653.71,52.25,653.71,40.59Z"/>
        <path d="M716.7,220.46q0,68.85-17.34,113.77-21,53.72-71.77,88.87l12.2-45.66q62.26-49.8,62.26-100.1,0-37.59-23.68-91.06-4.59,23.92-13.77,71.53-3.87,20.51-6.52,20.51l-2.18-.73-.48-3.18q0-19.77,10.21-74.21,10.7-58.84,18.48-67.63,13.38,8.3,23.59,40.28Q716.7,200.45,716.7,220.46Z"/>
        <path d="M764.55,13.18q-5.13,16.61-14.16,21l-85.45,42q3.9-15.14,22.95-24.66Z"/>
        <path d="M265.82,288.82q-7.36,18.07-9.57,32.71l.49,1.71,2.68-.24a43.89,43.89,0,0,1,10.26-13.43q11,12.71,11,38.09V353q-8.3,16.85-17.58,23.68l-12.45,45.9q29-24.42,39.76-69.34,8.34-34.9,8.34-42,0-28.08-15-49.32Q274.66,267.09,265.82,288.82Z"/>
        <path d="M236.72,483.89Q221.57,514.16,221.58,522l.24,1.71q16.37-5.61,38.09-20.51,25.88-17.57,28.56-30.27l3.91-18.8Q258.19,474.6,256,475.34A196.09,196.09,0,0,0,236.72,483.89Z"/>
        <path d="M560.45,467.53q-21,32.22-22,34.42L560,516.85q11-10,22.7-33Q582.66,475.6,560.45,467.53Z"/>
        <path d="M587.79,401.37q-10,0-14.16-2.69,19.05-26.12,19-43.94a42.43,42.43,0,0,0-.73-8.3q-13.68,15.62-26.85,30.76l-12.21,45.32,6.59-5.17q9.76,18,30.76,17.95,19.78,0,40.29-15L643,373.78q-9.76,9.77-25.64,18.31Q599.51,401.38,587.79,401.37Z"/>
        <path d="M836.63,215.09a525.35,525.35,0,0,0-44.78-103q-15.11,45.41-15.09,136,0,48.82,8,50.29,5.55-2.68,5.55-28.08,0-13.67,6.27-60.54Q808.8,232.91,823.05,272q16.2,44.68,16.21,63,0,25.64-15.38,50.78-9,14.89-33.45,42.24L769.19,450.2q-12.45,13.43-17.82,24.41a2.11,2.11,0,0,0,2.43,1.95q2.19,0,10.23-2.93,57-20.75,75.75-54.93,15.83-28.56,15.83-93.5Q855.61,275.88,836.63,215.09Z"/>
        <path d="M768.94,93.75q0-7.32-8.79-7.32-12.21,0-12.2-3.42,0-6.11,7.32-6.11a11.88,11.88,0,0,1,4.88,1q2.45-1.69,7-10.28t5.25-12.2a15.19,15.19,0,0,0-5.4-1.69q-10.32,0-23.82,17.82t-13.5,28.32q0,9.53,9.65,9.28,7.66-.24,8.41,1.22-3.91,5.37-25.64,13.43L692.28,134c0,2,1.06,2.93,3.17,2.93q20.52,0,44.93-11.47Q768.94,111.82,768.94,93.75Z"/>
      </g>
    </g>
  </g>
</svg>
