<?xml version="1.0" encoding="utf-8"?>
<!-- Generator: Adobe Illustrator 22.1.0, SVG Export Plug-In . SVG Version: 6.00 Build 0)  -->
<svg version="1.1" id="Layer_1" xmlns="http://www.w3.org/2000/svg" xmlns:xlink="http://www.w3.org/1999/xlink" x="0px" y="0px"
	 viewBox="0 0 855.6 664.1" style="enable-background:new 0 0 855.6 664.1;" xml:space="preserve">
<title>EH-Asset 96-layername</title>
<g id="Layer_2_1_">
	<g id="ElBediu">
		<g>
			<path d="M104.6,68.1c0-7-4-10.5-12.2-10.5c-7.7,0-15.9,5.1-24.6,15.4c1.5,2.1,2.9,4.4,4.1,6.8l3.5-1.4c6.4,0,9.7,3.8,9.7,11.3
				c0,2.9-1.5,6.9-4.5,12C72.9,95.3,69,90.5,69,87.2c0-2.7,0.9-5.3,2.7-7.3l0.2-0.1c-1.2-2.4-2.5-4.7-4.1-6.8
				c-0.5,0.5-0.9,1.1-1.4,1.6c-9.2,11.3-13.8,21.2-13.8,29.7c0,4.7,3.2,10.2,9.6,16.4C40.6,136.4,19.9,149.1,0,158.7
				c6.3,2,10.8,2.9,13.4,2.9c13.2,0,32.4-11.7,57.6-35.3c5.1,4.6,10.5,8.8,16.1,12.7l8.5-24.2l-7.5-7.3
				C99.2,93.3,104.6,80.1,104.6,68.1z"/>
			<path d="M266.4,373.9L254,420.4c-21,12.7-38.2,19.1-51.5,19.1c-16.4,0-28.7-10.5-36.6-31.4l-76.3,57.2
				C48.7,496,28.2,514,28.2,519c0,6.9,11.2,10.3,33.7,10.3c30,0,65.4-8.1,106.4-24.4c38.6-15.5,70.6-33.3,96-53.5h1.2
				c-2,10.1-22.1,29-60.6,56.8c-21.2,15.3-47,29.3-77.4,41.8c-34,14-62,21-84,21c-27.3,0-41-6.2-41-18.6c0-24.4,21.7-55.3,65.2-92.6
				c17.4-14.8,48.7-37.9,93.7-69.2c-0.5-7.6-1.2-12.9-2.2-15.6c-2-5.9-5.8-9-11.5-9.5c-7.3-0.7-11-1.7-11-3.2c0-3.7,2-10.6,6.1-20.6
				s7.5-16.7,10.2-20.2c2.3-2.9,10.2-5.6,23.6-8.1c11.4-2,20.3-2.9,26.8-2.9c16.4,0,24.6,5,24.6,15.1c0,14.3-13.4,34.6-40.1,61.1
				c5.2,7.3,16.8,11,34.7,11C231.5,397.7,246.1,389.8,266.4,373.9z"/>
			<path d="M403.5,601.1c-3.4,11.1-8.1,18.1-14.2,21l-85.5,42c2.6-10.1,10.3-18.3,23-24.7L403.5,601.1z"/>
			<path d="M569.5,373.5L557,420c-8.8,6.2-18.2,11.5-28,16c-13.2,6.2-23.1,9.3-29.8,9.3c-18.1,0-27.1-13.6-27.1-40.8
				c0.1-5.3,0.6-10.6,1.5-15.9h-2c-1,0-3.3,2.2-7,6.7c-3.7,4.5-10.7,16.4-21.1,35.7c-24.6,45.7-47.4,73.8-68.6,84.2
				c-12.4,6-23.2,9.8-32.5,11.5c-7,1.3-18.6,2-34.7,2c-9.2-0.2-18.4-0.9-27.6-2c-14.2-1.7-22.5-3.5-24.9-5.5l0.7-1.5l3.4-2
				c24.6,0,44.6-2.5,60.1-7.6c15.5-5,33-14.9,52.7-29.5c21.1-15.6,36.1-29.9,44.9-42.7c11.2-18.2,22.5-36.5,33.7-54.9
				c16.6-25.7,29.6-40.6,38.8-44.7l2.4,2.2l0.5,2.4c-0.5,1.6-1.2,5-2.2,10.3c-1.6,8.4-2.5,16.9-2.4,25.4c0,17.4,7.2,26.1,21.7,26.1
				C524.5,404.8,544.4,394.4,569.5,373.5z"/>
			<path d="M625.2,159.7c-3.4,11.1-8.1,18.1-14.2,21l-85.4,42c2.6-10.1,10.2-18.3,22.9-24.7L625.2,159.7z"/>
			<path d="M663.7,8.1c-4.4-5.4-9.5-8.1-15.2-8.1c-12.7,0-24.2,6.8-34.3,20.3c-2.9,3.8-5.3,7.7-7.3,11.5c2.5,0.4,5.1,0.9,7.6,1.3
				c1-1.9,2.3-3.8,3.9-5.7c4-4.5,8.5-6.7,13.4-6.7c3.9,0,8.5,2.3,13.9,6.9c5.3,4.6,8,8.9,8,12.9c0,7.8-7.4,11.7-22.1,11.7
				c-12.8,0-19.2-3.6-19.2-10.7c0-2.9,0.7-5.7,2.1-8.5c-2.5-0.5-5-0.9-7.6-1.3c-4.5,8.7-6.7,17.7-6.7,26.8
				c0,11.7,6.7,17.6,20.1,17.6c12.7,0,24.1-5.4,34.2-16.4s15.1-22.7,15.1-35.4C669.5,18.4,667.5,12.7,663.7,8.1z"/>
			<path d="M716.7,220.5c0,45.9-5.8,83.8-17.3,113.8c-14,35.8-37.9,65.4-71.8,88.9l12.2-45.7c41.5-33.2,62.3-66.6,62.3-100.1
				c0-25.1-7.9-55.4-23.7-91.1c-3.1,15.9-7.7,39.8-13.8,71.5c-2.6,13.7-4.8,20.5-6.5,20.5l-2.2-0.7l-0.5-3.2
				c0-13.2,3.4-37.9,10.2-74.2c7.1-39.2,13.3-61.8,18.5-67.6c8.9,5.5,16.8,19,23.6,40.3C713.7,191.3,716.7,207.1,716.7,220.5z"/>
			<path d="M764.5,13.2c-3.4,11.1-8.1,18.1-14.2,21l-85.5,42c2.6-10.1,10.3-18.3,23-24.7L764.5,13.2z"/>
			<path d="M265.8,288.8c-4.9,12-8.1,23-9.6,32.7l0.5,1.7l2.7-0.2c2.5-5.1,6-9.7,10.3-13.4c7.3,8.5,11,21.2,11,38.1v5.3
				c-5.5,11.2-11.4,19.1-17.6,23.7l-12.4,45.9c19.3-16.3,32.6-39.4,39.8-69.3c5.6-23.3,8.3-37.3,8.3-42c0-18.7-5-35.2-15-49.3
				C277.7,265.4,271.7,274.3,265.8,288.8z"/>
			<path d="M236.7,483.9c-10.1,20.2-15.1,32.9-15.1,38.1l0.2,1.7c10.9-3.7,23.6-10.6,38.1-20.5c17.3-11.7,26.8-21.8,28.6-30.3
				l3.9-18.8c-22.8,13.6-34.9,20.7-36.4,21.2C249.4,477.8,243,480.7,236.7,483.9z"/>
			<path d="M560.5,467.5c-14,21.5-21.3,33-22,34.4l21.5,14.9c7.3-6.7,14.9-17.7,22.7-33C582.7,478.4,575.3,472.9,560.5,467.5z"/>
			<path d="M587.8,401.4c-6.7,0-11.4-0.9-14.2-2.7c12.7-17.4,19-32.1,19-43.9c0-2.8-0.2-5.6-0.7-8.3c-9.1,10.4-18.1,20.7-26.8,30.8
				l-12.2,45.3l6.6-5.2c6.5,12,16.8,18,30.8,18c13.2,0,26.6-5,40.3-15l12.5-46.5c-6.5,6.5-15.1,12.6-25.6,18.3
				C605.5,398.3,595.6,401.4,587.8,401.4z"/>
			<path d="M836.6,215.1c-11.2-35.8-26.2-70.4-44.8-103c-10.1,30.3-15.1,75.6-15.1,136c0,32.5,2.7,49.3,8,50.3
				c3.7-1.8,5.5-11.1,5.5-28.1c0-9.1,2.1-29.3,6.3-60.5c8.1,15.4,17,36.2,26.5,62.2c10.8,29.8,16.2,50.8,16.2,63
				c0,17.1-5.1,34-15.4,50.8c-6,9.9-17.2,24-33.5,42.2l-21.2,22.2c-8.3,9-14.2,17.1-17.8,24.4c0.1,1.2,1.1,2,2.2,2
				c0.1,0,0.1,0,0.2,0c1.5,0,4.9-1,10.2-2.9c38-13.8,63.3-32.1,75.8-54.9c10.6-19,15.8-50.2,15.8-93.5
				C855.6,292.3,849.3,255.6,836.6,215.1z"/>
			<path d="M768.9,93.8c0-4.9-2.9-7.3-8.8-7.3c-8.1,0-12.2-1.1-12.2-3.4c0-4.1,2.4-6.1,7.3-6.1c1.7,0,3.3,0.3,4.9,1
				c1.6-1.1,4-4.6,7-10.3c3-5.7,4.8-9.8,5.3-12.2c-1.7-0.9-3.5-1.5-5.4-1.7c-6.9,0-14.8,5.9-23.8,17.8s-13.5,21.3-13.5,28.3
				c0,6.4,3.2,9.4,9.7,9.3c5.1-0.2,7.9,0.2,8.4,1.2c-2.6,3.6-11.2,8.1-25.6,13.4L692.3,134c0,2,1.1,2.9,3.2,2.9
				c13.7,0,28.7-3.8,44.9-11.5C759.4,116.4,768.9,105.8,768.9,93.8z"/>
		</g>
	</g>
</g>
</svg>
