<svg xmlns="http://www.w3.org/2000/svg" viewBox="0 0 1216.94 664.06">
  <title>EH-Asset 98-layername</title>
  <g id="Layer_2" data-name="Layer 2">
    <g id="ElWaris">
      <g>
        <path d="M104.64,68.11q0,18-16.4,39.52l7.47,7.31L87.17,139.1a169.58,169.58,0,0,1-16.12-12.74q-37.84,35.27-57.62,35.26-3.91,0-13.43-2.93,29.79-14.4,62.26-38.08-9.63-9.28-9.62-16.36,0-12.69,13.85-29.67t26-17Q104.64,57.62,104.64,68.11ZM85.11,89.63q0-11.25-9.67-11.26l-3.72,1.47A10.94,10.94,0,0,0,69,87.18q0,4.91,11.65,14.45Q85.11,94,85.11,89.63Z"/>
        <path d="M506.74,601.07q-5.13,16.6-14.16,21l-85.45,42q3.9-15.13,22.95-24.66Z"/>
        <path d="M634.18,297.51q0,26.22-8.06,27.69l-6.59-8.06q-6.84.24-11.23,8.07-12,20.78-25.39,54.26-11,28.11-22,56-9.29,22-28.57,43.51-20.5,23-40.77,32-23,10.51-63.23,10.51-60.8,0-62.75-6.29l2.44-1.76q51.27,0,95.22-21.95,45.64-22.92,73.24-64.63,14.9-22.68,32-60.24L591,316.37q19-37.8,29.54-37.81,5.85,0,10,6.81A22.49,22.49,0,0,1,634.18,297.51Z"/>
        <path d="M782.37,325.2q0,64.94-15.63,93.5-18.79,34.19-75.92,54.93-8.05,2.94-10.26,2.93a2.12,2.12,0,0,1-2.44-1.95q5.37-11,17.83-24.41L717.19,428q24.4-27.35,33.44-42.24Q766,360.6,766,335q0-18.31-16.2-63-14.25-39.06-26.52-62.25Q717,256.6,717,270.26q0,25.39-5.55,28.08-8-1.47-8-50.29,0-90.59,15.09-136a524.78,524.78,0,0,1,44.79,103Q782.37,275.89,782.37,325.2Z"/>
        <path d="M841.7,159.67q-5.13,16.61-14.16,21l-85.45,42Q746,207.52,765,198Z"/>
        <path d="M1015,373.78l-12.45,46.4Q987,432.65,946.19,450q-8.18,36.44-39.06,78-32.24,43.51-64.46,57.45-27.09,11.73-68.11,11.74-15.63,0-46.39-5.19-36.61-5.94-37.84-12.62l1.95-1.48q7.34.24,23.2,2.93,15.13,2.45,23.43,2.44,16.86,0,49.32-9.52Q858.79,553,910.55,491.94q18.06-21.24,20.5-37.11-21.24,5.87-28.56,5.86-22.22,0-22.22-14.65,0-15.37,12.45-38.81,13.92-26.13,27.59-26.13,12,0,21.36,9.28t9.4,21.24Q992.09,394.29,1015,373.78Z"/>
        <path d="M1030.91,24.41q0,19-15.07,35.4T981.66,76.17q-20.08,0-20.09-17.58,0-19.77,14-38.33Q990.72,0,1009.84,0q8.56,0,15.19,8.06A26.1,26.1,0,0,1,1030.91,24.41ZM1015,40.59q0-5.94-8-12.9t-13.87-6.94q-7.36,0-13.39,6.7t-6,14.13q0,10.67,19.16,10.67Q1015,52.25,1015,40.59Z"/>
        <path d="M1078,220.46q0,68.85-17.34,113.77-21,53.72-71.78,88.87l12.21-45.66q62.27-49.8,62.26-100.1,0-37.59-23.68-91.06-4.59,23.92-13.78,71.53-3.86,20.51-6.51,20.51l-2.18-.73-.48-3.18q0-19.77,10.21-74.21,10.69-58.84,18.48-67.63,13.38,8.3,23.59,40.28Q1078,200.45,1078,220.46Z"/>
        <path d="M1125.88,13.18q-5.13,16.61-14.16,21l-85.45,42q3.9-15.14,23-24.66Z"/>
        <path d="M225.49,245.88a101.15,101.15,0,0,1,21-22.72q15.63-12.47,24.17-12.47,6.35,0,8.3,5c1.3,3.34,2.61,5,3.91,5q5.86,0,15.38-13.5,9.27-12.77,9.28-19.14,0-15-18.07-15-20.74,0-51,40.15-29.3,39.18-28.81,61.22Q217.68,260.06,225.49,245.88Z"/>
        <path d="M425.44,285.22q-29.79,33-59.33,66Q300.68,422.54,266,451.37q-69.57,58.15-122.55,58.15-40.29,0-65.19-25.77T53.37,417.4q0-46.9,42.72-79.89,32.72-25.17,76.66-33.23,18.08-3.43,85.7-7.09,75.44-4.15,81.54-9l-.25-2.69H230.13q-49.57,0-77.64,6.84-39.56,9.76-67.63,37.34Q35.3,377.73,35.3,448.75q0,43,28.81,71.77t71.53,28.8q64,0,135.75-63.22,37.1-33,108.39-119.37,36.14-43.69,61.28-63.47,10.5-13.17,8.79-33.92Q427.64,283,425.44,285.22Z"/>
        <path d="M1130.27,93.75q0-7.32-8.79-7.32-12.21,0-12.2-3.42,0-6.11,7.32-6.11a11.88,11.88,0,0,1,4.88,1q2.44-1.69,7-10.28t5.25-12.2a15.25,15.25,0,0,0-5.4-1.69q-10.32,0-23.82,17.82T1091,99.85q0,9.53,9.65,9.28,7.67-.24,8.41,1.22-3.91,5.37-25.64,13.43L1053.61,134c0,2,1.05,2.93,3.17,2.93q20.51,0,44.92-11.47Q1130.28,111.82,1130.27,93.75Z"/>
        <path d="M1198,215.09a525.35,525.35,0,0,0-44.78-103q-15.11,45.41-15.1,136,0,48.82,8,50.29,5.55-2.68,5.55-28.08,0-13.67,6.27-60.54,12.27,23.19,26.52,62.25,16.2,44.68,16.2,63,0,25.64-15.38,50.78-9,14.89-33.44,42.24l-21.24,22.22q-12.45,13.43-17.83,24.41a2.12,2.12,0,0,0,2.44,1.95q2.19,0,10.23-2.93,57-20.75,75.75-54.93,15.83-28.56,15.83-93.5Q1216.94,275.88,1198,215.09Z"/>
      </g>
    </g>
  </g>
</svg>
