<?xml version="1.0" encoding="utf-8"?>
<!-- Generator: Adobe Illustrator 22.1.0, SVG Export Plug-In . SVG Version: 6.00 Build 0)  -->
<svg version="1.1" id="Layer_1" xmlns="http://www.w3.org/2000/svg" xmlns:xlink="http://www.w3.org/1999/xlink" x="0px" y="0px"
	 viewBox="0 0 1132.5 622.1" style="enable-background:new 0 0 1132.5 622.1;" xml:space="preserve">
<title>EH-Asset 17-layername</title>
<g id="Layer_2_1_">
	<g id="ElVehab">
		<g>
			<path d="M104.6,129.1c0-7-4-10.5-12.2-10.5c-6.9,0-14.3,4.2-22.1,12.5c1.6,2.8,3,5.6,4.2,8.6l0.9-0.3c6.4,0,9.7,3.8,9.7,11.3
				c0,2.9-1.5,6.9-4.5,12c-7.8-6.4-11.7-11.2-11.7-14.5c0-2.7,0.9-5.3,2.7-7.3l2.9-1.1c-1.2-3-2.6-5.8-4.2-8.6
				c-1.3,1.4-2.6,2.9-3.9,4.5c-9.2,11.3-13.8,21.2-13.8,29.7c0,4.7,3.2,10.2,9.6,16.4C40.6,197.4,19.9,210.1,0,219.7
				c6.3,2,10.8,2.9,13.4,2.9c13.2,0,32.4-11.8,57.6-35.3c5.1,4.6,10.5,8.8,16.1,12.8l8.5-24.1l-7.5-7.3
				C99.2,154.4,104.6,141.2,104.6,129.1z"/>
			<path d="M449.9,269.5c-14.8,9.1-23,14.4-24.4,15.9c-19.9,22-39.6,44-59.3,65.9c-43.6,47.5-77,80.9-100.1,100.1
				c-46.4,38.7-87.2,58.1-122.6,58.1c-26.9,0-48.6-8.6-65.2-25.8s-24.9-39.3-24.9-66.3c0-31.2,14.2-57.9,42.7-79.8
				c21.8-16.8,47.4-27.8,76.7-33.2c12.1-2.3,40.6-4.6,85.7-7.1c50.3-2.8,77.5-5.8,81.5-9l-0.3-2.7H230.1c-33,0-58.9,2.3-77.6,6.8
				c-26.4,6.5-48.9,19-67.6,37.4c-33,32-49.6,71.8-49.6,119.1c0,28.7,9.6,52.6,28.8,71.7s43,28.7,71.5,28.7c42.7,0,87.9-21,135.7-63
				c24.7-22,60.9-61.8,108.4-119.4c24.1-29.1,44.5-50.3,61.3-63.5C448.1,294.7,451,283.4,449.9,269.5z"/>
			<path d="M127.6,579.1c-3.3-1.8-7.7-3.9-13.2-6.3l-22,34.7l22,14.7c10.7-14.2,18.3-25.2,22.7-33
				C137.1,586.2,133.9,582.8,127.6,579.1z"/>
			<path d="M593.7,374.3l-12.5,46.8c-13,8.8-26.2,13.3-39.5,13.3c-18.4,0-31-10.3-37.8-31c-3.7-11.6-5.9-29.5-6.6-53.8l-1.8-73.7
				c-1.4-55.3-2.1-83.5-2.1-84.5c0-2.1,2-9,5.9-20.8c3.9-11.7,6.6-18.6,8-20.5h1.4c0.5,28.2,1.5,70.2,2.9,126.2
				c0.2,15.6,1.9,38.7,5.1,69.3c6.5,31.4,19,47.1,37.3,47.1C567.8,392.8,581,386.6,593.7,374.3z"/>
			<path d="M620.5,120.8c-6.2,0-9.3-5.9-9.3-17.8l-5.9,1.5C593,126.2,583,137,575.3,137c-5.7,0-8.5-3.8-8.5-11.5l0.7-7.6l-8.5,4.6
				c-4.6,12.4-6.8,20.8-6.8,25.3c0,9.2,4.7,13.8,14.2,13.8c10.9,0,21.3-7.1,31.1-21.1c5.9,4.2,10.7,6.3,14.4,6.3
				c11.8,0,21.5-7.1,29.1-21.2c5.7-10.4,9.4-22.6,11-36.6l-7.6,2.2C637.9,110.9,630,120.8,620.5,120.8z"/>
			<path d="M658.1,65.2l-69.6,24.4c-10.9,3.8-19.9,11.2-27.1,22.5l79.8-28.3C647.8,81.5,653.4,75.3,658.1,65.2z"/>
			<path d="M677.4,182.6c-25,0-45.6,16-61.9,47.8c-13.7,26.7-20.5,54-20.5,81.8c0,5.3,0.2,10.6,0.7,15.9l1.7-0.3
				c3.1-17.6,5.3-30.8,6.6-39.5c2.6-12.8,9.4-26.2,20.3-40c12.4-15.5,24.3-23.2,35.9-23.2c9.8,0,17.7,5.2,23.9,15.8
				c5.3,8.9,8.1,19.1,8.1,29.4c0,7-3,14.8-9,23.4c-5.5,7.8-11.5,13.8-18,18.1l2.6-9.5c-4.7,4.9-9.2,10.2-14.7,13
				c0.3,1.2,0.4,2.4,0.4,3.7h0c-5.2,5.7-10.4,8.5-15.7,8.5c-7.1,0-10.6-3.8-10.6-11.5c0-2.9,1.4-6.2,4.1-9.6
				c2.7-3.5,5.5-5.2,8.2-5.2c3.7,0,7,2,9.8,6c1.9,2.7,3.2,5.5,3.8,8.2c5.5-2.8,10-8.1,14.7-13l3.6-13.4c-0.1-6-1.5-11.9-3.9-17.3
				c-3.1-7.5-7-11.2-11.5-11.2c-11.3,0-22.1,11.2-32.6,33.7c-9.3,19.9-14,36.5-14,49.8c-0.2,4.5,1.1,9,3.7,12.7
				c-6.4,7.3-13.4,14-21,20l-12.5,45.9c42.5-31.9,65.3-56.2,68.4-72.8c6-2.1,14-8.4,24-19c25.8-27.3,38.7-58.3,38.7-93
				C710.6,201,699.5,182.6,677.4,182.6z"/>
			<path d="M757.2,159.7c-3.4,11.1-8.1,18.1-14.2,21l-85.4,42c2.6-10.1,10.2-18.3,22.9-24.7L757.2,159.7z"/>
			<path d="M930.6,373.8l-12.5,46.4c-10.4,8.3-29.2,18.3-56.4,29.8c-5.5,24.3-18.5,50.3-39.1,78c-21.5,29-43,48.2-64.5,57.5
				c-18.1,7.8-40.8,11.7-68.1,11.7c-10.4,0-25.9-1.7-46.4-5.2c-24.4-4-37-8.2-37.8-12.6l2-1.5c4.9,0.2,12.6,1.1,23.2,2.9
				c10.1,1.6,17.9,2.4,23.4,2.4c11.2,0,27.7-3.2,49.3-9.5c47-13.8,87.8-41.1,122.3-81.8c12-14.2,18.9-26.5,20.5-37.1
				c-14.2,3.9-23.7,5.9-28.6,5.9c-14.8,0-22.2-4.9-22.2-14.6c0-10.2,4.1-23.2,12.5-38.8c9.3-17.4,18.5-26.1,27.6-26.1
				c8,0,15.1,3.1,21.3,9.3s9.4,13.3,9.4,21.2C893.9,400.1,915.3,387.5,930.6,373.8z"/>
			<path d="M940.6,8.1c-4.4-5.4-9.5-8.1-15.2-8.1c-12.7,0-24.2,6.8-34.3,20.3c-1.5,2-2.9,4.1-4.2,6.2c2.2,1.1,4.4,2.2,6.6,3.3
				c0.5-0.7,1.1-1.5,1.8-2.2c4-4.5,8.5-6.7,13.4-6.7c3.9,0,8.5,2.3,13.9,6.9c5.3,4.6,8,8.9,8,12.9c0,7.8-7.4,11.7-22.1,11.7
				c-12.8,0-19.2-3.6-19.2-10.7c0-4.1,1.4-8.1,4.2-11.9c-2.2-1.1-4.4-2.2-6.6-3.3c-6.5,10.4-9.8,21.2-9.8,32.2
				c0,11.7,6.7,17.6,20.1,17.6c12.7,0,24.1-5.4,34.2-16.4s15.1-22.7,15.1-35.4C946.4,18.5,944.3,12.7,940.6,8.1z"/>
			<path d="M993.5,220.5c0,45.9-5.8,83.8-17.3,113.8c-14,35.8-37.9,65.4-71.8,88.9l12.2-45.7c41.5-33.2,62.3-66.6,62.3-100.1
				c0-25.1-7.9-55.4-23.7-91.1c-3.1,15.9-7.6,39.8-13.8,71.5c-2.6,13.7-4.8,20.5-6.5,20.5l-2.2-0.7l-0.5-3.2
				c0-13.2,3.4-37.9,10.2-74.2c7.1-39.2,13.3-61.8,18.5-67.6c8.9,5.5,16.8,19,23.6,40.3C990.5,191.3,993.5,207.1,993.5,220.5z"/>
			<path d="M1041.4,13.2c-3.4,11.1-8.1,18.1-14.2,21l-85.4,42c2.6-10.1,10.2-18.3,22.9-24.7L1041.4,13.2z"/>
			<g>
				<path d="M1045.8,93.8c0-4.9-2.9-7.3-8.8-7.3c-8.1,0-12.2-1.1-12.2-3.4c0-4.1,2.4-6.1,7.3-6.1c1.7,0,3.3,0.3,4.9,1
					c1.6-1.1,4-4.6,7-10.3c3-5.7,4.8-9.8,5.3-12.2c-1.7-0.9-3.5-1.5-5.4-1.7c-6.9,0-14.8,5.9-23.8,17.8c-9,11.9-13.5,21.3-13.5,28.3
					c0,6.4,3.2,9.4,9.7,9.3c5.1-0.2,7.9,0.3,8.4,1.2c-2.6,3.6-11.2,8.1-25.6,13.4L969.1,134c0,2,1,2.9,3.2,2.9
					c13.7,0,28.6-3.8,44.9-11.5C1036.3,116.4,1045.8,105.8,1045.8,93.8z"/>
				<path d="M1113.5,215.1c-11.2-35.8-26.2-70.4-44.8-103c-10.1,30.3-15.1,75.6-15.1,136c0,32.5,2.7,49.3,8,50.3
					c3.7-1.8,5.6-11.1,5.6-28.1c0-9.1,2.1-29.3,6.3-60.5c8.2,15.5,17,36.2,26.5,62.3c10.8,29.8,16.2,50.8,16.2,63
					c0,17.1-5.1,34-15.4,50.8c-6,9.9-17.2,24-33.4,42.2l-21.3,22.2c-8.3,9-14.2,17.1-17.8,24.4c0.2,1.3,1,2,2.4,2s4.9-1,10.2-2.9
					c38-13.8,63.3-32.1,75.8-54.9c10.6-19,15.8-50.2,15.8-93.5C1132.5,292.3,1126.1,255.6,1113.5,215.1z"/>
			</g>
		</g>
	</g>
</g>
</svg>
