<svg xmlns="http://www.w3.org/2000/svg" viewBox="0 0 1132.47 622.07">
  <title>EH-Asset 17-layername</title>
  <g id="Layer_2" data-name="Layer 2">
    <g id="ElVehab">
      <g>
        <path d="M104.64,129.14q0,18.06-16.4,39.52L95.71,176l-8.54,24.15A169.73,169.73,0,0,1,71.05,187.4q-37.84,35.25-57.62,35.26-3.91,0-13.43-2.93,29.79-14.4,62.26-38.09-9.63-9.27-9.62-16.36,0-12.69,13.85-29.66t26-17Q104.64,118.65,104.64,129.14ZM85.11,150.67q0-11.26-9.67-11.27l-3.72,1.47A11,11,0,0,0,69,148.22q0,4.91,11.65,14.45Q85.11,155.08,85.11,150.67Z"/>
        <path d="M449.85,269.53q-22.22,13.68-24.41,15.87-29.79,33-59.33,65.92-65.43,71.3-100.1,100.1-69.57,58.09-122.55,58.1-40.29,0-65.19-25.76t-24.9-66.28q0-46.87,42.72-79.83,32.72-25.15,76.66-33.21,18.08-3.4,85.7-7.08,75.44-4.14,81.54-9l-.25-2.69H230.13q-49.57,0-77.64,6.84-39.56,9.76-67.63,37.35Q35.3,377.93,35.3,449q0,43,28.81,71.66t71.53,28.69q64,0,135.74-63,37.11-33,108.4-119.39,36.14-43.69,61.28-63.47Q451.56,290.28,449.85,269.53Z"/>
        <path d="M127.59,579.1q-4.89-2.69-13.19-6.35l-22,34.67,22,14.65q16.11-21.24,22.71-33Q137.11,584.71,127.59,579.1Z"/>
        <path d="M593.65,374.27l-12.45,46.8q-19.53,13.26-39.55,13.26-27.6,0-37.84-30.95-5.62-17.38-6.59-53.77l-1.84-73.73q-2.07-83-2.07-84.47,0-3.18,5.89-20.76t8.05-20.5h1.44q.74,42.24,2.93,126.22.24,23.43,5.13,69.33,9.75,47.13,37.35,47.12Q574.61,392.82,593.65,374.27Z"/>
        <path d="M620.51,120.85q-9.28,0-9.28-17.82l-5.86,1.46Q586.82,137,575.34,137q-8.55,0-8.54-11.47l.73-7.57L559,122.56q-6.84,18.6-6.83,25.25,0,13.81,14.19,13.81,16.39,0,31.08-21.15,8.82,6.25,14.44,6.26,17.63,0,29.13-21.24,8.55-15.63,11-36.62l-7.57,2.19Q634.67,120.85,620.51,120.85Z"/>
        <path d="M658.1,65.19,588.52,89.6q-16.35,5.63-27.1,22.46l79.84-28.32Q651,80.32,658.1,65.19Z"/>
        <path d="M710.59,237.62q0,51.93-38.65,92.95-14.93,15.87-24,19-4.65,24.9-68.43,72.75L592,376.46a154.68,154.68,0,0,0,21-20,21,21,0,0,1-3.71-12.7q0-20,14-49.8,15.69-33.7,32.6-33.7,6.85,0,11.52,11.23a44.84,44.84,0,0,1,3.92,17.34l-6.19,22.95q9.71-6.34,18-18.07,9-12.93,9-23.44a57.44,57.44,0,0,0-8.06-29.4q-9.27-15.77-23.92-15.76-17.34,0-35.89,23.19-16.36,20.76-20.27,40-1.95,13.19-6.59,39.55l-1.71.25a144.77,144.77,0,0,1-.73-15.87q0-41.76,20.55-81.79,24.47-47.85,61.9-47.85Q710.59,182.62,710.59,237.62Zm-57.12,81.23q0-5.87-4.24-11.84t-9.8-6q-4.11,0-8.22,5.24t-4.11,9.65q0,11.47,10.64,11.47Q645.72,327.39,653.47,318.85Z"/>
        <path d="M757.23,159.67q-5.13,16.61-14.17,21l-85.44,42q3.9-15.14,22.94-24.66Z"/>
        <path d="M930.56,373.78l-12.45,46.4Q902.5,432.65,861.72,450q-8.18,36.44-39.07,78-32.22,43.51-64.45,57.45-27.09,11.73-68.11,11.74-15.63,0-46.39-5.19-36.62-5.94-37.84-12.61l1.95-1.49q7.32.24,23.19,2.93,15.15,2.45,23.44,2.44,16.84,0,49.32-9.52Q774.31,553,826.07,491.94q18.07-21.24,20.51-37.11-21.24,5.87-28.56,5.86-22.23,0-22.22-14.65,0-15.37,12.45-38.81,13.92-26.13,27.59-26.13,11.94,0,21.35,9.28t9.41,21.24Q907.61,394.29,930.56,373.78Z"/>
        <path d="M946.43,24.41q0,19-15.06,35.4T897.19,76.17q-20.1,0-20.09-17.58,0-19.77,14-38.33Q906.26,0,925.37,0q8.57,0,15.19,8.06A26.15,26.15,0,0,1,946.43,24.41ZM930.56,40.59q0-5.94-8-12.9t-13.87-6.94q-7.38,0-13.39,6.7t-6,14.13q0,10.67,19.15,10.67Q930.56,52.25,930.56,40.59Z"/>
        <path d="M993.55,220.46q0,68.85-17.33,113.77-21,53.72-71.78,88.87l12.21-45.66q62.25-49.8,62.25-100.1,0-37.59-23.68-91.06-4.59,23.92-13.77,71.53-3.87,20.51-6.52,20.51l-2.17-.73-.49-3.18q0-19.77,10.22-74.21,10.69-58.84,18.48-67.63,13.37,8.3,23.58,40.28Q993.55,200.45,993.55,220.46Z"/>
        <path d="M1041.4,13.18q-5.12,16.61-14.16,21l-85.44,42Q945.7,61,964.74,51.51Z"/>
        <g>
          <path d="M1045.8,93.75q0-7.32-8.79-7.32-12.21,0-12.21-3.42,0-6.11,7.33-6.11a11.88,11.88,0,0,1,4.88,1q2.43-1.69,7-10.28t5.25-12.2a15.25,15.25,0,0,0-5.4-1.69q-10.32,0-23.82,17.82t-13.51,28.32q0,9.53,9.65,9.28c5.12-.16,7.92.25,8.42,1.22q-3.91,5.37-25.64,13.43L969.14,134c0,2,1.05,2.93,3.17,2.93q20.51,0,44.92-11.47Q1045.79,111.82,1045.8,93.75Z"/>
          <path d="M1113.48,215.09a524.76,524.76,0,0,0-44.78-103q-15.09,45.41-15.09,136,0,48.82,8,50.29,5.55-2.68,5.55-28.08,0-13.67,6.27-60.54,12.27,23.19,26.52,62.25,16.2,44.68,16.2,63,0,25.64-15.38,50.78-9,14.89-33.45,42.24L1046,450.2q-12.45,13.43-17.82,24.41c.16,1.3,1,1.95,2.44,1.95s4.87-1,10.23-2.93q57-20.75,75.75-54.93,15.83-28.56,15.83-93.5Q1132.47,275.88,1113.48,215.09Z"/>
        </g>
      </g>
    </g>
  </g>
</svg>
