<?xml version="1.0" encoding="utf-8"?>
<!-- Generator: Adobe Illustrator 22.1.0, SVG Export Plug-In . SVG Version: 6.00 Build 0)  -->
<svg version="1.1" id="Layer_1" xmlns="http://www.w3.org/2000/svg" xmlns:xlink="http://www.w3.org/1999/xlink" x="0px" y="0px"
	 viewBox="0 0 670.9 660.2" style="enable-background:new 0 0 670.9 660.2;" xml:space="preserve">
<title>EH-Asset 77-layername</title>
<g id="Layer_2_1_">
	<g id="ElWelijj">
		<g>
			<path d="M235.6,392.6c-5.9,29.5-30.6,68.1-74.2,116c-45.6,50-81.9,75-108.9,75c-23.3,0-34.9-6.5-34.9-19.6
				c0-21.9,7.4-44.2,22.2-66.8c8.5-12.7,24.4-31.8,47.9-57.4c22.1-23.9,37.2-42.7,45.2-56.2c13.2-22.6,19.8-50.2,19.8-82.8
				c0-22.5-1.5-38.1-4.6-46.9c-14,35.5-29.3,71.9-46,109.1l-3.4-3.4c3.6-23.6,12.9-55.2,28-94.7c13.8-36.6,27.4-67,40.7-91.1
				c4.4,3.6,6.9,15.8,7.6,36.6c-0.2-4.6-0.2,8.9-0.2,40.5c0,47.4-9.4,94.3-27.8,137.9c-9,21.8-21.2,42.1-36.1,60.3
				c-4.4,5.1-20.6,22.3-48.6,51.4c-14.8,15.5-22.2,25.6-22.2,30.3c0,4.1,4.6,6.1,13.9,6.1c51.8,0,109.9-46.8,174.3-140.4
				c2.4-3.7,4.5-5.6,6.1-5.6L235.6,392.6z"/>
			<path d="M295.6,222.7c-3.4,11.1-8.1,18.1-14.2,21l-85.4,42c2.6-10.1,10.3-18.3,23-24.7L295.6,222.7z"/>
			<path d="M469,436.8l-12.5,46.4c-10.4,8.3-29.2,18.3-56.4,29.8c-5.4,24.3-18.5,50.3-39.1,78c-21.5,29-43,48.2-64.4,57.5
				c-18.1,7.8-40.8,11.7-68.1,11.7c-10.4,0-25.9-1.7-46.4-5.2c-24.4-4-37-8.2-37.8-12.6l2-1.5c4.9,0.2,12.6,1.1,23.2,2.9
				c10.1,1.6,17.9,2.4,23.4,2.4c11.2,0,27.7-3.2,49.3-9.5c47-13.8,87.8-41.1,122.3-81.8c12-14.2,18.9-26.5,20.5-37.1
				c-14.2,3.9-23.7,5.9-28.6,5.9c-14.8,0-22.2-4.9-22.2-14.6c0-10.2,4.1-23.2,12.5-38.8c9.3-17.4,18.5-26.1,27.6-26.1
				c8,0,15.1,3.1,21.4,9.3c6.3,6.2,9.4,13.3,9.4,21.2C432.3,463,453.7,450.4,469,436.8z"/>
			<path d="M479,71c-4.4-5.3-9.5-8-15.2-8c-10.3,0-19.7,4.4-28.3,13.2c1.9,2.9,3.6,5.8,5.2,9c2.1-0.9,4.2-1.4,6.4-1.4
				c3.9,0,8.5,2.3,13.9,6.9c5.3,4.6,8,8.9,8,12.9c0,7.8-7.4,11.6-22.1,11.6c-12.8,0-19.2-3.5-19.2-10.7c0-5,2-9.7,6-14.1
				c2.2-2.4,4.5-4.2,6.9-5.3c-1.5-3.1-3.3-6.1-5.2-9c-2.1,2.1-4.1,4.5-6,7.1c-9.3,12.4-14,25.2-14,38.3c0,11.7,6.7,17.6,20.1,17.6
				c12.7,0,24.1-5.4,34.2-16.4c10-10.9,15.1-22.7,15.1-35.4C484.8,81.4,482.8,75.6,479,71z"/>
			<path d="M532,283.5c0,45.9-5.8,83.8-17.3,113.8c-14,35.8-37.9,65.4-71.8,88.9l12.2-45.6c41.5-33.2,62.3-66.6,62.3-100.1
				c0-25.1-7.9-55.4-23.7-91.1c-3.1,16-7.6,39.8-13.8,71.5c-2.6,13.7-4.8,20.5-6.5,20.5l-2.2-0.7l-0.5-3.2
				c0-13.2,3.4-37.9,10.2-74.2c7.1-39.2,13.3-61.8,18.5-67.6c8.9,5.5,16.8,19,23.6,40.3C529,254.2,532,270.1,532,283.5z"/>
			<path d="M579.8,76.2c-3.4,11.1-8.1,18.1-14.2,21l-85.5,42c2.6-10.1,10.3-18.3,23-24.7L579.8,76.2z"/>
			<path d="M108.2,43.4l-7.3-5.4c9.8-10.3,14.7-17.5,14.7-21.6c0-4.1-1.5-8-4-11.2c-2.7-3.5-5.9-5.3-9.6-5.3c-7,0-14,2.8-21.2,8.5
				c1.5,1.3,2.9,2.8,4.1,4.4c1.4-1.4,3.3-2.1,6-2.1c5.1,2,7.7,4.9,7.7,8.8c0,3.7-1.8,8.3-5.3,13.6c-7.1-5.5-10.6-10-10.6-13.4
				c0-3.1,0.7-5.4,2.2-6.9c-1.2-1.6-2.6-3.1-4.1-4.4c-1.4,1.1-2.8,2.3-4.2,3.6c-8.6,8.1-12.9,16.2-12.9,24.4l1,5.9
				c1.9,3,4,5.8,6.4,8.3c-19.4,11.4-38.5,19.4-57.4,24c5.5,3.3,10.4,4.9,14.4,4.9c10.4,0,27.7-8,51.9-23.9c10.4,4.6,18.8,6.9,25,7.1
				c2.6-8.3,3.8-13.6,3.7-15.7L108.2,43.4z"/>
			<path d="M67.6,100c-6.3,0-9.3-3.8-9-11.4l0.3-4.8l-6.3,1.4C40.5,104.4,30.7,114,23.2,114c-5.2,0-7.8-3-7.8-9l1.7-10.9L12,94.6
				C4,105.5,0,115.3,0,124l1.7,8.6c3.4,4.4,7.5,6.6,12.2,6.6c12.7,0,22.8-6.6,30.5-19.7c3.9,4.2,7.1,6.2,9.7,6.2
				c21.6,0,36.9-17.5,46-52.5L94,74.7C85.4,91.6,76.6,100,67.6,100z"/>
			<path d="M651.9,278.1c-11.2-35.8-26.2-70.4-44.8-103C597,205.3,592,250.6,592,311c0,32.5,2.7,49.3,8,50.3
				c3.7-1.8,5.5-11.1,5.5-28.1c0-9.1,2.1-29.3,6.3-60.5c8.2,15.5,17,36.3,26.5,62.3c10.8,29.8,16.2,50.8,16.2,63
				c0,17.1-5.1,34-15.4,50.8c-6,9.9-17.2,24-33.5,42.2l-21.2,22.2c-8.3,8.9-14.3,17-17.8,24.4c0.2,1.3,1,2,2.4,2s4.9-1,10.2-2.9
				c38-13.8,63.3-32.1,75.8-54.9c10.5-19,15.8-50.2,15.8-93.5C670.9,355.3,664.6,318.6,651.9,278.1z"/>
			<path d="M584.2,156.7c0-4.9-2.9-7.3-8.8-7.3c-8.1,0-12.2-1.1-12.2-3.4c0-4.1,2.4-6.1,7.3-6.1c1.7,0,3.3,0.3,4.9,1
				c1.6-1.1,4-4.6,7-10.3c3-5.7,4.8-9.8,5.3-12.2c-1.7-0.9-3.5-1.5-5.4-1.7c-6.9,0-14.8,5.9-23.8,17.8S545,155.9,545,162.9
				c0,6.4,3.2,9.4,9.7,9.3c5.1-0.2,7.9,0.2,8.4,1.2c-2.6,3.6-11.1,8.1-25.6,13.4L507.6,197c0,1.9,1.1,2.9,3.2,2.9
				c13.7,0,28.6-3.8,44.9-11.5C574.7,179.4,584.2,168.8,584.2,156.7z"/>
		</g>
	</g>
</g>
</svg>
