<svg xmlns="http://www.w3.org/2000/svg" viewBox="0 0 1500 1000">
  <title>EH-Artboard 18</title>
  <g id="ElBari">
    <g>
      <path d="M409.13,164.54q0,18.06-16.4,39.52l7.48,7.32-8.55,24.15a170.66,170.66,0,0,1-16.12-12.73q-37.85,35.25-57.62,35.26-3.9,0-13.43-2.93,29.79-14.4,62.26-38.09-9.63-9.27-9.62-16.36Q357.13,188,371,171t26-17Q409.13,154.05,409.13,164.54ZM389.6,186.07q0-11.26-9.67-11.27l-3.72,1.47a11,11,0,0,0-2.72,7.35q0,4.9,11.65,14.45Q389.6,190.48,389.6,186.07Z"/>
      <path d="M448,382.93q20.52,0,45-11.5,28.59-13.69,28.59-31.8,0-7.33-8.72-7.34-12.11,0-12.1-3.42,0-6.12,7.3-6.12a11.83,11.83,0,0,1,4.87,1q2.43-1.69,6.93-10.27T525,301.25a15.16,15.16,0,0,0-5.39-1.69q-10.29,0-23.77,17.89t-13.48,28.34q0,9.49,9.65,9.25,7.67-.24,8.42,1.23-3.93,5.37-25.75,13.45L444.77,380Q444.77,382.93,448,382.93Z"/>
      <path d="M521.92,449.22q-12.45,0-33.93,21.7-16.85,16.81-27.1,33.15-31.26,48.52-31.25,90.45,0,20.25,17.15,27.8,7.59,3.42,32.1,6.11,17.16,2.21,17.15,9.06,0,16.65-31.79,40t-52.58,23.39q-54.56,0-54.54-54.45,0-44.19,8.54-74,11.47-39.56,41.75-75.2,21.48-24.9,56.89-56.39,27.82-24.42,55.66-48.59,35.89-32,64-87.9l-.48-3.17L580.52,303Q548,353.77,520.7,378l-63,53.74q-36.61,32-57.86,58.87-65.18,82.57-65.18,170.27,0,85.24,57.29,85.25,43.4,0,85.83-46.7,41.44-45.71,41.45-89.72,0-15.9-7.08-21.76-4.89-4.15-22.46-6.61-20.28-3.16-27.35-6.11-13.19-5.64-13.18-18.12,0-17.87,23.75-43.33t41.64-25.46q13.47,0,13.47,10.29l2.17,3.18q5.56-2.19,13.29-17.27,6.76-13.62,8-21.89Q541,449.23,521.92,449.22Z"/>
      <path d="M623.73,783q-5.13,16.6-14.16,21l-85.45,42q3.9-15.15,23-24.66Z"/>
      <path d="M751.17,479.39q0,26.24-8.06,27.69L736.52,499q-6.84.25-11.23,8.07-12,20.78-25.39,54.27-11,28.1-22,56-9.28,22-28.57,43.51-20.5,23-40.77,32-23,10.51-63.23,10.51-60.8,0-62.74-6.29l2.44-1.77q51.27,0,95.21-21.95,45.66-22.92,73.24-64.63,14.9-22.68,32-60.24L708,498.25q19-37.8,29.54-37.8,5.87,0,10,6.8A22.54,22.54,0,0,1,751.17,479.39Z"/>
      <path d="M906.93,556.15,894.48,603Q875,616.21,854.93,616.21q-27.58,0-37.84-30.94-5.62-17.4-6.59-53.78l-1.84-73.73q-2.07-83-2.07-84.47,0-3.17,5.89-20.75t8-20.51H822q.74,42.24,2.93,126.22.24,23.44,5.13,69.34,9.76,47.11,37.35,47.12Q887.89,574.71,906.93,556.15Z"/>
      <path d="M965,341.55q-5.13,16.6-14.16,21l-85.45,42q3.9-15.14,23-24.66Z"/>
      <path d="M900.34,649.41q-21,32.24-22,34.43l21.48,14.89q11-10,22.71-33Q922.56,657.48,900.34,649.41Z"/>
      <path d="M957.23,574q-17.84,9.28-29.55,9.28-10,0-14.16-2.68,19.05-26.13,19.05-44a42.39,42.39,0,0,0-.74-8.3Q918.17,544,905,559.08L892.77,604.4l6.59-5.16q9.76,18,30.77,18,19.77,0,40.28-15l12.45-46.53Q973.1,565.44,957.23,574Z"/>
      <path d="M1009.47,206.3q0,19-15.07,35.4t-34.17,16.36q-20.1,0-20.09-17.58,0-19.78,14-38.33,15.2-20.27,34.3-20.27,8.58,0,15.19,8.06A26.15,26.15,0,0,1,1009.47,206.3ZM993.6,222.48q0-6-8-12.9t-13.88-6.94q-7.37,0-13.38,6.69t-6,14.14q0,10.67,19.16,10.66Q993.6,234.13,993.6,222.48Z"/>
      <path d="M1056.59,402.34q0,68.85-17.33,113.77-21,53.71-71.78,88.87l12.21-45.65q62.25-49.82,62.25-100.1,0-37.59-23.68-91.07-4.59,23.94-13.77,71.54-3.87,20.51-6.52,20.51l-2.17-.74-.49-3.17q0-19.77,10.21-74.22,10.71-58.83,18.49-67.63,13.37,8.31,23.58,40.29Q1056.59,382.33,1056.59,402.34Z"/>
      <path d="M1104.44,195.07q-5.13,16.6-14.16,21l-85.45,42q3.9-15.13,22.95-24.66Z"/>
      <path d="M1108.84,275.63q0-7.32-8.79-7.32-12.21,0-12.21-3.42,0-6.09,7.33-6.1a12,12,0,0,1,4.88,1q2.43-1.71,7-10.28t5.24-12.2a14.93,14.93,0,0,0-5.4-1.69q-10.3,0-23.82,17.82t-13.5,28.32q0,9.52,9.65,9.28c5.11-.16,7.92.24,8.41,1.22q-3.9,5.37-25.63,13.42l-29.79,10.26q0,2.93,3.18,2.93,20.51,0,44.92-11.48Q1108.83,293.71,1108.84,275.63Z"/>
      <path d="M1176.52,397a525.26,525.26,0,0,0-44.78-103q-15.09,45.41-15.09,136,0,48.84,8,50.29,5.54-2.67,5.54-28.07,0-13.66,6.27-60.55,12.28,23.2,26.52,62.26,16.21,44.67,16.21,63,0,25.64-15.38,50.78-9,14.89-33.45,42.23-10.5,11-21.24,22.22-12.45,13.42-17.82,24.41a2.12,2.12,0,0,0,2.44,2q2.17,0,10.22-2.93,57-20.74,75.76-54.93,15.83-28.58,15.83-93.51Q1195.51,457.78,1176.52,397Z"/>
    </g>
  </g>
</svg>
