<svg xmlns="http://www.w3.org/2000/svg" viewBox="0 0 1500 1000">
  <title>EH-Artboard 8</title>
  <g id="ArRahim">
    <g>
      <path d="M438.09,201.29q0,18-16.39,39.52l7.47,7.31-8.55,24.15a170.66,170.66,0,0,1-16.12-12.73q-37.85,35.26-57.62,35.26-3.9,0-13.43-2.93,29.79-14.4,62.26-38.09-9.63-9.27-9.62-16.35,0-12.69,13.85-29.67t26-17Q438.09,190.8,438.09,201.29Zm-19.53,21.52q0-11.26-9.67-11.26L405.17,213a10.93,10.93,0,0,0-2.72,7.34q0,4.9,11.65,14.45Q418.55,227.22,418.56,222.81Z"/>
      <path d="M506.69,507.93l-12.2,45.66q-28.08,17.58-56.15,34.91-38.58,26.61-38.58,39.06c0,1.8,1,2.69,2.93,2.69q7.32,0,22-15.63,10-10.74,19.78-21.72c1.14.81,1.71,2.19,1.71,4.15q0,3.42-3.66,19-4.65,20-5.13,21.48a64.66,64.66,0,0,1-10.5,19.29q-10.5,13.67-46.43,39.55-41.12,29.54-55.31,43.7-26.69,26.37-26.68,50,0,23.93,39.55,37.35,32.47,11.24,73.25,11.24,66.88,0,89.35-2.2l.49,1.22q0,7-40.28,12-31.26,3.84-52,3.84-125,0-125-63.23,0-29.07,23.74-65.43,21.29-32.47,48.19-52l30.09-22a41.4,41.4,0,0,1-1.92-12.94q0-19,14.91-44.68,14.88-24.64,31.48-35.4Q481.06,525.52,506.69,507.93Z"/>
      <path d="M555.63,525.27q-17.83,9.29-29.55,9.28-10,0-14.16-2.69,18.94-26.11,18.94-43.95a43.34,43.34,0,0,0-.72-8.3q-13.6,15.63-26.72,30.77l-12.14,45.31,6.56-5.16q9.71,18,30.69,18,19.77,0,40.28-15L581.26,507Q571.5,516.73,555.63,525.27Z"/>
      <path d="M485.21,619.75q-15.87,32.24-15.62,39.8Q483.93,652,491,647.83q29.91-17.08,33.81-21,9-9,15.33-36.62Q511.22,607.79,503.68,611,489.58,617.06,485.21,619.75Z"/>
      <path d="M638.29,734.25q-5.13,16.61-14.16,21l-85.45,42q3.9-15.13,23-24.66Z"/>
      <path d="M759.38,370.73c0,3.9-1.1,10.34-3.3,19.28s-4.19,14.82-6,17.58a285.63,285.63,0,0,0-78.61,50.3q-33.21,33-66.16,65.91v5.86q-.26,8.79,5.37,60.55v1.46a4.2,4.2,0,0,1-1.47,2.93l-1.71-.73a433.37,433.37,0,0,1-11.47-61.77,262.51,262.51,0,0,1-30,23.69l12.45-45.9L593.85,497,593.61,483q0-4.63,4.74-32,6.72-38.32,22.85-54,17.58-17.32,55.42-17.33A113.38,113.38,0,0,1,691,381.1a111.91,111.91,0,0,0,14.41,1.35q29.77,0,53.71-14.41Zm-81.3,48.58q-29.54.49-40.53,4.15-19.29,6.1-27.83,27.35a77.54,77.54,0,0,0-6.1,29.05v9.28q12.69-10.26,37.11-35.16Q664.16,430.05,678.08,419.31Z"/>
      <path d="M805.77,259.4l-69.58,24.41q-16.37,5.63-27.1,22.46L788.92,278Q798.69,274.55,805.77,259.4Z"/>
      <path d="M768.17,315.06q-9.28,0-9.28-17.82L753,298.71q-18.56,32.46-30,32.47-8.55,0-8.54-11.48l.73-7.57-8.54,4.64q-6.84,18.6-6.84,25.26,0,13.8,14.19,13.8,16.41,0,31.09-21.15,8.8,6.27,14.43,6.26,17.63,0,29.13-21.24,8.57-15.61,11-36.62l-7.56,2.2Q782.32,315.07,768.17,315.06Z"/>
      <path d="M897.81,507.2l-12.7,47.12Q854.84,571.9,842.88,580,814.31,599,808,611.45q-19.53,42.24-39.06,84.23-28.32,53.7-59.08,64-23.45,8-51.51,8-56.4,0-72.51-9.51l-.74-1.23,2-2.2a163.39,163.39,0,0,0,32,2.93q44.93,0,85-28.81,35.4-25.87,59.81-68.36,1.71-3.16,23.2-45.9Q800.89,586.8,814,571t41.38-33.32Q886.82,518.19,897.81,507.2Z"/>
      <path d="M971.29,353.64q0,68.85-17.33,113.77-21,53.71-71.78,88.86l12.21-45.65q62.25-49.8,62.26-100.1,0-37.59-23.69-91.06-4.59,23.93-13.77,71.53-3.87,20.5-6.52,20.51l-2.17-.73-.48-3.18q0-19.77,10.21-74.22,10.69-58.83,18.48-67.62Q952.08,274,962.3,306,971.29,333.62,971.29,353.64Z"/>
      <path d="M1125.14,146.36q-5.13,16.6-14.16,21l-85.45,42q3.9-15.14,23-24.66Z"/>
      <path d="M1129.54,226.93q0-7.32-8.79-7.33-12.21,0-12.21-3.41,0-6.1,7.32-6.11a12,12,0,0,1,4.89,1q2.43-1.69,7-10.28c3-5.72,4.77-9.78,5.25-12.2a14.93,14.93,0,0,0-5.4-1.69q-10.32,0-23.82,17.82T1090.23,233q0,9.53,9.65,9.28c5.11-.16,7.92.24,8.41,1.22q-3.9,5.37-25.63,13.43l-29.79,10.25q0,2.93,3.18,2.93,20.51,0,44.92-11.47Q1129.53,245,1129.54,226.93Z"/>
      <path d="M1197.22,348.27a525.35,525.35,0,0,0-44.78-103q-15.09,45.4-15.09,136,0,48.82,8,50.29,5.54-2.68,5.54-28.08,0-13.67,6.27-60.54,12.29,23.19,26.52,62.25,16.21,44.69,16.21,63,0,25.64-15.38,50.78-9,14.9-33.45,42.24l-21.24,22.21q-12.45,13.44-17.82,24.42c.16,1.3,1,2,2.44,2s4.86-1,10.22-2.93q57-20.74,75.75-54.93,15.84-28.56,15.84-93.51Q1216.21,409.07,1197.22,348.27Z"/>
    </g>
  </g>
</svg>
