<svg xmlns="http://www.w3.org/2000/svg" viewBox="0 0 1500 1000">
  <title>EH-Artboard 66</title>
  <g id="ElMuhji">
    <g>
      <path d="M563.35,524.29l-12.69,46.63q-20.5,12.71-41,25.64-37.35,24.9-37.35,33,0,14.9,30,26.12,21,7.58,21,21,0,51-42.84,109.86-45.76,63.22-94.72,63.23-56.29,0-56.29-72.51a200.22,200.22,0,0,1,16.63-79.59q11.75-27.58,39.13-67.14,37.42-54.43,45.25-67.62,14.44-24.42,31.56-81.55l3.9,1.71q-2.69,31.5-27.34,84.72-9.77,21-37.11,59.81-29.79,41.76-40,61.53-18.79,35.64-18.8,66.4,0,25.88,16.85,40.29,15.87,13.43,42.23,13.42,24.18,0,66-39.91t41.87-61.4q0-5.86-13.18-10-18.31-5.62-24.17-9.77-13.19-9-13.18-27.34,0-61.77,28.32-84.23Q513.06,559,563.35,524.29Z"/>
      <path d="M614.87,751.34q-5.13,16.6-14.16,21l-85.45,42q3.9-15.14,23-24.66Z"/>
      <path d="M659.3,260.13q0,19-15.07,35.4t-34.17,16.36q-20.1,0-20.09-17.58,0-19.77,14-38.33,15.2-20.26,34.3-20.26,8.58,0,15.19,8.05A26.15,26.15,0,0,1,659.3,260.13Zm-15.87,16.18q0-6-8-12.9t-13.88-6.94q-7.37,0-13.38,6.69t-6,14.14q0,10.67,19.16,10.66Q643.42,288,643.43,276.31Z"/>
      <path d="M839,524.73l-12.45,46.49q-30,18.51-59.82,18.5-25.87,0-42-19-15.33-18-15.32-44.13,0-12.44,4.38-32-32.37,24.69-69.34,56.94-7.57,38.58-6.59,64.94l-2.2,4.16-1.22.73-1.22-1.22V589.65l2-30.27q-5.85,4.61-17.58,13.35L630,526.87l9-8.54q11.75-54.39,22-73.42,20.07-37.07,61.21-37.07,10.76,0,31.63,6.18t31.86,6.19A76.7,76.7,0,0,0,818,413.42q-4.4,23.44-15.62,39.32-49.32,10-75.44,33.21a112.51,112.51,0,0,0-1.74,19.78q0,18.79,13.92,30.28,12.93,10.74,32,10.74Q810.89,546.75,839,524.73ZM732.3,452.53q-20.5-4.9-28.32-4.9-44.68,0-54.44,62.65,28.8-23.73,39.55-31.57Q712,461.84,732.3,452.53Z"/>
      <path d="M901,218.38q0,18-16.39,39.52l7.47,7.31-8.55,24.15a170.66,170.66,0,0,1-16.12-12.73q-37.85,35.26-57.62,35.26-3.9,0-13.43-2.93,29.79-14.4,62.26-38.09Q849,261.6,849,254.52q0-12.69,13.85-29.67t26-17Q901,207.89,901,218.38ZM881.47,239.9q0-11.25-9.67-11.26l-3.72,1.47a10.93,10.93,0,0,0-2.72,7.34q0,4.91,11.65,14.45Q881.47,244.31,881.47,239.9Z"/>
      <path d="M957.64,524.78,945.19,571.2a36.07,36.07,0,0,1-19.29,5.58q-17.34,0-27.34-15.29-20.5,25.39-25.64,25.39-5.61,0-16.6-12.94-10.25-12-12.2-18.76-5.62,7.53-21,18l12.21-45.43q11.22-10.5,33.69-31.25,2.43,0,24.17,18.31t37.11,18.31A46.74,46.74,0,0,0,957.64,524.78Z"/>
      <path d="M984.5,174.68q0,19-15.07,35.4t-34.18,16.36q-20.09,0-20.09-17.58,0-19.77,14-38.33,15.18-20.26,34.3-20.26,8.57,0,15.19,8.06A26.1,26.1,0,0,1,984.5,174.68Zm-15.87,16.18q0-6-8-12.9T946.77,171q-7.37,0-13.39,6.69t-6,14.14q0,10.67,19.16,10.66Q968.63,202.51,968.63,190.86Z"/>
      <path d="M1031.62,370.73q0,68.85-17.34,113.77-21,53.71-71.78,88.86l12.21-45.65q62.26-49.8,62.26-100.1,0-37.59-23.68-91.06-4.59,23.93-13.77,71.53-3.87,20.51-6.52,20.51l-2.18-.73-.48-3.18q0-19.77,10.21-74.22,10.69-58.83,18.48-67.62,13.38,8.3,23.59,40.28Q1031.6,350.71,1031.62,370.73Z"/>
      <path d="M1079.47,163.45q-5.13,16.61-14.16,21l-85.45,42q3.9-15.13,22.95-24.66Z"/>
      <path d="M536.74,636.84q-15.87,32.24-15.62,39.8,14.36-7.57,21.41-11.72,29.93-17.08,33.82-21,9-9,15.32-36.62-28.92,17.58-36.46,20.75Q541.11,634.16,536.74,636.84Z"/>
      <path d="M577.62,551.64q-10,0-14.16-2.69,18.93-26.12,18.94-44a43.37,43.37,0,0,0-.73-8.3q-13.6,15.63-26.72,30.77l-12.14,45.31,6.56-5.16q9.72,18,30.69,18,19.77,0,40.28-15l12.45-46.52q-9.76,9.76-25.63,18.31Q589.34,551.65,577.62,551.64Z"/>
      <path d="M1083.86,244q0-7.32-8.79-7.33-12.21,0-12.2-3.41,0-6.1,7.32-6.11a11.88,11.88,0,0,1,4.88,1q2.45-1.69,7-10.28t5.25-12.2a15,15,0,0,0-5.4-1.69q-10.32,0-23.82,17.82t-13.5,28.32q0,9.53,9.65,9.28c5.11-.16,7.91.24,8.41,1.22q-3.91,5.37-25.64,13.43L1007.2,284.3c0,1.95,1,2.93,3.17,2.93q20.5,0,44.92-11.47Q1083.86,262.08,1083.86,244Z"/>
      <path d="M1151.55,365.36a525.35,525.35,0,0,0-44.78-103q-15.11,45.41-15.1,136,0,48.82,8,50.29,5.55-2.69,5.55-28.08,0-13.66,6.27-60.54,12.27,23.19,26.52,62.25,16.2,44.68,16.2,63,0,25.63-15.38,50.78-9,14.9-33.44,42.24l-21.24,22.21q-12.45,13.44-17.83,24.42a2.12,2.12,0,0,0,2.44,2q2.19,0,10.23-2.93,57-20.74,75.75-54.93,15.83-28.56,15.83-93.51Q1170.53,426.16,1151.55,365.36Z"/>
    </g>
  </g>
</svg>
