<svg xmlns="http://www.w3.org/2000/svg" viewBox="0 0 1500 1000">
  <title>EH-Artboard 60</title>
  <g id="ElMetin">
    <g>
      <path d="M482.13,176.75q0,18.06-16.4,39.52l7.48,7.32-8.55,24.15A169.58,169.58,0,0,1,448.54,235q-37.85,35.26-57.62,35.26-3.92,0-13.43-2.93,29.79-14.4,62.26-38.08-9.63-9.28-9.62-16.36,0-12.69,13.85-29.66t26-17Q482.13,166.26,482.13,176.75ZM462.6,198.28q0-11.26-9.67-11.27l-3.72,1.47a11,11,0,0,0-2.73,7.35q0,4.89,11.65,14.44C461.11,205.22,462.6,201.21,462.6,198.28Z"/>
      <path d="M577.83,799.32v2.19q10-4.87,27.1-14.89,26.85-15.63,30.76-20.26,6.6-7.58,13.19-34.67-34,20.5-55.42,30Q577.83,791.5,577.83,799.32Z"/>
      <path d="M691.12,586.18q-17.83,9.29-30,9.28-9,0-13.19-2.51Q667,566.9,667,549.07a44.88,44.88,0,0,0-.74-8.3q-8.3,10.76-12.2,16.36-7.34,9.76-27,22Q606.5,592,595.78,592q-11-28.06-18-31.25-19.49,28.32-19,44.43,12,12,12,27.59a118.33,118.33,0,0,1-4.16,29.3Q560.72,684.82,536,708.5q-26.18,24.64-48.43,24.65-18.34,0-29.24-11.12t-10.88-29.48q0-16.12,13.58-47.56t13.57-40.48q0-9.54-10.76-9.54-23.72,0-45.19,26.45-20.51,25-20.51,49.47l1.47,1.47,1.46-.48q18.56-30.76,50.05-32Q427.69,692.72,427.68,724q0,54,44.61,54.05,35.59,0,71.19-45.57Q574.42,692.83,583,652.9l4.63-21.55q10.49-1,24.17-7.52,3.66-2,22.46-12.14,11.47,17.7,30.27,17.7,19.79,0,40.29-15l12.45-46.53Q707,577.89,691.12,586.18Z"/>
      <path d="M772.9,770.75q-5.13,16.61-14.16,21l-85.45,42q3.9-15.13,23-24.66Z"/>
      <path d="M847.85,292.72q-5.13,16.61-14.16,21l-85.45,42q3.9-15.13,23-24.66Z"/>
      <path d="M909.62,568.6,897.17,615a36.11,36.11,0,0,1-19.29,5.59q-17.34,0-27.34-15.3Q830,630.71,824.9,630.7q-5.61,0-16.6-12.94Q798,605.8,796.09,599q-5.61,7.53-21,18l12.2-45.43Q798.54,561,821,540.28q2.43,0,24.17,18.31t37.1,18.31A46.77,46.77,0,0,0,909.62,568.6Z"/>
      <path d="M936.47,218.51q0,19-15.06,35.4t-34.18,16.35q-20.1,0-20.09-17.57,0-19.78,14-38.33,15.2-20.27,34.31-20.27,8.57,0,15.18,8.06A26.15,26.15,0,0,1,936.47,218.51ZM920.6,234.68q0-5.94-8-12.89t-13.87-6.95q-7.38,0-13.39,6.7t-6,14.14q0,10.66,19.16,10.66Q920.6,246.34,920.6,234.68Z"/>
      <path d="M983.59,414.55q0,68.85-17.33,113.77-21,53.71-71.78,88.87l12.21-45.66q62.25-49.8,62.25-100.09,0-37.6-23.68-91.07-4.59,23.92-13.77,71.53-3.87,20.52-6.52,20.51l-2.17-.73-.49-3.17q0-19.78,10.22-74.22,10.69-58.85,18.48-67.63,13.37,8.31,23.58,40.28Q983.59,394.54,983.59,414.55Z"/>
      <path d="M1031.44,207.28q-5.12,16.6-14.16,21l-85.45,42q3.92-15.13,22.95-24.65Z"/>
      <path d="M746,391.6q-30.75,19.78-55.17,29.79Q675,452.14,675.49,461.18q12.88-6.82,19.22-10.5,31.88-17.82,35.28-21.24Q739.71,420.17,746,391.6Z"/>
      <path d="M735.61,595.46q-10,0-14.16-2.69,19-26.12,19-43.94a43.22,43.22,0,0,0-.73-8.3q-13.62,15.63-26.76,30.76l-12.16,45.32,6.57-5.17q9.72,18,30.71,17.95,19.77,0,40.28-15l12.45-46.53q-9.76,9.76-25.63,18.31Q747.33,595.47,735.61,595.46Z"/>
      <path d="M1103.52,409.18a524.76,524.76,0,0,0-44.78-103q-15.09,45.42-15.09,136,0,48.83,8,50.29,5.55-2.69,5.55-28.07,0-13.68,6.27-60.55Q1075.7,427,1090,466.06q16.2,44.69,16.2,63,0,25.63-15.38,50.78-9,14.89-33.45,42.24l-21.24,22.22q-12.45,13.43-17.82,24.41c.16,1.31,1,1.95,2.44,1.95s4.87-1,10.23-2.93q57-20.75,75.75-54.93,15.83-28.56,15.83-93.5Q1122.51,470,1103.52,409.18Z"/>
      <path d="M1035.84,287.84q0-7.32-8.79-7.32-12.21,0-12.21-3.42,0-6.11,7.33-6.1a11.91,11.91,0,0,1,4.88,1q2.43-1.7,7-10.27t5.25-12.21a15.25,15.25,0,0,0-5.4-1.69q-10.32,0-23.82,17.83T996.53,294q0,9.51,9.65,9.27c5.11-.16,7.92.25,8.41,1.22q-3.9,5.38-25.63,13.43l-29.79,10.26q0,2.92,3.18,2.92,20.5,0,44.92-11.47Q1035.83,305.92,1035.84,287.84Z"/>
    </g>
  </g>
</svg>
