<svg xmlns="http://www.w3.org/2000/svg" viewBox="0 0 1500 1000">
  <title>EH-Artboard 16</title>
  <g id="ElMuttekebir">
    <g>
      <path d="M506.84,311.88q0,18.06-16.4,39.52l7.47,7.32-8.55,24.15a170.94,170.94,0,0,1-16.11-12.73q-37.85,35.25-57.62,35.26-3.92,0-13.43-2.93,29.78-14.42,62.25-38.09-9.61-9.27-9.62-16.36,0-12.69,13.86-29.66t26-17Q506.82,301.39,506.84,311.88ZM487.3,333.41q0-11.27-9.66-11.27l-3.72,1.47a11,11,0,0,0-2.73,7.35q0,4.89,11.65,14.45Q487.31,337.82,487.3,333.41Z"/>
      <path d="M600.1,556.76l-12.7,47.12q-30.27,17.58-42.23,25.64-28.57,19-34.92,31.49-19.53,42.24-39.06,84.23-28.32,53.7-59.08,64-23.44,8-51.51,8-56.4,0-72.51-9.51l-.74-1.23,2-2.2a163.39,163.39,0,0,0,32,2.93q44.93,0,85-28.81,35.4-25.87,59.81-68.36,1.71-3.17,23.2-45.9,13.92-27.82,27-43.57t41.38-33.33Q589.11,567.75,600.1,556.76Z"/>
      <path d="M568.6,390.5q-3.66,3.66-11.23,14.89l77.4-31q12.45-5.13,20-21l-70.07,27.83Q574,385.38,568.6,390.5Z"/>
      <path d="M664.31,291.38q-11.73,35.89-25.88,35.89-7.81,0-7.81-23.93l-4.89,1.47q-18.56,39.56-32.47,39.55c-3.74,0-5.61-2.11-5.61-6.35a71.62,71.62,0,0,1,3.41-20.75l-5.78,1q-13.51,22.69-13.5,35,0,16.11,14.37,16.11,8.76,0,18-6.35t12.91-14.65c4.86,3.51,9.66,5.27,14.36,5.27q18.75,0,30.2-23.93a91.62,91.62,0,0,0,9-40.77Z"/>
      <path d="M592.29,650.27q-21,32.22-22,34.42l21.49,14.89q11-10,22.7-33Q614.5,658.32,592.29,650.27Z"/>
      <path d="M649.17,574.83q-17.82,9.28-29.54,9.28-10,0-14.16-2.69,19-26.11,19-43.94a42.61,42.61,0,0,0-.73-8.31q-13.68,15.63-26.86,30.77l-12.2,45.31,6.59-5.16q9.77,18,30.76,17.95,19.77,0,40.28-15l12.45-46.52Q665,566.29,649.17,574.83Z"/>
      <path d="M731.93,195.92q-5.11,16.61-14.16,21l-85.45,42q3.91-15.14,22.95-24.66Z"/>
      <path d="M732.67,566.28q-4.89-6.82-5.86-26.61-1-19-1.47-74.46-.24-46.63-2.93-74.46l-2.16-1Q717.13,393,712.08,407T707,425.9q0,10.26,1.21,30.52t1.21,30.52q0,27.82-7.86,41.75-6.39,11.71-30.2,31.49l-12.21,45.49q30.15-21.48,48.58-62.5,1,39.06,3.66,48.83,7.3,27,34.09,27,25.82,0,48.71-16l12.42-46.24q-22.47,19.29-48.34,19.29Q739.51,576.05,732.67,566.28Z"/>
      <path d="M866.94,184.45l-3.17,2q-35.4,66.65-47.36,86.43-29.05,47.37-60.52,76.9-49,37.84-74.92,54l2.93,1q25.88-5.37,64.67-36.86,33.91-27.1,54.41-53.47-.5,18.81,1.95,29.54l4.4-2.93q1.95-42.22,59.81-155.27Z"/>
      <path d="M863,195.92q-5.13,16.61-14.16,21l-85.45,42q3.9-15.14,23-24.66Z"/>
      <path d="M836.18,380.25Q805.42,400,781,410q-15.88,30.77-15.38,39.8,12.89-6.84,19.22-10.5,31.88-17.82,35.28-21.24Q829.85,408.82,836.18,380.25Z"/>
      <path d="M855.29,574.83q-17.82,9.28-29.54,9.28-10,0-14.16-2.69,19-26.11,19-43.94a42.57,42.57,0,0,0-.74-8.31q-13.62,15.63-26.75,30.77l-12.16,45.31,6.57-5.16q9.72,18,30.7,17.95,19.78,0,40.29-15l12.45-46.52Q871.17,566.29,855.29,574.83Z"/>
      <path d="M943.12,250.85q0,18-16.4,39.52l7.47,7.31-8.55,24.15a167.74,167.74,0,0,1-16.11-12.73q-37.85,35.26-57.62,35.26-3.92,0-13.43-2.93,29.78-14.4,62.25-38.09-9.62-9.27-9.62-16.35,0-12.69,13.85-29.67t26-17Q943.1,240.36,943.12,250.85Zm-19.54,21.52q0-11.25-9.66-11.26l-3.72,1.47a10.94,10.94,0,0,0-2.73,7.34q0,4.9,11.65,14.45Q923.59,276.78,923.58,272.37Z"/>
      <path d="M999.76,557.25,987.3,603.67A36.06,36.06,0,0,1,968,609.25q-17.34,0-27.35-15.29-20.5,25.39-25.63,25.39-5.62,0-16.6-12.94-10.26-12-12.21-18.76-5.62,7.53-21,18l12.21-45.43q11.23-10.5,33.69-31.25,2.45,0,24.17,18.31t37.11,18.31A46.77,46.77,0,0,0,999.76,557.25Z"/>
      <path d="M1026.61,207.15q0,19-15.07,35.4t-34.17,16.36q-20.1,0-20.09-17.58,0-19.77,14-38.33,15.19-20.25,34.3-20.26,8.58,0,15.19,8.06A26.1,26.1,0,0,1,1026.61,207.15Zm-15.87,16.18q0-6-8-12.9t-13.88-6.94q-7.36,0-13.38,6.7t-6,14.13q0,10.67,19.16,10.67Q1010.74,235,1010.74,223.33Z"/>
      <path d="M1073.73,403.2q0,68.85-17.33,113.77-21,53.71-71.78,88.86l12.21-45.65q62.25-49.8,62.25-100.1,0-37.59-23.68-91.06-4.59,23.93-13.77,71.53-3.87,20.51-6.52,20.51l-2.17-.73-.49-3.18q0-19.77,10.21-74.22,10.71-58.83,18.49-67.62,13.36,8.29,23.58,40.28Q1073.73,383.19,1073.73,403.2Z"/>
      <path d="M1121.58,195.92q-5.13,16.61-14.16,21l-85.45,42q3.9-15.14,23-24.66Z"/>
      <path d="M1126,276.49q0-7.32-8.79-7.32-12.21,0-12.21-3.42,0-6.11,7.32-6.11a12,12,0,0,1,4.89,1q2.43-1.69,7-10.28t5.24-12.2a14.93,14.93,0,0,0-5.4-1.69q-10.31,0-23.82,17.82t-13.5,28.32q0,9.53,9.65,9.28c5.11-.16,7.92.24,8.41,1.22q-3.9,5.37-25.63,13.43l-29.79,10.25c0,2,1.06,2.93,3.18,2.93q20.51,0,44.92-11.47Q1126,294.55,1126,276.49Z"/>
      <path d="M1193.66,397.83a525.35,525.35,0,0,0-44.78-103q-15.09,45.4-15.09,136,0,48.82,8,50.29,5.54-2.68,5.54-28.08,0-13.67,6.27-60.54,12.29,23.19,26.52,62.25,16.22,44.69,16.21,63,0,25.63-15.38,50.78-9,14.89-33.45,42.24l-21.24,22.21q-12.45,13.44-17.82,24.42c.16,1.3,1,1.95,2.44,1.95s4.86-1,10.22-2.93q57-20.75,75.76-54.93,15.83-28.56,15.83-93.51Q1212.65,458.63,1193.66,397.83Z"/>
    </g>
  </g>
</svg>
