<svg xmlns="http://www.w3.org/2000/svg" viewBox="0 0 1500 1000">
  <title>EH-Artboard 56</title>
  <g id="EsShehid">
    <g>
      <path d="M478.64,246.21q0,18-16.4,39.52l7.48,7.31-8.55,24.16a169.58,169.58,0,0,1-16.12-12.74q-37.85,35.27-57.62,35.26-3.92,0-13.43-2.93,29.79-14.4,62.26-38.08-9.63-9.29-9.62-16.36,0-12.69,13.85-29.66t26-17Q478.64,235.72,478.64,246.21Zm-19.53,21.52q0-11.25-9.67-11.26l-3.72,1.47a11,11,0,0,0-2.73,7.35q0,4.89,11.65,14.44Q459.11,272.14,459.11,267.73Z"/>
      <path d="M639.53,551.64l-12.45,46.47a173.64,173.64,0,0,1-28.08,16q-19.77,9.33-29.79,9.33-27.09,0-27.1-40.77a111.46,111.46,0,0,1,1.47-15.87h-2q-1.47,0-7,6.72t-21.12,35.76q-36.87,68.61-68.6,84.23-18.56,9-32.47,11.48-10.5,1.95-34.67,1.95a266.1,266.1,0,0,1-27.59-2q-21.24-2.49-24.9-5.49l.73-1.5,3.42-2q36.87,0,60.06-7.57t52.73-29.54q31.74-23.43,44.92-42.72,16.85-27.35,33.69-54.93,24.95-38.58,38.82-44.68l2.44,2.2.49,2.44q-.74,2.45-2.2,10.25A132.29,132.29,0,0,0,558,556.76q0,26.13,21.73,26.13Q601.92,582.89,639.53,551.64Z"/>
      <path d="M770.14,779.17q-5.13,16.61-14.16,21l-85.45,42q3.9-15.13,23-24.66Z"/>
      <path d="M809.45,552.12,797,598.51q-6.11,4.15-22,13.18a124.36,124.36,0,0,0-44.43,43.22q-17.08,27.83-17.09,59.32a108.31,108.31,0,0,1-12.21,17.58q-15.87-23.19-15.87-60.55,0-29.29,24.66-115.72,12.69-14.88,26.86-30.76a44.9,44.9,0,0,1,.73,8.3q0,12.95-9,30.76-8.05,16.36-18.31,26.61-9.29,39.81-9.28,55.91,0,16.6,4.64,22,6-22,23.44-48.58,15.61-23.93,36.37-38.82Z"/>
      <path d="M1035.77,398.56q0,68.85-17.34,113.77-21,53.71-71.77,88.87l12.2-45.66q62.26-49.8,62.26-100.1,0-37.59-23.68-91.06-4.59,23.92-13.77,71.53-3.87,20.5-6.52,20.51l-2.18-.73-.48-3.18q0-19.77,10.21-74.21,10.69-58.85,18.48-67.63,13.38,8.29,23.59,40.28Q1035.76,378.55,1035.77,398.56Z"/>
      <path d="M1083.62,191.28q-5.13,16.6-14.16,21l-85.45,42q3.9-15.14,23-24.66Z"/>
      <path d="M617.07,664.67q-15.89,32.24-15.63,39.8,14.35-7.58,21.41-11.72,29.92-17.09,33.82-21,9-9,15.33-36.62-28.93,17.58-36.46,20.75Q621.44,662,617.07,664.67Z"/>
      <path d="M657.94,579.47c-6.68,0-11.39-.89-14.16-2.69q18.94-26.12,18.94-43.94a42.43,42.43,0,0,0-.73-8.3q-13.61,15.62-26.71,30.76l-12.15,45.32,6.56-5.17q9.72,18,30.69,17.95,19.77,0,40.28-15l12.46-46.52q-9.78,9.76-25.64,18.31Q669.66,579.47,657.94,579.47Z"/>
      <path d="M811.27,233.12q8.81,6.25,14.44,6.26,17.63,0,29.12-21.24,8.56-15.62,11-36.62l-7.56,2.2q-9.78,29.79-23.93,29.78-9.29,0-9.28-17.82l-5.86,1.46q-18.56,32.48-30,32.47-8.53,0-8.54-11.47l.73-7.57-8.54,4.64Q766,233.81,766,240.46q0,13.81,14.2,13.81Q796.59,254.27,811.27,233.12Z"/>
      <path d="M872,157.84l-69.58,24.41q-16.36,5.63-27.1,22.46l79.83-28.32Q864.87,173,872,157.84Z"/>
      <path d="M872,549.22Q888.3,539,900.27,511.41q11-25.37,11-46.59V460L910,458.48q-1,.5-9.77,19-9.53,19.5-18.56,26.09-8.07,5.85-10.5,5.85,1.47-9.51,1.48-11.21L872.19,487l-1.47-1.46q-4.43,3.9-5.4,7.55-4.91,16.09-7.12,20.24-3.69,6.58-14.24,16.58-12.27,11.72-17.67,11.71a199,199,0,0,0,2-20.49l-1.93-.73q-3.87,3.92-9.18,17.86-4.83,12.47-11.11,16.38l-12.45,46A154.58,154.58,0,0,0,809,587.85q12.63,1.47,27.71-10.19a85.34,85.34,0,0,0,20.17-23.09l5.35-1a72.25,72.25,0,0,0-.73,10.26q0,20.26,11.23,33.94,12.21,14.65,32.72,14.66,26.36,0,44.18-13.2l12.7-47.15q-26.87,23.73-56.4,23.73Q874.4,575.81,872,549.22Z"/>
      <path d="M903.9,348.51a13.35,13.35,0,0,1,8.57,3.17l1,3.9,2.66,3.17q5.32,0,14.88-13.25t9.56-19.38q0-15.21-14.89-15.21-22.95,0-53.22,39.13-29.06,37.41-30,62.36Q878.17,348.52,903.9,348.51Z"/>
      <path d="M1155.7,393.19a525.35,525.35,0,0,0-44.78-103q-15.11,45.4-15.09,136,0,48.83,8,50.29,5.55-2.69,5.55-28.08,0-13.67,6.27-60.54,12.27,23.19,26.52,62.25,16.2,44.69,16.21,63,0,25.63-15.39,50.78-9,14.89-33.44,42.24l-21.24,22.22q-12.45,13.43-17.83,24.41a2.12,2.12,0,0,0,2.44,1.95q2.19,0,10.23-2.93,57-20.75,75.75-54.93,15.83-28.56,15.83-93.5Q1174.68,454,1155.7,393.19Z"/>
      <path d="M1088,271.85q0-7.32-8.79-7.32-12.21,0-12.2-3.42,0-6.1,7.32-6.11a11.88,11.88,0,0,1,4.88,1q2.44-1.69,7-10.27t5.25-12.21a15.25,15.25,0,0,0-5.4-1.69q-10.32,0-23.82,17.82T1048.71,278q0,9.53,9.65,9.28,7.67-.24,8.41,1.22-3.91,5.37-25.64,13.43l-29.78,10.25c0,2,1.06,2.93,3.17,2.93q20.51,0,44.92-11.47Q1088,289.93,1088,271.85Z"/>
    </g>
  </g>
</svg>
