<svg xmlns="http://www.w3.org/2000/svg" viewBox="0 0 1500 1000">
  <title>EH-Artboard 22</title>
  <g id="ElVehab">
    <g>
      <path d="M288.4,318.11q0,18-16.39,39.52l7.47,7.31-8.55,24.16a170.85,170.85,0,0,1-16.12-12.74Q217,411.63,197.19,411.62q-3.9,0-13.42-2.93,29.78-14.4,62.25-38.08-9.63-9.28-9.62-16.36,0-12.69,13.85-29.67t26-17Q288.4,307.62,288.4,318.11Zm-19.53,21.52q0-11.25-9.67-11.26l-3.71,1.47a10.94,10.94,0,0,0-2.73,7.34q0,4.9,11.65,14.45Q268.87,344,268.87,339.63Z"/>
      <path d="M633.62,458.5q-22.23,13.67-24.42,15.87-29.79,33-59.32,65.91-65.43,71.29-100.1,100.1-69.58,58.11-122.56,58.11-40.28,0-65.18-25.76t-24.91-66.28q0-46.87,42.73-79.84,32.72-25.14,76.66-33.2,18.06-3.42,85.69-7.08,75.44-4.15,81.54-9l-.24-2.68H413.89q-49.56,0-77.64,6.84-39.54,9.76-67.62,37.35-49.57,48.11-49.56,119.14,0,43,28.81,71.65t71.53,28.69q64,0,135.74-63,37.11-33,108.4-119.38,36.13-43.7,61.28-63.48Q635.32,479.25,633.62,458.5Z"/>
      <path d="M311.35,768.07q-4.89-2.7-13.18-6.35l-22,34.67,22,14.65q16.11-21.24,22.7-33Q320.87,773.69,311.35,768.07Z"/>
      <path d="M777.42,563.23,765,610q-19.54,13.26-39.56,13.26-27.58,0-37.84-30.94Q682,575,681,538.57l-1.84-73.73q-2.07-83-2.07-84.47,0-3.17,5.89-20.75t8-20.51h1.45q.72,42.24,2.92,126.22.25,23.44,5.13,69.34,9.76,47.12,37.36,47.12Q758.38,581.79,777.42,563.23Z"/>
      <path d="M804.27,309.81Q795,309.81,795,292l-5.86,1.47q-18.55,32.48-30,32.47-8.55,0-8.55-11.48l.73-7.57-8.54,4.64q-6.84,18.6-6.84,25.26,0,13.82,14.2,13.81,16.39,0,31.08-21.16,8.8,6.27,14.44,6.26,17.63,0,29.12-21.24,8.57-15.61,11-36.62L828.2,280Q818.44,309.82,804.27,309.81Z"/>
      <path d="M841.87,254.15l-69.58,24.41q-16.37,5.63-27.1,22.47L825,272.71Q834.79,269.29,841.87,254.15Z"/>
      <path d="M894.36,426.59q0,51.93-38.65,92.94-14.93,15.87-24,19-4.63,24.91-68.42,72.76l12.45-45.9a154.66,154.66,0,0,0,21-20,21.12,21.12,0,0,1-3.71-12.7q0-20,14-49.8,15.69-33.69,32.6-33.69,6.85,0,11.52,11.23a44.8,44.8,0,0,1,3.92,17.33l-6.18,23q9.71-6.35,18-18.06,9-12.94,9-23.44a57.49,57.49,0,0,0-8-29.41q-9.29-15.75-23.93-15.76-17.34,0-35.89,23.2-16.35,20.75-20.26,40-1.95,13.18-6.59,39.56l-1.71.24a142.06,142.06,0,0,1-.73-15.87q0-41.75,20.55-81.79,24.46-47.83,61.9-47.85Q894.36,371.58,894.36,426.59Zm-57.13,81.22q0-5.85-4.23-11.84t-9.8-6c-2.74,0-5.49,1.75-8.22,5.25s-4.12,6.71-4.12,9.64q0,11.49,10.65,11.48Q829.49,516.36,837.23,507.81Z"/>
      <path d="M941,348.63q-5.13,16.61-14.16,21l-85.45,42q3.9-15.14,23-24.66Z"/>
      <path d="M1114.33,562.74l-12.45,46.4q-15.63,12.47-56.4,29.83-8.16,36.42-39.06,78Q974.2,760.47,942,774.4q-27.11,11.73-68.12,11.73-15.63,0-46.38-5.19-36.63-5.94-37.85-12.61l2-1.48q7.32.24,23.19,2.93,15.13,2.43,23.44,2.44,16.85,0,49.31-9.52,70.56-20.76,122.32-81.79,18.06-21.24,20.51-37.11-21.24,5.87-28.57,5.86-22.21,0-22.22-14.65,0-15.37,12.46-38.82,13.9-26.12,27.58-26.12,12,0,21.36,9.28t9.41,21.24Q1091.38,583.25,1114.33,562.74Z"/>
      <path d="M1130.2,213.38q0,19-15.07,35.4T1081,265.14q-20.1,0-20.1-17.58,0-19.77,14-38.33Q1090,189,1109.13,189q8.58,0,15.19,8.06A26.15,26.15,0,0,1,1130.2,213.38Zm-15.87,16.18q0-6-8-12.9t-13.88-6.94q-7.37,0-13.38,6.69t-6,14.14q0,10.66,19.16,10.66Q1114.33,241.21,1114.33,229.56Z"/>
      <path d="M1177.32,409.42q0,68.85-17.34,113.77-21,53.71-71.77,88.87l12.2-45.65q62.27-49.81,62.26-100.1,0-37.59-23.68-91.07-4.59,23.94-13.77,71.54-3.87,20.5-6.52,20.51l-2.18-.74-.48-3.17q0-19.77,10.21-74.22,10.7-58.83,18.48-67.63,13.38,8.31,23.59,40.29Q1177.32,389.41,1177.32,409.42Z"/>
      <path d="M1225.17,202.15q-5.13,16.6-14.16,21l-85.45,42q3.9-15.13,23-24.66Z"/>
      <g>
        <path d="M1229.56,282.71q0-7.32-8.78-7.32c-8.15,0-12.21-1.14-12.21-3.42q0-6.09,7.32-6.1a12,12,0,0,1,4.89,1q2.43-1.71,7-10.28t5.25-12.2a14.93,14.93,0,0,0-5.4-1.69q-10.32,0-23.82,17.82t-13.5,28.32q0,9.53,9.65,9.28c5.11-.16,7.91.24,8.41,1.22q-3.9,5.37-25.63,13.42L1152.9,323q0,2.92,3.17,2.93,20.52,0,44.93-11.48Q1229.56,300.78,1229.56,282.71Z"/>
        <path d="M1297.25,404.05a525.26,525.26,0,0,0-44.78-103q-15.09,45.41-15.09,136,0,48.84,7.95,50.29,5.55-2.67,5.55-28.07,0-13.67,6.27-60.55,12.27,23.2,26.52,62.26,16.21,44.67,16.21,63,0,25.64-15.38,50.78-9,14.89-33.45,42.23-10.5,11-21.24,22.22-12.45,13.43-17.82,24.41a2.11,2.11,0,0,0,2.43,2q2.19,0,10.23-2.93,57-20.75,75.75-54.93,15.84-28.57,15.83-93.51Q1316.23,464.86,1297.25,404.05Z"/>
      </g>
    </g>
  </g>
</svg>
