<svg xmlns="http://www.w3.org/2000/svg" viewBox="0 0 1500 1000">
  <title>EH-Artboard 77</title>
  <g id="ElMuehir">
    <g>
      <path d="M455.44,311.88q0,18.06-16.39,39.52l7.47,7.32L438,382.87a170.94,170.94,0,0,1-16.11-12.73Q384,405.39,364.23,405.4q-3.9,0-13.42-2.93,29.78-14.42,62.25-38.09-9.62-9.27-9.62-16.36,0-12.69,13.85-29.66t26-17Q455.44,301.39,455.44,311.88Zm-19.53,21.53q0-11.27-9.66-11.27l-3.72,1.47A11,11,0,0,0,419.8,331q0,4.89,11.65,14.45Q435.92,337.82,435.91,333.41Z"/>
      <path d="M548.71,556.76,536,603.88q-30.27,17.58-42.24,25.64-28.56,19-34.91,31.49-19.53,42.24-39.06,84.23-28.32,53.7-59.08,64-23.45,8-51.52,8-56.38,0-72.51-9.51l-.73-1.23,2-2.2a163.39,163.39,0,0,0,32,2.93q44.93,0,85-28.81,35.4-25.87,59.81-68.36,1.71-3.17,23.2-45.9,13.9-27.82,27-43.57t41.39-33.33Q537.72,567.75,548.71,556.76Z"/>
      <path d="M879.52,364.38q-5.13,16.61-14.16,21l-85.45,42q3.9-15.14,23-24.66Z"/>
      <path d="M994.51,250.85q0,18-16.4,39.52l7.47,7.31L977,321.83a166.58,166.58,0,0,1-16.12-12.73q-37.84,35.26-57.62,35.26-3.91,0-13.43-2.93,29.79-14.4,62.26-38.09-9.63-9.27-9.63-16.35,0-12.69,13.86-29.67t26-17Q994.51,240.36,994.51,250.85ZM975,272.37q0-11.25-9.67-11.26l-3.72,1.47a10.94,10.94,0,0,0-2.73,7.34q0,4.9,11.65,14.45Q975,276.78,975,272.37Z"/>
      <path d="M1051.15,557.25l-12.45,46.42a36.09,36.09,0,0,1-19.29,5.58q-17.34,0-27.34-15.29-20.52,25.39-25.64,25.39-5.62,0-16.6-12.94-10.26-12-12.21-18.76-5.61,7.53-21,18l12.2-45.43q11.24-10.5,33.69-31.25,2.44,0,24.17,18.31t37.11,18.31A46.77,46.77,0,0,0,1051.15,557.25Z"/>
      <path d="M1078,207.15q0,19-15.07,35.4t-34.17,16.36q-20.1,0-20.09-17.58,0-19.77,14-38.33,15.2-20.25,34.3-20.26,8.58,0,15.19,8.06A26.1,26.1,0,0,1,1078,207.15Zm-15.87,16.18q0-6-8-12.9t-13.87-6.94q-7.38,0-13.39,6.7t-6,14.13q0,10.67,19.16,10.67Q1062.13,235,1062.13,223.33Z"/>
      <path d="M1125.12,403.2q0,68.85-17.33,113.77-21,53.71-71.78,88.86l12.21-45.65q62.25-49.8,62.25-100.1,0-37.59-23.68-91.06-4.59,23.93-13.77,71.53-3.87,20.51-6.52,20.51l-2.17-.73-.49-3.18q0-19.77,10.21-74.22,10.71-58.83,18.49-67.62,13.37,8.29,23.58,40.28Q1125.12,383.19,1125.12,403.2Z"/>
      <path d="M1173,195.92q-5.12,16.61-14.16,21l-85.45,42q3.92-15.14,23-24.66Z"/>
      <path d="M603.39,292.35l-70.06,27.83q-10.76,4.15-16.12,9.28-3.66,3.66-11.23,14.89l77.39-31Q595.82,308.22,603.39,292.35Z"/>
      <path d="M534.76,308.33q8.76,0,18-6.34t12.91-14.65q7.29,5.27,14.36,5.26,18.75,0,30.2-23.92a91.62,91.62,0,0,0,9-40.77l-6.34,2.44Q601.19,266.23,587,266.24q-7.81,0-7.82-23.93l-4.88,1.46q-18.55,39.55-32.47,39.56-5.62,0-5.62-6.35a71.55,71.55,0,0,1,3.42-20.75l-5.78,1q-13.51,22.71-13.5,35Q520.39,308.33,534.76,308.33Z"/>
      <path d="M572.63,579.22v-5.86q33-33,66.16-65.91a285.68,285.68,0,0,1,78.62-50.3q2.69-4.14,6-17.57t3.29-19.29l-.24-2.69Q702.52,432,672.73,432a111.64,111.64,0,0,1-14.4-1.35,113.5,113.5,0,0,0-14.41-1.34q-37.84,0-55.42,17.34-16.12,15.61-22.85,53.95-4.74,27.35-4.74,32l.25,13.92-15.38,12.94-12.45,45.9a264.31,264.31,0,0,0,30-23.68,433.58,433.58,0,0,0,11.48,61.76l1.71.74a4.26,4.26,0,0,0,1.46-2.93v-1.47Q572.39,588,572.63,579.22Zm-1.71-49.8a77.56,77.56,0,0,1,6.11-29q8.54-21.24,27.83-27.35,11-3.66,40.53-4.15Q631.47,479.63,608,503.54q-24.42,24.9-37.11,35.16Z"/>
      <path d="M604.37,312.62q-15.14,21.74-22,34.18,14.4,10.26,21.73,15.14,12.45-12.45,23-33,0-4.39-9.53-10A101.88,101.88,0,0,0,604.37,312.62Z"/>
      <path d="M859.86,573.12q-9.42-9.27-21.36-9.28-13.68,0-27.59,26.13-12.45,23.43-12.45,38.81,0,14.65,22.22,14.65,7.32,0,28.56-5.86a48.32,48.32,0,0,1-7.08,20.27q-2.45,3.66-13.42,16.84-51.76,61-122.32,81.79Q673.95,766,657.1,766q-8.29,0-23.43-2.44-15.87-2.68-23.2-2.93l-2,1.48q1.23,6.67,37.84,12.62,30.76,5.19,46.39,5.19,41,0,68.11-11.74,32.24-13.93,64.46-57.43,30.88-41.57,39.06-78,40.77-17.34,56.4-29.82l12.45-46.44q-23,20.52-64,37.86Q869.26,582.41,859.86,573.12Z"/>
      <path d="M787.47,500q20.5,0,44.92-11.5,28.38-13.69,28.39-31.8,0-7.33-8.71-7.34-12.11,0-12.1-3.43,0-6.1,7.25-6.11a11.68,11.68,0,0,1,4.83,1q2.41-1.69,6.89-10.27c3-5.73,4.72-9.79,5.2-12.21a14.82,14.82,0,0,0-5.37-1.69q-10.26,0-23.69,17.88t-13.42,28.35q0,9.5,9.65,9.25,7.66-.24,8.41,1.22-3.91,5.39-25.64,13.46L784.3,497.06C784.3,499,785.35,500,787.47,500Z"/>
      <path d="M1245.05,397.83a525.35,525.35,0,0,0-44.78-103q-15.09,45.4-15.09,136,0,48.82,8,50.29,5.53-2.68,5.54-28.08,0-13.67,6.28-60.54,12.27,23.19,26.52,62.25,16.2,44.69,16.2,63,0,25.63-15.38,50.78-9,14.89-33.45,42.24l-21.24,22.21q-12.45,13.44-17.82,24.42c.16,1.3,1,1.95,2.44,1.95s4.86-1,10.23-2.93q57-20.75,75.75-54.93Q1264,572.88,1264,507.93,1264,458.63,1245.05,397.83Z"/>
      <path d="M1177.37,276.49q0-7.32-8.79-7.32-12.21,0-12.21-3.42,0-6.11,7.33-6.11a11.92,11.92,0,0,1,4.88,1q2.43-1.69,7-10.28t5.25-12.2a15,15,0,0,0-5.41-1.69q-10.31,0-23.81,17.82t-13.51,28.32q0,9.53,9.65,9.28c5.11-.16,7.92.24,8.41,1.22q-3.9,5.37-25.63,13.43l-29.79,10.25c0,2,1.06,2.93,3.18,2.93q20.5,0,44.92-11.47Q1177.36,294.55,1177.37,276.49Z"/>
    </g>
  </g>
</svg>
