<svg xmlns="http://www.w3.org/2000/svg" viewBox="0 0 1500 1000">
  <title>EH-Artboard 96</title>
  <g id="ElManiu">
    <g>
      <path d="M449.29,248.28q0,18.06-16.39,39.52l7.47,7.32-8.55,24.15a170.66,170.66,0,0,1-16.12-12.73q-37.84,35.25-57.62,35.26-3.9,0-13.43-2.93,29.79-14.4,62.26-38.09-9.63-9.27-9.62-16.36,0-12.69,13.85-29.66t26-17Q449.29,237.79,449.29,248.28Zm-19.53,21.53q0-11.26-9.67-11.27L416.37,260a11,11,0,0,0-2.72,7.35q0,4.9,11.65,14.45Q429.76,274.22,429.76,269.81Z"/>
      <path d="M611.06,554l-12.45,46.52q-31.5,19.1-51.51,19.09-24.68,0-36.64-31.43l-76.25,57.21q-61.33,46.22-61.33,53.79,0,10.27,33.69,10.27,44.91,0,106.44-24.41,57.87-23.19,96-53.47h1.22q-2.92,15.17-60.55,56.76-31.74,23-77.39,41.83-51,21-84,21-41,0-41-18.57,0-36.66,65.19-92.62,26.11-22.23,93.75-69.15-.74-11.49-2.21-15.64-2.93-8.81-11.49-9.53c-7.34-.65-11-1.72-11-3.18q0-5.62,6.09-20.65t10.23-20.16q3.42-4.39,23.63-8.06,17.05-2.94,26.8-2.94,24.62,0,24.61,15.1,0,21.42-40.14,61.11,7.81,11,34.67,11Q580.54,577.88,611.06,554Z"/>
      <path d="M667.55,756.84q-5.13,16.59-14.16,21l-85.45,42q3.9-15.14,22.95-24.65Z"/>
      <path d="M822.58,554.44l-12.45,46.8Q790.6,614.5,770.58,614.5q-27.58,0-37.84-30.94-5.62-17.4-6.59-53.77l-1.84-73.74q-2.07-83-2.07-84.47,0-3.16,5.89-20.75t8-20.51h1.44q.74,42.24,2.93,126.22.24,23.44,5.13,69.34Q755.45,573,783,573,803.54,573,822.58,554.44Z"/>
      <path d="M880.69,278.81q-5.13,16.6-14.16,21l-85.45,42Q785,326.66,804,317.14Z"/>
      <path d="M942.46,554.69,930,601.1a36,36,0,0,1-19.28,5.59q-17.34,0-27.35-15.3-20.5,25.4-25.63,25.39-5.62,0-16.6-12.94-10.26-12-12.21-18.76-5.62,7.53-21,18l12.21-45.43q11.24-10.5,33.69-31.25,2.45,0,24.17,18.31T915.11,563A46.84,46.84,0,0,0,942.46,554.69Z"/>
      <path d="M969.31,204.59q0,19-15.07,35.4t-34.17,16.36q-20.1,0-20.1-17.58,0-19.77,14-38.33,15.18-20.26,34.3-20.26,8.58,0,15.19,8A26.15,26.15,0,0,1,969.31,204.59Zm-15.87,16.18q0-6-8-12.9t-13.88-6.94q-7.37,0-13.38,6.69t-6,14.14q0,10.67,19.16,10.66Q953.44,232.42,953.44,220.77Z"/>
      <path d="M1016.43,400.63q0,68.85-17.33,113.77-21,53.72-71.78,88.87l12.21-45.65q62.25-49.82,62.25-100.1,0-37.59-23.68-91.06-4.59,23.93-13.77,71.53-3.87,20.5-6.52,20.51l-2.18-.74-.48-3.17q0-19.77,10.21-74.22,10.71-58.83,18.48-67.63Q997.22,321,1007.43,353,1016.43,380.62,1016.43,400.63Z"/>
      <path d="M1064.28,193.36q-5.13,16.6-14.16,21l-85.45,42q3.9-15.14,23-24.66Z"/>
      <path d="M610.42,469q-7.32,18.08-9.52,32.72l.49,1.71,2.69-.25a44,44,0,0,1,10.25-13.42q11,12.69,11,38.08v5.37Q617,550,607.74,556.88l-12.45,45.9q28.8-24.4,39.68-69.33,8.41-34.92,8.41-42,0-28.08-15.09-49.32Q619.22,447.27,610.42,469Z"/>
      <path d="M616.54,395.26q1.71-2.43,10-17.33,0-4.15-9.52-9.77a123.93,123.93,0,0,0-13.18-6.59l-21.73,34.18q14.16,10.5,21.73,15.14A72.74,72.74,0,0,0,616.54,395.26Z"/>
      <path d="M1136.36,395.26a525.26,525.26,0,0,0-44.78-103q-15.09,45.4-15.09,136,0,48.84,8,50.3,5.54-2.68,5.54-28.08,0-13.67,6.27-60.55,12.29,23.21,26.52,62.26,16.21,44.67,16.21,63,0,25.64-15.38,50.78-9,14.9-33.45,42.23-10.5,11-21.24,22.22-12.45,13.43-17.82,24.42c.16,1.3,1,2,2.44,2s4.86-1,10.22-2.93q57-20.74,75.75-54.93,15.84-28.57,15.84-93.51Q1155.35,456.07,1136.36,395.26Z"/>
      <path d="M1068.68,273.93q0-7.33-8.79-7.33-12.21,0-12.21-3.42,0-6.09,7.32-6.1a12,12,0,0,1,4.89,1q2.43-1.71,6.95-10.28c3-5.72,4.77-9.78,5.25-12.2a14.93,14.93,0,0,0-5.4-1.69q-10.32,0-23.82,17.82T1029.37,280q0,9.53,9.65,9.28c5.11-.16,7.92.24,8.41,1.22q-3.9,5.37-25.63,13.43L992,314.21q0,2.93,3.18,2.93,20.5,0,44.92-11.48Q1068.67,292,1068.68,273.93Z"/>
    </g>
  </g>
</svg>
