<svg xmlns="http://www.w3.org/2000/svg" viewBox="0 0 1500 1000">
  <title>EH-Artboard 1</title>
  <g id="Allah">
    <g>
      <path d="M599.19,340q0,18-16.39,39.52l7.47,7.31L581.72,411a169.51,169.51,0,0,1-16.11-12.74Q527.75,433.48,508,433.47q-3.9,0-13.42-2.93,29.77-14.4,62.25-38.08-9.62-9.29-9.62-16.36,0-12.69,13.85-29.66t26-17Q599.19,329.47,599.19,340Zm-19.53,21.52q0-11.25-9.66-11.26l-3.72,1.47a11,11,0,0,0-2.73,7.35q0,4.89,11.65,14.44Q579.67,365.89,579.66,361.48Z"/>
      <path d="M690.75,646.85l-12.21,46.39A71.09,71.09,0,0,1,650,698.85q-13.17,0-26.85-12.81t-20.26-12.82q-10.75,0-31.74,16.84Q557,702.77,542.8,715.21a179.38,179.38,0,0,1,10.5-38.82q5.12-12.82,30.15-32.66t38-19.83q8.55,0,18.19,15.5t23.8,15.51Q677.08,654.91,690.75,646.85Z"/>
      <path d="M793.29,645.87l-12.46,46.22q-15.62,12.13-33,12.13-26.39,0-25.64-48l.24-23.92q-18.43,41-48.58,62.5l12.21-45.47q24.3-20,30.69-32.22,7.61-13.92,7.61-42.73,0-12.45-1.21-37t-1.2-37q0-6.35,4.8-21.12t8.66-18.43l2.16,1q2.45,42.24,2.44,169.92,0,29.31,20.27,29.3Q775.71,661,793.29,645.87Z"/>
      <path d="M866.53,492.31q0,68.85-17.34,113.77-21,53.71-71.77,88.87l12.2-45.66q62.26-49.8,62.26-100.1,0-37.59-23.68-91.06-4.59,23.92-13.77,71.53-3.87,20.51-6.52,20.51l-2.18-.73-.48-3.18q0-19.77,10.21-74.21,10.69-58.85,18.48-67.63,13.38,8.29,23.59,40.28Q866.53,472.3,866.53,492.31Z"/>
      <path d="M914.38,285q-5.13,16.61-14.16,21l-85.45,42q3.9-15.13,23-24.66Z"/>
      <path d="M715.4,307.25q-9.27,0-9.27-17.82l-5.86,1.46q-18.56,32.48-30,32.47-8.55,0-8.55-11.47l.74-7.57L653.88,309q-6.84,18.6-6.83,25.25,0,13.82,14.19,13.81,16.39,0,31.08-21.15,8.82,6.25,14.44,6.26,17.63,0,29.13-21.24,8.55-15.61,11-36.62l-7.57,2.2Q729.57,307.26,715.4,307.25Z"/>
      <path d="M656.32,298.46l79.84-28.32q9.75-3.42,16.84-18.55L683.42,276Q667.07,281.63,656.32,298.46Z"/>
      <path d="M986.46,486.94a525.35,525.35,0,0,0-44.78-103q-15.1,45.4-15.09,136,0,48.83,7.95,50.29,5.55-2.69,5.55-28.08,0-13.67,6.27-60.54,12.27,23.19,26.52,62.25,16.2,44.68,16.21,63,0,25.63-15.38,50.78-9,14.89-33.45,42.24L919,722.05q-12.45,13.43-17.82,24.41a2.11,2.11,0,0,0,2.43,1.95q2.19,0,10.23-2.93,57-20.75,75.75-54.93,15.82-28.56,15.83-93.5Q1005.44,547.73,986.46,486.94Z"/>
      <path d="M918.77,365.6q0-7.32-8.79-7.32-12.21,0-12.2-3.42,0-6.11,7.32-6.11a11.88,11.88,0,0,1,4.88,1q2.44-1.69,7-10.28t5.25-12.2a15.25,15.25,0,0,0-5.4-1.69q-10.32,0-23.82,17.82t-13.5,28.32q0,9.53,9.65,9.28,7.67-.24,8.41,1.22-3.91,5.37-25.64,13.43l-29.78,10.25c0,2,1.06,2.93,3.17,2.93q20.52,0,44.93-11.47Q918.77,383.68,918.77,365.6Z"/>
    </g>
  </g>
</svg>
