<svg xmlns="http://www.w3.org/2000/svg" viewBox="0 0 1500 1000">
  <title>EH-Artboard 37</title>
  <g id="ElHabir">
    <g>
      <path d="M528.44,164.54q0,18.06-16.39,39.52l7.47,7.32L511,235.53a170.66,170.66,0,0,1-16.12-12.73Q457,258.05,437.23,258.06q-3.9,0-13.42-2.93,29.78-14.4,62.25-38.09-9.63-9.27-9.62-16.36,0-12.69,13.85-29.66t26-17Q528.44,154.05,528.44,164.54Zm-19.53,21.53q0-11.26-9.66-11.27l-3.72,1.47a11,11,0,0,0-2.73,7.35q0,4.9,11.65,14.45Q508.91,190.48,508.91,186.07Z"/>
      <path d="M748.41,783q-5.11,16.6-14.16,21L648.8,846q3.91-15.15,23-24.66Z"/>
      <path d="M823.36,280.52q-5.11,16.61-14.16,21l-85.45,42q3.91-15.13,23-24.66Z"/>
      <path d="M999.15,206.3q0,19-15.07,35.4T949.9,258.06q-20.1,0-20.09-17.58,0-19.78,14-38.33,15.18-20.27,34.3-20.27,8.56,0,15.19,8.06A26.21,26.21,0,0,1,999.15,206.3Zm-15.87,16.18q0-6-8-12.9t-13.87-6.94c-4.92,0-9.37,2.23-13.39,6.69s-6,9.18-6,14.14q0,10.67,19.15,10.66Q983.28,234.13,983.28,222.48Z"/>
      <path d="M1046.26,402.34q0,68.85-17.33,113.77-21,53.71-71.78,88.87l12.21-45.65q62.25-49.82,62.26-100.1,0-37.59-23.69-91.07-4.57,23.94-13.77,71.54-3.87,20.51-6.52,20.51l-2.17-.74L985,456.3q0-19.77,10.21-74.22,10.69-58.83,18.48-67.63,13.37,8.31,23.59,40.29Q1046.26,382.33,1046.26,402.34Z"/>
      <path d="M1094.12,195.07q-5.13,16.6-14.16,21l-85.45,42q3.9-15.13,23-24.66Z"/>
      <path d="M556,774.9l.24,2.2q12.16-5.86,27.5-14.89,25.79-15.15,30.41-20.75,6.57-7.58,12.9-34.18-38.42,21.24-55.42,30Q556,767.33,556,774.9Z"/>
      <path d="M688.07,560.12q-28.1,21.66-44.64,21.67-12,0-20.51-5.62a20.83,20.83,0,0,1-9.52-18.06l-1.22-3.18Q580.7,573,565.06,582.76q-19.29,11.73-30.76,44.48-8.06,26.88-16.36,53.77-34.17,89.68-104,124.88-37.35,18.81-70.07,18.82a154.7,154.7,0,0,1-27.1-2.44l-1.95,2.48.24,1.74q21.49,10.17,77.4,10.18,95,0,134-125.68,4.88-17.61,10-35.46,6.59-20.53,16.36-32.27,13.9-16.87,48.09-35.7,5.87,20.13,25.15,20.13,20.5,0,53.95-24.8l.53-2-4.43,3.48Z"/>
      <path d="M683.72,649.41q-21,32.24-22,34.43l21.49,14.89q11-10,22.7-33Q705.93,657.48,683.72,649.41Z"/>
      <path d="M766.13,556.05l.11-.39q-9.78,9.78-25.64,18.31-17.82,9.28-29.54,9.28c-6.68,0-11.39-.89-14.16-2.68q19-26.13,19-44a42.43,42.43,0,0,0-.73-8.3Q701.53,544,688.35,559.08l-.28,1c1.46-1.12,2.93-2.27,4.43-3.48l-11.92,44.28,2.16-1.68q9.76,18,30.76,18,18.53,0,37.68-13.16l12.37-45.54Z"/>
      <path d="M688.07,560.12,676.15,604.4l4.43-3.48,11.92-44.28C691,557.85,689.53,559,688.07,560.12Z"/>
      <path d="M872.65,567.62q-13.92-11.48-13.92-30.28a112.67,112.67,0,0,1,1.74-19.78q26.13-23.19,75.44-33.21,11.24-15.87,15.63-39.32a76.56,76.56,0,0,1-32.23,6.8q-11,0-31.86-6.19t-31.63-6.19q-41.13,0-61.2,37.08-10.29,19-22,73.42l-6.45,6.1-12.35,46.14c-.86.63-1.73,1.25-2.6,1.84l-.08.31q11.71-8.73,17.58-13.35l-2,30.28v30.51l1.22,1.22,1.23-.73,2.19-4.15q-1-26.37,6.59-65,37-32.25,69.34-56.93-4.38,19.51-4.38,31.94,0,26.1,15.33,44.14,16.11,19,42,19,29.78,0,59.81-18.5l12.45-46.5q-28.07,22-67.87,22Q885.6,578.37,872.65,567.62Zm-50-57.29q-10.74,7.83-39.55,31.57,9.76-62.65,54.44-62.65,7.82,0,28.32,4.89Q845.58,493.44,822.63,510.33Z"/>
      <path d="M855.5,354.74q0-3.92-9.53-9.77-4.63-2.69-12.94-6.59-20.5,30.76-22.46,34.67A213.27,213.27,0,0,0,832.3,387.7Q843.78,377.94,855.5,354.74Z"/>
      <path d="M766.13,556.05l-2.58,2.44L751.18,604c.87-.59,1.74-1.21,2.6-1.84Z"/>
      <path d="M1166.2,397a525.29,525.29,0,0,0-44.79-103q-15.09,45.41-15.09,136,0,48.84,8,50.29,5.55-2.67,5.55-28.07,0-13.66,6.27-60.55,12.27,23.2,26.52,62.26,16.2,44.67,16.2,63,0,25.64-15.38,50.78-9,14.89-33.44,42.23-10.5,11-21.25,22.22-12.45,13.42-17.82,24.41a2.12,2.12,0,0,0,2.44,2q2.19,0,10.23-2.93,57-20.74,75.75-54.93,15.83-28.58,15.83-93.51Q1185.18,457.78,1166.2,397Z"/>
      <path d="M1098.51,275.63q0-7.32-8.79-7.32-12.21,0-12.21-3.42,0-6.09,7.33-6.1a11.88,11.88,0,0,1,4.88,1q2.44-1.71,7-10.28t5.25-12.2a15,15,0,0,0-5.4-1.69q-10.32,0-23.82,17.82t-13.51,28.32q0,9.52,9.66,9.28c5.11-.16,7.91.24,8.41,1.22q-3.91,5.37-25.64,13.42l-29.78,10.26c0,1.95,1,2.93,3.17,2.93q20.51,0,44.92-11.48Q1098.51,293.71,1098.51,275.63Z"/>
    </g>
  </g>
</svg>
