<svg xmlns="http://www.w3.org/2000/svg" viewBox="0 0 1500 1000">
  <title>EH-Artboard 26</title>
  <g id="ElKabid">
    <g>
      <path d="M377.76,236.08q0,18-16.4,39.52l7.48,7.31-8.55,24.15a169.39,169.39,0,0,1-16.12-12.73q-37.85,35.26-57.62,35.26-3.92,0-13.43-2.93,29.79-14.4,62.26-38.09-9.63-9.27-9.62-16.35,0-12.69,13.85-29.67t26-17Q377.76,225.59,377.76,236.08ZM358.23,257.6q0-11.25-9.67-11.26l-3.72,1.47a10.94,10.94,0,0,0-2.73,7.34q0,4.91,11.65,14.45Q358.23,262,358.23,257.6Z"/>
      <path d="M712.47,769q-5.12,16.61-14.16,21l-85.44,42q3.9-15.13,22.94-24.66Z"/>
      <path d="M883.62,542.24,871.17,589q-19.54,13.26-39.55,13.25-27.6,0-37.85-30.94-5.61-17.4-6.59-53.77l-1.84-73.73q-2.07-83-2.06-84.47,0-3.18,5.88-20.76t8.05-20.5h1.45q.72,42.24,2.93,126.22.24,23.43,5.12,69.33,9.76,47.13,37.36,47.12Q864.58,560.79,883.62,542.24Z"/>
      <path d="M941.72,181.15q-5.13,16.6-14.16,21l-85.45,42Q846,229,865.06,219.48Z"/>
      <path d="M1040.84,192.38q0,19.05-15.06,35.4T991.6,244.14q-20.1,0-20.09-17.58,0-19.77,14-38.33Q1000.67,168,1019.78,168q8.57,0,15.19,8.06A26.15,26.15,0,0,1,1040.84,192.38ZM1025,208.56q0-6-8-12.9t-13.87-6.94q-7.38,0-13.39,6.7t-6,14.13q0,10.66,19.15,10.66Q1025,220.21,1025,208.56Z"/>
      <path d="M1088,388.43q0,68.85-17.33,113.77-21,53.71-71.78,88.86l12.21-45.65q62.25-49.8,62.25-100.1,0-37.59-23.68-91.06-4.59,23.92-13.77,71.53-3.87,20.5-6.52,20.51l-2.17-.73-.49-3.18q0-19.77,10.22-74.22,10.69-58.83,18.48-67.62,13.36,8.29,23.58,40.28Q1088,368.41,1088,388.43Z"/>
      <path d="M1135.81,181.15q-5.11,16.6-14.16,21l-85.44,42q3.9-15.13,22.94-24.66Z"/>
      <path d="M652.56,545A259,259,0,0,1,625.07,564q-23.19,13.92-35.15,16.36,46.88-66.89,46.87-105.71,0-5.87-3.42-5.86-18.06,0-57.13,24.9-62.49,39.79-80.81,119.63a167.46,167.46,0,0,1-23.08,2.2q-16.77,0-22.84-8-5.1-6.3-6.08-23.75l-1.95-1.21-1.71.49q-17.06,37.89-20.51,50.85a58.72,58.72,0,0,1,10,32.51q0,30.32-29.54,64-30,34.47-59.81,34.47-20.28,0-32.47-13.31t-12.21-33.85q0-47.4,35.15-84.06,21.24-22.23,77-56.57t76.05-55.35q16.11-16.86,17.33-23l-.73-1-2.68.49q-26.34,28.82-81.7,61.52-61.95,36.87-82.19,54.69-40.72,36.13-54.14,87.89-5.85,22.47-5.85,40.77,0,27.58,11.23,44.93,13.18,20.5,39.31,20.5,31.24,0,62.5-30.27,25.14-24.42,41.5-58.35,16.6-40.77,23.93-61.76,3.13,2.44,11.14,2.45a89.93,89.93,0,0,0,18.64-2.45q-7.08,32.29-10.5,48.69l1.71,2.45,3.42-2.45L490.31,656q22,0,74.46-36.87,13.43.24,41-10.95,26.12-10.71,38.81-20.2l.51-1.88c-1.59,1.54-3.22,3-4.9,4.47Zm-86.81,29.68q-31.5,27.82-59.82,36.37,14.66-35.15,25.39-48.09,13.18-16.35,43.7-32.47,24.91-13.18,31-13.19l2.2,2.2Q598.47,546.14,565.75,574.71Z"/>
      <path d="M543.29,427.49q0-3.42-9.77-9.52-4.63-2.69-12.7-6.84-14.16,21-22,34.43l21.49,15.13Q533,449.22,543.29,427.49Z"/>
      <path d="M658.28,638.43q-6.36-2.94-12.94-6.11-17.1,25.15-22,34.67l21.73,14.89q15.87-20.25,22.71-33.2Q665.6,642.59,658.28,638.43Z"/>
      <path d="M655.35,456.79q-7.33,18.06-9.53,32.71l.49,1.71L649,491a44,44,0,0,1,10.25-13.43q11,12.69,11,38.09V521q-8.31,16.85-17.58,23.68l-.1.35c1.7-1.37,3.27-2.71,4.74-4l-12.19,45.09q24.84-23.91,34.78-64.87,8.42-34.9,8.41-42,0-28.08-15.09-49.32Q664.14,435.06,655.35,456.79Z"/>
      <path d="M652.56,545l-12.35,45.55c1.68-1.43,3.31-2.93,4.9-4.47L657.3,541C655.83,542.32,654.26,543.66,652.56,545Z"/>
      <path d="M971.32,369.14q2.92-12.45,4.15-18.8-35.64,22-55.66,30-15.15,30-15.14,36.38l.24,2.93Q966.68,388.92,971.32,369.14Z"/>
      <path d="M918.18,549.07q33.55-38.57,33.55-62.25,0-31-14.11-31-6.81,0-20.44,10.76t-25.3,31.29q-12.42,22-12.41,37.64a35.14,35.14,0,0,0,1.2,9.29l-12.45,46.94A306.18,306.18,0,0,0,896,569.38q14.85,17.45,23.38,23.82a51.87,51.87,0,0,0,31.25,10.32,92.9,92.9,0,0,0,51.76-15.43l12.7-47.25Q988.25,561.53,957,561.52,926.73,561.52,918.18,549.07Zm-14.25-18.69q-8.35-9.72-8.35-15.57,0-4.38,11.06-14.11T922.36,491q12.76,0,12.77,9.48Q935.13,514.33,903.93,530.38Z"/>
      <path d="M1140.21,261.72q0-7.32-8.79-7.33-12.21,0-12.21-3.41,0-6.1,7.33-6.11a11.88,11.88,0,0,1,4.88,1c1.63-1.13,3.94-4.56,7-10.28s4.76-9.78,5.25-12.2a15,15,0,0,0-5.4-1.69q-10.32,0-23.82,17.82t-13.51,28.32q0,9.53,9.65,9.28c5.12-.16,7.92.24,8.42,1.22q-3.92,5.37-25.64,13.43L1063.55,302c0,2,1,2.93,3.17,2.93q20.51,0,44.92-11.47Q1140.2,279.78,1140.21,261.72Z"/>
      <path d="M1207.89,383.06a524.76,524.76,0,0,0-44.78-103Q1148,325.44,1148,416q0,48.83,8,50.29,5.55-2.69,5.55-28.08,0-13.67,6.27-60.54,12.27,23.19,26.52,62.25,16.2,44.69,16.2,63,0,25.63-15.38,50.78-9,14.89-33.45,42.24l-21.24,22.21q-12.45,13.44-17.82,24.42c.16,1.3,1,1.95,2.44,1.95s4.87-1,10.23-2.93q57-20.75,75.75-54.93,15.83-28.56,15.83-93.51Q1226.88,443.86,1207.89,383.06Z"/>
    </g>
  </g>
</svg>
