<svg xmlns="http://www.w3.org/2000/svg" viewBox="0 0 1500 1000">
  <title>EH-Artboard 93</title>
  <g id="ElDzamiu">
    <g>
      <path d="M372.26,236.08q0,18-16.39,39.52l7.47,7.31-8.55,24.15a169.33,169.33,0,0,1-16.11-12.73q-37.85,35.26-57.62,35.26-3.92,0-13.43-2.93,29.78-14.4,62.25-38.09-9.61-9.27-9.62-16.35,0-12.69,13.85-29.67t26-17Q372.26,225.59,372.26,236.08ZM352.73,257.6q0-11.25-9.66-11.26l-3.72,1.47a10.94,10.94,0,0,0-2.73,7.34q0,4.91,11.65,14.45Q352.74,262,352.73,257.6Z"/>
      <path d="M534,541.82l-12.45,46.51q-31.49,19.09-51.51,19.09-24.68,0-36.64-31.43l-76.24,57.22q-61.35,46.2-61.34,53.79,0,10.26,33.69,10.27,44.93,0,106.45-24.42,57.86-23.19,95.94-53.47h1.22q-2.92,15.18-60.54,56.76-31.74,23-77.4,41.84-51,21-84,21-41,0-41-18.57,0-36.66,65.19-92.61,26.12-22.25,93.75-69.16-.73-11.49-2.2-15.64-2.94-8.79-11.5-9.53-11-1-11-3.18,0-5.61,6.08-20.65t10.24-20.16q3.41-4.39,23.63-8.06,17-2.93,26.8-2.93,24.6,0,24.6,15.09,0,21.42-40.13,61.11,7.8,10.95,34.66,10.95Q503.52,565.67,534,541.82Z"/>
      <path d="M590.53,769q-5.13,16.61-14.16,21l-85.45,42q3.9-15.13,22.95-24.66Z"/>
      <path d="M638.62,478.52Q636.43,491,622,514.89q-14.4-2.68-21.24-2.68-21,0-44.19,33-28.08,39.54-38.33,45.41l12.45-45.9q7.81-6.34,18.31-22.59t17.34-22.33v-1.71l-4.4-4.64q5.13-18.8,18.56-37.84,8.79,6.35,29.17,11.72T638.62,478.52Z"/>
      <path d="M812.69,542.24,800.24,589q-19.53,13.26-39.55,13.25-27.59,0-37.84-30.94-5.62-17.4-6.59-53.77l-1.84-73.73q-2.07-83-2.07-84.47,0-3.18,5.89-20.76t8-20.5h1.44q.74,42.24,2.93,126.22.24,23.43,5.13,69.33,9.76,47.13,37.35,47.12Q793.66,560.79,812.69,542.24Z"/>
      <path d="M870.8,327.64q-5.13,16.61-14.16,21l-85.45,42q3.9-15.13,22.95-24.66Z"/>
      <path d="M1046.34,192.38q0,19.05-15.07,35.4t-34.18,16.36q-20.08,0-20.09-17.58,0-19.77,14-38.33,15.18-20.26,34.3-20.26,8.57,0,15.19,8.06A26.1,26.1,0,0,1,1046.34,192.38Zm-15.87,16.18q0-6-8-12.9t-13.87-6.94q-7.36,0-13.39,6.7t-6,14.13q0,10.66,19.16,10.66Q1030.47,220.21,1030.47,208.56Z"/>
      <path d="M1093.46,388.43q0,68.85-17.34,113.77-21,53.71-71.78,88.86l12.21-45.65q62.27-49.8,62.26-100.1,0-37.59-23.68-91.06-4.59,23.92-13.77,71.53-3.87,20.5-6.52,20.51l-2.18-.73-.48-3.18q0-19.77,10.21-74.22,10.69-58.83,18.48-67.62,13.38,8.29,23.59,40.28Q1093.45,368.41,1093.46,388.43Z"/>
      <path d="M1141.31,181.15q-5.13,16.6-14.16,21l-85.45,42q3.9-15.13,23-24.66Z"/>
      <path d="M920.09,553.71q-13.92-11.48-13.92-30.28a112.51,112.51,0,0,1,1.74-19.78q26.12-23.2,75.44-33.21,11.22-15.88,15.62-39.32a76.7,76.7,0,0,1-32.22,6.79q-11,0-31.86-6.19t-31.63-6.18q-41.13,0-61.21,37.07-10.27,19-22,73.42l-9,8.54-12.46,45.86q11.73-8.74,17.58-13.35l-2,30.27v30.52l1.22,1.22,1.22-.73,2.2-4.15q-1-26.37,6.59-65,37-32.25,69.34-56.94-4.4,19.51-4.38,31.95,0,26.09,15.32,44.13,16.13,19,42,19,29.79,0,59.82-18.5l12.45-46.49q-28.08,22-67.87,22Q933,564.45,920.09,553.71Zm-50-57.3q-10.76,7.84-39.55,31.57,9.75-62.64,54.44-62.65,7.81,0,28.32,4.9Q893,479.53,870.07,496.41Z"/>
      <path d="M840.83,664.31q-20.31,30.51-22.52,34.42,10.77,8.29,21.79,15.38,15.18-19.29,22.77-33.2Q862.87,672.12,840.83,664.31Z"/>
      <path d="M1145.7,261.72q0-7.32-8.79-7.33-12.21,0-12.2-3.41,0-6.1,7.32-6.11a11.88,11.88,0,0,1,4.88,1q2.44-1.69,7-10.28t5.25-12.2a15,15,0,0,0-5.4-1.69q-10.32,0-23.82,17.82t-13.5,28.32q0,9.53,9.65,9.28c5.11-.16,7.91.24,8.41,1.22q-3.92,5.37-25.64,13.43L1069,302c0,2,1,2.93,3.17,2.93q20.51,0,44.92-11.47Q1145.71,279.78,1145.7,261.72Z"/>
      <path d="M1213.39,383.06a525.35,525.35,0,0,0-44.78-103q-15.1,45.41-15.1,136,0,48.83,8,50.29,5.55-2.69,5.55-28.08,0-13.67,6.27-60.54,12.27,23.19,26.52,62.25,16.2,44.69,16.2,63,0,25.63-15.38,50.78-9,14.89-33.44,42.24L1146,618.16q-12.45,13.44-17.83,24.42a2.12,2.12,0,0,0,2.44,1.95q2.19,0,10.23-2.93,57-20.75,75.75-54.93,15.82-28.56,15.83-93.51Q1232.37,443.86,1213.39,383.06Z"/>
    </g>
  </g>
</svg>
