<svg xmlns="http://www.w3.org/2000/svg" viewBox="0 0 1500 1000">
  <title>EH-Artboard 36</title>
  <g id="ElLatif">
    <g>
      <path d="M247.26,258.42q0,18-16.39,39.52l7.47,7.31-8.55,24.15a169.33,169.33,0,0,1-16.11-12.73q-37.85,35.26-57.62,35.26-3.92,0-13.43-2.93,29.77-14.4,62.25-38.09-9.62-9.27-9.62-16.35,0-12.71,13.85-29.67t26-17Q247.26,247.92,247.26,258.42Zm-19.53,21.52q0-11.26-9.66-11.26l-3.72,1.47a10.94,10.94,0,0,0-2.73,7.34q0,4.9,11.65,14.45Q227.74,284.35,227.73,279.94Z"/>
      <path d="M804.08,564l-12.45,46.46q-43,31.55-79.09,37.91-75.43,61.27-171.86,97.41-99.84,37.59-194.31,37.6-63.48,0-116-25.4Q164.74,726.45,164.75,670q0-57.36,52.95-106.69,55.38-51.75,141.77-51.75,21,0,63.57,3.17t63.81,3.42q81.49,0,136.89-39.06Q645.22,464,653,446.9q-7.1-3.42-19.53-16.6,9.27-12.69,29.8-33.45,8.55,7.08,20.77,22.71a224.93,224.93,0,0,1-57.38,65.67q-36.37,28.56-78.86,39.69-35.66,9.39-87.41,9.38-19.77,0-59.21-1.95T342,530.64q-70.06,0-118.41,39.31-38.84,31.49-38.83,76.66,0,53.46,72.76,79.34,51.76,18.31,118.17,18.31,67.14,0,159.43-32,86.67-30.3,148.2-71.37l-1.73-8.07q0-18.57,17.88-52.8,19.37-37.15,35-37.15,19.61,0,19.6,35,0,9-4.7,20.9,19.27-10.21,28.56-15.57A184.25,184.25,0,0,0,804.08,564Zm-67.56,36q0-18.81-12.85-18.8-4.86,0-14.68,10.37t-9.82,15.26q0,4.4,10.19,4.4,4.6,0,20.61-3.67C734.34,604.13,736.52,601.6,736.52,600Z"/>
      <path d="M935,767q-5.13,16.59-14.16,21L835.4,830q3.9-15.15,23-24.66Z"/>
      <path d="M1042.19,564.29l-12.45,46.23q-23.94,15.35-50,15.33-23.94,0-40-16.29-15.31-15.07-19.53-39.4-10.9,9-31.5,24.57a93.12,93.12,0,0,1-5,25.3l-1.51-1-1.51-18.92q-6.11,4.61-17.83,12.61L875,567.57l9.28-8.54Q914,453.54,914,416.16q0-75.21-21.24-86.2-7.82.24-30.51,58l-2,1.47-2.2-2.19q3.18-24.63,14.41-53.18,13.66-35.12,29.54-43.9c2.11.17,5.37,2.6,9.77,7.32Q931,317.72,931,376.72q0,28.53-16.78,98.76,16.35-13.85,44.92-29.4,33-17.73,48.58-17.74,10.5,0,10.5,8.55,0,3.66-11.2,30.27-12.66,29.79-30.18,50.3-10,11.71-42.12,40.28,0,15.87,19,23.93,14.4,6.11,33,6.1,12.93,0,29.54-7.09T1042.19,564.29Zm-46.63-95.41-1.71-2.69q-16.36,0-47.39,18.1-26.88,15.9-42.26,31.07l-10,36.94,57.65-39.63Q995.32,480.62,995.56,468.88Z"/>
      <path d="M1145.21,564.33l-12.45,46.21q-15.63,12.15-33,12.14-26.37,0-25.63-48l.24-23.93q-18.44,41-48.58,62.5L1038,567.75q24.3-20,30.69-32.23,7.61-13.9,7.61-42.72,0-12.45-1.21-37t-1.2-37q0-6.35,4.8-21.11t8.66-18.44l2.16,1q2.45,42.24,2.44,169.92,0,29.3,20.27,29.3Q1127.64,579.47,1145.21,564.33Z"/>
      <path d="M1218.46,410.77q0,68.85-17.34,113.77-21,53.7-71.78,88.86l12.21-45.65q62.27-49.8,62.26-100.1,0-37.59-23.68-91.06-4.59,23.93-13.77,71.53-3.87,20.5-6.52,20.51l-2.18-.73-.48-3.18q0-19.77,10.21-74.22,10.69-58.83,18.48-67.62,13.38,8.3,23.59,40.28Q1218.45,390.75,1218.46,410.77Z"/>
      <path d="M1266.31,203.49q-5.13,16.6-14.16,21l-85.45,42q3.9-15.14,23-24.66Z"/>
      <path d="M822.81,591.67q-10,0-14.16-2.68,18.93-26.12,18.94-44a43.22,43.22,0,0,0-.73-8.3q-13.61,15.63-26.72,30.76L788,612.82l6.56-5.16q9.72,18,30.69,18,19.77,0,40.28-15L878,564.09q-9.76,9.76-25.63,18.31Q834.53,591.67,822.81,591.67Z"/>
      <path d="M781.93,676.88q-15.87,32.22-15.62,39.79,14.36-7.56,21.41-11.71,29.92-17.09,33.82-21,9-9,15.32-36.62-28.92,17.58-36.46,20.75Q786.3,674.2,781.93,676.88Z"/>
      <path d="M1067.33,225.71q-9.27,0-9.27-17.82l-5.86,1.46q-18.56,32.47-30,32.47-8.55,0-8.55-11.47l.73-7.57-8.54,4.64Q999,246,999,252.67q0,13.82,14.2,13.81,16.39,0,31.08-21.15,8.82,6.25,14.44,6.26,17.63,0,29.12-21.24,8.57-15.63,11-36.62l-7.57,2.19Q1081.49,225.71,1067.33,225.71Z"/>
      <path d="M1008.25,216.92l79.84-28.32q9.75-3.42,16.84-18.56l-69.58,24.42Q1019,200.07,1008.25,216.92Z"/>
      <path d="M1338.39,405.4a525.35,525.35,0,0,0-44.78-103q-15.1,45.4-15.1,136,0,48.84,8,50.3Q1292,486,1292,460.57q0-13.67,6.27-60.55,12.27,23.21,26.52,62.26,16.2,44.69,16.2,63,0,25.63-15.38,50.78-9,14.9-33.44,42.24L1271,640.5q-12.45,13.44-17.83,24.42a2.12,2.12,0,0,0,2.44,2q2.19,0,10.23-2.93,57-20.75,75.75-54.93,15.82-28.56,15.83-93.51Q1357.37,466.2,1338.39,405.4Z"/>
      <path d="M1270.7,284.06q0-7.33-8.79-7.33-12.21,0-12.2-3.41,0-6.1,7.32-6.11a11.88,11.88,0,0,1,4.88,1q2.44-1.69,7-10.28t5.25-12.2a15,15,0,0,0-5.4-1.69q-10.32,0-23.82,17.82t-13.5,28.32q0,9.52,9.65,9.28c5.11-.16,7.91.24,8.41,1.22q-3.92,5.37-25.64,13.43L1194,324.34c0,2,1,2.93,3.17,2.93q20.51,0,44.92-11.47Q1270.71,302.12,1270.7,284.06Z"/>
    </g>
  </g>
</svg>
