<svg id="Allah" xmlns="http://www.w3.org/2000/svg" viewBox="0 0 1000 1000">
  <title>EH-Artboard 1</title>
  <g>
    <path d="M316.82,305.6q0,21.91-19.92,48l9.08,8.89L295.6,391.83A206.59,206.59,0,0,1,276,376.36q-46,42.83-70,42.83-4.74,0-16.31-3.56,36.18-17.49,75.62-46.26-11.68-11.26-11.68-19.87,0-15.42,16.82-36t31.58-20.61Q316.81,292.85,316.82,305.6Zm-23.73,26.14q0-13.68-11.74-13.68l-4.52,1.78a13.34,13.34,0,0,0-3.31,8.93q0,6,14.15,17.55Q293.08,337.1,293.09,331.74Z"/>
    <path d="M428,678.38,413.2,734.73a86.26,86.26,0,0,1-34.7,6.82q-16,0-32.62-15.57t-24.62-15.57q-13,0-38.55,20.46-17.2,15.43-34.4,30.55a219,219,0,0,1,12.75-47.16q6.22-15.57,36.63-39.66t46.11-24.1q10.38,0,22.1,18.84t28.91,18.83Q411.42,688.17,428,678.38Z"/>
    <path d="M503.65,198.25l-84.52,29.66q-19.87,6.83-32.92,27.28l97-34.4Q495,216.64,503.65,198.25Z"/>
    <path d="M458,265.87q-11.28,0-11.27-21.65L439.59,246Q417,285.44,403.11,285.44q-10.38,0-10.38-13.94l.89-9.19-10.38,5.63q-8.3,22.59-8.3,30.68,0,16.77,17.25,16.77,19.9,0,37.75-25.69,10.71,7.6,17.54,7.6,21.4,0,35.38-25.8,10.39-19,13.37-44.48L487,229.69Q475.17,265.87,458,265.87Z"/>
    <path d="M552.58,677.19l-15.12,56.14q-19,14.74-40,14.74-32,0-31.14-58.35l.3-29.07q-22.4,49.83-59,75.92l14.83-55.22Q451.91,657,459.67,642.2q9.24-16.91,9.24-51.9,0-15.12-1.46-44.93T466,500.44q0-7.69,5.85-25.65t10.51-22.39l2.62,1.19q3,51.32,3,206.4,0,35.6,24.61,35.59Q531.23,695.58,552.58,677.19Z"/>
    <path d="M641.55,490.66q0,83.62-21.06,138.2Q595,694.1,533.3,736.8l14.83-55.45q75.63-60.51,75.62-121.59,0-45.68-28.76-110.62-5.58,29.07-16.73,86.89-4.69,24.91-7.92,24.91l-2.64-.89-.59-3.85q0-24,12.41-90.16,13-71.46,22.44-82.14,16.26,10.08,28.66,48.93Q641.54,466.34,641.55,490.66Z"/>
    <path d="M699.67,238.88q-6.23,20.18-17.2,25.5l-103.79,51q4.74-18.37,27.87-29.95Z"/>
    <path d="M705,336.74q0-8.89-10.67-8.89-14.83,0-14.83-4.15,0-7.41,8.89-7.42a14.49,14.49,0,0,1,5.94,1.19q3-2.07,8.45-12.49t6.37-14.82q-4.47-2.06-6.56-2.05-12.52,0-28.93,21.65t-16.4,34.4q0,11.56,11.72,11.27,9.32-.3,10.21,1.48-4.74,6.52-31.14,16.31l-36.18,12.46q0,3.56,3.86,3.55,24.91,0,54.57-13.93Q705,358.7,705,336.74Z"/>
    <path d="M787.23,484.13A637.9,637.9,0,0,0,732.83,359Q714.5,414.15,714.5,524.17q0,59.33,9.67,61.09,6.74-3.25,6.73-34.1,0-16.6,7.62-73.55,14.93,28.18,32.22,75.62,19.68,54.27,19.68,76.51,0,31.14-18.68,61.69-11,18.09-40.63,51.3l-25.8,27Q690.19,786,683.66,799.38c.19,1.58,1.18,2.37,3,2.37s5.91-1.19,12.42-3.56q69.24-25.2,92-66.73,19.23-34.69,19.23-113.58Q810.29,558,787.23,484.13Z"/>
  </g>
</svg>
