<svg id="Layer_2" data-name="Layer 2" xmlns="http://www.w3.org/2000/svg" viewBox="0 0 1000 1000">
  <title>r-p-Artboard 1</title>
  <g>
    <path id="1" d="M292.7,280q0,24.81-22.53,54.32l10.27,10.06-11.75,33.2a234.47,234.47,0,0,1-22.16-17.51q-52,48.48-79.2,48.47-5.37,0-18.46-4,40.94-19.78,85.58-52.35-13.23-12.75-13.23-22.48,0-17.44,19-40.78T276,265.59Q292.71,265.59,292.7,280ZM265.86,309.6q0-15.48-13.29-15.48l-5.11,2a15.08,15.08,0,0,0-3.75,10.1q0,6.74,16,19.86Q265.86,315.66,265.86,309.6Z"/>
    <path id="2" d="M418.55,701.86l-16.78,63.76a97.54,97.54,0,0,1-39.26,7.72q-18.12,0-36.92-17.62T297.74,738.1q-14.78,0-43.63,23.16-19.47,17.44-38.93,34.56a247.85,247.85,0,0,1,14.43-53.36q7-17.62,41.45-44.89t52.18-27.26q11.75,0,25,21.31T381,712.93Q399.76,712.93,418.55,701.86Z"/>
    <path id="3" d="M495.74,191.09Q492.37,220,480.6,241.43q-15.81,29.19-40,29.19-7.74,0-19.84-8.6Q400.53,291.09,378,291.09q-19.51,0-19.51-19,0-9.15,9.4-34.71L379.62,231l-1,10.41q0,15.78,11.74,15.77,15.76,0,41.28-44.63l8.05-2q0,24.51,12.76,24.5,19.46,0,32.88-40.94Zm8.39-32.55Q494.4,179.35,481,184L371.23,223q14.77-23.16,37.25-30.88Z"/>
    <path id="4" d="M559.5,700.52,542.38,764q-21.48,16.68-45.3,16.68-36.25,0-35.24-66l.34-32.88q-25.35,56.37-66.78,85.91l16.77-62.5q33.42-27.51,42.19-44.29,10.45-19.14,10.46-58.73,0-17.12-1.66-50.84t-1.65-50.85q0-8.72,6.6-29T480,446.14l3,1.34q3.35,58.06,3.35,233.57,0,40.28,27.85,40.27Q535.34,721.32,559.5,700.52Z"/>
    <path id="5" d="M660.18,489.43q0,94.63-23.83,156.38Q607.48,719.66,537.69,768l16.77-62.76Q640.05,636.75,640,567.62q0-51.68-32.55-125.17-6.32,32.9-18.93,98.32-5.32,28.2-9,28.19l-3-1-.67-4.37q0-27.18,14-102,14.71-80.88,25.41-93Q633.77,380,647.81,424,660.17,461.91,660.18,489.43Z"/>
    <path id="6" d="M726,204.51q-7.05,22.83-19.46,28.86L589,291.09q5.37-20.79,31.55-33.89Z"/>
    <path id="7" d="M736.69,262.54q-1,5-7.21,16.78t-9.57,14.12a16.41,16.41,0,0,0-6.71-1.34q-10.07,0-10.07,8.39,0,4.71,16.78,4.7,12.09,0,12.08,10.07,0,24.84-39.27,43.62Q659.17,374.66,631,374.66c-2.91,0-4.36-1.35-4.36-4l40.94-14.1q29.87-11.07,35.24-18.45c-.68-1.35-4.53-1.9-11.56-1.68Q678,336.73,678,323.65q0-14.43,18.57-38.93t32.74-24.5C730.84,260.22,733.31,261,736.69,262.54ZM851.13,633.4q0,89.26-21.76,128.53-25.79,47-104.13,75.51-11.06,4-14.06,4t-3.35-2.68q7.38-15.1,24.5-33.56l29.19-30.54q33.56-37.57,46-58.06,21.15-34.56,21.14-69.8,0-25.17-22.27-86.58-19.59-53.68-36.45-85.58-8.62,64.44-8.63,83.23,0,34.9-7.62,38.59-10.93-2-10.94-69.13,0-124.5,20.75-186.92Q801,405.86,825,482.05,851.13,565.6,851.13,633.4Z"/>
  </g>
</svg>
