<?xml version="1.0" encoding="utf-8"?>
<!-- Generator: Adobe Illustrator 22.1.0, SVG Export Plug-In . SVG Version: 6.00 Build 0)  -->
<svg version="1.1" id="Layer_1" xmlns="http://www.w3.org/2000/svg" xmlns:xlink="http://www.w3.org/1999/xlink" x="0px" y="0px"
	 viewBox="0 0 510.9 496.8" style="enable-background:new 0 0 510.9 496.8;" xml:space="preserve">
<title>EH-Asset 89-layername</title>
<g id="Layer_2_1_">
	<g id="Allah">
		<g>
			<path d="M104.6,88.4c0-7-4-10.5-12.2-10.5c-8.1,0-16.8,5.7-26,17c-1.6,2-3.1,4-4.5,5.9c2.4,1.3,4.9,2.6,7.4,3.8
				c0.4-1.7,1.2-3.2,2.4-4.5l3.7-1.5c6.4,0,9.7,3.8,9.7,11.3c0,2.9-1.5,6.9-4.5,12c-7.8-6.4-11.7-11.2-11.7-14.5
				c0-1,0.1-1.9,0.4-2.8c-2.5-1.2-4.9-2.5-7.4-3.8c-6.2,8.9-9.4,16.8-9.4,23.7c0,4.7,3.2,10.2,9.6,16.4C40.6,156.7,19.9,169.4,0,179
				c6.3,1.9,10.8,2.9,13.4,2.9c13.2,0,32.4-11.8,57.6-35.3c5.1,4.6,10.5,8.8,16.1,12.7l8.5-24.2l-7.5-7.3
				C99.2,113.6,104.6,100.4,104.6,88.4z"/>
			<path d="M196.2,395.3L184,441.6c-9,3.8-18.8,5.7-28.6,5.6c-8.8,0-17.7-4.3-26.9-12.8c-9.1-8.5-15.9-12.8-20.3-12.8
				c-7.2,0-17.7,5.6-31.7,16.9c-9.4,8.5-18.9,16.8-28.3,25.1c2-13.3,5.6-26.3,10.5-38.8c3.4-8.5,13.5-19.4,30.1-32.6
				s29.3-19.8,38-19.8c5.7,0,11.8,5.2,18.2,15.5c6.4,10.3,14.4,15.5,23.8,15.5C178,403.3,187.1,400.6,196.2,395.3z"/>
			<path d="M298.7,394.3l-12.5,46.2c-10.4,8.1-21.4,12.1-33,12.1c-17.6,0-26.1-16-25.6-48l0.3-23.9c-12.3,27.3-28.5,48.2-48.6,62.5
				l12.2-45.5c16.2-13.3,26.4-24.1,30.7-32.2c5.1-9.3,7.6-23.5,7.6-42.7c0-8.3-0.4-20.6-1.2-37s-1.2-28.7-1.2-37
				c0-4.2,1.6-11.3,4.8-21.1s6.1-16,8.6-18.4l2.2,1c1.6,28.2,2.4,84.8,2.4,169.9c0,19.5,6.8,29.3,20.3,29.3
				C276,409.4,287,404.4,298.7,394.3z"/>
			<path d="M372,240.7c0,45.9-5.8,83.8-17.3,113.8c-14,35.8-37.9,65.4-71.8,88.9l12.2-45.6c41.5-33.2,62.3-66.6,62.3-100.1
				c0-25.1-7.9-55.4-23.7-91.1c-3.1,16-7.6,39.8-13.8,71.5c-2.6,13.7-4.8,20.5-6.5,20.5l-2.2-0.7l-0.5-3.2
				c0-13.2,3.4-37.9,10.2-74.2c7.1-39.2,13.3-61.8,18.5-67.6c8.9,5.5,16.8,19,23.6,40.3C369,211.5,372,227.4,372,240.7z"/>
			<path d="M419.8,33.5c-3.4,11.1-8.1,18.1-14.2,21l-85.4,42c2.6-10.1,10.3-18.3,23-24.7L419.8,33.5z"/>
			<path d="M220.9,55.7c-6.2,0-9.3-5.9-9.3-17.8l-5.9,1.5c-12.4,21.6-22.4,32.5-30,32.5c-5.7,0-8.5-3.8-8.5-11.5l0.7-7.6l-8.6,4.6
				c-4.6,12.4-6.9,20.8-6.9,25.3c0,9.2,4.7,13.8,14.2,13.8c10.9,0,21.3-7.1,31.1-21.2c5.9,4.2,10.7,6.3,14.4,6.3
				c11.8,0,21.5-7.1,29.1-21.2c5.7-10.4,9.4-22.6,11-36.6l-7.6,2.2C238.3,45.7,230.3,55.7,220.9,55.7z"/>
			<path d="M161.8,46.9l79.8-28.3c6.5-2.3,12.1-8.4,16.9-18.5l-69.6,24.4C178,28.1,168.9,35.6,161.8,46.9z"/>
			<path d="M491.9,235.4c-11.2-35.8-26.2-70.4-44.8-103c-10.1,30.3-15.1,75.6-15.1,136c0,32.6,2.7,49.3,8,50.3
				c3.7-1.8,5.5-11.2,5.5-28.1c0-9.1,2.1-29.3,6.3-60.6c8.2,15.5,17,36.2,26.5,62.3c10.8,29.8,16.2,50.8,16.2,63
				c0,17.1-5.1,34-15.4,50.8c-6,9.9-17.1,24-33.5,42.2l-21.2,22.2c-8.3,8.9-14.3,17.1-17.8,24.4c0.1,1.2,1,2.1,2.2,2
				c0.1,0,0.2,0,0.2,0c1.5,0,4.9-1,10.2-2.9c38-13.8,63.3-32.2,75.8-54.9c10.5-19,15.8-50.2,15.8-93.5
				C510.9,312.6,504.6,275.9,491.9,235.4z"/>
			<path d="M424.2,114c0-4.9-2.9-7.3-8.8-7.3c-8.1,0-12.2-1.1-12.2-3.4c0-4.1,2.4-6.1,7.3-6.1c1.7,0,3.3,0.3,4.9,1
				c1.6-1.1,4-4.5,7-10.3c3-5.7,4.8-9.8,5.3-12.2c-1.7-0.9-3.5-1.5-5.4-1.7c-6.9,0-14.8,5.9-23.8,17.8c-9,11.9-13.5,21.3-13.5,28.3
				c0,6.3,3.2,9.4,9.6,9.3c5.1-0.2,7.9,0.3,8.4,1.2c-2.6,3.6-11.1,8-25.6,13.4l-29.8,10.3c0,1.9,1.1,2.9,3.2,2.9
				c13.7,0,28.6-3.8,44.9-11.5C414.7,136.6,424.2,126.1,424.2,114z"/>
		</g>
	</g>
</g>
</svg>
