<?xml version="1.0" encoding="utf-8"?>
<!-- Generator: Adobe Illustrator 22.1.0, SVG Export Plug-In . SVG Version: 6.00 Build 0)  -->
<svg version="1.1" id="Layer_1" xmlns="http://www.w3.org/2000/svg" xmlns:xlink="http://www.w3.org/1999/xlink" x="0px" y="0px"
	 viewBox="0 0 946.5 625" style="enable-background:new 0 0 946.5 625;" xml:space="preserve">
<title>EH-Asset 35-layername</title>
<g id="Layer_2_1_">
	<g id="ElGafur">
		<g>
			<path d="M146.2,157c0-7-4.1-10.5-12.2-10.5c-8.1,0-16.8,5.7-26,17c-0.4,0.5-0.9,1.1-1.3,1.6c2.1,1.3,4,2.8,5.9,4.5
				c0.2-0.3,0.4-0.6,0.7-0.8l3.7-1.5c6.4,0,9.7,3.8,9.7,11.3c0,2.9-1.5,6.9-4.5,12c-7.8-6.4-11.7-11.2-11.7-14.5
				c0-2.3,0.7-4.6,2.1-6.5c-1.9-1.6-3.8-3.1-5.9-4.5c-8.4,10.6-12.6,20-12.6,28.1c0,4.7,3.2,10.2,9.6,16.4
				c-21.6,15.8-42.4,28.5-62.3,38.1c6.4,2,10.8,2.9,13.4,2.9c13.2,0,32.4-11.7,57.7-35.2c5.1,4.6,10.5,8.8,16.1,12.7l8.5-24.2
				l-7.5-7.3C140.8,182.2,146.2,169,146.2,157z"/>
			<path d="M268.5,325.3c0,17.5-2.7,26.7-8,27.7l-6.6-8c-4.6,0.2-8.3,2.9-11.2,8.1c-8,13.8-16.5,31.9-25.4,54.3
				c-7.3,18.7-14.7,37.4-22,56c-6.2,14.7-15.7,29.2-28.6,43.5c-13.7,15.3-27.3,26-40.8,32c-15.3,7-36.4,10.5-63.2,10.5
				c-40.5,0-61.4-2.1-62.7-6.4l2.4-1.8c34.2,0,65.9-7.3,95.2-22c30.4-15.3,54.8-36.8,73.2-64.6c9.9-15.1,20.6-35.2,32-60.2
				l22.5-50.2c12.7-25.2,22.5-37.8,29.5-37.8c3.9,0,7.2,2.3,10,6.8C267.3,316.8,268.5,321,268.5,325.3z"/>
			<path d="M499,401.6L486.6,448c-10.4,8.3-29.2,18.3-56.4,29.8c-5.5,24.3-18.5,50.3-39.1,78c-21.5,29-43,48.2-64.5,57.5
				c-18.1,7.8-40.8,11.7-68.1,11.7c-10.4,0-25.9-1.7-46.4-5.2c-24.4-4-37-8.2-37.8-12.6l2-1.5c4.9,0.2,12.6,1.1,23.2,2.9
				c10.1,1.6,17.9,2.4,23.4,2.4c11.2,0,27.7-3.2,49.3-9.5c47-13.8,87.8-41.1,122.3-81.8c12-14.2,18.9-26.5,20.5-37.1
				c-14.2,3.9-23.7,5.9-28.6,5.9c-14.8,0-22.2-4.9-22.2-14.6c0-10.3,4.2-23.2,12.5-38.8c9.3-17.4,18.5-26.1,27.6-26.1
				c8,0,15.1,3.1,21.4,9.3c6.3,6.2,9.4,13.3,9.4,21.2C462.4,427.9,483.7,415.3,499,401.6z"/>
			<path d="M550.5,10.5c0-7-4-10.5-12.1-10.5c-8.1,0-16.8,5.7-26,17c-0.4,0.4-0.7,0.9-1,1.3c1.6,2,3.2,3.9,4.8,6
				c0.4-0.7,0.9-1.4,1.4-2.1l3.7-1.5c6.4,0,9.7,3.8,9.7,11.3c0,3-1.5,7-4.5,12c-7.8-6.4-11.7-11.2-11.7-14.4c0-1.9,0.4-3.7,1.3-5.3
				c-1.6-2.1-3.2-4-4.8-6c-8.5,10.8-12.8,20.2-12.8,28.4c0,4.7,3.2,10.2,9.6,16.4c-21.6,15.8-42.4,28.5-62.3,38.1
				c6.3,2,10.8,2.9,13.4,2.9c13.2,0,32.4-11.8,57.7-35.3c5.1,4.6,10.5,8.8,16.1,12.7l8.5-24.1l-7.5-7.3
				C545.1,35.7,550.5,22.5,550.5,10.5z"/>
			<path d="M675,41c-3.4,11.1-8.1,18.1-14.2,21l-85.5,42c2.6-10.1,10.3-18.3,23-24.7L675,41z"/>
			<path d="M754.6,35.9c-4.4-5.4-9.5-8.1-15.2-8.1c-12.7,0-24.2,6.8-34.3,20.3c-3.6,4.8-6.6,9.7-8.8,14.7c2.7,0,5.5,0,8.2,0.1
				c1-2.6,2.6-5.2,4.8-7.6c4-4.5,8.5-6.7,13.4-6.7c3.9,0,8.5,2.4,13.9,7c5.3,4.6,8,8.9,8,12.9c0,7.8-7.4,11.6-22.1,11.6
				c-12.8,0-19.2-3.5-19.2-10.7c0-2.2,0.4-4.4,1.2-6.5c-2.7-0.1-5.5-0.1-8.2-0.1c-3.5,7.7-5.2,15.6-5.2,23.7
				c0,11.7,6.7,17.6,20.1,17.6c12.7,0,24.1-5.4,34.2-16.3c10-10.9,15.1-22.7,15.1-35.4C760.5,46.3,758.4,40.5,754.6,35.9z"/>
			<path d="M807.6,248.3c0,45.9-5.8,83.8-17.3,113.8c-14,35.8-37.9,65.4-71.8,88.9l12.2-45.7c41.5-33.2,62.3-66.6,62.3-100.1
				c0-25.1-7.9-55.4-23.7-91.1c-3.1,15.9-7.7,39.8-13.8,71.5c-2.6,13.7-4.8,20.5-6.5,20.5l-2.2-0.7l-0.5-3.2
				c0-13.2,3.4-37.9,10.2-74.2c7.1-39.2,13.3-61.8,18.4-67.6c8.9,5.5,16.8,19,23.6,40.3C804.6,219.1,807.6,234.9,807.6,248.3z"/>
			<path d="M855.5,41c-3.4,11.1-8.1,18.1-14.2,21l-85.5,42c2.6-10.1,10.3-18.3,23-24.7L855.5,41z"/>
			<path d="M560.7,421.4c-20.2,0-33.1-4.2-38.8-12.5c22.4-25.7,33.5-46.5,33.5-62.3c0-20.7-4.7-31-14.1-31
				c-4.5,0-11.4,3.6-20.4,10.8s-17.5,17.6-25.3,31.3c-1.7,3.1-3.3,6.1-4.7,9c3.7,0.9,7.5,1.6,11.2,2.1c1.8-2.3,4.6-5.1,8.2-8.2
				c7.4-6.5,12.6-9.7,15.7-9.7c8.5,0,12.8,3.2,12.8,9.5c0,9.2-10.4,19.2-31.2,29.9c-5.6-6.5-8.4-11.7-8.3-15.6c0-1.5,1-3.4,2.9-5.9
				c-3.7-0.5-7.5-1.2-11.2-2.1c-5.1,10.9-7.7,20.4-7.7,28.7c0,3.1,0.3,6.2,1,9.3l-12.5,46.9c9.7-6.9,19-14.4,27.8-22.3
				c9.9,11.6,17.7,19.6,23.4,23.8c9,6.7,20,10.4,31.3,10.3c17.1,0.1,33.9-4.5,48.5-13.4l12.1-44.6l3.5-3.7l0.3-1
				C600.8,414.5,581.4,421.4,560.7,421.4z"/>
			<path d="M555.4,240.2c0-2.4-3.3-5.7-9.8-9.8c-2.9-1.8-7.2-4.1-12.7-6.8l-22.2,34.4l21.7,15.1C539.3,268,547,257,555.4,240.2z"/>
			<path d="M671.4,259.3c0-3.1-2-5.7-6.1-7.8c-2.3-2.9-7.6-5.8-16-8.5c-13.3,19.7-20.8,31.2-22.4,34.4c9.6,6.8,16.9,11.8,21.9,14.9
				C655.1,285.9,662.6,274.9,671.4,259.3z"/>
			<path d="M665,395.1c16.1-17.5,24.2-31,24.2-40.4c0-10.4-9.5-15.6-28.6-15.6c-27.2,0-43.7,3.2-49.6,9.5c-2.9,5.2-5.6,10.5-7.8,16
				c-5.5,14.4-8.2,23.9-8.2,28.5c2.4-1,7.7-1.5,15.7-1.5c4.7,0,9.1,2,12.3,5.4l-4.6,4.7L606,448c-1.1,0.7-2.1,1.4-3.2,2l-0.2,0.7
				c9.3-6.4,21.7-17.8,37.1-34.1c8.2,30.1,22.4,45.2,42.5,45.2c12.7,0,26.1-4.6,40.3-13.7l12.7-47.3c-15.1,13.3-29.2,20-42.2,20
				C678.7,420.7,669.4,412.1,665,395.1z"/>
			<path d="M618.4,401.7l-3.5,3.6L602.8,450c1.1-0.6,2.1-1.3,3.2-2L618.4,401.7z"/>
			<path d="M859.9,121.6c0-4.9-2.9-7.3-8.8-7.3c-8.1,0-12.2-1.1-12.2-3.4c0-4.1,2.4-6.1,7.3-6.1c1.7,0,3.3,0.3,4.9,1
				c1.6-1.1,4-4.6,7-10.3s4.8-9.8,5.3-12.2c-1.7-0.9-3.5-1.5-5.4-1.7c-6.9,0-14.8,5.9-23.8,17.8c-9,11.9-13.5,21.3-13.5,28.3
				c0,6.3,3.2,9.4,9.7,9.3c5.1-0.2,7.9,0.2,8.4,1.2c-2.6,3.6-11.2,8.1-25.6,13.4l-29.8,10.2c0,1.9,1.1,2.9,3.2,2.9
				c13.7,0,28.6-3.8,44.9-11.5C850.3,144.2,859.9,133.6,859.9,121.6z"/>
			<path d="M927.5,242.9c-11.2-35.8-26.2-70.4-44.8-103c-10.1,30.3-15.1,75.6-15.1,136c0,32.6,2.7,49.3,8,50.3
				c3.7-1.8,5.5-11.2,5.5-28.1c0-9.1,2.1-29.3,6.3-60.6c8.1,15.4,17,36.2,26.5,62.2c10.8,29.8,16.2,50.8,16.2,63
				c0,17.1-5.1,34-15.4,50.8c-6,9.9-17.1,24-33.4,42.2L860.1,478c-8.3,9-14.2,17.1-17.8,24.4c0.2,1.3,1,2,2.4,2s4.9-1,10.2-2.9
				c38-13.8,63.3-32.1,75.8-54.9c10.6-19,15.8-50.2,15.8-93.5C946.5,320.1,940.2,283.4,927.5,242.9z"/>
		</g>
	</g>
</g>
</svg>
