<?xml version="1.0" encoding="utf-8"?>
<!-- Generator: Adobe Illustrator 22.1.0, SVG Export Plug-In . SVG Version: 6.00 Build 0)  -->
<svg version="1.1" id="Layer_1" xmlns="http://www.w3.org/2000/svg" xmlns:xlink="http://www.w3.org/1999/xlink" x="0px" y="0px"
	 viewBox="0 0 919 546.1" style="enable-background:new 0 0 919 546.1;" xml:space="preserve">
<title>EH-Asset 10-layername</title>
<g id="Layer_2_1_">
	<g id="ElDzebar">
		<g>
			<path d="M146.2,129.1c0-7-4.1-10.5-12.2-10.5c-8.1,0-16.8,5.7-26,17c-0.8,1-1.6,2-2.4,3.1c2.3,1.1,4.6,2.2,6.8,3.4
				c0.3-0.4,0.6-0.8,0.9-1.2l3.7-1.5c6.4,0,9.7,3.8,9.7,11.3c0,2.9-1.5,6.9-4.5,12c-7.8-6.4-11.6-11.2-11.6-14.5
				c0-2.2,0.6-4.3,1.8-6.2c-2.2-1.2-4.5-2.3-6.8-3.4c-7.6,10-11.4,18.9-11.4,26.6c0,4.7,3.2,10.2,9.6,16.4
				c-21.6,15.8-42.4,28.5-62.3,38.1c6.4,2,10.8,2.9,13.4,2.9c13.2,0,32.4-11.8,57.7-35.3c5.1,4.6,10.5,8.8,16.1,12.7l8.5-24.2
				l-7.5-7.3C140.8,154.4,146.2,141.2,146.2,129.1z"/>
			<path d="M268.5,297.5c0,17.5-2.7,26.7-8,27.7l-6.6-8.1c-4.6,0.2-8.3,2.9-11.2,8.1c-8,13.9-16.5,31.9-25.4,54.3
				c-7.3,18.7-14.7,37.4-22,56c-6.2,14.7-15.7,29.2-28.6,43.5c-13.7,15.3-27.3,26-40.8,32c-15.3,7-36.4,10.5-63.2,10.5
				c-40.5,0-61.4-2.1-62.7-6.3l2.4-1.8c34.2,0,65.9-7.3,95.2-22c30.4-15.3,54.8-36.8,73.2-64.6c9.9-15.1,20.6-35.2,32-60.2
				l22.5-50.2c12.7-25.2,22.5-37.8,29.5-37.8c3.9,0,7.2,2.3,10,6.8C267.3,289,268.5,293.2,268.5,297.5z"/>
			<path d="M424.3,374.3l-12.5,46.8c-13,8.8-26.2,13.3-39.6,13.3c-18.4,0-31-10.3-37.8-31c-3.7-11.6-5.9-29.5-6.6-53.8l-1.9-73.7
				c-1.4-55.3-2.1-83.5-2.1-84.5c0-2.1,2-9,5.9-20.8s6.6-18.6,8-20.5h1.5c0.5,28.2,1.5,70.2,2.9,126.2c0.2,15.6,1.9,38.7,5.1,69.3
				c6.5,31.4,19,47.1,37.4,47.1C398.4,392.8,411.6,386.6,424.3,374.3z"/>
			<path d="M488.8,126.2l-69.6,24.4c-10.9,3.8-19.9,11.2-27.1,22.5l79.8-28.3C478.4,142.5,484.1,136.3,488.8,126.2z"/>
			<path d="M451.2,181.9c-6.2,0-9.3-5.9-9.3-17.8l-5.9,1.5c-12.4,21.6-22.4,32.5-30,32.5c-5.7,0-8.5-3.8-8.5-11.5l0.7-7.6l-8.5,4.6
				c-4.6,12.4-6.8,20.8-6.8,25.3c0,9.2,4.7,13.8,14.2,13.8c10.9,0,21.3-7.1,31.1-21.2c5.9,4.2,10.7,6.3,14.4,6.3
				c11.8,0,21.5-7.1,29.1-21.2c5.7-10.4,9.4-22.6,11-36.6l-7.6,2.2C468.6,172,460.6,181.9,451.2,181.9z"/>
			<path d="M417.7,467.5c-14,21.5-21.3,33-22,34.4l21.5,14.9c7.3-6.7,14.9-17.7,22.7-33C439.9,478.4,432.5,472.9,417.7,467.5z"/>
			<path d="M474.6,392.1c-11.9,6.2-21.7,9.3-29.5,9.3c-6.7,0-11.4-0.9-14.2-2.7c12.7-17.4,19-32.1,19-43.9c0-2.8-0.2-5.6-0.7-8.3
				c-9.1,10.4-18.1,20.7-26.9,30.8l-12.2,45.3l6.6-5.2c6.5,12,16.8,18,30.8,18c13.2,0,26.6-5,40.3-15l12.5-46.5
				C493.7,380.3,485.2,386.4,474.6,392.1z"/>
			<path d="M557.4,159.7c-3.4,11.1-8.1,18.1-14.2,21l-85.5,42c2.6-10.1,10.3-18.3,23-24.7L557.4,159.7z"/>
			<path d="M527.4,496.3c-13.5,20.4-21,31.8-22.5,34.4c7.2,5.5,14.4,10.7,21.8,15.4c10.1-12.9,17.7-23.9,22.8-33.2
				C549.4,507.1,542.1,501.5,527.4,496.3z"/>
			<path d="M638.6,396.5c-12.7,0-23.3-3.6-32-10.7c-9.3-7.7-13.9-17.7-13.9-30.3c0-6.6,0.6-13.3,1.7-19.8
				c17.4-15.5,42.6-26.5,75.4-33.2c7.5-10.6,12.7-23.7,15.6-39.3c-10.1,4.6-21.1,6.9-32.2,6.8c-7.3,0-18-2.1-31.9-6.2
				s-24.5-6.2-31.6-6.2c-27.4,0-47.8,12.4-61.2,37.1c-6.8,12.6-14.1,36.9-21.9,72.9c4.1-2.1,7.5-4.9,10.5-8.1
				c6.6-41.4,24.7-62.1,54.3-62.1c5.2,0,14.7,1.6,28.3,4.9c-13.5,6.2-27.9,15-43.2,26.2v0c-7.2,5.2-20.3,15.7-39.5,31.5
				c0-0.2,0.1-0.4,0.1-0.6c-3,3.3-6.4,6.1-10.5,8.1c0,0.2-0.1,0.4-0.1,0.5l-9,8.5l-12.5,45.9c7.8-5.8,13.7-10.3,17.6-13.4l-2,30.3
				v30.5l1.2,1.2l1.2-0.7l2.2-4.1c-0.7-17.6,1.5-39.2,6.6-65c24.7-21.5,47.8-40.5,69.3-56.9c-2.9,13-4.4,23.7-4.4,32
				c0,17.4,5.1,32.1,15.3,44.1c10.7,12.7,24.7,19,42,19c19.9,0,39.8-6.2,59.8-18.5l12.5-46.5C687.8,389.1,665.2,396.5,638.6,396.5z"
				/>
			<path d="M727,8.1c-4.4-5.4-9.4-8.1-15.2-8.1c-12.7,0-24.2,6.8-34.3,20.3c-1.9,2.6-3.7,5.2-5.2,7.8c2.6,0.5,5.2,1,7.7,1.4
				c0.5-0.7,1-1.3,1.6-2c4-4.5,8.5-6.7,13.4-6.7c3.9,0,8.5,2.3,13.9,6.9s8,8.9,8,12.9c0,7.8-7.4,11.7-22.1,11.7
				c-12.8,0-19.2-3.6-19.2-10.7c0-4.2,1.5-8.3,4.4-12.1c-2.6-0.4-5.2-0.9-7.7-1.4c-5.9,9.9-8.8,20.1-8.8,30.6
				c0,11.7,6.7,17.6,20.1,17.6c12.7,0,24.1-5.4,34.2-16.4s15.1-22.7,15.1-35.4C732.9,18.4,730.8,12.7,727,8.1z"/>
			<path d="M780,220.5c0,45.9-5.8,83.8-17.3,113.8c-14,35.8-37.9,65.4-71.8,88.9l12.2-45.7c41.5-33.2,62.3-66.6,62.3-100.1
				c0-25.1-7.9-55.4-23.7-91.1c-3.1,15.9-7.7,39.8-13.8,71.5c-2.6,13.7-4.8,20.5-6.5,20.5l-2.2-0.7l-0.5-3.2
				c0-13.2,3.4-37.9,10.2-74.2c7.1-39.2,13.3-61.8,18.5-67.6c8.9,5.5,16.8,19,23.6,40.3C777,191.3,780,207.1,780,220.5z"/>
			<path d="M827.9,13.2c-3.4,11.1-8.1,18.1-14.2,21l-85.5,42c2.6-10.1,10.3-18.3,23-24.7L827.9,13.2z"/>
			<path d="M832.3,93.8c0-4.9-2.9-7.3-8.8-7.3c-8.1,0-12.2-1.1-12.2-3.4c0-4.1,2.4-6.1,7.3-6.1c1.7,0,3.3,0.3,4.9,1
				c1.6-1.1,4-4.6,7-10.3c3-5.7,4.8-9.8,5.3-12.2c-1.7-0.9-3.5-1.5-5.4-1.7c-6.9,0-14.8,5.9-23.8,17.8S793,92.9,793,99.8
				c0,6.4,3.2,9.4,9.7,9.3c5.1-0.2,7.9,0.3,8.4,1.2c-2.6,3.6-11.1,8.1-25.6,13.4L755.6,134c0,2,1.1,2.9,3.2,2.9
				c13.7,0,28.6-3.8,44.9-11.5C822.8,116.4,832.3,105.8,832.3,93.8z"/>
			<path d="M900,215.1c-11.2-35.8-26.2-70.4-44.8-103c-10.1,30.3-15.1,75.6-15.1,136c0,32.5,2.7,49.3,8,50.3
				c3.7-1.8,5.5-11.1,5.5-28.1c0-9.1,2.1-29.3,6.3-60.5c8.2,15.5,17,36.2,26.5,62.3c10.8,29.8,16.2,50.8,16.2,63
				c0,17.1-5.1,34-15.4,50.8c-6,9.9-17.2,24-33.5,42.2l-21.3,22.2c-8.3,9-14.2,17.1-17.8,24.4c0.1,1.2,1.1,2,2.2,2
				c0.1,0,0.1,0,0.2,0c1.5,0,4.9-1,10.2-2.9c38-13.8,63.3-32.1,75.8-54.9c10.6-19,15.9-50.2,15.9-93.5
				C919,292.3,912.7,255.6,900,215.1z"/>
		</g>
	</g>
</g>
</svg>
