<?xml version="1.0" encoding="utf-8"?>
<!-- Generator: Adobe Illustrator 22.1.0, SVG Export Plug-In . SVG Version: 6.00 Build 0)  -->
<svg version="1.1" id="Layer_1" xmlns="http://www.w3.org/2000/svg" xmlns:xlink="http://www.w3.org/1999/xlink" x="0px" y="0px"
	 viewBox="0 0 660.2 699.5" style="enable-background:new 0 0 660.2 699.5;" xml:space="preserve">
<title>EH-Asset 37-layername</title>
<g id="Layer_2_1_">
	<g id="ElAlijj">
		<g>
			<path d="M233.9,374l-12.7,46.6c-13.7,8.5-27.3,17-41,25.6c-24.9,16.6-37.4,27.6-37.4,33c0,9.9,10,18.6,30,26.1
				c14,5.1,21,12.1,21,21c0,34-14.3,70.6-42.8,109.9c-30.5,42.1-62.1,63.2-94.7,63.2C18.8,699.5,0,675.3,0,627
				c0-27.4,5.7-54.5,16.6-79.6c7.8-18.4,20.9-40.8,39.1-67.1c25-36.3,40-58.9,45.2-67.7c9.6-16.3,20.1-43.5,31.6-81.6l3.9,1.7
				c-1.8,21-10.9,49.2-27.3,84.7c-6.5,14-18.9,33.9-37.1,59.8c-19.9,27.8-33.2,48.3-40,61.5c-12.5,23.8-18.8,45.9-18.8,66.4
				c0,17.3,5.6,30.7,16.9,40.3c10.6,9,24.7,13.4,42.2,13.4c16.1,0,38.1-13.3,66-39.9c27.9-26.6,41.8-47.1,41.9-61.4
				c0-3.9-4.4-7.2-13.2-10c-12.2-3.7-20.3-7-24.2-9.8c-8.8-6-13.2-15.1-13.2-27.3c0-41.2,9.4-69.3,28.3-84.2
				C175,414.6,200.4,397.1,233.9,374z"/>
			<path d="M285.4,576.7c-3.4,11.1-8.1,18.1-14.2,21l-85.4,42c2.6-10.1,10.3-18.3,23-24.7L285.4,576.7z"/>
			<path d="M332,374l-12.5,46.2c-10.4,8.1-21.4,12.1-33,12.1c-17.6,0-26.1-16-25.6-48l0.2-23.9c-12.3,27.3-28.5,48.2-48.6,62.5
				l12.2-45.5c16.2-13.3,26.4-24.1,30.7-32.2c5.1-9.3,7.6-23.5,7.6-42.7c0-8.3-0.4-20.6-1.2-37c-0.8-16.4-1.2-28.7-1.2-37
				c0-4.2,1.6-11.3,4.8-21.1c3.2-9.8,6.1-16,8.7-18.4l2.2,1c1.6,28.2,2.4,84.8,2.4,169.9c0,19.5,6.8,29.3,20.3,29.3
				C309.3,389.2,320.3,384.1,332,374z"/>
			<path d="M388.7,98.6c-3.4,11.1-8.1,18.1-14.2,21l-85.5,42c2.6-10.1,10.3-18.3,22.9-24.6L388.7,98.6z"/>
			<path d="M448.7,372.8L436,420.1c-14.2,9.1-27.6,13.7-40.3,13.7c-20.1,0-34.3-15.1-42.5-45.2c-15.4,16.4-27.7,27.7-37.1,34.1
				l12.3-45.3l8.1-8.3c-3.2-3.4-7.6-5.4-12.3-5.4c-8,0-13.2,0.5-15.7,1.5c0-4.5,2.8-14,8.3-28.4c2.3-5.5,4.9-10.8,7.8-16
				c5.9-6.3,22.4-9.5,49.6-9.5c19,0,28.6,5.2,28.6,15.6c0,9.4-8.1,22.9-24.2,40.4c4.4,17,13.7,25.6,27.8,25.6
				C419.5,392.8,433.6,386.1,448.7,372.8z"/>
			<path d="M468.2,8.1C463.8,2.7,458.8,0,453,0c-12.7,0-24.2,6.8-34.3,20.3c-4,5.3-7.1,10.7-9.4,16.1c2.7,0.3,5.4,0.7,8.1,0.9
				c0.8-3.4,2.6-6.7,5.5-9.9c4-4.5,8.5-6.7,13.4-6.7c3.9,0,8.5,2.3,13.9,6.9c5.3,4.6,8,8.9,8,12.9c0,7.8-7.4,11.7-22.1,11.7
				c-12.8,0-19.2-3.6-19.2-10.7c0-1.4,0.2-2.9,0.5-4.3c-2.7-0.3-5.4-0.6-8.1-0.9c-3,7.3-4.6,14.7-4.6,22.2
				c0,11.7,6.7,17.6,20.1,17.6c12.7,0,24.1-5.4,34.2-16.4c10-10.9,15.1-22.7,15.1-35.4C474.1,18.4,472,12.7,468.2,8.1z"/>
			<path d="M521.2,220.5c0,45.9-5.8,83.8-17.3,113.8c-14,35.8-37.9,65.4-71.8,88.9l12.2-45.7c41.5-33.2,62.3-66.6,62.3-100.1
				c0-25.1-7.9-55.4-23.7-91.1c-3.1,15.9-7.6,39.8-13.8,71.5c-2.6,13.7-4.8,20.5-6.5,20.5l-2.2-0.7l-0.5-3.2
				c0-13.2,3.4-37.9,10.2-74.2c7.1-39.2,13.3-61.8,18.5-67.6c8.9,5.5,16.8,19,23.6,40.3C518.2,191.3,521.2,207.1,521.2,220.5z"/>
			<path d="M569.1,13.2c-3.4,11.1-8.1,18.1-14.2,21l-85.5,42c2.6-10.1,10.3-18.3,23-24.7L569.1,13.2z"/>
			<path d="M74,183.4c-6.3,0-9.3-3.8-9-11.4l0.3-4.8l-6.3,1.4c-12.1,19.2-21.8,28.9-29.3,28.9c-5.2,0-7.8-3-7.8-9l1.7-10.9l-5.1,0.5
				c-8,10.9-12,20.7-12,29.4l1.7,8.6c3.4,4.4,7.5,6.6,12.2,6.6c12.7,0,22.8-6.6,30.4-19.7c3.9,4.2,7.1,6.2,9.7,6.2
				c21.6,0,36.9-17.5,46-52.5l-6.1,1.5C91.7,175,82.9,183.4,74,183.4z"/>
			<path d="M114.5,126.9l-7.3-5.4c9.7-10.3,14.6-17.5,14.6-21.6c0-4.1-1.5-8-4-11.1c-2.7-3.5-5.9-5.3-9.6-5.3c-5,0-10,1.5-15.1,4.4
				c0.6,2.2,1.2,4.4,1.7,6.6c0.7-0.1,1.4-0.2,2.3-0.2c5.1,1.9,7.7,4.9,7.7,8.8c0,3.7-1.8,8.3-5.3,13.6c-7.1-5.5-10.6-10-10.6-13.4
				c0-5.1,2-8,5.9-8.8c-0.5-2.2-1.1-4.4-1.7-6.6c-3.4,1.9-6.8,4.5-10.3,7.8c-8.6,8.1-12.9,16.2-13,24.4l1,5.9c1.9,3,4,5.7,6.4,8.3
				c-19.4,11.4-38.5,19.4-57.4,24c5.5,3.3,10.3,4.9,14.4,4.9c10.4,0,27.7-8,51.9-23.9c10.4,4.6,18.8,6.9,25,7.1
				c2.6-8.3,3.8-13.6,3.7-15.7L114.5,126.9z"/>
			<path d="M573.5,93.8c0-4.9-2.9-7.3-8.8-7.3c-8.1,0-12.2-1.1-12.2-3.4c0-4.1,2.4-6.1,7.3-6.1c1.7,0,3.3,0.3,4.9,1
				c1.6-1.1,4-4.6,7-10.3c3-5.7,4.8-9.8,5.2-12.2c-1.7-0.9-3.5-1.5-5.4-1.7c-6.9,0-14.8,5.9-23.8,17.8s-13.5,21.3-13.5,28.3
				c0,6.4,3.2,9.4,9.7,9.3c5.1-0.2,7.9,0.3,8.4,1.2c-2.6,3.6-11.1,8.1-25.6,13.4L496.8,134c0,2,1.1,2.9,3.2,2.9
				c13.7,0,28.6-3.8,44.9-11.5C564,116.4,573.5,105.8,573.5,93.8z"/>
			<path d="M641.2,215.1c-11.2-35.8-26.2-70.4-44.8-103c-10.1,30.3-15.1,75.6-15.1,136c0,32.5,2.7,49.3,8,50.3
				c3.7-1.8,5.5-11.1,5.5-28.1c0-9.1,2.1-29.3,6.3-60.5c8.2,15.5,17,36.2,26.5,62.3c10.8,29.8,16.2,50.8,16.2,63
				c0,17.1-5.1,34-15.4,50.8c-6,9.9-17.2,24-33.5,42.2l-21.3,22.2c-8.3,9-14.2,17.1-17.8,24.4c0.2,1.3,1,2,2.4,2s4.9-1,10.2-2.9
				c38-13.8,63.3-32.1,75.8-54.9c10.5-19,15.8-50.2,15.8-93.5C660.2,292.3,653.8,255.6,641.2,215.1z"/>
		</g>
	</g>
</g>
</svg>
