<?xml version="1.0" encoding="utf-8"?>
<!-- Generator: Adobe Illustrator 22.1.0, SVG Export Plug-In . SVG Version: 6.00 Build 0)  -->
<svg version="1.1" id="Layer_1" xmlns="http://www.w3.org/2000/svg" xmlns:xlink="http://www.w3.org/1999/xlink" x="0px" y="0px"
	 viewBox="0 0 795.2 691.9" style="enable-background:new 0 0 795.2 691.9;" xml:space="preserve">
<title>EH-Asset 38-layername</title>
<g id="Layer_2_1_">
	<g id="ElKebir">
		<g>
			<path d="M213.6,10.5c0-7-4-10.5-12.1-10.5c-8.1,0-16.8,5.7-26,17c-2.4,2.9-4.4,5.7-6.2,8.5c3,1.1,5.9,2.3,8.8,3.5
				c0.1-2.5,1-4.9,2.7-6.7l3.7-1.5c6.4,0,9.7,3.8,9.7,11.3c0,3-1.5,7-4.4,12c-7.8-6.4-11.7-11.2-11.7-14.4c0-0.2,0-0.4,0-0.6
				c-2.9-1.2-5.8-2.4-8.8-3.5c-5.1,7.9-7.6,14.9-7.6,21.2c0,4.7,3.2,10.2,9.6,16.4c-21.6,15.8-42.4,28.5-62.3,38.1
				c6.3,2,10.8,2.9,13.4,2.9c13.2,0,32.4-11.8,57.6-35.3c5.1,4.6,10.5,8.8,16.2,12.7l8.5-24.1l-7.5-7.3
				C208.2,35.7,213.6,22.5,213.6,10.5z"/>
			<path d="M328.6,427.7c-8,0-14.8-1.9-20.5-5.6c-6.1-3.9-9.7-10.8-9.5-18.1l-1.2-3.2c-21,12.1-36.7,21.4-47.1,27.8
				c-12.8,7.8-23.1,22.6-30.8,44.5c-5.4,17.9-10.8,35.8-16.4,53.8c-22.8,59.8-57.5,101.4-104,124.9c-24.9,12.5-48.3,18.8-70.1,18.8
				c-9.1,0-18.1-0.8-27.1-2.4l-2,2.5l0.2,1.7c14.3,6.8,40.1,10.2,77.4,10.2c63.3,0,108-41.9,134-125.7c3.3-11.7,6.6-23.6,10-35.5
				c4.4-13.7,9.8-24.4,16.4-32.3c9.3-11.2,25.3-23.1,48.1-35.7c3.9,13.4,12.3,20.1,25.1,20.1c13.7,0,31.7-8.3,54-24.8l12.5-46.3
				C356.9,419.4,340.5,427.7,328.6,427.7z"/>
			<path d="M241.2,620.8l0.3,2.2c8.1-3.9,17.3-8.9,27.5-14.9c17.2-10.1,27.3-17,30.4-20.7c4.4-5,8.7-16.4,12.9-34.2
				c-25.6,14.2-44.1,24.2-55.4,30C246.4,603.3,241.2,615.8,241.2,620.8z"/>
			<path d="M433.6,628.9c-3.4,11.1-8.1,18.1-14.2,21l-85.5,42c2.6-10.1,10.3-18.3,23-24.7L433.6,628.9z"/>
			<path d="M368.9,495.4c-14,21.5-21.3,33-22,34.4l21.5,14.9c7.3-6.7,14.9-17.7,22.7-33C391.1,506.2,383.7,500.7,368.9,495.4z"/>
			<path d="M425.8,419.9c-11.9,6.2-21.7,9.3-29.5,9.3c-6.7,0-11.4-0.9-14.2-2.7c12.7-17.4,19-32.1,19-43.9c0-2.8-0.2-5.6-0.7-8.3
				c-9.1,10.4-18,20.7-26.8,30.7l-12.2,45.3l6.6-5.2c6.5,12,16.8,18,30.8,18c13.2,0,26.6-5,40.3-15l12.5-46.5
				C444.9,408.1,436.4,414.2,425.8,419.9z"/>
			<path d="M508.5,41c-3.4,11.1-8.1,18.1-14.2,21l-85.4,42c2.6-10.1,10.2-18.3,22.9-24.7L508.5,41z"/>
			<path d="M509.3,411.4c-3.3-4.6-5.2-13.4-5.9-26.6c-0.7-12.7-1.2-37.5-1.5-74.5c-0.2-31.1-1.1-55.9-2.9-74.5l-2.2-1
				c-2.1,2.1-4.8,7.9-8.2,17.2c-3.4,9.4-5.1,15.7-5,18.9c0,6.8,0.4,17,1.2,30.5c0.8,13.5,1.2,23.7,1.2,30.5
				c0,18.6-2.6,32.5-7.9,41.8c-4.3,7.8-14.3,18.3-30.2,31.5l-12.2,45.5c20.1-14.3,36.3-35.2,48.6-62.5c0.7,26,1.9,42.3,3.6,48.8
				c4.9,18,16.2,27,34.1,27c17.2,0,33.4-5.3,48.7-16l12.4-46.2c-15,12.8-31.1,19.3-48.3,19.3C522.4,421.1,513.8,417.9,509.3,411.4z"
				/>
			<path d="M643.5,29.5l-3.2,2c-23.6,44.4-39.4,73.3-47.4,86.4c-19.3,31.6-39.5,57.2-60.5,76.9c-32.7,25.2-57.6,43.2-74.9,54l2.9,1
				c17.3-3.6,38.8-15.9,64.7-36.9c22.6-18.1,40.8-35.9,54.4-53.5c-0.3,12.5,0.3,22.4,2,29.5l4.4-2.9c1.3-28.2,21.2-79.9,59.8-155.3
				L643.5,29.5z"/>
			<path d="M603.3,35.9c-4.4-5.4-9.5-8.1-15.2-8.1c-12.7,0-24.2,6.8-34.3,20.3c-0.7,0.9-1.4,1.9-2,2.8c2.3,1.2,4.6,2.4,6.9,3.7
				c3.8-4,8.1-6,12.7-6c3.9,0,8.5,2.4,13.9,7c5.3,4.6,8,8.9,8,12.9c0,7.8-7.4,11.6-22.1,11.6c-12.8,0-19.2-3.5-19.2-10.7
				c0-5,2-9.7,6-14.1c0.2-0.2,0.4-0.4,0.6-0.7c-2.3-1.3-4.6-2.5-6.9-3.7c-8,11.5-12,23.3-12,35.5c0,11.7,6.7,17.6,20.1,17.6
				c12.7,0,24.1-5.4,34.2-16.3c10-10.9,15.1-22.7,15.1-35.4C609.1,46.3,607,40.5,603.3,35.9z"/>
			<path d="M656.3,248.3c0,45.9-5.8,83.8-17.3,113.8c-14,35.8-37.9,65.4-71.8,88.9l12.2-45.7c41.5-33.2,62.3-66.6,62.3-100.1
				c0-25.1-7.9-55.4-23.7-91.1c-3.1,15.9-7.7,39.8-13.8,71.5c-2.6,13.7-4.8,20.5-6.5,20.5l-2.2-0.7l-0.5-3.2
				c0-13.2,3.4-37.9,10.2-74.2c7.1-39.2,13.3-61.8,18.5-67.6c8.9,5.5,16.8,19,23.6,40.3C653.3,219.1,656.3,234.9,656.3,248.3z"/>
			<path d="M704.1,41c-3.4,11.1-8.1,18.1-14.2,21l-85.5,42c2.6-10.1,10.3-18.3,23-24.7L704.1,41z"/>
			<path d="M708.5,121.6c0-4.9-2.9-7.3-8.8-7.3c-8.1,0-12.2-1.1-12.2-3.4c0-4.1,2.4-6.1,7.3-6.1c1.7,0,3.3,0.3,4.9,1
				c1.6-1.1,4-4.6,7-10.3c3-5.7,4.8-9.8,5.2-12.2c-1.7-0.9-3.5-1.5-5.4-1.7c-6.9,0-14.8,5.9-23.8,17.8s-13.5,21.3-13.5,28.3
				c0,6.3,3.2,9.4,9.7,9.3c5.1-0.2,7.9,0.3,8.4,1.2c-2.6,3.6-11.1,8.1-25.6,13.4l-29.8,10.3c0,1.9,1.1,2.9,3.2,2.9
				c13.7,0,28.6-3.8,44.9-11.5C699,144.2,708.5,133.6,708.5,121.6z"/>
			<path d="M776.2,242.9c-11.2-35.8-26.2-70.4-44.8-103c-10.1,30.3-15.1,75.6-15.1,136c0,32.6,2.7,49.3,8,50.3
				c3.7-1.8,5.5-11.2,5.5-28.1c0-9.1,2.1-29.3,6.3-60.6c8.2,15.5,17,36.2,26.5,62.2c10.8,29.8,16.2,50.8,16.2,63
				c0,17.1-5.1,34-15.4,50.8c-6,9.9-17.2,24-33.5,42.2L708.7,478c-8.3,9-14.2,17.1-17.8,24.4c0.2,1.3,1,2,2.4,2s4.9-1,10.2-2.9
				c38-13.8,63.2-32.1,75.8-54.9c10.6-19,15.8-50.2,15.8-93.5C795.2,320.1,788.8,283.4,776.2,242.9z"/>
		</g>
	</g>
</g>
</svg>
