<?xml version="1.0" encoding="utf-8"?>
<!-- Generator: Adobe Illustrator 22.1.0, SVG Export Plug-In . SVG Version: 6.00 Build 0)  -->
<svg version="1.1" id="Layer_1" xmlns="http://www.w3.org/2000/svg" xmlns:xlink="http://www.w3.org/1999/xlink" x="0px" y="0px"
	 viewBox="0 0 958.4 662.3" style="enable-background:new 0 0 958.4 662.3;" xml:space="preserve">
<title>EH-Asset 18-layername</title>
<g id="Layer_2_1_">
	<g id="ErRezak">
		<g>
			<path d="M104.6,10.5c0-7-4-10.5-12.2-10.5c-7.7,0-16,5.2-24.8,15.6c2,1.8,3.7,4,5.2,6.2l2.5-1c6.4,0,9.7,3.8,9.7,11.3
				c0,3-1.5,7-4.5,12C72.9,37.6,69,32.8,69,29.6c0-2.7,0.9-5.3,2.7-7.4l1.2-0.5c-1.6-2.2-3.3-4.4-5.2-6.2c-0.4,0.5-0.8,0.9-1.2,1.4
				c-9.2,11.3-13.8,21.2-13.8,29.7c0,4.7,3.2,10.2,9.6,16.4C40.6,78.8,19.9,91.5,0,101.1c6.3,2,10.8,2.9,13.4,2.9
				c13.2,0,32.4-11.8,57.6-35.3c5.1,4.6,10.5,8.8,16.1,12.7l8.5-24.1L88.2,50C99.2,35.7,104.6,22.5,104.6,10.5z"/>
			<path d="M261.4,156.3c-2.6,16.8-19.1,40.8-49.3,72.1c-22.5,21.3-44.9,42.8-67.4,64.3c-20.7,19.9-41.1,44.4-61.3,73.6
				c-25.4,37-38.1,65.8-38.1,86.3c0,43.7,19,65.5,57.1,65.5c24.9,0,51-17,78.4-51.1c26-32.6,39.1-61.9,39.1-87.8
				c0-10.9-4-19.2-12-24.9c-10.6,18.4-22.4,27.6-35.6,27.6c-14.5,0-21.7-8.5-21.7-25.4l10.2-34.9c5.3-18.2,15.7-27.3,31.2-27.3
				c8.9,0,17.5,4.3,25.8,12.9c11.3,11.9,17,32,17,60.3c0,38.7-14.4,79-43.2,120.9c-31.1,45.3-64.9,67.9-101.5,67.9
				c-37.1,0-55.7-28.1-55.7-84.2c0-52.2,32.7-111.8,98.1-178.8c6.9-7,24.5-23.5,53-49.6c22.1-20,39-37.2,50.5-51.5
				c-6.5,0-17,1.7-31.4,5.2s-24.7,5.2-30.9,5.2c-2.1,0-4.3-0.2-6.4-0.5c1.1-3,9.1-14.8,23.9-35.6
				C228.4,159.6,251.8,156.3,261.4,156.3z"/>
			<path d="M397.9,353c0,43.3-5.2,74.5-15.6,93.5c-12.5,22.8-37.8,41.1-75.9,54.9c-5.4,2-8.8,2.9-10.3,2.9c-1.5,0-2.3-0.6-2.4-2
				c3.6-7.3,9.5-15.5,17.8-24.4l21.2-22.2c16.3-18.2,27.4-32.3,33.5-42.2c10.3-16.8,15.4-33.7,15.4-50.8c0-12.2-5.4-33.2-16.2-63
				c-9.5-26-18.3-46.8-26.5-62.3c-4.2,31.3-6.3,51.4-6.3,60.5c0,16.9-1.9,26.3-5.5,28.1c-5.3-1-8-17.7-8-50.3
				c0-60.4,5-105.7,15.1-136c18.6,32.6,33.6,67.2,44.8,103C391.5,283.4,397.9,320.1,397.9,353z"/>
			<path d="M463.5,154.1l-69.6,24.4c-10.9,3.7-19.9,11.2-27.1,22.5l79.8-28.3C453.2,170.3,458.8,164.1,463.5,154.1z"/>
			<path d="M425.9,209.7c-6.2,0-9.3-5.9-9.3-17.8l-5.9,1.5c-12.4,21.6-22.4,32.5-30,32.5c-5.7,0-8.5-3.8-8.5-11.5l0.7-7.6l-8.5,4.6
				c-4.6,12.4-6.8,20.8-6.8,25.3c0,9.2,4.7,13.8,14.2,13.8c10.9,0,21.3-7.1,31.1-21.1c5.9,4.2,10.7,6.3,14.4,6.3
				c11.8,0,21.5-7.1,29.1-21.2c5.7-10.4,9.4-22.6,11-36.6l-7.6,2.2C443.3,199.8,435.4,209.7,425.9,209.7z"/>
			<path d="M565.3,198c0-2.9-2.2-5.5-6.6-7.8c-6.4-4.2-11.7-7.1-16.1-8.6c-13.3,19.9-20.7,31.3-22,34.4l21.8,14.9
				C552.6,218,560.3,207,565.3,198z"/>
			<path d="M581.9,309.5c-2.8-4.5-6.1-6.8-10-6.8c-8.1,0-19.3,15.7-33.5,47.1c-7.5,17.4-15,34.8-22.7,52.2
				c-9.1,20.2-18.4,36.6-27.8,49.3c-42.8,57.6-99,86.3-168.5,86.3l-2.5,1.8c1.3,4.2,22.2,6.3,62.7,6.3c40.2,0,71.7-10.3,94.5-31
				c16.3-15,31.6-39.9,45.9-74.8c20.3-49.5,33.5-79.7,39.6-90.4c2.9-5.2,6.7-7.9,11.2-8.1l6.6,8.1c5.4-1,8.1-10.2,8-27.7
				C585.5,317.4,584.3,313.2,581.9,309.5z"/>
			<path d="M654,154.1l-69.6,24.4c-10.9,3.7-19.9,11.2-27.1,22.5l79.8-28.3C643.6,170.3,649.3,164.1,654,154.1z"/>
			<path d="M616.4,209.7c-6.2,0-9.3-5.9-9.3-17.8l-5.9,1.5c-12.4,21.6-22.4,32.5-30,32.5c-5.7,0-8.5-3.8-8.5-11.5l0.7-7.6l-8.5,4.6
				c-4.6,12.4-6.9,20.8-6.9,25.3c0,9.2,4.7,13.8,14.2,13.8c10.9,0,21.3-7.1,31.1-21.1c5.9,4.2,10.7,6.3,14.4,6.3
				c11.8,0,21.5-7.1,29.1-21.2c5.7-10.4,9.4-22.6,11-36.6l-7.6,2.2C633.8,199.8,625.8,209.7,616.4,209.7z"/>
			<path d="M746,401.9L733.3,449c-20.2,11.7-34.3,20.2-42.2,25.6c-19,12.7-30.7,23.2-34.9,31.5c-13,28.2-26,56.2-39.1,84.2
				c-18.9,35.8-38.6,57.1-59.1,64c-15.6,5.3-32.8,8-51.5,8c-37.6,0-61.8-3.2-72.5-9.5l-0.7-1.2l2-2.2c10.5,2,21.3,3,32,2.9
				c30,0,58.3-9.6,85-28.8c23.6-17.3,43.5-40,59.8-68.4c1.1-2.1,8.9-17.4,23.2-45.9c9.3-18.6,18.3-33.1,27-43.6
				c8.7-10.5,22.5-21.6,41.4-33.3C724.5,419.4,738.7,409.2,746,401.9z"/>
			<path d="M819.5,248.3c0,45.9-5.8,83.8-17.3,113.8c-14,35.8-37.9,65.4-71.8,88.9l12.2-45.7c41.5-33.2,62.3-66.6,62.3-100.1
				c0-25.1-7.9-55.4-23.7-91.1c-3.1,15.9-7.7,39.8-13.8,71.5c-2.6,13.7-4.8,20.5-6.5,20.5l-2.2-0.7l-0.5-3.2
				c0-13.2,3.4-37.9,10.2-74.2c7.1-39.2,13.3-61.8,18.5-67.6c8.9,5.5,16.8,19,23.6,40.3C816.5,219.1,819.5,234.9,819.5,248.3z"/>
			<path d="M867.3,41c-3.4,11.1-8.1,18.1-14.2,21l-85.5,42c2.6-10.1,10.3-18.3,23-24.7L867.3,41z"/>
			<path d="M871.7,121.6c0-4.9-2.9-7.3-8.8-7.3c-8.1,0-12.2-1.1-12.2-3.4c0-4.1,2.4-6.1,7.3-6.1c1.7,0,3.3,0.3,4.9,1
				c1.6-1.1,4-4.6,7-10.3c3-5.7,4.8-9.8,5.2-12.2c-1.7-0.9-3.5-1.5-5.4-1.7c-6.9,0-14.8,5.9-23.8,17.8s-13.5,21.3-13.5,28.3
				c0,6.3,3.2,9.4,9.7,9.3c5.1-0.2,7.9,0.3,8.4,1.2c-2.6,3.6-11.1,8.1-25.6,13.4l-29.8,10.3c0,1.9,1.1,2.9,3.2,2.9
				c13.7,0,28.6-3.8,44.9-11.5C862.2,144.2,871.7,133.6,871.7,121.6z"/>
			<path d="M939.4,242.9c-11.2-35.8-26.2-70.4-44.8-103c-10.1,30.3-15.1,75.6-15.1,136c0,32.6,2.7,49.3,8,50.3
				c3.6-1.8,5.5-11.2,5.5-28.1c0-9.1,2.1-29.3,6.3-60.6c8.2,15.5,17,36.2,26.5,62.2c10.8,29.8,16.2,50.8,16.2,63
				c0,17.1-5.1,34-15.4,50.8c-6,9.9-17.2,24-33.5,42.2L872,478c-8.3,9-14.2,17.1-17.8,24.4c0.2,1.3,1,2,2.4,2s4.9-1,10.2-2.9
				c38-13.8,63.3-32.1,75.8-54.9c10.5-19,15.8-50.2,15.8-93.5C958.4,320.1,952.1,283.4,939.4,242.9z"/>
		</g>
	</g>
</g>
</svg>
