<?xml version="1.0" encoding="utf-8"?>
<!-- Generator: Adobe Illustrator 22.1.0, SVG Export Plug-In . SVG Version: 6.00 Build 0)  -->
<svg version="1.1" id="Layer_1" xmlns="http://www.w3.org/2000/svg" xmlns:xlink="http://www.w3.org/1999/xlink" x="0px" y="0px"
	 viewBox="0 0 802 720.5" style="enable-background:new 0 0 802 720.5;" xml:space="preserve">
<title>EH-Asset 43-layername</title>
<g id="Layer_2_1_">
	<g id="ElKerim">
		<g>
			<path d="M154.3,68.1c0-7-4-10.5-12.1-10.5c-8.1,0-16.8,5.7-26,17c0,0-0.1,0.1-0.1,0.1c1.9,1.7,3.8,3.4,5.6,5l3.4-1.4
				c6.4,0,9.7,3.8,9.7,11.3c0,2.9-1.5,6.9-4.5,12c-7.8-6.4-11.6-11.2-11.6-14.5c0-2.7,0.9-5.3,2.7-7.3l0.3-0.1
				c-1.8-1.7-3.7-3.4-5.6-5c-9.2,11.3-13.8,21.1-13.8,29.6c0,4.7,3.2,10.2,9.6,16.4c-21.6,15.8-42.4,28.5-62.3,38.1
				c6.3,2,10.8,2.9,13.4,2.9c13.2,0,32.4-11.7,57.6-35.3c5.1,4.6,10.5,8.8,16.1,12.7l8.5-24.2l-7.5-7.3
				C148.8,93.3,154.3,80.1,154.3,68.1z"/>
			<path d="M222.9,374.8l-12.2,45.6c-18.7,11.7-37.4,23.4-56.1,34.9c-25.7,17.7-38.5,30.8-38.5,39.1c0,1.8,1,2.7,2.9,2.7
				c4.9,0,12.2-5.2,22-15.6c6.7-7.2,13.3-14.4,19.8-21.7c1.1,0.8,1.7,2.2,1.7,4.1c0,2.3-1.2,8.6-3.7,19c-3.1,13.3-4.8,20.5-5.1,21.5
				c-2.4,7-5.9,13.5-10.5,19.3c-7,9.1-22.5,22.3-46.4,39.5c-27.4,19.7-45.8,34.3-55.3,43.7c-17.8,17.6-26.7,34.3-26.7,50.1
				c0,15.9,13.2,28.4,39.5,37.4c21.6,7.5,46.1,11.2,73.2,11.2c44.6,0,74.4-0.7,89.4-2.2l0.5,1.2c0,4.7-13.4,8.7-40.3,12
				c-20.8,2.6-38.2,3.8-52,3.8c-83.3,0-125-21.1-125-63.2c0-19.4,7.9-41.2,23.7-65.4c14.2-21.6,30.3-39,48.2-52l30.1-22
				c-1.3-4.2-2-8.6-1.9-12.9c0-12.7,5-27.6,14.9-44.7c9.9-16.4,20.4-28.2,31.5-35.4C180.3,403.1,205.8,386.5,222.9,374.8z"/>
			<path d="M219.7,376.7l-12.4,45.9c19.3-16.3,32.6-39.4,39.8-69.3c5.6-23.3,8.3-37.3,8.3-42c0-18.7-5-35.2-15-49.3
				c-6.1,3.4-12,12.4-17.9,26.9c-4.9,12-8.1,23-9.6,32.7l0.5,1.7l2.7-0.2c2.5-5.1,6-9.7,10.3-13.4c7.3,8.5,11,21.2,11,38.1v5.4
				C231.8,364.3,225.9,372.2,219.7,376.7z"/>
			<path d="M193.4,483.9c-10.1,20.2-15.1,32.9-15.1,38.1l0.3,1.7c10.9-3.7,23.6-10.6,38.1-20.5c17.3-11.7,26.8-21.8,28.6-30.3
				l3.9-18.8c-22.8,13.7-34.9,20.7-36.4,21.2C206.1,477.9,199.6,480.7,193.4,483.9z"/>
			<path d="M360.1,649.9c-3.4,11.1-8.1,18.1-14.1,21l-85.5,42c2.6-10.1,10.3-18.3,23-24.7L360.1,649.9z"/>
			<path d="M458.5,374l-12.7,47.1c-20.2,11.7-34.3,20.3-42.2,25.6c-19,12.7-30.7,23.2-34.9,31.5c-13,28.2-26,56.2-39.1,84.2
				c-18.9,35.8-38.6,57.1-59.1,64c-15.6,5.3-32.8,8-51.5,8c-37.6,0-61.8-3.2-72.5-9.5l-0.7-1.2l2-2.2c10.5,2,21.3,3,32,2.9
				c29.9,0,58.3-9.6,85-28.8c23.6-17.2,43.5-40,59.8-68.4c1.1-2.1,8.9-17.4,23.2-45.9c9.3-18.6,18.3-33.1,27-43.6
				s22.5-21.6,41.2-33.3C437,391.5,451.2,381.3,458.5,374z"/>
			<path d="M515.4,13.2c-3.4,11.1-8.1,18.1-14.2,21l-85.4,42c2.6-10.1,10.3-18.3,23-24.7L515.4,13.2z"/>
			<path d="M610.1,8.1c-4.4-5.4-9.5-8.1-15.2-8.1c-12.7,0-24.2,6.8-34.3,20.3c-4.2,5.5-7.4,11.2-9.7,16.9c2.8-0.4,5.7-0.5,8.6-0.3
				c0.9-3.2,2.6-6.3,5.3-9.3c4-4.5,8.5-6.7,13.4-6.7c3.9,0,8.5,2.3,13.9,6.9s8,8.9,8,12.9c0,7.8-7.4,11.7-22.1,11.7
				c-12.8,0-19.2-3.6-19.2-10.7c0-1.6,0.2-3.2,0.7-4.8c-2.9-0.1-5.8,0-8.6,0.3c-2.8,7-4.3,14.2-4.3,21.5c0,11.7,6.7,17.6,20.1,17.6
				c12.8,0,24.2-5.4,34.2-16.4C611,48.9,616,37.1,616,24.4C616,18.4,613.9,12.7,610.1,8.1z"/>
			<path d="M663.1,220.5c0,45.9-5.8,83.8-17.3,113.8c-14,35.8-37.9,65.4-71.8,88.9l12.2-45.7c41.5-33.2,62.3-66.6,62.3-100.1
				c0-25.1-7.9-55.4-23.7-91.1c-3.1,15.9-7.7,39.8-13.8,71.5c-2.6,13.7-4.7,20.5-6.5,20.5l-2.2-0.7l-0.5-3.2
				c0-13.2,3.4-37.9,10.2-74.2c7.1-39.2,13.3-61.8,18.5-67.6c8.9,5.5,16.8,19,23.6,40.3C660.1,191.3,663.1,207.1,663.1,220.5z"/>
			<path d="M710.9,13.2c-3.4,11.1-8.1,18.1-14.2,21l-85.5,42c2.6-10.1,10.3-18.3,23-24.7L710.9,13.2z"/>
			<path d="M516.1,383.5c-3.2-4.5-5.2-13.4-5.9-26.6c-0.7-12.7-1.2-37.5-1.5-74.5c-0.2-31.1-1.1-55.9-2.9-74.5l-2.2-1
				c-2.1,2.1-4.8,7.9-8.2,17.2c-3.4,9.4-5,15.7-5,18.9c0,6.8,0.4,17,1.2,30.5c0.8,13.5,1.2,23.7,1.2,30.5c0,18.5-2.7,32.5-7.9,41.8
				c-4.3,7.8-14.3,18.3-30.2,31.5L442.6,423c20.1-14.3,36.3-35.2,48.6-62.5c0.7,26,1.9,42.3,3.7,48.8c4.9,18,16.2,27,34.1,27
				c17.2,0,33.4-5.3,48.7-16l12.5-46.3c-15,12.9-31.1,19.3-48.3,19.3C529.2,393.3,520.7,390.1,516.1,383.5z"/>
			<path d="M650.4,1.7l-3.2,2c-23.6,44.4-39.4,73.3-47.4,86.4c-19.3,31.6-39.5,57.2-60.5,76.9c-32.7,25.2-57.7,43.2-74.9,54l2.9,1
				c17.2-3.6,38.8-15.9,64.7-36.9c22.6-18.1,40.7-35.9,54.4-53.5c-0.3,12.5,0.3,22.4,2,29.5l4.4-2.9c1.3-28.1,21.3-79.9,59.8-155.3
				L650.4,1.7z"/>
			<path d="M715.3,93.8c0-4.9-2.9-7.3-8.8-7.3c-8.1,0-12.2-1.1-12.2-3.4c0-4.1,2.4-6.1,7.3-6.1c1.7,0,3.3,0.3,4.9,1
				c1.6-1.1,4-4.6,7-10.3c3-5.7,4.8-9.8,5.3-12.2c-1.7-0.9-3.5-1.5-5.4-1.7c-6.9,0-14.8,5.9-23.8,17.8S676,92.9,676,99.8
				c0,6.4,3.2,9.4,9.7,9.3c5.1-0.2,7.9,0.2,8.4,1.2c-2.6,3.6-11.2,8.1-25.6,13.4L638.7,134c0,2,1,2.9,3.2,2.9
				c13.7,0,28.6-3.8,44.9-11.5C705.8,116.4,715.3,105.8,715.3,93.8z"/>
			<path d="M783,215.1c-11.2-35.8-26.2-70.4-44.8-103c-10.1,30.3-15.1,75.6-15.1,136c0,32.5,2.7,49.3,8,50.3
				c3.7-1.8,5.5-11.1,5.5-28.1c0-9.1,2.1-29.3,6.3-60.5c8.2,15.5,17,36.2,26.5,62.3c10.8,29.8,16.2,50.8,16.2,63
				c0,17.1-5.1,34-15.4,50.8c-6,9.9-17.1,24-33.4,42.2l-21.3,22.2c-8.3,9-14.2,17.1-17.8,24.4c0.1,1.2,1.1,2.1,2.3,2
				c0.1,0,0.1,0,0.2,0c1.5,0,4.9-1,10.2-2.9c38-13.8,63.3-32.1,75.8-54.9c10.6-19,15.8-50.2,15.8-93.5
				C802,292.3,795.7,255.6,783,215.1z"/>
		</g>
	</g>
</g>
</svg>
