<?xml version="1.0" encoding="utf-8"?>
<!-- Generator: Adobe Illustrator 22.1.0, SVG Export Plug-In . SVG Version: 6.00 Build 0)  -->
<svg version="1.1" id="Layer_1" xmlns="http://www.w3.org/2000/svg" xmlns:xlink="http://www.w3.org/1999/xlink" x="0px" y="0px"
	 viewBox="0 0 971.6 664.1" style="enable-background:new 0 0 971.6 664.1;" xml:space="preserve">
<title>EH-Asset 46-layername</title>
<g id="Layer_2_1_">
	<g id="ElWasiu">
		<g>
			<path d="M104.6,68.1c0-7-4-10.5-12.2-10.5c-6.4,0-13.1,3.6-20.2,10.6c1.7,3.3,2.9,6.7,3.4,10.2c6.3,0.1,9.5,3.8,9.5,11.3
				c0,2.9-1.5,6.9-4.5,12C72.9,95.3,69,90.5,69,87.2c0-2.7,0.9-5.3,2.7-7.3l3.7-1.5c0.1,0,0.1,0,0.2,0c-0.5-3.5-1.7-6.9-3.4-10.2
				c-1.9,1.9-3.8,4-5.8,6.4c-9.2,11.3-13.9,21.2-13.9,29.7c0,4.7,3.2,10.2,9.6,16.4C40.6,136.4,19.9,149.1,0,158.7
				c6.3,2,10.8,2.9,13.4,2.9c13.2,0,32.4-11.7,57.6-35.3c5.1,4.6,10.5,8.8,16.1,12.7l8.5-24.2l-7.5-7.3
				C99.2,93.3,104.6,80.1,104.6,68.1z"/>
			<path d="M266.4,373.9L254,420.4c-21,12.7-38.2,19.1-51.5,19.1c-16.4,0-28.7-10.5-36.6-31.4l-76.3,57.2
				C48.7,496,28.2,514,28.2,519c0,6.9,11.2,10.3,33.7,10.3c30,0,65.4-8.1,106.4-24.4c38.6-15.5,70.5-33.3,95.9-53.5h1.2
				c-2,10.1-22.1,29-60.6,56.8c-21.2,15.3-47,29.3-77.4,41.8c-34,14-62,21-84,21c-27.3,0-41-6.2-41-18.6c0-24.4,21.7-55.3,65.2-92.6
				c17.4-14.8,48.7-37.9,93.7-69.2c-0.5-7.7-1.2-12.9-2.2-15.6c-2-5.9-5.8-9-11.5-9.5c-7.3-0.7-11-1.7-11-3.2c0-3.7,2-10.6,6.1-20.6
				s7.5-16.7,10.2-20.2c2.3-2.9,10.2-5.6,23.6-8.1c11.4-2,20.3-2.9,26.8-2.9c16.4,0,24.6,5,24.6,15.1c0,14.3-13.4,34.6-40.1,61.1
				c5.2,7.3,16.8,11,34.7,11C231.5,397.7,246.1,389.8,266.4,373.9z"/>
			<path d="M322.9,601.1c-3.4,11.1-8.1,18.1-14.2,21l-85.4,42c2.6-10.1,10.3-18.3,23-24.7L322.9,601.1z"/>
			<path d="M398.8,237.3c-0.1,19.9-3.7,39.7-10.5,58.3c-8.1,22.1-18.9,38.4-32.2,48.7c-7,5.5-12.9,8-17.6,7.5
				c-16.8,22.6-33.3,33.9-49.5,33.9c-3.2,10.1-16,22.4-38.3,36.9l12.2-45.2c21.2-19.4,33.7-33.8,37.6-43.2
				c1.5-4.1,3.8-10.1,7.1-18.1l3.2,2.9l0.7,2.2l-2.7,14.4c-0.1,1.4,0.7,2.6,2,3.2c5.9,0,12.5-4.5,20-13.4c6.5-8,10.7-15.3,12.5-22
				c1.1-5.4,2.9-13.4,5.4-23.9l3.4-2.4l1,1.7c1,3.6,1.5,12.4,1.5,26.4l1.5,0.5c10.6-5,18.8-13.7,24.7-25.9c3.6-7.3,6.7-17.7,9.5-31
				c2.3-10.7,4.2-16.6,5.9-17.6C397.9,232,398.8,234.1,398.8,237.3z"/>
			<path d="M537,325.2c0,43.3-5.2,74.5-15.6,93.5c-12.5,22.8-37.8,41.1-75.9,54.9c-5.4,2-8.8,2.9-10.3,2.9c-1.2,0.2-2.2-0.6-2.4-1.8
				c0-0.1,0-0.1,0-0.2c3.6-7.3,9.5-15.5,17.8-24.4l21.3-22.2c16.3-18.2,27.4-32.3,33.5-42.2c10.3-16.8,15.4-33.7,15.4-50.8
				c0-12.2-5.4-33.2-16.2-63c-9.5-26-18.3-46.8-26.5-62.3c-4.2,31.3-6.3,51.4-6.3,60.5c0,16.9-1.8,26.3-5.5,28.1
				c-5.3-1-8-17.7-8-50.3c0-60.4,5-105.7,15.1-136c18.6,32.6,33.6,67.2,44.8,103C530.7,255.6,537,292.3,537,325.2z"/>
			<path d="M596.3,159.7c-3.4,11.1-8.1,18.1-14.2,21l-85.5,42c2.6-10.1,10.3-18.3,23-24.7L596.3,159.7z"/>
			<path d="M769.7,373.8l-12.5,46.4c-10.4,8.3-29.2,18.3-56.4,29.8c-5.5,24.3-18.5,50.3-39.1,78c-21.5,29-43,48.2-64.5,57.5
				c-18.1,7.8-40.8,11.7-68.1,11.7c-10.4,0-25.9-1.7-46.4-5.2c-24.4-4-37-8.2-37.8-12.6l2-1.5c4.9,0.2,12.6,1.1,23.2,2.9
				c10.1,1.6,17.9,2.4,23.4,2.4c11.2,0,27.7-3.2,49.3-9.5c47-13.8,87.8-41.1,122.3-81.8c12.1-14.2,18.9-26.5,20.5-37.1
				c-14.2,3.9-23.7,5.9-28.6,5.9c-14.8,0-22.2-4.9-22.2-14.6c0-10.2,4.2-23.2,12.5-38.8c9.3-17.4,18.5-26.1,27.6-26.1
				c8,0,15.1,3.1,21.3,9.3s9.4,13.3,9.4,21.2C733.1,400.1,754.4,387.5,769.7,373.8z"/>
			<path d="M779.7,8.1c-4.4-5.4-9.5-8.1-15.2-8.1c-12.7,0-24.2,6.8-34.3,20.3c-0.9,1.2-1.8,2.5-2.6,3.7c2.2,1.3,4.3,2.6,6.5,3.9
				c0.1-0.1,0.2-0.3,0.4-0.4c4-4.5,8.5-6.7,13.4-6.7c3.9,0,8.5,2.3,13.9,6.9c5.3,4.6,8,8.9,8,12.9c0,7.8-7.4,11.7-22.1,11.7
				c-12.8,0-19.2-3.6-19.2-10.7c0-4.8,1.9-9.4,5.6-13.7c-2.2-1.3-4.3-2.6-6.5-3.9c-7.6,11.2-11.4,22.7-11.4,34.6
				c0,11.7,6.7,17.6,20.1,17.6c12.7,0,24.1-5.4,34.2-16.4s15.1-22.7,15.1-35.4C785.5,18.5,783.4,12.7,779.7,8.1z"/>
			<path d="M832.7,220.5c0,45.9-5.8,83.8-17.3,113.8c-14,35.8-37.9,65.4-71.8,88.9l12.2-45.7c41.5-33.2,62.2-66.6,62.2-100.1
				c0-25.1-7.9-55.4-23.7-91.1c-3.1,15.9-7.7,39.8-13.8,71.5c-2.6,13.7-4.8,20.5-6.5,20.5l-2.2-0.7l-0.5-3.2
				c0-13.2,3.4-37.9,10.2-74.2c7.1-39.2,13.3-61.8,18.5-67.6c8.9,5.5,16.8,19,23.6,40.3C829.7,191.3,832.7,207.1,832.7,220.5z"/>
			<path d="M880.5,13.2c-3.4,11.1-8.1,18.1-14.2,21l-85.5,42c2.6-10.1,10.3-18.3,23-24.7L880.5,13.2z"/>
			<path d="M884.9,93.8c0-4.9-2.9-7.3-8.8-7.3c-8.1,0-12.2-1.1-12.2-3.4c0-4.1,2.4-6.1,7.3-6.1c1.7,0,3.3,0.3,4.9,1
				c1.6-1.1,4-4.6,7-10.3c3-5.7,4.8-9.8,5.3-12.2c-1.7-0.9-3.5-1.5-5.4-1.7c-6.9,0-14.8,5.9-23.8,17.8s-13.5,21.3-13.5,28.3
				c0,6.4,3.2,9.4,9.7,9.3c5.1-0.2,7.9,0.3,8.4,1.2c-2.6,3.6-11.2,8.1-25.6,13.4L808.3,134c0,2,1,2.9,3.2,2.9
				c13.7,0,28.6-3.8,44.9-11.5C875.4,116.4,884.9,105.8,884.9,93.8z"/>
			<path d="M952.6,215.1c-11.2-35.8-26.2-70.4-44.8-103c-10.1,30.3-15.1,75.6-15.1,136c0,32.5,2.7,49.3,8,50.3
				c3.7-1.8,5.5-11.1,5.5-28.1c0-9.1,2.1-29.3,6.3-60.5c8.2,15.4,17,36.2,26.5,62.2c10.8,29.8,16.2,50.8,16.2,63
				c0,17.1-5.1,34-15.4,50.8c-6,9.9-17.2,24-33.5,42.2l-21.2,22.2c-8.3,9-14.2,17.1-17.8,24.4c0.2,1.3,1,2,2.4,2s4.9-1,10.2-2.9
				c38-13.8,63.3-32.1,75.8-54.9c10.5-19,15.8-50.2,15.8-93.5C971.6,292.3,965.3,255.6,952.6,215.1z"/>
		</g>
	</g>
</g>
</svg>
