<?xml version="1.0" encoding="utf-8"?>
<!-- Generator: Adobe Illustrator 22.1.0, SVG Export Plug-In . SVG Version: 6.00 Build 0)  -->
<svg version="1.1" id="Layer_1" xmlns="http://www.w3.org/2000/svg" xmlns:xlink="http://www.w3.org/1999/xlink" x="0px" y="0px"
	 viewBox="0 0 1042.1 664.1" style="enable-background:new 0 0 1042.1 664.1;" xml:space="preserve">
<title>EH-Asset 50-layername</title>
<g id="Layer_2_1_">
	<g id="ElBais">
		<g>
			<path d="M104.6,68.1c0-7-4-10.5-12.2-10.5c-6.7,0-13.8,3.9-21.3,11.7c2.1,2.8,3.8,5.9,5.2,9.1c5.8,0.3,8.8,4.1,8.8,11.2
				c0,2.9-1.5,6.9-4.5,12C72.9,95.3,69,90.5,69,87.2c0-2.7,0.9-5.3,2.7-7.3l3.7-1.5c0.3,0,0.6,0,0.9,0c-1.3-3.2-3.1-6.3-5.2-9.1
				c-1.5,1.6-3.1,3.3-4.7,5.3c-9.2,11.3-13.8,21.2-13.8,29.7c0,4.7,3.2,10.2,9.6,16.4C40.6,136.4,19.9,149.1,0,158.7
				c6.3,2,10.8,2.9,13.4,2.9c13.2,0,32.4-11.7,57.6-35.3c5.1,4.6,10.5,8.8,16.1,12.7l8.5-24.2l-7.5-7.3
				C99.2,93.3,104.6,80.1,104.6,68.1z"/>
			<path d="M508.5,601.1c-3.4,11.1-8.1,18.1-14.2,21l-85.4,42c2.6-10.1,10.3-18.3,23-24.7L508.5,601.1z"/>
			<path d="M536.8,279C536.8,279.1,536.7,279.1,536.8,279C536.7,279.1,536.7,279.1,536.8,279L536.8,279z"/>
			<path d="M630,221.6c-4.5,0.2-14.8,7.1-30.7,20.7c-19.2,16.7-29.6,25.5-31.3,26.5c-4.7,3-10.8,5.2-18.3,6.6l0.4-2.4
				c-4.2,2.2-8.6,3.4-13.5,3.5c0.1,0.8,0.1,1.6,0.1,2.5c0,0,0,0,0,0l0,0c0,0,0,0,0,0c-10.7,3.7-28.5,5.6-53.2,5.6
				c-1.1,0-6.6-0.4-16.4-1.2c-4.2-2.4-7.4-4.3-9.5-5.6c4.1-6.8,12.2-12.3,24.4-16.4c10.9-3.7,20.8-5.6,29.8-5.6
				c15.7,0,23.9,6.9,24.8,20.7c4.9-0.1,9.3-1.3,13.5-3.5l5.2-31.2c0-6.8-1.9-13.5-5.6-19.2c-4.3-6.7-9.8-10-16.6-10
				c-4.4,0-15.5,2.6-33.2,7.8c-30.9,9.1-50.7,25.6-59.3,49.6c-7,19.5-10.5,31.7-10.5,36.6c0,5.9,4.8,11.2,14.4,16.1
				c8.6,4.4,16.2,6.6,22.7,6.6c6.7-0.2,13.4-0.9,20-2.1c6.5-1.2,13.1-1.8,19.8-2.1c-14.3,17.7-34,35.2-59.1,52.2l-12.2,45.2
				c17.5-13,34-27.3,49.3-42.7c16.1-16.1,32.1-32.3,48.1-48.6c-7.6,59.9-13.6,97.7-17.8,113.3l0.5,1l2,0.2
				c11-54,18.9-94.6,23.7-121.8c37.6-35.2,63.3-56.7,77.1-64.5c8.8-18.9,13.2-30.7,13.2-35.4C631.7,223,631,222,630,221.6z"/>
			<path d="M753.6,374.3l-12.5,46.8c-13,8.8-26.2,13.3-39.5,13.3c-18.4,0-31-10.3-37.8-31c-3.7-11.6-5.9-29.5-6.6-53.8l-1.8-73.7
				c-1.4-55.3-2.1-83.5-2.1-84.5c0-2.1,2-9,5.9-20.8c3.9-11.7,6.6-18.6,8-20.5h1.4c0.5,28.2,1.5,70.2,2.9,126.2
				c0.2,15.6,1.9,38.7,5.1,69.3c6.5,31.4,19,47.1,37.3,47.1C727.7,392.8,740.9,386.6,753.6,374.3z"/>
			<path d="M811.7,159.7c-3.4,11.1-8.1,18.1-14.2,21l-85.5,42c2.6-10.1,10.3-18.3,22.9-24.7L811.7,159.7z"/>
			<path d="M850.2,8.1C845.8,2.7,840.7,0,835,0c-12.7,0-24.1,6.8-34.2,20.3c-1,1.4-2,2.8-2.9,4.2c2.2,1.2,4.4,2.4,6.5,3.7
				c0.2-0.2,0.4-0.5,0.6-0.7c4-4.5,8.5-6.7,13.4-6.7c3.9,0,8.5,2.3,13.9,6.9s8,8.9,8,12.9c0,7.8-7.4,11.7-22.1,11.7
				c-12.8,0-19.2-3.6-19.2-10.7c0-4.7,1.8-9.2,5.4-13.4c-2.2-1.3-4.3-2.5-6.5-3.7c-7.4,11.1-11.1,22.5-11.1,34.2
				c0,11.7,6.7,17.6,20.1,17.6c12.7,0,24.1-5.4,34.2-16.4c10-10.9,15.1-22.7,15.1-35.4C856.1,18.4,854,12.7,850.2,8.1z"/>
			<path d="M903.2,220.5c0,45.9-5.8,83.8-17.3,113.8c-14,35.8-37.9,65.4-71.8,88.9l12.2-45.7c41.5-33.2,62.3-66.6,62.3-100.1
				c0-25.1-7.9-55.4-23.7-91.1c-3.1,15.9-7.7,39.8-13.8,71.5c-2.6,13.7-4.8,20.5-6.5,20.5l-2.2-0.7l-0.5-3.2
				c0-13.2,3.4-37.9,10.2-74.2c7.1-39.2,13.3-61.8,18.5-67.6c8.9,5.5,16.8,19,23.6,40.3C900.2,191.3,903.2,207.1,903.2,220.5z"/>
			<path d="M951.1,13.2c-3.4,11.1-8.1,18.1-14.2,21l-85.5,42c2.6-10.1,10.3-18.3,23-24.7L951.1,13.2z"/>
			<path d="M414.9,392.1c-6.4,0.1-12.6-2.1-17.5-6.2c-4.9-3.7-7.8-9.5-7.7-15.7c0-4.2,1.5-10.2,4.5-18c3-7.8,4.6-13.7,4.8-17.8
				l-1-2.4l-3.9,0.5l-113,105.4c-48.5,42.5-94.6,63.8-138.2,63.8c-23.4,0-44.4-9.1-63-27.3c-18.6-18.2-27.8-39-27.8-62.5
				c0-11.6,2.3-23,6.6-33.7c23.8-59.5,85.1-89.2,183.9-89.2c22.9,0,43.1-3.3,60.5-10c32.5-12.5,51.3-20.5,56.4-23.9l-0.2-2.7
				c-42,16.9-79.7,25.3-113,25.2l-43-0.3c-34.7-0.2-65.4,8.6-92.3,26.1s-47.2,42.3-61,74.2c-7.2,16.4-10.7,31.5-10.7,45.2
				c0,33.2,9.2,60.9,27.6,83c19.7,23.6,45.8,35.4,78.4,35.4c30.4,0,64.4-13.9,101.8-41.6c23.6-17.6,51.8-43.7,84.5-78.3
				c27.5-29,43.2-43.9,47.1-44.7l0.5,1.2c-1.3,3.9-2,9.2-2,15.7c0,10.8,2.6,19.9,7.7,27.2c5.8,8.5,13.8,12.7,24,12.8
				c8,0,18.3-4.4,30.8-13.2l12.5-46.6C440.8,386,428.5,392.1,414.9,392.1z"/>
			<path d="M298.7,193.9c2.9,0,5.7,1,7.8,2.9l3.9,7.1c8.6,0,16.9-10.8,24.9-32.5c0.2-10.1-5.5-15.1-16.9-15.1
				c-14.3,0-31.6,13.3-51.8,40c-19.5,25.7-29.4,46.1-29.5,61.3C261.1,215.1,281.6,193.9,298.7,193.9z"/>
			<path d="M747,467.5c-14,21.5-21.3,33-22,34.5l21.5,14.9c7.3-6.7,14.9-17.7,22.7-33C769.2,478.4,761.8,472.9,747,467.5z"/>
			<path d="M774.3,401.4c-6.7,0-11.4-0.9-14.2-2.7c12.7-17.4,19-32.1,19-43.9c0-2.8-0.2-5.6-0.7-8.3c-9.1,10.4-18.1,20.7-26.9,30.8
				l-12.2,45.3l6.6-5.2c6.5,12,16.8,18,30.8,18c13.2,0,26.6-5,40.3-15l12.5-46.5c-6.5,6.5-15.1,12.6-25.6,18.3
				C792,398.3,782.1,401.4,774.3,401.4z"/>
			<path d="M955.5,93.8c0-4.9-2.9-7.3-8.8-7.3c-8.1,0-12.2-1.1-12.2-3.4c0-4.1,2.4-6.1,7.3-6.1c1.7,0,3.3,0.3,4.9,1
				c1.6-1.1,4-4.6,7-10.3c3-5.7,4.8-9.8,5.3-12.2c-1.7-0.9-3.5-1.5-5.4-1.7c-6.9,0-14.8,5.9-23.8,17.8c-9,11.9-13.5,21.3-13.5,28.3
				c0,6.4,3.2,9.4,9.7,9.3c5.1-0.2,7.9,0.3,8.4,1.2c-2.6,3.6-11.1,8.1-25.6,13.4L878.8,134c0,2,1.1,2.9,3.2,2.9
				c13.7,0,28.6-3.8,44.9-11.5C945.9,116.4,955.5,105.8,955.5,93.8z"/>
			<path d="M1023.2,215.1c-11.2-35.8-26.2-70.4-44.8-103c-10.1,30.3-15.1,75.6-15.1,136c0,32.5,2.7,49.3,8,50.3
				c3.7-1.8,5.5-11.1,5.5-28.1c0-9.1,2.1-29.3,6.3-60.5c8.2,15.5,17,36.2,26.5,62.3c10.8,29.8,16.2,50.8,16.2,63
				c0,17.1-5.1,34-15.4,50.8c-6,9.9-17.1,24-33.5,42.2l-21.3,22.2c-8.3,9-14.2,17.1-17.8,24.4c0.2,1.3,1,2,2.4,2s4.9-1,10.2-2.9
				c38-13.8,63.3-32.1,75.8-54.9c10.5-19,15.8-50.2,15.8-93.5C1042.1,292.3,1035.8,255.6,1023.2,215.1z"/>
		</g>
	</g>
</g>
</svg>
