<?xml version="1.0" encoding="utf-8"?>
<!-- Generator: Adobe Illustrator 22.1.0, SVG Export Plug-In . SVG Version: 6.00 Build 0)  -->
<svg version="1.1" id="Layer_1" xmlns="http://www.w3.org/2000/svg" xmlns:xlink="http://www.w3.org/1999/xlink" x="0px" y="0px"
	 viewBox="0 0 745 667.5" style="enable-background:new 0 0 745 667.5;" xml:space="preserve">
<title>EH-Asset 55-layername</title>
<g id="Layer_2_1_">
	<g id="ElMetin">
		<g>
			<path d="M104.6,10.5c0-7-4-10.5-12.2-10.5C85,0,77.1,4.8,68.6,14.5c1.8,2.2,3.5,4.5,5,7l1.8-0.7c6.4,0,9.7,3.8,9.7,11.3
				c0,3-1.5,7-4.5,12C72.9,37.6,69,32.8,69,29.6c0-2.7,0.9-5.3,2.7-7.4l2-0.8c-1.5-2.4-3.2-4.7-5-7c-0.7,0.8-1.4,1.6-2.1,2.5
				c-9.2,11.3-13.9,21.2-13.9,29.7c0,4.7,3.2,10.2,9.6,16.4C40.6,78.8,19.9,91.5,0,101.1c6.3,2,10.8,2.9,13.4,2.9
				c13.2,0,32.4-11.8,57.6-35.3c5.1,4.6,10.5,8.8,16.1,12.7l8.5-24.1L88.2,50C99.2,35.7,104.6,22.5,104.6,10.5z"/>
			<path d="M200.3,633.1v2.2c6.7-3.2,15.7-8.2,27.1-14.9c17.9-10.4,28.2-17.2,30.8-20.3c4.4-5.1,8.8-16.6,13.2-34.7
				c-22.7,13.7-41.1,23.7-55.4,30C205.6,615.3,200.3,627.8,200.3,633.1z"/>
			<path d="M313.6,419.9c-11.9,6.2-21.9,9.3-30,9.3c-6,0-10.4-0.8-13.2-2.5c12.7-17.4,19-32,19-43.9c0-2.8-0.2-5.6-0.7-8.3
				c-5.5,7.2-9.6,12.6-12.2,16.4c-4.9,6.5-13.9,13.8-27,22c-13.7,8.6-24.1,12.9-31.2,12.9c-7.3-18.7-13.3-29.1-18-31.3
				c-13,18.9-19.3,33.7-19,44.4c8,8,12,17.2,12,27.6c-0.2,9.9-1.6,19.7-4.2,29.3c-3.9,15.1-14.1,30.6-30.6,46.4
				c-17.5,16.4-33.6,24.6-48.4,24.7c-12.2,0-22-3.7-29.2-11.1S70,538.5,70,526.3c0-10.7,4.5-26.6,13.6-47.6s13.6-34.5,13.6-40.5
				c0-6.4-3.6-9.5-10.8-9.5c-15.8,0-30.9,8.8-45.2,26.5c-13.7,16.7-20.5,33.2-20.5,49.5l1.5,1.5l1.5-0.5c12.4-20.5,29-31.2,50-32
				c-15.6,35.2-23.5,63.3-23.5,84.1c0,36,14.9,54,44.6,54c23.7,0,47.5-15.2,71.2-45.6c20.7-26.5,33.8-53,39.5-79.6l4.6-21.5
				c7-0.7,15-3.2,24.2-7.5c2.4-1.3,9.9-5.3,22.5-12.1c7.6,11.8,17.7,17.7,30.3,17.7c13.2,0,26.6-5,40.3-15l12.5-46.5
				C332.9,408.3,324.2,414.4,313.6,419.9z"/>
			<path d="M395.4,604.5c-3.4,11.1-8.1,18.1-14.2,21l-85.5,42c2.6-10.1,10.3-18.3,23-24.7L395.4,604.5z"/>
			<path d="M470.4,126.5c-3.4,11.1-8.1,18.1-14.2,21l-85.4,42c2.6-10.1,10.3-18.3,23-24.7L470.4,126.5z"/>
			<path d="M532.1,402.3l-12.5,46.4c-5.8,3.6-12.5,5.6-19.3,5.6c-11.6,0-20.7-5.1-27.4-15.3c-13.7,16.9-22.2,25.4-25.6,25.4
				c-3.7,0-9.3-4.3-16.6-12.9c-6.8-8-10.9-14.3-12.2-18.8c-3.7,5-10.7,11-21,18l12.2-45.4c7.5-7,18.7-17.4,33.7-31.3
				c1.6,0,9.7,6.1,24.2,18.3c14.5,12.2,26.9,18.3,37.1,18.3C514.5,410.8,524.1,407.9,532.1,402.3z"/>
			<path d="M553.1,35.9c-4.4-5.4-9.5-8.1-15.2-8.1c-12.4,0-23.5,6.4-33.4,19.1c2.2,1.7,4.4,3.4,6.5,5.3c3.2-2.5,6.6-3.7,10.2-3.7
				c3.9,0,8.5,2.4,13.9,7c5.3,4.6,8,8.9,8,12.9c0,7.8-7.4,11.6-22.1,11.6c-12.8,0-19.2-3.5-19.2-10.7c0-5,2-9.7,6-14.1
				c1-1.1,2.1-2.1,3.2-3c-2.1-1.9-4.2-3.6-6.5-5.3c-0.3,0.4-0.6,0.8-0.9,1.2c-9.3,12.4-14,25.1-14,38.3c0,11.7,6.7,17.6,20.1,17.6
				c12.7,0,24.1-5.4,34.2-16.3C554,76.7,559,64.9,559,52.3C559,46.3,556.9,40.5,553.1,35.9z"/>
			<path d="M606.1,248.3c0,45.9-5.8,83.8-17.3,113.8c-14,35.8-37.9,65.4-71.8,88.9l12.2-45.7c41.5-33.2,62.3-66.6,62.3-100.1
				c0-25.1-7.9-55.4-23.7-91.1c-3.1,15.9-7.7,39.8-13.8,71.5c-2.6,13.7-4.8,20.5-6.5,20.5l-2.2-0.7l-0.5-3.2
				c0-13.2,3.4-37.9,10.2-74.2c7.1-39.2,13.3-61.8,18.5-67.6c8.9,5.5,16.8,19,23.6,40.3C603.1,219.1,606.1,234.9,606.1,248.3z"/>
			<path d="M654,41c-3.4,11.1-8.1,18.1-14.2,21l-85.5,42c2.6-10.1,10.3-18.3,23-24.7L654,41z"/>
			<path d="M368.5,225.3c-20.5,13.2-38.9,23.1-55.2,29.8c-10.6,20.5-15.7,33.8-15.4,39.8c8.6-4.5,15-8,19.2-10.5
				c21.3-11.9,33-19,35.3-21.2C359,257,364.3,244.4,368.5,225.3z"/>
			<path d="M358.1,429.2c-6.7,0-11.4-0.9-14.2-2.7c12.7-17.4,19-32.1,19-43.9c0-2.8-0.2-5.6-0.7-8.3c-9.1,10.4-18,20.7-26.8,30.7
				l-12.2,45.3l6.6-5.2c6.5,12,16.7,18,30.7,18c13.2,0,26.6-5,40.3-15l12.5-46.5c-6.5,6.5-15.1,12.6-25.6,18.3
				C375.8,426.1,365.9,429.2,358.1,429.2z"/>
			<path d="M726,242.9c-11.2-35.8-26.2-70.4-44.8-103c-10.1,30.3-15.1,75.6-15.1,136c0,32.6,2.7,49.3,8,50.3
				c3.7-1.8,5.5-11.2,5.5-28.1c0-9.1,2.1-29.3,6.3-60.6c8.2,15.5,17,36.2,26.5,62.2c10.8,29.8,16.2,50.8,16.2,63
				c0,17.1-5.1,34-15.4,50.8c-6,9.9-17.2,24-33.5,42.2L658.6,478c-8.3,9-14.2,17.1-17.8,24.4c0.2,1.3,1,2,2.4,2s4.9-1,10.2-2.9
				c38-13.8,63.3-32.1,75.8-54.9c10.5-19,15.8-50.2,15.8-93.5C745,320.1,738.7,283.4,726,242.9z"/>
			<path d="M658.3,121.6c0-4.9-2.9-7.3-8.8-7.3c-8.1,0-12.2-1.1-12.2-3.4c0-4.1,2.4-6.1,7.3-6.1c1.7,0,3.3,0.3,4.9,1
				c1.6-1.1,4-4.6,7-10.3c3-5.7,4.8-9.8,5.3-12.2c-1.7-0.9-3.5-1.5-5.4-1.7c-6.9,0-14.8,5.9-23.8,17.8c-9,11.9-13.5,21.3-13.6,28.3
				c0,6.3,3.2,9.4,9.7,9.3c5.1-0.2,7.9,0.3,8.4,1.2c-2.6,3.6-11.1,8.1-25.6,13.4l-29.8,10.3c0,1.9,1.1,2.9,3.2,2.9
				c13.7,0,28.6-3.8,44.9-11.5C648.8,144.2,658.3,133.6,658.3,121.6z"/>
		</g>
	</g>
</g>
</svg>
