<?xml version="1.0" encoding="utf-8"?>
<!-- Generator: Adobe Illustrator 22.1.0, SVG Export Plug-In . SVG Version: 6.00 Build 0)  -->
<svg version="1.1" id="Layer_1" xmlns="http://www.w3.org/2000/svg" xmlns:xlink="http://www.w3.org/1999/xlink" x="0px" y="0px"
	 viewBox="0 0 647 699.5" style="enable-background:new 0 0 647 699.5;" xml:space="preserve">
<title>EH-Asset 63-layername</title>
<g id="Layer_2_1_">
	<g id="ElHajj">
		<g>
			<path d="M233.9,374l-12.7,46.6c-13.7,8.5-27.3,17-41,25.6c-24.9,16.6-37.4,27.6-37.4,33c0,9.9,10,18.6,30,26.1
				c14,5.1,21,12.1,21,21c0,34-14.3,70.6-42.8,109.9c-30.5,42.1-62.1,63.2-94.7,63.2C18.8,699.5,0,675.3,0,627
				c0-27.4,5.7-54.5,16.6-79.6c7.8-18.4,20.9-40.8,39.1-67.1c24.9-36.3,40-58.9,45.2-67.7c9.6-16.3,20.1-43.5,31.6-81.6l3.9,1.7
				c-1.8,21-10.9,49.2-27.3,84.7c-6.5,14-18.9,33.9-37.1,59.8c-19.9,27.8-33.2,48.3-40,61.5c-12.5,23.8-18.8,45.9-18.8,66.4
				c0,17.3,5.6,30.7,16.9,40.3c10.6,9,24.7,13.4,42.2,13.4c16.1,0,38.1-13.3,66-39.9c27.9-26.6,41.8-47.1,41.9-61.4
				c0-3.9-4.4-7.2-13.2-10c-12.2-3.7-20.3-7-24.2-9.8c-8.8-6-13.2-15.1-13.2-27.3c0-41.2,9.4-69.3,28.3-84.2
				C175,414.6,200.4,397.1,233.9,374z"/>
			<path d="M285.4,98.6c-3.4,11.1-8.1,18.1-14.2,21l-85.4,42c2.6-10.1,10.3-18.3,23-24.7L285.4,98.6z"/>
			<path d="M366.7,396.5c-12.7,0-23.4-3.6-32-10.7c-9.3-7.6-13.9-17.7-13.9-30.3c0-6.6,0.6-13.3,1.7-19.8
				c17.4-15.5,42.6-26.5,75.4-33.2c7.5-10.6,12.7-23.7,15.6-39.3c-10.1,4.6-21.1,6.9-32.2,6.8c-7.3,0-17.9-2.1-31.9-6.2
				c-13.9-4.1-24.5-6.2-31.6-6.2c-27.4,0-47.8,12.4-61.2,37.1c-6.7,12.4-13.9,36.2-21.5,71.3c3.8-2.2,7.4-4.9,10.4-8.1
				c6.8-40.2,24.8-60.4,54.1-60.4c5.2,0,14.7,1.6,28.3,4.9c-13.5,6.2-27.9,14.9-43.2,26.2c-7.2,5.2-20.3,15.7-39.5,31.6
				c0.1-0.8,0.3-1.5,0.4-2.3c-3,3.2-6.6,5.9-10.4,8.1c-0.2,0.7-0.3,1.4-0.5,2.2l-9,8.5l-12.5,45.9c7.8-5.8,13.7-10.3,17.6-13.4
				l-2,30.3v30.5l1.2,1.2l1.2-0.7l2.2-4.1c-0.7-17.6,1.5-39.2,6.6-65c24.7-21.5,47.8-40.5,69.3-56.9c-2.9,13-4.4,23.7-4.4,32
				c0,17.4,5.1,32.1,15.3,44.1c10.8,12.7,24.8,19,42,19c19.9,0,39.8-6.2,59.8-18.5l12.5-46.5C415.8,389.1,393.2,396.5,366.7,396.5z"
				/>
			<path d="M455.1,8.1c-4.4-5.4-9.5-8.1-15.2-8.1c-12.7,0-24.2,6.8-34.3,20.3c-1.3,1.8-2.5,3.5-3.7,5.3c2.4,0.8,4.9,1.7,7.3,2.6
				c0.2-0.2,0.4-0.5,0.6-0.7c4-4.5,8.5-6.7,13.4-6.7c3.9,0,8.5,2.3,13.9,6.9s8,8.9,8,12.9c0,7.8-7.4,11.7-22.1,11.7
				c-12.8,0-19.2-3.6-19.2-10.7c0-4.7,1.8-9.2,5.4-13.4c-2.4-0.9-4.8-1.8-7.3-2.6c-6.9,10.7-10.3,21.7-10.3,33
				c0,11.7,6.7,17.6,20.1,17.6c12.7,0,24.1-5.4,34.2-16.4c10-10.9,15.1-22.7,15.1-35.4C460.9,18.4,458.8,12.7,455.1,8.1z"/>
			<path d="M508.1,220.5c0,45.9-5.8,83.8-17.3,113.8c-14,35.8-37.9,65.4-71.8,88.9l12.2-45.7c41.5-33.2,62.3-66.6,62.3-100.1
				c0-25.1-7.9-55.4-23.7-91.1c-3.1,15.9-7.6,39.8-13.8,71.5c-2.6,13.7-4.8,20.5-6.5,20.5l-2.2-0.7l-0.5-3.2
				c0-13.2,3.4-37.9,10.2-74.2c7.1-39.2,13.3-61.8,18.5-67.6c8.9,5.5,16.8,19,23.6,40.3C505,191.3,508,207.1,508.1,220.5z"/>
			<path d="M555.9,13.2c-3.4,11.1-8.1,18.1-14.2,21l-85.5,42c2.6-10.1,10.3-18.3,23-24.7L555.9,13.2z"/>
			<path d="M114.5,126.9l-7.3-5.4c9.7-10.3,14.6-17.5,14.6-21.6c0-4.1-1.5-8-4-11.1c-2.7-3.5-5.9-5.3-9.6-5.3c-4.6,0-9.3,1.3-14,3.8
				c1,2.3,1.9,4.6,2.6,7c0.1,0,0.2,0,0.3,0c5.1,1.9,7.7,4.9,7.7,8.8c0,3.7-1.8,8.3-5.3,13.6c-7.1-5.5-10.6-10-10.6-13.4
				c0-5.9,2.6-8.9,7.9-9c-0.7-2.4-1.6-4.7-2.6-7c-3.8,2-7.6,4.8-11.4,8.4c-8.6,8.1-12.9,16.2-13,24.4l1,5.9c1.9,3,4,5.7,6.4,8.3
				c-19.4,11.4-38.5,19.4-57.4,24c5.5,3.3,10.3,4.9,14.4,4.9c10.4,0,27.7-8,51.9-23.9c10.4,4.6,18.8,6.9,25,7.1
				c2.6-8.3,3.8-13.6,3.7-15.7L114.5,126.9z"/>
			<path d="M74,183.4c-6.3,0-9.3-3.8-9-11.4l0.3-4.8l-6.3,1.4c-12.1,19.2-21.8,28.9-29.3,28.9c-5.2,0-7.8-3-7.8-9l1.7-10.9l-5.1,0.5
				c-8,10.9-12,20.7-12,29.4l1.7,8.6c3.4,4.4,7.5,6.6,12.2,6.6c12.7,0,22.8-6.6,30.4-19.7c3.9,4.2,7.1,6.2,9.7,6.2
				c21.6,0,36.9-17.5,46-52.5l-6.1,1.5C91.7,175,82.9,183.4,74,183.4z"/>
			<path d="M628,215.1c-11.2-35.8-26.2-70.4-44.8-103c-10.1,30.3-15.1,75.6-15.1,136c0,32.5,2.7,49.3,8,50.3
				c3.7-1.8,5.5-11.1,5.5-28.1c0-9.1,2.1-29.3,6.3-60.5c8.2,15.5,17,36.2,26.5,62.3c10.8,29.8,16.2,50.8,16.2,63
				c0,17.1-5.1,34-15.4,50.8c-6,9.9-17.1,24-33.4,42.2l-21.3,22.2c-8.3,9-14.2,17.1-17.8,24.4c0.1,1.2,1.1,2.1,2.3,2
				c0.1,0,0.1,0,0.2,0c1.5,0,4.9-1,10.2-2.9c38-13.8,63.3-32.1,75.8-54.9c10.6-19,15.9-50.2,15.9-93.5
				C647,292.3,640.7,255.6,628,215.1z"/>
			<path d="M560.3,93.8c0-4.9-2.9-7.3-8.8-7.3c-8.1,0-12.2-1.1-12.2-3.4c0-4.1,2.4-6.1,7.3-6.1c1.7,0,3.3,0.3,4.9,1
				c1.6-1.1,4-4.6,7-10.3c3-5.7,4.8-9.8,5.3-12.2c-1.7-0.9-3.5-1.5-5.4-1.7c-6.9,0-14.8,5.9-23.8,17.8S521,92.9,521,99.8
				c0,6.4,3.2,9.4,9.7,9.3c5.1-0.2,7.9,0.2,8.4,1.2c-2.6,3.6-11.2,8.1-25.6,13.4L483.6,134c0,2,1.1,2.9,3.2,2.9
				c13.7,0,28.6-3.8,44.9-11.5C550.8,116.4,560.3,105.8,560.3,93.8z"/>
		</g>
	</g>
</g>
</svg>
