<?xml version="1.0" encoding="utf-8"?>
<!-- Generator: Adobe Illustrator 22.1.0, SVG Export Plug-In . SVG Version: 6.00 Build 0)  -->
<svg version="1.1" id="Layer_1" xmlns="http://www.w3.org/2000/svg" xmlns:xlink="http://www.w3.org/1999/xlink" x="0px" y="0px"
	 viewBox="0 0 953.8 664.1" style="enable-background:new 0 0 953.8 664.1;" xml:space="preserve">
<title>EH-Asset 21-layername</title>
<g id="Layer_2_1_">
	<g id="ElKabid">
		<g>
			<path d="M104.6,68.1c0-7-4-10.5-12.2-10.5c-4.9,0-10,2.1-15.3,6.2c1.6,5.1,2.7,10.3,3,15.6c3.2,1.6,4.8,5,4.8,10.3
				c0,2.9-1.5,6.9-4.5,12C72.9,95.3,69,90.5,69,87.2c0-2.7,0.9-5.3,2.7-7.3l3.7-1.5c1.9,0,3.5,0.3,4.8,1c-0.3-5.3-1.4-10.5-3-15.6
				c-3.5,2.7-7.1,6.3-10.7,10.8c-9.2,11.3-13.8,21.2-13.8,29.7c0,4.7,3.2,10.2,9.6,16.4C40.6,136.4,19.9,149.1,0,158.7
				c6.3,2,10.8,2.9,13.4,2.9c13.2,0,32.4-11.7,57.6-35.3c5.1,4.6,10.5,8.8,16.1,12.7l8.5-24.2l-7.5-7.3
				C99.2,93.3,104.6,80.1,104.6,68.1z"/>
			<path d="M439.4,601.1c-3.4,11.1-8.1,18.1-14.2,21l-85.5,42c2.6-10.1,10.3-18.3,23-24.7L439.4,601.1z"/>
			<path d="M610.5,374.3L598,421.1c-13,8.8-26.2,13.3-39.6,13.3c-18.4,0-31-10.3-37.8-31c-3.8-11.6-6-29.5-6.6-53.8l-1.8-73.7
				c-1.4-55.3-2.1-83.5-2.1-84.5c0-2.1,2-9,5.9-20.8c3.9-11.7,6.6-18.6,8-20.5h1.5c0.5,28.2,1.5,70.2,2.9,126.2
				c0.2,15.6,1.9,38.7,5.1,69.3c6.5,31.4,19,47.1,37.4,47.1C584.6,392.8,597.8,386.6,610.5,374.3z"/>
			<path d="M668.6,13.2c-3.4,11.1-8.1,18.1-14.2,21l-85.4,42c2.6-10.1,10.3-18.3,23-24.7L668.6,13.2z"/>
			<path d="M761.8,8.1c-4.4-5.4-9.5-8.1-15.2-8.1c-12.7,0-24.2,6.8-34.3,20.3c-0.7,0.9-1.4,1.9-2.1,2.9c2.4,1.2,4.7,2.3,6.8,3.7
				c3.9-4.1,8.1-6.1,12.8-6.1c3.9,0,8.5,2.3,13.8,6.9c5.3,4.6,8,8.9,8,12.9c0,7.8-7.4,11.7-22.1,11.7c-12.8,0-19.2-3.6-19.2-10.7
				c0-5,2-9.7,6-14.1c0.2-0.2,0.4-0.4,0.6-0.6c-2.1-1.4-4.5-2.6-6.8-3.7c-8,11.5-11.9,23.3-11.9,35.5c0,11.7,6.7,17.6,20.1,17.6
				c12.7,0,24.1-5.4,34.2-16.4c10-10.9,15.1-22.7,15.1-35.4C767.7,18.4,765.6,12.7,761.8,8.1z"/>
			<path d="M814.8,220.5c0,45.9-5.8,83.8-17.3,113.8c-14,35.8-37.9,65.4-71.8,88.9l12.2-45.7c41.5-33.2,62.3-66.6,62.3-100.1
				c0-25.1-7.9-55.4-23.7-91.1c-3.1,15.9-7.6,39.8-13.8,71.5c-2.6,13.7-4.8,20.5-6.5,20.5l-2.2-0.7l-0.5-3.2
				c0-13.2,3.4-37.9,10.2-74.2c7.1-39.2,13.3-61.8,18.5-67.6c8.9,5.5,16.8,19,23.6,40.3C811.8,191.3,814.8,207.1,814.8,220.5z"/>
			<path d="M862.7,13.2c-3.4,11.1-8.1,18.1-14.2,21l-85.5,42c2.6-10.1,10.3-18.3,22.9-24.7L862.7,13.2z"/>
			<path d="M379.4,377.1c-8.7,6.9-17.9,13.2-27.4,18.9c-15.5,9.3-27.2,14.7-35.1,16.3c31.3-44.6,46.9-79.8,46.9-105.7
				c0-3.9-1.1-5.9-3.4-5.9c-12,0-31.1,8.3-57.1,24.9c-40.2,25.6-66.7,63.7-79.5,114.2c3.4,0.2,6.9,0.5,10.3,0.4
				c9.3-21.9,17.3-37,24.2-45.3c8.8-10.9,23.4-21.7,43.7-32.5c16.6-8.8,26.9-13.2,31-13.2l2.2,2.2c-6.5,17.8-20.7,36.2-42.5,55.2
				c-21,18.6-40.9,30.7-59.8,36.4c0.4-1,0.8-1.9,1.2-2.8c-3.4,0.1-6.9-0.2-10.3-0.4c-0.5,1.8-0.9,3.6-1.3,5.4
				c-7.6,1.3-15.3,2-23.1,2.2c-11.2,0-18.8-2.7-22.8-8c-3.4-4.2-5.4-12.1-6.1-23.8l-2-1.2l-1.7,0.5c-11.4,25.3-18.2,42.2-20.5,50.8
				c6.5,9.6,9.9,20.9,10,32.5c0,20.2-9.8,41.6-29.5,64.1c-20,23-39.9,34.5-59.8,34.5c-13.5,0-24.3-4.4-32.5-13.3
				c-8.1-8.9-12.2-20.2-12.2-33.8c0-31.6,11.7-59.6,35.2-84.1c14.2-14.8,39.8-33.7,77-56.6c37.2-22.9,62.5-41.3,76-55.4
				c10.7-11.2,16.5-18.9,17.3-23l-0.7-1l-2.7,0.5c-17.6,19.2-44.8,39.7-81.7,61.5c-41.3,24.6-68.7,42.8-82.2,54.7
				c-27.1,24.1-45.2,53.4-54.1,87.9c-3.9,15-5.8,28.6-5.8,40.8c0,18.4,3.7,33.4,11.2,44.9c8.8,13.7,21.9,20.5,39.3,20.5
				c20.8,0,41.7-10.1,62.5-30.3c16.8-16.3,30.6-35.7,41.5-58.3c11.1-27.2,19-47.8,23.9-61.8c2.1,1.6,5.8,2.5,11.1,2.5
				c6.3-0.2,12.5-1,18.7-2.5c-4.7,21.5-8.2,37.8-10.5,48.7l1.7,2.5l3.4-2.5l13.9-50.9c14.7,0,39.5-12.3,74.5-36.9
				c9,0.2,22.6-3.5,41-11c17.4-7.1,30.4-13.9,38.8-20.2l0.5-1.9c-1.6,1.5-3.2,3-4.9,4.5L379.4,377.1z"/>
			<path d="M270.2,259.5c0-2.3-3.3-5.5-9.8-9.5c-3.1-1.8-7.3-4.1-12.7-6.8c-9.4,14-16.8,25.5-22,34.4l21.5,15.1
				C255.7,285.1,263.3,274,270.2,259.5z"/>
			<path d="M385.1,470.5c-4.2-2-8.5-4-12.9-6.1c-11.4,16.8-18.7,28.3-22,34.7l21.8,14.9c10.6-13.5,18.1-24.6,22.7-33.2
				C393.2,476.6,390,473.2,385.1,470.5z"/>
			<path d="M382.2,288.8c-4.9,12-8.1,23-9.5,32.7l0.5,1.7l2.7-0.2c2.5-5.1,6-9.7,10.3-13.4c7.3,8.5,11,21.2,11,38.1v5.3
				c-5.5,11.2-11.4,19.1-17.6,23.7l-0.1,0.4c1.7-1.4,3.3-2.7,4.7-4L372,418.1c16.6-15.9,28.2-37.6,34.8-64.9
				c5.6-23.3,8.4-37.3,8.4-42c0-18.7-5-35.2-15.1-49.3C394,265.4,388.1,274.3,382.2,288.8z"/>
			<path d="M379.4,377.1l-12.4,45.5c1.7-1.4,3.3-2.9,4.9-4.5l12.2-45.1C382.7,374.4,381.1,375.7,379.4,377.1z"/>
			<path d="M698.2,201.2c1.9-8.3,3.3-14.6,4.2-18.8c-23.8,14.7-42.3,24.7-55.7,30c-10.1,20-15.1,32.1-15.1,36.4l0.2,2.9
				C673,231.2,695.1,214.4,698.2,201.2z"/>
			<path d="M683.9,393.5c-20.2,0-33.1-4.2-38.8-12.5c22.4-25.7,33.6-46.5,33.5-62.3c0-20.7-4.7-31-14.1-31
				c-4.5,0-11.4,3.6-20.4,10.8s-17.5,17.6-25.3,31.3c-8.3,14.7-12.4,27.2-12.4,37.6c0,3.1,0.4,6.3,1.2,9.3l-0.6,2.2c0,0,0,0,0,0
				c3-2,4-5,6-7c6.3-3.4,11.3-7.5,16.1-11.7c-4.4-5.5-6.6-10-6.6-13.5c0-2.9,3.7-7.6,11-14.1c7.3-6.5,12.6-9.7,15.8-9.7
				c8.5,0,12.8,3.2,12.8,9.5c0,9.2-10.4,19.2-31.2,29.9c-0.6-0.7-1.2-1.4-1.7-2.1c-4.8,4.2-9.8,8.3-16.1,11.7c-2,2-3,5-6,7
				c0,0,0,0,0,0l-11.9,44.7c9.7-6.9,19-14.4,27.8-22.4c9.9,11.6,17.7,19.6,23.4,23.8c9,6.7,20,10.4,31.3,10.3
				c18.4,0.1,36.4-5.3,51.8-15.4l12.7-47.2C724.1,386.7,704.7,393.5,683.9,393.5z"/>
			<path d="M867.1,93.8c0-4.9-2.9-7.3-8.8-7.3c-8.1,0-12.2-1.1-12.2-3.4c0-4.1,2.4-6.1,7.3-6.1c1.7,0,3.3,0.3,4.9,1
				c1.6-1.1,4-4.6,7-10.3c3-5.7,4.8-9.8,5.3-12.2c-1.7-0.9-3.5-1.5-5.4-1.7c-6.9,0-14.8,5.9-23.8,17.8s-13.5,21.3-13.6,28.3
				c0,6.4,3.2,9.4,9.7,9.3c5.1-0.2,7.9,0.3,8.4,1.2c-2.6,3.6-11.1,8.1-25.6,13.4L790.4,134c0,2,1.1,2.9,3.2,2.9
				c13.7,0,28.6-3.8,44.9-11.5C857.6,116.4,867.1,105.8,867.1,93.8z"/>
			<path d="M934.8,215.1c-11.2-35.8-26.2-70.4-44.8-103c-10.1,30.3-15.1,75.6-15.1,136c0,32.5,2.7,49.3,8,50.3
				c3.7-1.8,5.5-11.1,5.5-28.1c0-9.1,2.1-29.3,6.3-60.5c8.2,15.4,17,36.2,26.5,62.2c10.8,29.8,16.2,50.8,16.2,63
				c0,17.1-5.1,34-15.4,50.8c-6,9.9-17.1,24-33.5,42.2l-21.2,22.2c-8.3,9-14.2,17.1-17.8,24.4c0.2,1.3,1,2,2.4,2s4.9-1,10.2-2.9
				c38-13.8,63.3-32.1,75.8-54.9c10.6-19,15.8-50.2,15.8-93.5C953.8,292.3,947.4,255.6,934.8,215.1z"/>
		</g>
	</g>
</g>
</svg>
