<?xml version="1.0" encoding="utf-8"?>
<!-- Generator: Adobe Illustrator 22.1.0, SVG Export Plug-In . SVG Version: 6.00 Build 0)  -->
<svg version="1.1" id="Layer_1" xmlns="http://www.w3.org/2000/svg" xmlns:xlink="http://www.w3.org/1999/xlink" x="0px" y="0px"
	 viewBox="0 0 975.6 664.1" style="enable-background:new 0 0 975.6 664.1;" xml:space="preserve">
<title>EH-Asset 69-layername</title>
<g id="Layer_2_1_">
	<g id="ElKadir">
		<g>
			<path d="M146.2,129.1c0-7-4.1-10.5-12.2-10.5c-7.9,0-16.2,5.4-25.2,16c1.2,2.4,2.5,4.7,3.8,7c0.2-0.3,0.4-0.5,0.6-0.8l3.7-1.5
				c6.4,0,9.7,3.8,9.7,11.3c0,2.9-1.5,6.9-4.5,12c-7.8-6.4-11.6-11.2-11.6-14.5c0-2.4,0.7-4.7,2.1-6.6c-1.3-2.3-2.6-4.6-3.8-7
				c-0.3,0.3-0.6,0.7-0.8,1c-9.2,11.3-13.8,21.2-13.8,29.7c0,4.7,3.2,10.2,9.6,16.4c-21.6,15.8-42.4,28.5-62.3,38.1
				c6.4,2,10.8,2.9,13.4,2.9c13.2,0,32.4-11.8,57.7-35.3c5.1,4.6,10.5,8.8,16.1,12.7l8.5-24.2l-7.5-7.3
				C140.8,154.4,146.2,141.2,146.2,129.1z"/>
			<path d="M268.5,297.5c0,17.5-2.7,26.7-8,27.7l-6.6-8.1c-4.6,0.2-8.3,2.9-11.2,8.1c-8,13.9-16.5,31.9-25.4,54.3
				c-7.3,18.7-14.7,37.4-22,56c-6.2,14.7-15.7,29.2-28.6,43.5c-13.7,15.3-27.3,26-40.8,32c-15.3,7-36.4,10.5-63.2,10.5
				c-40.5,0-61.4-2.1-62.7-6.3l2.4-1.8c34.2,0,65.9-7.3,95.2-22c30.4-15.3,54.8-36.8,73.2-64.6c9.9-15.1,20.6-35.2,32-60.2
				l22.5-50.2c12.7-25.2,22.5-37.8,29.5-37.8c3.9,0,7.2,2.3,10,6.8C267.3,289,268.5,293.2,268.5,297.5z"/>
			<path d="M325.7,601.1c-3.4,11.1-8.1,18.1-14.2,21l-85.4,42c2.6-10.1,10.3-18.3,23-24.7L325.7,601.1z"/>
			<path d="M469,304.2c0,33-11.4,70.4-34.2,112.1c-22.9,42.5-52,73-87.2,91.5c-9.5,5-28.5,9.3-57.1,12.7c-23.9,2.9-44.3,4.4-61,4.4
				c-9.3,0-15.1-0.4-17.6-1.2l-1-1.7c3.6-0.7,9.6-1.4,18.1-2.2c22.5-2.1,45.9-8.9,70.3-20.3c46.9-22,86.9-55.6,120.1-100.7
				c20.7-28,31-47.8,31-59.4c0-8-3.5-15.7-10.5-23c-7-7.3-14.5-11-22.5-11c-9.4,0-25,4.9-46.6,14.7c-23.8,10.8-35.7,20.2-35.6,28.4
				c0,0.8,2.8,4,8.4,9.5c6.4,6.3,11.6,13.8,15.3,22c5.6,12.5,8.4,27.6,8.4,45.2c0,4.9-1.2,11.3-3.7,19.3c-3,9.6-6.3,14.4-9.9,14.4
				l-2.2-2l1.7-14.4c0-6.5-6.8-18.3-20.3-35.5c-13.5-17.2-20.3-30.7-20.3-40.6c0-3.6,2.6-12.4,7.8-26.4c4.9-13.3,8.8-22.4,11.7-27.3
				c5.4-9.1,21.2-19.9,47.4-32.5c25.7-12.2,44.7-18.3,56.9-18.3c9.4,0,17.4,4.9,23.9,14.6C465.9,284.7,469,294.3,469,304.2z"/>
			<path d="M632.3,374.3l-12.5,46.8c-13,8.8-26.2,13.3-39.5,13.3c-18.4,0-31-10.3-37.8-31c-3.7-11.6-5.9-29.5-6.6-53.8l-1.8-73.7
				c-1.4-55.3-2.1-83.5-2.1-84.5c0-2.1,2-9,5.9-20.8c3.9-11.7,6.6-18.6,8-20.5h1.4c0.5,28.2,1.5,70.2,2.9,126.2
				c0.2,15.6,1.9,38.7,5.1,69.3c6.5,31.4,19,47.1,37.3,47.1C606.4,392.8,619.6,386.6,632.3,374.3z"/>
			<path d="M690.4,13.2c-3.4,11.1-8.1,18.1-14.2,21l-85.5,42c2.6-10.1,10.3-18.3,23-24.7L690.4,13.2z"/>
			<path d="M783.7,8.1c-4.4-5.4-9.5-8.1-15.2-8.1c-12.7,0-24.2,6.8-34.3,20.3c-0.8,1.1-1.6,2.3-2.4,3.4c2.3,1.2,4.4,2.5,6.5,4
				c0-0.1,0.1-0.1,0.1-0.2c4-4.5,8.5-6.7,13.4-6.7c3.9,0,8.5,2.3,13.9,6.9c5.3,4.6,8,8.9,8,12.9c0,7.8-7.4,11.7-22.1,11.7
				c-12.8,0-19.2-3.6-19.2-10.7c0-4.9,2-9.6,5.9-14c-2.1-1.4-4.2-2.8-6.5-4c-7.7,11.3-11.6,23-11.6,34.9c0,11.7,6.7,17.6,20.1,17.6
				c12.7,0,24.1-5.4,34.2-16.4s15.1-22.7,15.1-35.4C789.5,18.4,787.4,12.7,783.7,8.1z"/>
			<path d="M836.7,220.5c0,45.9-5.8,83.8-17.3,113.8c-14,35.8-37.9,65.4-71.8,88.9l12.2-45.7c41.5-33.2,62.2-66.6,62.2-100.1
				c0-25.1-7.9-55.4-23.7-91.1c-3.1,15.9-7.7,39.8-13.8,71.5c-2.6,13.7-4.8,20.5-6.5,20.5l-2.2-0.7l-0.5-3.2
				c0-13.2,3.4-37.9,10.2-74.2c7.1-39.2,13.3-61.8,18.5-67.6c8.9,5.5,16.8,19,23.6,40.3C833.7,191.3,836.7,207.1,836.7,220.5z"/>
			<path d="M884.5,13.2c-3.4,11.1-8.1,18.1-14.2,21l-85.5,42c2.6-10.1,10.3-18.3,23-24.7L884.5,13.2z"/>
			<path d="M705.7,393.6c-20.2,0-33.1-4.2-38.8-12.5c22.4-25.7,33.5-46.5,33.5-62.3c0-20.7-4.7-31-14.1-31
				c-4.5,0-11.4,3.6-20.4,10.8s-17.5,17.6-25.3,31.3c-2.5,4.5-4.6,8.7-6.4,12.8c4.2-0.4,8.3-0.7,12.4-0.9c1.8-2.5,4.7-5.5,8.8-9.1
				c7.4-6.5,12.6-9.7,15.7-9.7c8.5,0,12.8,3.2,12.8,9.5c0,9.2-10.4,19.2-31.2,29.9c-5.6-6.5-8.3-11.7-8.3-15.6c0-1.3,0.8-3,2.3-5
				c-4.1,0.2-8.2,0.5-12.4,0.9c-4,9.3-6,17.6-6,24.9c0,3.1,0.4,6.3,1.2,9.3l-12.5,46.9c9.7-6.9,19-14.4,27.8-22.3
				c9.9,11.6,17.7,19.6,23.4,23.8c9,6.7,20,10.4,31.3,10.3c18.4,0.1,36.4-5.3,51.8-15.4l12.7-47.2
				C745.9,386.7,726.5,393.6,705.7,393.6z"/>
			<path d="M720,201.2c2-8.3,3.3-14.6,4.2-18.8c-23.8,14.7-42.3,24.7-55.7,30c-10.1,20-15.1,32.1-15.1,36.4l0.2,2.9
				C694.8,231.2,716.9,214.4,720,201.2z"/>
			<path d="M956.6,215.1c-11.2-35.8-26.2-70.4-44.8-103c-10.1,30.3-15.1,75.6-15.1,136c0,32.5,2.7,49.3,8,50.3
				c3.7-1.8,5.5-11.1,5.5-28.1c0-9.1,2.1-29.3,6.3-60.5c8.2,15.4,17,36.2,26.5,62.2c10.8,29.8,16.2,50.8,16.2,63
				c0,17.1-5.1,34-15.4,50.8c-6,9.9-17.2,24-33.5,42.2l-21.2,22.2c-8.3,9-14.2,17.1-17.8,24.4c0.2,1.3,1,2,2.4,2s4.9-1,10.2-2.9
				c38-13.8,63.3-32.1,75.8-54.9c10.6-19,15.8-50.2,15.8-93.5C975.6,292.3,969.3,255.6,956.6,215.1z"/>
			<path d="M888.9,93.8c0-4.9-2.9-7.3-8.8-7.3c-8.1,0-12.2-1.1-12.2-3.4c0-4.1,2.4-6.1,7.3-6.1c1.7,0,3.3,0.3,4.9,1
				c1.6-1.1,4-4.6,7-10.3c3-5.7,4.8-9.8,5.3-12.2c-1.7-0.9-3.5-1.5-5.4-1.7c-6.9,0-14.8,5.9-23.8,17.8s-13.5,21.3-13.5,28.3
				c0,6.4,3.2,9.4,9.7,9.3c5.1-0.2,7.9,0.3,8.4,1.2c-2.6,3.6-11.1,8.1-25.6,13.4L812.3,134c0,2,1.1,2.9,3.2,2.9
				c13.7,0,28.6-3.8,44.9-11.5C879.4,116.4,888.9,105.8,888.9,93.8z"/>
		</g>
	</g>
</g>
</svg>
