<?xml version="1.0" encoding="utf-8"?>
<!-- Generator: Adobe Illustrator 22.1.0, SVG Export Plug-In . SVG Version: 6.00 Build 0)  -->
<svg version="1.1" id="Layer_1" xmlns="http://www.w3.org/2000/svg" xmlns:xlink="http://www.w3.org/1999/xlink" x="0px" y="0px"
	 viewBox="0 0 839.8 676.3" style="enable-background:new 0 0 839.8 676.3;" xml:space="preserve">
<title>EH-Asset 74-layername</title>
<g id="Layer_2_1_">
	<g id="ElAahir">
		<g>
			<path d="M219.5,141.3c0-7-4-10.5-12.1-10.5c-5.9,0-12.2,3.1-18.7,9.1c1.5,3.8,2.6,7.7,3.2,11.7c5.5,0.5,8.2,4.3,8.2,11.2
				c0,2.9-1.5,6.9-4.5,12c-7.8-6.4-11.6-11.2-11.6-14.4c0-2.7,0.9-5.3,2.7-7.3l3.7-1.5c0.5,0,1,0,1.4,0.1c-0.6-4-1.7-7.9-3.2-11.7
				c-2.4,2.2-4.8,4.8-7.3,7.9c-9.2,11.3-13.8,21.2-13.8,29.7c0,4.7,3.2,10.2,9.6,16.4c-21.6,15.8-42.4,28.5-62.3,38.1
				c6.3,2,10.8,2.9,13.4,2.9c13.2,0,32.4-11.7,57.6-35.3c5.1,4.6,10.5,8.8,16.1,12.7l8.6-24.1l-7.5-7.3
				C214,166.5,219.5,153.3,219.5,141.3z"/>
			<path d="M312.7,386.2L300,433.4c-20.2,11.7-34.3,20.3-42.2,25.6c-19,12.7-30.7,23.2-34.9,31.5c-13,28.2-26,56.2-39.1,84.2
				c-18.9,35.8-38.6,57.1-59.1,64c-15.6,5.3-32.8,8-51.5,8c-37.6,0-61.8-3.2-72.5-9.5L0,636l2-2.2c10.5,2,21.3,3,32,2.9
				c29.9,0,58.3-9.6,85-28.8c23.6-17.2,43.5-40,59.8-68.4c1.1-2.1,8.9-17.4,23.2-45.9c9.3-18.5,18.3-33.1,27-43.6
				s22.5-21.6,41.4-33.3C291.3,403.7,305.4,393.6,312.7,386.2z"/>
			<path d="M369.6,613.3c-3.4,11.1-8.1,18.1-14.2,21l-85.4,42c2.6-10.1,10.3-18.3,23-24.7L369.6,613.3z"/>
			<path d="M686.5,8.1C682.1,2.7,677,0,671.3,0c-11.9,0-22.6,5.9-32.1,17.5c2.9,1.5,5.6,3.2,8,5.1c2.4-1.3,4.8-1.9,7.5-1.9
				c3.9,0,8.5,2.3,13.9,6.9s8,8.9,8,12.9c0,7.8-7.4,11.7-22.1,11.7c-12.8,0-19.2-3.6-19.2-10.7c0-5,2-9.7,6-14.1
				c1.9-2.1,3.9-3.7,5.9-4.8c-2.4-1.9-5.1-3.6-8-5.1c-0.7,0.9-1.4,1.8-2.1,2.7c-9.3,12.4-14,25.1-14,38.3c0,11.7,6.7,17.6,20.1,17.6
				c12.7,0,24.1-5.4,34.2-16.4c10-10.9,15.1-22.7,15.1-35.4C692.3,18.4,690.3,12.7,686.5,8.1z"/>
			<path d="M748.8,25.4c-3.4,11.1-8.1,18.1-14.2,21l-85.5,42c2.6-10.1,10.3-18.3,23-24.7L748.8,25.4z"/>
			<path d="M490.5,247.1c-16,9.6-33.9,14.4-53.7,14.4c-4.8-0.1-9.6-0.6-14.4-1.3c-4.8-0.8-9.6-1.2-14.4-1.3
				c-25.2,0-43.7,5.8-55.4,17.3c-10.7,10.4-18.4,28.4-22.8,54c-3.2,18.2-4.7,28.9-4.7,32l0.2,10.2c3.5-1.5,6.9-3.4,9.8-5.8l0-7.7
				c0.1-10,2.2-19.9,6.1-29.1c5.7-14.2,15-23.3,27.8-27.3c7.3-2.4,20.8-3.8,40.5-4.1c-9.3,7.2-21.8,18.7-37.4,34.7
				c-16.3,16.6-28.6,28.3-37.1,35.1l0-1.6c-3,2.4-6.3,4.2-9.8,5.8l0.1,3.7l-15.4,12.9l-12.5,45.9c10.6-7.2,20.6-15.1,30-23.7
				c2.3,20.8,6.2,41.5,11.5,61.8l1.7,0.7c0.9-0.7,1.4-1.8,1.5-3v-1.5c-3.7-34.5-5.5-54.7-5.3-60.5v-5.9c22-22,44.1-44,66.2-65.9
				c23.3-21,49.8-37.9,78.6-50.3c1.8-2.8,3.8-8.6,6-17.6c2.2-9,3.3-15.4,3.3-19.3L490.5,247.1z"/>
			<path d="M391.1,158.4c0-2.9-3.2-6.3-9.5-10c-4.2-2.4-8.6-4.6-13.2-6.4c-10.1,14.5-17.4,25.9-22,34.2c9.6,6.8,16.8,11.9,21.7,15.1
				C376.4,183.1,384.1,172.2,391.1,158.4z"/>
			<path d="M562,148.4c2.5,0.1,5.1,0.3,7.6,0.7s5,0.6,7.6,0.7c12.7,0,26-6.6,39.9-19.9s21.7-26.6,23.3-39.9l-3.4,0.2
				c-9.8,12.5-16.8,20.8-21.2,24.7c-11.2,9.8-23.4,14.6-36.6,14.4c-6.3,0-10.5-0.1-12.6-0.2c-2-0.2-3.6-0.2-4.8-0.2
				c-5.9,0-13,4.8-21.5,14.3c-6.3,6.9-11.7,14.5-16.1,22.8l4.6,2.2C542,155,553.1,148.4,562,148.4z"/>
			<path d="M656.1,148.9c-3.1,0-6.3,5-9.6,14.9c-18.6,57-27.9,118.2-27.9,183.7c0,2.3,0.8,3.4,2.4,3.4c2.4,0,4.5-5.4,6.1-16.1
				c0.8-7.2,1.6-14.3,2.4-21.3c2.6-18.7,8.1-46.3,16.4-82.6c15.8,17.3,23.7,41.8,23.7,73.5c-0.1,14-1.5,27.9-4.4,41.5
				c-4.6,22.7-15,47.8-31.3,75.3c-19.5,33.4-38,50.1-55.4,50.1c-12.2,0-23.3-8.9-33.4-26.6c32.9-56.7,49.3-116.9,49.3-180.5
				c0-14.2-3.8-47.3-11.5-99.4l-3.9-2.9l-2.2,2c-0.7,7.2-4.9,19.3-12.7,36.4l-17.5,37.1c-24.3,55.1-36.5,104-36.5,146.8
				c0,18.9,0.6,33.9,1.8,44.8c7.4-5.8,14.2-12,19.3-19.6c-3.6-11.8-5.5-24-5.6-36.4c0-30.1,13.7-73.7,41-130.7
				c7.3,18.2,11,35,11,50.3c0,42-15,82.4-44.9,121.2c-0.5-1.5-1-2.9-1.4-4.4c-5.1,7.6-11.9,13.8-19.3,19.6c0.3,3.2,0.7,6,1.2,8.5
				c-44.1,46.5-91.5,78.7-142.1,96.4l-4.2,4.4v1.2l2.2,1c9.4,0,24.6-2.8,45.4-8.3c47.3-12.5,84-32.5,110.1-60.1
				c8.5,16.7,16.3,28.6,23.5,35.7c10.8,10.7,23.6,16,38.6,16c16.5,0,35.2-22.2,56.2-66.7c16.5-34.5,27.7-65.3,33.7-92.3
				c8.3-37.1,12.5-63.6,12.5-79.4C689.2,243.6,678.2,198.1,656.1,148.9z"/>
			<path d="M820.9,227.3c-11.2-35.8-26.2-70.4-44.8-103c-10.1,30.3-15.1,75.6-15.1,136c0,32.6,2.7,49.3,8,50.3
				c3.7-1.8,5.5-11.2,5.5-28.1c0-9.1,2.1-29.3,6.3-60.6c8.2,15.5,17,36.2,26.5,62.3c10.8,29.8,16.2,50.8,16.2,63
				c0,17.1-5.1,34-15.4,50.8c-6,9.9-17.2,24-33.5,42.2l-21.3,22.2c-8.3,9-14.2,17.1-17.8,24.4c0.1,1.2,1.1,2,2.2,2
				c0.1,0,0.1,0,0.2,0c1.5,0,4.9-1,10.2-2.9c38-13.8,63.3-32.1,75.8-54.9c10.5-19,15.8-50.2,15.8-93.5
				C839.8,304.5,833.5,267.8,820.9,227.3z"/>
			<path d="M753.2,106c0-4.9-2.9-7.3-8.8-7.3c-8.1,0-12.2-1.1-12.2-3.4c0-4.1,2.4-6.1,7.3-6.1c1.7,0,3.3,0.3,4.9,1
				c1.6-1.1,4-4.6,7-10.3s4.8-9.8,5.3-12.2c-1.7-0.9-3.5-1.5-5.4-1.7c-6.9,0-14.8,5.9-23.8,17.8s-13.5,21.3-13.5,28.3
				c0,6.3,3.2,9.4,9.7,9.3c5.1-0.2,7.9,0.2,8.4,1.2c-2.6,3.5-11.2,8-25.7,13.4l-29.8,10.3c0,1.9,1.1,2.9,3.2,2.9
				c13.7,0,28.7-3.8,44.9-11.5C743.6,128.6,753.2,118,753.2,106z"/>
		</g>
	</g>
</g>
</svg>
