<?xml version="1.0" encoding="utf-8"?>
<!-- Generator: Adobe Illustrator 22.1.0, SVG Export Plug-In . SVG Version: 6.00 Build 0)  -->
<svg version="1.1" id="Layer_1" xmlns="http://www.w3.org/2000/svg" xmlns:xlink="http://www.w3.org/1999/xlink" x="0px" y="0px"
	 viewBox="0 0 867.1 691.9" style="enable-background:new 0 0 867.1 691.9;" xml:space="preserve">
<title>EH-Asset 22-layername</title>
<g id="Layer_2_1_">
	<g id="ElBasit">
		<g>
			<path d="M104.6,10.5c0-7-4-10.5-12.2-10.5c-8.1,0-16.8,5.7-26,17c-0.8,1-1.6,2-2.4,3c2.1,1.4,4.1,2.9,6.1,4.4
				c0.4-0.8,0.9-1.5,1.5-2.2l3.7-1.5c6.4,0,9.7,3.8,9.7,11.3c0,3-1.5,7-4.5,12C72.9,37.6,69,32.8,69,29.6c0-1.8,0.4-3.6,1.2-5.1
				c-2-1.5-4-3-6.1-4.4c-7.6,10-11.5,18.9-11.5,26.6c0,4.7,3.2,10.2,9.6,16.4C40.6,78.8,19.9,91.5,0,101.1c6.3,2,10.8,2.9,13.4,2.9
				c13.2,0,32.4-11.8,57.6-35.3c5.1,4.6,10.5,8.8,16.1,12.7l8.5-24.1L88.2,50C99.2,35.7,104.6,22.5,104.6,10.5z"/>
			<path d="M254.5,430.6c-24.5,13.7-40.9,21.6-49,23.9c24.9-21.2,42-48.7,51.5-82.5c3.2-11.7,4.9-19.6,4.9-23.7
				c0-6-0.6-10.7-1.9-14.2c-10.2,0-33.1,10.3-68.6,31c3.2-5.4,7.4-19.5,12.5-42.5c5-22.3,7.5-37.3,7.5-44.9
				c-0.1-20.7-1.6-41.3-4.4-61.8c-4.1-29.8-9.5-49.2-16.4-58.3c-13.2,23.9-25.6,58-37.3,102.3c-8.8,36.1-17.5,72.2-26.1,108.1
				l0.5,2.2c3.8-1,6.8-4.3,9-10c1.6-6.2,2.8-10.9,3.4-14.2c11.8-43.5,23.5-83.6,35.1-120.4c3.6,6.4,7.3,20.4,11,42
				c3.4,19.9,5.1,34.7,5.1,44.4c0,17.9-4.5,39.8-13.5,65.7c-12.1,14.2-23.6,41.4-34.5,81.7c4.4-1.2,8.6-2.8,12.6-5
				c8.6-22,17-36.8,25.2-44.2c8.9-8,26.7-16,53.2-24c-5.5,26.7-32.4,51.3-80.6,73.7c0.7-1.9,1.4-3.7,2.1-5.5c-4,2.1-8.2,3.7-12.6,5
				c-0.6,2.2-1.2,4.4-1.8,6.7c-24.7,12.5-46.9,20.4-66.4,23.9c-22.1,3.3-39.1,5.7-50.8,7.1c-4,1.2-6.7,3-8,5.5l1,2.2
				c12.1,2.2,24.3,3.3,36.6,3.3c29,0,54.8-1.9,77.4-5.6l-5.1,22l2,1.2c5.6-9.8,9.4-18.1,11.2-24.9c74.3-17.2,124-35,149.2-53.3
				l12.5-46.1C294.6,407.3,279.1,417,254.5,430.6z"/>
			<path d="M356.8,628.9c-3.4,11.1-8.1,18.1-14.2,21l-85.4,42c2.6-10.1,10.2-18.3,22.9-24.7L356.8,628.9z"/>
			<path d="M432.8,265.1c-0.1,19.9-3.6,39.7-10.5,58.4c-8.1,22.1-18.9,38.4-32.3,48.7c-7,5.5-12.9,8-17.6,7.5
				c-16.8,22.6-33.3,33.9-49.6,33.9c-3.3,10.1-16,22.4-38.3,36.9l12.2-45.2c21.2-19.4,33.7-33.8,37.6-43.2
				c1.5-4.1,3.8-10.1,7.1-18.1l3.2,2.9l0.7,2.2l-2.7,14.4c-0.1,1.4,0.7,2.6,2,3.2c5.9,0,12.5-4.5,20-13.4c6.5-8,10.7-15.3,12.5-22
				c1.1-5.4,2.9-13.4,5.4-23.9l3.4-2.4l1,1.7c1,3.6,1.5,12.4,1.5,26.4l1.5,0.5c10.6-5.1,18.8-13.7,24.7-25.9
				c3.6-7.3,6.8-17.7,9.5-31c2.3-10.7,4.2-16.6,5.9-17.6C431.8,259.9,432.8,261.9,432.8,265.1z"/>
			<path d="M578.5,402.1l-12.5,46.8c-13,8.8-26.2,13.3-39.5,13.3c-18.4,0-31-10.3-37.8-31c-3.7-11.6-5.9-29.5-6.6-53.8l-1.8-73.7
				c-1.4-55.3-2.1-83.5-2.1-84.5c0-2.1,2-9,5.9-20.8c3.9-11.7,6.6-18.5,8-20.4h1.4c0.5,28.2,1.5,70.2,2.9,126.2
				c0.2,15.6,1.9,38.7,5.1,69.3c6.5,31.4,19,47.1,37.3,47.1C552.6,420.7,565.8,414.5,578.5,402.1z"/>
			<path d="M636.6,187.5c-3.4,11.1-8.1,18.1-14.2,21l-85.5,42c2.6-10.1,10.3-18.3,23-24.7L636.6,187.5z"/>
			<path d="M675.2,35.9c-4.4-5.4-9.5-8.1-15.2-8.1c-12.7,0-24.2,6.8-34.3,20.3c-0.4,0.5-0.7,0.9-1,1.4c2.7,1.1,5.5,1.9,7.9,3.2
				c3.3-2.8,6.9-4.2,10.8-4.2c3.9,0,8.5,2.4,13.9,7c5.3,4.6,8,8.9,8,12.9c0,7.8-7.4,11.6-22.1,11.6c-12.8,0-19.2-3.5-19.2-10.7
				c0-5,2-9.7,6-14.1c0.8-0.9,1.7-1.8,2.6-2.5c-2.3-1.3-5.2-2.1-7.9-3.2c-8.6,11.9-13,24.2-13,36.9c0,11.7,6.7,17.6,20.1,17.6
				c12.7,0,24.1-5.4,34.2-16.3C676,76.7,681,64.9,681,52.3C681,46.3,679,40.5,675.2,35.9z"/>
			<path d="M728.2,248.3c0,45.9-5.8,83.8-17.3,113.8c-14,35.8-37.9,65.4-71.8,88.9l12.2-45.7c41.5-33.2,62.3-66.6,62.3-100.1
				c0-25.1-7.9-55.4-23.7-91.1c-3.1,15.9-7.7,39.8-13.8,71.5c-2.6,13.7-4.8,20.5-6.5,20.5l-2.2-0.7l-0.5-3.2
				c0-13.2,3.4-37.9,10.2-74.2c7.1-39.2,13.3-61.8,18.5-67.6c8.9,5.5,16.8,19,23.6,40.3C725.2,219.1,728.2,234.9,728.2,248.3z"/>
			<path d="M776,41c-3.4,11.1-8.1,18.1-14.2,21l-85.5,42c2.6-10.1,10.3-18.3,23-24.7L776,41z"/>
			<path d="M571.9,495.4c-14,21.5-21.3,33-22,34.4l21.5,14.9c7.3-6.7,14.9-17.7,22.7-33C594.1,506.2,586.7,500.7,571.9,495.4z"/>
			<path d="M599.3,429.2c-6.7,0-11.4-0.9-14.2-2.7c12.7-17.4,19-32.1,19-43.9c0-2.8-0.2-5.6-0.7-8.3c-9.1,10.4-18,20.7-26.8,30.7
				l-12.2,45.3l6.6-5.2c6.5,12,16.8,18,30.8,18c13.2,0,26.6-5,40.3-15l12.5-46.5c-6.5,6.5-15.1,12.6-25.6,18.3
				C616.9,426.1,607.1,429.2,599.3,429.2z"/>
			<path d="M780.4,121.6c0-4.9-2.9-7.3-8.8-7.3c-8.1,0-12.2-1.1-12.2-3.4c0-4.1,2.4-6.1,7.3-6.1c1.7,0,3.3,0.3,4.9,1
				c1.6-1.1,4-4.6,7-10.3s4.8-9.8,5.3-12.2c-1.7-0.9-3.5-1.5-5.4-1.7c-6.9,0-14.8,5.9-23.8,17.8s-13.5,21.3-13.5,28.3
				c0,6.3,3.2,9.4,9.7,9.3c5.1-0.2,7.9,0.3,8.4,1.2c-2.6,3.6-11.1,8.1-25.6,13.4l-29.8,10.3c0,1.9,1.1,2.9,3.2,2.9
				c13.7,0,28.6-3.8,44.9-11.5C770.9,144.2,780.4,133.6,780.4,121.6z"/>
			<path d="M848.1,242.9c-11.2-35.8-26.2-70.4-44.8-103c-10.1,30.3-15.1,75.6-15.1,136c0,32.6,2.7,49.3,8,50.3
				c3.7-1.8,5.5-11.2,5.5-28.1c0-9.1,2.1-29.3,6.3-60.6c8.2,15.5,17,36.2,26.5,62.2c10.8,29.8,16.2,50.8,16.2,63
				c0,17.1-5.1,34-15.4,50.8c-6,9.9-17.2,24-33.5,42.2L780.7,478c-8.3,9-14.2,17.1-17.8,24.4c0.2,1.3,1,2,2.4,2s4.9-1,10.2-2.9
				c38-13.8,63.3-32.1,75.8-54.9c10.5-19,15.8-50.2,15.8-93.5C867.1,320.1,860.8,283.4,848.1,242.9z"/>
		</g>
	</g>
</g>
</svg>
