<?xml version="1.0" encoding="utf-8"?>
<!-- Generator: Adobe Illustrator 22.1.0, SVG Export Plug-In . SVG Version: 6.00 Build 0)  -->
<svg version="1.1" id="Layer_1" xmlns="http://www.w3.org/2000/svg" xmlns:xlink="http://www.w3.org/1999/xlink" x="0px" y="0px"
	 viewBox="0 0 950.9 684.3" style="enable-background:new 0 0 950.9 684.3;" xml:space="preserve">
<title>EH-Asset 75-layername</title>
<g id="Layer_2_1_">
	<g id="EzZahir">
		<g>
			<path d="M219.5,149.4c0-7-4-10.5-12.1-10.5c-7.7,0-16,5.2-24.7,15.5c1.6,2.1,3,4.3,4.3,6.6l3.4-1.4c6.4,0,9.7,3.8,9.7,11.3
				c0,2.9-1.5,6.9-4.5,12c-7.8-6.4-11.6-11.2-11.6-14.5c0-2.7,0.9-5.3,2.7-7.3l0.3-0.1c-1.3-2.3-2.8-4.5-4.3-6.6
				c-0.4,0.5-0.8,1-1.3,1.5c-9.2,11.3-13.8,21.2-13.8,29.7c0,4.7,3.2,10.2,9.6,16.4c-21.6,15.8-42.4,28.5-62.3,38.1
				c6.3,2,10.8,2.9,13.4,2.9c13.2,0,32.4-11.7,57.6-35.3c5.1,4.6,10.5,8.8,16.1,12.7l8.6-24.2l-7.5-7.3
				C214,174.6,219.5,161.4,219.5,149.4z"/>
			<path d="M312.7,394.3L300,441.4c-20.2,11.7-34.3,20.3-42.2,25.6c-19,12.7-30.7,23.2-34.9,31.5c-13,28.2-26,56.2-39.1,84.2
				c-18.9,35.8-38.6,57.1-59.1,64c-15.6,5.3-32.8,8-51.5,8c-37.6,0-61.8-3.2-72.5-9.5L0,644l2-2.2c10.5,2,21.3,3,32,2.9
				c29.9,0,58.3-9.6,85-28.8c23.6-17.3,43.5-40,59.8-68.4c1.1-2.1,8.9-17.4,23.2-45.9c9.3-18.6,18.3-33.1,27-43.6
				c8.7-10.5,22.5-21.6,41.4-33.3C291.3,411.8,305.4,401.6,312.7,394.3z"/>
			<path d="M369.6,621.3c-3.4,11.1-8.1,18.1-14.2,21l-85.4,42c2.6-10.1,10.3-18.3,23-24.7L369.6,621.3z"/>
			<path d="M395.3,202.8c-25,0-45.6,16-61.9,47.9c-13.7,26.7-20.5,54-20.5,81.8c-0.1,5.3,0.2,10.6,0.7,15.9l1.7-0.3
				c3.1-17.6,5.3-30.8,6.6-39.5c2.6-12.8,9.3-26.2,20.3-40c12.4-15.5,24.3-23.2,35.9-23.2c9.8,0,17.7,5.3,23.9,15.8
				c5.3,8.9,8.1,19.1,8,29.4c0,7-3,14.8-9,23.4c-5.5,7.8-11.5,13.8-18,18.1l6.2-22.9c-0.1-6-1.5-11.9-3.9-17.3
				c-3.1-7.5-6.9-11.2-11.5-11.2c-11.3,0-22.1,11.2-32.6,33.7c-7.4,15.6-11.8,29.3-13.4,40.9c6.1-4.5,12-9.3,17.8-14.1
				c-0.4-1.4-0.6-2.9-0.6-4.7c0-2.9,1.3-6.2,4.1-9.7c2.7-3.5,5.5-5.3,8.2-5.3c3.7,0,7,2,9.8,6c2.8,4,4.2,7.9,4.2,11.8
				c-5.2,5.7-10.4,8.5-15.7,8.5c-5.4,0-8.8-2.3-10-6.7c-5.8,4.8-11.7,9.6-17.8,14.1c-0.4,3.1-0.6,6.1-0.6,8.9
				c-0.2,4.5,1.1,9,3.7,12.7c-6.4,7.3-13.4,14-21,20l-12.5,45.9c42.5-31.9,65.3-56.2,68.4-72.8c6-2.1,14-8.4,24-19
				c25.8-27.3,38.7-58.3,38.7-93C428.5,221.2,417.4,202.9,395.3,202.8z"/>
			<path d="M573.7,394.5l-12.5,46.8c-13,8.8-26.2,13.3-39.5,13.3c-18.4,0-31-10.3-37.8-31c-3.7-11.6-5.9-29.5-6.6-53.8l-1.8-73.7
				c-1.4-55.3-2.1-83.5-2.1-84.5c0-2.1,2-9,5.9-20.8c3.9-11.7,6.6-18.6,8.1-20.5h1.4c0.5,28.2,1.5,70.2,2.9,126.2
				c0.2,15.6,1.9,38.7,5.1,69.3c6.5,31.4,18.9,47.1,37.4,47.1C547.9,413.1,561,406.9,573.7,394.5z"/>
			<path d="M812,240.7c0,45.9-5.8,83.8-17.3,113.8c-14,35.8-37.9,65.4-71.8,88.9l12.2-45.6c41.5-33.2,62.3-66.6,62.3-100.1
				c0-25.1-7.9-55.4-23.7-91.1c-3.1,16-7.7,39.8-13.8,71.5c-2.6,13.7-4.8,20.5-6.5,20.5l-2.2-0.7l-0.5-3.2
				c0-13.2,3.4-37.9,10.2-74.2c7.1-39.2,13.3-61.8,18.5-67.6c8.9,5.5,16.8,19,23.6,40.3C809,211.5,812,227.4,812,240.7z"/>
			<path d="M859.9,33.5c-3.4,11.1-8.1,18.1-14.2,21l-85.5,42c2.6-10.1,10.3-18.3,23-24.7L859.9,33.5z"/>
			<path d="M577.5,75.3c5.9,4.2,10.7,6.3,14.4,6.3c11.8,0,21.5-7.1,29.1-21.2c5.7-10.4,9.4-22.6,11-36.6l-7.6,2.2
				C618,45.7,610,55.7,600.6,55.7c-6.2,0-9.3-5.9-9.3-17.8l-5.9,1.5c-12.4,21.6-22.4,32.5-30,32.5c-5.7,0-8.5-3.8-8.5-11.5l0.7-7.6
				l-8.5,4.6c-4.6,12.4-6.8,20.8-6.8,25.3c0,9.2,4.7,13.8,14.2,13.8C557.4,96.4,567.7,89.4,577.5,75.3z"/>
			<path d="M638.2,0l-69.6,24.4c-10.9,3.7-19.9,11.2-27.1,22.5l79.8-28.3C627.9,16.3,633.5,10.1,638.2,0z"/>
			<path d="M713.1,410.6c-11.1,4.7-20.9,7.1-29.5,7.1c-12.4,0-23.4-2-33-6.1c-12.7-5.4-19-13.3-19-23.9c21.4-19,35.5-32.5,42.1-40.3
				c11.7-13.7,21.7-30.4,30.2-50.3c7.5-17.7,11.2-27.8,11.2-30.3c0-5.7-3.5-8.5-10.5-8.5c-10.4,0-26.6,5.9-48.6,17.7
				c-19,10.4-34,20.2-44.9,29.4c11.2-46.8,16.8-79.7,16.8-98.8c0-39.3-6.4-65.8-19.2-79.3c-4.4-4.7-7.6-7.1-9.8-7.3
				c-10.6,5.9-20.4,20.5-29.5,43.9c-7.5,19-12.3,36.8-14.4,53.2l2.2,2.2l2-1.5c15.1-38.5,25.3-57.8,30.5-58
				c14.2,7.3,21.2,36.1,21.2,86.2c0,24.4-9.5,70.6-28.6,138.5c3.2-1.3,6.3-2.8,9.2-4.5l9.4-34.9c10.3-10.1,24.4-20.5,42.3-31.1
				c20.7-12.1,36.5-18.1,47.4-18.1l1.7,2.7c-0.2,7.8-14.7,22.4-43.7,43.8L591,382.3l0.6-2.1c-3,1.7-6.1,3.2-9.2,4.5
				c-0.4,1.4-0.8,2.9-1.2,4.3l-9.3,8.5l-12.2,45.2c7.8-5.3,13.7-9.5,17.8-12.6l1.5,18.9l1.5,1c2.8-8.2,4.5-16.7,5-25.3
				c13.7-10.4,24.2-18.6,31.5-24.6c2.8,16.2,9.3,29.4,19.5,39.4c10.8,10.9,24.1,16.3,40,16.3c17.4,0,34.1-5.1,50-15.3l12.6-46.3
				C732.8,400.4,724.2,405.9,713.1,410.6z"/>
			<path d="M721,168.3c0-5.2-7.4-10.8-22.2-16.6c-11.1,14.7-18.6,26.2-22.5,34.7l21.7,15.2C705.5,193.7,713.1,182.6,721,168.3z"/>
			<path d="M931.9,235.4c-11.2-35.8-26.2-70.4-44.8-103c-10.1,30.3-15.1,75.6-15.1,136c0,32.6,2.7,49.3,8,50.3
				c3.7-1.8,5.5-11.1,5.5-28.1c0-9.1,2.1-29.3,6.3-60.6c8.2,15.5,17,36.2,26.5,62.3c10.8,29.8,16.2,50.8,16.2,63
				c0,17.1-5.1,34-15.4,50.8c-6,9.9-17.1,24-33.5,42.2l-21.3,22.2c-8.3,9-14.2,17.1-17.8,24.4c0.1,1.2,1,2.1,2.2,2
				c0.1,0,0.2,0,0.2,0c1.5,0,4.9-1,10.2-2.9c38-13.8,63.3-32.2,75.8-54.9c10.5-19,15.8-50.2,15.8-93.5
				C950.9,312.6,944.6,275.9,931.9,235.4z"/>
			<path d="M864.3,114c0-4.9-2.9-7.3-8.8-7.3c-8.1,0-12.2-1.1-12.2-3.4c0-4.1,2.4-6.1,7.3-6.1c1.7,0,3.3,0.3,4.9,1
				c1.6-1.1,4-4.5,7-10.3c3-5.7,4.8-9.8,5.3-12.2c-1.7-0.9-3.5-1.5-5.5-1.7c-6.8,0-14.8,5.9-23.8,17.8c-9,11.9-13.5,21.3-13.5,28.3
				c0,6.3,3.2,9.4,9.7,9.3c5.1-0.2,7.9,0.3,8.4,1.2c-2.6,3.6-11.2,8-25.7,13.4l-29.8,10.3c0,1.9,1.1,2.9,3.2,2.9
				c13.7,0,28.6-3.8,44.9-11.5C854.7,136.6,864.3,126.1,864.3,114z"/>
		</g>
	</g>
</g>
</svg>
