<?xml version="1.0" encoding="utf-8"?>
<!-- Generator: Adobe Illustrator 22.1.0, SVG Export Plug-In . SVG Version: 6.00 Build 0)  -->
<svg version="1.1" id="Layer_1" xmlns="http://www.w3.org/2000/svg" xmlns:xlink="http://www.w3.org/1999/xlink" x="0px" y="0px"
	 viewBox="0 0 600.1 664.1" style="enable-background:new 0 0 600.1 664.1;" xml:space="preserve">
<title>EH-Asset 79-layername</title>
<g id="Layer_2_1_">
	<g id="ElBirr">
		<g>
			<path d="M312.7,374L300,421.1c-20.2,11.7-34.3,20.3-42.2,25.6c-19,12.7-30.7,23.2-34.9,31.5c-13,28.2-26,56.2-39.1,84.2
				c-18.9,35.8-38.6,57.1-59.1,64c-15.6,5.3-32.8,8-51.5,8c-37.6,0-61.8-3.2-72.5-9.5L0,623.8l2-2.2c10.5,2,21.3,3,32,2.9
				c29.9,0,58.3-9.6,85-28.8c23.6-17.2,43.5-40,59.8-68.4c1.1-2.1,8.9-17.4,23.2-45.9c9.3-18.6,18.3-33.1,27-43.6
				s22.5-21.6,41.4-33.3C291.3,391.5,305.4,381.3,312.7,374z"/>
			<path d="M369.6,601.1c-3.4,11.1-8.1,18.1-14.2,21l-85.4,42c2.6-10.1,10.3-18.3,23-24.7L369.6,601.1z"/>
			<path d="M408.2,8.1C403.8,2.7,398.7,0,393,0c-12.7,0-24.2,6.8-34.3,20.3c-0.8,1-1.5,2-2.2,3c2.3,1.2,4.6,2.5,6.5,4
				c4-4.3,8.4-6.5,13.2-6.5c3.9,0,8.5,2.3,13.9,6.9c5.3,4.6,8,8.9,8,12.9c0,7.8-7.4,11.7-22.1,11.7c-12.8,0-19.2-3.6-19.2-10.7
				c0-5,2-9.7,6-14.1c0.1-0.1,0.1-0.1,0.2-0.2c-2-1.5-4.2-2.8-6.5-4c-7.9,11.4-11.8,23.2-11.8,35.3c0,11.7,6.7,17.6,20.1,17.6
				c12.7,0,24.1-5.4,34.2-16.4c10-10.9,15.1-22.7,15.1-35.4C414,18.4,412,12.7,408.2,8.1z"/>
			<path d="M461.2,220.5c0,45.9-5.8,83.8-17.3,113.8c-14,35.8-37.9,65.4-71.8,88.9l12.2-45.7c41.5-33.2,62.3-66.6,62.3-100.1
				c0-25.1-7.9-55.4-23.7-91.1c-3.1,15.9-7.6,39.8-13.8,71.5c-2.6,13.7-4.8,20.5-6.5,20.5l-2.2-0.7l-0.5-3.2
				c0-13.2,3.4-37.9,10.2-74.2c7.1-39.2,13.3-61.8,18.5-67.6c8.9,5.5,16.8,19,23.6,40.3C458.2,191.3,461.2,207.1,461.2,220.5z"/>
			<path d="M509,13.2c-3.4,11.1-8.1,18.1-14.2,21l-85.4,42c2.6-10.1,10.3-18.3,23-24.7L509,13.2z"/>
			<path d="M223.2,126.9l-7.3-5.4c9.7-10.3,14.6-17.5,14.6-21.6c0-4.1-1.5-8-4-11.1c-2.7-3.5-5.9-5.3-9.6-5.3
				c-6.3,0-12.6,2.3-19,6.9c1,1.7,2,3.4,2.9,5.2c1.3-0.8,2.9-1.3,5-1.3c5.1,1.9,7.7,4.9,7.7,8.8c0,3.7-1.8,8.3-5.3,13.6
				c-7.1-5.5-10.6-10-10.6-13.4c0-3.7,1.1-6.3,3.2-7.7c-0.9-1.8-1.9-3.5-2.9-5.2c-2.1,1.5-4.3,3.3-6.4,5.3
				c-8.6,8.1-12.9,16.2-12.9,24.4l1,5.9c1.9,3,4,5.8,6.4,8.3c-19.4,11.4-38.5,19.4-57.4,24c5.6,3.3,10.4,4.9,14.4,4.9
				c10.4,0,27.7-8,51.9-23.9c10.4,4.6,18.8,6.9,25,7.1c2.6-8.3,3.8-13.6,3.7-15.7L223.2,126.9z"/>
			<path d="M182.6,183.4c-6.3,0-9.3-3.8-9-11.4l0.3-4.8l-6.4,1.4c-12,19.2-21.8,28.9-29.3,28.9c-5.2,0-7.8-3-7.8-9l1.7-10.9
				l-5.1,0.5c-8,10.9-12,20.7-12,29.4l1.7,8.6c3.4,4.4,7.5,6.6,12.2,6.6c12.7,0,22.8-6.6,30.4-19.7c3.9,4.2,7.1,6.2,9.7,6.2
				c21.6,0,36.9-17.5,46-52.5l-6.1,1.5C200.4,175,191.6,183.4,182.6,183.4z"/>
			<path d="M332.3,401.4c-6.7,0-11.4-0.9-14.2-2.7c12.7-17.4,19-32.1,19-43.9c0-2.8-0.2-5.6-0.7-8.3c-9.1,10.4-18.1,20.7-26.9,30.8
				l-12.2,45.3l6.6-5.2c6.5,12,16.8,18,30.8,18c13.2,0,26.6-5,40.3-15l12.5-46.5c-6.5,6.5-15.1,12.6-25.6,18.3
				C349.9,398.3,340.1,401.4,332.3,401.4z"/>
			<path d="M304.9,467.5c-14,21.5-21.3,33-22,34.4l21.5,14.9c7.3-6.7,14.9-17.7,22.7-33C327.1,478.4,319.7,472.9,304.9,467.5z"/>
			<path d="M581.1,215.1c-11.2-35.8-26.2-70.4-44.8-103c-10.1,30.3-15.1,75.6-15.1,136c0,32.5,2.7,49.3,8,50.3
				c3.7-1.8,5.5-11.1,5.5-28.1c0-9.1,2.1-29.3,6.3-60.5c8.2,15.5,17,36.2,26.5,62.3c10.8,29.8,16.2,50.8,16.2,63
				c0,17.1-5.1,34-15.4,50.8c-6,9.9-17.2,24-33.5,42.2l-21.3,22.2c-8.3,9-14.2,17.1-17.8,24.4c0.2,1.3,1,2,2.4,2s4.9-1,10.2-2.9
				c38-13.8,63.3-32.1,75.8-54.9c10.6-19,15.8-50.2,15.8-93.5C600.1,292.3,593.8,255.6,581.1,215.1z"/>
			<path d="M513.4,93.8c0-4.9-2.9-7.3-8.8-7.3c-8.1,0-12.2-1.1-12.2-3.4c0-4.1,2.4-6.1,7.3-6.1c1.7,0,3.3,0.3,4.9,1
				c1.6-1.1,4-4.6,7-10.3c3-5.7,4.8-9.8,5.3-12.2c-1.7-0.9-3.5-1.5-5.4-1.7c-6.9,0-14.8,5.9-23.8,17.8s-13.5,21.3-13.6,28.3
				c0,6.4,3.2,9.4,9.6,9.3c5.1-0.2,7.9,0.3,8.4,1.2c-2.6,3.6-11.1,8.1-25.6,13.4L436.8,134c0,2,1.1,2.9,3.2,2.9
				c13.7,0,28.6-3.8,44.9-11.5C503.9,116.4,513.4,105.8,513.4,93.8z"/>
		</g>
	</g>
</g>
</svg>
