<?xml version="1.0" encoding="utf-8"?>
<!-- Generator: Adobe Illustrator 22.1.0, SVG Export Plug-In . SVG Version: 6.00 Build 0)  -->
<svg version="1.1" id="Layer_1" xmlns="http://www.w3.org/2000/svg" xmlns:xlink="http://www.w3.org/1999/xlink" x="0px" y="0px"
	 viewBox="0 0 936.7 664.1" style="enable-background:new 0 0 936.7 664.1;" xml:space="preserve">
<title>EH-Asset 7-layername</title>
<g id="Layer_2_1_">
	<g id="ElMumin">
		<g>
			<path d="M104.6,129.1c0-7-4-10.5-12.2-10.5c-7.7,0-15.9,5.1-24.6,15.3c1.5,2.2,2.9,4.5,4.1,6.8l3.4-1.3c6.4,0,9.7,3.8,9.7,11.3
				c0,2.9-1.5,6.9-4.5,12c-7.8-6.4-11.7-11.2-11.7-14.5c0-2.7,0.9-5.3,2.7-7.3l0.3-0.1c-1.2-2.4-2.6-4.7-4.1-6.8
				c-0.5,0.6-1,1.1-1.4,1.7c-9.2,11.3-13.8,21.2-13.8,29.7c0,4.7,3.2,10.2,9.6,16.4C40.6,197.4,19.9,210.1,0,219.7
				c6.3,2,10.8,2.9,13.4,2.9c13.2,0,32.4-11.8,57.6-35.3c5.1,4.6,10.5,8.8,16.1,12.8l8.5-24.1l-7.5-7.3
				C99.2,154.4,104.6,141.2,104.6,129.1z"/>
			<path d="M262.6,373.8L250.1,420c-16.4,12.3-29.8,18-40,17.2l-4.6,21.5c-5.7,26.5-18.9,53-39.7,79.6c-23.8,30.4-47.4,45.6-71,45.6
				c-29.7,0-44.6-18-44.6-54c0-20.9,7.8-48.9,23.4-84.1c-21,0.8-37.7,11.5-50,32l-1.5,0.5l-1.5-1.5c0-16.3,6.8-32.8,20.5-49.5
				c14.3-17.6,29.4-26.4,45.2-26.5c7.2,0,10.8,3.2,10.8,9.5c0,6.2-4.5,19.7-13.6,40.6c-9,20.9-13.6,36.7-13.6,47.4
				c0,12.2,3.6,22.1,10.9,29.5c7.3,7.4,17,11.1,29.2,11.1c14.8,0,31-8.3,48.4-24.9c16.5-15.6,26.6-31,30.6-46.2
				c2.6-9.6,4-19.4,4.2-29.3c0-10.4-4-19.6-12-27.6c-0.3-10.7,6-25.5,18.9-44.4c4.9,2.1,10.9,12.5,18,31.3
				C229.7,398,244.5,389.9,262.6,373.8z"/>
			<path d="M318.8,601.1c-3.4,11.1-8.1,18.1-14.2,21l-85.4,42c2.6-10.1,10.3-18.3,23-24.7L318.8,601.1z"/>
			<path d="M366.8,310.5c-1.5,8.3-7,20.4-16.6,36.4c-9.6-1.8-16.7-2.7-21.2-2.7c-14,0-28.7,11-44.2,33
				c-18.7,26.4-31.5,41.5-38.3,45.4l12.4-45.9c5.2-4.2,11.3-11.8,18.3-22.6s12.8-18.3,17.3-22.3v-1.7l-4.4-4.6
				c3.4-12.5,9.6-25.1,18.6-37.8c5.9,4.2,15.6,8.1,29.2,11.7S361.1,306.7,366.8,310.5z"/>
			<path d="M515.8,176.5c-4.4-5.3-9.5-8-15.2-8c-12.7,0-24.2,6.8-34.3,20.3c-0.9,1.3-1.8,2.5-2.7,3.8c2,1.5,4,3,5.9,4.6
				c0.3-0.4,0.6-0.8,1-1.2c4-4.5,8.5-6.7,13.4-6.7c3.9,0,8.5,2.3,13.9,6.9c5.3,4.6,8,8.9,8,12.9c0,7.8-7.4,11.7-22.1,11.7
				c-12.8,0-19.2-3.5-19.2-10.7c0-4.5,1.7-8.9,5-13c-1.9-1.6-3.9-3.1-5.9-4.6c-7.5,11.2-11.3,22.7-11.3,34.6
				c0,11.7,6.7,17.6,20.1,17.6c12.7,0,24.1-5.4,34.2-16.4c10-10.9,15.1-22.7,15.1-35.4C521.6,186.9,519.5,181.1,515.8,176.5z"/>
			<path d="M460.1,317.3c13.7,0,28.6-3.8,44.9-11.5c18.9-9.1,28.4-19.7,28.4-31.8c0-4.9-2.9-7.3-8.7-7.3c-8.1,0-12.1-1.1-12.1-3.4
				c0-4.1,2.4-6.1,7.3-6.1c1.7,0,3.3,0.3,4.8,1c1.6-1.1,3.9-4.6,6.9-10.3s4.7-9.8,5.2-12.2c-1.7-0.9-3.5-1.5-5.4-1.7
				c-6.8,0-14.7,6-23.7,17.9c-9,11.9-13.4,21.4-13.4,28.4c0,6.3,3.2,9.4,9.6,9.2c5.1-0.2,7.9,0.3,8.4,1.2
				c-2.6,3.6-11.2,8.1-25.6,13.5l-29.8,10.3C456.9,316.3,458,317.3,460.1,317.3z"/>
			<path d="M541.9,411.6c0-8-3.1-15.1-9.4-21.2s-13.4-9.3-21.4-9.3c-9.1,0-18.3,8.7-27.6,26.1c-8.3,15.6-12.5,28.5-12.5,38.8
				c0,9.8,7.4,14.6,22.2,14.6c4.9,0,14.4-2,28.6-5.9c-0.8,7.2-3.2,14.1-7.1,20.3c-1.6,2.4-6.1,8.1-13.4,16.8
				c-34.5,40.7-75.3,67.9-122.3,81.8c-21.7,6.4-38.1,9.5-49.3,9.5c-5.5,0-13.3-0.8-23.4-2.4c-10.6-1.8-18.3-2.8-23.2-2.9l-2,1.5
				c0.9,4.4,13.5,8.7,37.9,12.7c20.5,3.5,36,5.2,46.4,5.2c27.3,0,50-3.9,68.1-11.7c21.5-9.3,43-28.4,64.5-57.5
				c20.6-27.7,33.6-53.7,39.1-78c27.2-11.6,46-21.5,56.4-29.8l12.5-46.4C590.6,387.4,569.2,400.1,541.9,411.6z"/>
			<path d="M667.1,68.1c0-7-4-10.5-12.2-10.5c-8.1,0-16.8,5.7-26,17c-0.9,1.1-1.8,2.3-2.6,3.4c2.2,1.6,4,3.5,5.8,5.5
				c0.5-1.3,1.2-2.6,2.1-3.7l3.7-1.5c6.4,0,9.7,3.8,9.7,11.3c0,2.9-1.5,6.9-4.5,12c-7.8-6.4-11.7-11.2-11.7-14.5
				c0-1.3,0.2-2.5,0.6-3.7c-1.8-2-3.6-3.9-5.8-5.5c-7.5,9.9-11.2,18.7-11.2,26.3c0,4.7,3.2,10.2,9.6,16.4
				c-21.6,15.8-42.4,28.5-62.3,38.1c6.3,2,10.8,2.9,13.4,2.9c13.2,0,32.4-11.7,57.6-35.3c5.1,4.6,10.5,8.8,16.1,12.7l8.5-24.2
				l-7.5-7.3C661.7,93.3,667.1,80.1,667.1,68.1z"/>
			<path d="M723.8,374.5l-12.5,46.4c-5.8,3.7-12.5,5.6-19.3,5.6c-11.6,0-20.7-5.1-27.3-15.3c-13.7,16.9-22.2,25.4-25.6,25.4
				c-3.7,0-9.3-4.3-16.6-12.9c-6.8-8-10.9-14.3-12.2-18.8c-3.7,5-10.7,11-21,18l12.2-45.4c7.5-7,18.8-17.4,33.7-31.3
				c1.6,0,9.7,6.1,24.2,18.3s26.8,18.3,37.1,18.3C706.2,383,715.8,380.1,723.8,374.5z"/>
			<path d="M744.8,8.1c-4.4-5.4-9.5-8.1-15.2-8.1c-12.7,0-24.2,6.8-34.3,20.3c-1.6,2.2-3.1,4.4-4.5,6.5c2.1,1.2,4.3,2.4,6.4,3.5
				c0.7-1,1.4-1.9,2.3-2.9c4-4.5,8.5-6.7,13.4-6.7c3.9,0,8.5,2.3,13.9,6.9s8,8.9,8,12.9c0,7.8-7.4,11.7-22.1,11.7
				c-12.8,0-19.2-3.6-19.2-10.7c0-3.9,1.3-7.6,3.7-11.2c-2.2-1.1-4.3-2.3-6.4-3.5c-6.3,10.3-9.5,20.9-9.5,31.8
				c0,11.7,6.7,17.6,20.1,17.6c12.7,0,24.1-5.4,34.2-16.4c10-10.9,15.1-22.7,15.1-35.4C750.6,18.4,748.5,12.7,744.8,8.1z"/>
			<path d="M797.8,220.5c0,45.9-5.8,83.8-17.3,113.8c-14,35.8-37.9,65.4-71.8,88.9l12.2-45.7c41.5-33.2,62.3-66.6,62.3-100.1
				c0-25.1-7.9-55.4-23.7-91.1c-3.1,15.9-7.7,39.8-13.8,71.5c-2.6,13.7-4.8,20.5-6.5,20.5l-2.2-0.7l-0.5-3.2
				c0-13.2,3.4-37.9,10.2-74.2c7.1-39.2,13.3-61.8,18.5-67.6c8.9,5.5,16.8,19,23.6,40.3C794.8,191.3,797.8,207.1,797.8,220.5z"/>
			<path d="M845.6,13.2c-3.4,11.1-8.1,18.1-14.2,21l-85.4,42c2.6-10.1,10.3-18.3,23-24.7L845.6,13.2z"/>
			<path d="M850,93.8c0-4.9-2.9-7.3-8.8-7.3c-8.1,0-12.2-1.1-12.2-3.4c0-4.1,2.4-6.1,7.3-6.1c1.7,0,3.3,0.3,4.9,1
				c1.6-1.1,4-4.6,7-10.3c3-5.7,4.8-9.8,5.3-12.2c-1.7-0.9-3.5-1.5-5.5-1.7c-6.9,0-14.8,5.9-23.8,17.8s-13.5,21.3-13.5,28.3
				c0,6.4,3.2,9.4,9.7,9.3c5.1-0.2,7.9,0.3,8.4,1.2c-2.6,3.6-11.1,8.1-25.6,13.4L773.3,134c0,2,1.1,2.9,3.2,2.9
				c13.7,0,28.6-3.8,44.9-11.5C840.5,116.4,850,105.8,850,93.8z"/>
			<path d="M917.7,215.1c-11.2-35.8-26.2-70.4-44.8-103c-10.1,30.3-15.1,75.6-15.1,136c0,32.5,2.7,49.3,8,50.3
				c3.7-1.8,5.6-11.1,5.5-28.1c0-9.1,2.1-29.3,6.3-60.5c8.2,15.5,17,36.2,26.5,62.3c10.8,29.8,16.2,50.8,16.2,63
				c0,17.1-5.1,34-15.4,50.8c-6,9.9-17.2,24-33.5,42.2l-21.3,22.2c-8.3,9-14.2,17.1-17.8,24.4c0.2,1.3,1,2,2.4,2s4.9-1,10.2-2.9
				c38-13.8,63.3-32.1,75.8-54.9c10.5-19,15.8-50.2,15.8-93.5C936.7,292.3,930.3,255.6,917.7,215.1z"/>
		</g>
	</g>
</g>
</svg>
