<?xml version="1.0" encoding="utf-8"?>
<!-- Generator: Adobe Illustrator 22.1.0, SVG Export Plug-In . SVG Version: 6.00 Build 0)  -->
<svg version="1.1" id="Layer_1" xmlns="http://www.w3.org/2000/svg" xmlns:xlink="http://www.w3.org/1999/xlink" x="0px" y="0px"
	 viewBox="0 0 833.7 720.5" style="enable-background:new 0 0 833.7 720.5;" xml:space="preserve">
<title>EH-Asset 81-layername</title>
<g id="Layer_2_1_">
	<g id="ElMunteqim">
		<g>
			<path d="M154.3,68.1c0-7-4-10.5-12.1-10.5c-8.1,0-16.7,5.6-25.9,16.9c1.6,1.9,3.1,4,4.6,6c0.2-0.2,0.3-0.4,0.5-0.6l3.7-1.5
				c6.4,0,9.7,3.8,9.7,11.3c0,2.9-1.5,6.9-4.5,12c-7.8-6.4-11.6-11.2-11.6-14.5c0-2.4,0.8-4.8,2.2-6.7c-1.5-2.1-3-4.1-4.6-6
				c0,0.1-0.1,0.1-0.1,0.1c-9.2,11.3-13.9,21.2-13.9,29.7c0,4.7,3.2,10.2,9.6,16.4c-21.6,15.8-42.4,28.5-62.3,38.1
				c6.3,2,10.8,2.9,13.4,2.9c13.2,0,32.4-11.7,57.6-35.3c5.1,4.6,10.5,8.8,16.1,12.7l8.5-24.2l-7.5-7.3
				C148.8,93.3,154.3,80.1,154.3,68.1z"/>
			<path d="M222.9,374.8l-12.2,45.6c-18.7,11.7-37.4,23.4-56.1,34.9c-25.7,17.7-38.5,30.8-38.5,39.1c0,1.8,1,2.7,2.9,2.7
				c4.9,0,12.2-5.2,22-15.6c6.7-7.2,13.3-14.4,19.8-21.7c1.1,0.8,1.7,2.2,1.7,4.1c0,2.3-1.2,8.6-3.7,19c-3.1,13.3-4.8,20.5-5.1,21.5
				c-2.4,7-5.9,13.5-10.5,19.3c-7,9.1-22.5,22.3-46.4,39.5c-27.4,19.7-45.8,34.3-55.3,43.7c-17.8,17.6-26.7,34.3-26.7,50.1
				c0,15.9,13.2,28.4,39.5,37.4c21.6,7.5,46.1,11.2,73.2,11.2c44.6,0,74.4-0.7,89.4-2.2l0.5,1.2c0,4.7-13.4,8.7-40.3,12
				c-20.8,2.6-38.2,3.8-52,3.8c-83.3,0-125-21.1-125-63.2c0-19.4,7.9-41.2,23.7-65.4c14.2-21.6,30.3-39,48.2-52l30.1-22
				c-1.3-4.2-2-8.6-1.9-12.9c0-12.7,5-27.6,14.9-44.7c9.9-16.4,20.4-28.2,31.5-35.4C180.3,403.1,205.8,386.5,222.9,374.8z"/>
			<path d="M279.5,576.7c-3.4,11.1-8.1,18.1-14.2,21l-85.4,42c2.6-10.1,10.3-18.3,22.9-24.7L279.5,576.7z"/>
			<path d="M409.2,13.2c-3.5,11.1-8.2,18.1-14.2,21l-85.5,42c2.6-10.1,10.3-18.3,23-24.7L409.2,13.2z"/>
			<path d="M382.3,197.5c-20.5,13.2-38.9,23.1-55.2,29.8c-10.6,20.5-15.7,33.8-15.4,39.8c8.6-4.5,15-8,19.2-10.5
				c21.3-11.9,33-19,35.3-21.2C372.8,229.2,378.1,216.6,382.3,197.5z"/>
			<path d="M401.4,392.1c-11.9,6.2-21.7,9.3-29.5,9.3c-6.7,0-11.4-0.9-14.2-2.7c12.7-17.4,19-32.1,19-43.9c0-2.8-0.2-5.6-0.7-8.3
				c-9.1,10.4-18,20.7-26.8,30.8l-12.2,45.3l6.6-5.2c6.5,12,16.7,18,30.7,18c13.2,0,26.6-5,40.3-15l12.5-46.5
				C420.6,380.3,412,386.4,401.4,392.1z"/>
			<path d="M437.2,44c-2,5.5-9.1,8.3-21.5,8.3c-12.8,0-19.2-3.6-19.2-10.7c0-5,2-9.7,6-14.1c4-4.5,8.5-6.7,13.4-6.7
				c3.9,0,8.5,2.3,13.9,6.9c5.3,4.6,8,8.9,8,12.9C437.7,41.8,437.5,42.9,437.2,44c3.3,1.3,6.6,2.8,9.9,4.4
				c4.4-7.6,6.6-15.6,6.6-23.9c0-6-2.1-11.7-5.9-16.3c-4.4-5.4-9.5-8.1-15.2-8.1c-12.7,0-24.2,6.8-34.3,20.3
				c-9.3,12.4-14,25.1-14,38.3c0,11.7,6.7,17.6,20.1,17.6c12.7,0,24.1-5.4,34.2-16.4c3.4-3.7,6.2-7.5,8.5-11.5
				C443.8,46.8,440.5,45.3,437.2,44z"/>
			<path d="M564.2,68.1c0-7-4.1-10.5-12.2-10.5c-8.1,0-16.8,5.7-26,17c-1.2,1.4-2.3,2.8-3.3,4.2c2.2,1.6,4.3,3.2,6.3,4.9
				c0.5-1.4,1.2-2.8,2.2-3.9l3.7-1.5c6.4,0,9.7,3.8,9.7,11.3c0,2.9-1.5,6.9-4.5,12c-7.8-6.4-11.7-11.2-11.7-14.5
				c0-1.2,0.2-2.3,0.5-3.4c-2-1.7-4.1-3.4-6.3-4.9c-7,9.6-10.6,18-10.6,25.4c0,4.7,3.2,10.2,9.6,16.4
				c-21.6,15.8-42.4,28.5-62.3,38.1c6.3,2,10.8,2.9,13.4,2.9c13.2,0,32.4-11.7,57.6-35.3c5.1,4.6,10.5,8.8,16.1,12.7l8.5-24.2
				l-7.5-7.3C558.7,93.3,564.2,80.1,564.2,68.1z"/>
			<path d="M620.8,374.5l-12.4,46.4c-5.8,3.6-12.5,5.6-19.3,5.6c-11.6,0-20.7-5.1-27.3-15.3c-13.7,16.9-22.2,25.4-25.6,25.4
				c-3.7,0-9.3-4.3-16.6-12.9c-6.8-8-10.9-14.3-12.2-18.8c-3.7,5-10.7,11-21,18l12.2-45.4c7.5-7,18.7-17.4,33.7-31.3
				c1.6,0,9.7,6.1,24.2,18.3c14.5,12.2,26.9,18.3,37.1,18.3C603.3,383,612.8,380.1,620.8,374.5z"/>
			<path d="M641.8,8.1c-4.4-5.4-9.5-8.1-15.2-8.1c-12.7,0-24.2,6.8-34.3,20.3c-0.9,1.3-1.8,2.5-2.7,3.8c2.3,1.1,4.5,2.4,6.6,3.8
				c0.1-0.1,0.2-0.3,0.4-0.5c4-4.5,8.5-6.7,13.4-6.7c3.9,0,8.5,2.3,13.8,6.9c5.3,4.6,8,8.9,8,12.9c0,7.8-7.4,11.7-22.1,11.7
				c-12.8,0-19.2-3.6-19.2-10.7c0-4.8,1.9-9.3,5.6-13.7c-2-1.5-4.2-2.7-6.6-3.8c-7.5,11.2-11.3,22.7-11.3,34.5
				c0,11.7,6.7,17.6,20.1,17.6c12.7,0,24.1-5.4,34.2-16.4s15.1-22.7,15.1-35.4C647.7,18.4,645.6,12.7,641.8,8.1z"/>
			<path d="M694.8,220.5c0,45.9-5.8,83.8-17.3,113.8c-14,35.8-37.9,65.4-71.8,88.9l12.2-45.7c41.5-33.2,62.3-66.6,62.3-100.1
				c0-25.1-7.9-55.4-23.7-91.1c-3.1,15.9-7.7,39.8-13.8,71.5c-2.6,13.7-4.8,20.5-6.5,20.5l-2.2-0.7l-0.5-3.2
				c0-13.2,3.4-37.9,10.2-74.2c7.1-39.2,13.3-61.8,18.5-67.6c8.9,5.5,16.8,19,23.6,40.3C691.8,191.3,694.8,207.1,694.8,220.5z"/>
			<path d="M742.7,13.2c-3.4,11.1-8.1,18.1-14.2,21l-85.5,42c2.6-10.1,10.3-18.3,22.9-24.7L742.7,13.2z"/>
			<path d="M294.8,393.6c-20.2,0-33.1-4.2-38.8-12.5c22.4-25.7,33.6-46.5,33.5-62.3c0-20.7-4.7-31-14.1-31
				c-4.5,0-11.4,3.6-20.4,10.8s-17.5,17.6-25.3,31.3c-8.3,14.7-12.4,27.2-12.4,37.6c0,2.1,0.2,4.2,0.5,6.2c8-3.8,15.6-8,22.1-13.5
				c-4.4-5.5-6.6-10-6.6-13.4c0-2.9,3.7-7.6,11-14.1c7.3-6.5,12.6-9.7,15.8-9.7c8.6,0,12.8,3.2,12.8,9.5c0,9.2-10.4,19.2-31.3,29.9
				c-0.6-0.7-1.2-1.5-1.8-2.2c-6.6,5.5-14.2,9.7-22.1,13.5c0.2,1,0.4,2.1,0.7,3.1L206,423.8c9.7-6.9,19-14.4,27.8-22.4
				c9.9,11.6,17.7,19.6,23.4,23.8c9,6.7,20,10.4,31.3,10.3c18.4,0.1,36.4-5.3,51.8-15.4l12.7-47.2
				C335,386.7,315.6,393.6,294.8,393.6z"/>
			<path d="M309.1,201.2c1.9-8.3,3.3-14.6,4.1-18.8c-23.8,14.7-42.3,24.7-55.7,30c-10.1,20-15.1,32.1-15.1,36.4l0.2,2.9
				C283.9,231.2,306,214.4,309.1,201.2z"/>
			<path d="M466.5,242.7c-1.3-4.4-4.3-8-9-10.8c-4.4-2.1-8.8-4.1-13.2-6.1c-12.2,17.7-19.7,29.3-22.5,34.7l21.7,15.1
				C450,271.4,457.6,260.4,466.5,242.7z"/>
			<path d="M446.8,401.4c-6.7,0-11.4-0.9-14.2-2.7c12.7-17.4,19-32.1,19-43.9c0-2.8-0.2-5.6-0.7-8.3c-9.1,10.4-18.1,20.7-26.9,30.8
				l-12.2,45.3l6.6-5.2c6.5,12,16.8,18,30.8,18c13.2,0,26.6-5,40.3-15l12.5-46.5c-6.5,6.5-15.1,12.6-25.6,18.3
				C464.5,398.3,454.6,401.4,446.8,401.4z"/>
			<path d="M814.8,215.1c-11.2-35.8-26.2-70.4-44.8-103c-10.1,30.3-15.1,75.6-15.1,136c0,32.5,2.7,49.3,8,50.3
				c3.7-1.8,5.5-11.1,5.5-28.1c0-9.1,2.1-29.3,6.3-60.5c8.2,15.5,17,36.2,26.5,62.3c10.8,29.8,16.2,50.8,16.2,63
				c0,17.1-5.1,34-15.4,50.8c-6,9.9-17.2,24-33.5,42.2l-21.3,22.2c-8.3,9-14.2,17.1-17.8,24.4c0.2,1.3,1,2,2.4,2s4.9-1,10.2-2.9
				c38-13.8,63.3-32.1,75.8-54.9c10.6-19,15.8-50.2,15.8-93.5C833.7,292.3,827.4,255.6,814.8,215.1z"/>
			<path d="M747.1,93.8c0-4.9-2.9-7.3-8.8-7.3c-8.1,0-12.2-1.1-12.2-3.4c0-4.1,2.4-6.1,7.3-6.1c1.7,0,3.3,0.3,4.9,1
				c1.6-1.1,4-4.6,7-10.3c3-5.7,4.8-9.8,5.3-12.2c-1.7-0.9-3.5-1.5-5.4-1.7c-6.9,0-14.8,5.9-23.8,17.8s-13.5,21.3-13.5,28.3
				c0,6.4,3.2,9.4,9.7,9.3c5.1-0.2,7.9,0.2,8.4,1.2c-2.6,3.6-11.2,8.1-25.6,13.4L670.4,134c0,2,1,2.9,3.2,2.9
				c13.7,0,28.6-3.8,44.9-11.5C737.5,116.4,747.1,105.8,747.1,93.8z"/>
		</g>
	</g>
</g>
</svg>
