<?xml version="1.0" encoding="utf-8"?>
<!-- Generator: Adobe Illustrator 22.1.0, SVG Export Plug-In . SVG Version: 6.00 Build 0)  -->
<svg version="1.1" id="Layer_1" xmlns="http://www.w3.org/2000/svg" xmlns:xlink="http://www.w3.org/1999/xlink" x="0px" y="0px"
	 viewBox="0 0 772.2 625" style="enable-background:new 0 0 772.2 625;" xml:space="preserve">
<title>EH-Asset 82-layername</title>
<g id="Layer_2_1_">
	<g id="ElAfuww">
		<g>
			<path d="M324.7,401.6L312.3,448c-10.4,8.3-29.2,18.3-56.4,29.8c-5.5,24.3-18.5,50.3-39.1,78c-21.5,29-43,48.2-64.5,57.5
				c-18.1,7.8-40.8,11.7-68.1,11.7c-10.4,0-25.9-1.7-46.4-5.2c-24.4-4-37-8.2-37.8-12.6l2-1.5c4.9,0.2,12.6,1.1,23.2,2.9
				c10.1,1.6,17.9,2.4,23.4,2.4c11.2,0,27.7-3.2,49.3-9.5c47-13.8,87.8-41.1,122.3-81.8c12-14.2,18.9-26.5,20.5-37.1
				c-14.2,3.9-23.7,5.9-28.6,5.9c-14.8,0-22.2-4.9-22.2-14.6c0-10.3,4.2-23.2,12.4-38.8c9.3-17.4,18.5-26.1,27.6-26.1
				c8,0,15.1,3.1,21.4,9.3c6.2,6.2,9.4,13.3,9.4,21.2C288.1,427.9,309.4,415.3,324.7,401.6z"/>
			<path d="M376.2,10.5c0-7-4-10.5-12.2-10.5c-8.1,0-16.8,5.7-26,17c-1.5,1.9-2.9,3.7-4.2,5.4c2.5,1,4.9,2.3,7.2,3.7
				c0.5-1.4,1.2-2.8,2.2-3.9l3.7-1.5c6.4,0,9.7,3.8,9.7,11.3c0,3-1.5,7-4.5,12c-7.8-6.4-11.6-11.2-11.6-14.4c0-1.2,0.2-2.3,0.5-3.4
				c-2.3-1.4-4.7-2.7-7.2-3.7c-6.5,9.1-9.7,17.1-9.7,24.2c0,4.7,3.2,10.2,9.6,16.4c-21.6,15.8-42.4,28.5-62.3,38.1
				c6.4,2,10.8,2.9,13.4,2.9c13.2,0,32.4-11.8,57.6-35.3c5.1,4.6,10.5,8.8,16.1,12.7l8.5-24.1l-7.5-7.3
				C370.8,35.7,376.2,22.5,376.2,10.5z"/>
			<path d="M500.7,126.5c-3.4,11.1-8.1,18.1-14.2,21l-85.5,42c2.6-10.1,10.3-18.3,23-24.7L500.7,126.5z"/>
			<path d="M560.8,400.6l-12.7,47.3c-14.2,9.2-27.6,13.7-40.3,13.7c-20.1,0-34.3-15.1-42.5-45.2c-15.4,16.4-27.7,27.7-37.1,34.1
				l12.3-45.3l8.1-8.3c-3.2-3.4-7.6-5.4-12.3-5.4c-8,0-13.2,0.5-15.7,1.5c0-4.5,2.8-14,8.3-28.4c2.3-5.5,4.9-10.8,7.8-16
				c5.9-6.3,22.4-9.5,49.6-9.5c19,0,28.6,5.2,28.6,15.6c0,9.4-8.1,22.9-24.2,40.4c4.4,17,13.7,25.6,27.8,25.5
				C531.6,420.7,545.6,414,560.8,400.6z"/>
			<path d="M580.3,35.9c-4.4-5.4-9.5-8.1-15.2-8.1c-12.7,0-24.2,6.8-34.3,20.3c-2.3,3.1-4.3,6.1-6.1,9.3c2.4,0.6,4.8,1.3,7.2,2
				c0.8-1.4,1.9-2.8,3.1-4.2c4-4.5,8.5-6.7,13.4-6.7c3.9,0,8.5,2.4,13.9,7c5.3,4.6,8,8.9,8,12.9c0,7.8-7.4,11.6-22.1,11.6
				c-12.8,0-19.2-3.5-19.2-10.7c0-3.4,1-6.8,2.9-10c-2.4-0.7-4.8-1.4-7.2-2c-5.3,9.5-7.9,19.1-7.9,29.1c0,11.7,6.7,17.6,20.1,17.6
				c12.7,0,24.1-5.4,34.2-16.3c10-10.9,15.1-22.7,15.1-35.4C586.2,46.3,584.1,40.5,580.3,35.9z"/>
			<path d="M633.3,248.3c0,45.9-5.8,83.8-17.3,113.8c-14,35.8-37.9,65.4-71.8,88.9l12.2-45.7c41.5-33.2,62.3-66.6,62.3-100.1
				c0-25.1-7.9-55.4-23.7-91.1c-3.1,15.9-7.6,39.8-13.8,71.5c-2.6,13.7-4.8,20.5-6.5,20.5l-2.2-0.7l-0.5-3.2
				c0-13.2,3.4-37.9,10.2-74.2c7.1-39.2,13.3-61.8,18.5-67.6c8.9,5.5,16.8,19,23.6,40.3C630.3,219.1,633.3,234.9,633.3,248.3z"/>
			<path d="M681.2,41c-3.4,11.1-8.2,18.1-14.2,21l-85.5,42c2.6-10.1,10.3-18.3,23-24.7L681.2,41z"/>
			<path d="M160.2,154.7l-7.3-5.4c9.8-10.3,14.7-17.5,14.6-21.6c-0.1-4.1-1.5-8-4.1-11.1c-2.7-3.5-5.9-5.3-9.6-5.3
				c-6.5,0-13.2,2.5-19.9,7.5c1,1.7,2.1,3.3,3.1,5c1.3-1.2,3.2-1.8,5.7-1.8c5.1,2,7.7,4.9,7.7,8.8c0,3.7-1.8,8.3-5.3,13.6
				c-7-5.5-10.6-10-10.6-13.4c0-3.3,0.8-5.7,2.5-7.2c-1.1-1.7-2.1-3.4-3.1-5c-1.8,1.4-3.7,2.9-5.5,4.6c-8.6,8.1-13,16.2-13,24.4
				l1,5.9c1.9,3,4.1,5.7,6.5,8.3c-19.4,11.4-38.5,19.4-57.4,24c5.6,3.3,10.4,4.9,14.4,4.9c10.4,0,27.7-8,51.9-23.9
				c10.4,4.6,18.8,6.9,25,7.1c2.6-8.3,3.8-13.6,3.7-15.7L160.2,154.7z"/>
			<path d="M119.6,211.3c-6.3,0-9.3-3.8-9-11.4l0.2-4.9l-6.3,1.4c-12.1,19.2-21.8,28.9-29.3,28.9c-5.2,0-7.8-3-7.8-9l1.7-10.9
				L64,206c-8,10.9-12,20.7-12,29.4l1.7,8.6c3.4,4.4,7.5,6.6,12.2,6.6c12.7,0,22.8-6.6,30.5-19.7c3.9,4.2,7.1,6.2,9.7,6.2
				c21.6,0,36.9-17.5,46-52.5L146,186C137.4,202.9,128.6,211.3,119.6,211.3z"/>
			<path d="M381.1,240.2c0-2.4-3.3-5.7-9.8-9.8c-2.9-1.8-7.1-4.1-12.7-6.8l-22.2,34.4l21.7,15.1C365,268,372.6,257,381.1,240.2z"/>
			<path d="M386.3,421.4c-20.2,0-33.1-4.2-38.8-12.5c22.4-25.7,33.6-46.5,33.5-62.3c0-20.7-4.7-31-14.1-31
				c-4.5,0-11.4,3.6-20.4,10.8S329,344,321.3,357.7c-8.3,14.7-12.4,27.2-12.4,37.7c0,3.1,0.3,6.2,1,9.3l-1.6,6
				c8.9-6,16.4-14.1,23.3-22.6c-4.3-5.5-6.5-9.9-6.5-13.4c0-2.9,3.7-7.6,11.1-14.1c7.4-6.5,12.6-9.7,15.7-9.7
				c8.5,0,12.8,3.2,12.8,9.5c0,9.2-10.4,19.2-31.2,29.9c-0.6-0.7-1.2-1.5-1.8-2.2c-6.9,8.6-14.4,16.7-23.3,22.6l-10.9,40.9
				c9.7-6.9,19-14.4,27.8-22.3c9.9,11.6,17.7,19.6,23.4,23.8c9,6.7,20,10.4,31.3,10.3c18.4,0.1,36.4-5.3,51.7-15.4l12.7-47.3
				C426.5,414.5,407.1,421.4,386.3,421.4z"/>
			<path d="M753.2,242.9c-11.2-35.8-26.2-70.4-44.8-103c-10.1,30.3-15.1,75.6-15.1,136c0,32.6,2.7,49.3,8,50.3
				c3.7-1.8,5.5-11.2,5.5-28.1c0-9.1,2.1-29.3,6.3-60.6c8.2,15.5,17,36.2,26.5,62.2c10.8,29.8,16.2,50.8,16.2,63
				c0,17.1-5.1,34-15.4,50.8c-6,9.9-17.2,24-33.5,42.2L685.8,478c-8.3,9-14.2,17.1-17.8,24.4c0.2,1.3,1,2,2.4,2s4.9-1,10.2-2.9
				c38-13.8,63.3-32.1,75.8-54.9c10.5-19,15.8-50.2,15.8-93.5C772.2,320.1,765.9,283.4,753.2,242.9z"/>
			<path d="M685.5,121.6c0-4.9-2.9-7.3-8.8-7.3c-8.1,0-12.2-1.1-12.2-3.4c0-4.1,2.4-6.1,7.3-6.1c1.7,0,3.3,0.3,4.9,1
				c1.6-1.1,4-4.6,7-10.3c3-5.7,4.8-9.8,5.2-12.2c-1.7-0.9-3.5-1.5-5.4-1.7c-6.9,0-14.8,5.9-23.8,17.8c-9,11.9-13.5,21.3-13.5,28.3
				c0,6.3,3.2,9.4,9.7,9.3c5.1-0.2,7.9,0.3,8.4,1.2c-2.6,3.6-11.1,8.1-25.6,13.4l-29.8,10.3c0,1.9,1.1,2.9,3.2,2.9
				c13.7,0,28.6-3.8,44.9-11.5C676,144.2,685.5,133.6,685.5,121.6z"/>
		</g>
	</g>
</g>
</svg>
