<?xml version="1.0" encoding="utf-8"?>
<!-- Generator: Adobe Illustrator 22.1.0, SVG Export Plug-In . SVG Version: 6.00 Build 0)  -->
<svg version="1.1" id="Layer_1" xmlns="http://www.w3.org/2000/svg" xmlns:xlink="http://www.w3.org/1999/xlink" x="0px" y="0px"
	 viewBox="0 0 1015.5 621.3" style="enable-background:new 0 0 1015.5 621.3;" xml:space="preserve">
<title>EH-Asset 83-layername</title>
<g id="Layer_2_1_">
	<g id="ErReuf">
		<g>
			<path d="M104.6,54.9c0-7-4-10.5-12.2-10.5c-6.7,0-13.9,4-21.4,11.8c1.2,3.1,2.4,6.2,3.6,9.3l0.8-0.3c6.4,0,9.7,3.8,9.7,11.3
				c0,2.9-1.5,6.9-4.5,12C72.9,82.1,69,77.3,69,74c0-2.7,0.9-5.3,2.7-7.4l2.9-1.1c-1.2-3.1-2.3-6.2-3.6-9.3c-1.5,1.6-3,3.3-4.6,5.2
				c-9.2,11.3-13.9,21.2-13.9,29.7c0,4.7,3.2,10.2,9.6,16.4C40.6,123.2,19.9,135.9,0,145.5c6.3,2,10.8,2.9,13.4,2.9
				c13.2,0,32.4-11.8,57.6-35.3c5.1,4.6,10.5,8.8,16.1,12.7l8.5-24.1l-7.5-7.3C99.2,80.1,104.6,67,104.6,54.9z"/>
			<path d="M469.6,335c0,6.8-5,21.3-15.1,43.5c-6.2,13.7-11.6,23.7-16.4,30c-25.7,34.8-69.9,65.6-132.7,92.3
				c-59.2,25.1-112.2,37.6-159.1,37.6c-77.6,0-116.4-30.2-116.4-90.6c0-27.3,9.5-52.2,28.6-74.7c15.5-18.2,35.3-33,59.6-44.4
				c16.9-8,42.7-16.1,77.4-24.2c44.1-10.2,70.6-16.8,79.6-19.8c41.7-13.2,77.8-33.1,108.4-59.6c-4.9-3.1-11.5-7.9-19.8-14.4
				c5.5-7.7,14.3-18.3,26.1-32c5,2.6,9.9,5.4,14.7,8.6c6.7,4.6,10.1,8.6,10.3,12.2L404.4,217c-5.1,7.6-9.5,12.4-13.2,14.2l-4.1-3.7
				c-35.8,35.2-72.3,58.2-109.4,69.1l-72.3,20.5c-32.1,9.4-58.4,18.6-78.9,27.6c-50.2,22-75.2,49.8-75.2,83.5
				c0,27,14.9,46.6,44.7,58.6c21.2,8.8,47.6,13.2,79.4,13.2c39.9,0,89.2-12.9,148-38.6c63-27.7,103.5-56.9,121.4-87.5
				c1-1.5,1.5-3.3,1.5-5.1c0-6.5-2.5-11.5-7.6-14.9c-6.9,9.8-16.5,14.7-29.1,14.6c-7.7,0-12.3-2.4-13.9-7.1
				c2.6-11.2,7.6-23.8,15.1-37.8c9.2-17.6,17.6-26.4,25.1-26.4c6,0,13.1,4.5,21.4,13.4S469.6,327.7,469.6,335z"/>
			<path d="M643.2,28.1c0-7-4.1-10.5-12.2-10.5c-8.1,0-16.8,5.7-26,17c-0.7,0.9-1.4,1.8-2.1,2.7c2.1,1.5,4,3.1,5.8,4.9
				c0.4-0.8,0.9-1.6,1.5-2.3l3.7-1.5c6.4,0,9.7,3.8,9.7,11.3c0,2.9-1.5,6.9-4.5,12c-7.8-6.4-11.7-11.2-11.7-14.4
				c0-1.8,0.4-3.5,1.2-5.1c-1.8-1.7-3.7-3.3-5.8-4.9c-7.8,10.2-11.7,19.2-11.7,27c0,4.7,3.2,10.2,9.6,16.4
				c-21.6,15.8-42.4,28.5-62.3,38.1c6.4,2,10.8,2.9,13.4,2.9c13.2,0,32.4-11.7,57.6-35.3c5.1,4.6,10.5,8.8,16.1,12.7l8.5-24.2
				l-7.5-7.3C637.7,53.2,643.2,40.1,643.2,28.1z"/>
			<path d="M673.5,168.7c-6.2,0-9.3-5.9-9.3-17.8l-5.9,1.5c-12.4,21.6-22.4,32.5-30,32.5c-5.7,0-8.5-3.8-8.5-11.5l0.7-7.6l-8.5,4.6
				c-4.6,12.4-6.8,20.8-6.8,25.3c0,9.2,4.7,13.8,14.2,13.8c10.9,0,21.3-7.1,31.1-21.1c5.9,4.2,10.7,6.3,14.4,6.3
				c11.8,0,21.5-7.1,29.1-21.2c5.7-10.4,9.4-22.6,11-36.6l-7.6,2.2C690.9,158.8,682.9,168.7,673.5,168.7z"/>
			<path d="M711.1,113l-69.6,24.4c-10.9,3.8-19.9,11.2-27.1,22.5l79.8-28.3C700.7,129.3,706.4,123.1,711.1,113z"/>
			<path d="M803.1,360.8L790.4,408c-20.2,11.7-34.3,20.3-42.2,25.6c-19,12.7-30.7,23.2-34.9,31.5c-13,28.2-26,56.2-39.1,84.2
				c-18.9,35.8-38.6,57.1-59.1,64c-15.6,5.3-32.8,8-51.5,8c-37.6,0-61.8-3.2-72.5-9.5l-0.7-1.2l2-2.2c10.5,2,21.3,3,32,2.9
				c30,0,58.3-9.6,85-28.8c23.6-17.2,43.5-40,59.8-68.4c1.1-2.1,8.9-17.4,23.2-45.9c9.3-18.6,18.3-33.1,27-43.6
				c8.7-10.5,22.5-21.6,41.4-33.3C781.7,378.3,795.8,368.2,803.1,360.8z"/>
			<path d="M876.6,207.3c0,45.9-5.8,83.8-17.3,113.8c-14,35.8-37.9,65.4-71.8,88.9l12.2-45.6c41.5-33.2,62.3-66.6,62.3-100.1
				c0-25.1-7.9-55.4-23.7-91.1c-3.1,16-7.7,39.8-13.8,71.5c-2.6,13.7-4.8,20.5-6.5,20.5l-2.2-0.7l-0.5-3.2
				c0-13.2,3.4-37.9,10.2-74.2c7.1-39.2,13.3-61.8,18.5-67.6c8.9,5.5,16.8,19,23.6,40.3C873.6,178.1,876.6,193.9,876.6,207.3z"/>
			<path d="M924.5,0c-3.4,11.1-8.1,18.1-14.2,21l-85.5,42c2.6-10.1,10.3-18.3,23-24.7L924.5,0z"/>
			<path d="M550.7,201.6c13.7,0,28.6-3.8,44.9-11.5c19-9.1,28.6-19.7,28.6-31.8c0-4.9-2.9-7.4-8.8-7.4c-8.1,0-12.2-1.1-12.2-3.4
				c0-4.1,2.4-6.1,7.3-6.1c1.7,0,3.3,0.3,4.9,1c1.6-1.1,3.9-4.6,6.9-10.3c3-5.7,4.7-9.8,5.2-12.2c-1.7-0.9-3.5-1.5-5.4-1.7
				c-6.9,0-14.8,6-23.8,17.9c-9,11.9-13.5,21.4-13.5,28.4c0,6.3,3.2,9.4,9.7,9.3c5.1-0.2,7.9,0.3,8.4,1.2
				c-2.6,3.6-11.1,8.1-25.6,13.5l-29.8,10.3C547.5,200.6,548.6,201.6,550.7,201.6z"/>
			<path d="M603.7,239.8c-7.5,0-13.2,3.6-17.1,10.7c-12.9,23.3-19.3,40.4-19.3,51.3c-0.1,5.1,2.4,9.8,6.6,12.7
				c4.2,3.2,9.4,4.9,14.6,4.9c12.1,0,22.6-5,31.7-15.1c2.4,7,3.7,12.1,3.7,15.4c0,11.7-5.3,26.5-15.9,44.4
				c-15.3,26.1-35.9,49.5-61.9,70.2c-26,20.7-53.5,36.2-82.6,46.3c-9.4,3.3-23.7,7.3-42.7,12c-12.9,3.3-19.3,5.6-19.3,7.1
				c0,3.1,5.9,4.6,17.8,4.6c40.9,0,72.1-3.7,93.8-11c29.9-10.1,58.8-36.4,86.7-78.9c27-41.7,40.5-79.3,40.5-112.8
				C640.3,260.3,628.1,239.8,603.7,239.8z"/>
			<path d="M996.5,201.9c-11.2-35.8-26.2-70.4-44.8-103c-10.1,30.3-15.1,75.6-15.1,136c0,32.6,2.7,49.3,8,50.3
				c3.7-1.8,5.5-11.2,5.5-28.1c0-9.1,2.1-29.3,6.3-60.6c8.2,15.5,17,36.2,26.5,62.3c10.8,29.8,16.2,50.8,16.2,63
				c0,17.1-5.1,34-15.4,50.8c-6,9.9-17.2,24-33.5,42.2c-7,7.3-14.1,14.7-21.2,22.2c-8.3,8.9-14.2,17.1-17.8,24.4
				c0.1,1.2,1.1,2,2.2,2c0.1,0,0.1,0,0.2,0c1.5,0,4.9-1,10.2-2.9c38-13.8,63.3-32.1,75.8-54.9c10.6-19,15.8-50.2,15.8-93.5
				C1015.5,279.2,1009.2,242.4,996.5,201.9z"/>
			<path d="M928.9,80.6c0-4.9-2.9-7.3-8.8-7.3c-8.1,0-12.2-1.1-12.2-3.4c0-4.1,2.4-6.1,7.3-6.1c1.7,0,3.3,0.3,4.9,1
				c1.6-1.1,3.9-4.6,6.9-10.3s4.8-9.8,5.3-12.2c-1.7-0.9-3.5-1.5-5.4-1.7c-6.9,0-14.8,5.9-23.8,17.8s-13.5,21.3-13.5,28.3
				c0,6.3,3.2,9.4,9.7,9.3c5.1-0.2,7.9,0.2,8.4,1.2c-2.6,3.6-11.1,8.1-25.6,13.4l-29.8,10.3c0,2,1.1,2.9,3.2,2.9
				c13.7,0,28.6-3.8,44.9-11.5C919.3,103.2,928.9,92.6,928.9,80.6z"/>
		</g>
	</g>
</g>
</svg>
