<?xml version="1.0" encoding="utf-8"?>
<!-- Generator: Adobe Illustrator 22.1.0, SVG Export Plug-In . SVG Version: 6.00 Build 0)  -->
<svg version="1.1" id="Layer_1" xmlns="http://www.w3.org/2000/svg" xmlns:xlink="http://www.w3.org/1999/xlink" x="0px" y="0px"
	 viewBox="0 0 2694.4 688.5" style="enable-background:new 0 0 2694.4 688.5;" xml:space="preserve">
<title>EH-Asset 85-layername</title>
<g id="Layer_2_1_">
	<g id="ZulDzelaliWelIkram">
		<g>
			<path d="M99.6,625.5c-3.4,11.1-8.1,18.1-14.2,21L0,688.5c2.6-10.1,10.3-18.3,23-24.7L99.6,625.5z"/>
			<path d="M316.6,106.9c-5.4,38.7-27.2,76.5-65.4,113.3c-34.1,29.1-68.4,58.4-102.7,87.7C80,371.7,45.6,427.1,45.7,474.1
				c0,29.9,23.1,53.6,69.3,71c35.3,13.3,70.7,20,106.3,20c13.7,0,27.4-0.7,41-2.2l-3.7,3.9c-21.5,5.5-36,8.3-43.4,8.3
				c-48.3,0-87.9-6.8-118.7-20.5c-42.7-18.7-64-49.1-64-91.1c0-55,32.5-113.8,97.4-176.3c23.6-22.6,58.6-51.8,105-87.4
				c-1-1.5-1.5-4.4-1.5-8.8c0-2.6,2.9-13.4,8.8-32.5c15.8,0,29.1-4.3,40-12.9c6.7-5,13.7-13.1,21-24.2
				C309.2,112.3,313.7,107.4,316.6,106.9z"/>
			<path d="M416.3,325.2c0,43.3-5.2,74.5-15.6,93.5c-12.5,22.8-37.8,41.1-75.9,54.9c-5.4,2-8.8,2.9-10.3,2.9
				c-1.2,0.2-2.2-0.6-2.4-1.8c0-0.1,0-0.1,0-0.2c3.6-7.3,9.5-15.5,17.8-24.4l21.2-22.2c16.3-18.2,27.4-32.3,33.5-42.2
				c10.3-16.8,15.4-33.7,15.4-50.8c0-12.2-5.4-33.2-16.2-63c-9.5-26-18.3-46.8-26.5-62.3c-4.2,31.3-6.3,51.4-6.3,60.5
				c0,16.9-1.8,26.3-5.5,28.1c-5.3-1-8-17.7-8-50.3c0-60.4,5-105.7,15.1-136c18.6,32.6,33.6,67.2,44.8,103
				C409.9,255.6,416.3,292.3,416.3,325.2z"/>
			<path d="M475.6,159.7c-3.4,11.1-8.1,18.1-14.2,21l-85.5,42c2.6-10.1,10.3-18.3,23-24.7L475.6,159.7z"/>
			<path d="M574,374l-12.7,47.1c-20.2,11.7-34.3,20.3-42.3,25.7c-19,12.7-30.7,23.2-34.9,31.5c-13,28.2-26,56.2-39.1,84.2
				c-18.9,35.8-38.6,57.1-59.1,64c-15.6,5.3-32.8,8-51.5,8c-37.6,0-61.8-3.2-72.5-9.5l-0.7-1.2l2-2.2c10.5,2,21.3,3,32,2.9
				c30,0,58.3-9.6,85-28.8c23.6-17.2,43.5-40,59.8-68.4c1.1-2.1,8.9-17.4,23.2-45.9c9.3-18.6,18.3-33.1,27-43.6s22.5-21.6,41.4-33.3
				C552.5,391.5,566.7,381.3,574,374z"/>
			<path d="M594.5,8.1C590.1,2.7,585,0,579.3,0c-12.7,0-24.2,6.8-34.3,20.3c-0.9,1.2-1.8,2.4-2.6,3.6c2.3,1.2,4.5,2.4,6.5,3.9
				c0.1-0.1,0.2-0.2,0.2-0.3c4-4.5,8.5-6.7,13.4-6.7c3.9,0,8.5,2.3,13.9,6.9s8,8.9,8,12.9c0,7.8-7.4,11.7-22.1,11.7
				c-12.8,0-19.2-3.6-19.2-10.7c0-4.8,1.9-9.5,5.8-13.8c-2-1.4-4.2-2.7-6.5-3.9C534.8,35.1,531,46.7,531,58.6
				c0,11.7,6.7,17.6,20.1,17.6c12.7,0,24.1-5.4,34.2-16.4s15.1-22.7,15.1-35.4C600.3,18.4,598.2,12.7,594.5,8.1z"/>
			<path d="M691.9,613.3c-3.4,11.1-8.1,18.1-14.2,21l-85.4,42c2.6-10.1,10.2-18.3,22.9-24.7L691.9,613.3z"/>
			<path d="M864.3,20.3c-4.4-5.4-9.5-8-15.2-8c-12.7,0-24.2,6.8-34.3,20.3c-1.2,1.5-2.3,3.1-3.3,4.6c1.8,1.8,3.5,3.6,5.2,5.4
				c0.7-1,1.4-1.9,2.2-2.8c4-4.4,8.5-6.7,13.4-6.7c3.9,0,8.5,2.3,13.9,6.9c5.3,4.6,8,8.9,8,12.9c0,7.8-7.4,11.7-22.1,11.7
				c-12.8,0-19.2-3.5-19.2-10.7c0-3.9,1.3-7.7,3.8-11.3c-1.7-1.8-3.5-3.6-5.2-5.4c-7.2,10.9-10.7,22.2-10.7,33.7
				c0,11.7,6.7,17.6,20.1,17.6c12.7,0,24.1-5.5,34.2-16.4c10-10.9,15.1-22.7,15.1-35.4C870.1,30.7,868,24.9,864.3,20.3z"/>
			<path d="M1025.4,325.2c0,43.3-5.2,74.5-15.6,93.5c-12.5,22.8-37.8,41.1-75.9,54.9c-5.4,2-8.8,2.9-10.3,2.9
				c-1.2,0.2-2.2-0.6-2.4-1.8c0-0.1,0-0.1,0-0.2c3.6-7.3,9.5-15.5,17.8-24.4l21.2-22.2c16.3-18.2,27.4-32.3,33.5-42.2
				c10.2-16.8,15.3-33.7,15.3-50.8c0-12.2-5.4-33.2-16.2-63c-9.5-26-18.3-46.8-26.5-62.3c-4.2,31.2-6.3,51.4-6.3,60.5
				c0,16.9-1.9,26.3-5.5,28.1c-5.3-1-8-17.7-8-50.3c0-60.4,5-105.7,15.1-136c18.6,32.6,33.6,67.2,44.8,103
				C1019,255.6,1025.4,292.3,1025.4,325.2z"/>
			<path d="M1190.7,159.7c-3.4,11.1-8.1,18.1-14.2,21l-85.4,42c2.6-10.1,10.3-18.3,23-24.7L1190.7,159.7z"/>
			<path d="M1299.1,314.7c0,33.5-13.5,71.1-40.5,112.8c-27.8,42.5-56.7,68.8-86.7,78.9c-21.7,7.3-52.9,11-93.8,11
				c-11.9,0-17.8-1.5-17.8-4.6c0-1.5,6.4-3.8,19.3-7.1c19-4.7,33.3-8.7,42.7-12c29.1-10.1,56.7-25.5,82.6-46.3
				c26-20.8,46.6-44.2,61.9-70.2c10.6-17.9,15.9-32.7,15.9-44.4c0-3.2-1.2-8.4-3.7-15.4c-9.1,10.1-19.7,15.1-31.7,15.1
				c-5.3,0-10.4-1.7-14.7-4.9c-4.2-2.9-6.7-7.6-6.6-12.7c0-10.9,6.4-28,19.3-51.3c3.9-7.2,9.6-10.7,17.1-10.7
				C1286.9,252.9,1299.1,273.5,1299.1,314.7z"/>
			<path d="M1457.8,601.1c-3.4,11.1-8.1,18.1-14.2,21l-85.4,42c2.6-10.1,10.3-18.3,23-24.7L1457.8,601.1z"/>
			<path d="M1778.9,135l-2.2-1.7c-54.2,25.7-99.9,45.5-137.2,59.3c-0.5-1.9-1-3.8-1.5-5.7c-6.2,5.1-13.2,9.2-20.8,11.8
				c0.2,0.7,0.4,1.4,0.6,2.1l-27.8,12c0-47,1.1-71.9,3.4-74.7c5.5,9.7,10.2,20,13.9,30.5c2,5.3,5.3,15.3,9.9,30.2
				c7.6-2.5,14.6-6.6,20.8-11.8c-11.6-43.8-27.1-82.2-46.6-115.1c-9,28.3-13.6,57.7-13.7,87.4c0,8.6,0.2,19.2,0.5,31.7
				c0.2,13.7,0.3,22.5,0.3,26.6c-1.8,0.8-3.6,1.6-5.3,2.4c0,3.2,0.1,6.4,0,9.7c1.8-0.8,3.5-1.7,5.3-2.5c-0.5,21.5-1,43-1.7,64.5
				c-0.8,25.9-2.7,47.3-5.6,64.2l2.7,1.7l2.7-1.2c4.6-7.6,7.6-28.6,8.9-63c1.6-41.3,3-65.1,4.2-71.3l30.5-12.5
				c8.1,32.9,12.2,62.1,12.2,87.7c0,49.5-15.3,93.9-45.9,133.3c-30.6,39.4-66.1,59.1-106.6,59.1c-21.5,0-38.9-7.7-52.4-23
				c-12.7-14.6-19-32.9-19-54.7c0-43.3,23-83.8,69-121.6c30.4-24.9,62.3-45.1,95.6-60.8c0.1-3.2,0-6.5,0-9.7
				c-46,20.8-80.5,40.5-103.6,59.1c-20.6,16.5-38,36.6-51.3,59.3c-14.8,25.1-22.2,49.2-22.2,72.3c0,33.5,5.8,60.7,17.3,81.5
				c14.8,26.5,37.6,39.8,68.4,39.8c26.6,0,50.2-8.9,70.9-26.6c14.5-12.5,30.5-32.8,48.1-61c33.1-53.1,49.6-105.6,49.6-157.7
				c-0.2-28.6-3.3-57.2-9.3-85.2c45.7-18.5,91.3-39.7,136.7-63.5L1778.9,135z"/>
			<path d="M1880,25.4c-3.4,11.1-8.1,18.1-14.2,21l-85.4,42c2.6-10.1,10.3-18.3,23-24.7L1880,25.4z"/>
			<path d="M1881.6,389.9c-20,0-31.9-15.1-35.7-45.4c-0.5-22.6-1-45.3-1.4-68.1c-2.9-24.9-5.2-43.6-7-56.2
				c-5-36.3-9.1-55.8-12.1-58.6l-16.5,40.3c4.1,6.2,8.1,28.2,12,65.9c3.4,32.7,5.1,56.9,5.1,72.5c0,28.8-2.4,50-7.1,63.7
				c-22.1,64-47.4,96-75.7,96c-12.7,0-23.8-3.7-33.2-11c13.6-20.3,25.9-52.3,36.9-95.9c2.3-9,3.4-24.5,3.4-46.6
				c0-17.6-5.6-52-16.8-103.3c-10.2,18.7-21.6,44.4-34.2,76.9c-13.3,34.5-21.6,61.1-24.9,79.8c-1.6,9.1-2.4,27.5-2.4,55.2
				c0,9.7,1.8,20.8,5.4,33.1c6.3-5.1,12.3-10.3,16.8-16.6c-7.4-12.9-11.2-28.3-11.2-46.3c0-26.2,12.3-66.2,36.9-120.1
				c4.7,5.5,8.6,18.6,11.7,39.3c2.4,16.8,3.7,31.2,3.7,43.2c0,27.3-13.2,56.2-39.6,86.4c-0.5-0.8-1-1.7-1.5-2.5
				c-4.5,6.4-10.5,11.6-16.8,16.6c0.4,1.5,0.9,3,1.4,4.5c-29.1,28-65.4,47.4-108.9,57.9l-12.7,2.4c-6.5,1.5-9.8,3.2-9.8,5.1l0.3,1.2
				l2,0.2c61.9,0,108.4-15.2,139.6-45.7c13.7,18.7,30.2,28,49.5,28c25.4,0,47.3-19.3,65.9-58c9-18.6,19-48.6,30.3-90.2
				c7.5,26.1,18.9,39.1,34.4,39.1c10.4,0,20.7-4.3,30.8-12.9l12.4-46.2C1900.7,384.5,1890.4,389.9,1881.6,389.9z"/>
			<path d="M1969.1,159.7c-3.4,11.1-8.1,18.1-14.2,21l-85.4,42c2.6-10.1,10.3-18.3,23-24.7L1969.1,159.7z"/>
			<path d="M2138.7,8.1c-4.4-5.4-9.5-8.1-15.2-8.1c-12.7,0-24.2,6.8-34.3,20.3c-1.1,1.4-2.1,2.9-3.1,4.4c2.4,1,4.7,2.1,6.8,3.4
				c0.2-0.2,0.3-0.4,0.5-0.5c4-4.5,8.5-6.7,13.4-6.7c3.9,0,8.5,2.3,13.9,6.9c5.3,4.6,8,8.9,8,12.9c0,7.8-7.4,11.7-22.1,11.7
				c-12.8,0-19.2-3.6-19.2-10.7c0-4.8,1.9-9.3,5.5-13.6c-2.1-1.3-4.4-2.4-6.8-3.4c-7.3,11-10.9,22.3-10.9,34
				c0,11.7,6.7,17.6,20.1,17.6c12.7,0,24.1-5.4,34.2-16.4s15.1-22.7,15.1-35.4C2144.6,18.4,2142.5,12.7,2138.7,8.1z"/>
			<path d="M2191.7,220.5c0,45.9-5.8,83.8-17.3,113.8c-14,35.8-37.9,65.4-71.8,88.9l12.2-45.7c41.5-33.2,62.3-66.6,62.3-100.1
				c0-25.1-7.9-55.4-23.7-91.1c-3.1,15.9-7.7,39.8-13.8,71.5c-2.6,13.7-4.8,20.5-6.5,20.5l-2.2-0.7l-0.5-3.2
				c0-13.2,3.4-37.9,10.2-74.2c7.1-39.2,13.3-61.8,18.5-67.6c8.9,5.5,16.8,19,23.6,40.3C2188.7,191.3,2191.7,207.1,2191.7,220.5z"/>
			<path d="M2330.6,325.2c0,43.3-5.2,74.5-15.6,93.5c-12.5,22.8-37.8,41.1-75.9,54.9c-5.4,2-8.8,2.9-10.3,2.9c-1.5,0-2.3-0.6-2.4-2
				c3.6-7.3,9.5-15.5,17.8-24.4l21.2-22.2c16.3-18.2,27.4-32.3,33.4-42.2c10.3-16.8,15.4-33.7,15.4-50.8c0-12.2-5.4-33.2-16.2-63
				c-9.5-26-18.3-46.8-26.5-62.3c-4.2,31.3-6.3,51.4-6.3,60.5c0,16.9-1.9,26.3-5.6,28.1c-5.3-1-7.9-17.7-7.9-50.3
				c0-60.4,5-105.7,15.1-136c18.6,32.6,33.6,67.2,44.8,103C2324.3,255.6,2330.6,292.3,2330.6,325.2z"/>
			<path d="M2498.4,314.7c0,33.5-13.5,71.1-40.5,112.8c-27.8,42.5-56.7,68.8-86.7,78.9c-21.7,7.3-52.9,11-93.8,11
				c-11.9,0-17.8-1.5-17.8-4.6c0-1.5,6.4-3.8,19.3-7.1c19-4.7,33.3-8.7,42.7-12c29.1-10.1,56.7-25.5,82.6-46.3
				c26-20.8,46.6-44.2,61.9-70.2c10.6-17.9,15.9-32.7,15.9-44.4c0-3.2-1.2-8.4-3.7-15.4c-9.1,10.1-19.7,15.1-31.7,15.1
				c-5.3,0-10.4-1.7-14.6-4.9c-4.2-2.9-6.7-7.6-6.6-12.7c0-10.9,6.4-28,19.3-51.3c3.9-7.2,9.6-10.7,17.1-10.7
				C2486.2,252.9,2498.4,273.5,2498.4,314.7z"/>
			<path d="M2556.2,68.1c0-7-4.1-10.5-12.2-10.5c-8,0-16.6,5.6-25.7,16.6c1.9,1.7,3.6,3.5,5.2,5.5l3.4-1.3c6.4,0,9.7,3.8,9.7,11.3
				c0,2.9-1.5,6.9-4.5,12c-7.8-6.4-11.6-11.2-11.6-14.5c0-2.7,0.9-5.3,2.7-7.3l0.3-0.1c-1.6-2-3.3-3.8-5.2-5.5
				c-0.1,0.1-0.2,0.3-0.3,0.4c-9.2,11.3-13.9,21.2-13.9,29.7c0,4.7,3.2,10.2,9.6,16.4c-21.6,15.8-42.4,28.5-62.3,38.1
				c6.3,2,10.8,2.9,13.4,2.9c13.2,0,32.4-11.7,57.6-35.3c5.1,4.6,10.5,8.8,16.1,12.7l8.6-24.2l-7.5-7.3
				C2550.8,93.3,2556.2,80.1,2556.2,68.1z"/>
			<path d="M580.3,253.2c-7.5,20.4-11.2,33.9-11.2,40.5c0,2.4,0.2,5.7,0.5,9.8l1.2,1c3.7-2,7.1-7.9,10-17.8
				c3.6-11.7,6.3-18.8,8.1-21.2c10.4,13.5,15.6,31.7,15.6,54.7c0,11.2-3.6,21.9-10.7,32c-4.1,6-11.8,14.5-23.2,25.4l-12.2,45.6
				c28.7-21.8,46.6-48.9,53.8-81.3c5.4-24.6,8.2-40.9,8.2-49.1c0-12.2-1.4-26.6-4.3-43.2c-3.5-20.7-7.9-33.4-13.3-38.3
				c24.4-9,47.5-21.5,68.4-37.1c8.8-6.7,28.4-23.6,58.8-50.8c-3.6,4.7-9.5,19.9-17.8,45.7c-3.4,10.7-8.4,26.9-14.9,48.6l2.7-0.5
				l3.7-3.9c16.2-41.6,24.7-63.2,25.3-64.6c14.5-28.8,25.6-50.3,33.2-64.4c5.7-10.2,10-18.1,12.9-23.4c0.3-0.9,0.6-1.8,0.7-2.7
				c0-1.5-1-2.2-2.9-2.2l-3.4,1.2c-20.8,29.6-46.9,58-78.4,85c-34,29.5-66.1,50-96.4,61.8c-15,5.9-32.8,12-53.5,18.3l-1.7,2.9
				l1.5,1.7c17.1-2.1,36.1-6.8,57.1-13.9C593.4,220.5,587.5,234,580.3,253.2z"/>
			<path d="M703.4,360.9C703.4,360.9,703.4,360.9,703.4,360.9C703.4,360.8,703.4,360.8,703.4,360.9L703.4,360.9z"/>
			<path d="M833.9,136.9c-3.1,0-6.3,5-9.6,14.9c-18.6,57-27.9,118.2-27.9,183.6c0,2.3,0.8,3.4,2.4,3.4c2.4,0,4.5-5.4,6.1-16.1
				c0.8-7.2,1.6-14.2,2.4-21.2c2.6-18.7,8.1-46.2,16.4-82.5c15.8,17.3,23.7,41.8,23.7,73.5c-0.1,14-1.5,27.9-4.4,41.5
				c-4.6,22.6-15,47.7-31.3,75.2c-19.5,33.4-38,50.1-55.4,50c-12.2,0-23.4-8.9-33.5-26.6c32.9-56.7,49.3-116.8,49.3-180.4
				c0-14.2-3.8-47.3-11.5-99.4l-3.9-2.9l-2.2,2c-0.7,7.2-4.9,19.3-12.7,36.4l-17.5,37.1c-24.3,55-36.5,103.9-36.5,146.7
				c0,23.7,0.9,41.1,2.8,52.2c7.6-7,15.2-14.3,19.5-23.2c-4.4-13-6.8-26.6-6.9-40.3c0,0,0,0,0,0v0c0,0,0,0,0,0
				c0-30.1,13.7-73.6,41-130.6c7.3,18.2,11,35,11,50.3c0,42-15,82.4-44.9,121.1c-0.1-0.2-0.1-0.3-0.2-0.5
				c-4.3,8.9-11.9,16.2-19.5,23.2c0.1,0.3,0.1,0.7,0.2,1c-44.1,46.5-91.5,78.7-142.1,96.4l-4.2,4.4v1.2l2.2,1
				c9.4,0,24.6-2.8,45.4-8.3c47.3-12.5,84-32.5,110.1-60.1c8.5,16.7,16.3,28.6,23.5,35.7c10.8,10.7,23.6,16,38.6,16
				c16.5,0,35.2-22.2,56.2-66.6c16.5-34.5,27.7-65.2,33.7-92.2c8.3-37.1,12.5-63.5,12.5-79.3C866.9,231.6,855.9,186.1,833.9,136.9z"
				/>
			<path d="M667.5,565.9c1.7,0,3.3,0.3,4.9,1c1.6-1.1,4-4.6,7-10.3c3-5.7,4.8-9.8,5.3-12.2c-1.7-0.9-3.5-1.5-5.4-1.7
				c-6.9,0-14.8,5.9-23.8,17.8s-13.5,21.3-13.5,28.3c0,6.3,3.2,9.4,9.7,9.3c5.1-0.2,7.9,0.3,8.4,1.2c-2.6,3.6-11.2,8-25.6,13.4
				l-29.8,10.3c0,2,1.1,2.9,3.2,2.9c13.7,0,28.6-3.8,44.9-11.5c19-9.1,28.6-19.7,28.6-31.7c0-4.9-2.9-7.3-8.8-7.3
				c-8.1,0-12.2-1.1-12.2-3.4C660.2,568,662.6,565.9,667.5,565.9z"/>
			<path d="M1939.1,496.3c-13.5,20.4-21,31.8-22.5,34.4c7.2,5.5,14.4,10.7,21.8,15.4c10.1-12.9,17.7-23.9,22.8-33.2
				C1961.1,507.1,1953.8,501.5,1939.1,496.3z"/>
			<path d="M2050.3,396.4c-12.7,0-23.4-3.5-32-10.7c-9.3-7.7-13.9-17.7-13.9-30.3c0-6.6,0.6-13.3,1.7-19.8
				c17.4-15.5,42.6-26.5,75.4-33.2c7.5-10.6,12.7-23.7,15.6-39.3c-10.1,4.6-21.1,6.9-32.2,6.8c-7.3,0-18-2.1-31.9-6.2
				c-13.9-4.1-24.5-6.2-31.6-6.2c-27.4,0-47.8,12.4-61.2,37.1c-6.5,12.1-13.5,35-21,68.6c3.7-2.5,7.1-5.3,10.3-8.3
				c7.2-38.4,25-57.6,53.6-57.6c5.2,0,14.7,1.6,28.3,4.9c-13.5,6.2-27.9,14.9-43.2,26.2l0,0c-7.2,5.2-20.4,15.7-39.6,31.6
				c0.3-1.7,0.6-3.4,0.9-5.1c-3.2,3.1-6.7,5.9-10.3,8.3c-0.3,1.6-0.7,3.2-1,4.8l-9,8.5l-12.5,45.9c7.8-5.8,13.7-10.3,17.6-13.4
				l-2,30.3v30.5l1.2,1.2l1.2-0.7l2.2-4.1c-0.7-17.6,1.5-39.2,6.6-65c24.7-21.5,47.8-40.5,69.3-56.9c-2.9,13-4.4,23.7-4.4,32
				c0,17.4,5.1,32.1,15.3,44.1c10.8,12.7,24.8,19,42,19c19.9,0,39.8-6.2,59.8-18.5l12.4-46.5
				C2099.5,389.1,2076.9,396.4,2050.3,396.4z"/>
			<path d="M2685.6,276.6c-6.5-9.7-14.5-14.6-23.9-14.6c-12.2,0-31.2,6.1-56.9,18.3c-26.2,12.5-42,23.3-47.4,32.5
				c-2.9,4.9-6.8,14-11.7,27.3c-5.2,14-7.8,22.8-7.8,26.4c0,9.9,6.8,23.5,20.3,40.6c13.5,17.2,20.3,29,20.3,35.5l-1.7,14.4l2.2,2
				c3.6,0,6.9-4.8,9.9-14.4c2.5-8,3.7-14.4,3.7-19.3c0-17.6-2.8-32.7-8.4-45.2c-3.7-8.2-8.8-15.7-15.2-22.1
				c-5.6-5.5-8.4-8.7-8.4-9.5c0-8.1,11.9-17.6,35.6-28.4c21.6-9.8,37.2-14.7,46.6-14.7c8,0,15.5,3.7,22.5,11c7,7.3,10.5,15,10.5,23
				c0,11.6-10.3,31.4-31,59.4c-33.2,45.1-73.2,78.7-120.1,100.7c-24.4,11.4-47.8,18.2-70.3,20.3c-8.5,0.8-14.5,1.6-18.1,2.2l1,1.7
				c2.4,0.8,8.3,1.2,17.6,1.2c16.8,0,37.1-1.5,61-4.4c28.7-3.4,47.7-7.7,57.1-12.7c35.2-18.5,64.2-49.1,87.2-91.5
				c22.8-41.7,34.2-79,34.2-112.1C2694.4,294.4,2691.3,284.7,2685.6,276.6z"/>
			<path d="M2652.2,167.3c0-2.9-3.1-6.3-9.3-10c-4.2-2.4-8.6-4.6-13.1-6.4c-13.5,20.2-20.8,31.7-22.1,34.4l21.7,14.9
				C2636.2,194.9,2643.8,183.9,2652.2,167.3z"/>
		</g>
	</g>
</g>
</svg>
