<?xml version="1.0" encoding="utf-8"?>
<!-- Generator: Adobe Illustrator 22.1.0, SVG Export Plug-In . SVG Version: 6.00 Build 0)  -->
<svg version="1.1" id="Layer_1" xmlns="http://www.w3.org/2000/svg" xmlns:xlink="http://www.w3.org/1999/xlink" x="0px" y="0px"
	 viewBox="0 0 914.7 691.9" style="enable-background:new 0 0 914.7 691.9;" xml:space="preserve">
<title>EH-Asset 86-layername</title>
<g id="Layer_2_1_">
	<g id="ElMuqsit">
		<g>
			<path d="M104.6,10.5c0-7-4-10.5-12.2-10.5c-8.1,0-16.8,5.7-26,17c-0.3,0.3-0.5,0.7-0.8,1c2,1.5,3.8,3.1,5.5,4.9
				c0.2-0.2,0.4-0.5,0.6-0.7l3.7-1.5c6.4,0,9.7,3.8,9.7,11.3c0,3-1.5,7-4.5,12C72.9,37.6,69,32.8,69,29.6c0-2.4,0.7-4.7,2.1-6.7
				c-1.6-1.8-3.5-3.4-5.5-4.9c-8.7,10.9-13,20.4-13,28.6c0,4.7,3.2,10.2,9.6,16.4C40.6,78.8,19.9,91.5,0,101.1
				c6.3,2,10.8,2.9,13.4,2.9c13.2,0,32.4-11.8,57.6-35.3c5.1,4.6,10.5,8.8,16.1,12.7l8.5-24.1L88.2,50
				C99.2,35.7,104.6,22.5,104.6,10.5z"/>
			<path d="M254.5,430.6c-24.5,13.7-40.9,21.6-49,23.9c24.9-21.2,42-48.7,51.5-82.5c3.2-11.7,4.9-19.6,4.9-23.7
				c0-6-0.6-10.7-1.9-14.2c-10.2,0-33.1,10.3-68.6,31c3.2-5.4,7.4-19.5,12.5-42.5c5-22.3,7.5-37.3,7.5-44.9
				c-0.1-20.7-1.6-41.3-4.4-61.8c-4.1-29.8-9.5-49.2-16.4-58.3c-13.2,23.9-25.6,58-37.3,102.3c-8.8,36.1-17.5,72.2-26.1,108.1
				l0.5,2.2c3.8-1,6.8-4.3,9-10c1.6-6.2,2.8-10.9,3.4-14.2c11.8-43.5,23.5-83.6,35.1-120.4c3.6,6.4,7.3,20.4,11,42
				c3.4,19.9,5.1,34.7,5.1,44.4c0,17.9-4.5,39.8-13.5,65.7c-12,14.1-23.5,41.1-34.3,80.9c4.4-1.3,8.7-2.8,12.7-5
				c8.4-21.6,16.8-36.1,24.9-43.4c8.9-8,26.7-16,53.2-24c-5.5,26.7-32.4,51.3-80.6,73.7c0.8-2.2,1.6-4.3,2.4-6.3
				c-4,2.1-8.3,3.7-12.7,5c-0.7,2.5-1.3,5-2,7.5c-24.7,12.5-46.9,20.4-66.4,23.9c-22.1,3.3-39.1,5.7-50.8,7.1c-4,1.2-6.7,3-8,5.5
				l1,2.2c12.1,2.2,24.3,3.3,36.6,3.3c29,0,54.8-1.9,77.4-5.6l-5.1,22l2,1.2c5.6-9.8,9.4-18.1,11.2-24.9
				c74.3-17.2,124-35,149.2-53.3l12.5-46.1C294.6,407.3,279.1,417,254.5,430.6z"/>
			<path d="M356.8,628.9c-3.4,11.1-8.1,18.1-14.2,21l-85.4,42c2.6-10.1,10.2-18.3,22.9-24.7L356.8,628.9z"/>
			<path d="M453.5,401.8L440.8,449c-11.9,8.8-26.6,13.2-44.2,13.2c-13.7,0-24.6-4.9-32.7-14.6c-7.5-9.1-11.2-20.4-11.2-34
				c0-3.4,0.2-6.9,0.7-10.3l-5.4,1c-5.3,8.9-12.1,16.7-20.2,23.1c-10.1,7.8-19.3,11.2-27.7,10.2c-4.8,4.6-10,8.9-15.4,12.8l12.5-46
				c4.2-2.6,7.9-8.1,11.1-16.4c3.5-9.3,6.6-15.2,9.2-17.8l1.9,0.7c-0.3,6.9-1,13.7-2,20.5c3.6,0,9.5-3.9,17.7-11.7
				c7-6.7,11.8-12.2,14.2-16.6c1.5-2.8,3.8-9.5,7.1-20.3c0.7-2.4,2.5-5,5.4-7.6l1.5,1.5l0.5,11.2c0,1.1-0.5,4.9-1.5,11.2
				c1.6,0,5.1-2,10.5-5.9c6-4.4,12.2-13.1,18.5-26.1c5.9-12.4,9.1-18.7,9.8-19l1.2,1.5v4.9c0,14.2-3.7,29.7-11,46.6
				c-8,18.4-17.4,31-28.3,37.9c1.6,17.7,12.9,26.6,33.9,26.6C416.8,425.6,435.6,417.6,453.5,401.8z"/>
			<path d="M474,35.9c-4.4-5.4-9.5-8.1-15.2-8.1c-12.7,0-24.2,6.8-34.3,20.3c-2.5,3.3-4.6,6.6-6.4,9.9c2.1,1.2,4.2,2.4,6.3,3.6
				c1-2.2,2.4-4.3,4.3-6.4c4-4.5,8.5-6.7,13.4-6.7c3.9,0,8.5,2.4,13.9,7c5.3,4.6,8,8.9,8,12.9c0,7.8-7.4,11.6-22.1,11.6
				c-12.8,0-19.2-3.5-19.2-10.7c0-2.7,0.6-5.2,1.7-7.8c-2.1-1.2-4.2-2.4-6.3-3.6c-5.1,9.3-7.6,18.7-7.6,28.4
				c0,11.7,6.7,17.6,20.1,17.6c12.7,0,24.1-5.4,34.2-16.3c10-10.9,15.1-22.7,15.1-35.4C479.9,46.3,477.8,40.5,474,35.9z"/>
			<path d="M645.2,95.9c0-7-4-10.5-12.1-10.5c-7.8,0-16.2,5.3-25,15.8c1.9,1.8,3.7,3.8,5.2,6l2.7-1.1c6.4,0,9.7,3.8,9.7,11.3h0
				c0,2.9-1.5,6.9-4.5,12c-7.8-6.4-11.7-11.2-11.7-14.4c0-2.7,0.9-5.3,2.7-7.4l1-0.4c-1.5-2.2-3.3-4.2-5.2-6c-0.3,0.4-0.6,0.8-1,1.2
				c-9.2,11.3-13.8,21.2-13.8,29.7c0,4.7,3.2,10.2,9.6,16.4c-21.6,15.8-42.4,28.5-62.3,38.1c6.3,2,10.8,2.9,13.4,2.9
				c13.2,0,32.4-11.7,57.6-35.3c5.1,4.6,10.5,8.8,16.1,12.7l8.5-24.1l-7.5-7.3C639.7,121.1,645.2,107.9,645.2,95.9z"/>
			<path d="M701.8,402.3l-12.5,46.4c-5.8,3.7-12.5,5.6-19.3,5.6c-11.6,0-20.7-5.1-27.3-15.3c-13.7,16.9-22.2,25.4-25.6,25.4
				c-3.7,0-9.3-4.3-16.6-12.9c-6.8-8-10.9-14.3-12.2-18.8c-3.7,5-10.7,11-21,18l12.2-45.4c7.5-7,18.7-17.4,33.7-31.3
				c1.6,0,9.7,6.1,24.2,18.3s26.8,18.3,37.1,18.3C684.2,410.8,693.8,407.9,701.8,402.3z"/>
			<path d="M722.8,35.9c-4.4-5.4-9.5-8.1-15.2-8.1c-12.7,0-24.2,6.8-34.3,20.3c-0.6,0.8-1.1,1.5-1.7,2.3c2.2,1.3,4.3,2.7,6.4,4.3
				c3.9-4.1,8.2-6.2,12.9-6.2c3.9,0,8.5,2.4,13.9,7c5.3,4.6,8,8.9,8,12.9c0,7.8-7.4,11.6-22.1,11.6c-12.8,0-19.2-3.5-19.2-10.7
				c0-5,2-9.7,6-14.1c0.2-0.2,0.4-0.4,0.5-0.5c-2.1-1.6-4.2-3-6.4-4.3c-8.2,11.6-12.3,23.7-12.3,36c0,11.7,6.7,17.6,20.1,17.6
				c12.7,0,24.1-5.4,34.2-16.3c10-10.9,15.1-22.7,15.1-35.4C728.6,46.3,726.6,40.5,722.8,35.9z"/>
			<path d="M775.8,248.3c0,45.9-5.8,83.8-17.3,113.8c-14,35.8-37.9,65.4-71.8,88.9l12.2-45.7c41.5-33.2,62.3-66.6,62.3-100.1
				c0-25.1-7.9-55.4-23.7-91.1c-3.1,15.9-7.7,39.8-13.8,71.5c-2.6,13.7-4.8,20.5-6.5,20.5l-2.2-0.7l-0.5-3.2
				c0-13.2,3.4-37.9,10.2-74.2c7.1-39.2,13.3-61.8,18.5-67.6c8.9,5.5,16.8,19,23.6,40.3C772.8,219.1,775.8,234.9,775.8,248.3z"/>
			<path d="M823.6,41c-3.4,11.1-8.1,18.1-14.2,21L724,104c2.6-10.1,10.3-18.3,23-24.7L823.6,41z"/>
			<path d="M525.7,421.4c-20.2,0-33.1-4.2-38.8-12.5c22.4-25.7,33.5-46.5,33.5-62.3c0-20.7-4.7-31-14.1-31
				c-4.5,0-11.3,3.6-20.4,10.8c-9.1,7.2-17.5,17.6-25.3,31.3c-8.3,14.7-12.4,27.2-12.4,37.7c0,2.4,0.2,4.9,0.7,7.2
				c7.5-4.6,14.5-9.9,21-15.7c-3.7-4.9-5.6-9-5.6-12.2c0-2.9,3.7-7.6,11-14.1c7.4-6.5,12.6-9.7,15.7-9.7c8.5,0,12.8,3.2,12.8,9.5
				c0,9.2-10.4,19.2-31.2,29.9c-1-1.2-1.9-2.3-2.7-3.4c-6.5,5.8-13.5,11.2-21,15.7c0.1,0.7,0.3,1.4,0.5,2.1l-12.5,46.9
				c9.7-6.9,19-14.4,27.8-22.3c9.9,11.6,17.7,19.6,23.4,23.8c9,6.7,20,10.4,31.3,10.3c18.4,0.1,36.4-5.3,51.8-15.4l12.7-47.3
				C565.9,414.5,546.5,421.4,525.7,421.4z"/>
			<path d="M540,229c2-8.3,3.3-14.6,4.2-18.8c-23.8,14.7-42.3,24.7-55.7,30c-10.1,20-15.1,32.1-15.1,36.4l0.2,2.9
				C514.8,259,536.9,242.2,540,229z"/>
			<path d="M828,121.6c0-4.9-2.9-7.3-8.8-7.3c-8.1,0-12.2-1.1-12.2-3.4c0-4.1,2.4-6.1,7.3-6.1c1.7,0,3.3,0.3,4.9,1
				c1.6-1.1,4-4.6,7-10.3c3-5.7,4.8-9.8,5.3-12.2c-1.7-0.9-3.5-1.5-5.4-1.7c-6.9,0-14.8,5.9-23.8,17.8s-13.5,21.3-13.5,28.3
				c0,6.3,3.2,9.4,9.7,9.3c5.1-0.2,7.9,0.3,8.4,1.2c-2.6,3.6-11.1,8.1-25.6,13.4l-29.8,10.3c0,1.9,1.1,2.9,3.2,2.9
				c13.7,0,28.6-3.8,44.9-11.5C818.5,144.2,828,133.6,828,121.6z"/>
			<path d="M895.7,242.9c-11.2-35.8-26.2-70.4-44.8-103c-10.1,30.3-15.1,75.6-15.1,136c0,32.6,2.7,49.3,8,50.3
				c3.7-1.8,5.5-11.2,5.5-28.1c0-9.1,2.1-29.3,6.3-60.6c8.2,15.5,17,36.2,26.5,62.2c10.8,29.8,16.2,50.8,16.2,63
				c0,17.1-5.1,34-15.4,50.8c-6,9.9-17.1,24-33.5,42.2L828.3,478c-8.3,9-14.2,17.1-17.8,24.4c0.2,1.3,1,2,2.4,2s4.9-1,10.2-2.9
				c38-13.8,63.3-32.1,75.8-54.9c10.6-19,15.8-50.2,15.8-93.5C914.7,320.1,908.4,283.4,895.7,242.9z"/>
		</g>
	</g>
</g>
</svg>
