<?xml version="1.0" encoding="utf-8"?>
<!-- Generator: Adobe Illustrator 22.1.0, SVG Export Plug-In . SVG Version: 6.00 Build 0)  -->
<svg version="1.1" id="Layer_1" xmlns="http://www.w3.org/2000/svg" xmlns:xlink="http://www.w3.org/1999/xlink" x="0px" y="0px"
	 viewBox="0 0 964.7 664.1" style="enable-background:new 0 0 964.7 664.1;" xml:space="preserve">
<title>EH-Asset 87-layername</title>
<g id="Layer_2_1_">
	<g id="ElDzamiu">
		<g>
			<path d="M104.6,68.1c0-7-4-10.5-12.2-10.5c-7.4,0-15.3,4.8-23.7,14.3c1.7,2.3,3.2,4.8,4.5,7.4l2.2-0.9c6.4,0,9.7,3.8,9.7,11.3
				c0,2.9-1.5,6.9-4.5,12C72.9,95.3,69,90.5,69,87.2c0-2.7,0.9-5.3,2.7-7.3l1.5-0.6c-1.3-2.5-2.8-5-4.5-7.4
				c-0.8,0.9-1.5,1.8-2.3,2.7c-9.2,11.3-13.8,21.2-13.8,29.7c0,4.7,3.2,10.2,9.6,16.4C40.6,136.4,19.9,149.1,0,158.7
				c6.3,2,10.8,2.9,13.4,2.9c13.2,0,32.4-11.7,57.6-35.3c5.1,4.6,10.5,8.8,16.1,12.7l8.5-24.2l-7.5-7.3
				C99.2,93.3,104.6,80.1,104.6,68.1z"/>
			<path d="M266.4,373.9L254,420.4c-21,12.7-38.2,19.1-51.5,19.1c-16.4,0-28.7-10.5-36.6-31.4l-76.3,57.2
				C48.7,496,28.2,514,28.2,519c0,6.9,11.2,10.3,33.7,10.3c30,0,65.4-8.1,106.4-24.4c38.6-15.5,70.6-33.3,96-53.5h1.2
				c-2,10.1-22.1,29-60.6,56.8c-21.2,15.3-47,29.3-77.4,41.8c-34,14-62,21-84,21c-27.3,0-41-6.2-41-18.6c0-24.4,21.7-55.3,65.2-92.6
				c17.4-14.8,48.7-37.9,93.7-69.2c-0.5-7.6-1.2-12.9-2.2-15.6c-2-5.9-5.8-9-11.5-9.5c-7.3-0.7-11-1.7-11-3.2c0-3.7,2-10.6,6.1-20.6
				s7.5-16.7,10.2-20.2c2.3-2.9,10.2-5.6,23.6-8.1c11.4-2,20.3-2.9,26.8-2.9c16.4,0,24.6,5,24.6,15.1c0,14.3-13.4,34.6-40.1,61.1
				c5.2,7.3,16.8,11,34.7,11C231.5,397.7,246.1,389.8,266.4,373.9z"/>
			<path d="M322.9,601.1c-3.4,11.1-8.1,18.1-14.2,21l-85.4,42c2.6-10.1,10.3-18.3,23-24.7L322.9,601.1z"/>
			<path d="M371,310.5c-1.5,8.3-7,20.4-16.6,36.4c-9.6-1.8-16.7-2.7-21.2-2.7c-14,0-28.7,11-44.2,33c-18.7,26.4-31.5,41.5-38.3,45.4
				l12.4-45.9c5.2-4.2,11.3-11.8,18.3-22.6s12.8-18.3,17.3-22.3v-1.7l-4.4-4.6c3.4-12.5,9.6-25.1,18.6-37.8
				c5.9,4.2,15.6,8.1,29.2,11.7C355.7,302.9,365.3,306.7,371,310.5z"/>
			<path d="M545.1,374.3l-12.5,46.8c-13,8.8-26.2,13.3-39.6,13.3c-18.4,0-31-10.3-37.8-31c-3.7-11.6-5.9-29.5-6.6-53.8l-1.8-73.7
				c-1.4-55.3-2.1-83.5-2.1-84.5c0-2.1,2-9,5.9-20.8c3.9-11.7,6.6-18.6,8-20.5h1.5c0.5,28.2,1.5,70.2,2.9,126.2
				c0.2,15.6,1.9,38.7,5.1,69.3c6.5,31.4,19,47.1,37.4,47.1C519.2,392.8,532.4,386.6,545.1,374.3z"/>
			<path d="M603.2,159.7c-3.4,11.1-8.1,18.1-14.2,21l-85.5,42c2.6-10.1,10.3-18.3,23-24.7L603.2,159.7z"/>
			<path d="M772.8,8.1c-4.4-5.4-9.5-8.1-15.2-8.1c-12.7,0-24.2,6.8-34.3,20.3c-0.7,1-1.5,2-2.1,3c2.3,1.3,4.5,2.6,6.6,4
				c3.9-4.3,8.3-6.5,13.1-6.5c3.9,0,8.5,2.3,13.8,6.9c5.3,4.6,8,8.9,8,12.9c0,7.8-7.4,11.7-22.1,11.7c-12.8,0-19.2-3.6-19.2-10.7
				c0-5,2-9.7,6-14.1c0.1-0.1,0.2-0.2,0.2-0.2c-2.2-1.4-4.4-2.7-6.6-4c-7.9,11.4-11.9,23.2-11.9,35.3c0,11.7,6.7,17.6,20.1,17.6
				c12.7,0,24.1-5.4,34.2-16.4s15.1-22.7,15.1-35.4C778.7,18.4,776.6,12.7,772.8,8.1z"/>
			<path d="M825.8,220.5c0,45.9-5.8,83.8-17.3,113.8c-14,35.8-37.9,65.4-71.8,88.9l12.2-45.7c41.5-33.2,62.3-66.6,62.3-100.1
				c0-25.1-7.9-55.4-23.7-91.1c-3.1,15.9-7.7,39.8-13.8,71.5c-2.6,13.7-4.8,20.5-6.5,20.5l-2.2-0.7l-0.5-3.2
				c0-13.2,3.4-37.9,10.2-74.2c7.1-39.2,13.3-61.8,18.5-67.6c8.9,5.5,16.8,19,23.6,40.3C822.8,191.3,825.8,207.1,825.8,220.5z"/>
			<path d="M873.7,13.2c-3.4,11.1-8.1,18.1-14.2,21l-85.5,42c2.6-10.1,10.3-18.3,22.9-24.7L873.7,13.2z"/>
			<path d="M684.5,396.4c-12.7,0-23.4-3.5-32-10.7c-9.3-7.7-13.9-17.7-13.9-30.3c0-6.6,0.6-13.3,1.7-19.8
				c17.4-15.5,42.6-26.5,75.4-33.2c7.5-10.6,12.7-23.7,15.6-39.3c-10.1,4.6-21.1,6.9-32.2,6.8c-7.3,0-18-2.1-31.9-6.2
				s-24.5-6.2-31.6-6.2c-27.4,0-47.8,12.4-61.2,37.1c-6.5,12-13.4,34.4-20.7,67.4c3.7-2.6,7.2-5.4,10.3-8.6
				c7.3-37.4,25.1-56.1,53.3-56.1c5.2,0,14.6,1.6,28.3,4.9c-13.5,6.2-27.9,15-43.2,26.2l0,0c-7.2,5.2-20.4,15.7-39.6,31.6
				c0.3-2.2,0.7-4.4,1.2-6.5c-3.1,3.2-6.6,6-10.3,8.6c-0.4,2-0.9,4-1.3,6l-9,8.5L531,422.5c7.8-5.8,13.7-10.3,17.6-13.4l-2,30.3
				v30.5l1.2,1.2l1.2-0.7l2.2-4.1c-0.7-17.6,1.5-39.2,6.6-65c24.7-21.5,47.8-40.5,69.3-56.9c-2.9,13-4.4,23.7-4.4,32
				c0,17.4,5.1,32.1,15.3,44.1c10.7,12.7,24.7,19,42,19c19.9,0,39.8-6.2,59.8-18.5l12.5-46.5C733.6,389.1,711,396.4,684.5,396.4z"/>
			<path d="M573.2,496.3c-13.5,20.4-21,31.8-22.5,34.4c7.2,5.5,14.4,10.7,21.8,15.4c10.1-12.9,17.7-23.9,22.8-33.2
				C595.2,507.1,587.9,501.5,573.2,496.3z"/>
			<path d="M878.1,93.8c0-4.9-2.9-7.3-8.8-7.3c-8.1,0-12.2-1.1-12.2-3.4c0-4.1,2.4-6.1,7.3-6.1c1.7,0,3.3,0.3,4.9,1
				c1.6-1.1,4-4.6,7-10.3c3-5.7,4.8-9.8,5.3-12.2c-1.7-0.9-3.5-1.5-5.4-1.7c-6.9,0-14.8,5.9-23.8,17.8c-9,11.9-13.5,21.3-13.5,28.3
				c0,6.4,3.2,9.4,9.7,9.3c5.1-0.2,7.9,0.2,8.4,1.2c-2.6,3.6-11.1,8.1-25.6,13.4L801.4,134c0,2,1.1,2.9,3.2,2.9
				c13.7,0,28.7-3.8,44.9-11.5C868.5,116.4,878.1,105.8,878.1,93.8z"/>
			<path d="M945.8,215.1c-11.2-35.8-26.2-70.4-44.8-103c-10.1,30.3-15.1,75.6-15.1,136c0,32.5,2.7,49.3,8,50.3
				c3.7-1.8,5.5-11.1,5.5-28.1c0-9.1,2.1-29.3,6.3-60.5c8.2,15.5,17,36.2,26.5,62.3c10.8,29.8,16.2,50.8,16.2,63
				c0,17.1-5.1,34-15.4,50.8c-6,9.9-17.2,24-33.5,42.2l-21.3,22.2c-8.3,9-14.2,17.1-17.8,24.4c0.1,1.2,1.1,2,2.2,2
				c0.1,0,0.1,0,0.2,0c1.5,0,4.9-1,10.2-2.9c38-13.8,63.3-32.1,75.8-54.9c10.6-19,15.8-50.2,15.8-93.5
				C964.7,292.3,958.4,255.6,945.8,215.1z"/>
		</g>
	</g>
</g>
</svg>
