<?xml version="1.0" encoding="utf-8"?>
<!-- Generator: Adobe Illustrator 22.1.0, SVG Export Plug-In . SVG Version: 6.00 Build 0)  -->
<svg version="1.1" id="Layer_1" xmlns="http://www.w3.org/2000/svg" xmlns:xlink="http://www.w3.org/1999/xlink" x="0px" y="0px"
	 viewBox="0 0 883 664.1" style="enable-background:new 0 0 883 664.1;" xml:space="preserve">
<title>EH-Asset 8-layername</title>
<g id="Layer_2_1_">
	<g id="ElMuhejmin">
		<g>
			<path d="M104.6,129.1c0-7-4-10.5-12.2-10.5c-8.1,0-16.8,5.7-26,17c-0.5,0.6-1,1.2-1.5,1.8c1.9,1.6,3.8,3.3,5.5,5.1
				c0.3-0.6,0.7-1.1,1.2-1.7l3.7-1.5c6.4,0,9.7,3.8,9.7,11.3c0,2.9-1.5,6.9-4.5,12c-7.8-6.4-11.7-11.2-11.7-14.5c0-2,0.5-4,1.5-5.7
				c-1.8-1.8-3.6-3.5-5.5-5.1c-8.2,10.5-12.4,19.8-12.4,27.8c0,4.7,3.2,10.2,9.6,16.4C40.6,197.4,19.9,210.1,0,219.7
				c6.3,2,10.8,2.9,13.4,2.9c13.2,0,32.4-11.8,57.6-35.3c5.1,4.6,10.5,8.8,16.1,12.8l8.5-24.1l-7.5-7.3
				C99.2,154.4,104.6,141.2,104.6,129.1z"/>
			<path d="M262.6,373.8L250.2,420c-16.5,12.3-29.8,18-40,17.2l-4.6,21.5c-5.7,26.5-18.9,53-39.7,79.6c-23.8,30.4-47.4,45.6-71,45.6
				c-29.7,0-44.6-18-44.6-54c0-20.9,7.8-48.9,23.4-84.1c-21,0.8-37.7,11.5-50,32l-1.5,0.5l-1.5-1.5c0-16.3,6.8-32.8,20.5-49.5
				c14.3-17.6,29.4-26.4,45.2-26.5c7.2,0,10.8,3.2,10.8,9.5c0,6.2-4.5,19.7-13.6,40.6c-9,20.9-13.6,36.7-13.6,47.4
				c0,12.2,3.6,22.1,10.9,29.5c7.3,7.4,17,11.1,29.2,11.1c14.8,0,31-8.3,48.4-24.9c16.5-15.6,26.6-31,30.6-46.2
				c2.6-9.6,4-19.4,4.2-29.3c0-10.4-4-19.6-12-27.6c-0.3-10.7,6-25.5,18.9-44.4c4.9,2.1,10.9,12.5,18,31.3
				C229.7,398,244.5,389.9,262.6,373.8z"/>
			<path d="M318.8,601.1c-3.4,11.1-8.1,18.1-14.2,21l-85.4,42c2.6-10.1,10.3-18.3,23-24.7L318.8,601.1z"/>
			<path d="M380.5,374.5l-12.5,46.4c-5.8,3.6-12.5,5.6-19.3,5.6c-11.6,0-20.7-5.1-27.4-15.3c-13.7,16.9-22.2,25.4-25.6,25.4
				c-3.7,0-9.3-4.3-16.6-12.9c-6.8-8-10.9-14.3-12.2-18.8c-3.7,5-10.7,11-21,18l12.2-45.4c7.5-7,18.7-17.4,33.7-31.3
				c1.6,0,9.7,6.1,24.2,18.3c14.5,12.2,26.9,18.3,37.1,18.3C362.9,383,372.5,380.1,380.5,374.5z"/>
			<path d="M401.5,154.5c-4.4-5.4-9.5-8.1-15.2-8.1c-12.7,0-24.2,6.8-34.3,20.3c-2.2,3-4.2,5.9-5.9,8.9c2.1,1.2,4.2,2.4,6.3,3.7
				c1-1.9,2.2-3.7,3.8-5.5c4-4.5,8.5-6.7,13.4-6.7c3.9,0,8.5,2.3,13.9,6.9c5.3,4.6,8,8.9,8,12.9c0,7.8-7.4,11.6-22.1,11.6
				c-12.8,0-19.2-3.5-19.2-10.7c0-3,0.7-5.9,2.2-8.7c-2.1-1.3-4.1-2.5-6.3-3.7c-5.4,9.6-8.1,19.3-8.1,29.4
				c0,11.7,6.7,17.6,20.1,17.6c12.7,0,24.1-5.4,34.2-16.4c10-10.9,15.1-22.7,15.1-35.4C407.3,164.9,405.3,159.2,401.5,154.5z"/>
			<path d="M359.8,486.6c-10.6,21.5-15.8,34.8-15.6,39.8c9.6-5,16.7-9,21.4-11.7c20-11.4,31.2-18.4,33.8-21c6-6,11.1-18.2,15.3-36.6
				c-19.3,11.7-31.4,18.6-36.5,20.8C368.8,481.9,362.7,484.8,359.8,486.6z"/>
			<path d="M430.2,392.1c-11.9,6.2-21.7,9.3-29.5,9.3c-6.7,0-11.4-0.9-14.2-2.7c12.6-17.4,18.9-32.1,18.9-43.9
				c0-2.8-0.2-5.6-0.7-8.3c-9.1,10.4-18,20.7-26.7,30.8l-12.1,45.3l6.6-5.2c6.5,12,16.7,18,30.7,18c13.2,0,26.6-5,40.3-15l12.5-46.5
				C449.3,380.3,440.7,386.4,430.2,392.1z"/>
			<path d="M512.8,98.6c-3.4,11.1-8.1,18.1-14.2,21l-85.4,42c2.6-10.1,10.3-18.3,23-24.7L512.8,98.6z"/>
			<path d="M552.2,374l-12.5,46.4c-4.1,2.8-11.4,7.2-22,13.2c-18.2,10.4-33.5,25.3-44.4,43.2c-11.4,18.5-17.1,38.3-17.1,59.3
				c-3.5,6.2-7.6,12.1-12.2,17.6c-10.6-15.5-15.9-35.6-15.9-60.5c0-19.5,8.2-58.1,24.7-115.7c8.5-9.9,17.4-20.2,26.9-30.8
				c0.5,2.7,0.7,5.5,0.7,8.3c0,8.6-3,18.9-9,30.8c-5.4,10.9-11.5,19.8-18.4,26.6c-6.2,26.5-9.3,45.2-9.3,55.9
				c0,11.1,1.5,18.4,4.6,22c4-14.7,11.8-30.9,23.4-48.6c10.4-15.9,22.5-28.9,36.4-38.8L552.2,374z"/>
			<path d="M613.4,68.1c0-7-4.1-10.5-12.2-10.5c-8.1,0-16.8,5.7-26,17c-0.6,0.7-1.1,1.4-1.7,2.1c2,1.4,4,2.9,5.9,4.5
				c0.3-0.5,0.6-0.9,1-1.4l3.7-1.5c6.4,0,9.7,3.8,9.7,11.3c0,2.9-1.5,6.9-4.5,12c-7.8-6.4-11.7-11.2-11.7-14.5c0-2.1,0.6-4.2,1.7-6
				c-1.9-1.6-3.9-3.1-5.9-4.5c-8.1,10.4-12.2,19.6-12.2,27.6c0,4.7,3.2,10.2,9.6,16.4c-21.7,15.8-42.4,28.5-62.3,38.1
				c6.3,2,10.8,2.9,13.4,2.9c13.2,0,32.4-11.7,57.7-35.3c5.1,4.6,10.5,8.8,16.1,12.7l8.5-24.2l-7.5-7.3
				C608,93.3,613.4,80.1,613.4,68.1z"/>
			<path d="M670.1,374.5l-12.5,46.4c-5.8,3.6-12.5,5.6-19.3,5.6c-11.6,0-20.7-5.1-27.3-15.3c-13.7,16.9-22.2,25.4-25.6,25.4
				c-3.7,0-9.3-4.3-16.6-12.9c-6.8-8-10.9-14.3-12.2-18.8c-3.7,5-10.7,11-21,18l12.2-45.4c7.5-7,18.7-17.4,33.7-31.3
				c1.6,0,9.7,6.1,24.2,18.3s26.9,18.3,37.1,18.3C652.5,383,662,380.1,670.1,374.5z"/>
			<path d="M691,8.1c-4.4-5.4-9.4-8.1-15.2-8.1c-12.7,0-24.2,6.8-34.3,20.3c-2.3,3.1-4.3,6.2-6.1,9.3c2.4,0.6,4.9,1.2,7.3,1.9
				c0.8-1.3,1.8-2.6,3-3.9c4-4.5,8.5-6.7,13.4-6.7c3.9,0,8.5,2.3,13.8,6.9c5.3,4.6,8,8.9,8,12.9c0,7.8-7.4,11.7-22.1,11.7
				c-12.8,0-19.2-3.6-19.2-10.7c0-3.5,1-6.9,3-10.2c-2.5-0.6-4.9-1.3-7.3-1.9c-5.3,9.5-7.9,19.1-7.9,29.1c0,11.7,6.7,17.6,20.1,17.6
				c12.7,0,24.1-5.4,34.2-16.4s15.1-22.7,15.1-35.4C696.9,18.4,694.8,12.7,691,8.1z"/>
			<path d="M744,220.5c0,45.9-5.8,83.8-17.3,113.8c-14,35.8-37.9,65.4-71.8,88.9l12.2-45.7c41.5-33.2,62.3-66.6,62.3-100.1
				c0-25.1-7.9-55.4-23.7-91.1c-3.1,15.9-7.7,39.8-13.8,71.5c-2.6,13.7-4.8,20.5-6.5,20.5l-2.2-0.7l-0.5-3.2
				c0-13.2,3.4-37.9,10.2-74.2c7.1-39.2,13.3-61.8,18.5-67.6c8.9,5.5,16.8,19,23.6,40.3C741,191.3,744,207.1,744,220.5z"/>
			<path d="M791.9,13.2c-3.4,11.1-8.1,18.1-14.2,21l-85.5,42c2.6-10.1,10.3-18.3,23-24.7L791.9,13.2z"/>
			<path d="M796.3,93.8c0-4.9-2.9-7.3-8.8-7.3c-8.1,0-12.2-1.1-12.2-3.4c0-4.1,2.4-6.1,7.3-6.1c1.7,0,3.3,0.3,4.9,1
				c1.6-1.1,4-4.6,7-10.3c3-5.7,4.8-9.8,5.3-12.2c-1.7-0.9-3.5-1.5-5.4-1.7c-6.9,0-14.8,5.9-23.8,17.8S757,92.9,757,99.8
				c0,6.4,3.2,9.4,9.7,9.3c5.1-0.2,7.9,0.3,8.4,1.2c-2.6,3.6-11.1,8.1-25.6,13.4L719.6,134c0,2,1.1,2.9,3.2,2.9
				c13.7,0,28.6-3.8,44.9-11.5C786.8,116.4,796.3,105.8,796.3,93.8z"/>
			<path d="M864,215.1c-11.2-35.8-26.2-70.4-44.8-103c-10.1,30.3-15.1,75.6-15.1,136c0,32.5,2.7,49.3,8,50.3
				c3.7-1.8,5.5-11.1,5.5-28.1c0-9.1,2.1-29.3,6.3-60.5c8.1,15.4,17,36.2,26.5,62.2c10.8,29.8,16.2,50.8,16.2,63
				c0,17.1-5.1,34-15.4,50.8c-6,9.9-17.2,24-33.5,42.2l-21.2,22.2c-8.3,9-14.2,17.1-17.8,24.4c0.2,1.3,1,2,2.4,2s4.9-1,10.2-2.9
				c38-13.8,63.3-32.1,75.8-54.9c10.6-19,15.9-50.2,15.9-93.5C883,292.3,876.7,255.6,864,215.1z"/>
		</g>
	</g>
</g>
</svg>
