<?xml version="1.0" encoding="utf-8"?>
<!-- Generator: Adobe Illustrator 22.1.0, SVG Export Plug-In . SVG Version: 6.00 Build 0)  -->
<svg version="1.1" id="Layer_1" xmlns="http://www.w3.org/2000/svg" xmlns:xlink="http://www.w3.org/1999/xlink" x="0px" y="0px"
	 viewBox="0 0 874.5 541.8" style="enable-background:new 0 0 874.5 541.8;" xml:space="preserve">
<title>EH-Asset 92-layername</title>
<g id="Layer_2_1_">
	<g id="EdDaar">
		<g>
			<path d="M268.5,317.8c0,17.5-2.7,26.7-8,27.7l-6.6-8.1c-4.6,0.2-8.3,2.9-11.2,8.1c-8,13.8-16.5,31.9-25.4,54.3
				c-7.3,18.7-14.7,37.4-22,56c-6.2,14.7-15.7,29.2-28.6,43.5c-13.7,15.3-27.3,26-40.8,32c-15.3,7-36.4,10.5-63.2,10.5
				c-40.5,0-61.4-2.1-62.7-6.3l2.4-1.8c34.2,0,65.9-7.3,95.2-22c30.4-15.3,54.8-36.8,73.2-64.6c9.9-15.1,20.6-35.2,32-60.2
				l22.5-50.2c12.7-25.2,22.5-37.8,29.5-37.8c3.9,0,7.2,2.3,10,6.8C267.3,309.2,268.5,313.4,268.5,317.8z"/>
			<path d="M424.3,394.5l-12.5,46.8c-13,8.8-26.2,13.3-39.6,13.3c-18.4,0-31-10.3-37.8-30.9c-3.7-11.6-5.9-29.5-6.6-53.8l-1.9-73.7
				c-1.4-55.3-2.1-83.5-2.1-84.5c0-2.1,2-9,5.9-20.8c3.9-11.7,6.6-18.6,8-20.5h1.5c0.5,28.2,1.5,70.2,2.9,126.2
				c0.2,15.6,1.9,38.7,5.1,69.3c6.5,31.4,19,47.1,37.4,47.1C398.4,413.1,411.6,406.9,424.3,394.5z"/>
			<path d="M735.6,240.7c0,45.9-5.8,83.8-17.3,113.8c-14,35.8-37.9,65.4-71.8,88.9l12.2-45.6c41.5-33.2,62.3-66.6,62.3-100.1
				c0-25.1-7.9-55.4-23.7-91.1c-3.1,16-7.7,39.8-13.8,71.5c-2.6,13.7-4.7,20.5-6.5,20.5l-2.2-0.7l-0.5-3.2
				c0-13.2,3.4-37.9,10.2-74.2c7.1-39.2,13.3-61.8,18.5-67.6c8.9,5.5,16.8,19,23.6,40.3C732.6,211.5,735.6,227.4,735.6,240.7z"/>
			<path d="M783.5,33.5c-3.4,11.1-8.1,18.1-14.2,21l-85.5,42c2.6-10.1,10.3-18.3,23-24.7L783.5,33.5z"/>
			<path d="M149.9,147.1l-7.3-5.4c9.8-10.3,14.7-17.5,14.7-21.6c0-4.1-1.5-8-4-11.1c-2.7-3.5-5.9-5.3-9.6-5.3
				c-6.4,0-12.8,2.4-19.4,7.1c1.1,1.7,2.1,3.4,3,5.2c1.3-1,3.1-1.5,5.3-1.5c5.1,2,7.7,4.9,7.7,8.8c0,3.7-1.8,8.2-5.3,13.6
				c-7.1-5.5-10.6-10-10.6-13.4c0-3.6,1-6.1,2.9-7.5c-0.9-1.8-1.9-3.5-3-5.2c-2,1.4-4,3.1-6,5c-8.6,8.1-13,16.2-13,24.4l1,5.9
				c1.9,3,4,5.8,6.4,8.3c-19.4,11.4-38.5,19.4-57.4,24c5.5,3.3,10.4,4.9,14.4,4.9c10.4,0,27.7-8,51.9-23.9c10.4,4.6,18.8,6.9,25,7.1
				c2.6-8.3,3.8-13.6,3.7-15.7L149.9,147.1z"/>
			<path d="M109.4,203.7c-6.3,0-9.3-3.8-9-11.4l0.3-4.9l-6.3,1.4c-12.1,19.2-21.8,28.9-29.3,28.9c-5.2,0-7.8-3-7.8-9l1.7-10.9
				l-5.1,0.5c-8,10.9-12,20.7-12,29.4l1.7,8.6c3.4,4.4,7.5,6.6,12.2,6.6c12.7,0,22.8-6.6,30.5-19.7c3.9,4.2,7.1,6.2,9.7,6.2
				c21.6,0,36.9-17.5,46-52.5l-6.1,1.5C127.1,195.3,118.3,203.7,109.4,203.7z"/>
			<path d="M488.8,0l-69.6,24.4c-10.9,3.7-19.9,11.2-27.1,22.5l79.8-28.3C478.4,16.3,484.1,10.1,488.8,0z"/>
			<path d="M428.1,75.3c5.9,4.2,10.7,6.3,14.4,6.3c11.8,0,21.5-7.1,29.1-21.2c5.7-10.4,9.4-22.6,11-36.6l-7.6,2.2
				c-6.5,19.9-14.5,29.8-23.9,29.8c-6.2,0-9.3-5.9-9.3-17.8l-5.9,1.5c-12.4,21.6-22.4,32.5-30,32.5c-5.7,0-8.5-3.8-8.5-11.5l0.7-7.6
				l-8.5,4.6c-4.6,12.4-6.8,20.8-6.8,25.3c0,9.2,4.7,13.8,14.2,13.8C407.9,96.4,418.3,89.4,428.1,75.3z"/>
			<path d="M597.2,209.2c0-2.9-3.1-6.3-9.3-10c-4.2-2.4-8.6-4.5-13.2-6.4c-12.4,17.9-19.7,29.4-22,34.4l21.7,14.9
				C584.2,229.7,591.8,218.7,597.2,209.2z"/>
			<path d="M589.4,416.2c-12.4,0-24.6-5.4-36.6-16.3c39.4-25.7,66.2-57.3,80.3-94.7c4.9-12.9,7.3-20.7,7.3-23.4
				c0-5.7-1.4-9.9-4.2-12.5c-1.2-0.1-2.4-0.2-3.7-0.3c-7,0-21.7,4.2-44,12.7c-24.1,9.1-39.8,16.8-47.1,23
				c-9.4,7.8-17.8,21.6-25.1,41.5c-3.4,9.1-7.8,24-13.2,44.6c2.7-0.5,5.3-1.1,7.6-2c5.1-21,11.1-35.4,18.1-43.1
				c6.7-7.1,20.9-15,42.7-23.6c20.5-8.1,34.6-12.2,42.2-12.2l4.4,0.5c0.6,0.9,1,1.9,1,2.9c0,2.9-9,11.6-26.8,25.9
				c-25.3,20.3-52.8,37.5-82.1,51.5c0.2-0.6,0.3-1.3,0.5-1.9c-2.4,1-5,1.6-7.6,2c-0.3,1.2-0.6,2.3-0.9,3.5
				c-27.7,12.7-46.8,19-57.4,19h-9.3c9.6-15.6,14.4-28.3,14.4-38.1c0-2.8-0.2-5.6-0.7-8.3l-26.9,30.7l-12.2,45.1
				c7-5.4,12.1-9.7,15.4-12.8l6.6,1.2c25.1,0,47-2.6,65.7-7.8c-0.5,9.5-0.7,19.1-0.5,28.8l1.2,0.5l1.2-0.5
				c1.9-10.8,3.3-20.9,4.2-30.2c8.8-1.9,19.7-6.1,32.6-12.5c10.6,31.9,28.8,47.9,54.5,47.9c22.3,0,42.1-5.5,59.3-16.6l12.5-46.6
				C643.3,408.8,618.8,416.2,589.4,416.2z"/>
			<path d="M855.5,235.4c-11.2-35.8-26.2-70.4-44.8-103c-10.1,30.3-15.1,75.6-15.1,136c0,32.6,2.7,49.3,8,50.3
				c3.7-1.8,5.5-11.1,5.5-28.1c0-9.1,2.1-29.3,6.3-60.6c8.2,15.4,17,36.2,26.5,62.2c10.8,29.8,16.2,50.8,16.2,63
				c0,17.1-5.1,34-15.4,50.8c-6,9.9-17.1,24-33.4,42.2l-21.2,22.2c-8.3,9-14.2,17.1-17.8,24.4c0.1,1.2,1,2.1,2.2,2
				c0.1,0,0.2,0,0.2,0c1.5,0,4.9-1,10.2-2.9c38-13.8,63.3-32.2,75.8-54.9c10.6-19,15.8-50.2,15.8-93.5
				C874.5,312.6,868.2,275.9,855.5,235.4z"/>
			<path d="M787.8,114c0-4.9-2.9-7.3-8.8-7.3c-8.1,0-12.2-1.1-12.2-3.4c0-4.1,2.4-6.1,7.3-6.1c1.7,0,3.3,0.3,4.9,1
				c1.6-1.1,4-4.5,7-10.3c3-5.7,4.8-9.8,5.3-12.2c-1.7-0.9-3.5-1.5-5.4-1.7C779,74,771,79.9,762,91.8s-13.5,21.3-13.5,28.3
				c0,6.3,3.2,9.4,9.7,9.3c5.1-0.2,7.9,0.3,8.4,1.2c-2.6,3.6-11.1,8-25.6,13.4l-29.8,10.3c0,1.9,1,2.9,3.2,2.9
				c13.7,0,28.6-3.8,44.9-11.5C778.3,136.6,787.8,126.1,787.8,114z"/>
		</g>
	</g>
</g>
</svg>
