<?xml version="1.0" encoding="utf-8"?>
<!-- Generator: Adobe Illustrator 22.1.0, SVG Export Plug-In . SVG Version: 6.00 Build 0)  -->
<svg version="1.1" id="Layer_1" xmlns="http://www.w3.org/2000/svg" xmlns:xlink="http://www.w3.org/1999/xlink" x="0px" y="0px"
	 viewBox="0 0 904.8 664.1" style="enable-background:new 0 0 904.8 664.1;" xml:space="preserve">
<title>EH-Asset 95-layername</title>
<g id="Layer_2_1_">
	<g id="ElHadi">
		<g>
			<path d="M249.3,122.6c-18.7,37.3-40.1,66.6-64,87.9c-18.5,16.1-37.1,32.3-55.6,48.6c-23.6,21-42.6,39.8-56.9,56.4
				c-20.2,23.8-34.1,48.9-41.8,75.2c-5.7,19.9-8.5,44.5-8.5,74c0,36.3,18.2,54.4,54.5,54.4c13.9,0,31.4-7.8,52.6-23.4
				s31.8-28.9,31.8-40c0-4.6-5.7-7.6-17.2-9.1c-16.3-1.8-27-3.8-32.1-6.1c-11.4-5-17.1-14.3-17.1-27.8c0-27.9,10.4-58.1,31.3-90.5
				c6.8-10.9,15.9-21.9,27.1-33.2c14.3-14.5,25.6-21.7,33.9-21.7c12.7,0,22.5,4.5,29.5,13.4c-0.8,5.5-3.5,12.8-8,21.9
				c-5.2,10-9.6,15.8-13.3,17.3l-2.2-3.2c0-6.9-4.5-10.3-13.5-10.3c-11.9,0-25.8,8.5-41.6,25.5c-15.8,17-23.8,31.4-23.8,43.3
				c0,8.3,4.4,14.4,13.2,18.1c4.7,2,13.8,4,27.3,6.1c11.7,1.6,19.2,3.8,22.5,6.6c4.7,3.9,7.1,11.2,7.1,21.8
				c0,29.3-13.8,59.2-41.4,89.7c-28.3,31.1-56.9,46.7-85.8,46.7C19.1,564.2,0,535.7,0,478.8c0-58.4,21.7-115.1,65.2-170.2
				c14.2-17.9,33.4-37.5,57.9-58.8L186,196c18.2-16.1,38.2-41.1,59.8-74.9l2.9-1.7L249.3,122.6z"/>
			<path d="M289.1,601.1c-3.4,11.1-8.1,18.1-14.2,21l-85.4,42c2.6-10.1,10.3-18.3,23-24.7L289.1,601.1z"/>
			<path d="M432.4,304.2c0,33-11.4,70.4-34.2,112.1c-22.9,42.5-52,73-87.2,91.5c-9.5,5-28.5,9.3-57.1,12.7
				c-23.9,2.9-44.3,4.4-61,4.4c-9.3,0-15.1-0.4-17.6-1.2l-1-1.7c3.6-0.7,9.6-1.4,18.1-2.2c22.5-2.1,45.9-8.9,70.3-20.3
				c46.9-22,86.9-55.6,120.1-100.7c20.7-28,31-47.8,31-59.4c0-8-3.5-15.7-10.5-23c-7-7.3-14.5-11-22.5-11c-9.4,0-25,4.9-46.6,14.7
				c-23.8,10.8-35.7,20.2-35.6,28.4c0,0.8,2.8,4,8.4,9.5c6.4,6.3,11.6,13.8,15.3,22c5.6,12.5,8.4,27.6,8.4,45.2
				c0,4.9-1.2,11.3-3.7,19.3c-3,9.6-6.3,14.4-9.9,14.4l-2.2-2l1.7-14.4c0-6.5-6.8-18.3-20.3-35.5c-13.5-17.2-20.3-30.7-20.3-40.6
				c0-3.6,2.6-12.4,7.8-26.4c4.9-13.3,8.8-22.4,11.7-27.3c5.4-9.1,21.2-19.9,47.4-32.5c25.7-12.1,44.7-18.2,56.9-18.2
				c9.4,0,17.4,4.9,23.9,14.6C429.3,284.7,432.3,294.3,432.4,304.2z"/>
			<path d="M595.7,374.3l-12.5,46.8c-13,8.8-26.2,13.3-39.5,13.3c-18.4,0-31-10.3-37.8-31c-3.7-11.6-5.9-29.5-6.6-53.8l-1.8-73.7
				c-1.4-55.3-2.1-83.5-2.1-84.5c0-2.1,2-9,5.9-20.8c3.9-11.7,6.6-18.6,8-20.5h1.4c0.5,28.2,1.5,70.2,2.9,126.2
				c0.2,15.6,1.9,38.7,5.1,69.3c6.5,31.4,19,47.1,37.3,47.1C569.8,392.8,583,386.6,595.7,374.3z"/>
			<path d="M653.8,98.6c-3.4,11.1-8.1,18.1-14.2,21l-85.5,42c2.6-10.1,10.3-18.3,23-24.7L653.8,98.6z"/>
			<path d="M693.1,374l-12.5,46.4c-4.1,2.8-11.4,7.2-22,13.2c-18.2,10.4-33.5,25.3-44.4,43.2c-11.4,18.5-17.1,38.3-17.1,59.3
				c-3.5,6.3-7.5,12.1-12.1,17.6c-10.6-15.5-15.9-35.6-15.9-60.5c0-19.5,8.2-58.1,24.7-115.7c8.5-9.9,17.4-20.2,26.9-30.8
				c0.5,2.7,0.7,5.5,0.7,8.3c0,8.6-3,18.9-9,30.8c-5.4,10.9-11.6,19.8-18.4,26.6c-6.2,26.5-9.3,45.2-9.3,55.9
				c0,11.1,1.5,18.4,4.6,22c4-14.7,11.8-30.9,23.4-48.6c10.4-15.9,22.5-28.9,36.4-38.8L693.1,374z"/>
			<path d="M712.9,8.1c-4.4-5.4-9.5-8.1-15.2-8.1c-12.7,0-24.2,6.8-34.3,20.3c-0.7,0.9-1.3,1.8-2,2.7c2.4,1.1,4.7,2.4,6.8,3.8
				c3.8-4,8.1-6.1,12.8-6.1c3.9,0,8.5,2.3,13.9,6.9c5.3,4.6,8,8.9,8,12.9c0,7.8-7.4,11.7-22.1,11.7c-12.8,0-19.2-3.6-19.2-10.7
				c0-5,2-9.7,6-14.1c0.2-0.2,0.4-0.4,0.6-0.6c-2.1-1.4-4.4-2.7-6.8-3.8c-8,11.5-12,23.4-12,35.6c0,11.7,6.7,17.6,20.1,17.6
				c12.7,0,24.1-5.4,34.2-16.4c10-10.9,15.1-22.7,15.1-35.4C718.7,18.4,716.6,12.7,712.9,8.1z"/>
			<path d="M765.9,220.5c0,45.9-5.8,83.8-17.3,113.8c-14,35.8-37.9,65.4-71.8,88.9l12.2-45.7c41.5-33.2,62.3-66.6,62.3-100.1
				c0-25.1-7.9-55.4-23.7-91.1c-3.1,15.9-7.7,39.8-13.8,71.5c-2.6,13.7-4.8,20.5-6.5,20.5l-2.2-0.7l-0.5-3.2
				c0-13.2,3.4-37.9,10.2-74.2c7.1-39.2,13.3-61.8,18.5-67.6c8.9,5.5,16.8,19,23.6,40.3C762.9,191.3,765.9,207.1,765.9,220.5z"/>
			<path d="M813.7,13.2c-3.4,11.1-8.1,18.1-14.2,21l-85.5,42c2.6-10.1,10.2-18.3,23-24.7L813.7,13.2z"/>
			<path d="M818.1,93.8c0-4.9-2.9-7.3-8.8-7.3c-8.1,0-12.2-1.1-12.2-3.4c0-4.1,2.4-6.1,7.3-6.1c1.7,0,3.3,0.3,4.9,1
				c1.6-1.1,3.9-4.6,7-10.3c3-5.7,4.8-9.8,5.3-12.2c-1.7-0.9-3.5-1.5-5.4-1.7c-6.9,0-14.8,5.9-23.8,17.8s-13.5,21.3-13.5,28.3
				c0,6.4,3.2,9.4,9.7,9.3c5.1-0.2,7.9,0.3,8.4,1.2c-2.6,3.6-11.1,8.1-25.6,13.4L741.5,134c0,2,1.1,2.9,3.2,2.9
				c13.7,0,28.6-3.8,44.9-11.5C808.6,116.4,818.1,105.8,818.1,93.8z"/>
			<path d="M885.8,215.1c-11.2-35.8-26.2-70.4-44.8-103c-10.1,30.3-15.1,75.6-15.1,136c0,32.5,2.7,49.3,8,50.3
				c3.7-1.8,5.5-11.1,5.5-28.1c0-9.1,2.1-29.3,6.3-60.5c8.2,15.4,17,36.2,26.5,62.2c10.8,29.8,16.2,50.8,16.2,63
				c0,17.1-5.1,34-15.4,50.8c-6,9.9-17.2,24-33.5,42.2l-21.2,22.2c-8.3,9-14.2,17.1-17.8,24.4c0.1,1.2,1.1,2,2.2,2
				c0.1,0,0.1,0,0.2,0c1.5,0,4.9-1,10.2-2.9c38-13.8,63.3-32.1,75.8-54.9c10.6-19,15.8-50.2,15.8-93.5
				C904.8,292.3,898.5,255.6,885.8,215.1z"/>
		</g>
	</g>
</g>
</svg>
