<?xml version="1.0" encoding="utf-8"?>
<!-- Generator: Adobe Illustrator 22.1.0, SVG Export Plug-In . SVG Version: 6.00 Build 0)  -->
<svg version="1.1" id="Layer_1" xmlns="http://www.w3.org/2000/svg" xmlns:xlink="http://www.w3.org/1999/xlink" x="0px" y="0px"
	 viewBox="0 0 1216.9 664.1" style="enable-background:new 0 0 1216.9 664.1;" xml:space="preserve">
<title>EH-Asset 98-layername</title>
<g id="Layer_2_1_">
	<g id="ElWaris">
		<g>
			<path d="M104.6,68.1c0-7-4-10.5-12.2-10.5c-7.8,0-16.1,5.3-24.9,15.7c1.7,2,3.3,4.1,4.8,6.3l3.1-1.2c6.4,0,9.7,3.8,9.7,11.3
				c0,2.9-1.5,6.9-4.5,12C72.9,95.3,69,90.5,69,87.2c0-2.7,0.9-5.3,2.7-7.3l0.6-0.2c-1.4-2.2-3-4.3-4.8-6.3
				c-0.4,0.4-0.7,0.8-1.1,1.3c-9.2,11.3-13.8,21.2-13.8,29.7c0,4.7,3.2,10.2,9.6,16.4C40.6,136.4,19.9,149.1,0,158.7
				c6.3,2,10.8,2.9,13.4,2.9c13.2,0,32.4-11.7,57.6-35.3c5.1,4.6,10.5,8.8,16.1,12.7l8.5-24.2l-7.5-7.3
				C99.2,93.3,104.6,80.1,104.6,68.1z"/>
			<path d="M506.7,601.1c-3.4,11.1-8.1,18.1-14.2,21l-85.4,42c2.6-10.1,10.3-18.3,23-24.7L506.7,601.1z"/>
			<path d="M634.2,297.5c0,17.5-2.7,26.7-8.1,27.7l-6.6-8.1c-4.6,0.2-8.3,2.9-11.2,8.1c-8,13.9-16.5,31.9-25.4,54.3
				c-7.3,18.7-14.7,37.4-22,56c-6.2,14.7-15.7,29.2-28.6,43.5c-13.7,15.3-27.3,26-40.8,32c-15.3,7-36.4,10.5-63.2,10.5
				c-40.5,0-61.4-2.1-62.8-6.3l2.4-1.8c34.2,0,65.9-7.3,95.2-22c30.4-15.3,54.8-36.8,73.2-64.6c9.9-15.1,20.6-35.2,32-60.2
				l22.5-50.3c12.7-25.2,22.5-37.8,29.5-37.8c3.9,0,7.2,2.3,10,6.8C632.9,289,634.2,293.2,634.2,297.5z"/>
			<path d="M782.4,325.2c0,43.3-5.2,74.5-15.6,93.5c-12.5,22.8-37.8,41.1-75.9,54.9c-5.4,2-8.8,2.9-10.3,2.9
				c-1.2,0.2-2.2-0.6-2.4-1.8c0-0.1,0-0.1,0-0.2c3.6-7.3,9.5-15.5,17.8-24.4l21.2-22.2c16.3-18.2,27.4-32.3,33.4-42.2
				C760.9,369,766,352.1,766,335c0-12.2-5.4-33.2-16.2-63c-9.5-26-18.3-46.8-26.5-62.3c-4.2,31.2-6.3,51.4-6.3,60.5
				c0,16.9-1.9,26.3-5.5,28.1c-5.3-1-8-17.7-8-50.3c0-60.4,5-105.7,15.1-136c18.6,32.6,33.6,67.2,44.8,103
				C776,255.6,782.4,292.3,782.4,325.2z"/>
			<path d="M841.7,159.7c-3.4,11.1-8.1,18.1-14.2,21l-85.5,42c2.6-10.1,10.2-18.3,22.9-24.7L841.7,159.7z"/>
			<path d="M1015,373.8l-12.5,46.4c-10.4,8.3-29.2,18.3-56.4,29.8c-5.5,24.3-18.5,50.3-39.1,78c-21.5,29-43,48.2-64.5,57.5
				c-18.1,7.8-40.8,11.7-68.1,11.7c-10.4,0-25.9-1.7-46.4-5.2c-24.4-4-37-8.2-37.8-12.6l2-1.5c4.9,0.2,12.6,1.1,23.2,2.9
				c10.1,1.6,17.9,2.4,23.4,2.4c11.2,0,27.7-3.2,49.3-9.5c47-13.8,87.8-41.1,122.3-81.8c12-14.2,18.9-26.5,20.5-37.1
				c-14.2,3.9-23.7,5.9-28.6,5.9c-14.8,0-22.2-4.9-22.2-14.6c0-10.2,4.1-23.2,12.5-38.8c9.3-17.4,18.5-26.1,27.6-26.1
				c8,0,15.1,3.1,21.4,9.3c6.2,6.2,9.4,13.3,9.4,21.2C978.4,400.1,999.7,387.5,1015,373.8z"/>
			<path d="M1025,8.1c-4.4-5.4-9.5-8.1-15.2-8.1c-12.7,0-24.2,6.8-34.3,20.3c-3.1,4.1-5.6,8.2-7.7,12.3c2.5,0.5,4.9,1,7.4,1.7
				c1-2.3,2.5-4.6,4.5-6.8c4-4.5,8.5-6.7,13.4-6.7c3.9,0,8.5,2.3,13.9,6.9s8,8.9,8,12.9c0,7.8-7.4,11.7-22.1,11.7
				c-12.8,0-19.2-3.6-19.2-10.7c0-2.5,0.5-5,1.5-7.4c-2.4-0.6-4.9-1.2-7.4-1.7c-4.2,8.5-6.3,17.2-6.3,26c0,11.7,6.7,17.6,20.1,17.6
				c12.7,0,24.1-5.4,34.2-16.4c10-10.9,15.1-22.7,15.1-35.4C1030.9,18.4,1028.8,12.7,1025,8.1z"/>
			<path d="M1078,220.5c0,45.9-5.8,83.8-17.3,113.8c-14,35.8-37.9,65.4-71.8,88.9l12.2-45.7c41.5-33.2,62.3-66.6,62.3-100.1
				c0-25.1-7.9-55.4-23.7-91.1c-3.1,15.9-7.7,39.8-13.8,71.5c-2.6,13.7-4.7,20.5-6.5,20.5l-2.2-0.7l-0.5-3.2
				c0-13.2,3.4-37.9,10.2-74.2c7.1-39.2,13.3-61.8,18.5-67.6c8.9,5.5,16.8,19,23.6,40.3C1075,191.3,1078,207.1,1078,220.5z"/>
			<path d="M1125.9,13.2c-3.4,11.1-8.1,18.1-14.2,21l-85.4,42c2.6-10.1,10.3-18.3,23-24.7L1125.9,13.2z"/>
			<path d="M225.5,245.9c5.8-8.6,12.9-16.3,21-22.7c10.4-8.3,18.5-12.5,24.2-12.5c4.2,0,7,1.7,8.3,5c1.3,3.3,2.6,5,3.9,5
				c3.9,0,9-4.5,15.4-13.5c6.2-8.5,9.3-14.9,9.3-19.1c0-10-6-15-18.1-15c-13.8,0-30.8,13.4-51,40.2c-19.5,26.1-29.1,46.5-28.8,61.2
				C215,264.8,220.3,255.3,225.5,245.9z"/>
			<path d="M425.4,285.2c-19.9,22-39.6,44-59.3,66c-43.6,47.5-77,80.9-100.1,100.1c-46.4,38.8-87.2,58.1-122.6,58.1
				c-26.9,0-48.6-8.6-65.2-25.8s-24.9-39.3-24.9-66.4c0-31.3,14.2-57.9,42.7-79.9c21.8-16.8,47.4-27.9,76.7-33.2
				c12.1-2.3,40.6-4.6,85.7-7.1c50.3-2.8,77.5-5.8,81.5-9l-0.3-2.7H230.1c-33,0-58.9,2.3-77.6,6.8c-26.4,6.5-48.9,19-67.6,37.3
				c-33,32-49.6,71.7-49.6,119.1c0,28.7,9.6,52.6,28.8,71.8c19.2,19.2,43,28.8,71.5,28.8c42.7,0,87.9-21.1,135.8-63.2
				c24.7-22,60.9-61.8,108.4-119.4c24.1-29.1,44.5-50.3,61.3-63.5c7-8.8,9.9-20.1,8.8-33.9C435,278.4,426.9,283.7,425.4,285.2z"/>
			<path d="M1130.3,93.8c0-4.9-2.9-7.3-8.8-7.3c-8.1,0-12.2-1.1-12.2-3.4c0-4.1,2.4-6.1,7.3-6.1c1.7,0,3.3,0.3,4.9,1
				c1.6-1.1,4-4.6,7-10.3c3-5.7,4.8-9.8,5.3-12.2c-1.7-0.9-3.5-1.5-5.4-1.7c-6.9,0-14.8,5.9-23.8,17.8S1091,92.9,1091,99.8
				c0,6.4,3.2,9.4,9.7,9.3c5.1-0.2,7.9,0.2,8.4,1.2c-2.6,3.6-11.2,8.1-25.6,13.4l-29.8,10.2c0,2,1.1,2.9,3.2,2.9
				c13.7,0,28.6-3.8,44.9-11.5C1120.8,116.4,1130.3,105.8,1130.3,93.8z"/>
			<path d="M1198,215.1c-11.2-35.8-26.2-70.4-44.8-103c-10.1,30.3-15.1,75.6-15.1,136c0,32.5,2.7,49.3,8,50.3
				c3.7-1.8,5.6-11.1,5.6-28.1c0-9.1,2.1-29.3,6.3-60.5c8.2,15.5,17,36.2,26.5,62.3c10.8,29.8,16.2,50.8,16.2,63
				c0,17.1-5.1,34-15.4,50.8c-6,9.9-17.1,24-33.4,42.2l-21.2,22.2c-8.3,9-14.2,17.1-17.8,24.4c0.1,1.2,1.1,2.1,2.3,2
				c0.1,0,0.1,0,0.2,0c1.5,0,4.9-1,10.2-2.9c38-13.8,63.3-32.1,75.8-54.9c10.6-19,15.8-50.2,15.8-93.5
				C1217,292.3,1210.6,255.6,1198,215.1z"/>
		</g>
	</g>
</g>
</svg>
