<?xml version="1.0" encoding="utf-8"?>
<!-- Generator: Adobe Illustrator 22.1.0, SVG Export Plug-In . SVG Version: 6.00 Build 0)  -->
<svg version="1.1" id="Layer_1" xmlns="http://www.w3.org/2000/svg" xmlns:xlink="http://www.w3.org/1999/xlink" x="0px" y="0px"
	 viewBox="0 0 887.9 712.9" style="enable-background:new 0 0 887.9 712.9;" xml:space="preserve">
<title>EH-Asset 9-layername</title>
<g id="Layer_2_1_">
	<g id="ElAziz">
		<g>
			<path d="M208.5,129.1c0-7-4.1-10.5-12.2-10.5c-8.1,0-16.8,5.7-26,17c-0.1,0.1-0.2,0.2-0.3,0.4c1.7,1.9,3.2,3.9,4.7,6
				c0.3-0.4,0.5-0.8,0.9-1.1l3.7-1.5c6.4,0,9.7,3.8,9.7,11.3c0,2.9-1.5,6.9-4.5,12c-7.8-6.4-11.6-11.2-11.6-14.5
				c0-2.2,0.6-4.4,1.9-6.2c-1.5-2.1-3.1-4.1-4.7-6c-9,11.2-13.6,20.9-13.6,29.3c0,4.7,3.2,10.2,9.6,16.4
				c-21.7,15.8-42.4,28.5-62.3,38.1c6.3,2,10.8,2.9,13.4,2.9c13.2,0,32.4-11.8,57.6-35.3c5.1,4.6,10.5,8.8,16.1,12.7l8.6-24.2
				l-7.5-7.3C203,154.4,208.5,141.2,208.5,129.1z"/>
			<path d="M261.2,305.4l-2.4-5.1c-3.6-3.4-10.2-7.2-19.8-11.2c-8,11.4-15.5,23-22.5,34.7l22,14.9
				C248.6,325.8,256.2,314.7,261.2,305.4z"/>
			<path d="M290.5,390.6c-8,4.7-16,9.4-23.9,13.9c-11.7,6.8-24.3,17.9-37.6,33.2c-9.1,10.4-18.3,24.8-27.6,43.3
				c-7.5,15.5-15.1,30.9-22.7,46.4c-14.5,26.9-34.9,50.1-59.8,67.9c-27.2,19.5-55.3,29.3-84.5,29.3c-10.9,0.1-21.7-0.9-32.4-3
				l-2,2.2l0.5,1.2c10.6,6.2,37.1,9.3,79.6,9.3c28.2,0,51.7-8.5,70.6-25.6c14.3-13,27.9-33.1,40.8-60.3
				c10.4-23.3,20.8-46.6,31.3-70.1c3.7-7.5,15.5-17.8,35.1-31c8.1-5.5,22.2-14.2,42.2-26.1l12.7-47.1
				C306,380.3,298.5,385.9,290.5,390.6z"/>
			<path d="M309.8,376.7l-12.5,45.9c19.3-16.3,32.6-39.4,39.8-69.3c5.6-23.3,8.3-37.3,8.3-42c0-18.7-5-35.2-15-49.3
				c-6.1,3.4-12,12.4-17.9,26.9c-4.9,12-8.1,23-9.6,32.7l0.5,1.7l2.7-0.2c2.5-5.1,6-9.7,10.3-13.4c7.3,8.5,11,21.2,11,38.1v5.4
				C321.9,364.3,316,372.2,309.8,376.7z"/>
			<path d="M283.5,483.9c-10.1,20.2-15.1,32.9-15.1,38.1l0.2,1.7c10.9-3.7,23.6-10.6,38.1-20.5c17.3-11.7,26.8-21.8,28.6-30.3
				l3.9-18.8c-22.8,13.7-34.9,20.7-36.4,21.2C296.2,477.9,289.7,480.7,283.5,483.9z"/>
			<path d="M450.2,649.9c-3.4,11.1-8.1,18.1-14.2,21l-85.4,42c2.6-10.1,10.3-18.3,23-24.7L450.2,649.9z"/>
			<path d="M537.3,390.6c-8,4.7-16,9.4-23.9,13.9c-11.7,6.8-24.3,17.9-37.6,33.2c-9.1,10.4-18.3,24.8-27.6,43.3
				c-7.5,15.5-15.1,30.9-22.7,46.4c-14.5,26.9-34.9,50.1-59.8,67.9c-27.2,19.5-55.3,29.3-84.5,29.3c-10.9,0.1-21.8-0.9-32.5-2.9
				l-1.9,2.2l0.5,1.2c10.6,6.2,37.1,9.3,79.6,9.3c28.2,0,51.7-8.5,70.6-25.6c14.3-13,27.9-33.1,40.8-60.3
				c10.4-23.3,20.8-46.6,31.3-70.1c3.7-7.5,15.5-17.8,35.2-31c8.1-5.5,22.2-14.3,42.2-26.1l12.7-47.2
				C552.8,380.4,545.4,385.9,537.3,390.6z"/>
			<path d="M508.1,305.4l-2.4-5.1c-3.6-3.4-10.2-7.2-19.8-11.2c-8,11.4-15.5,23-22.5,34.7l22,14.9
				C495.5,325.8,503,314.7,508.1,305.4z"/>
			<path d="M616.5,98.6c-3.4,11.1-8.1,18.1-14.2,21l-85.4,42c2.6-10.1,10.2-18.3,22.9-24.7L616.5,98.6z"/>
			<path d="M676.5,372.8l-12.7,47.3c-14.2,9.1-27.6,13.7-40.3,13.7c-20.1,0-34.3-15.1-42.5-45.2c-15.4,16.4-27.7,27.7-37.1,34.1
				l12.3-45.3l8.1-8.3c-3.2-3.4-7.6-5.4-12.3-5.4c-8,0-13.2,0.5-15.7,1.5c0-4.5,2.8-14,8.3-28.4c2.3-5.5,4.9-10.8,7.8-16
				c5.9-6.3,22.4-9.5,49.6-9.5c19,0,28.6,5.2,28.6,15.6c0,9.4-8.1,22.9-24.2,40.4c4.4,17,13.7,25.6,27.8,25.6
				C647.3,392.8,661.4,386.1,676.5,372.8z"/>
			<path d="M696,8.1c-4.4-5.4-9.4-8.1-15.2-8.1c-12.7,0-24.2,6.8-34.3,20.3c-3,4-5.5,8-7.5,12c2.5,0.5,5,1,7.4,1.5
				c1-2.2,2.4-4.3,4.3-6.4c4-4.5,8.5-6.7,13.4-6.7c3.9,0,8.5,2.3,13.9,6.9s8,8.9,8,12.9c0,7.8-7.4,11.7-22.1,11.7
				c-12.8,0-19.2-3.6-19.2-10.7c0-2.7,0.6-5.3,1.7-7.8c-2.5-0.5-5-1-7.4-1.5c-4.3,8.6-6.5,17.4-6.5,26.3c0,11.7,6.7,17.6,20.1,17.6
				c12.7,0,24.1-5.4,34.2-16.4c10-10.9,15.1-22.7,15.1-35.4C701.9,18.4,699.8,12.7,696,8.1z"/>
			<path d="M749,220.5c0,45.9-5.8,83.8-17.3,113.8c-14,35.8-37.9,65.4-71.8,88.9l12.2-45.7c41.5-33.2,62.3-66.6,62.3-100.1
				c0-25.1-7.9-55.4-23.7-91.1c-3.1,15.9-7.7,39.8-13.8,71.5c-2.6,13.7-4.8,20.5-6.5,20.5l-2.2-0.7l-0.5-3.2
				c0-13.2,3.4-37.9,10.2-74.2c7.1-39.2,13.3-61.8,18.5-67.6c8.9,5.5,16.8,19,23.6,40.3C746,191.3,749,207.1,749,220.5z"/>
			<path d="M796.9,13.2c-3.4,11.1-8.1,18.1-14.2,21l-85.4,42c2.6-10.1,10.2-18.3,22.9-24.7L796.9,13.2z"/>
			<path d="M801.3,93.8c0-4.9-2.9-7.3-8.8-7.3c-8.1,0-12.2-1.1-12.2-3.4c0-4.1,2.4-6.1,7.3-6.1c1.7,0,3.3,0.3,4.9,1
				c1.6-1.1,3.9-4.6,7-10.3s4.8-9.8,5.3-12.2c-1.7-0.9-3.5-1.5-5.4-1.7c-6.9,0-14.8,5.9-23.8,17.8S762,92.9,762,99.8
				c0,6.4,3.2,9.4,9.7,9.3c5.1-0.2,7.9,0.3,8.4,1.2c-2.6,3.6-11.2,8.1-25.6,13.4L724.6,134c0,2,1,2.9,3.2,2.9
				c13.7,0,28.6-3.8,44.9-11.5C791.7,116.4,801.3,105.8,801.3,93.8z"/>
			<path d="M869,215.1c-11.2-35.8-26.2-70.4-44.8-103c-10.1,30.3-15.1,75.6-15.1,136c0,32.5,2.7,49.3,8,50.3
				c3.7-1.8,5.5-11.1,5.5-28.1c0-9.1,2.1-29.3,6.3-60.5c8.2,15.5,17,36.2,26.5,62.3c10.8,29.8,16.2,50.8,16.2,63
				c0,17.1-5.1,34-15.4,50.8c-6,9.9-17.2,24-33.5,42.2l-21.3,22.2c-8.3,9-14.2,17.1-17.8,24.4c0.2,1.3,1,2,2.4,2s4.9-1,10.2-2.9
				c38-13.8,63.3-32.1,75.8-54.9c10.5-19,15.8-50.2,15.8-93.5C887.9,292.3,881.6,255.6,869,215.1z"/>
		</g>
	</g>
</g>
</svg>
