<svg xmlns="http://www.w3.org/2000/svg" viewBox="0 0 1500 1000">
  <title>EH-Artboard 25</title>
  <g id="ElAlim">
    <g>
      <path d="M539.67,207.88q0,18-16.39,39.52l7.47,7.31-8.55,24.16a170.85,170.85,0,0,1-16.12-12.74q-37.84,35.26-57.62,35.26-3.9,0-13.42-2.93,29.77-14.4,62.25-38.08-9.62-9.28-9.62-16.36,0-12.69,13.85-29.66t26-17Q539.67,197.39,539.67,207.88ZM520.14,229.4q0-11.25-9.66-11.26l-3.72,1.47A11,11,0,0,0,504,227q0,4.89,11.65,14.44Q520.14,233.81,520.14,229.4Z"/>
      <path d="M608.28,514.53l-12.21,45.65Q568,577.76,539.92,595.09q-38.58,26.61-38.58,39.07c0,1.79,1,2.68,2.93,2.68q7.34,0,22-15.62,10-10.74,19.77-21.73c1.14.81,1.71,2.19,1.71,4.15q0,3.42-3.66,19-4.65,20-5.13,21.49a64.39,64.39,0,0,1-10.5,19.28Q517.94,677.13,482,703q-41.11,29.54-55.31,43.7Q400,773.07,400,796.75q0,23.93,39.56,37.36,32.46,11.22,73.24,11.23,66.88,0,89.35-2.2l.49,1.22q0,7-40.28,12-31.26,3.84-52,3.84-125,0-125-63.23,0-29.06,23.73-65.43,21.28-32.48,48.19-52l30.1-22a41,41,0,0,1-1.93-12.94q0-19,14.91-44.67,14.88-24.66,31.48-35.4Q582.64,532.1,608.28,514.53Z"/>
      <path d="M739.87,716.43q-5.13,16.61-14.16,21l-85.45,42q3.9-15.13,23-24.66Z"/>
      <path d="M786.5,513.79,774.05,560q-15.63,12.15-33,12.14-26.37,0-25.64-48l.25-23.92q-18.44,41-48.59,62.5l12.21-45.47Q703.64,497.2,710,485q7.61-13.92,7.61-42.73,0-12.45-1.2-37t-1.21-37q0-6.35,4.81-21.12t8.65-18.43l2.16,1q2.45,42.24,2.45,169.92,0,29.31,20.26,29.3Q768.92,528.93,786.5,513.79Z"/>
      <path d="M843.14,238.4Q838,255,829,259.4l-85.45,42q3.9-15.13,23-24.66Z"/>
      <path d="M903.2,512.57l-12.7,47.31q-21.24,13.73-40.28,13.73-30.15,0-42.48-45.17Q784.66,553,770.67,562.56l12.27-45.31,8.11-8.32a17,17,0,0,0-12.28-5.39q-12,0-15.71,1.46,0-6.79,8.3-28.43a137.77,137.77,0,0,1,7.81-16q8.79-9.48,49.57-9.48,28.56,0,28.56,15.58,0,14.12-24.17,40.4,6.58,25.56,27.83,25.56Q880.49,532.59,903.2,512.57Z"/>
      <path d="M928.59,164.18q0,19-15.07,35.4t-34.18,16.36q-20.08,0-20.09-17.58,0-19.77,14-38.33,15.18-20.25,34.3-20.26,8.57,0,15.19,8.06A26.12,26.12,0,0,1,928.59,164.18Zm-15.87,16.18q0-5.94-8-12.9t-13.88-6.94q-7.36,0-13.38,6.7t-6,14.13q0,10.67,19.16,10.67Q912.72,192,912.72,180.36Z"/>
      <path d="M975.71,360.23q0,68.85-17.34,113.77-21,53.72-71.77,88.87l12.2-45.66q62.26-49.8,62.26-100.1,0-37.59-23.68-91.06-4.59,23.93-13.77,71.53-3.87,20.51-6.52,20.51l-2.18-.73-.48-3.18q0-19.77,10.21-74.21,10.7-58.85,18.48-67.63,13.38,8.3,23.59,40.28Q975.71,340.22,975.71,360.23Z"/>
      <path d="M1023.56,153q-5.13,16.61-14.16,21l-85.45,42q3.9-15.13,22.95-24.66Z"/>
      <path d="M627.67,541.14q-10,0-14.16-2.69,18.93-26.12,18.94-43.94a43.22,43.22,0,0,0-.73-8.3Q618.12,501.83,605,517l-12.14,45.32,6.56-5.17q9.72,18,30.69,18,19.77,0,40.28-15l12.45-46.52q-9.76,9.76-25.63,18.31Q639.38,541.15,627.67,541.14Z"/>
      <path d="M586.79,626.34q-15.87,32.24-15.62,39.8,14.34-7.57,21.41-11.72,29.92-17.08,33.82-21,9-9,15.32-36.62-28.92,17.58-36.46,20.75Q591.16,623.66,586.79,626.34Z"/>
      <path d="M1028,233.52q0-7.32-8.78-7.32c-8.15,0-12.21-1.14-12.21-3.42q0-6.1,7.32-6.11a12,12,0,0,1,4.89,1q2.43-1.69,6.95-10.27t5.25-12.21a15.19,15.19,0,0,0-5.4-1.69q-10.32,0-23.82,17.82t-13.5,28.32q0,9.52,9.65,9.28,7.66-.24,8.41,1.22-3.91,5.37-25.63,13.43L951.29,273.8c0,2,1.06,2.93,3.17,2.93q20.52,0,44.93-11.47Q1027.95,251.59,1028,233.52Z"/>
      <path d="M1095.64,354.86a525.35,525.35,0,0,0-44.78-103q-15.1,45.41-15.09,136,0,48.82,8,50.29,5.55-2.69,5.55-28.08,0-13.66,6.27-60.54,12.27,23.19,26.52,62.25,16.21,44.68,16.21,63,0,25.63-15.38,50.78-9,14.9-33.45,42.24L1028.2,590q-12.45,13.42-17.82,24.41a2.11,2.11,0,0,0,2.43,2q2.19,0,10.23-2.93,57-20.74,75.75-54.93,15.82-28.56,15.83-93.5Q1114.62,415.65,1095.64,354.86Z"/>
    </g>
  </g>
</svg>
