<svg xmlns="http://www.w3.org/2000/svg" viewBox="0 0 1500 1000">
  <title>EH-Artboard 52</title>
  <g id="ElHakim">
    <g>
      <path d="M480.71,207.88q0,18-16.39,39.52l7.47,7.31-8.55,24.16a170.85,170.85,0,0,1-16.12-12.74q-37.85,35.26-57.62,35.26-3.9,0-13.42-2.93,29.78-14.4,62.25-38.08-9.61-9.28-9.62-16.36,0-12.69,13.85-29.66t26-17Q480.71,197.39,480.71,207.88ZM461.18,229.4q0-11.25-9.66-11.26l-3.72,1.47a11,11,0,0,0-2.73,7.35q0,4.89,11.65,14.44Q461.17,233.81,461.18,229.4Z"/>
      <path d="M549.32,514.53l-12.21,45.65Q509,577.76,481,595.09q-38.58,26.61-38.58,39.07c0,1.79,1,2.68,2.93,2.68q7.33,0,22-15.62,10-10.74,19.77-21.73c1.14.81,1.71,2.19,1.71,4.15q0,3.42-3.66,19-4.65,20-5.13,21.49a64.39,64.39,0,0,1-10.5,19.28Q459,677.13,423.05,703q-41.12,29.54-55.31,43.7-26.67,26.37-26.68,50,0,23.93,39.56,37.36,32.46,11.22,73.24,11.23,66.88,0,89.35-2.2l.49,1.22q0,7-40.28,12-31.26,3.84-52,3.84-125,0-125-63.23,0-29.06,23.73-65.43,21.28-32.48,48.19-52l30.1-22a41,41,0,0,1-1.93-12.94q0-19,14.91-44.67,14.88-24.66,31.48-35.4Q523.67,532.1,549.32,514.53Z"/>
      <path d="M527.83,626.34q-15.87,32.24-15.62,39.8,14.34-7.57,21.41-11.72,29.93-17.08,33.82-21,9-9,15.32-36.62-28.92,17.58-36.46,20.75Q532.2,623.66,527.83,626.34Z"/>
      <path d="M598.25,531.86q-17.84,9.28-29.54,9.28-10,0-14.16-2.69,18.93-26.12,18.94-43.94a43.22,43.22,0,0,0-.73-8.3Q559.16,501.83,546,517L533.9,562.29l6.56-5.17q9.72,18,30.69,18,19.77,0,40.28-15l12.45-46.52Q614.12,523.31,598.25,531.86Z"/>
      <path d="M680.91,716.43q-5.13,16.61-14.16,21l-85.45,42q3.9-15.13,23-24.66Z"/>
      <path d="M812,238.4q-5.13,16.6-14.16,21l-85.45,42q3.9-15.13,23-24.66Z"/>
      <path d="M961.15,514.23,948.7,560.72q-30,18.51-59.81,18.5-25.89,0-42-19-15.33-18-15.33-44.13,0-12.44,4.38-32-32.36,24.69-69.34,56.94Q759,579.64,760,606l-2.2,4.15-1.22.73-1.22-1.22V579.15l2-30.27q-5.85,4.61-17.57,13.35l12.45-45.86,9-8.54q11.76-54.39,22-73.42,20.09-37.07,61.21-37.07,10.75,0,31.63,6.19T908,409.71a76.74,76.74,0,0,0,32.23-6.79q-4.4,23.44-15.63,39.32-49.32,10-75.44,33.21a112.59,112.59,0,0,0-1.74,19.78q0,18.81,13.92,30.28,12.93,10.74,32,10.74Q933.08,536.25,961.15,514.23ZM854.49,442q-20.5-4.89-28.32-4.9-44.67,0-54.44,62.66,28.8-23.75,39.55-31.57Q834.23,451.33,854.49,442Z"/>
      <path d="M987.55,164.18q0,19-15.07,35.4T938.3,215.94q-20.09,0-20.09-17.58,0-19.77,14-38.33,15.18-20.25,34.3-20.26,8.57,0,15.19,8.06A26.12,26.12,0,0,1,987.55,164.18Zm-15.87,16.18q0-5.94-8-12.9t-13.88-6.94q-7.37,0-13.38,6.7t-6,14.13q0,10.67,19.16,10.67Q971.68,192,971.68,180.36Z"/>
      <path d="M1034.67,360.23q0,68.85-17.34,113.77-21,53.72-71.77,88.87l12.2-45.66q62.26-49.8,62.26-100.1,0-37.59-23.68-91.06-4.59,23.93-13.77,71.53-3.87,20.51-6.52,20.51l-2.18-.73-.48-3.18q0-19.77,10.21-74.21,10.7-58.85,18.48-67.63,13.38,8.3,23.59,40.28Q1034.67,340.22,1034.67,360.23Z"/>
      <path d="M1082.52,153q-5.13,16.61-14.16,21l-85.45,42q3.9-15.13,23-24.66Z"/>
      <path d="M681.64,523.32q-4.89-6.84-5.86-26.62-1-19-1.46-74.46-.26-46.62-2.93-74.46l-2.17-1Q666.1,350,661.05,364t-5,18.92q0,10.26,1.2,30.52T658.42,444q0,27.82-7.86,41.75-6.37,11.71-30.2,31.49L608.15,562.7q30.15-21.48,48.59-62.5,1,39.06,3.65,48.83,7.3,27,34.1,27,25.82,0,48.7-16l12.43-46.24q-22.47,19.29-48.34,19.29Q688.47,533.08,681.64,523.32Z"/>
      <path d="M812.74,143.43q-35.4,66.66-47.36,86.43-29,47.37-60.52,76.9-49.05,37.85-74.91,54l2.93,1q25.86-5.35,64.66-36.86,33.91-27.1,54.41-53.47-.48,18.81,2,29.54L758.3,298q2-42.23,59.82-155.27l-2.2-1.22Z"/>
      <path d="M1086.91,233.52q0-7.32-8.78-7.32c-8.15,0-12.21-1.14-12.21-3.42q0-6.1,7.32-6.11a12,12,0,0,1,4.89,1q2.43-1.69,6.95-10.27t5.25-12.21a15.19,15.19,0,0,0-5.4-1.69q-10.32,0-23.82,17.82t-13.5,28.32q0,9.52,9.65,9.28,7.66-.24,8.41,1.22-3.92,5.37-25.63,13.43l-29.79,10.25c0,2,1.06,2.93,3.17,2.93q20.52,0,44.93-11.47Q1086.91,251.59,1086.91,233.52Z"/>
      <path d="M1154.6,354.86a525.35,525.35,0,0,0-44.78-103q-15.1,45.41-15.09,136,0,48.82,8,50.29,5.55-2.69,5.55-28.08,0-13.66,6.27-60.54,12.27,23.19,26.52,62.25,16.21,44.68,16.21,63,0,25.63-15.38,50.78-9,14.9-33.45,42.24L1087.16,590q-12.45,13.42-17.82,24.41a2.11,2.11,0,0,0,2.43,2q2.19,0,10.23-2.93,57-20.74,75.75-54.93,15.82-28.56,15.83-93.5Q1173.58,415.65,1154.6,354.86Z"/>
    </g>
  </g>
</svg>
