<svg xmlns="http://www.w3.org/2000/svg" viewBox="0 0 1500 1000">
  <title>EH-Artboard 67</title>
  <g id="ElMumiit">
    <g>
      <path d="M366,236.08q0,18-16.4,39.52l7.48,7.31-8.55,24.15a170.66,170.66,0,0,1-16.12-12.73q-37.84,35.26-57.62,35.26-3.91,0-13.43-2.93,29.79-14.4,62.26-38.09Q314,279.3,314,272.22q0-12.69,13.85-29.67t26-17Q366,225.59,366,236.08ZM346.51,257.6q0-11.25-9.67-11.26l-3.72,1.47a10.94,10.94,0,0,0-2.73,7.34q0,4.91,11.65,14.45Q346.51,262,346.51,257.6Z"/>
      <path d="M676.34,560.06a27,27,0,0,1-17.45-6.2,19.31,19.31,0,0,1-7.69-15.68q0-6.33,4.51-18t4.76-17.75l-1-2.43-3.91.49-113,105.38q-72.75,63.81-138.18,63.81-35.16,0-63-27.22t-27.83-62.38a90.5,90.5,0,0,1,6.59-33.69q35.61-89.11,183.93-89.11,34.4,0,60.5-10,48.79-18.81,56.35-23.93l-.24-2.69q-63,25.39-113,25.15l-43-.24q-52-.24-92.28,26.12t-61,74.22q-10.74,24.66-10.74,45.16,0,49.82,27.59,83,29.55,35.18,78.38,35.18,45.66,0,101.82-41.57,35.4-26.4,84.48-78.24,41.26-43.51,47.12-44.74l.49,1.22q-2,5.9-2,15.7,0,16.17,7.72,27.21,8.64,12.75,24,12.75,12,0,30.76-13.23l12.45-46.57Q696.61,560.06,676.34,560.06Z"/>
      <path d="M588.94,365.72q2.68-13.91,4.15-18.55A445.05,445.05,0,0,1,537.43,377q-15.63,31-15.14,39.8Q585.28,385.75,588.94,365.72Z"/>
      <path d="M844.8,769q-5.13,16.61-14.16,21l-85.45,42q3.9-15.13,22.95-24.66Z"/>
      <path d="M906.57,542.48,894.12,588.9a36.12,36.12,0,0,1-19.29,5.58q-17.34,0-27.35-15.29Q827,604.59,821.85,604.58q-5.62,0-16.6-12.94Q795,579.67,793,572.88q-5.61,7.53-21,18l12.2-45.43q11.24-10.5,33.69-31.25,2.44,0,24.17,18.31t37.11,18.31A46.77,46.77,0,0,0,906.57,542.48Z"/>
      <path d="M969.07,236.08q0,18-16.4,39.52l7.47,7.31-8.55,24.15a169.33,169.33,0,0,1-16.11-12.73q-37.85,35.26-57.62,35.26-3.92,0-13.43-2.93,29.79-14.4,62.26-38.09-9.63-9.27-9.63-16.35,0-12.69,13.86-29.67t26-17Q969.07,225.59,969.07,236.08ZM949.54,257.6q0-11.25-9.67-11.26l-3.72,1.47a10.94,10.94,0,0,0-2.73,7.34q0,4.91,11.65,14.45Q949.54,262,949.54,257.6Z"/>
      <path d="M1025.71,542.48l-12.45,46.42A36.12,36.12,0,0,1,994,594.48q-17.34,0-27.34-15.29Q946.11,604.59,941,604.58q-5.62,0-16.6-12.94-10.26-12-12.21-18.76-5.61,7.53-21,18l12.2-45.43q11.24-10.5,33.69-31.25,2.45,0,24.17,18.31t37.11,18.31A46.77,46.77,0,0,0,1025.71,542.48Z"/>
      <path d="M1052.56,192.38q0,19.05-15.07,35.4t-34.17,16.36q-20.1,0-20.09-17.58,0-19.77,14-38.33,15.19-20.26,34.3-20.26,8.58,0,15.19,8.06A26.1,26.1,0,0,1,1052.56,192.38Zm-15.87,16.18q0-6-8-12.9t-13.87-6.94q-7.38,0-13.39,6.7t-6,14.13q0,10.66,19.16,10.66Q1036.69,220.21,1036.69,208.56Z"/>
      <path d="M1099.68,388.43q0,68.85-17.33,113.77-21,53.71-71.78,88.86l12.21-45.65q62.25-49.8,62.25-100.1,0-37.59-23.68-91.06-4.59,23.92-13.77,71.53-3.87,20.5-6.52,20.51l-2.17-.73-.49-3.18q0-19.77,10.21-74.22,10.71-58.83,18.49-67.62,13.37,8.29,23.58,40.28Q1099.68,368.41,1099.68,388.43Z"/>
      <path d="M1147.53,181.15q-5.12,16.6-14.16,21l-85.45,42q3.91-15.13,22.95-24.66Z"/>
      <path d="M691.72,654.54q-15.87,32.24-15.62,39.8,14.35-7.58,21.41-11.72,29.93-17.08,33.82-21,9-9,15.32-36.62-28.92,17.58-36.46,20.75Q696.09,651.86,691.72,654.54Z"/>
      <path d="M732.6,569.34q-10,0-14.16-2.69,18.93-26.11,18.94-43.94a43.4,43.4,0,0,0-.73-8.31Q723,530,709.93,545.17l-12.14,45.31,6.56-5.16q9.72,18,30.69,17.95,19.77,0,40.28-15l12.45-46.52q-9.76,9.76-25.63,18.31Q744.32,569.35,732.6,569.34Z"/>
      <path d="M1219.61,383.06a525.35,525.35,0,0,0-44.78-103q-15.09,45.41-15.09,136,0,48.83,8,50.29,5.54-2.69,5.54-28.08,0-13.67,6.28-60.54,12.27,23.19,26.52,62.25,16.2,44.69,16.2,63,0,25.63-15.38,50.78-9,14.89-33.45,42.24l-21.24,22.21q-12.45,13.44-17.82,24.42c.16,1.3,1,1.95,2.44,1.95s4.86-1,10.22-2.93q57-20.75,75.76-54.93,15.82-28.56,15.83-93.51Q1238.6,443.86,1219.61,383.06Z"/>
      <path d="M1151.93,261.72q0-7.32-8.79-7.33-12.21,0-12.21-3.41,0-6.1,7.33-6.11a11.92,11.92,0,0,1,4.88,1q2.43-1.69,7-10.28t5.25-12.2a15,15,0,0,0-5.41-1.69q-10.31,0-23.81,17.82t-13.51,28.32q0,9.53,9.65,9.28c5.11-.16,7.92.24,8.41,1.22q-3.9,5.37-25.63,13.43L1075.26,302c0,2,1.06,2.93,3.18,2.93q20.5,0,44.92-11.47Q1151.92,279.78,1151.93,261.72Z"/>
    </g>
  </g>
</svg>
