<svg xmlns="http://www.w3.org/2000/svg" viewBox="0 0 1500 1000">
  <title>EH-Artboard 35</title>
  <g id="ElAdl">
    <g>
      <path d="M432.69,230.58q0,18.06-16.4,39.52l7.48,7.32-8.55,24.15a170.66,170.66,0,0,1-16.12-12.73q-37.85,35.25-57.62,35.26-3.92,0-13.43-2.93,29.79-14.4,62.26-38.09-9.63-9.27-9.62-16.36,0-12.69,13.85-29.66t26-17Q432.69,220.09,432.69,230.58Zm-19.53,21.53q0-11.27-9.67-11.27l-3.72,1.47a11,11,0,0,0-2.72,7.35q0,4.91,11.65,14.45Q413.16,256.52,413.16,252.11Z"/>
      <path d="M748.61,382.93l-1,2.93q-68.11,35.65-136.72,63.48a416.7,416.7,0,0,1,9.28,85.21q0,78.12-49.61,157.71-26.39,42.24-48.14,61-31,26.61-70.87,26.61-46.18,0-68.43-39.8-17.34-31.25-17.34-81.54,0-34.67,22.21-72.27A215.35,215.35,0,0,1,439.28,527q35.89-29.06,108.89-61.53,0-6.09-.25-26.61-.48-18.79-.48-31.74a288.05,288.05,0,0,1,13.67-87.4q30.51,51.53,48.09,120.85,55.9-20.74,137.21-59.32ZM602.12,545q0-38.32-12.2-87.64L559.4,469.85q-1.74,9.28-4.2,71.29-2,51.51-8.9,63l-2.72,1.22-2.72-1.71q4.38-25.39,5.6-64.21,1-32.23,1.71-64.45-52.9,23.92-100.93,63.23-69,56.64-69,121.58,0,32.72,19,54.69,20.24,22.95,52.43,22.95,60.72,0,106.57-59.09T602.12,545Zm-14.65-96.43q-7.32-23.92-10.49-32.23a188.41,188.41,0,0,0-13.92-30.52q-3.42,4.15-3.42,74.71Z"/>
      <path d="M648.27,357.79q0,19-15.07,35.4T599,409.55q-20.1,0-20.09-17.58,0-19.79,14-38.33,15.18-20.26,34.3-20.27,8.56,0,15.19,8.06A26.21,26.21,0,0,1,648.27,357.79ZM632.4,374q0-6-8-12.9t-13.87-6.94q-7.37,0-13.39,6.69t-6,14.14q0,10.67,19.15,10.66Q632.4,385.62,632.4,374Z"/>
      <path d="M844.8,621.46l-12.45,46.48a173.66,173.66,0,0,1-28.08,16q-19.77,9.35-29.78,9.34-27.11,0-27.1-40.77a112.58,112.58,0,0,1,1.46-15.87h-2q-1.47,0-7,6.71t-21.12,35.77q-36.87,68.61-68.6,84.23-18.56,9-32.47,11.47-10.5,2-34.67,2a263.48,263.48,0,0,1-27.59-2q-21.24-2.49-24.9-5.49l.73-1.49,3.42-2q36.87,0,60.06-7.57t52.73-29.54q31.74-23.45,44.93-42.73,16.85-27.33,33.69-54.93Q751.08,592.42,765,586.3l2.44,2.2.48,2.44c-.48,1.63-1.22,5-2.19,10.26a131.42,131.42,0,0,0-2.44,25.39q0,26.11,21.72,26.12Q807.2,652.71,844.8,621.46Z"/>
      <path d="M900.46,346.56q-5.12,16.6-14.16,21l-85.45,42q3.92-15.14,22.95-24.66Z"/>
      <path d="M960.52,620.73,947.83,668q-21.24,13.73-40.29,13.72-30.15,0-42.48-45.16Q842,661.14,828,670.71l12.27-45.3,8.1-8.33a17,17,0,0,0-12.28-5.39q-12,0-15.7,1.47,0-6.81,8.3-28.44a136.92,136.92,0,0,1,7.81-16q8.79-9.46,49.56-9.48,28.56,0,28.56,15.58,0,14.13-24.17,40.41,6.6,25.56,27.84,25.56Q937.81,640.75,960.52,620.73Z"/>
      <path d="M985.91,272.34q0,19-15.07,35.4T936.67,324.1q-20.1,0-20.09-17.58,0-19.78,14-38.33,15.19-20.26,34.3-20.27,8.58,0,15.19,8.06A26.15,26.15,0,0,1,985.91,272.34ZM970,288.52q0-6-8-12.9t-13.88-6.94q-7.36,0-13.38,6.69t-6,14.14q0,10.67,19.16,10.66Q970,300.17,970,288.52Z"/>
      <path d="M1033,468.38q0,68.85-17.33,113.77-21,53.72-71.78,88.87l12.21-45.65q62.25-49.82,62.25-100.1,0-37.59-23.68-91.07-4.59,23.94-13.77,71.54-3.87,20.5-6.52,20.51l-2.17-.74-.49-3.17q0-19.77,10.21-74.22,10.71-58.83,18.49-67.63,13.37,8.31,23.58,40.29Q1033,448.37,1033,468.38Z"/>
      <path d="M1080.88,261.11q-5.12,16.61-14.16,21l-85.45,42q3.91-15.14,23-24.66Z"/>
      <path d="M1085.28,341.67q0-7.32-8.79-7.32-12.21,0-12.21-3.42,0-6.09,7.33-6.1a12,12,0,0,1,4.88,1q2.43-1.71,7-10.28t5.25-12.2a15,15,0,0,0-5.41-1.69q-10.3,0-23.82,17.82T1046,347.78q0,9.53,9.65,9.28c5.11-.16,7.92.24,8.41,1.22q-3.9,5.37-25.63,13.42L1008.61,382q0,2.93,3.18,2.93,20.51,0,44.92-11.48Q1085.27,359.75,1085.28,341.67Z"/>
      <path d="M1153,463a525.26,525.26,0,0,0-44.78-103q-15.09,45.4-15.09,136,0,48.84,8,50.29,5.54-2.67,5.54-28.07,0-13.67,6.28-60.55,12.27,23.21,26.52,62.26,16.2,44.67,16.2,63,0,25.64-15.38,50.78-9,14.9-33.45,42.23-10.5,11-21.24,22.22-12.45,13.43-17.82,24.41a2.12,2.12,0,0,0,2.44,2q2.17,0,10.22-2.93,57-20.74,75.76-54.93,15.83-28.57,15.83-93.51Q1172,523.82,1153,463Z"/>
    </g>
  </g>
</svg>
