<svg xmlns="http://www.w3.org/2000/svg" viewBox="0 0 1500 1000">
  <title>EH-Artboard 62</title>
  <g id="ElHamid">
    <g>
      <path d="M440.55,236.08q0,18-16.39,39.52l7.47,7.31-8.55,24.15A170.66,170.66,0,0,1,407,294.33q-37.84,35.26-57.62,35.26-3.9,0-13.43-2.93,29.79-14.4,62.26-38.09-9.63-9.27-9.62-16.35,0-12.69,13.85-29.67t26-17Q440.55,225.59,440.55,236.08ZM421,257.6q0-11.25-9.67-11.26l-3.72,1.47a11,11,0,0,0-2.72,7.34q0,4.91,11.65,14.45Q421,262,421,257.6Z"/>
      <path d="M601.44,541.5,589,588a173.64,173.64,0,0,1-28.08,16q-19.77,9.33-29.78,9.33-27.11,0-27.1-40.77a112.58,112.58,0,0,1,1.46-15.87h-1.95q-1.47,0-7,6.71t-21.12,35.77q-36.85,68.61-68.6,84.23-18.56,9-32.47,11.47-10.5,2-34.67,2a266.28,266.28,0,0,1-27.59-2q-21.24-2.49-24.9-5.49l.73-1.5,3.42-2q36.87,0,60.06-7.57t52.73-29.54Q435.91,625.25,449.1,606q16.84-27.35,33.69-54.93,24.93-38.58,38.82-44.68l2.44,2.19.49,2.45q-.74,2.44-2.2,10.25a131.49,131.49,0,0,0-2.44,25.39q0,26.13,21.73,26.12Q563.83,572.75,601.44,541.5Z"/>
      <path d="M732.06,769q-5.13,16.61-14.16,21l-85.45,42q3.9-15.13,22.95-24.66Z"/>
      <path d="M793.82,542.48,781.37,588.9a36.07,36.07,0,0,1-19.29,5.58q-17.33,0-27.34-15.29-20.5,25.39-25.63,25.39-5.62,0-16.61-12.94-10.25-12-12.2-18.76-5.62,7.53-21,18l12.21-45.43q11.22-10.5,33.69-31.25,2.44,0,24.17,18.31t37.11,18.31A46.74,46.74,0,0,0,793.82,542.48Z"/>
      <path d="M851.2,266.6q-5.13,16.61-14.16,21l-85.45,42q3.9-15.13,22.95-24.66Z"/>
      <path d="M1000.34,542.43l-12.46,46.49q-30,18.51-59.81,18.5-25.87,0-42-19-15.33-18-15.33-44.13,0-12.43,4.38-31.95Q842.76,537,805.79,569.26q-7.57,38.58-6.6,65L797,638.36l-1.22.73-1.22-1.22V607.35l2-30.27q-5.87,4.6-17.58,13.35l12.45-45.86,9-8.54q11.75-54.39,22-73.42,20.07-37.07,61.21-37.07,10.74,0,31.62,6.18t31.86,6.19a76.71,76.71,0,0,0,32.23-6.79q-4.39,23.44-15.62,39.32-49.32,10-75.44,33.21a112.51,112.51,0,0,0-1.74,19.78q0,18.8,13.91,30.28,12.94,10.74,32,10.74Q972.26,564.45,1000.34,542.43Zm-106.66-72.2q-20.52-4.91-28.32-4.9-44.68,0-54.45,62.65,28.82-23.73,39.55-31.57Q873.41,479.54,893.68,470.23Z"/>
      <path d="M1026.73,192.38q0,19.05-15.06,35.4t-34.18,16.36q-20.1,0-20.09-17.58,0-19.77,14-38.33,15.2-20.26,34.3-20.26,8.58,0,15.19,8.06A26.1,26.1,0,0,1,1026.73,192.38Zm-15.87,16.18q0-6-8-12.9T989,188.72q-7.38,0-13.39,6.7t-6,14.13q0,10.66,19.16,10.66Q1010.86,220.21,1010.86,208.56Z"/>
      <path d="M1073.85,388.43q0,68.85-17.33,113.77-21,53.71-71.78,88.86L997,545.41q62.25-49.8,62.25-100.1,0-37.59-23.68-91.06-4.59,23.92-13.77,71.53-3.87,20.5-6.52,20.51l-2.17-.73-.49-3.18q0-19.77,10.22-74.22,10.7-58.83,18.48-67.62,13.37,8.29,23.58,40.28Q1073.85,368.41,1073.85,388.43Z"/>
      <path d="M1121.7,181.15q-5.12,16.6-14.16,21l-85.45,42Q1026,229,1045,219.48Z"/>
      <path d="M619.85,569.34q-10,0-14.16-2.69,18.94-26.11,18.94-43.94a43.45,43.45,0,0,0-.72-8.31q-13.6,15.63-26.72,30.77l-12.14,45.31,6.56-5.16q9.71,18,30.69,17.95,19.77,0,40.28-15L675,541.75q-9.76,9.76-25.63,18.31Q631.57,569.35,619.85,569.34Z"/>
      <path d="M579,654.54q-15.87,32.24-15.63,39.8,14.35-7.58,21.42-11.72,29.91-17.08,33.81-21,9-9,15.33-36.62Q605,642.58,597.45,645.75,583.35,651.86,579,654.54Z"/>
      <path d="M1193.78,383.06A524.76,524.76,0,0,0,1149,280q-15.09,45.41-15.09,136,0,48.83,8,50.29,5.54-2.69,5.55-28.08,0-13.67,6.27-60.54,12.27,23.19,26.52,62.25,16.2,44.69,16.2,63,0,25.63-15.38,50.78-9,14.89-33.45,42.24l-21.24,22.21q-12.45,13.44-17.82,24.42c.16,1.3,1,1.95,2.44,1.95s4.87-1,10.23-2.93q57-20.75,75.75-54.93,15.82-28.56,15.83-93.51Q1212.77,443.86,1193.78,383.06Z"/>
      <path d="M1126.1,261.72q0-7.32-8.79-7.33-12.21,0-12.21-3.41,0-6.1,7.33-6.11a11.92,11.92,0,0,1,4.88,1q2.43-1.69,7-10.28t5.25-12.2a15,15,0,0,0-5.4-1.69q-10.32,0-23.82,17.82t-13.51,28.32q0,9.53,9.65,9.28c5.11-.16,7.92.24,8.41,1.22q-3.9,5.37-25.63,13.43L1049.43,302c0,2,1.06,2.93,3.18,2.93q20.51,0,44.92-11.47Q1126.09,279.78,1126.1,261.72Z"/>
    </g>
  </g>
</svg>
