<svg xmlns="http://www.w3.org/2000/svg" viewBox="0 0 1500 1000">
  <title>EH-Artboard 68</title>
  <g id="ElHajj">
    <g>
      <path d="M660.4,524.29l-12.69,46.63q-20.52,12.71-41,25.64-37.35,24.9-37.35,33,0,14.9,30,26.12,21,7.58,21,21,0,51-42.83,109.86-45.78,63.22-94.72,63.23-56.3,0-56.3-72.51a200.23,200.23,0,0,1,16.64-79.59q11.73-27.58,39.13-67.14,37.43-54.43,45.25-67.62,14.43-24.42,31.55-81.55L563,483q-2.68,31.5-27.35,84.72-9.76,21-37.1,59.81-29.79,41.76-40,61.53-18.81,35.64-18.8,66.4,0,25.88,16.84,40.29,15.87,13.43,42.24,13.42,24.16,0,66-39.91t41.87-61.4q0-5.86-13.18-10-18.32-5.62-24.17-9.77-13.19-9-13.19-27.34,0-61.77,28.32-84.23Q610.1,559,660.4,524.29Z"/>
      <path d="M711.91,248.9q-5.11,16.61-14.16,21l-85.45,42q3.91-15.13,23-24.66Z"/>
      <path d="M861.05,524.73,848.6,571.22q-30,18.51-59.81,18.5-25.89,0-42-19-15.33-18-15.33-44.13,0-12.44,4.38-32-32.36,24.69-69.34,56.94-7.56,38.58-6.59,64.94l-2.2,4.16-1.22.73-1.22-1.22V589.65l2-30.27q-5.87,4.61-17.58,13.35l12.45-45.86,9-8.54q11.76-54.39,22-73.42,20.07-37.07,61.2-37.07,10.75,0,31.63,6.18t31.86,6.19a76.71,76.71,0,0,0,32.23-6.79q-4.4,23.44-15.63,39.32Q775.14,462.75,749,486a112.51,112.51,0,0,0-1.74,19.78q0,18.79,13.92,30.28,12.94,10.74,32,10.74Q833,546.75,861.05,524.73Zm-106.66-72.2q-20.5-4.9-28.32-4.9-44.67,0-54.44,62.65,28.8-23.73,39.55-31.57Q734.13,461.84,754.39,452.53Z"/>
      <path d="M887.45,174.68q0,19-15.07,35.4t-34.17,16.36q-20.1,0-20.09-17.58,0-19.77,14-38.33,15.2-20.26,34.3-20.26,8.58,0,15.19,8.06A26.1,26.1,0,0,1,887.45,174.68Zm-15.87,16.18q0-6-8-12.9T849.72,171q-7.37,0-13.38,6.69t-6,14.14q0,10.67,19.16,10.66Q871.58,202.51,871.58,190.86Z"/>
      <path d="M934.57,370.73q0,68.85-17.33,113.77-21,53.71-71.78,88.86l12.21-45.65q62.25-49.8,62.25-100.1,0-37.59-23.68-91.06-4.59,23.93-13.77,71.53-3.87,20.51-6.52,20.51l-2.17-.73-.49-3.18q0-19.77,10.21-74.22,10.71-58.83,18.49-67.62,13.37,8.3,23.58,40.28Q934.57,350.71,934.57,370.73Z"/>
      <path d="M982.42,163.45q-5.13,16.61-14.16,21l-85.45,42q3.9-15.13,23-24.66Z"/>
      <path d="M544.33,239q-4-5.28-9.64-5.28-12.47,0-25.4,12.13t-13,24.37l1,5.88a58.9,58.9,0,0,0,6.43,8.33q-29.1,17.14-57.44,24,8.32,4.89,14.44,4.88,15.66,0,51.87-23.92,15.66,6.84,25,7.08,3.92-12.5,3.67-15.69l-.24-3.67-7.31-5.4q14.65-15.44,14.65-21.56A18,18,0,0,0,544.33,239ZM526,267q-10.58-8.3-10.58-13.43,0-9,8.18-9,7.68,2.93,7.69,8.79Q531.25,258.91,526,267Z"/>
      <path d="M500.49,333.72q-9.53,0-9-11.4l.24-4.85-6.35,1.46q-18.08,28.85-29.3,28.85-7.82,0-7.81-9L450,327.9l-5.05.49q-12,16.39-12,29.36l1.71,8.57q5.12,6.6,12.17,6.6,19,0,30.45-19.66,5.83,6.24,9.74,6.24,32.38,0,46-52.49l-6.1,1.45Q513.92,333.72,500.49,333.72Z"/>
      <path d="M1054.5,365.36a525.35,525.35,0,0,0-44.78-103q-15.09,45.41-15.09,136,0,48.82,8,50.29,5.53-2.69,5.54-28.08,0-13.66,6.27-60.54,12.28,23.19,26.52,62.25,16.21,44.68,16.21,63,0,25.63-15.38,50.78-9,14.9-33.45,42.24l-21.24,22.21q-12.45,13.44-17.82,24.42c.16,1.3,1,2,2.44,2s4.86-1,10.22-2.93q57-20.74,75.76-54.93,15.83-28.56,15.83-93.51Q1073.49,426.16,1054.5,365.36Z"/>
      <path d="M986.82,244q0-7.32-8.79-7.33-12.21,0-12.21-3.41,0-6.1,7.32-6.11a12,12,0,0,1,4.89,1q2.43-1.69,7-10.28t5.24-12.2a14.93,14.93,0,0,0-5.4-1.69q-10.3,0-23.82,17.82t-13.5,28.32q0,9.53,9.65,9.28c5.11-.16,7.92.24,8.41,1.22q-3.9,5.37-25.63,13.43L910.15,284.3q0,2.93,3.18,2.93,20.5,0,44.92-11.47Q986.81,262.08,986.82,244Z"/>
    </g>
  </g>
</svg>
