<svg xmlns="http://www.w3.org/2000/svg" viewBox="0 0 1500 1000">
  <title>EH-Artboard 87</title>
  <g id="ElMunteqim">
    <g>
      <path d="M487.43,207.88q0,18-16.4,39.52l7.47,7.31L470,278.87a168.32,168.32,0,0,1-16.12-12.74Q416,301.4,396.22,301.39q-3.92,0-13.43-2.93,29.79-14.4,62.26-38.08-9.63-9.28-9.63-16.36,0-12.69,13.86-29.66t26-17Q487.43,197.39,487.43,207.88ZM467.9,229.4q0-11.25-9.67-11.26l-3.72,1.47a11,11,0,0,0-2.73,7.35q0,4.89,11.65,14.44Q467.9,233.81,467.9,229.4Z"/>
      <path d="M556,514.53l-12.21,45.65q-28.08,17.58-56.15,34.91-38.58,26.61-38.57,39.07c0,1.79,1,2.68,2.93,2.68q7.32,0,22-15.62,10-10.74,19.77-21.73c1.14.81,1.71,2.19,1.71,4.15q0,3.42-3.66,19-4.63,20-5.13,21.49a64.36,64.36,0,0,1-10.49,19.28Q465.7,677.13,429.76,703q-41.11,29.54-55.31,43.7-26.67,26.37-26.67,50,0,23.93,39.55,37.36,32.46,11.22,73.24,11.23,66.9,0,89.36-2.2l.49,1.22q0,7-40.29,12-31.25,3.84-52,3.84-125,0-125-63.23,0-29.06,23.73-65.43,21.28-32.48,48.2-52l30.09-22a41.31,41.31,0,0,1-1.92-12.94q0-19,14.91-44.67,14.87-24.66,31.47-35.4Q530.4,532.1,556,514.53Z"/>
      <path d="M612.67,716.43q-5.13,16.61-14.16,21l-85.45,42q3.9-15.13,23-24.66Z"/>
      <path d="M742.31,153q-5.13,16.61-14.16,21l-85.45,42q3.9-15.13,22.95-24.66Z"/>
      <path d="M715.45,337.28Q684.7,357,660.28,367.07q-15.87,30.75-15.38,39.79,12.89-6.83,19.22-10.5Q696,378.54,699.4,375.12,709.12,365.85,715.45,337.28Z"/>
      <path d="M734.57,531.86q-17.84,9.28-29.55,9.28-10,0-14.16-2.69,19-26.12,19-43.94a43.22,43.22,0,0,0-.73-8.3Q695.49,501.83,682.35,517l-12.16,45.32,6.57-5.17q9.72,18,30.71,18,19.77,0,40.28-15l12.45-46.52Q750.44,523.31,734.57,531.86Z"/>
      <path d="M786.74,164.18q0,19-15.07,35.4T737.5,215.94q-20.1,0-20.09-17.58,0-19.77,14-38.33,15.2-20.25,34.3-20.26,8.58,0,15.19,8.06A26.12,26.12,0,0,1,786.74,164.18Zm-15.87,16.18q0-5.94-8-12.89T749,160.52q-7.38,0-13.39,6.7t-6,14.13q0,10.68,19.16,10.67Q770.87,192,770.87,180.36Z"/>
      <path d="M897.34,207.88q0,18-16.4,39.52l7.48,7.31-8.55,24.16a170.85,170.85,0,0,1-16.12-12.74q-37.85,35.26-57.62,35.26-3.92,0-13.43-2.93,29.79-14.4,62.26-38.08-9.63-9.28-9.62-16.36,0-12.69,13.85-29.66t26-17Q897.34,197.39,897.34,207.88ZM877.81,229.4q0-11.25-9.67-11.26l-3.72,1.47a11,11,0,0,0-2.73,7.35q0,4.89,11.65,14.44Q877.81,233.81,877.81,229.4Z"/>
      <path d="M954,514.28,941.53,560.7a36.09,36.09,0,0,1-19.29,5.58q-17.34,0-27.34-15.29-20.5,25.39-25.64,25.39-5.61,0-16.6-12.94-10.24-12-12.21-18.76-5.61,7.53-21,18l12.21-45.43q11.22-10.49,33.69-31.25,2.43,0,24.17,18.31t37.11,18.31A46.76,46.76,0,0,0,954,514.28Z"/>
      <path d="M980.83,164.18q0,19-15.06,35.4t-34.18,16.36q-20.1,0-20.09-17.58,0-19.77,14-38.33,15.19-20.25,34.31-20.26,8.57,0,15.19,8.06A26.17,26.17,0,0,1,980.83,164.18ZM965,180.36q0-5.94-8-12.89t-13.87-6.95c-4.92,0-9.37,2.23-13.39,6.7s-6,9.18-6,14.13q0,10.68,19.15,10.67Q965,192,965,180.36Z"/>
      <path d="M1028,360.23q0,68.85-17.33,113.77-21,53.72-71.78,88.87l12.21-45.66q62.25-49.8,62.26-100.1,0-37.59-23.69-91.06Q985,350,975.85,397.58q-3.87,20.51-6.52,20.51l-2.17-.73-.49-3.18q0-19.77,10.22-74.21,10.7-58.85,18.48-67.63,13.36,8.3,23.59,40.28Q1027.95,340.22,1028,360.23Z"/>
      <path d="M1075.81,153q-5.13,16.61-14.16,21l-85.45,42q3.9-15.13,22.95-24.66Z"/>
      <path d="M589.13,520.87q33.55-38.56,33.55-62.25,0-31-14.11-31-6.81,0-20.44,10.76t-25.31,31.29q-12.41,22-12.4,37.65a35.07,35.07,0,0,0,1.2,9.28l-12.45,46.94A306.23,306.23,0,0,0,567,541.18q14.87,17.45,23.39,23.82a51.87,51.87,0,0,0,31.25,10.32,92.9,92.9,0,0,0,51.76-15.43l12.69-47.24Q659.2,533.32,628,533.33,597.68,533.33,589.13,520.87Zm-14.25-18.69q-8.36-9.72-8.35-15.57,0-4.38,11.05-14.11t15.72-9.73q12.78,0,12.78,9.49Q606.08,486.12,574.88,502.18Z"/>
      <path d="M642.27,340.94q2.93-12.45,4.15-18.8-35.65,22-55.66,30-15.15,30-15.14,36.38l.24,2.93Q637.63,360.72,642.27,340.94Z"/>
      <path d="M799.68,382.45q-1.95-6.6-9-10.75-6.6-3.17-13.18-6.1Q759.16,392.21,755,400.27l21.73,15.14Q786.26,409.05,799.68,382.45Z"/>
      <path d="M779.91,541.14q-10,0-14.16-2.69,19-26.12,19-43.94a42.43,42.43,0,0,0-.73-8.3Q770.38,501.83,757.2,517L745,562.29l6.59-5.17q9.75,18,30.76,18,19.77,0,40.28-15l12.45-46.52q-9.76,9.76-25.63,18.31Q791.63,541.15,779.91,541.14Z"/>
      <path d="M1147.88,354.86a524.76,524.76,0,0,0-44.78-103q-15.09,45.41-15.09,136,0,48.82,8,50.29,5.55-2.69,5.55-28.08,0-13.66,6.27-60.54,12.27,23.19,26.52,62.25,16.2,44.68,16.2,63,0,25.63-15.38,50.78-9,14.9-33.45,42.24L1080.44,590q-12.45,13.42-17.82,24.41c.16,1.3,1,2,2.44,2s4.87-1,10.23-2.93q57-20.74,75.75-54.93,15.82-28.56,15.83-93.5Q1166.87,415.65,1147.88,354.86Z"/>
      <path d="M1080.2,233.52q0-7.32-8.79-7.32-12.21,0-12.21-3.42,0-6.1,7.33-6.11a11.88,11.88,0,0,1,4.88,1q2.44-1.69,7-10.28t5.25-12.2a15.25,15.25,0,0,0-5.4-1.69q-10.32,0-23.82,17.82t-13.51,28.32q0,9.52,9.65,9.28c5.12-.16,7.92.25,8.42,1.22q-3.92,5.37-25.64,13.43l-29.78,10.25c0,2,1.05,2.93,3.17,2.93q20.5,0,44.92-11.47Q1080.19,251.59,1080.2,233.52Z"/>
    </g>
  </g>
</svg>
