<svg xmlns="http://www.w3.org/2000/svg" viewBox="0 0 1500 1000">
  <title>EH-Artboard 40</title>
  <g id="ElGafur">
    <g>
      <path d="M423,344.47q0,18.06-16.39,39.53l7.47,7.31-8.55,24.15a170.66,170.66,0,0,1-16.12-12.73Q351.55,438,331.76,438q-3.9,0-13.42-2.93,29.78-14.4,62.25-38.09Q371,387.7,371,380.62q0-12.71,13.85-29.67t26-17Q423,334,423,344.47ZM403.44,366q0-11.26-9.66-11.26l-3.72,1.47a10.94,10.94,0,0,0-2.73,7.34q0,4.9,11.65,14.45Q403.45,370.41,403.44,366Z"/>
      <path d="M545.29,512.84q0,26.24-8.06,27.69l-6.59-8.06q-6.84.24-11.23,8.07-12,20.78-25.39,54.26-11,28.11-22,56-9.29,22-28.57,43.51-20.5,23-40.77,32-22.95,10.5-63.23,10.51-60.8,0-62.75-6.3l2.44-1.76q51.27,0,95.22-22,45.64-22.92,73.24-64.63,14.89-22.68,32-60.24l22.47-50.24q19-37.8,29.54-37.8,5.85,0,10,6.8A22.49,22.49,0,0,1,545.29,512.84Z"/>
      <path d="M775.76,589.11l-12.45,46.4q-15.63,12.47-56.4,29.82-8.17,36.43-39.06,78-32.24,43.5-64.46,57.45Q576.3,812.5,535.28,812.5q-15.63,0-46.39-5.19-36.61-5.94-37.84-12.61l1.95-1.49q7.33.24,23.2,2.93,15.14,2.45,23.43,2.44,16.85,0,49.32-9.52,70.56-20.74,122.31-81.78,18.07-21.24,20.51-37.11Q670.53,676,663.21,676,641,676,641,661.38q0-15.39,12.45-38.82,13.92-26.13,27.59-26.12,12,0,21.35,9.27T711.79,627Q752.82,609.63,775.76,589.11Z"/>
      <path d="M827.27,198q0,18.06-16.39,39.52l7.47,7.32L809.8,269a172.3,172.3,0,0,1-16.12-12.73q-37.84,35.25-57.62,35.25-3.9,0-13.43-2.93,29.79-14.4,62.26-38.08-9.63-9.28-9.62-16.36,0-12.69,13.85-29.66t26-17Q827.27,187.5,827.27,198Zm-19.53,21.53q0-11.27-9.67-11.27l-3.72,1.47a11,11,0,0,0-2.72,7.35q0,4.89,11.65,14.44C806.25,226.46,807.74,222.45,807.74,219.52Z"/>
      <path d="M951.78,228.52q-5.13,16.6-14.16,21l-85.45,42q3.9-15.13,23-24.65Z"/>
      <path d="M1037.23,239.75q0,19-15.07,35.4T988,291.5q-20.1,0-20.09-17.57,0-19.78,14-38.33,15.2-20.26,34.3-20.27,8.58,0,15.19,8.06A26.15,26.15,0,0,1,1037.23,239.75Zm-15.87,16.17q0-5.94-8-12.89t-13.88-6.95q-7.37,0-13.38,6.7t-6,14.14q0,10.66,19.16,10.66Q1021.36,267.58,1021.36,255.92Z"/>
      <path d="M1084.35,435.79q0,68.85-17.33,113.77-21,53.72-71.78,88.87l12.21-45.66q62.25-49.8,62.25-100.09,0-37.6-23.68-91.07-4.59,23.92-13.77,71.53-3.87,20.52-6.52,20.51l-2.17-.73-.49-3.17q0-19.78,10.21-74.22,10.71-58.84,18.49-67.63,13.37,8.31,23.58,40.28Q1084.35,415.78,1084.35,435.79Z"/>
      <path d="M1132.2,228.52q-5.13,16.6-14.16,21l-85.45,42q3.9-15.13,23-24.65Z"/>
      <path d="M895.12,589.18l.27-1q-26.82,20.67-58,20.68-30.23,0-38.76-12.45,33.55-38.58,33.55-62.26,0-31-14.11-31-6.81,0-20.44,10.76t-25.3,31.29q-12.42,22-12.41,37.65a42.83,42.83,0,0,0,1,9.29l-12.45,46.93a310.18,310.18,0,0,0,27.84-22.34q14.88,17.43,23.43,23.81a51.87,51.87,0,0,0,31.25,10.32,92.73,92.73,0,0,0,48.57-13.43l12.09-44.63ZM784.36,577.74Q776,568,776,562.17q0-4.38,11.06-14.11t15.72-9.73q12.76,0,12.77,9.49Q815.55,561.68,784.36,577.74Z"/>
      <path d="M832.15,427.73q0-3.66-9.75-9.76-4.38-2.69-12.67-6.84l-22.18,34.43,21.69,15.13Q819.47,452.89,832.15,427.73Z"/>
      <path d="M948.12,446.78q0-4.63-6.08-7.82-3.4-4.38-16-8.54Q906,460,903.62,464.84,918,475.1,925.5,479.74,935,470.22,948.12,446.78Z"/>
      <path d="M941.77,582.6q24.18-26.29,24.17-40.41,0-15.57-28.56-15.58-40.78,0-49.56,9.48a138.1,138.1,0,0,0-7.82,16q-8.29,21.63-8.3,28.44,3.69-1.47,15.71-1.47a17,17,0,0,1,12.28,5.39l-4.57,4.69-12.43,46.28c-1.06.69-2.12,1.35-3.19,2l-.19.67q14-9.57,37.07-34.12,12.33,45.18,42.48,45.17,19,0,40.29-13.73l12.69-47.31q-22.71,20-42.24,20Q948.36,608.15,941.77,582.6Z"/>
      <path d="M895.12,589.18l-3.53,3.64L879.5,637.45c1.07-.64,2.13-1.3,3.19-2Z"/>
      <path d="M1136.6,309.08q0-7.32-8.79-7.32-12.21,0-12.21-3.42,0-6.1,7.32-6.1a12,12,0,0,1,4.89,1q2.43-1.69,7-10.27t5.24-12.21a15.14,15.14,0,0,0-5.4-1.69q-10.3,0-23.82,17.83t-13.5,28.32q0,9.51,9.65,9.27c5.11-.16,7.92.25,8.41,1.22q-3.9,5.38-25.63,13.43l-29.79,10.26q0,2.92,3.18,2.92,20.51,0,44.92-11.47Q1136.59,327.15,1136.6,309.08Z"/>
      <path d="M1204.28,430.42a525.35,525.35,0,0,0-44.78-103q-15.09,45.42-15.09,136,0,48.83,8,50.29,5.54-2.68,5.54-28.07,0-13.68,6.27-60.55,12.28,23.19,26.52,62.25,16.21,44.69,16.21,63,0,25.63-15.38,50.78-9,14.89-33.45,42.24l-21.24,22.22Q1124.39,679,1119,689.94c.16,1.31,1,1.95,2.44,1.95s4.86-1,10.22-2.93q57-20.75,75.76-54.93,15.82-28.56,15.83-93.5Q1223.27,491.21,1204.28,430.42Z"/>
    </g>
  </g>
</svg>
