<svg xmlns="http://www.w3.org/2000/svg" viewBox="0 0 1500 1000">
  <title>EH-Artboard 21</title>
  <g id="ElKahar">
    <g>
      <path d="M464.72,352.29q0,18-16.39,39.52l7.47,7.31-8.55,24.16a170.85,170.85,0,0,1-16.12-12.74q-37.85,35.26-57.62,35.26-3.9,0-13.43-2.93,29.79-14.4,62.26-38.08-9.63-9.29-9.62-16.36,0-12.69,13.85-29.67t26-17Q464.72,341.8,464.72,352.29Zm-19.53,21.52q0-11.25-9.67-11.26L431.8,364a11,11,0,0,0-2.72,7.34q0,4.9,11.65,14.45Q445.18,378.22,445.19,373.81Z"/>
      <path d="M587,520.65q0,26.24-8.06,27.69l-6.59-8.06q-6.84.26-11.23,8.07-12,20.77-25.39,54.27-11,28.1-22,56-9.27,22-28.56,43.51-20.5,23-40.77,32-22.95,10.51-63.23,10.51-60.8,0-62.75-6.3l2.44-1.76q51.27,0,95.22-22Q461.79,691.7,489.38,650q14.89-22.68,32-60.24l22.46-50.24q19-37.8,29.54-37.8,5.86,0,10,6.8A22.46,22.46,0,0,1,587,520.65Z"/>
      <path d="M742.8,597.41l-12.45,46.8q-19.54,13.26-39.55,13.26-27.6,0-37.85-30.94-5.61-17.4-6.59-53.78L644.52,499q-2.07-83-2.06-84.47,0-3.17,5.88-20.75t8-20.51h1.45q.74,42.24,2.93,126.22.24,23.44,5.12,69.34Q675.66,616,703.25,616,723.75,616,742.8,597.41Z"/>
      <path d="M807.25,288.33l-69.58,24.41q-16.36,5.63-27.1,22.47l79.84-28.33Q800.16,303.48,807.25,288.33Z"/>
      <path d="M769.65,344q-9.27,0-9.27-17.82l-5.86,1.47q-18.56,32.48-30,32.47-8.55,0-8.55-11.48l.73-7.57-8.54,4.64q-6.84,18.6-6.84,25.26,0,13.82,14.2,13.81,16.39,0,31.08-21.16,8.82,6.27,14.44,6.26,17.63,0,29.12-21.24,8.57-15.61,11-36.62l-7.57,2.2Q783.82,344,769.65,344Z"/>
      <path d="M840.21,597.17l-12.45,46.38q-6.1,4.16-22,13.19A124.2,124.2,0,0,0,761.35,700q-17.08,27.84-17.09,59.33a109.7,109.7,0,0,1-12.2,17.58q-15.88-23.21-15.87-60.55,0-29.29,24.65-115.72,12.7-14.9,26.86-30.77a45,45,0,0,1,.73,8.31q0,12.93-9,30.76-8.05,16.35-18.31,26.61-9.29,39.79-9.28,55.91,0,16.61,4.64,22,6-22,23.44-48.59Q775.5,640.88,796.26,626Z"/>
      <path d="M896.36,236.33q-5.13,16.6-14.16,21l-85.45,42q3.9-15.13,23-24.66Z"/>
      <path d="M911.64,616.7q-30.27,0-38.82-12.45,33.55-38.58,33.55-62.26,0-31-14.11-31-6.81,0-20.44,10.75T846.52,553q-12.42,22-12.41,37.65a35.14,35.14,0,0,0,1.2,9.29L822.86,646.9a304.51,304.51,0,0,0,27.79-22.34Q865.51,642,874,648.38a51.92,51.92,0,0,0,31.25,10.31,93,93,0,0,0,51.76-15.42L969.75,596Q942.89,616.7,911.64,616.7Zm-53.07-31.14q-8.36-9.73-8.35-15.58,0-4.37,11-14.11T877,546.14q12.76,0,12.77,9.49Q889.77,569.51,858.57,585.56Z"/>
      <path d="M926,424.32q2.92-12.45,4.15-18.8-35.64,22-55.66,30-15.15,30-15.14,36.37l.24,2.93Q921.32,444.1,926,424.32Z"/>
      <path d="M995.48,247.56q0,19-15.06,35.4t-34.18,16.36q-20.1,0-20.09-17.58,0-19.78,14-38.33,15.2-20.26,34.31-20.27,8.57,0,15.18,8.06A26.15,26.15,0,0,1,995.48,247.56Zm-15.87,16.18q0-6-8-12.9t-13.87-6.94q-7.38,0-13.39,6.69t-6,14.14q0,10.66,19.16,10.66Q979.61,275.39,979.61,263.74Z"/>
      <path d="M1042.6,443.6q0,68.85-17.33,113.77-21,53.71-71.78,88.87l12.21-45.65Q1028,550.78,1028,500.49q0-37.59-23.68-91.07Q999.68,433.36,990.5,481q-3.87,20.51-6.52,20.5l-2.17-.73-.49-3.17q0-19.77,10.22-74.22,10.69-58.83,18.48-67.63Q1023.39,364,1033.6,396,1042.6,423.59,1042.6,443.6Z"/>
      <path d="M1090.45,236.33q-5.12,16.6-14.16,21l-85.45,42q3.92-15.13,22.95-24.66Z"/>
      <path d="M1162.53,438.23a525.26,525.26,0,0,0-44.78-103q-15.09,45.41-15.09,136,0,48.84,8,50.29,5.55-2.67,5.55-28.07,0-13.68,6.27-60.55,12.27,23.2,26.52,62.26,16.2,44.67,16.2,63,0,25.64-15.38,50.78-9,14.9-33.45,42.23-10.5,11-21.24,22.22-12.45,13.42-17.82,24.41a2.12,2.12,0,0,0,2.44,2q2.19,0,10.23-2.93,57-20.74,75.75-54.93,15.82-28.58,15.83-93.51Q1181.52,499,1162.53,438.23Z"/>
      <path d="M1094.85,316.89q0-7.32-8.79-7.32-12.21,0-12.21-3.42,0-6.09,7.33-6.1a11.92,11.92,0,0,1,4.88,1q2.43-1.71,7-10.28t5.25-12.21a15.18,15.18,0,0,0-5.4-1.68q-10.32,0-23.82,17.82T1055.54,323q0,9.53,9.65,9.28c5.11-.16,7.92.24,8.41,1.22q-3.9,5.37-25.63,13.42l-29.79,10.26q0,2.93,3.18,2.93,20.5,0,44.92-11.48Q1094.84,335,1094.85,316.89Z"/>
    </g>
  </g>
</svg>
