<svg xmlns="http://www.w3.org/2000/svg" viewBox="0 0 1500 1000">
  <title>EH-Artboard 29</title>
  <g id="ErRafi">
    <g>
      <path d="M423.66,241.69q0,18.06-16.4,39.52l7.47,7.32-8.55,24.15A170.94,170.94,0,0,1,390.07,300q-37.85,35.25-57.62,35.26-3.92,0-13.43-2.93,29.79-14.41,62.26-38.09-9.63-9.27-9.63-16.36,0-12.69,13.86-29.66t26-17Q423.66,231.2,423.66,241.69Zm-19.53,21.53q0-11.27-9.67-11.27l-3.72,1.47a11,11,0,0,0-2.73,7.35q0,4.89,11.65,14.44Q404.13,267.64,404.13,263.22Z"/>
      <path d="M585.43,547.43,573,593.94Q541.49,613,521.46,613q-24.68,0-36.64-31.44l-76.24,57.22Q347.23,685,347.24,692.61q0,10.27,33.69,10.27,44.93,0,106.45-24.41,57.86-23.19,95.94-53.47h1.22q-2.92,15.16-60.54,56.75-31.74,23-77.39,41.84-51,21-84,21-41,0-41-18.58,0-36.64,65.18-92.61,26.13-22.23,93.75-69.15-.74-11.49-2.2-15.65-2.94-8.79-11.5-9.52-11-1-11-3.18,0-5.62,6.09-20.65t10.23-20.16q3.4-4.39,23.63-8.07,17.06-2.93,26.8-2.93,24.6,0,24.6,15.1,0,21.42-40.13,61.1,7.8,11,34.66,11Q554.91,571.29,585.43,547.43Z"/>
      <path d="M641.92,750.24q-5.13,16.6-14.16,21l-85.45,42q3.9-15.13,23-24.66Z"/>
      <path d="M810.86,498.78q0,65-15.63,93.51-18.79,34.17-75.92,54.93-8.05,2.92-10.25,2.93a2.12,2.12,0,0,1-2.44-2q5.36-11,17.82-24.41l21.24-22.22q24.41-27.33,33.45-42.23,15.38-25.16,15.38-50.79,0-18.3-16.21-63-14.25-39.06-26.52-62.26-6.27,46.88-6.27,60.55,0,25.39-5.55,28.07-8-1.46-8-50.29,0-90.57,15.09-136a525.61,525.61,0,0,1,44.78,103Q810.87,449.47,810.86,498.78Z"/>
      <path d="M968.58,547.61l-12.7,47.12q-30.27,17.58-42.23,25.63-28.57,19-34.92,31.5-19.53,42.24-39.06,84.22-28.32,53.71-59.08,64-23.45,8-51.51,8-56.4,0-72.51-9.51l-.74-1.24,2-2.19a163.39,163.39,0,0,0,32,2.93q44.93,0,85-28.81,35.4-25.89,59.81-68.36,1.71-3.18,23.2-45.9,13.92-27.84,27-43.58t41.38-33.32Q957.59,558.6,968.58,547.61Z"/>
      <path d="M1042.06,394q0,68.85-17.33,113.77-21,53.71-71.78,88.87L965.16,551q62.25-49.81,62.26-100.1,0-37.59-23.69-91.07Q999.14,383.8,990,431.4q-3.87,20.5-6.52,20.5l-2.17-.73-.48-3.17q0-19.78,10.21-74.22,10.69-58.83,18.48-67.63,13.37,8.31,23.59,40.29Q1042.05,374,1042.06,394Z"/>
      <path d="M1089.92,186.77q-5.13,16.6-14.16,21l-85.45,42q3.9-15.13,23-24.66Z"/>
      <path d="M609,419.92q-11.48,0-25.39,27.83-12.95,25.89-12.94,39.55a15,15,0,0,0,6.1,12.21,19.79,19.79,0,0,0,12.94,4.4q10.5,0,26.86-13.43,4.63,1.95,4.64,8.54,0,11.73-14.41,28.81-12.21,14.65-24.41,22.46l-12.45,45.9q44.43-32,62.85-91.06,9.66-31,9.66-41,0-14.16-9.66-28.32Q622.37,419.92,609,419.92Z"/>
      <path d="M613.33,368.9l10-17.58q0-8.55-22.22-16.6-21,32.22-22,34.42A226.53,226.53,0,0,0,600.63,384Q606.24,380.13,613.33,368.9Z"/>
      <path d="M779.86,346.68l79.83-28.32q9.76-3.42,16.85-18.56L807,324.22Q790.59,329.83,779.86,346.68Z"/>
      <path d="M838.94,355.47q-9.29,0-9.28-17.82l-5.86,1.46q-18.56,32.47-30,32.47-8.55,0-8.54-11.47l.73-7.57-8.54,4.64q-6.84,18.6-6.84,25.25,0,13.81,14.19,13.81,16.41,0,31.09-21.15,8.8,6.26,14.43,6.26,17.63,0,29.13-21.24,8.57-15.63,11-36.62l-7.56,2.19Q853.09,355.47,838.94,355.47Z"/>
      <path d="M1162,388.67a525.64,525.64,0,0,0-44.79-103q-15.09,45.42-15.09,136,0,48.84,8,50.29,5.55-2.69,5.55-28.07,0-13.68,6.27-60.55,12.27,23.2,26.52,62.26,16.2,44.67,16.2,63,0,25.63-15.38,50.79-9,14.89-33.45,42.23l-21.24,22.22q-12.45,13.43-17.82,24.41a2.12,2.12,0,0,0,2.44,2q2.19,0,10.23-2.93,57-20.76,75.75-54.93Q1181,563.72,1181,498.78,1181,449.46,1162,388.67Z"/>
      <path d="M1094.31,267.33q0-7.32-8.79-7.32-12.21,0-12.21-3.42,0-6.09,7.33-6.1a12,12,0,0,1,4.88,1q2.45-1.69,7-10.27t5.25-12.21a15.25,15.25,0,0,0-5.4-1.69q-10.32,0-23.82,17.83T1055,273.44q0,9.53,9.66,9.27,7.66-.24,8.41,1.23-3.91,5.37-25.64,13.42l-29.78,10.26c0,1.95,1.05,2.93,3.17,2.93q20.5,0,44.92-11.48Q1094.32,285.4,1094.31,267.33Z"/>
    </g>
  </g>
</svg>
