<svg xmlns="http://www.w3.org/2000/svg" viewBox="0 0 1500 1000">
  <title>EH-Artboard 59</title>
  <g id="ElQawijj">
    <g>
      <path d="M617.31,266.11Q589.23,322,553.34,354q-27.83,24.18-55.66,48.59Q462.28,434.08,440.8,459q-30.29,35.65-41.75,75.2-8.55,29.79-8.55,74,0,54.45,54.54,54.45,20.79,0,52.58-23.39t31.8-40.05q0-6.85-17.16-9.06-24.5-2.7-32.09-6.11Q463,576.43,463,556.19q0-41.93,31.25-90.45a191.63,191.63,0,0,1,27.1-33.15q21.48-21.7,33.94-21.7,19,0,29.54,13.37-1.22,8.28-8,21.89-7.74,15.08-13.29,17.27l-2.18-3.18q0-10.29-13.47-10.29-17.88,0-41.63,25.46t-23.76,43.33q0,12.5,13.19,18.12,7.08,2.94,27.34,6.11,17.58,2.46,22.46,6.61,7.08,5.86,7.08,21.75,0,44-41.45,89.73-42.42,46.71-85.82,46.7-57.3,0-57.3-85.45,0-87.64,65.19-170.16,21.24-26.85,57.86-58.84l63-53.71q27.33-24.17,59.81-75l2.93-1.71Z"/>
      <path d="M657.1,793.46q-5.11,16.59-14.16,21l-85.44,42q3.9-15.15,22.94-24.66Z"/>
      <path d="M830.44,517.33,818,563.73q-15.62,12.46-56.39,29.83-8.18,36.42-39.07,78Q690.31,715.06,658.08,729,631,740.72,590,740.72q-15.63,0-46.39-5.19-36.62-5.94-37.84-12.61l1.95-1.48q7.32.24,23.19,2.93,15.15,2.43,23.44,2.44,16.84,0,49.32-9.52Q674.19,696.53,726,635.5q18.07-21.24,20.51-37.11-21.24,5.85-28.56,5.86-22.23,0-22.22-14.65,0-15.37,12.45-38.82,13.92-26.12,27.59-26.12,11.94,0,21.35,9.28t9.41,21.24Q807.49,537.84,830.44,517.33Z"/>
      <path d="M876.83,156.74q-5.13,16.6-14.16,21l-85.45,42q3.9-15.14,22.95-24.66Z"/>
      <path d="M976,168q0,19-15.07,35.4t-34.17,16.36q-20.1,0-20.09-17.58,0-19.78,14-38.33,15.2-20.26,34.3-20.27,8.58,0,15.19,8.06A26.15,26.15,0,0,1,976,168Zm-15.87,16.18q0-6-8-12.9t-13.88-6.94q-7.37,0-13.38,6.69t-6,14.14q0,10.67,19.16,10.66Q960.08,195.8,960.08,184.15Z"/>
      <path d="M1023.07,364q0,68.85-17.33,113.77-21,53.72-71.78,88.87L946.17,521q62.25-49.81,62.25-100.1,0-37.59-23.68-91.07-4.59,23.94-13.77,71.54-3.87,20.5-6.52,20.51l-2.17-.74-.49-3.17q0-19.77,10.21-74.22,10.71-58.83,18.49-67.63,13.37,8.31,23.58,40.29Q1023.07,344,1023.07,364Z"/>
      <path d="M1070.92,156.74q-5.13,16.6-14.16,21l-85.45,42q3.91-15.14,23-24.66Z"/>
      <path d="M449.49,171.29q-4-5.28-9.65-5.27-12.46,0-25.4,12.12t-12.95,24.37l1,5.88a58.9,58.9,0,0,0,6.43,8.33q-29.1,17.15-57.44,24,8.32,4.89,14.44,4.89,15.66,0,51.87-23.93,15.66,6.84,25,7.08,3.92-12.49,3.67-15.69l-.24-3.67-7.3-5.39q14.64-15.45,14.64-21.57A18.08,18.08,0,0,0,449.49,171.29Zm-18.38,27.93q-10.58-8.29-10.58-13.43,0-9,8.18-9,7.68,2.93,7.69,8.79Q436.4,191.16,431.11,199.22Z"/>
      <path d="M405.64,266q-9.52,0-9-11.4l.24-4.84-6.35,1.45Q372.44,280,361.21,280q-7.81,0-7.82-9l1.71-10.91-5.05.49Q338,277,338,290l1.71,8.57q5.11,6.6,12.17,6.61,19,0,30.45-19.67,5.84,6.24,9.74,6.24,32.39,0,46-52.49l-6.1,1.45Q419.07,266,405.64,266Z"/>
      <path d="M906.43,344.73q2.93-12.45,4.15-18.8-35.66,22-55.66,30-15.15,30-15.14,36.37l.24,2.93Q901.79,364.51,906.43,344.73Z"/>
      <path d="M853.29,524.66q33.56-38.58,33.55-62.26,0-31-14.11-31-6.81,0-20.44,10.75T827,473.44q-12.4,22-12.4,37.65a35.14,35.14,0,0,0,1.2,9.29l-12.45,46.93A305.89,305.89,0,0,0,831.12,545Q846,562.4,854.51,568.79a51.92,51.92,0,0,0,31.25,10.31,93,93,0,0,0,51.76-15.42l12.69-47.25q-26.85,20.69-58.1,20.68Q861.84,537.11,853.29,524.66ZM839,506q-8.35-9.74-8.35-15.58,0-4.36,11-14.11t15.72-9.73q12.78,0,12.78,9.49Q870.24,489.92,839,506Z"/>
      <path d="M1075.32,237.3q0-7.32-8.79-7.32-12.21,0-12.21-3.42,0-6.09,7.33-6.1a12,12,0,0,1,4.88,1q2.43-1.71,7-10.28t5.25-12.2a15,15,0,0,0-5.41-1.69q-10.3,0-23.82,17.82T1036,243.41q0,9.53,9.65,9.28c5.11-.16,7.92.24,8.41,1.22q-3.9,5.37-25.63,13.42l-29.79,10.26q0,2.93,3.18,2.93,20.5,0,44.92-11.48Q1075.31,255.38,1075.32,237.3Z"/>
      <path d="M1143,358.64a525.26,525.26,0,0,0-44.78-103q-15.09,45.4-15.09,136,0,48.84,8,50.29,5.54-2.67,5.54-28.07,0-13.67,6.28-60.55,12.27,23.21,26.51,62.26,16.21,44.67,16.21,63,0,25.64-15.38,50.78-9,14.9-33.45,42.23-10.5,11-21.24,22.22-12.45,13.43-17.82,24.41a2.12,2.12,0,0,0,2.44,2q2.17,0,10.22-2.93,57-20.75,75.76-54.93Q1162,533.69,1162,468.75,1162,419.45,1143,358.64Z"/>
    </g>
  </g>
</svg>
