<svg xmlns="http://www.w3.org/2000/svg" viewBox="0 0 1500 1000">
  <title>EH-Artboard 43</title>
  <g id="ElKebir">
    <g>
      <path d="M566,164.54q0,18.06-16.4,39.52l7.48,7.32-8.55,24.15a170.66,170.66,0,0,1-16.12-12.73q-37.85,35.25-57.62,35.26-3.9,0-13.43-2.93,29.79-14.4,62.26-38.09Q514,207.77,514,200.68,514,188,527.89,171t26-17Q566,154.05,566,164.54Zm-19.53,21.53q0-11.26-9.67-11.27l-3.72,1.47a11,11,0,0,0-2.72,7.35q0,4.9,11.65,14.45Q546.51,190.48,546.51,186.07Z"/>
      <path d="M681,581.79q-12,0-20.51-5.62A20.8,20.8,0,0,1,651,558.11l-1.22-3.18q-31.5,18.08-47.12,27.83-19.29,11.73-30.76,44.48-8.05,26.88-16.36,53.77-34.18,89.68-104,124.88-37.35,18.81-70.07,18.82a154.7,154.7,0,0,1-27.1-2.44l-1.95,2.48.24,1.74q21.49,10.17,77.39,10.18,95,0,134-125.68,4.88-17.61,10-35.46,6.58-20.53,16.35-32.27,13.92-16.87,48.1-35.7,5.87,20.13,25.15,20.13,20.5,0,53.95-24.8l12.45-46.25Q698.86,581.79,681,581.79Z"/>
      <path d="M593.63,774.9l.24,2.2q12.17-5.86,27.49-14.89,25.8-15.15,30.42-20.75,6.57-7.58,12.89-34.18-38.4,21.24-55.42,30Q593.62,767.33,593.63,774.9Z"/>
      <path d="M786,783q-5.13,16.6-14.16,21L686.4,846q3.9-15.15,23-24.66Z"/>
      <path d="M721.31,649.41q-21,32.24-22,34.43l21.49,14.89q11-10,22.7-33Q743.53,657.48,721.31,649.41Z"/>
      <path d="M778.2,574q-17.82,9.28-29.54,9.28-10,0-14.16-2.68,19-26.13,19-44a42.43,42.43,0,0,0-.73-8.3Q739.13,544,726,559.08l-12.2,45.32,6.59-5.16q9.75,18,30.76,18,19.77,0,40.28-15l12.45-46.53Q794.07,565.44,778.2,574Z"/>
      <path d="M861,195.07q-5.13,16.6-14.16,21l-85.45,42q3.9-15.13,22.95-24.66Z"/>
      <path d="M861.69,565.43q-4.87-6.82-5.86-26.61-1-19.05-1.46-74.46-.24-46.64-2.93-74.47l-2.16-1q-3.13,3.16-8.17,17.21t-5.05,18.92q0,10.24,1.21,30.52t1.2,30.51q0,27.84-7.85,41.75-6.39,11.71-30.2,31.5l-12.21,45.48q30.15-21.48,48.58-62.5,1,39.08,3.66,48.83,7.29,27,34.09,27,25.82,0,48.71-16l12.42-46.23Q913.2,575.2,887.33,575.2,868.52,575.2,861.69,565.43Z"/>
      <path d="M996,183.59l-3.17,2Q957.4,252.2,945.43,272q-29,47.37-60.52,76.91-49,37.85-74.91,53.95l2.93,1q25.86-5.37,64.66-36.87,33.92-27.09,54.42-53.46-.5,18.79,2,29.54l4.39-2.93q2-42.24,59.82-155.28Z"/>
      <path d="M961.55,206.3q0,19-15.07,35.4T912.3,258.06q-20.09,0-20.09-17.58,0-19.78,14-38.33,15.18-20.27,34.3-20.27,8.57,0,15.19,8.06A26.15,26.15,0,0,1,961.55,206.3Zm-15.87,16.18q0-6-8-12.9t-13.87-6.94q-7.37,0-13.39,6.69t-6,14.14q0,10.67,19.16,10.66Q945.68,234.13,945.68,222.48Z"/>
      <path d="M1008.67,402.34q0,68.85-17.34,113.77-21,53.71-71.77,88.87l12.2-45.65Q994,509.52,994,459.23q0-37.59-23.68-91.07-4.59,23.94-13.77,71.54-3.87,20.51-6.52,20.51l-2.18-.74-.48-3.17q0-19.77,10.21-74.22,10.7-58.83,18.48-67.63,13.38,8.31,23.59,40.29Q1008.66,382.33,1008.67,402.34Z"/>
      <path d="M1056.52,195.07q-5.13,16.6-14.16,21l-85.45,42q3.9-15.13,23-24.66Z"/>
      <path d="M1060.91,275.63q0-7.32-8.79-7.32-12.21,0-12.2-3.42,0-6.09,7.32-6.1a11.88,11.88,0,0,1,4.88,1q2.45-1.71,7-10.28t5.25-12.2a15,15,0,0,0-5.4-1.69q-10.32,0-23.82,17.82t-13.5,28.32q0,9.52,9.65,9.28c5.11-.16,7.91.24,8.41,1.22q-3.92,5.37-25.64,13.42l-29.78,10.26q0,2.93,3.17,2.93,20.51,0,44.92-11.48Q1060.92,293.71,1060.91,275.63Z"/>
      <path d="M1128.6,397a525.26,525.26,0,0,0-44.78-103q-15.1,45.41-15.09,136,0,48.84,8,50.29,5.55-2.67,5.55-28.07,0-13.66,6.27-60.55,12.27,23.2,26.52,62.26,16.2,44.67,16.21,63,0,25.64-15.39,50.78-9,14.89-33.44,42.23-10.5,11-21.24,22.22-12.45,13.42-17.83,24.41a2.13,2.13,0,0,0,2.44,2q2.19,0,10.23-2.93,57-20.74,75.75-54.93,15.82-28.58,15.83-93.51Q1147.58,457.78,1128.6,397Z"/>
    </g>
  </g>
</svg>
