<svg xmlns="http://www.w3.org/2000/svg" viewBox="0 0 1500 1000">
  <title>EH-Artboard 86</title>
  <g id="EtTewwab">
    <g>
      <path d="M306.84,328.24q0,18-16.4,39.52l7.47,7.32-8.55,24.15a169.51,169.51,0,0,1-16.11-12.74q-37.84,35.26-57.62,35.26-3.91,0-13.43-2.93,29.78-14.4,62.25-38.08-9.61-9.28-9.62-16.36,0-12.69,13.85-29.66t26-17Q306.82,317.75,306.84,328.24ZM287.3,349.77q0-11.26-9.66-11.27L273.92,340a11,11,0,0,0-2.73,7.35q0,4.89,11.65,14.44Q287.31,354.17,287.3,349.77Z"/>
      <path d="M788.28,524.29q0,65-15.64,93.51Q753.86,652,696.73,672.73q-8.06,2.92-10.26,2.93a2.12,2.12,0,0,1-2.44-1.95q5.37-11,17.82-24.42l21.24-22.21q24.42-27.35,33.45-42.24,15.39-25.14,15.38-50.78,0-18.31-16.2-63Q741.47,432,729.2,408.81q-6.27,46.88-6.27,60.55,0,25.39-5.55,28.08-8-1.47-8-50.3,0-90.57,15.09-136a524.93,524.93,0,0,1,44.78,103Q788.28,475,788.28,524.29Z"/>
      <path d="M1021,572.88l-12.45,46.39q-15.63,12.48-56.4,29.83-8.18,36.42-39.06,78-32.24,43.51-64.46,57.45-27.09,11.73-68.11,11.73-15.63,0-46.39-5.19-36.62-5.94-37.84-12.61l2-1.48q7.34.24,23.2,2.93,15.14,2.43,23.43,2.44,16.84,0,49.32-9.52Q864.7,752.07,916.45,691,934.53,669.8,937,653.93q-21.24,5.87-28.56,5.86-22.21,0-22.22-14.65,0-15.37,12.45-38.82,13.92-26.12,27.59-26.12,11.94,0,21.35,9.28T957,610.72Q998,593.38,1021,572.88Z"/>
      <path d="M1158.89,419.56q0,68.83-17.34,113.77-21,53.7-71.78,88.86L1082,576.54q62.26-49.81,62.26-100.1,0-37.59-23.68-91.06-4.59,23.92-13.78,71.53-3.85,20.5-6.51,20.51l-2.18-.74-.48-3.17q0-19.77,10.21-74.22,10.7-58.83,18.48-67.62,13.38,8.29,23.59,40.28Q1158.88,399.54,1158.89,419.56Z"/>
      <path d="M1206.74,212.28q-5.13,16.6-14.16,21l-85.45,42q3.9-15.13,22.95-24.66Z"/>
      <path d="M329.78,778.2q-4.87-2.69-13.18-6.35l-22,34.67,22,14.65q16.11-21.24,22.71-33Q339.31,783.82,329.78,778.2Z"/>
      <path d="M627.64,484.5q-29.79,33-59.33,65.92-65.43,71.28-100.1,100.09-69.57,58.11-122.56,58.11-40.27,0-65.18-25.76t-24.9-66.28q0-46.87,42.72-79.84Q331,511.6,375,503.54q18.06-3.42,85.69-7.08,75.45-4.15,81.55-9l-.25-2.69H432.32q-49.56,0-77.63,6.84-39.56,9.76-67.63,37.35Q237.5,577,237.5,648.07q0,43,28.81,71.66t71.53,28.68q64,0,135.74-63Q510.69,652.47,582,566q36.13-43.69,61.28-63.48,10.5-13.19,8.79-33.93Q629.84,482.31,627.64,484.5Z"/>
      <path d="M816.36,381q-9.29,0-9.28-17.82l-5.86,1.46q-18.56,32.47-30,32.47-8.55,0-8.54-11.47l.73-7.57-8.55,4.64Q748,401.29,748,407.94q0,13.81,14.19,13.81,16.39,0,31.08-21.15,8.82,6.25,14.44,6.26,17.63,0,29.13-21.24,8.55-15.62,11-36.62l-7.57,2.2Q830.52,381,816.36,381Z"/>
      <path d="M757.27,372.19l79.84-28.32q9.76-3.42,16.84-18.55l-69.58,24.41Q768,355.36,757.27,372.19Z"/>
      <path d="M981.92,275.27q16.4,0,31.08-21.15,8.82,6.25,14.44,6.26,17.63,0,29.12-21.24,8.57-15.63,11-36.63l-7.57,2.2q-9.77,29.79-23.93,29.79-9.27,0-9.27-17.83l-5.86,1.47q-18.56,32.48-30,32.47-8.55,0-8.55-11.47l.73-7.57-8.54,4.64q-6.84,18.58-6.84,25.25Q967.72,275.28,981.92,275.27Z"/>
      <path d="M1073.68,178.83l-69.58,24.42q-16.36,5.61-27.1,22.46l79.84-28.32Q1066.59,194,1073.68,178.83Z"/>
      <path d="M1030.05,600.46q-10,0-14.16-2.68,19-26.13,19-43.95a42.43,42.43,0,0,0-.73-8.3q-13.62,15.63-26.75,30.76l-12.16,45.32,6.56-5.16q9.74,18,30.71,17.95,19.77,0,40.28-15l12.45-46.52q-9.77,9.76-25.63,18.31Q1041.77,600.46,1030.05,600.46Z"/>
      <path d="M1040.48,396.61q-30.76,19.77-55.18,29.78-15.87,30.76-15.38,39.8,12.9-6.84,19.22-10.5,31.88-17.82,35.28-21.24Q1034.16,425.17,1040.48,396.61Z"/>
      <path d="M1211.13,292.85q0-7.34-8.79-7.33c-8.14,0-12.2-1.13-12.2-3.42q0-6.09,7.32-6.1a11.88,11.88,0,0,1,4.88,1q2.45-1.71,7-10.28t5.25-12.2a15,15,0,0,0-5.4-1.69q-10.32,0-23.82,17.82T1171.83,299q0,9.53,9.65,9.28c5.11-.16,7.91.24,8.41,1.22q-3.92,5.37-25.64,13.43l-29.78,10.25c0,1.95,1,2.93,3.17,2.93q20.5,0,44.92-11.48Q1211.13,310.92,1211.13,292.85Z"/>
      <path d="M1278.82,414.18a525.52,525.52,0,0,0-44.78-103q-15.11,45.4-15.1,136,0,48.84,8,50.3,5.55-2.69,5.55-28.08,0-13.67,6.27-60.55,12.27,23.2,26.52,62.26,16.2,44.67,16.2,63,0,25.63-15.38,50.78-9,14.89-33.44,42.24l-21.24,22.21q-12.45,13.44-17.83,24.42a2.12,2.12,0,0,0,2.44,1.95q2.19,0,10.23-2.93,57-20.75,75.75-54.93,15.83-28.57,15.83-93.51Q1297.8,475,1278.82,414.18Z"/>
    </g>
  </g>
</svg>
