<svg xmlns="http://www.w3.org/2000/svg" viewBox="0 0 1500 1000">
  <title>EH-Artboard 47</title>
  <g id="ElDzelil">
    <g>
      <path d="M403.88,176.75q0,18.06-16.39,39.52l7.47,7.32-8.55,24.15A170.85,170.85,0,0,1,370.29,235q-37.85,35.26-57.62,35.26-3.9,0-13.43-2.93,29.79-14.4,62.26-38.08-9.63-9.28-9.62-16.36,0-12.69,13.85-29.66t26-17Q403.88,166.26,403.88,176.75Zm-19.53,21.53q0-11.26-9.67-11.27L371,188.48a11,11,0,0,0-2.72,7.35q0,4.89,11.65,14.44C382.86,205.22,384.35,201.21,384.35,198.28Z"/>
      <path d="M650.71,439.21q-2.21,5.63-51.76,25.88-38.09,15.63-62.26,23.7,1.95,45.51,4.4,57.5Q548.91,584,573.31,584q11,0,31-16.11l-12.45,46.2Q574.77,627,561.11,627q-26.13,0-34.67-35-26.37,101.36-95,127-20.27,7.57-35.16,7.57-24.4,0-45-20.52t-20.63-45q0-62.07,26.4-99.22,25.43-35.43,84.09-59.39,13.46-5.62,39.36-10.75,28.11-5.86,39.85-10v-10q0-9.27-4-40-4.26-32.22-6.5-37.6a389,389,0,0,1,13.67-39.55q13.43,51,12.7,122.56A890.41,890.41,0,0,0,649.73,438ZM520.58,509.79V494.14Q444.89,514.19,408,535.7q-63,36.18-63,92.4,0,25.42,13.41,41.8,14.15,17.6,39,17.6,42.9,0,74.12-28.11Q499.86,634,513.51,590.7,520.83,567.48,520.58,509.79Z"/>
      <path d="M735.91,770.75q-5.13,16.61-14.16,21l-85.45,42q3.9-15.13,23-24.66Z"/>
      <path d="M782.54,568.12l-12.45,46.21q-15.63,12.13-33,12.13-26.37,0-25.63-48l.24-23.92q-18.43,41-48.58,62.5l12.21-45.47q24.3-20,30.68-32.22,7.62-13.92,7.62-42.73,0-12.45-1.21-37t-1.21-37q0-6.35,4.81-21.12t8.66-18.43l2.16,1q2.43,42.24,2.44,169.93,0,29.29,20.26,29.29Q765,583.25,782.54,568.12Z"/>
      <path d="M839.18,353.76q-5.11,16.61-14.16,21l-85.45,42q3.91-15.13,22.95-24.66Z"/>
      <path d="M1014.72,218.51q0,19-15.07,35.4t-34.17,16.35q-20.1,0-20.09-17.57,0-19.78,14-38.33,15.18-20.27,34.3-20.27,8.58,0,15.19,8.06A26.15,26.15,0,0,1,1014.72,218.51Zm-15.87,16.17q0-5.94-8-12.89T977,214.84q-7.37,0-13.38,6.7t-6,14.14q0,10.66,19.16,10.66Q998.85,246.34,998.85,234.68Z"/>
      <path d="M1061.84,414.55q0,68.85-17.33,113.77-21,53.71-71.78,88.87l12.21-45.66q62.25-49.8,62.25-100.09,0-37.6-23.68-91.07-4.59,23.92-13.77,71.53-3.87,20.52-6.52,20.51l-2.17-.73-.49-3.17q0-19.78,10.21-74.22,10.71-58.85,18.49-67.63,13.37,8.31,23.58,40.28Q1061.84,394.54,1061.84,414.55Z"/>
      <path d="M1109.69,207.28q-5.13,16.6-14.16,21l-85.45,42q3.9-15.13,22.95-24.65Z"/>
      <path d="M582.84,680.66Q567,712.9,567.21,720.46q14.35-7.56,21.41-11.72,29.93-17.09,33.82-21,9-9,15.33-36.62-28.93,17.58-36.46,20.76Q587.21,678,582.84,680.66Z"/>
      <path d="M623.71,595.46q-10,0-14.16-2.69,18.94-26.12,18.94-43.94a42.43,42.43,0,0,0-.73-8.3q-13.6,15.63-26.71,30.76l-12.14,45.32,6.55-5.17q9.72,18,30.69,17.95,19.79,0,40.28-15l12.46-46.53q-9.76,9.76-25.64,18.31Q635.43,595.47,623.71,595.46Z"/>
      <path d="M809.22,690.43Q788.9,721,786.69,724.85q10.77,8.29,21.79,15.38Q823.66,721,831.25,707,831.25,698.24,809.22,690.43Z"/>
      <path d="M888.47,579.83q-13.92-11.48-13.92-30.28a112.67,112.67,0,0,1,1.74-19.78q26.13-23.21,75.44-33.21,11.24-15.87,15.63-39.32a76.72,76.72,0,0,1-32.23,6.8q-11,0-31.86-6.19t-31.63-6.19q-41.13,0-61.2,37.08-10.29,19-22,73.42l-9,8.53-12.45,45.86q11.72-8.73,17.58-13.35l-2,30.27V664l1.22,1.22,1.22-.73,2.2-4.15q-1-26.37,6.59-65,37-32.25,69.34-56.94-4.38,19.51-4.38,31.95,0,26.08,15.33,44.13,16.11,19,42,19,29.78,0,59.81-18.5l12.45-46.49q-28.08,22-67.87,22Q901.42,590.58,888.47,579.83Zm-50-57.29q-10.74,7.83-39.55,31.57,9.76-62.65,54.44-62.65,7.81,0,28.32,4.89Q861.4,505.65,838.45,522.54Z"/>
      <path d="M1114.09,287.84q0-7.32-8.79-7.32-12.21,0-12.21-3.42,0-6.11,7.32-6.1a12,12,0,0,1,4.89,1q2.43-1.7,7-10.27c3-5.72,4.76-9.79,5.24-12.21a15.14,15.14,0,0,0-5.4-1.69q-10.32,0-23.82,17.83T1074.78,294q0,9.51,9.65,9.27c5.11-.16,7.92.25,8.41,1.22q-3.9,5.38-25.63,13.43l-29.79,10.26q0,2.92,3.18,2.92,20.51,0,44.92-11.47Q1114.08,305.92,1114.09,287.84Z"/>
      <path d="M1181.77,409.18a525.35,525.35,0,0,0-44.78-103q-15.09,45.42-15.09,136,0,48.83,8,50.29,5.54-2.69,5.54-28.07,0-13.68,6.27-60.55Q1154,427,1168.19,466.06q16.21,44.69,16.21,63,0,25.63-15.38,50.78-9,14.89-33.45,42.24l-21.24,22.22q-12.45,13.43-17.82,24.41c.16,1.31,1,1.95,2.44,1.95s4.86-1,10.22-2.93q57-20.75,75.76-54.93,15.83-28.56,15.83-93.5Q1200.76,470,1181.77,409.18Z"/>
    </g>
  </g>
</svg>
