<svg xmlns="http://www.w3.org/2000/svg" viewBox="0 0 1500 1000">
  <title>EH-Artboard 73</title>
  <g id="EsSamed">
    <g>
      <path d="M462.77,297.11q0,18.06-16.4,39.52l7.48,7.32L445.3,368.1a172.3,172.3,0,0,1-16.12-12.73q-37.85,35.25-57.62,35.26-3.92,0-13.43-2.93,29.79-14.42,62.26-38.09-9.63-9.27-9.62-16.36,0-12.69,13.85-29.66t26-17Q462.77,286.62,462.77,297.11Zm-19.53,21.53q0-11.26-9.67-11.27l-3.72,1.47a11,11,0,0,0-2.73,7.35q0,4.89,11.65,14.44Q443.24,323.05,443.24,318.64Z"/>
      <path d="M623.66,602.54,611.21,649a174.42,174.42,0,0,1-28.08,16q-19.77,9.35-29.79,9.34-27.09,0-27.09-40.78a111.1,111.1,0,0,1,1.46-15.86h-2q-1.47,0-7,6.71t-21.12,35.77q-36.87,68.6-68.6,84.22-18.56,9-32.47,11.48-10.5,1.95-34.67,1.95a266.1,266.1,0,0,1-27.59-2q-21.24-2.49-24.9-5.49l.73-1.49,3.42-2q36.87,0,60.06-7.57t52.73-29.54q31.74-23.44,44.92-42.73,16.85-27.33,33.69-54.93,24.94-38.56,38.82-44.68l2.44,2.2.49,2.44q-.74,2.44-2.19,10.26a131.42,131.42,0,0,0-2.45,25.39q0,26.12,21.73,26.12Q586.05,633.79,623.66,602.54Z"/>
      <path d="M679.32,327.64q-5.13,16.61-14.16,21l-85.45,42q3.9-15.13,22.95-24.66Z"/>
      <path d="M741.09,603.52l-12.45,46.41a36,36,0,0,1-19.29,5.59q-17.34,0-27.34-15.3-20.52,25.39-25.64,25.39-5.61,0-16.6-12.94-10.26-12-12.21-18.76-5.61,7.53-21,18l12.2-45.43Q630,596,652.47,575.2q2.43,0,24.17,18.31t37.11,18.31A46.83,46.83,0,0,0,741.09,603.52Z"/>
      <path d="M978.88,602.78l-12.45,46.63Q940.56,666,907.1,666q-38.57,0-54.52-47.86Q833.2,627.74,820,630.62q-1.23,14-4.15,30.22l-1.22.49-1.23-.49q-.24-14.49.49-28.76-28.08,7.83-65.67,7.82l-6.59-1.23q-4.89,4.68-15.38,12.81l12.2-45.09,26.86-30.71A44.9,44.9,0,0,1,766,584q0,14.65-14.4,38.09h9.27q15.87,0,57.38-19,8.79-33.69,14.16-48.1,11-29.77,25.14-41.5,11-9.28,47.12-22.95,33.45-12.69,44-12.7a35.19,35.19,0,0,1,3.66.25q4.15,3.9,4.15,12.45,0,4.15-7.3,23.44-21.2,56.15-80.35,94.72Q886.85,625,905.4,625,949.58,625,978.88,602.78ZM935.18,522a5.29,5.29,0,0,0-1-2.93l-4.39-.49q-11.47,0-42.24,12.17-32.72,12.91-42.72,23.62-10.76,11.92-18.56,45a421.21,421.21,0,0,0,82-51.52Q935.18,526.37,935.18,522Z"/>
      <path d="M1051.64,449.46q0,68.85-17.34,113.77-21,53.71-71.78,88.87l12.21-45.65Q1037,556.64,1037,506.35q0-37.59-23.68-91.07-4.59,23.94-13.78,71.54-3.85,20.51-6.51,20.5l-2.18-.73-.48-3.17q0-19.79,10.21-74.22,10.7-58.83,18.48-67.63,13.38,8.31,23.59,40.29Q1051.63,429.45,1051.64,449.46Z"/>
      <path d="M1099.49,242.19q-5.13,16.6-14.16,21l-85.45,42q3.9-15.14,23-24.66Z"/>
      <path d="M767.21,349.85q-9.29,0-9.28-17.82l-5.85,1.47Q733.51,366,722.05,366q-8.55,0-8.55-11.48l.73-7.57-8.54,4.64q-6.84,18.6-6.84,25.26,0,13.8,14.2,13.81,16.4,0,31.08-21.16,8.8,6.27,14.44,6.26,17.63,0,29.12-21.24,8.56-15.62,11-36.62l-7.57,2.2Q781.38,349.86,767.21,349.85Z"/>
      <path d="M708.13,341.06,788,312.74q9.76-3.4,16.85-18.55L735.23,318.6Q718.87,324.23,708.13,341.06Z"/>
      <path d="M1171.57,444.09a525.61,525.61,0,0,0-44.78-103q-15.11,45.42-15.1,136,0,48.84,8,50.29,5.55-2.69,5.55-28.07,0-13.68,6.27-60.55,12.27,23.2,26.52,62.26,16.2,44.67,16.2,63,0,25.63-15.38,50.79-9,14.89-33.44,42.23l-21.24,22.22q-12.45,13.42-17.83,24.41a2.12,2.12,0,0,0,2.44,2q2.19,0,10.23-2.93,57-20.76,75.75-54.93,15.83-28.58,15.83-93.51Q1190.55,504.88,1171.57,444.09Z"/>
      <path d="M1103.88,322.75q0-7.32-8.79-7.32-12.21,0-12.2-3.42,0-6.09,7.32-6.1a12,12,0,0,1,4.88,1q2.45-1.69,7-10.27t5.25-12.21a15.25,15.25,0,0,0-5.4-1.69q-10.32,0-23.82,17.83t-13.5,28.32q0,9.52,9.65,9.27,7.66-.24,8.41,1.23-3.92,5.37-25.64,13.42L1027.22,363c0,1.95,1,2.93,3.17,2.93q20.5,0,44.92-11.48Q1103.88,340.83,1103.88,322.75Z"/>
    </g>
  </g>
</svg>
