<svg xmlns="http://www.w3.org/2000/svg" viewBox="0 0 1500 1000">
  <title>EH-Artboard 11</title>
  <g id="EsSelam">
    <g>
      <path d="M407.54,273.92q0,18-16.39,39.52l7.47,7.31-8.55,24.16A170.85,170.85,0,0,1,374,332.17q-37.84,35.26-57.62,35.26-3.9,0-13.42-2.93,29.77-14.4,62.25-38.08-9.62-9.29-9.62-16.36,0-12.69,13.85-29.66t26-17Q407.54,263.43,407.54,273.92ZM388,295.44q0-11.25-9.66-11.26l-3.72,1.47A11,11,0,0,0,371.9,293q0,4.89,11.65,14.44Q388,299.85,388,295.44Z"/>
      <path d="M619.46,312.74Q611.41,370.85,554.08,426L451.4,513.67Q348.46,609.39,348.46,679.93q0,44.93,69.26,71.05Q470.64,771,524,771a385,385,0,0,0,41-2.2l-3.66,3.91Q529.13,781,517.89,781q-72.51,0-118.65-20.51-64-28.08-64-91.07,0-82.51,97.41-176.27,35.4-33.93,105-87.4c-1-1.46-1.46-4.39-1.46-8.79q0-3.9,8.77-32.47,23.68,0,40-12.94,10-7.56,21-24.17Q615.06,313.49,619.46,312.74Z"/>
      <path d="M798.9,231.2q-5.13,16.61-14.16,21l-85.45,42q3.9-15.13,23-24.66Z"/>
      <path d="M831.37,579.59,818.92,625.8q-15.13,12.87-30.76,12.87-23.2,0-34.41-39.08Q736.91,662,723.5,689.84q-27.81,58-65.86,58-29,0-49.52-28-46.86,45.65-139.64,45.65l-2-.24-.24-1.22q0-2.94,9.76-5.13l12.7-2.44q65.18-15.87,108.88-57.94-6.74-21.24-6.74-37.6,0-41.5,2.44-55.18,4.89-28.07,24.91-79.83Q637,477.05,652.42,449q16.85,76.9,16.84,103.28,0,33.19-3.4,46.63-16.5,65.43-36.88,95.94,14.16,11,33.2,11,42.48,0,75.69-95.95,7.07-20.5,7.08-63.72,0-23.43-5.15-72.51-5.88-56.62-12-65.92l16.52-40.28q4.6,4.15,12.14,58.6,2.67,18.8,7,56.15.72,34.19,1.45,68.11,5.63,45.42,35.65,45.41Q813.8,595.7,831.37,579.59ZM654.13,593.41q0-18.06-3.67-43.21-4.63-31-11.72-39.31Q601.89,591.71,601.88,631q0,28.82,12.69,48.83Q654.13,634.42,654.13,593.41Z"/>
      <path d="M894.36,271l-69.58,24.41q-16.37,5.63-27.1,22.46l79.83-28.32Q887.28,286.13,894.36,271Z"/>
      <path d="M856.76,326.66q-9.28,0-9.28-17.82l-5.85,1.46q-18.57,32.47-30,32.47-8.55,0-8.55-11.47l.73-7.57-8.54,4.64q-6.84,18.6-6.84,25.25,0,13.81,14.2,13.81,16.39,0,31.08-21.15,8.8,6.25,14.44,6.26,17.63,0,29.12-21.24,8.57-15.63,11-36.62l-7.57,2.2Q870.93,326.66,856.76,326.66Z"/>
      <path d="M984.69,579.79,972,626.94q-17.84,13.2-44.19,13.2-20.52,0-32.72-14.66-11.24-13.66-11.23-33.94a73.75,73.75,0,0,1,.73-10.26l-5.34,1a85.55,85.55,0,0,1-20.18,23.09Q844,617,831.36,615.56A154.58,154.58,0,0,1,816,628.34l12.45-46q6.28-3.91,11.11-16.39,5.31-13.92,9.18-17.82l1.93.73a202.55,202.55,0,0,1-1.95,20.51q5.38,0,17.66-11.72,10.56-10,14.23-16.6,2.22-4.15,7.12-20.27,1-3.66,5.4-7.57l1.46,1.47.49,11.23q0,1.71-1.46,11.23,2.46,0,10.52-5.86,9-6.59,18.55-26.12,8.79-18.56,9.77-19.05l1.22,1.47v4.88q0,21.24-11,46.63-12,27.6-28.32,37.84,2.43,26.63,33.93,26.62Q957.84,603.52,984.69,579.79Z"/>
      <path d="M1058.18,426.27q0,68.85-17.34,113.77-21,53.72-71.77,88.87l12.2-45.66q62.26-49.8,62.26-100.1,0-37.59-23.68-91.06-4.59,23.93-13.77,71.53-3.87,20.5-6.52,20.51l-2.18-.73-.48-3.18q0-19.77,10.21-74.21,10.7-58.85,18.48-67.63,13.38,8.3,23.59,40.28Q1058.18,406.26,1058.18,426.27Z"/>
      <path d="M1106,219q-5.13,16.6-14.16,21l-85.45,42q3.9-15.14,22.95-24.66Z"/>
      <path d="M1110.42,299.56q0-7.32-8.79-7.32-12.21,0-12.2-3.42,0-6.1,7.32-6.11a11.88,11.88,0,0,1,4.88,1q2.44-1.69,7-10.28t5.25-12.2a15.25,15.25,0,0,0-5.4-1.69q-10.32,0-23.82,17.82t-13.5,28.32q0,9.52,9.65,9.28,7.67-.24,8.41,1.22-3.92,5.37-25.64,13.43l-29.78,10.25c0,2,1.06,2.93,3.17,2.93q20.52,0,44.93-11.47Q1110.42,317.64,1110.42,299.56Z"/>
      <path d="M1178.11,420.9a525.35,525.35,0,0,0-44.78-103q-15.11,45.4-15.09,136,0,48.83,8,50.29,5.55-2.68,5.55-28.08,0-13.67,6.27-60.54,12.27,23.19,26.52,62.25,16.2,44.69,16.21,63,0,25.63-15.38,50.78-9,14.9-33.45,42.24L1110.67,656q-12.45,13.43-17.82,24.41a2.11,2.11,0,0,0,2.43,2q2.19,0,10.23-2.93,57-20.75,75.75-54.93,15.83-28.56,15.83-93.5Q1197.09,481.69,1178.11,420.9Z"/>
    </g>
  </g>
</svg>
