<svg xmlns="http://www.w3.org/2000/svg" viewBox="0 0 1500 1000">
  <title>EH-Artboard 95</title>
  <g id="ElMugni">
    <g>
      <path d="M608.4,524.29l-12.7,46.63q-20.51,12.71-41,25.64-37.35,24.9-37.36,33,0,14.9,30,26.12,21,7.58,21,21,0,51-42.83,109.86-45.78,63.22-94.72,63.23-56.3,0-56.3-72.51a200.39,200.39,0,0,1,16.63-79.59q11.75-27.58,39.14-67.14,37.43-54.43,45.25-67.62,14.43-24.42,31.55-81.55L511,483q-2.7,31.5-27.35,84.72-9.76,21-37.11,59.81-29.79,41.76-40,61.53-18.8,35.64-18.79,66.4,0,25.88,16.84,40.29,15.87,13.43,42.24,13.42,24.17,0,66-39.91t41.87-61.4q0-5.86-13.19-10-18.3-5.62-24.17-9.77-13.19-9-13.18-27.34,0-61.77,28.32-84.23Q558.1,559,608.4,524.29Z"/>
      <path d="M659.91,726.93q-5.13,16.61-14.16,21l-85.45,42q3.9-15.15,23-24.66Z"/>
      <path d="M642.33,392.94q-2-6.58-9-10.74-6.59-3.17-13.18-6.1-18.32,26.61-22.46,34.67l21.72,15.13Q628.91,419.56,642.33,392.94Z"/>
      <path d="M652.1,542.36q-17.82,9.28-29.54,9.28-10,0-14.16-2.69,19-26.12,19-44a42.58,42.58,0,0,0-.73-8.3Q613,512.33,599.85,527.47l-12.2,45.31,6.59-5.16q9.76,18,30.76,18,19.77,0,40.28-15l12.45-46.52Q668,533.81,652.1,542.36Z"/>
      <path d="M704.35,174.68q0,19-15.07,35.4T655.1,226.44q-20.1,0-20.09-17.58,0-19.77,14-38.33,15.18-20.26,34.3-20.26,8.57,0,15.19,8.06A26.16,26.16,0,0,1,704.35,174.68Zm-15.87,16.18q0-6-8-12.9T666.62,171q-7.36,0-13.39,6.7t-6,14.13q0,10.67,19.15,10.66Q688.48,202.51,688.48,190.86Z"/>
      <path d="M856,218.38q0,18-16.4,39.52l7.47,7.31-8.54,24.15a168.14,168.14,0,0,1-16.12-12.73q-37.85,35.26-57.62,35.26-3.91,0-13.43-2.93,29.79-14.4,62.26-38.09-9.63-9.27-9.62-16.35,0-12.69,13.85-29.67t26-17Q856,207.89,856,218.38ZM836.43,239.9q0-11.25-9.67-11.26L823,230.11a10.94,10.94,0,0,0-2.73,7.34q0,4.91,11.65,14.45Q836.43,244.31,836.43,239.9Z"/>
      <path d="M912.6,524.78,900.15,571.2a36.09,36.09,0,0,1-19.29,5.58q-17.34,0-27.34-15.29Q833,586.87,827.88,586.88q-5.62,0-16.6-12.94Q801,562,799.07,555.18q-5.61,7.53-21,18l12.2-45.43q11.24-10.5,33.69-31.25,2.44,0,24.17,18.31t37.11,18.31A46.77,46.77,0,0,0,912.6,524.78Z"/>
      <path d="M939.45,174.68q0,19-15.07,35.4t-34.17,16.36q-20.1,0-20.09-17.58,0-19.77,14-38.33,15.2-20.26,34.3-20.26,8.58,0,15.19,8.06A26.1,26.1,0,0,1,939.45,174.68Zm-15.87,16.18q0-6-8-12.9T901.73,171q-7.38,0-13.39,6.7t-6,14.13q0,10.67,19.16,10.66Q923.58,202.51,923.58,190.86Z"/>
      <path d="M986.57,370.73q0,68.85-17.33,113.77-21,53.71-71.78,88.86l12.21-45.65q62.25-49.8,62.25-100.1,0-37.59-23.68-91.06-4.59,23.93-13.77,71.53-3.87,20.51-6.52,20.51l-2.17-.73-.49-3.18q0-19.77,10.21-74.22,10.71-58.83,18.49-67.62,13.37,8.3,23.58,40.28Q986.57,350.71,986.57,370.73Z"/>
      <path d="M1034.42,163.45q-5.12,16.61-14.16,21l-85.45,42q3.91-15.13,23-24.66Z"/>
      <path d="M724.85,517.53Q749,491.25,749,477.13q0-15.58-28.56-15.58-40.77,0-49.56,9.48a136.16,136.16,0,0,0-7.81,16q-8.31,21.63-8.3,28.43,3.68-1.46,15.7-1.46a16.93,16.93,0,0,1,12.28,5.38l-8.1,8.33L662.4,573.06q14-9.57,37.06-34.12,12.33,45.16,42.48,45.17,19,0,40.29-13.73l12.69-47.31q-22.7,20-42.23,20Q731.45,543.09,724.85,517.53Z"/>
      <path d="M731.2,381.71q0-4.63-6.08-7.81-3.4-4.39-16-8.54-20,29.53-22.37,34.42Q701,410,708.58,414.67,718.08,405.16,731.2,381.71Z"/>
      <path d="M1038.82,244q0-7.32-8.79-7.33-12.21,0-12.21-3.41,0-6.1,7.33-6.11a11.92,11.92,0,0,1,4.88,1q2.43-1.69,7-10.28t5.25-12.2a15,15,0,0,0-5.41-1.69q-10.3,0-23.81,17.82t-13.51,28.32q0,9.53,9.65,9.28c5.11-.16,7.92.24,8.41,1.22q-3.9,5.37-25.63,13.43L962.15,284.3q0,2.93,3.18,2.93,20.5,0,44.92-11.47Q1038.81,262.08,1038.82,244Z"/>
      <path d="M1106.5,365.36a525.35,525.35,0,0,0-44.78-103q-15.09,45.41-15.09,136,0,48.82,8,50.29,5.55-2.69,5.54-28.08,0-13.66,6.28-60.54,12.27,23.19,26.52,62.25,16.2,44.68,16.2,63,0,25.63-15.38,50.78-9,14.9-33.45,42.24l-21.24,22.21q-12.45,13.44-17.82,24.42c.16,1.3,1,2,2.44,2s4.86-1,10.23-2.93q57-20.74,75.75-54.93,15.83-28.56,15.83-93.51Q1125.49,426.16,1106.5,365.36Z"/>
    </g>
  </g>
</svg>
