<svg xmlns="http://www.w3.org/2000/svg" viewBox="0 0 1500 1000">
  <title>EH-Artboard 97</title>
  <g id="EdDaar">
    <g>
      <path d="M581.3,546.9q0,26.22-8.06,27.68l-6.59-8.05q-6.84.24-11.23,8.07-12,20.77-25.39,54.26-11,28.11-22,56-9.29,22-28.57,43.51-20.5,23-40.77,32-23,10.51-63.23,10.51-60.8,0-62.75-6.29l2.45-1.76q51.27,0,95.21-22Q456,718,483.64,676.24q14.89-22.68,32-60.24l22.46-50.24q19-37.8,29.54-37.81,5.85,0,10,6.81A22.49,22.49,0,0,1,581.3,546.9Z"/>
      <path d="M737.06,623.66l-12.45,46.8q-19.53,13.26-39.55,13.26-27.6,0-37.84-31-5.62-17.4-6.59-53.77l-1.84-73.73q-2.07-83-2.07-84.47,0-3.18,5.88-20.76t8.06-20.5h1.44q.74,42.24,2.93,126.22.24,23.43,5.13,69.33,9.75,47.13,37.35,47.12Q718,642.21,737.06,623.66Z"/>
      <path d="M1048.34,469.85q0,68.85-17.33,113.77-21,53.71-71.78,88.87l12.21-45.66q62.25-49.8,62.25-100.1,0-37.59-23.68-91.06-4.59,23.93-13.77,71.53-3.87,20.51-6.52,20.51l-2.18-.73-.48-3.18q0-19.77,10.21-74.22Q1008,390.75,1015.75,382q13.38,8.3,23.59,40.28Q1048.34,449.84,1048.34,469.85Z"/>
      <path d="M1096.19,262.57q-5.13,16.6-14.16,21l-85.45,42q3.9-15.13,22.95-24.66Z"/>
      <path d="M466,338.16q-4-5.28-9.64-5.27-12.46,0-25.4,12.12T418,369.38l1,5.88a58.9,58.9,0,0,0,6.43,8.33q-29.1,17.15-57.44,24,8.32,4.89,14.44,4.89,15.66,0,51.87-23.93,15.66,6.84,25,7.08,3.91-12.5,3.67-15.69l-.24-3.67-7.31-5.39Q470,355.43,470,349.31A18,18,0,0,0,466,338.16Zm-18.37,27.93Q437,357.8,437,352.66q0-9,8.18-9,7.68,2.92,7.69,8.79Q452.88,358,447.59,366.09Z"/>
      <path d="M422.12,432.84q-9.53,0-9-11.4l.24-4.84L407,418.05q-18.06,28.84-29.29,28.85-7.83,0-7.82-9L371.58,427l-5.05.49q-12,16.39-12,29.37l1.71,8.56q5.12,6.6,12.17,6.61,19,0,30.45-19.67,5.83,6.24,9.74,6.24,32.38,0,46-52.49l-6.1,1.45Q435.55,432.84,422.12,432.84Z"/>
      <path d="M801.51,229.13l-69.58,24.41q-16.35,5.63-27.1,22.46l79.84-28.32Q794.44,244.26,801.51,229.13Z"/>
      <path d="M740.83,304.41q8.82,6.25,14.44,6.26,17.63,0,29.13-21.24,8.55-15.63,11-36.62L787.84,255q-9.76,29.79-23.92,29.79-9.28,0-9.28-17.82l-5.86,1.46q-18.56,32.47-30,32.47-8.55,0-8.54-11.47l.73-7.57-8.55,4.64q-6.84,18.6-6.83,25.25,0,13.81,14.19,13.81Q726.15,325.56,740.83,304.41Z"/>
      <path d="M909.91,438.35q0-4.39-9.28-10A102,102,0,0,0,887.45,422q-18.56,26.85-22,34.42l21.73,14.89Q901.85,452.52,909.91,438.35Z"/>
      <path d="M865.48,629q59.16-38.58,80.34-94.73,7.3-19.27,7.31-23.44,0-8.53-4.16-12.45a34.64,34.64,0,0,0-3.66-.24q-10.5,0-43.94,12.69-36.14,13.68-47.12,22.95-14.16,11.73-25.15,41.51-5.37,14.4-14.16,48.09-41.51,19.05-57.37,19.05h-9.28q14.4-23.44,14.41-38.09a44.81,44.81,0,0,0-.74-8.3l-26.85,30.71L722.9,671.87q10.5-8.13,15.38-12.81l6.59,1.23q37.61,0,65.68-7.82-.74,14.25-.49,28.76l1.22.49,1.22-.49Q815.43,665,816.65,651q13.25-2.87,32.64-12.45,15.94,47.85,54.52,47.85,33.45,0,59.32-16.6l12.46-46.63q-29.31,22.22-73.49,22.22Q883.55,645.39,865.48,629ZM823,619.75q7.82-33.11,18.55-45,10-10.71,42.73-23.61,30.76-12.17,42.23-12.17l4.4.49a5.25,5.25,0,0,1,1,2.93q0,4.39-26.85,25.88A421.57,421.57,0,0,1,823,619.75Z"/>
      <path d="M1168.27,464.48a525.35,525.35,0,0,0-44.78-103q-15.09,45.41-15.09,136,0,48.82,8,50.29,5.54-2.68,5.54-28.08,0-13.66,6.27-60.54,12.28,23.19,26.52,62.25,16.21,44.68,16.21,63,0,25.64-15.38,50.78-9,14.89-33.45,42.24l-21.24,22.21Q1088.38,713,1083,724c.16,1.3,1,2,2.44,2s4.86-1,10.22-2.93q57-20.74,75.75-54.93,15.84-28.56,15.84-93.51Q1187.26,525.28,1168.27,464.48Z"/>
      <path d="M1100.59,343.14q0-7.32-8.79-7.32-12.21,0-12.21-3.42,0-6.11,7.32-6.11a12,12,0,0,1,4.89,1q2.43-1.69,7-10.28c3-5.71,4.77-9.78,5.25-12.2a15.14,15.14,0,0,0-5.4-1.69q-10.32,0-23.82,17.82t-13.5,28.32q0,9.52,9.65,9.28c5.11-.16,7.92.24,8.41,1.22q-3.9,5.37-25.63,13.43l-29.79,10.25c0,2,1.06,2.93,3.18,2.93q20.51,0,44.92-11.47Q1100.58,361.2,1100.59,343.14Z"/>
    </g>
  </g>
</svg>
