<svg xmlns="http://www.w3.org/2000/svg" viewBox="0 0 1500 1000">
  <title>EH-Artboard 12</title>
  <g id="ElMumin">
    <g>
      <path d="M386.3,297.11q0,18.06-16.39,39.52l7.47,7.32-8.55,24.15a172.3,172.3,0,0,1-16.12-12.73q-37.84,35.25-57.62,35.26-3.9,0-13.42-2.93,29.77-14.42,62.25-38.09-9.62-9.27-9.62-16.36,0-12.69,13.85-29.66t26-17Q386.3,286.62,386.3,297.11Zm-19.53,21.53q0-11.26-9.66-11.27l-3.72,1.47a11,11,0,0,0-2.73,7.35q0,4.89,11.65,14.44Q366.77,323.05,366.77,318.64Z"/>
      <path d="M544.26,541.75,531.81,588q-24.66,18.47-40,17.2l-4.63,21.56q-8.53,39.69-39.73,79.61-35.6,45.55-70.94,45.56-44.61,0-44.61-54.05,0-31.3,23.44-84.13-31.49,1.23-50,32l-1.47.49-1.46-1.47q0-24.49,20.5-49.47,21.48-26.44,45.2-26.45,10.75,0,10.76,9.53,0,9.3-13.58,40.61t-13.58,47.44q0,18.35,10.89,29.47T391.75,707q22.26,0,48.44-24.9Q464.9,658.69,470.77,636a118.39,118.39,0,0,0,4.16-29.3q0-15.62-12-27.59-.49-16.11,18.9-44.43,7.26,3.18,18,31.25Q517.16,565.92,544.26,541.75Z"/>
      <path d="M600.41,769q-5.11,16.61-14.16,21L500.8,832q3.92-15.13,22.95-24.66Z"/>
      <path d="M648.51,478.52q-2.19,12.45-16.6,36.37-14.42-2.68-21.24-2.68-21,0-44.19,33-28.08,39.54-38.33,45.41l12.45-45.9q7.81-6.34,18.31-22.59t17.33-22.33v-1.71l-4.39-4.64q5.13-18.8,18.55-37.84,8.79,6.35,29.18,11.72T648.51,478.52Z"/>
      <path d="M803.3,360.84q0,19.05-15.07,35.4T754.05,412.6Q734,412.6,734,395q0-19.77,14-38.33,15.2-20.26,34.31-20.26,8.57,0,15.19,8.05A26.21,26.21,0,0,1,803.3,360.84ZM787.43,377q0-6-8-12.9t-13.87-6.94c-4.92,0-9.37,2.23-13.39,6.69s-6,9.18-6,14.14q0,10.67,19.15,10.66Q787.43,388.67,787.43,377Z"/>
      <path d="M741.77,485.23q20.51,0,44.92-11.5,28.38-13.69,28.38-31.8,0-7.33-8.71-7.34-12.11,0-12.1-3.43,0-6.11,7.25-6.11a11.73,11.73,0,0,1,4.84,1q2.42-1.69,6.89-10.27c3-5.73,4.71-9.79,5.2-12.21a14.91,14.91,0,0,0-5.38-1.69q-10.24,0-23.68,17.88T776,448.09q0,9.5,9.65,9.25c5.11-.16,7.92.25,8.41,1.22q-3.9,5.38-25.63,13.46l-29.79,10.27Q738.59,485.23,741.77,485.23Z"/>
      <path d="M823.56,579.59q0-12-9.41-21.24t-21.35-9.28q-13.68,0-27.59,26.13Q752.76,598.63,752.76,614q0,14.65,22.21,14.65,7.34,0,28.57-5.86a48.6,48.6,0,0,1-7.08,20.27Q794,646.73,783,659.91q-51.76,61-122.31,81.79-32.47,9.52-49.32,9.52-8.29,0-23.44-2.44-15.87-2.68-23.19-2.93l-1.95,1.48Q564,754,600.66,760q30.76,5.19,46.38,5.19,41,0,68.12-11.74,32.22-13.93,64.45-57.44,30.9-41.55,39.07-78,40.77-17.34,56.39-29.82l12.45-46.44Q864.57,562.25,823.56,579.59Z"/>
      <path d="M948.8,236.08q0,18-16.39,39.52l7.47,7.31-8.55,24.15a170.66,170.66,0,0,1-16.12-12.73q-37.85,35.26-57.62,35.26-3.9,0-13.42-2.93,29.77-14.4,62.25-38.09-9.61-9.27-9.62-16.35,0-12.69,13.85-29.67t26-17Q948.8,225.59,948.8,236.08ZM929.27,257.6q0-11.25-9.66-11.26l-3.72,1.47a10.94,10.94,0,0,0-2.73,7.34q0,4.91,11.65,14.45Q929.27,262,929.27,257.6Z"/>
      <path d="M1005.44,542.48,993,588.9a36.06,36.06,0,0,1-19.28,5.58q-17.34,0-27.35-15.29-20.5,25.39-25.63,25.39-5.62,0-16.6-12.94-10.26-12-12.21-18.76-5.62,7.53-21,18l12.21-45.43q11.22-10.5,33.69-31.25,2.45,0,24.17,18.31t37.11,18.31A46.74,46.74,0,0,0,1005.44,542.48Z"/>
      <path d="M1032.3,192.38q0,19.05-15.07,35.4t-34.17,16.36q-20.1,0-20.1-17.58,0-19.77,14-38.33Q992.11,168,1011.23,168q8.57,0,15.19,8.06A26.1,26.1,0,0,1,1032.3,192.38Zm-15.87,16.18q0-6-8-12.9t-13.88-6.94q-7.37,0-13.38,6.7t-6,14.13q0,10.66,19.16,10.66Q1016.43,220.21,1016.43,208.56Z"/>
      <path d="M1079.42,388.43q0,68.85-17.34,113.77-21,53.71-71.77,88.86l12.2-45.65q62.27-49.8,62.26-100.1,0-37.59-23.68-91.06-4.59,23.92-13.77,71.53-3.87,20.5-6.52,20.51l-2.18-.73-.48-3.18q0-19.77,10.21-74.22,10.7-58.83,18.48-67.62,13.38,8.29,23.59,40.28Q1079.42,368.41,1079.42,388.43Z"/>
      <path d="M1127.27,181.15q-5.13,16.6-14.16,21l-85.45,42q3.9-15.13,22.95-24.66Z"/>
      <path d="M1131.66,261.72q0-7.32-8.78-7.33c-8.15,0-12.21-1.13-12.21-3.41q0-6.1,7.32-6.11a12,12,0,0,1,4.89,1q2.43-1.69,6.95-10.28t5.25-12.2a14.93,14.93,0,0,0-5.4-1.69q-10.32,0-23.82,17.82t-13.5,28.32q0,9.53,9.65,9.28c5.11-.16,7.91.24,8.41,1.22q-3.92,5.37-25.63,13.43L1055,302c0,2,1.06,2.93,3.17,2.93q20.52,0,44.93-11.47Q1131.66,279.78,1131.66,261.72Z"/>
      <path d="M1199.35,383.06a525.35,525.35,0,0,0-44.78-103q-15.1,45.41-15.09,136,0,48.83,8,50.29,5.55-2.69,5.55-28.08,0-13.67,6.27-60.54,12.27,23.19,26.52,62.25,16.21,44.69,16.21,63,0,25.63-15.38,50.78-9,14.89-33.45,42.24l-21.24,22.21q-12.45,13.44-17.82,24.42a2.11,2.11,0,0,0,2.43,1.95q2.19,0,10.23-2.93,57-20.75,75.75-54.93,15.82-28.56,15.83-93.51Q1218.33,443.86,1199.35,383.06Z"/>
    </g>
  </g>
</svg>
