<svg xmlns="http://www.w3.org/2000/svg" viewBox="0 0 1500 1000">
  <title>EH-Artboard 10</title>
  <g id="ElKudus">
    <g>
      <path d="M324.41,312.61q0,18.06-16.39,39.52l7.47,7.32-8.55,24.15a170.66,170.66,0,0,1-16.12-12.73Q253,406.14,233.2,406.13q-3.9,0-13.42-2.93,29.78-14.4,62.25-38.09-9.61-9.27-9.62-16.36,0-12.69,13.85-29.66t26-17Q324.41,302.12,324.41,312.61Zm-19.53,21.53q0-11.26-9.66-11.26l-3.72,1.46a11,11,0,0,0-2.73,7.35q0,4.9,11.65,14.45Q304.88,338.55,304.88,334.14Z"/>
      <path d="M597.12,392.94l-5.37,8.79q-15.63,9.78-81.55,41-71.54,33.93-95.45,47.12-67.87,37.85-98.64,71.78-42.72,47.11-42.72,109.61,0,74,54.93,74,31.74,0,69.09-33.55,37.84-34.53,37.84-65.87,0-27.42-13.42-41.14-9-6.85-17.83-13.47a333.91,333.91,0,0,1,15.35-36.64q14.86,6.1,28,25.87a35.15,35.15,0,0,0,10.72,1.71q25.35,0,41.9-19.28,15.84-18.07,15.35-43c1.79-3.74,3.5-5.62,5.13-5.62l1.22.49q-2.68,20-2.2,31l2.44,1.22q7.82,0,16.85-14.41a70.2,70.2,0,0,0,10.5-29.54q2.93-26.85,3.9-30.52,1.23-5.11,4.15-5.12,3.42,0,3.42,16.84,0,99.66-56.15,108.89-5.62,11-19.29,19T459.18,620a17.08,17.08,0,0,1-7.33-1.22q-2.93,51-34.42,102.75-37.85,61.76-88.13,61.76-35.42,0-54.2-32.27Q260,724.5,260,686.16q0-70.8,43-124.27,35.64-44.68,106-82.28,28.31-15.14,95-43Q566.11,410.78,597.12,392.94Z"/>
      <path d="M720.65,559.2q0,50.31-40.52,112.8-41.76,63.72-86.67,78.85-32.48,11-93.75,11-17.82,0-17.83-4.64,0-2.19,19.29-7.08,28.56-7.08,42.73-12,43.7-15.13,82.64-46.27t61.89-70.19q15.86-26.85,15.87-44.43,0-4.87-3.67-15.38Q687,577,668.9,577a24,24,0,0,1-14.65-4.89,15.07,15.07,0,0,1-6.59-12.69q0-16.35,19.28-51.27,5.87-10.74,17.09-10.74Q720.66,497.44,720.65,559.2Z"/>
      <path d="M782.18,310.35l-7.3-5.39q14.64-15.43,14.64-21.57a18.08,18.08,0,0,0-4-11.15q-4-5.26-9.65-5.27-12.47,0-25.4,12.12t-13,24.37l1,5.88a58.3,58.3,0,0,0,6.43,8.33q-29.1,17.15-57.44,24,8.32,4.89,14.44,4.89,15.66,0,51.87-23.93,15.66,6.84,25,7.08,3.91-12.49,3.67-15.68Zm-15.06-10.18q-10.57-8.3-10.58-13.43,0-9,8.18-9,7.68,2.93,7.69,8.79Q772.41,292.13,767.12,300.17Z"/>
      <path d="M741.65,366.92q-9.52,0-9-11.39l.24-4.85-6.35,1.45Q708.45,381,697.22,381q-7.83,0-7.82-9l1.71-10.91-5.05.49Q674,378,674,391l1.71,8.56q5.12,6.62,12.17,6.61,19,0,30.45-19.66,5.83,6.24,9.74,6.23,32.38,0,46-52.49l-6.1,1.46Q755.08,366.93,741.65,366.92Z"/>
      <path d="M939.4,618,927,664.52a172.78,172.78,0,0,1-28.07,16q-19.78,9.35-29.79,9.34-27.11,0-27.1-40.77a111.34,111.34,0,0,1,1.47-15.87h-2q-1.46,0-7,6.71t-21.11,35.77q-36.87,68.61-68.61,84.23-18.55,9-32.47,11.47-10.5,1.95-34.67,2a266.12,266.12,0,0,1-27.58-2q-21.24-2.51-24.91-5.5l.74-1.49,3.41-2q36.87,0,60.06-7.57t52.74-29.54q31.73-23.44,44.92-42.72,16.85-27.35,33.69-54.94Q845.7,589,859.57,582.89l2.44,2.19.49,2.44q-.74,2.44-2.2,10.26a131.42,131.42,0,0,0-2.44,25.39q0,26.13,21.73,26.12Q901.81,649.29,939.4,618Z"/>
      <path d="M1000.19,227.17q0,18-16.39,39.52l7.47,7.31-8.55,24.15a169.33,169.33,0,0,1-16.11-12.73Q928.77,320.69,909,320.68q-3.91,0-13.43-2.93,29.78-14.4,62.25-38.09-9.62-9.27-9.62-16.35,0-12.7,13.85-29.67t26-17Q1000.19,216.67,1000.19,227.17Zm-19.53,21.52q0-11.26-9.66-11.26l-3.72,1.47a10.94,10.94,0,0,0-2.73,7.34q0,4.9,11.65,14.45Q980.67,253.1,980.66,248.69Z"/>
      <path d="M1010.35,638.06q-30.29,0-38.82-12.45,33.54-38.57,33.55-62.26,0-31-14.12-31-6.81,0-20.43,10.76t-25.31,31.28q-12.4,22-12.41,37.65a35.14,35.14,0,0,0,1.2,9.29l-12.45,46.94a307.93,307.93,0,0,0,27.8-22.35q14.85,17.45,23.39,23.82A51.84,51.84,0,0,0,1004,680.05a92.91,92.91,0,0,0,51.76-15.42l12.69-47.25Q1041.59,638.06,1010.35,638.06Zm-53.07-31.14q-8.35-9.74-8.36-15.57,0-4.38,11.06-14.11t15.72-9.74q12.76,0,12.78,9.49Q988.48,590.87,957.28,606.92Z"/>
      <path d="M1024.67,445.68q2.92-12.45,4.15-18.8-35.65,22-55.67,30Q958,486.94,958,493.29l.24,2.93Q1020,465.45,1024.67,445.68Z"/>
      <path d="M1094.19,268.92q0,19.05-15.07,35.4t-34.18,16.36q-20.09,0-20.09-17.58,0-19.77,14-38.33,15.18-20.26,34.3-20.26,8.57,0,15.19,8.05A26.15,26.15,0,0,1,1094.19,268.92Zm-15.87,16.18q0-6-8-12.9t-13.87-6.94q-7.37,0-13.38,6.69t-6,14.14q0,10.67,19.16,10.66Q1078.32,296.75,1078.32,285.1Z"/>
      <path d="M1141.31,465q0,68.84-17.34,113.77-21,53.7-71.77,88.86L1064.4,622q62.26-49.8,62.26-100.1,0-37.59-23.68-91.06-4.59,23.93-13.77,71.53-3.87,20.51-6.52,20.51l-2.18-.74-.48-3.17q0-19.77,10.21-74.22,10.69-58.83,18.48-67.62,13.38,8.3,23.59,40.28Q1141.31,444.95,1141.31,465Z"/>
      <path d="M1189.16,257.69q-5.13,16.6-14.16,21l-85.45,42q3.9-15.14,23-24.66Z"/>
      <path d="M1193.55,338.26q0-7.33-8.79-7.33c-8.14,0-12.2-1.13-12.2-3.42q0-6.09,7.32-6.1a11.88,11.88,0,0,1,4.88,1q2.45-1.71,7-10.28t5.25-12.2a15,15,0,0,0-5.4-1.69q-10.32,0-23.82,17.82t-13.5,28.32q0,9.52,9.65,9.28c5.11-.16,7.91.24,8.41,1.22q-3.91,5.37-25.64,13.43l-29.78,10.25q0,2.93,3.17,2.93,20.52,0,44.93-11.47Q1193.55,356.32,1193.55,338.26Z"/>
      <path d="M1261.24,459.59a525.52,525.52,0,0,0-44.78-103q-15.11,45.4-15.09,136,0,48.84,8,50.3,5.55-2.69,5.55-28.08,0-13.66,6.27-60.55,12.27,23.2,26.52,62.26,16.2,44.67,16.21,63,0,25.63-15.38,50.78-9,14.89-33.45,42.24L1193.8,694.7q-12.45,13.44-17.82,24.42a2.11,2.11,0,0,0,2.43,2q2.19,0,10.23-2.93,57-20.75,75.75-54.93,15.83-28.56,15.83-93.51Q1280.22,520.4,1261.24,459.59Z"/>
    </g>
  </g>
</svg>
