<svg xmlns="http://www.w3.org/2000/svg" viewBox="0 0 1500 1000">
  <title>EH-Artboard 94</title>
  <g id="ElGanijj">
    <g>
      <path d="M668,524.29l-12.7,46.63q-20.5,12.71-41,25.64-37.35,24.9-37.36,33,0,14.9,30,26.12,21,7.58,21,21,0,51-42.83,109.86-45.78,63.22-94.72,63.23-56.29,0-56.3-72.51a200.39,200.39,0,0,1,16.63-79.59q11.75-27.58,39.14-67.14,37.42-54.43,45.25-67.62,14.43-24.42,31.55-81.55l3.91,1.71q-2.7,31.5-27.35,84.72-9.76,21-37.11,59.81-29.79,41.76-40,61.53-18.8,35.64-18.79,66.4,0,25.88,16.84,40.29Q480,809.21,506.35,809.2q24.17,0,66-39.91t41.87-61.4q0-5.86-13.19-10-18.3-5.62-24.17-9.77-13.17-9-13.18-27.34,0-61.77,28.32-84.23Q617.67,559,668,524.29Z"/>
      <path d="M719.48,726.93q-5.13,16.61-14.16,21l-85.45,42q3.9-15.15,23-24.66Z"/>
      <path d="M711.67,542.36q-17.82,9.28-29.54,9.28-10,0-14.16-2.69,19-26.12,19-44a42.58,42.58,0,0,0-.73-8.3q-13.68,15.63-26.86,30.77l-12.2,45.31,6.59-5.16q9.77,18,30.76,18,19.77,0,40.28-15l12.45-46.52Q727.54,533.81,711.67,542.36Z"/>
      <path d="M701.9,392.94q-1.95-6.58-9-10.74-6.58-3.17-13.18-6.1-18.32,26.61-22.46,34.67L679,425.9Q688.47,419.56,701.9,392.94Z"/>
      <path d="M794.43,163.45q-5.11,16.61-14.16,21l-85.45,42q3.91-15.13,22.95-24.66Z"/>
      <path d="M879.88,174.68q0,19-15.07,35.4t-34.17,16.36q-20.1,0-20.09-17.58,0-19.77,14-38.33,15.19-20.26,34.3-20.26,8.58,0,15.19,8.06A26.1,26.1,0,0,1,879.88,174.68ZM864,190.86q0-6-8-12.9T842.16,171q-7.38,0-13.39,6.7t-6,14.13q0,10.67,19.16,10.66Q864,202.51,864,190.86Z"/>
      <path d="M927,370.73q0,68.85-17.33,113.77-21,53.71-71.78,88.86l12.21-45.65q62.25-49.8,62.25-100.1,0-37.59-23.68-91.06-4.59,23.93-13.77,71.53-3.87,20.51-6.52,20.51l-2.17-.73-.49-3.18q0-19.77,10.21-74.22,10.71-58.83,18.49-67.62,13.37,8.3,23.58,40.28Q927,350.71,927,370.73Z"/>
      <path d="M974.85,163.45q-5.11,16.61-14.16,21l-85.45,42q3.91-15.13,23-24.66Z"/>
      <path d="M551.9,239q-4-5.28-9.64-5.28-12.46,0-25.41,12.13t-12.94,24.37l1,5.88a58.79,58.79,0,0,0,6.44,8.33q-29.1,17.14-57.44,24,8.31,4.89,14.44,4.88,15.65,0,51.87-23.92,15.66,6.84,25,7.08,3.92-12.5,3.67-15.69l-.25-3.67-7.3-5.39q14.65-15.45,14.65-21.57A18,18,0,0,0,551.9,239ZM533.53,267q-10.59-8.3-10.58-13.43,0-9,8.17-9,7.7,2.93,7.7,8.79Q538.82,258.91,533.53,267Z"/>
      <path d="M508.06,333.72q-9.53,0-9-11.4l.25-4.85-6.35,1.46q-18.07,28.85-29.3,28.85-7.81,0-7.81-9l1.71-10.91-5.06.49q-12,16.39-12,29.36l1.7,8.57q5.13,6.6,12.18,6.6,19,0,30.45-19.66,5.83,6.24,9.74,6.24,32.38,0,46-52.49l-6.11,1.45Q521.47,333.72,508.06,333.72Z"/>
      <path d="M790.77,381.71q0-4.63-6.08-7.81-3.41-4.39-16.05-8.54-19.95,29.53-22.37,34.42,14.34,10.26,21.88,14.89Q777.65,405.16,790.77,381.71Z"/>
      <path d="M784.42,517.53q24.18-26.28,24.17-40.4,0-15.58-28.56-15.58-40.77,0-49.56,9.48a136.16,136.16,0,0,0-7.81,16q-8.31,21.63-8.3,28.43Q718,514,730.06,514a16.93,16.93,0,0,1,12.28,5.38l-8.1,8.33L722,573.06q14-9.57,37.06-34.12,12.33,45.16,42.48,45.17,19.05,0,40.29-13.73l12.69-47.31q-22.69,20-42.23,20Q791,543.09,784.42,517.53Z"/>
      <path d="M1046.93,365.36a525.35,525.35,0,0,0-44.78-103q-15.09,45.41-15.09,136,0,48.82,8,50.29,5.54-2.69,5.54-28.08,0-13.66,6.28-60.54,12.27,23.19,26.52,62.25,16.2,44.68,16.2,63,0,25.63-15.38,50.78-9,14.9-33.45,42.24l-21.24,22.21Q967,613.9,961.67,624.88c.16,1.3,1,2,2.44,2s4.87-1,10.22-2.93q57-20.74,75.76-54.93,15.83-28.56,15.83-93.51Q1065.92,426.16,1046.93,365.36Z"/>
      <path d="M979.25,244q0-7.32-8.79-7.33-12.21,0-12.21-3.41,0-6.1,7.33-6.11a11.92,11.92,0,0,1,4.88,1q2.43-1.69,7-10.28t5.25-12.2a15,15,0,0,0-5.41-1.69Q967,204,953.45,221.8t-13.51,28.32q0,9.53,9.65,9.28c5.11-.16,7.92.24,8.41,1.22q-3.9,5.37-25.63,13.43L902.58,284.3q0,2.93,3.18,2.93,20.5,0,44.92-11.47Q979.24,262.08,979.25,244Z"/>
    </g>
  </g>
</svg>
