<svg xmlns="http://www.w3.org/2000/svg" viewBox="0 0 1500 1000">
  <title>EH-Artboard 103</title>
  <g id="ElWaris">
    <g>
      <path d="M246.17,236.08q0,18-16.4,39.52l7.47,7.31-8.54,24.15a168.14,168.14,0,0,1-16.12-12.73Q174.74,329.6,155,329.59q-3.92,0-13.43-2.93,29.78-14.4,62.25-38.09-9.61-9.27-9.62-16.35,0-12.69,13.86-29.67t26-17Q246.16,225.59,246.17,236.08ZM226.64,257.6q0-11.25-9.67-11.26l-3.72,1.47a10.94,10.94,0,0,0-2.73,7.34q0,4.91,11.65,14.45Q226.64,262,226.64,257.6Z"/>
      <path d="M648.27,769q-5.13,16.61-14.16,21l-85.45,42q3.9-15.13,23-24.66Z"/>
      <path d="M775.71,465.48q0,26.22-8.06,27.68l-6.59-8.05q-6.84.24-11.23,8.07-12,20.77-25.39,54.26-11,28.11-22,56-9.29,22-28.57,43.51-20.5,23-40.77,32-22.95,10.51-63.23,10.51-60.79,0-62.75-6.29l2.44-1.76q51.27,0,95.22-21.95,45.65-22.92,73.24-64.63,14.9-22.68,32-60.24l22.46-50.24q19.05-37.8,29.55-37.81,5.85,0,10,6.8A22.54,22.54,0,0,1,775.71,465.48Z"/>
      <path d="M923.9,493.16q0,64.95-15.64,93.51-18.78,34.19-75.91,54.93-8.05,2.92-10.26,2.93a2.12,2.12,0,0,1-2.44-1.95q5.37-11,17.82-24.42,10.75-11.22,21.25-22.21,24.4-27.35,33.44-42.24,15.39-25.14,15.38-50.78,0-18.31-16.2-63-14.25-39.06-26.52-62.25-6.27,46.88-6.27,60.54,0,25.39-5.55,28.08-8-1.47-8-50.29,0-90.58,15.09-136a524.76,524.76,0,0,1,44.78,103Q923.9,443.84,923.9,493.16Z"/>
      <path d="M983.23,327.64q-5.13,16.61-14.16,21l-85.45,42q3.9-15.13,23-24.66Z"/>
      <path d="M1156.57,541.75l-12.45,46.4q-15.63,12.47-56.4,29.82-8.17,36.42-39.06,78-32.24,43.51-64.46,57.45-27.09,11.73-68.11,11.74-15.63,0-46.39-5.2-36.62-5.93-37.84-12.61l1.95-1.48q7.34.24,23.2,2.93,15.13,2.43,23.43,2.44,16.84,0,49.32-9.52,70.56-20.76,122.31-81.79,18.08-21.24,20.51-37.11-21.24,5.87-28.56,5.86-22.21,0-22.22-14.65,0-15.37,12.45-38.81,13.92-26.13,27.59-26.13,11.94,0,21.35,9.28t9.41,21.24Q1133.63,562.26,1156.57,541.75Z"/>
      <path d="M1172.44,192.38q0,19.05-15.07,35.4t-34.18,16.36q-20.1,0-20.09-17.58,0-19.77,14-38.33,15.18-20.26,34.3-20.26,8.57,0,15.19,8.06A26.16,26.16,0,0,1,1172.44,192.38Zm-15.87,16.18q0-6-8-12.9t-13.87-6.94q-7.37,0-13.39,6.7t-6,14.13q0,10.66,19.15,10.66Q1156.57,220.21,1156.57,208.56Z"/>
      <path d="M1219.55,388.43q0,68.85-17.33,113.77-21,53.71-71.78,88.86l12.21-45.65q62.25-49.8,62.26-100.1,0-37.59-23.69-91.06-4.58,23.92-13.77,71.53-3.85,20.5-6.52,20.51l-2.17-.73-.48-3.18q0-19.77,10.21-74.22,10.69-58.83,18.48-67.62,13.37,8.29,23.59,40.28Q1219.55,368.41,1219.55,388.43Z"/>
      <path d="M1267.41,181.15q-5.13,16.6-14.16,21l-85.45,42q3.9-15.13,23-24.66Z"/>
      <path d="M367,413.85a100.94,100.94,0,0,1,21-22.72q15.63-12.47,24.17-12.47,6.35,0,8.3,5t3.91,5q5.87,0,15.38-13.5Q449,362.42,449.05,356q0-15-18.07-15-20.76,0-51,40.16-29.31,39.18-28.81,61.22Q359.21,428,367,413.85Z"/>
      <path d="M567,453.19q-29.79,33-59.33,66-65.43,71.36-100.1,100.18Q338,677.5,285,677.49q-40.28,0-65.18-25.78t-24.9-66.34q0-46.9,42.72-79.9,32.72-25.16,76.66-33.23,18.06-3.42,85.69-7.08,75.45-4.16,81.55-9l-.25-2.69H371.65q-49.56,0-77.63,6.84-39.56,9.75-67.63,37.34-49.56,48.09-49.56,119.11,0,43,28.81,71.76t71.53,28.81q64,0,135.74-63.23Q450,621.12,521.31,534.7q36.13-43.7,61.28-63.47,10.5-13.17,8.79-33.92Q569.17,451,567,453.19Z"/>
      <path d="M1271.8,261.72q0-7.32-8.79-7.33-12.21,0-12.21-3.41,0-6.1,7.33-6.11a11.88,11.88,0,0,1,4.88,1q2.45-1.69,7-10.28t5.25-12.2a15,15,0,0,0-5.4-1.69q-10.32,0-23.82,17.82t-13.51,28.32q0,9.53,9.66,9.28c5.11-.16,7.91.24,8.41,1.22q-3.91,5.37-25.64,13.43L1195.14,302c0,2,1,2.93,3.17,2.93q20.51,0,44.92-11.47Q1271.8,279.78,1271.8,261.72Z"/>
      <path d="M1339.49,383.06a525.38,525.38,0,0,0-44.79-103q-15.09,45.41-15.09,136,0,48.83,8,50.29,5.55-2.69,5.55-28.08,0-13.67,6.27-60.54,12.27,23.19,26.52,62.25,16.2,44.69,16.2,63,0,25.63-15.38,50.78-9,14.89-33.44,42.24l-21.24,22.21q-12.46,13.44-17.83,24.42a2.12,2.12,0,0,0,2.44,1.95q2.19,0,10.23-2.93,57-20.75,75.75-54.93,15.83-28.56,15.83-93.51Q1358.47,443.86,1339.49,383.06Z"/>
    </g>
  </g>
</svg>
