<svg xmlns="http://www.w3.org/2000/svg" viewBox="0 0 1500 1000">
  <title>EH-Artboard 44</title>
  <g id="ElHafiz">
    <g>
      <path d="M393.14,176.75q0,18.06-16.4,39.52l7.48,7.32-8.55,24.15A170.85,170.85,0,0,1,359.55,235q-37.85,35.26-57.62,35.26-3.92,0-13.43-2.93,29.79-14.4,62.26-38.08-9.63-9.28-9.62-16.36,0-12.69,13.85-29.66t26-17Q393.14,166.26,393.14,176.75Zm-19.53,21.53q0-11.26-9.67-11.27l-3.72,1.47a11,11,0,0,0-2.73,7.35q0,4.89,11.65,14.44C372.12,205.22,373.61,201.21,373.61,198.28Z"/>
      <path d="M549.8,442.87q3.41-5.37,10-17.58,0-7.56-22.46-16.35l-22.22,34.42,22,14.89Q543.2,453.12,549.8,442.87Z"/>
      <path d="M543,596.92Q506.24,617.44,494,620.85q37.3-31.74,51.45-82.52,4.88-17.58,4.88-23.68,0-9-2-14.16-15.33,0-68.61,31,4.81-8.06,12.54-42.48,7.47-33.43,7.48-44.92a484.74,484.74,0,0,0-4.4-61.77q-6.1-44.67-16.35-58.35-19.79,35.89-37.36,102.3-13.19,54.19-26.12,108.15l.5,2.2q5.76-1.47,9-10,2.44-9.27,3.42-14.16,17.58-65.19,35.16-120.36,5.35,9.53,11,42,5.13,29.79,5.13,44.44,0,26.85-13.49,65.67Q447.18,566.66,430,632.57q-37.11,18.7-66.4,23.87-33.21,4.92-50.78,7.13-6.1,1.75-8.06,5.5l1,2.24a195.6,195.6,0,0,0,36.62,3.25q43.45,0,77.39-5.61l-5.13,22,2,1.22q8.44-14.65,11.23-24.9Q539.2,641.41,577.05,614l12.45-46.14Q579.74,576.42,543,596.92Zm-73.44-20.14q13.43-12.07,53.23-24-8.31,40-80.57,73.73Q456.13,588.87,469.55,576.78Z"/>
      <path d="M567.21,680.66q-15.87,32.24-15.62,39.8,14.34-7.56,21.41-11.72,29.93-17.09,33.82-21,9-9,15.32-36.62-28.92,17.58-36.46,20.76Q571.58,678,567.21,680.66Z"/>
      <path d="M637.63,586.18q-17.83,9.29-29.54,9.28-10,0-14.16-2.69,18.93-26.12,18.94-43.94a43.22,43.22,0,0,0-.73-8.3q-13.6,15.63-26.72,30.76l-12.14,45.32,6.56-5.17q9.72,18,30.69,17.95,19.77,0,40.28-15l12.45-46.53Q653.5,577.64,637.63,586.18Z"/>
      <path d="M720.29,770.75q-5.13,16.61-14.16,21l-85.45,42q3.9-15.13,23-24.66Z"/>
      <path d="M730.3,406.49q0-3.66-9.75-9.76-4.39-2.69-12.68-6.84l-22.18,34.43,21.7,15.13Q717.62,431.65,730.3,406.49Z"/>
      <path d="M735.51,587.65q-30.24,0-38.76-12.45,33.54-38.58,33.55-62.26,0-31-14.12-31-6.81,0-20.43,10.76T670.44,524Q658,546,658,561.63a42.82,42.82,0,0,0,1,9.29l-12.45,46.93a308.81,308.81,0,0,0,27.83-22.35q14.88,17.44,23.44,23.82a51.83,51.83,0,0,0,31.25,10.32,92.94,92.94,0,0,0,51.75-15.42L793.53,567Q766.71,587.64,735.51,587.65Zm-53-31.15q-8.36-9.72-8.36-15.57,0-4.38,11.06-14.11t15.72-9.73q12.76,0,12.78,9.49Q713.7,540.44,682.5,556.5Z"/>
      <path d="M849.93,292.72q-5.13,16.61-14.16,21l-85.45,42q3.9-15.13,22.95-24.66Z"/>
      <path d="M999.07,568.55,986.61,615q-30,18.51-59.81,18.5-25.87,0-42-19-15.33-18-15.33-44.13,0-12.43,4.38-31.95-32.36,24.69-69.33,56.94-7.57,38.58-6.6,65l-2.19,4.15-1.22.73L793.29,664V633.47l2-30.27q-5.87,4.6-17.58,13.35l12.45-45.86,9-8.53q11.76-54.4,22-73.42,20.07-37.08,61.21-37.08,10.74,0,31.62,6.19T945.87,464a76.72,76.72,0,0,0,32.23-6.8q-4.4,23.44-15.63,39.32-49.31,10-75.43,33.21a112.67,112.67,0,0,0-1.74,19.78q0,18.81,13.91,30.28,12.94,10.74,32,10.75Q971,590.58,999.07,568.55Zm-106.66-72.2q-20.52-4.89-28.32-4.89-44.69,0-54.45,62.65,28.82-23.75,39.55-31.57Q872.14,505.65,892.41,496.35Z"/>
      <path d="M1025.46,218.51q0,19-15.06,35.4t-34.18,16.35q-20.1,0-20.09-17.57,0-19.78,14-38.33,15.2-20.27,34.3-20.27,8.58,0,15.19,8.06A26.15,26.15,0,0,1,1025.46,218.51Zm-15.87,16.17q0-5.94-8-12.89t-13.87-6.95q-7.38,0-13.39,6.7t-6,14.14q0,10.66,19.16,10.66Q1009.59,246.34,1009.59,234.68Z"/>
      <path d="M1072.58,414.55q0,68.85-17.33,113.77-21,53.71-71.78,88.87l12.21-45.66q62.25-49.8,62.25-100.09,0-37.6-23.68-91.07-4.59,23.92-13.77,71.53-3.87,20.52-6.52,20.51l-2.17-.73-.49-3.17q0-19.78,10.21-74.22,10.71-58.85,18.49-67.63,13.37,8.31,23.58,40.28Q1072.58,394.54,1072.58,414.55Z"/>
      <path d="M1120.43,207.28q-5.12,16.6-14.16,21l-85.45,42q3.91-15.13,22.95-24.65Z"/>
      <path d="M1124.83,287.84q0-7.32-8.79-7.32-12.21,0-12.21-3.42,0-6.11,7.33-6.1a11.91,11.91,0,0,1,4.88,1q2.43-1.7,7-10.27t5.25-12.21a15.23,15.23,0,0,0-5.41-1.69q-10.3,0-23.81,17.83T1085.52,294q0,9.51,9.65,9.27c5.11-.16,7.92.25,8.41,1.22q-3.9,5.38-25.63,13.43l-29.79,10.26q0,2.92,3.18,2.92,20.51,0,44.92-11.47Q1124.82,305.92,1124.83,287.84Z"/>
      <path d="M1192.51,409.18a524.76,524.76,0,0,0-44.78-103q-15.09,45.42-15.09,136,0,48.83,8,50.29,5.54-2.69,5.54-28.07,0-13.68,6.28-60.55,12.27,23.19,26.52,62.25,16.2,44.69,16.2,63,0,25.63-15.38,50.78-9,14.89-33.45,42.24l-21.24,22.22q-12.45,13.43-17.82,24.41c.16,1.31,1,1.95,2.44,1.95s4.87-1,10.23-2.93q57-20.75,75.75-54.93,15.82-28.56,15.83-93.5Q1211.5,470,1192.51,409.18Z"/>
    </g>
  </g>
</svg>
