<svg xmlns="http://www.w3.org/2000/svg" viewBox="0 0 1500 1000">
  <title>EH-Artboard 83</title>
  <g id="ElMuteali">
    <g>
      <path d="M497.8,524.29l-12.69,46.63q-20.5,12.71-41,25.64-37.35,24.9-37.35,33,0,14.9,30,26.12,21,7.58,21,21,0,51-42.83,109.86-45.78,63.22-94.72,63.23-56.29,0-56.29-72.51a200.22,200.22,0,0,1,16.63-79.59q11.74-27.58,39.13-67.14,37.43-54.43,45.25-67.62,14.43-24.42,31.55-81.55l3.91,1.71q-2.68,31.5-27.34,84.72-9.76,21-37.11,59.81-29.79,41.76-40,61.53-18.81,35.64-18.8,66.4,0,25.88,16.85,40.29,15.85,13.43,42.23,13.42,24.17,0,66-39.91t41.87-61.4q0-5.86-13.18-10-18.32-5.62-24.17-9.77-13.19-9-13.19-27.34,0-61.77,28.33-84.23Q447.5,559,497.8,524.29Z"/>
      <path d="M549.32,726.93q-5.13,16.61-14.16,21l-85.45,42q3.9-15.15,23-24.66Z"/>
      <path d="M565.92,370.73q0,68.85-17.34,113.77-21,53.71-71.77,88.86L489,527.71q62.26-49.8,62.26-100.1,0-37.59-23.68-91.06-4.59,23.93-13.77,71.53-3.87,20.51-6.52,20.51l-2.18-.73-.48-3.18q0-19.77,10.21-74.22,10.7-58.83,18.48-67.62,13.38,8.3,23.59,40.28Q565.92,350.71,565.92,370.73Z"/>
      <path d="M712.4,524.54,700,571.33q-19.53,13.27-39.55,13.26-27.58,0-37.84-30.94-5.62-17.4-6.59-53.77l-1.84-73.73q-2.07-83-2.07-84.48,0-3.17,5.89-20.75t8-20.5h1.44q.73,42.24,2.93,126.22.24,23.43,5.13,69.33,9.76,47.13,37.35,47.12Q693.36,543.09,712.4,524.54Z"/>
      <path d="M770.51,248.9q-5.13,16.61-14.16,21l-85.45,42q3.9-15.13,23-24.66Z"/>
      <path d="M830.57,523.07l-12.7,47.31q-21.24,13.73-40.28,13.73-30.15,0-42.48-45.17Q712,563.49,698,573.06l12.27-45.31,8.1-8.33A16.93,16.93,0,0,0,706.14,514q-12,0-15.71,1.46,0-6.79,8.3-28.43a137.77,137.77,0,0,1,7.81-16q8.79-9.48,49.56-9.48,28.57,0,28.57,15.58,0,14.12-24.17,40.4,6.59,25.56,27.83,25.56Q807.86,543.09,830.57,523.07Z"/>
      <path d="M886.47,163.45q-5.12,16.61-14.16,21l-85.44,42q3.9-15.13,22.94-24.66Z"/>
      <path d="M966.55,218.38q0,18-16.39,39.52l7.47,7.31-8.55,24.15A170.66,170.66,0,0,1,933,276.63q-37.85,35.26-57.62,35.26-3.9,0-13.42-2.93,29.77-14.4,62.25-38.09-9.61-9.27-9.62-16.35,0-12.69,13.85-29.67t26-17Q966.55,207.89,966.55,218.38ZM947,239.9q0-11.25-9.67-11.26l-3.71,1.47a10.94,10.94,0,0,0-2.73,7.34q0,4.91,11.65,14.45Q947,244.31,947,239.9Z"/>
      <path d="M1023.19,524.78l-12.45,46.42a36.06,36.06,0,0,1-19.28,5.58q-17.34,0-27.35-15.29-20.5,25.38-25.63,25.39-5.62,0-16.6-12.94-10.26-12-12.21-18.76-5.62,7.53-21,18l12.21-45.43q11.22-10.5,33.69-31.25,2.45,0,24.17,18.31t37.11,18.31A46.74,46.74,0,0,0,1023.19,524.78Z"/>
      <path d="M1050.05,174.68q0,19-15.07,35.4t-34.18,16.36q-20.09,0-20.09-17.58,0-19.77,14-38.33,15.18-20.26,34.3-20.26,8.57,0,15.19,8.06A26.1,26.1,0,0,1,1050.05,174.68Zm-15.87,16.18q0-6-8-12.9T1012.32,171q-7.37,0-13.38,6.7t-6,14.13q0,10.67,19.16,10.66Q1034.18,202.51,1034.18,190.86Z"/>
      <path d="M1097.17,370.73q0,68.85-17.34,113.77-21,53.71-71.77,88.86l12.2-45.65q62.27-49.8,62.26-100.1,0-37.59-23.68-91.06-4.59,23.93-13.77,71.53-3.87,20.51-6.52,20.51l-2.18-.73-.48-3.18q0-19.77,10.21-74.22,10.7-58.83,18.48-67.62,13.38,8.3,23.59,40.28Q1097.17,350.71,1097.17,370.73Z"/>
      <path d="M1145,163.45q-5.13,16.61-14.16,21l-85.45,42q3.9-15.13,22.95-24.66Z"/>
      <path d="M859.62,347.78q-30.76,19.77-55.18,29.78-15.87,30.76-15.38,39.8,12.9-6.84,19.22-10.5,31.88-17.82,35.28-21.24Q853.3,376.35,859.62,347.78Z"/>
      <path d="M849.19,551.64q-10,0-14.16-2.69,19-26.12,19-44a42.58,42.58,0,0,0-.73-8.3q-13.62,15.63-26.75,30.77l-12.16,45.31,6.56-5.16q9.74,18,30.71,18,19.77,0,40.28-15l12.46-46.52q-9.78,9.76-25.64,18.31Q860.91,551.65,849.19,551.64Z"/>
      <path d="M1217.1,365.36a525.35,525.35,0,0,0-44.78-103q-15.1,45.41-15.09,136,0,48.82,8,50.29,5.55-2.69,5.55-28.08,0-13.66,6.27-60.54,12.27,23.19,26.52,62.25,16.21,44.68,16.21,63,0,25.63-15.38,50.78-9,14.9-33.45,42.24l-21.24,22.21q-12.45,13.44-17.82,24.42a2.11,2.11,0,0,0,2.43,2q2.19,0,10.23-2.93,57-20.74,75.75-54.93,15.82-28.56,15.83-93.51Q1236.08,426.16,1217.1,365.36Z"/>
      <path d="M1149.41,244q0-7.32-8.78-7.33c-8.15,0-12.21-1.13-12.21-3.41q0-6.1,7.32-6.11a12,12,0,0,1,4.89,1q2.43-1.69,6.95-10.28t5.25-12.2a15,15,0,0,0-5.4-1.69q-10.32,0-23.82,17.82t-13.5,28.32q0,9.53,9.65,9.28c5.11-.16,7.91.24,8.41,1.22q-3.92,5.37-25.63,13.43l-29.79,10.25q0,2.93,3.17,2.93,20.52,0,44.93-11.47Q1149.41,262.08,1149.41,244Z"/>
    </g>
  </g>
</svg>
