<svg xmlns="http://www.w3.org/2000/svg" viewBox="0 0 1000 1000">
  <title>EH-Artboard 2</title>
  <g id="ArRahmaan">
    <g>
      <path d="M115,286q0,19.85-18,43.44l8.21,8L95.81,364a187.18,187.18,0,0,1-17.72-14q-41.6,38.76-63.33,38.75-4.3,0-14.76-3.22,32.73-15.82,68.43-41.86-10.58-10.19-10.58-18,0-13.95,15.23-32.6t28.57-18.65Q115,274.46,115,286ZM93.54,309.65q0-12.37-10.62-12.38l-4.09,1.61a12.07,12.07,0,0,0-3,8.08q0,5.39,12.81,15.87Q93.54,314.51,93.54,309.65Z"/>
      <path d="M288.63,554.88l-13.69,50.85q-27.1,20.29-44,18.91l-5.09,23.7q-9.37,43.6-43.67,87.5-39.12,50.07-78,50.08-49,0-49-59.41,0-34.41,25.77-92.47-34.62,1.35-55,35.15l-1.61.54-1.61-1.62q0-26.91,22.54-54.37,23.61-29.07,49.68-29.08,11.82,0,11.82,10.48,0,10.23-14.92,44.63T76.91,691.92q0,20.16,12,32.39T121,736.54q24.47,0,53.24-27.37,27.16-25.75,33.61-50.71a130.34,130.34,0,0,0,4.57-32.21q0-17.16-13.18-30.32-.54-17.71,20.77-48.84,8,3.49,19.78,34.35Q258.84,581.44,288.63,554.88Z"/>
      <path d="M350.35,252.46q-5.64,18.24-15.57,23.07l-93.92,46.16q4.29-16.63,25.23-27.11Z"/>
      <path d="M418.24,555.68l-13.69,51a39.64,39.64,0,0,1-21.2,6.14q-19.05,0-30.05-16.81-22.55,27.9-28.18,27.9-6.18,0-18.25-14.22-11.26-13.14-13.41-20.62-6.18,8.28-23.08,19.74L283.8,558.9q12.33-11.53,37-34.35,2.67,0,26.56,20.13t40.79,20.12A51.41,51.41,0,0,0,418.24,555.68Z"/>
      <path d="M447.75,264.8q0,20.93-16.56,38.91t-37.56,18q-22.1,0-22.08-19.32,0-21.74,15.34-42.13Q403.59,238,424.6,238q9.42,0,16.69,8.86A28.73,28.73,0,0,1,447.75,264.8Zm-17.44,17.78q0-6.54-8.77-14.18t-15.25-7.63q-8.1,0-14.71,7.36T385,283.67q0,11.73,21.06,11.72Q430.3,295.39,430.31,282.58Z"/>
      <path d="M614.39,405.14q0,6.44-3.62,21.2t-6.57,19.32a313.94,313.94,0,0,0-86.41,55.28q-36.5,36.23-72.72,72.45v6.44q-.27,9.66,5.9,66.55V648a4.61,4.61,0,0,1-1.61,3.22l-1.87-.8a475.33,475.33,0,0,1-12.62-67.9,288.18,288.18,0,0,1-33,26l13.68-50.44,16.91-14.23-.27-15.29q0-5.1,5.21-35.15,7.39-42.14,25.11-59.31,19.32-19,60.92-19.05a124.66,124.66,0,0,1,15.83,1.48A124.08,124.08,0,0,0,555.09,418q32.73,0,59-15.83ZM525,458.54q-32.47.54-44.55,4.56-21.19,6.72-30.59,30.06-6.7,16.63-6.71,31.93v10.2Q457.14,524,484,496.65,509.73,470.36,525,458.54Z"/>
      <path d="M624.05,344q-10.2,0-10.19-19.59L607.42,326q-20.4,35.7-33,35.69-9.39,0-9.39-12.61l.8-8.32-9.39,5.1q-7.51,20.43-7.51,27.75,0,15.18,15.6,15.18,18,0,34.16-23.25,9.69,6.89,15.87,6.88,19.38,0,32-23.34,9.4-17.18,12.1-40.25l-8.32,2.41Q639.61,344,624.05,344Z"/>
      <path d="M665.38,282.78,588.9,309.61q-18,6.18-29.78,24.69l87.74-31.13Q657.59,299.42,665.38,282.78Z"/>
      <path d="M766.54,555.14l-13.95,51.79q-33.29,19.32-46.42,28.18Q674.78,656,667.79,669.73q-21.46,46.42-42.93,92.57-31.14,59-64.94,70.36-25.75,8.8-56.62,8.8-62,0-79.7-10.45l-.8-1.35,2.14-2.42a179.31,179.31,0,0,0,35.16,3.22q49.38,0,93.38-31.66,38.91-28.45,65.74-75.14,1.88-3.48,25.5-50.45,15.28-30.59,29.65-47.89t45.48-36.63Q754.47,567.22,766.54,555.14Z"/>
      <path d="M847.31,386.36q0,75.67-19,125-23.09,59-78.89,97.68l13.42-50.18q68.41-54.74,68.42-110,0-41.31-26-100.09-5,26.31-15.13,78.62Q785.79,450,782.89,450l-2.4-.8-.53-3.49q0-21.74,11.22-81.57Q803,299.43,811.5,289.75q14.7,9.13,25.93,44.28Q847.3,364.36,847.31,386.36Z"/>
      <path d="M899.91,158.54q-5.64,18.26-15.57,23.07l-93.91,46.16q4.27-16.64,25.22-27.1Z"/>
      <path d="M904.74,247.09q0-8.06-9.66-8.05-13.43,0-13.42-3.76,0-6.71,8.05-6.71a13.17,13.17,0,0,1,5.37,1.08q2.67-1.87,7.65-11.3t5.77-13.41c-2.7-1.24-4.69-1.86-5.94-1.86q-11.34,0-26.18,19.59T861.54,253.8c0,7,3.53,10.38,10.6,10.19,5.62-.17,8.7.27,9.25,1.35q-4.3,5.9-28.18,14.75l-32.74,11.27q0,3.22,3.49,3.22,22.54,0,49.38-12.61Q904.73,267,904.74,247.09Z"/>
      <path d="M979.13,380.45a576.84,576.84,0,0,0-49.22-113.24q-16.59,49.92-16.58,149.47,0,53.67,8.74,55.28,6.09-3,6.1-30.86,0-15,6.89-66.55,13.5,25.5,29.15,68.43Q982,492.09,982,512.21q0,28.17-16.9,55.81-9.95,16.38-36.77,46.43L905,638.87q-13.69,14.76-19.59,26.83c.17,1.44,1.06,2.15,2.67,2.15s5.36-1.08,11.25-3.22q62.64-22.8,83.26-60.38,17.4-31.39,17.4-102.77Q1000,447.27,979.13,380.45Z"/>
    </g>
  </g>
</svg>
