<svg xmlns="http://www.w3.org/2000/svg" viewBox="0 0 1500 1000">
  <title>EH-Artboard 17</title>
  <g id="ElHalik">
    <g>
      <path d="M400.58,176.75q0,18.06-16.39,39.52l7.47,7.32-8.55,24.15A169.51,169.51,0,0,1,367,235q-37.85,35.26-57.62,35.26-3.92,0-13.43-2.93,29.78-14.4,62.25-38.08-9.61-9.28-9.62-16.36,0-12.69,13.85-29.66t26-17Q400.57,166.26,400.58,176.75Zm-19.53,21.53q0-11.26-9.66-11.27l-3.72,1.47a11,11,0,0,0-2.73,7.35q0,4.89,11.65,14.44C379.57,205.22,381.05,201.21,381.05,198.28Z"/>
      <path d="M562.69,567.89,550.24,614a111.55,111.55,0,0,1-26.61,14.16Q521.44,666.56,481.4,723q-42.48,60.4-77.64,60.41-45.4,0-45.41-69.22,0-27.13,6.83-48.66,3.92-11.75,3.91-16.39,0-5.86-7.32-5.87-10.75,0-28.32,19.09-14.65,15.68-21.73,29.38l-2,1.47-1.95-1.71a141.56,141.56,0,0,1,8.55-34.63q.48-1.45,12.45-18.53,23.67-34.12,43-34.13,13.88,0,13.87,17.09,0,13.42-7.08,39.55t-6.83,39.79q0,36.14,36.86,36.14,30.53,0,60.06-34.26,25.88-30.09,34.42-63.37Q474.56,650.41,467,650.41a13,13,0,0,1-8.91-3.66,11.21,11.21,0,0,1-4-8.55q0-50.28,27-64.45,2.91-.24,5.1-.24,14.85,0,30.17,21.72Q534.62,589.14,562.69,567.89Z"/>
      <path d="M621,770.75q-5.12,16.61-14.16,21l-85.45,42q3.92-15.13,23-24.66Z"/>
      <path d="M637.65,414.55q0,68.85-17.34,113.77-21,53.71-71.78,88.87l12.21-45.66Q623,521.73,623,471.44q0-37.6-23.68-91.07-4.59,23.92-13.78,71.53-3.85,20.52-6.51,20.51l-2.18-.73-.48-3.17q0-19.78,10.21-74.22,10.7-58.85,18.48-67.63,13.38,8.31,23.59,40.28Q637.64,394.54,637.65,414.55Z"/>
      <path d="M784.13,568.36l-12.45,46.8q-19.53,13.26-39.55,13.26-27.6,0-37.84-30.95-5.62-17.38-6.6-53.77L685.86,470q-2.08-83-2.07-84.47,0-3.18,5.88-20.75t8.06-20.51h1.44q.74,42.24,2.93,126.22.24,23.43,5.13,69.33,9.75,47.13,37.35,47.12Q765.09,586.91,784.13,568.36Z"/>
      <path d="M842.24,292.72q-5.13,16.61-14.16,21l-85.45,42q3.9-15.13,23-24.66Z"/>
      <path d="M874.37,366.94q0-3.9-9.53-9.76-4.64-2.69-12.93-6.59-20.52,30.75-22.47,34.66a212.72,212.72,0,0,0,21.73,14.65Q862.65,390.14,874.37,366.94Z"/>
      <path d="M923.5,590.58q-19,0-32-10.75-13.92-11.48-13.91-30.28a112.67,112.67,0,0,1,1.73-19.78q26.13-23.21,75.44-33.21,11.24-15.87,15.63-39.32a76.72,76.72,0,0,1-32.23,6.8q-11,0-31.86-6.19t-31.63-6.19q-41.13,0-61.2,37.08-10.29,19-22,73.42l-9,8.53L770,616.55q11.71-8.73,17.58-13.35l-2,30.27V664l1.23,1.22,1.22-.73,2.19-4.15q-1-26.37,6.6-65,37-32.25,69.33-56.94-4.38,19.51-4.38,31.95,0,26.08,15.33,44.13,16.13,19,42,19,29.77,0,59.81-18.5l12.46-46.49Q963.3,590.59,923.5,590.58Zm-82-68q-10.74,7.83-39.55,31.57,9.76-62.65,54.45-62.65,7.8,0,28.32,4.89Q864.44,505.65,841.5,522.54Z"/>
      <path d="M1018,218.51q0,19-15.07,35.4t-34.18,16.35q-20.09,0-20.09-17.57,0-19.78,14-38.33,15.18-20.27,34.3-20.27,8.56,0,15.19,8.06A26.15,26.15,0,0,1,1018,218.51Zm-15.87,16.17q0-5.94-8-12.89t-13.87-6.95q-7.37,0-13.39,6.7t-6,14.14q0,10.66,19.15,10.66Q1002.15,246.34,1002.15,234.68Z"/>
      <path d="M1065.14,414.55q0,68.85-17.34,113.77Q1026.8,582,976,617.19l12.21-45.66q62.26-49.8,62.26-100.09,0-37.6-23.68-91.07-4.59,23.92-13.78,71.53-3.85,20.52-6.51,20.51l-2.18-.73-.48-3.17q0-19.78,10.21-74.22,10.7-58.85,18.48-67.63,13.38,8.31,23.59,40.28Q1065.13,394.54,1065.14,414.55Z"/>
      <path d="M1113,207.28q-5.13,16.6-14.16,21l-85.45,42q3.9-15.13,22.95-24.65Z"/>
      <path d="M1117.38,287.84q0-7.32-8.79-7.32-12.21,0-12.2-3.42,0-6.11,7.32-6.1a11.88,11.88,0,0,1,4.88,1q2.45-1.7,7-10.27t5.25-12.21a15.25,15.25,0,0,0-5.4-1.69q-10.32,0-23.82,17.83T1078.08,294q0,9.51,9.65,9.27,7.66-.24,8.41,1.22-3.92,5.38-25.64,13.43l-29.78,10.26c0,1.95,1,2.92,3.17,2.92q20.5,0,44.92-11.47Q1117.38,305.92,1117.38,287.84Z"/>
      <path d="M1185.07,409.18a525.35,525.35,0,0,0-44.78-103q-15.11,45.42-15.1,136,0,48.83,8,50.29,5.55-2.69,5.55-28.07,0-13.68,6.27-60.55,12.27,23.19,26.52,62.25,16.2,44.69,16.2,63,0,25.63-15.38,50.78-9,14.89-33.44,42.24l-21.24,22.22q-12.45,13.43-17.83,24.41c.16,1.31,1,1.95,2.44,1.95s4.87-1,10.23-2.93q57-20.75,75.75-54.93,15.83-28.56,15.83-93.5Q1204.05,470,1185.07,409.18Z"/>
    </g>
  </g>
</svg>
