<svg xmlns="http://www.w3.org/2000/svg" viewBox="0 0 1500 1000">
  <title>EH-Artboard 79</title>
  <g id="ElAahir">
    <g>
      <path d="M549.56,303.21q0,18.06-16.39,39.53l7.47,7.31-8.55,24.15A170.66,170.66,0,0,1,516,361.47q-37.85,35.26-57.62,35.26-3.9,0-13.43-2.93,29.79-14.4,62.26-38.09-9.63-9.27-9.62-16.35,0-12.71,13.85-29.67t26-17Q549.56,292.72,549.56,303.21ZM530,324.74q0-11.26-9.67-11.26L516.64,315a10.93,10.93,0,0,0-2.72,7.34q0,4.9,11.65,14.45Q530,329.15,530,324.74Z"/>
      <path d="M642.82,548.1l-12.69,47.11q-30.28,17.58-42.24,25.64-28.56,19-34.91,31.49-19.53,42.24-39.06,84.23-28.33,53.71-59.09,64-23.43,8-51.51,8-56.4,0-72.51-9.51l-.73-1.23,1.95-2.2a162.77,162.77,0,0,0,32,2.93q44.92,0,85-28.8,35.4-25.89,59.82-68.36,1.71-3.18,23.19-45.9,13.92-27.84,27-43.58t41.38-33.33Q631.84,559.08,642.82,548.1Z"/>
      <path d="M699.71,775.15q-5.13,16.59-14.16,21l-85.45,42Q604,823,623.05,813.48Z"/>
      <path d="M1022.46,186.28q0,19-15.07,35.4T973.22,238q-20.1,0-20.09-17.58,0-19.77,14-38.33,15.18-20.26,34.3-20.26,8.58,0,15.19,8A26.15,26.15,0,0,1,1022.46,186.28Zm-15.87,16.18q0-6-8-12.9t-13.88-6.94q-7.37,0-13.38,6.69t-6,14.14q0,10.67,19.16,10.66Q1006.59,214.11,1006.59,202.46Z"/>
      <path d="M1078.86,187.26q-5.13,16.61-14.16,21l-85.45,42q3.9-15.13,23-24.65Z"/>
      <path d="M666.75,570.56V564.7q33-33,66.16-65.92a285.36,285.36,0,0,1,78.61-50.29q2.68-4.15,6-17.58t3.3-19.29l-.24-2.68q-23.94,14.4-53.71,14.4A113.34,113.34,0,0,1,752.44,422a111.94,111.94,0,0,0-14.4-1.35q-37.85,0-55.42,17.34-16.12,15.63-22.85,53.95-4.74,27.35-4.74,32l.24,13.91-15.38,12.94-12.45,45.9a262.43,262.43,0,0,0,30-23.68A432.56,432.56,0,0,0,669,634.77l1.7.73a4.23,4.23,0,0,0,1.47-2.93V631.1Q666.5,579.35,666.75,570.56ZM665,520.75a77.54,77.54,0,0,1,6.1-29.05q8.55-21.24,27.83-27.34,11-3.67,40.53-4.15Q725.58,471,702.15,494.87,677.73,519.77,665,530Z"/>
      <path d="M721.19,320.31q0-4.4-9.52-10A102.67,102.67,0,0,0,698.49,304q-15.15,21.72-22,34.17,14.41,10.26,21.73,15.14Q710.69,340.82,721.19,320.31Z"/>
      <path d="M892.09,310.3a59.73,59.73,0,0,1,7.57.74,61,61,0,0,0,7.57.73q19,0,39.91-19.9T970.46,252l-3.42.24Q952.4,271,945.8,276.85,929,291.49,909.18,291.26q-9.52,0-12.57-.24c-2-.16-3.63-.25-4.76-.25q-8.79,0-21.49,14.32a112.58,112.58,0,0,0-16.11,22.82l4.64,2.18Q878.66,310.3,892.09,310.3Z"/>
      <path d="M976.66,325.7q-27.93,85.51-27.93,183.73c0,2.28.81,3.42,2.44,3.42q3.66,0,6.11-16.13,1.22-10.74,2.44-21.25,3.9-28.1,16.35-82.59,23.68,25.9,23.69,73.55a207.2,207.2,0,0,1-4.4,41.53q-6.84,34-31.25,75.25-29.29,50.1-55.42,50.09-18.32,0-33.45-26.63,49.32-85,49.32-180.56,0-21.24-11.47-99.43l-3.91-2.94-2.2,2q-1,10.74-12.65,36.39l-17.51,37.14q-36.5,82.56-36.49,146.82,0,36.65,2.93,53.25-66.16,69.87-142.09,96.5L697,700.2v1.22l2.2,1q14.16,0,45.41-8.3,71-18.8,110.12-60.06,12.72,25,23.47,35.72,16.14,16.05,38.63,16,24.69,0,56.23-66.65,24.69-51.75,33.74-92.28,12.46-55.67,12.47-79.35,0-63-33.08-136.72Q981.56,310.79,976.66,325.7ZM855.71,534.84q0-45.2,41-130.71,11,27.36,11,50.33,0,63-44.92,121.18A129,129,0,0,1,855.71,534.84Z"/>
      <path d="M1150.94,389.16a525.35,525.35,0,0,0-44.78-103q-15.11,45.42-15.1,136,0,48.83,8,50.29,5.55-2.69,5.55-28.07,0-13.68,6.27-60.55Q1123.11,407,1137.36,446q16.2,44.68,16.2,63,0,25.63-15.38,50.78-9,14.9-33.44,42.24l-21.24,22.22q-12.45,13.43-17.83,24.41c.16,1.31,1,2,2.44,2s4.87-1,10.23-2.92q57-20.76,75.75-54.94,15.83-28.56,15.83-93.5Q1169.92,450,1150.94,389.16Z"/>
      <path d="M1083.25,267.82q0-7.32-8.79-7.32-12.21,0-12.2-3.42,0-6.1,7.32-6.1a11.88,11.88,0,0,1,4.88,1q2.44-1.69,7-10.27t5.25-12.21a15.25,15.25,0,0,0-5.4-1.69q-10.32,0-23.82,17.83T1044,273.93q0,9.51,9.65,9.27,7.67-.24,8.41,1.22-3.91,5.38-25.64,13.43l-29.78,10.26c0,1.95,1,2.93,3.17,2.93q20.5,0,44.92-11.48Q1083.26,285.9,1083.25,267.82Z"/>
    </g>
  </g>
</svg>
