<svg xmlns="http://www.w3.org/2000/svg" viewBox="0 0 1500 1000">
  <title>EH-Artboard 80</title>
  <g id="EzZahir">
    <g>
      <path d="M494,307.24q0,18.06-16.4,39.52l7.48,7.32-8.55,24.15a169.39,169.39,0,0,1-16.12-12.73q-37.85,35.25-57.62,35.26-3.92,0-13.43-2.93,29.79-14.4,62.26-38.09Q442,350.47,442,343.38q0-12.69,13.85-29.66t26-17Q494,296.75,494,307.24Zm-19.53,21.53q0-11.26-9.67-11.27L461.1,319a11,11,0,0,0-2.73,7.35q0,4.9,11.65,14.45Q474.49,333.18,474.49,328.77Z"/>
      <path d="M587.28,552.12l-12.7,47.12q-30.27,17.58-42.23,25.64-28.56,19-34.91,31.49-19.54,42.24-39.07,84.23-28.32,53.71-59.08,64-23.43,8-51.51,8-56.4,0-72.51-9.51l-.73-1.23,1.95-2.2a162.7,162.7,0,0,0,32,2.93q44.92,0,85-28.81,35.4-25.87,59.82-68.36,1.69-3.16,23.19-45.89,13.92-27.84,27-43.58t41.38-33.33Q576.3,563.11,587.28,552.12Z"/>
      <path d="M644.17,779.17q-5.13,16.61-14.17,21l-85.44,42q3.9-15.13,22.94-24.66Z"/>
      <path d="M703,415.72q0,51.93-38.65,92.95-14.93,15.87-24,19-4.65,24.9-68.43,72.75l12.45-45.89a155.35,155.35,0,0,0,21-20,21.05,21.05,0,0,1-3.72-12.7q0-20,14-49.8,15.69-33.71,32.6-33.7,6.87,0,11.52,11.23a44.69,44.69,0,0,1,3.93,17.34l-6.19,22.95q9.71-6.35,18-18.07,9-12.93,9-23.44a57.44,57.44,0,0,0-8.06-29.4q-9.28-15.76-23.92-15.76-17.34,0-35.89,23.19-16.37,20.76-20.27,40-1.95,13.19-6.59,39.55l-1.71.25a142.18,142.18,0,0,1-.73-15.87q0-41.76,20.55-81.79,24.46-47.85,61.9-47.85Q703,360.72,703,415.72ZM645.87,497q0-5.86-4.23-11.84t-9.8-6q-4.11,0-8.22,5.25T619.51,494q0,11.48,10.64,11.47Q638.13,505.49,645.87,497Z"/>
      <path d="M848.27,552.37l-12.45,46.8q-19.55,13.26-39.56,13.26-27.59,0-37.84-30.95-5.61-17.38-6.59-53.77L750,454q-2.07-83-2.07-84.47,0-3.18,5.89-20.76t8.05-20.5h1.45q.72,42.24,2.93,126.22.24,23.43,5.12,69.33,9.76,47.13,37.36,47.12Q829.22,570.92,848.27,552.37Z"/>
      <path d="M1086.55,398.56q0,68.85-17.34,113.77-21,53.71-71.77,88.87l12.2-45.66q62.27-49.8,62.26-100.1,0-37.59-23.68-91.06-4.59,23.92-13.77,71.53-3.87,20.5-6.52,20.51l-2.18-.73-.48-3.18q0-19.77,10.21-74.21,10.69-58.85,18.48-67.63,13.38,8.29,23.59,40.28Q1086.55,378.55,1086.55,398.56Z"/>
      <path d="M1134.4,191.28q-5.13,16.6-14.16,21l-85.45,42q3.9-15.14,23-24.66Z"/>
      <path d="M852,233.12q8.81,6.25,14.44,6.26,17.63,0,29.12-21.24,8.56-15.62,11-36.62l-7.57,2.2q-9.76,29.79-23.93,29.78-9.29,0-9.28-17.82L860,197.14q-18.57,32.48-30,32.47-8.55,0-8.55-11.47l.73-7.57-8.54,4.64q-6.84,18.6-6.84,25.25,0,13.81,14.2,13.81Q837.36,254.27,852,233.12Z"/>
      <path d="M912.72,157.84l-69.58,24.41q-16.36,5.63-27.1,22.46l79.83-28.32Q905.64,173,912.72,157.84Z"/>
      <path d="M958.13,575.56q-18.55,0-33-6.1-19-8.06-19-23.93,32.13-28.56,42.11-40.28,17.52-20.5,30.19-50.29,11.19-26.61,11.19-30.28,0-8.54-10.49-8.54-15.63,0-48.59,17.74-28.56,15.54-44.92,29.4,16.78-70.23,16.79-98.76,0-59-19.23-79.25-6.6-7.06-9.77-7.32-15.87,8.79-29.54,43.91-11.24,28.53-14.4,53.17l2.2,2.19,2-1.47q22.7-57.75,30.52-58,21.24,11,21.24,86.21,0,37.37-29.79,142.86l-9.28,8.55-12.2,45.18q11.71-8,17.82-12.62l1.51,18.93,1.51,1a93.68,93.68,0,0,0,5-25.31Q880.57,567,891.48,558q4.21,24.33,19.53,39.4,16.11,16.3,40,16.3,26.12,0,50.05-15.33l12.45-46.24q-9.28,9.3-25.88,16.39T958.13,575.56Zm-92.58-35.47,10-36.94Q891,488,917.82,472.08q31-18.1,47.39-18.1l1.71,2.69q-.25,11.74-43.72,43.79Z"/>
      <path d="M995.48,326.12q0-7.83-22.21-16.62-16.6,22-22.46,34.7l21.72,15.16Q983.77,347.63,995.48,326.12Z"/>
      <path d="M1206.48,393.19a525.35,525.35,0,0,0-44.78-103q-15.1,45.4-15.09,136,0,48.83,8,50.29,5.55-2.69,5.55-28.08,0-13.67,6.27-60.54,12.27,23.19,26.52,62.25,16.21,44.69,16.21,63,0,25.63-15.38,50.78-9,14.89-33.45,42.24L1139,628.3q-12.45,13.43-17.82,24.41a2.11,2.11,0,0,0,2.43,1.95q2.19,0,10.23-2.93,57-20.75,75.75-54.93,15.82-28.56,15.83-93.5Q1225.46,454,1206.48,393.19Z"/>
      <path d="M1138.79,271.85q0-7.32-8.79-7.32-12.21,0-12.2-3.42,0-6.1,7.32-6.11a11.88,11.88,0,0,1,4.88,1q2.45-1.69,7-10.27t5.25-12.21a15.19,15.19,0,0,0-5.4-1.69q-10.32,0-23.82,17.82T1099.49,278q0,9.53,9.65,9.28,7.66-.24,8.41,1.22-3.91,5.37-25.63,13.43l-29.79,10.25c0,2,1.06,2.93,3.17,2.93q20.52,0,44.93-11.47Q1138.79,289.93,1138.79,271.85Z"/>
    </g>
  </g>
</svg>
