<svg xmlns="http://www.w3.org/2000/svg" viewBox="0 0 1500 1000">
  <title>EH-Artboard 23</title>
  <g id="ErRezak">
    <g>
      <path d="M375.44,179.31q0,18.06-16.4,39.52l7.48,7.32L358,250.3a170.66,170.66,0,0,1-16.12-12.73Q304,272.82,284.23,272.83q-3.92,0-13.43-2.93,29.79-14.4,62.26-38.09-9.63-9.27-9.62-16.36,0-12.69,13.85-29.66t26-17Q375.44,168.82,375.44,179.31Zm-19.53,21.53q0-11.26-9.67-11.26L342.52,191a11,11,0,0,0-2.73,7.35q0,4.91,11.65,14.45Q355.91,205.25,355.91,200.84Z"/>
      <path d="M532.18,325.07q-3.91,25.17-49.32,72.11-33.69,32-67.38,64.3-31,29.83-61.28,73.59-38.08,55.5-38.09,86.3,0,65.52,57.13,65.52,37.35,0,78.37-51.1,39.06-48.9,39.06-87.78,0-16.38-12-24.94-15.87,27.6-35.64,27.59-21.74,0-21.73-25.39l10.22-34.91q8-27.35,31.16-27.35,13.39,0,25.81,12.94,17,17.82,17,60.3,0,58.11-43.22,120.85Q415.72,725,360.79,725q-55.67,0-55.66-84.25,0-78.37,98.08-178.74,10.26-10.5,53-49.57,33.19-30,50.54-51.53-9.78,0-31.38,5.16t-30.88,5.17a38.21,38.21,0,0,1-6.35-.5q1.71-4.41,23.93-35.64Q517.78,325.08,532.18,325.07Z"/>
      <path d="M668.65,521.85q0,64.95-15.63,93.51-18.79,34.18-75.92,54.93-8.05,2.93-10.26,2.93a2.12,2.12,0,0,1-2.44-2q5.37-11,17.83-24.41,10.74-11.22,21.24-22.22,24.4-27.33,33.44-42.23,15.39-25.14,15.38-50.78,0-18.32-16.2-63-14.25-39.06-26.52-62.26-6.27,46.88-6.27,60.55,0,25.4-5.55,28.08-7.95-1.47-8-50.3,0-90.57,15.1-136a525.26,525.26,0,0,1,44.78,103Q668.65,472.54,668.65,521.85Z"/>
      <path d="M734.33,322.88l-69.58,24.41q-16.37,5.63-27.1,22.46l79.83-28.32Q727.25,338,734.33,322.88Z"/>
      <path d="M696.73,378.54q-9.29,0-9.28-17.82l-5.86,1.46q-18.55,32.47-30,32.47-8.55,0-8.54-11.47l.73-7.57-8.55,4.64q-6.83,18.6-6.83,25.25,0,13.81,14.19,13.81,16.41,0,31.09-21.15,8.8,6.25,14.43,6.26,17.63,0,29.13-21.24,8.56-15.63,11-36.62l-7.57,2.19Q710.89,378.54,696.73,378.54Z"/>
      <path d="M836.13,366.82q0-4.4-6.59-7.81-9.52-6.35-16.11-8.55-20,29.79-22,34.43l21.73,14.89Q828.57,380.25,836.13,366.82Z"/>
      <path d="M852.73,478.36q-4.15-6.8-10-6.8-12.21,0-33.44,47.07-11.24,26.1-22.71,52.19-13.68,30.24-27.83,49.27-64.22,86.32-168.46,86.33l-2.44,1.76q2,6.3,62.74,6.3,60.3,0,94.49-31.05,24.4-22.48,45.9-74.79,30.51-74.31,39.55-90.44,4.4-7.82,11.23-8.07l6.59,8.06q8.05-1.46,8.06-27.69A22.52,22.52,0,0,0,852.73,478.36Z"/>
      <path d="M924.75,322.88l-69.58,24.41q-16.35,5.63-27.09,22.46l79.83-28.32Q917.68,338,924.75,322.88Z"/>
      <path d="M887.16,378.54q-9.28,0-9.28-17.82L872,362.18q-18.56,32.47-30,32.47-8.55,0-8.54-11.47l.73-7.57-8.55,4.64q-6.82,18.6-6.83,25.25,0,13.81,14.19,13.81,16.41,0,31.08-21.15,8.82,6.25,14.44,6.26,17.63,0,29.13-21.24,8.57-15.63,11-36.62l-7.57,2.19Q901.32,378.54,887.16,378.54Z"/>
      <path d="M1016.8,570.68l-12.7,47.12q-30.27,17.58-42.24,25.63Q933.3,662.48,927,674.93q-19.53,42.24-39.06,84.23-28.32,53.7-59.08,64-23.44,8-51.52,8-56.38,0-72.51-9.51l-.73-1.24,2-2.19a163.39,163.39,0,0,0,32,2.93q44.93,0,85-28.81,35.4-25.89,59.81-68.36,1.71-3.16,23.2-45.9,13.9-27.83,27-43.58t41.39-33.32Q1005.8,581.67,1016.8,570.68Z"/>
      <path d="M1090.28,417.11q0,68.85-17.33,113.77-21,53.72-71.78,88.87l12.21-45.65q62.25-49.82,62.25-100.1,0-37.59-23.68-91.07-4.59,23.94-13.77,71.54-3.87,20.5-6.52,20.51l-2.17-.74-.49-3.17q0-19.77,10.22-74.22,10.69-58.83,18.48-67.63,13.36,8.31,23.58,40.29Q1090.28,397.1,1090.28,417.11Z"/>
      <path d="M1138.13,209.84q-5.12,16.6-14.16,21l-85.45,42q3.92-15.13,23-24.66Z"/>
      <path d="M1142.53,290.41q0-7.34-8.79-7.33-12.21,0-12.21-3.42,0-6.09,7.33-6.1a11.92,11.92,0,0,1,4.88,1q2.43-1.71,7-10.28t5.25-12.2a15,15,0,0,0-5.41-1.69q-10.3,0-23.81,17.82t-13.51,28.32q0,9.53,9.65,9.28c5.11-.16,7.92.24,8.41,1.22q-3.9,5.37-25.63,13.42l-29.79,10.26q0,2.93,3.18,2.93,20.51,0,44.92-11.48Q1142.52,308.47,1142.53,290.41Z"/>
      <path d="M1210.21,411.74a524.67,524.67,0,0,0-44.78-103q-15.09,45.4-15.09,136,0,48.84,8,50.3,5.55-2.69,5.54-28.08,0-13.67,6.28-60.55,12.27,23.2,26.52,62.26,16.2,44.67,16.2,63,0,25.64-15.38,50.78-9,14.9-33.45,42.23-10.5,11-21.24,22.22-12.45,13.42-17.82,24.41a2.12,2.12,0,0,0,2.44,2q2.19,0,10.23-2.93,57-20.74,75.75-54.93,15.83-28.58,15.83-93.51Q1229.2,472.55,1210.21,411.74Z"/>
    </g>
  </g>
</svg>
