<svg xmlns="http://www.w3.org/2000/svg" viewBox="0 0 1500 1000">
  <title>EH-Artboard 53</title>
  <g id="ElWedud">
    <g>
      <path d="M336.3,269.52q0,18.06-16.39,39.52l7.47,7.32-8.55,24.15a169.33,169.33,0,0,1-16.11-12.73Q264.86,363,245.09,363q-3.9,0-13.42-2.93,29.78-14.4,62.25-38.09-9.62-9.27-9.62-16.36,0-12.69,13.85-29.66t26-17Q336.3,259,336.3,269.52Zm-19.53,21.53q0-11.26-9.66-11.26l-3.72,1.46a11,11,0,0,0-2.73,7.35q0,4.9,11.65,14.45Q316.77,295.46,316.77,291.05Z"/>
      <path d="M474.49,505.62q0,49.56-34.18,112.06-34.43,63.72-87.16,91.55Q339,716.81,296,721.92q-35.89,4.4-61,4.4-13.92,0-17.58-1.22l-1-1.71q5.37-1,18.07-2.2,33.69-3.18,70.31-20.29,70.31-33,120.12-100.7,31-42,31-59.39,0-12-10.5-23t-22.46-11q-14.16,0-46.63,14.66-35.64,16.14-35.64,28.35,0,1.23,8.36,9.53a71.68,71.68,0,0,1,15.25,22q8.37,18.82,8.37,45.22,0,7.33-3.72,19.31-4.45,14.42-9.92,14.42l-2.23-2,1.71-14.4q0-9.76-20.26-35.51T318,567.83q0-5.37,7.82-26.36,7.32-20,11.71-27.33,8.07-13.67,47.37-32.46,38.57-18.3,56.88-18.3,14.16,0,23.93,14.65A48.23,48.23,0,0,1,474.49,505.62Z"/>
      <path d="M647.58,516.11q0,50.29-40.52,112.8-41.76,63.72-86.67,78.85-32.47,11-93.75,11-17.82,0-17.83-4.64,0-2.19,19.29-7.08,28.56-7.08,42.73-12,43.69-15.14,82.64-46.27t61.89-70.19q15.85-26.85,15.87-44.43,0-4.87-3.67-15.38-13.66,15.13-31.73,15.14a24,24,0,0,1-14.65-4.89,15.08,15.08,0,0,1-6.6-12.69q0-16.35,19.29-51.27,5.86-10.74,17.09-10.74Q647.59,454.35,647.58,516.11Z"/>
      <path d="M705.44,269.52q0,18.06-16.39,39.52l7.47,7.32L688,340.51a169.33,169.33,0,0,1-16.11-12.73Q634,363,614.23,363q-3.9,0-13.42-2.93,29.78-14.4,62.25-38.09-9.62-9.27-9.62-16.36,0-12.69,13.85-29.66t26-17Q705.44,259,705.44,269.52Zm-19.53,21.53q0-11.26-9.66-11.26l-3.72,1.46a11,11,0,0,0-2.73,7.35q0,4.9,11.65,14.45Q685.92,295.46,685.91,291.05Z"/>
      <path d="M843.63,505.62q0,49.56-34.18,112.06Q775,681.4,722.29,709.23q-14.16,7.57-57.13,12.69-35.88,4.4-61,4.4-13.92,0-17.58-1.22l-1-1.71q5.37-1,18.07-2.2Q637.33,718,674,700.9q70.32-33,120.12-100.7,31-42,31-59.39,0-12-10.49-23t-22.47-11q-14.16,0-46.63,14.66-35.64,16.14-35.64,28.35,0,1.23,8.36,9.53a71.89,71.89,0,0,1,15.26,22q8.35,18.82,8.36,45.22,0,7.33-3.72,19.31-4.46,14.42-9.92,14.42l-2.23-2,1.71-14.4q0-9.76-20.26-35.51t-20.27-40.64q0-5.37,7.82-26.36,7.32-20,11.72-27.33,8.05-13.67,47.36-32.46,38.57-18.3,56.88-18.3,14.16,0,23.93,14.65A48.23,48.23,0,0,1,843.63,505.62Z"/>
      <path d="M908.33,361.08q-5.13,16.6-14.16,21l-85.45,42q3.9-15.13,22.95-24.66Z"/>
      <path d="M1081.67,575.2l-12.46,46.39q-15.62,12.48-56.39,29.83-8.18,36.42-39.07,78-32.22,43.51-64.45,57.45-27.09,11.73-68.11,11.73-15.63,0-46.39-5.19-36.62-5.94-37.84-12.61l1.95-1.48q7.32.24,23.19,2.93,15.15,2.43,23.44,2.44,16.85,0,49.32-9.52,70.54-20.76,122.31-81.79,18.08-21.24,20.51-37.11-21.24,5.87-28.56,5.86-22.23,0-22.22-14.65,0-15.37,12.45-38.82,13.92-26.11,27.59-26.12,11.94,0,21.35,9.28T1017.7,613Q1058.71,595.7,1081.67,575.2Z"/>
      <path d="M1097.53,225.83q0,19-15.06,35.4t-34.18,16.36q-20.1,0-20.09-17.58,0-19.77,14-38.33,15.19-20.27,34.31-20.26,8.57,0,15.19,8.05A26.2,26.2,0,0,1,1097.53,225.83ZM1081.67,242q0-6-8-12.9t-13.87-6.94q-7.38,0-13.39,6.69t-6,14.14q0,10.67,19.15,10.66Q1081.66,253.66,1081.67,242Z"/>
      <path d="M1144.65,421.88q0,68.83-17.33,113.76-21,53.72-71.78,88.87l12.21-45.65Q1130,529,1130,478.76q0-37.59-23.68-91.06-4.59,23.93-13.77,71.53-3.87,20.5-6.52,20.51l-2.17-.74-.49-3.17q0-19.77,10.22-74.22,10.7-58.83,18.48-67.63,13.37,8.31,23.58,40.29Q1144.65,401.86,1144.65,421.88Z"/>
      <path d="M1192.5,214.6q-5.12,16.6-14.16,21l-85.44,42q3.9-15.13,22.94-24.66Z"/>
      <path d="M1196.9,295.17q0-7.34-8.79-7.33c-8.14,0-12.21-1.13-12.21-3.42q0-6.09,7.33-6.1a11.88,11.88,0,0,1,4.88,1c1.63-1.14,3.94-4.56,7-10.28s4.76-9.78,5.25-12.2a15,15,0,0,0-5.4-1.69q-10.32,0-23.82,17.82t-13.51,28.32q0,9.53,9.65,9.28c5.12-.16,7.92.24,8.42,1.22q-3.92,5.37-25.64,13.43l-29.78,10.25c0,1.95,1,2.93,3.17,2.93q20.5,0,44.92-11.48Q1196.89,313.24,1196.9,295.17Z"/>
      <path d="M1264.58,416.5a524.67,524.67,0,0,0-44.78-103q-15.09,45.4-15.09,136,0,48.84,8,50.3,5.55-2.68,5.55-28.08,0-13.67,6.27-60.55,12.27,23.21,26.52,62.26,16.2,44.67,16.2,63,0,25.64-15.38,50.78-9,14.9-33.45,42.23-10.5,11-21.24,22.22Q1184.69,665,1179.32,676c.16,1.3,1,2,2.44,2s4.87-1,10.23-2.93q57-20.74,75.75-54.93,15.83-28.57,15.83-93.51Q1283.57,477.31,1264.58,416.5Z"/>
    </g>
  </g>
</svg>
