<svg xmlns="http://www.w3.org/2000/svg" viewBox="0 0 1500 1000">
  <title>EH-Artboard 46</title>
  <g id="ElHasib">
    <g>
      <path d="M305.37,297.11q0,18.06-16.4,39.52l7.48,7.32L287.9,368.1a172.3,172.3,0,0,1-16.12-12.73q-37.84,35.25-57.62,35.26-3.9,0-13.43-2.93,29.79-14.42,62.26-38.09-9.63-9.27-9.62-16.36,0-12.69,13.85-29.66t26-17Q305.37,286.62,305.37,297.11Zm-19.53,21.53q0-11.26-9.67-11.27l-3.72,1.47a11,11,0,0,0-2.72,7.35q0,4.89,11.65,14.44Q285.84,323.05,285.84,318.64Z"/>
      <path d="M412.43,750.24a122,122,0,0,0-13.18-6.59q-20,30.27-21.95,34.67l21.95,14.89q11-12,22.45-32.71Q421.7,755.85,412.43,750.24Z"/>
      <path d="M615.67,560.06a27,27,0,0,1-17.45-6.2,19.31,19.31,0,0,1-7.69-15.68q0-6.33,4.51-18t4.76-17.75l-1-2.43-3.91.49-113,105.38q-72.75,63.81-138.18,63.81-35.16,0-63-27.22t-27.83-62.38a90.5,90.5,0,0,1,6.59-33.69q35.61-89.11,183.94-89.11,34.39,0,60.5-10,48.78-18.81,56.35-23.93l-.24-2.69Q497,446,447,445.8l-43-.24q-52-.24-92.29,26.12t-61,74.22q-10.74,24.66-10.74,45.16,0,49.82,27.59,83,29.55,35.18,78.38,35.18,45.66,0,101.82-41.57,35.4-26.4,84.48-78.24,41.26-43.51,47.12-44.74l.49,1.22q-2,5.9-2,15.7,0,16.17,7.72,27.21,8.64,12.75,24,12.75,12,0,30.76-13.23l12.45-46.57Q635.93,560.06,615.67,560.06Z"/>
      <path d="M784.13,769Q779,785.65,770,790l-85.45,42q3.9-15.13,23-24.66Z"/>
      <path d="M880.81,542l-12.7,47.15q-17.82,13.2-44.18,13.19-20.52,0-32.72-14.65Q780,574,780,553.7a72.25,72.25,0,0,1,.73-10.26l-5.35,1a85.19,85.19,0,0,1-20.17,23.09q-15.08,11.68-27.71,10.2a154.58,154.58,0,0,1-15.37,12.78l12.45-46q6.27-3.91,11.11-16.39,5.31-13.92,9.18-17.83l1.93.74a199.18,199.18,0,0,1-2,20.5q5.4,0,17.67-11.71,10.54-10,14.23-16.61,2.21-4.14,7.12-20.26,1-3.66,5.39-7.57l1.47,1.47.49,11.23q0,1.71-1.46,11.23,2.46,0,10.51-5.86,9-6.6,18.56-26.12,8.79-18.56,9.76-19.05l1.22,1.47v4.88q0,21.24-11,46.63-12,27.6-28.32,37.84,2.43,26.61,33.93,26.61Q853.95,565.67,880.81,542Z"/>
      <path d="M937.69,266.6q-5.12,16.61-14.16,21l-85.44,42Q842,314.46,861,304.93Z"/>
      <path d="M1086.83,542.43l-12.45,46.49q-30,18.51-59.81,18.5-25.89,0-42-19-15.33-18-15.33-44.13,0-12.43,4.38-31.95Q929.26,537,892.28,569.26q-7.56,38.58-6.59,65l-2.19,4.15-1.23.73-1.22-1.22V607.35l2-30.27q-5.87,4.6-17.58,13.35l12.45-45.86,9-8.54q11.76-54.39,22-73.42,20.07-37.07,61.2-37.07,10.76,0,31.63,6.18t31.86,6.19a76.71,76.71,0,0,0,32.23-6.79q-4.39,23.44-15.63,39.32-49.32,10-75.44,33.21a112.51,112.51,0,0,0-1.74,19.78q0,18.8,13.92,30.28,12.94,10.74,32,10.74Q1058.76,564.45,1086.83,542.43Zm-106.65-72.2q-20.52-4.91-28.33-4.9-44.67,0-54.44,62.65,28.8-23.73,39.55-31.57Q959.91,479.54,980.18,470.23Z"/>
      <path d="M1113.23,192.38q0,19.05-15.07,35.4T1064,244.14q-20.1,0-20.09-17.58,0-19.77,14-38.33,15.2-20.26,34.3-20.26,8.58,0,15.19,8.06A26.1,26.1,0,0,1,1113.23,192.38Zm-15.87,16.18q0-6-8-12.9t-13.88-6.94q-7.37,0-13.38,6.7t-6,14.13q0,10.66,19.16,10.66Q1097.36,220.21,1097.36,208.56Z"/>
      <path d="M1160.35,388.43q0,68.85-17.33,113.77-21,53.71-71.78,88.86l12.21-45.65q62.25-49.8,62.25-100.1,0-37.59-23.68-91.06-4.59,23.92-13.77,71.53-3.87,20.5-6.52,20.51l-2.17-.73-.49-3.18q0-19.77,10.21-74.22,10.71-58.83,18.49-67.62,13.37,8.29,23.58,40.28Q1160.35,368.41,1160.35,388.43Z"/>
      <path d="M1208.2,181.15q-5.13,16.6-14.16,21l-85.45,42q3.9-15.13,23-24.66Z"/>
      <path d="M631.05,654.54q-15.87,32.24-15.62,39.8,14.36-7.58,21.41-11.72,29.92-17.08,33.82-21,9-9,15.33-36.62-28.93,17.58-36.47,20.75Q635.43,651.86,631.05,654.54Z"/>
      <path d="M671.93,569.34q-10,0-14.16-2.69,18.93-26.11,18.94-43.94a43.4,43.4,0,0,0-.73-8.31Q662.38,530,649.27,545.17l-12.15,45.31,6.56-5.16q9.72,18,30.69,17.95,19.77,0,40.28-15l12.45-46.52q-9.76,9.76-25.63,18.31Q683.65,569.35,671.93,569.34Z"/>
      <path d="M1212.6,261.72q0-7.32-8.79-7.33-12.21,0-12.21-3.41,0-6.1,7.33-6.11a12,12,0,0,1,4.88,1q2.43-1.69,7-10.28t5.24-12.2a14.93,14.93,0,0,0-5.4-1.69q-10.3,0-23.82,17.82t-13.5,28.32q0,9.53,9.65,9.28c5.11-.16,7.92.24,8.41,1.22q-3.9,5.37-25.63,13.43L1135.93,302c0,2,1.06,2.93,3.18,2.93q20.51,0,44.92-11.47Q1212.59,279.78,1212.6,261.72Z"/>
      <path d="M1280.28,383.06a525.35,525.35,0,0,0-44.78-103q-15.09,45.41-15.09,136,0,48.83,8,50.29,5.54-2.69,5.54-28.08,0-13.67,6.27-60.54,12.28,23.19,26.52,62.25,16.21,44.69,16.21,63,0,25.63-15.38,50.78-9,14.89-33.45,42.24l-21.24,22.21q-12.45,13.44-17.82,24.42c.16,1.3,1,1.95,2.44,1.95s4.86-1,10.22-2.93q57-20.75,75.76-54.93,15.82-28.56,15.83-93.51Q1299.27,443.86,1280.28,383.06Z"/>
    </g>
  </g>
</svg>
