<svg xmlns="http://www.w3.org/2000/svg" viewBox="0 0 1500 1000">
  <title>EH-Artboard 102</title>
  <g id="ElBaqi">
    <g>
      <path d="M612.67,524.29,600,570.92q-20.52,12.71-41,25.64-37.35,24.9-37.35,33,0,14.9,30,26.12,21,7.58,21,21,0,51-42.83,109.86Q484,849.72,435.08,849.73q-56.29,0-56.3-72.51a200.23,200.23,0,0,1,16.64-79.59q11.73-27.58,39.13-67.14Q472,576.06,479.8,562.87q14.43-24.42,31.55-81.55l3.91,1.71q-2.68,31.5-27.34,84.72-9.78,21-37.11,59.81-29.79,41.76-40,61.53Q392,724.73,392,755.49q0,25.88,16.84,40.29,15.87,13.43,42.24,13.42,24.17,0,66-39.91T559,707.89q0-5.86-13.18-10-18.31-5.62-24.17-9.77-13.18-9-13.19-27.34,0-61.77,28.32-84.23Q562.38,559,612.67,524.29Z"/>
      <path d="M664.18,726.93q-5.11,16.61-14.16,21l-85.44,42q3.9-15.15,22.94-24.66Z"/>
      <path d="M832.64,524.54l-12.45,46.79q-19.53,13.27-39.55,13.26-27.58,0-37.84-30.94-5.62-17.4-6.59-53.77l-1.84-73.73q-2.07-83-2.07-84.48,0-3.17,5.89-20.75t8-20.5h1.44q.74,42.24,2.93,126.22.24,23.43,5.13,69.33,9.76,47.13,37.35,47.12Q813.6,543.09,832.64,524.54Z"/>
      <path d="M890.75,309.94q-5.13,16.6-14.16,21l-85.45,42q3.9-15.14,23-24.65Z"/>
      <path d="M935.18,174.68q0,19-15.07,35.4t-34.17,16.36q-20.1,0-20.1-17.58,0-19.77,14-38.33,15.18-20.26,34.3-20.26,8.58,0,15.19,8.06A26.1,26.1,0,0,1,935.18,174.68Zm-15.87,16.18q0-6-8-12.9T897.45,171q-7.37,0-13.38,6.7t-6,14.13q0,10.67,19.16,10.66Q919.31,202.51,919.31,190.86Z"/>
      <path d="M982.3,370.73q0,68.85-17.33,113.77-21,53.71-71.78,88.86l12.21-45.65q62.25-49.8,62.25-100.1,0-37.59-23.68-91.06-4.59,23.93-13.77,71.53-3.87,20.51-6.52,20.51l-2.18-.73-.48-3.18q0-19.77,10.21-74.22,10.71-58.83,18.48-67.62,13.38,8.3,23.59,40.28Q982.3,350.71,982.3,370.73Z"/>
      <path d="M1030.15,163.45q-5.13,16.61-14.16,21l-85.45,42q3.9-15.13,23-24.66Z"/>
      <path d="M599.24,368q13.18-6.35,27.84-14.89,25.14-14.89,30-20.75,7.08-8.29,13.19-33.94-32.82,20.27-55.42,29.79Q599.73,358.76,599.24,368Z"/>
      <path d="M631,396.61q-11.47,0-25.39,27.83Q592.65,450.32,592.65,464a15,15,0,0,0,6.1,12.21,19.78,19.78,0,0,0,12.94,4.39q10.5,0,26.86-13.43c3.09,1.31,4.64,4.15,4.64,8.55q0,11.71-14.41,28.81Q616.57,519.16,604.37,527l-12.45,45.9q44.43-32,62.85-91.07,9.66-31,9.66-41,0-14.16-9.66-28.32Q644.39,396.61,631,396.61Z"/>
      <path d="M826.05,617.8q-21,32.22-22,34.42l21.48,14.89q11-10,22.71-33Q848.27,625.85,826.05,617.8Z"/>
      <path d="M853.39,551.64q-10,0-14.16-2.69,19-26.12,19-44a42.53,42.53,0,0,0-.74-8.3q-13.66,15.63-26.85,30.77l-12.21,45.31,6.59-5.16q9.76,18,30.76,18,19.78,0,40.29-15l12.45-46.52q-9.77,9.76-25.64,18.31Q865.11,551.65,853.39,551.64Z"/>
      <path d="M1034.55,244q0-7.32-8.79-7.33-12.21,0-12.21-3.41,0-6.1,7.32-6.11a12,12,0,0,1,4.89,1q2.43-1.69,7-10.28c3-5.72,4.77-9.78,5.25-12.2a14.93,14.93,0,0,0-5.4-1.69q-10.32,0-23.82,17.82t-13.5,28.32q0,9.53,9.65,9.28c5.11-.16,7.92.24,8.41,1.22q-3.9,5.37-25.63,13.43L957.88,284.3q0,2.93,3.18,2.93,20.51,0,44.92-11.47Q1034.54,262.08,1034.55,244Z"/>
      <path d="M1102.23,365.36a525.35,525.35,0,0,0-44.78-103q-15.09,45.41-15.09,136,0,48.82,8,50.29,5.54-2.69,5.54-28.08,0-13.66,6.27-60.54,12.28,23.19,26.52,62.25,16.21,44.68,16.21,63,0,25.63-15.38,50.78-9,14.9-33.45,42.24l-21.24,22.21q-12.45,13.44-17.82,24.42c.16,1.3,1,2,2.44,2s4.86-1,10.22-2.93q57-20.74,75.75-54.93,15.84-28.56,15.84-93.51Q1121.22,426.16,1102.23,365.36Z"/>
    </g>
  </g>
</svg>
