<svg xmlns="http://www.w3.org/2000/svg" viewBox="0 0 1500 1000">
  <title>EH-Artboard 19</title>
  <g id="ElMusavir">
    <g>
      <path d="M367.92,330.56q0,18-16.4,39.52L359,377.4l-8.55,24.15a170.85,170.85,0,0,1-16.12-12.74q-37.84,35.26-57.62,35.26-3.9,0-13.43-2.93,29.79-14.4,62.26-38.08-9.63-9.29-9.62-16.36,0-12.69,13.85-29.66t26-17Q367.92,320.07,367.92,330.56Zm-19.53,21.52q0-11.25-9.67-11.26L335,342.29a10.94,10.94,0,0,0-2.72,7.35q0,4.89,11.65,14.44Q348.39,356.49,348.39,352.08Z"/>
      <path d="M490.23,498.92q0,26.23-8.05,27.69l-6.59-8.06q-6.84.26-11.23,8.07-12,20.77-25.4,54.27-11,28.11-22,56-9.28,22-28.56,43.51-20.51,23-40.77,32-22.95,10.51-63.24,10.51-60.78,0-62.74-6.29l2.44-1.77q51.27,0,95.22-22Q365,670,392.58,628.27q14.88-22.69,32-60.25L447,517.78Q466.07,480,476.56,480q5.87,0,10,6.8A22.54,22.54,0,0,1,490.23,498.92Z"/>
      <path d="M459,409.17q-3.66,3.66-11.23,14.89l77.4-31q12.45-5.13,20-21L475.1,399.89Q464.35,404,459,409.17Z"/>
      <path d="M554.69,310.06Q543,345.94,528.81,346,521,346,521,322l-4.89,1.47Q497.56,363,483.64,363q-5.61,0-5.61-6.35a71.26,71.26,0,0,1,3.42-20.75l-5.79,1q-13.5,22.71-13.5,35,0,16.11,14.37,16.12,8.76,0,18-6.35t12.91-14.65q7.31,5.26,14.36,5.26,18.75,0,30.2-23.92a91.63,91.63,0,0,0,9-40.77Z"/>
      <path d="M720.7,575.2l-12.45,46.39q-15.63,12.48-56.39,29.83-8.18,36.42-39.07,78-32.22,43.51-64.45,57.45-27.11,11.73-68.12,11.73-15.62,0-46.38-5.19-36.63-5.94-37.84-12.61L398,779.3q7.32.24,23.19,2.93,15.15,2.43,23.44,2.44,16.85,0,49.32-9.52,70.54-20.76,122.31-81.79,18.06-21.24,20.51-37.11-21.24,5.87-28.57,5.86-22.21,0-22.21-14.65,0-15.37,12.45-38.82,13.92-26.11,27.59-26.12,11.94,0,21.35,9.28T656.74,613Q697.75,595.7,720.7,575.2Z"/>
      <path d="M767.09,300.05q-5.13,16.6-14.16,21l-85.45,42q3.9-15.14,22.95-24.66Z"/>
      <path d="M947.51,575.2l-12.45,46.63q-25.89,16.6-59.33,16.6-38.58,0-54.52-47.85-19.38,9.57-32.64,12.45-1.22,14-4.15,30.22l-1.22.5-1.22-.5q-.24-14.49.49-28.76-28.08,7.83-65.67,7.83l-6.59-1.24q-4.89,4.68-15.39,12.81L707,578.8l26.86-30.7a44.83,44.83,0,0,1,.73,8.3q0,14.64-14.41,38.08h9.28q15.87,0,57.38-19,8.77-33.69,14.16-48.1,11-29.78,25.14-41.5,11-9.27,47.12-22.95,33.45-12.69,44-12.69a35,35,0,0,1,3.66.24c2.76,2.6,4.15,6.76,4.15,12.45q0,4.16-7.31,23.44-21.18,56.16-80.34,94.72,18.08,16.37,36.62,16.36Q918.21,597.41,947.51,575.2Zm-43.7-80.82a5.23,5.23,0,0,0-1-2.92l-4.39-.49Q887,491,856.2,503.14q-32.72,12.9-42.72,23.61-10.76,11.93-18.56,45a420.84,420.84,0,0,0,82-51.52Q903.82,498.78,903.81,494.38Z"/>
      <path d="M1008.79,269.52q0,18.06-16.4,39.52l7.48,7.32-8.55,24.15a170.66,170.66,0,0,1-16.12-12.73Q937.36,363,917.58,363q-3.92,0-13.43-2.93,29.79-14.4,62.26-38.09-9.63-9.27-9.62-16.36,0-12.69,13.85-29.66t26-17Q1008.79,259,1008.79,269.52Zm-19.53,21.53q0-11.26-9.67-11.26l-3.72,1.46a11,11,0,0,0-2.73,7.35q0,4.9,11.65,14.45Q989.26,295.46,989.26,291.05Z"/>
      <path d="M1065.43,575.93,1053,622.34a36,36,0,0,1-19.29,5.59q-17.34,0-27.34-15.3Q985.84,638,980.71,638q-5.61,0-16.6-12.94-10.25-12-12.21-18.76-5.61,7.53-21,18l12.21-45.43q11.22-10.5,33.69-31.25,2.43,0,24.17,18.31t37.11,18.31A46.83,46.83,0,0,0,1065.43,575.93Z"/>
      <path d="M1092.29,225.83q0,19-15.07,35.4T1043,277.59q-20.1,0-20.09-17.58,0-19.77,14-38.33,15.18-20.27,34.3-20.26,8.57,0,15.19,8.05A26.21,26.21,0,0,1,1092.29,225.83ZM1076.42,242q0-6-8-12.9t-13.87-6.94c-4.92,0-9.37,2.23-13.39,6.69s-6,9.18-6,14.14q0,10.67,19.15,10.66Q1076.42,253.66,1076.42,242Z"/>
      <path d="M1139.4,421.88q0,68.83-17.33,113.76-21,53.72-71.78,88.87l12.21-45.65q62.25-49.82,62.26-100.1,0-37.59-23.69-91.06-4.59,23.93-13.77,71.53-3.87,20.5-6.52,20.51l-2.17-.74-.48-3.17q0-19.77,10.21-74.22,10.7-58.83,18.48-67.63,13.37,8.31,23.59,40.29Q1139.4,401.86,1139.4,421.88Z"/>
      <path d="M1187.26,214.6q-5.13,16.6-14.16,21l-85.45,42q3.9-15.13,22.95-24.66Z"/>
      <path d="M1191.65,295.17q0-7.34-8.79-7.33c-8.14,0-12.21-1.13-12.21-3.42q0-6.09,7.33-6.1a11.88,11.88,0,0,1,4.88,1q2.45-1.71,7-10.28t5.25-12.2a15,15,0,0,0-5.4-1.69q-10.32,0-23.82,17.82t-13.51,28.32q0,9.53,9.66,9.28c5.11-.16,7.91.24,8.41,1.22q-3.92,5.37-25.64,13.43L1115,335.45c0,1.95,1,2.93,3.17,2.93q20.5,0,44.92-11.48Q1191.66,313.24,1191.65,295.17Z"/>
      <path d="M1259.33,416.5a524.67,524.67,0,0,0-44.78-103q-15.09,45.4-15.09,136,0,48.84,8,50.3,5.55-2.68,5.55-28.08,0-13.67,6.27-60.55,12.27,23.21,26.52,62.26,16.2,44.67,16.2,63,0,25.64-15.38,50.78-9,14.9-33.45,42.23-10.5,11-21.24,22.22Q1179.44,665,1174.07,676c.16,1.3,1,2,2.44,2s4.87-1,10.23-2.93q57-20.74,75.75-54.93,15.83-28.57,15.83-93.51Q1278.32,477.31,1259.33,416.5Z"/>
    </g>
  </g>
</svg>
