<svg xmlns="http://www.w3.org/2000/svg" viewBox="0 0 1500 1000">
  <title>EH-Artboard 28</title>
  <g id="ElHafid">
    <g>
      <path d="M336.74,247.79q0,18.06-16.39,39.53l7.47,7.31-8.55,24.15a170.66,170.66,0,0,1-16.12-12.73q-37.84,35.26-57.62,35.26-3.9,0-13.42-2.93,29.77-14.4,62.25-38.09-9.63-9.27-9.62-16.35,0-12.7,13.85-29.67t26-17Q336.74,237.3,336.74,247.79Zm-19.53,21.53q0-11.26-9.67-11.26l-3.71,1.47a10.94,10.94,0,0,0-2.73,7.34q0,4.9,11.65,14.45Q317.21,273.73,317.21,269.32Z"/>
      <path d="M671.46,756.35q-5.13,16.59-14.16,21l-85.45,42q3.9-15.15,22.95-24.66Z"/>
      <path d="M848,554l-12.45,46.79Q816,614,796,614q-27.59,0-37.84-30.94-5.62-17.4-6.59-53.77l-1.84-73.73q-2.07-83-2.07-84.48,0-3.16,5.89-20.75t8.05-20.51H763q.74,42.24,2.93,126.22.24,23.44,5.13,69.34,9.76,47.11,37.35,47.12Q828.93,572.51,848,554Z"/>
      <path d="M906.08,278.32q-5.13,16.6-14.16,21l-85.45,42q3.9-15.13,22.95-24.66Z"/>
      <path d="M1081.86,204.1q0,19.05-15.07,35.4t-34.17,16.36q-20.1,0-20.1-17.58,0-19.77,14-38.33,15.18-20.26,34.3-20.26,8.57,0,15.19,8.05A26.15,26.15,0,0,1,1081.86,204.1ZM1066,220.28q0-6-8-12.9t-13.88-6.94q-7.37,0-13.38,6.69t-6,14.14q0,10.66,19.16,10.66Q1066,231.93,1066,220.28Z"/>
      <path d="M1129,400.15q0,68.84-17.34,113.77-21,53.7-71.77,88.86l12.2-45.65q62.27-49.8,62.26-100.1,0-37.59-23.68-91.06-4.59,23.92-13.77,71.53Q1073,458,1070.36,458l-2.18-.73-.48-3.18q0-19.77,10.21-74.22,10.69-58.83,18.48-67.62,13.38,8.3,23.59,40.28Q1129,380.13,1129,400.15Z"/>
      <path d="M1176.83,192.87q-5.13,16.6-14.16,21l-85.45,42q3.9-15.13,23-24.66Z"/>
      <path d="M616.28,552.73c-1.21,1.09-2.51,2.2-3.88,3.32,1.22-.8,2.45-1.66,3.68-2.56Z"/>
      <path d="M502.27,439.21q0-3.42-9.77-9.52-4.63-2.69-12.69-6.84-14.16,21-22,34.43l21.48,15.13Q492,460.93,502.27,439.21Z"/>
      <path d="M611.86,556.49a257.61,257.61,0,0,1-27.8,19.19Q560.86,589.6,548.9,592q46.88-66.88,46.88-105.71c0-3.91-1.15-5.86-3.42-5.86q-18.08,0-57.13,24.9Q472.73,545.17,454.42,625a169.32,169.32,0,0,1-23.09,2.2q-16.77,0-22.84-8-5.1-6.3-6.07-23.75l-2-1.21-1.71.49q-17,37.89-20.5,50.85a58.72,58.72,0,0,1,10,32.51q0,30.31-29.55,64-30,34.47-59.81,34.47-20.26,0-32.47-13.32t-12.21-33.84q0-47.4,35.16-84.06,21.24-22.23,77-56.57t76-55.35q16.11-16.86,17.33-23l-.73-1-2.68.49q-26.36,28.82-81.7,61.52-61.95,36.87-82.19,54.69-40.74,36.13-54.14,87.89-5.86,22.46-5.86,40.77,0,27.58,11.23,44.92Q256.9,820.32,283,820.31q31.25,0,62.5-30.27,25.14-24.42,41.51-58.35,16.59-40.77,23.92-61.76,3.15,2.45,11.14,2.45a90,90,0,0,0,18.65-2.45q-7.1,32.3-10.5,48.69l1.71,2.45,3.42-2.45,13.91-50.9q22,0,74.46-36.86,13.43.24,41-11,26.12-10.71,38.82-20.2l.18-.68c-1.43,1.11-2.86,2.21-4.33,3.26Zm-87.13,29.94q-31.5,27.83-59.81,36.37,14.64-35.14,25.39-48.09,13.19-16.37,43.7-32.47,24.9-13.18,31-13.19l2.2,2.2Q557.45,557.86,524.73,586.43Z"/>
      <path d="M642.87,375l10-17.58q0-8.54-22.22-16.6-21,32.22-22,34.42a226.8,226.8,0,0,0,21.48,14.9Q635.79,386.24,642.87,375Z"/>
      <path d="M611.89,556.4l0,.09.54-.44Z"/>
      <path d="M638.5,426q-11.47,0-25.39,27.83-12.95,25.88-12.94,39.55a15,15,0,0,0,6.1,12.21A19.84,19.84,0,0,0,619.21,510q10.5,0,26.86-13.43c3.09,1.31,4.64,4.15,4.64,8.55q0,11.72-14.41,28.81a117.59,117.59,0,0,1-20.22,19.55L603.77,599q41-31.66,58.52-87.8,9.66-31,9.66-41,0-14.15-9.66-28.32Q651.91,426,638.5,426Z"/>
      <path d="M612.4,556.05l-.54.44-12.42,45.8c1.47-1,2.9-2.15,4.33-3.26l12.31-45.54C614.85,554.39,613.62,555.25,612.4,556.05Z"/>
      <path d="M938.21,352.54q0-3.9-9.52-9.77-4.65-2.68-12.94-6.59-20.52,30.76-22.47,34.67A212.72,212.72,0,0,0,915,385.5Q926.48,375.74,938.21,352.54Z"/>
      <path d="M955.36,565.43q-13.9-11.48-13.91-30.29a112.48,112.48,0,0,1,1.74-19.77q26.12-23.21,75.44-33.21,11.22-15.89,15.62-39.32a76.7,76.7,0,0,1-32.22,6.79q-11,0-31.86-6.19t-31.63-6.18q-41.13,0-61.21,37.07-10.27,19-22,73.42l-9,8.54-12.45,45.86q11.73-8.74,17.58-13.36l-1.95,30.28v30.52l1.22,1.22,1.22-.74,2.2-4.15q-1-26.35,6.59-64.95,37-32.25,69.33-56.93-4.38,19.51-4.37,31.94,0,26.1,15.32,44.14,16.13,19,42,19,29.79,0,59.82-18.5l12.45-46.49q-28.08,22-67.87,22Q968.3,576.17,955.36,565.43Zm-50-57.3Q894.59,516,865.79,539.7q9.76-62.64,54.45-62.65,7.82,0,28.32,4.9Q928.3,491.25,905.35,508.13Z"/>
      <path d="M1181.22,273.44q0-7.33-8.78-7.33c-8.15,0-12.21-1.13-12.21-3.41q0-6.1,7.32-6.11a12,12,0,0,1,4.89,1q2.43-1.69,7-10.28t5.25-12.2a14.93,14.93,0,0,0-5.4-1.69q-10.32,0-23.82,17.82t-13.5,28.32q0,9.52,9.65,9.28c5.11-.16,7.91.24,8.41,1.22q-3.9,5.37-25.63,13.43l-29.79,10.25q0,2.92,3.17,2.93,20.52,0,44.93-11.47Q1181.22,291.5,1181.22,273.44Z"/>
      <path d="M1248.91,394.78a525.35,525.35,0,0,0-44.78-103q-15.11,45.4-15.09,136,0,48.84,8,50.3,5.55-2.68,5.55-28.08,0-13.67,6.27-60.55,12.29,23.21,26.52,62.26,16.22,44.68,16.21,63,0,25.64-15.38,50.78-9,14.9-33.45,42.24l-21.24,22.21q-12.45,13.44-17.82,24.42a2.11,2.11,0,0,0,2.43,2q2.19,0,10.23-2.93,57-20.75,75.75-54.93,15.84-28.56,15.83-93.51Q1267.89,455.58,1248.91,394.78Z"/>
    </g>
  </g>
</svg>
