<svg xmlns="http://www.w3.org/2000/svg" viewBox="0 0 1500 1000">
  <title>EH-Artboard 39</title>
  <g id="ElAzim">
    <g>
      <path d="M509.52,207.88q0,18-16.39,39.52l7.47,7.31-8.55,24.16a170.85,170.85,0,0,1-16.12-12.74q-37.85,35.26-57.62,35.26-3.9,0-13.43-2.93,29.79-14.4,62.26-38.08-9.63-9.28-9.62-16.36,0-12.69,13.85-29.66t26-17Q509.52,197.39,509.52,207.88ZM490,229.4q0-11.25-9.67-11.26l-3.72,1.47a11,11,0,0,0-2.72,7.35q0,4.89,11.65,14.44Q490,233.81,490,229.4Z"/>
      <path d="M578.13,514.53l-12.21,45.65q-28.08,17.58-56.15,34.91-38.58,26.61-38.58,39.07c0,1.79,1,2.68,2.93,2.68q7.32,0,22-15.62,10-10.74,19.78-21.73c1.14.81,1.71,2.19,1.71,4.15q0,3.42-3.66,19-4.65,20-5.13,21.49a64.62,64.62,0,0,1-10.5,19.28q-10.5,13.68-46.43,39.55-41.12,29.54-55.31,43.7-26.68,26.37-26.68,50,0,23.93,39.55,37.36,32.47,11.22,73.25,11.23,66.88,0,89.35-2.2l.49,1.22q0,7-40.28,12-31.26,3.84-52,3.84-125,0-125-63.23,0-29.06,23.74-65.43,21.29-32.48,48.19-52l30.1-22a41,41,0,0,1-1.93-12.94q0-19,14.91-44.67,14.88-24.66,31.48-35.4Q552.48,532.1,578.13,514.53Z"/>
      <path d="M709.72,716.43q-5.13,16.61-14.16,21l-85.45,42q3.9-15.13,22.95-24.66Z"/>
      <path d="M873.29,238.4q-5.13,16.6-14.16,21l-85.45,42q3.9-15.13,23-24.66Z"/>
      <path d="M933.35,512.57l-12.7,47.31q-21.24,13.73-40.28,13.73-30.15,0-42.48-45.17Q814.82,553,800.82,562.56l12.27-45.31,8.11-8.32a17,17,0,0,0-12.28-5.39q-12,0-15.71,1.46,0-6.79,8.3-28.43a136.48,136.48,0,0,1,7.82-16q8.79-9.48,49.56-9.48,28.56,0,28.56,15.58,0,14.12-24.17,40.4,6.6,25.56,27.83,25.56Q910.64,532.59,933.35,512.57Z"/>
      <path d="M958.74,164.18q0,19-15.07,35.4T909.5,215.94q-20.1,0-20.1-17.58,0-19.77,14-38.33,15.18-20.25,34.3-20.26,8.58,0,15.19,8.06A26.12,26.12,0,0,1,958.74,164.18Zm-15.87,16.18q0-5.94-8-12.9T921,160.52q-7.37,0-13.38,6.7t-6,14.13q0,10.67,19.16,10.67Q942.87,192,942.87,180.36Z"/>
      <path d="M1005.86,360.23q0,68.85-17.33,113.77-21,53.72-71.78,88.87L929,517.21q62.25-49.8,62.25-100.1,0-37.59-23.68-91.06-4.59,23.93-13.77,71.53-3.87,20.51-6.52,20.51l-2.18-.73-.48-3.18q0-19.77,10.21-74.21,10.71-58.85,18.48-67.63,13.38,8.3,23.59,40.28Q1005.86,340.22,1005.86,360.23Z"/>
      <path d="M1053.71,153q-5.13,16.61-14.16,21l-85.45,42q3.9-15.13,22.95-24.66Z"/>
      <path d="M556.64,626.34q-15.87,32.24-15.62,39.8,14.34-7.57,21.41-11.72,29.93-17.08,33.82-21,9-9,15.32-36.62-28.92,17.58-36.46,20.75Q561,623.66,556.64,626.34Z"/>
      <path d="M652.44,514.47l.25-.92q-9.77,9.76-25.63,18.31-17.84,9.28-29.55,9.28-10,0-14.16-2.69,18.95-26.12,18.94-43.94a43.27,43.27,0,0,0-.72-8.3Q588,501.83,574.85,517l-12.14,45.32,6.56-5.17q9.71,18,30.69,18,18.45,0,37.55-13.07l12.15-45Z"/>
      <path d="M798.83,287.79q0-7.83-22.22-16.62-16.61,22-22.46,34.7L775.88,321Q787.1,309.3,798.83,287.79Z"/>
      <path d="M761.47,537.23q-18.56,0-33-6.1-19-8.05-19-23.93,32.13-28.56,42.12-40.28,17.52-20.51,30.18-50.29Q793,390,793,386.35q0-8.53-10.5-8.54-15.63,0-48.58,17.74Q705.32,411.09,689,425q16.78-70.23,16.79-98.76,0-59-19.23-79.25-6.59-7.06-9.76-7.32-15.87,8.79-29.54,43.91Q636,312.06,632.81,336.7l2.2,2.19,2-1.47q22.71-57.75,30.52-58,21.24,11,21.24,86.21,0,37.37-29.78,142.86l-6.5,6-12.2,45.6c-.91.67-1.82,1.31-2.73,1.93l-.06.22q11.71-8,17.82-12.62l1.51,18.93,1.51,1a93.3,93.3,0,0,0,5-25.31q20.59-15.57,31.49-24.57,4.23,24.32,19.54,39.4,16.11,16.31,40,16.3,26.13,0,50.05-15.33l12.45-46.24q-9.27,9.3-25.87,16.39T761.47,537.23Zm-92.58-35.47,10-36.94q15.39-15.17,42.26-31.07,31-18.11,47.38-18.1l1.71,2.69q-.24,11.75-43.72,43.79Z"/>
      <path d="M652.44,514.47,649.66,517l-12.15,45c.91-.62,1.82-1.26,2.73-1.93Z"/>
      <path d="M1125.79,354.86a525.35,525.35,0,0,0-44.78-103q-15.09,45.41-15.09,136,0,48.82,8,50.29,5.53-2.69,5.54-28.08,0-13.66,6.27-60.54,12.29,23.19,26.52,62.25,16.21,44.68,16.21,63,0,25.63-15.38,50.78-9,14.9-33.45,42.24L1058.35,590q-12.45,13.42-17.82,24.41a2.11,2.11,0,0,0,2.43,2q2.19,0,10.23-2.93,57-20.74,75.75-54.93,15.84-28.56,15.84-93.5Q1144.78,415.65,1125.79,354.86Z"/>
      <path d="M1058.11,233.52q0-7.32-8.79-7.32-12.21,0-12.21-3.42,0-6.1,7.32-6.11a12,12,0,0,1,4.89,1q2.43-1.69,7-10.27c3-5.72,4.77-9.79,5.25-12.21a15.14,15.14,0,0,0-5.4-1.69q-10.32,0-23.82,17.82t-13.5,28.32q0,9.52,9.65,9.28c5.11-.16,7.92.25,8.41,1.22q-3.9,5.37-25.63,13.43L981.44,273.8c0,2,1.06,2.93,3.18,2.93q20.5,0,44.92-11.47Q1058.1,251.59,1058.11,233.52Z"/>
    </g>
  </g>
</svg>
