<svg xmlns="http://www.w3.org/2000/svg" viewBox="0 0 1500 1000">
  <title>EH-Artboard 13</title>
  <g id="ElMuhejmin">
    <g>
      <path d="M413.16,297.11q0,18.06-16.4,39.52l7.48,7.32-8.55,24.15a172.3,172.3,0,0,1-16.12-12.73Q341.73,390.62,322,390.63q-3.92,0-13.43-2.93,29.79-14.42,62.26-38.09-9.63-9.27-9.62-16.36,0-12.69,13.85-29.66t26-17Q413.16,286.62,413.16,297.11Zm-19.53,21.53q0-11.26-9.67-11.27l-3.72,1.47a11,11,0,0,0-2.73,7.35q0,4.89,11.65,14.44Q393.63,323.05,393.63,318.64Z"/>
      <path d="M571.12,541.75,558.67,588q-24.67,18.47-40,17.2L514,626.78q-8.55,39.69-39.74,79.61-35.6,45.55-70.94,45.56-44.61,0-44.6-54.05,0-31.3,23.44-84.13-31.5,1.23-50.05,32l-1.46.49-1.47-1.47q0-24.49,20.51-49.47,21.48-26.44,45.19-26.45,10.75,0,10.76,9.53,0,9.3-13.57,40.61t-13.58,47.44q0,18.35,10.88,29.47T418.61,707q22.26,0,48.43-24.9,24.72-23.45,30.58-46.14a118.39,118.39,0,0,0,4.16-29.3q0-15.62-12-27.59-.49-16.11,18.89-44.43,7.27,3.18,18,31.25Q544,565.92,571.12,541.75Z"/>
      <path d="M627.27,769q-5.13,16.61-14.16,21l-85.45,42q3.9-15.13,23-24.66Z"/>
      <path d="M689,542.48,676.59,588.9a36.09,36.09,0,0,1-19.29,5.58q-17.34,0-27.34-15.29-20.52,25.39-25.64,25.39-5.62,0-16.6-12.94-10.26-12-12.21-18.76-5.61,7.53-21,18l12.2-45.43q11.24-10.5,33.69-31.25,2.45,0,24.17,18.31t37.11,18.31A46.77,46.77,0,0,0,689,542.48Z"/>
      <path d="M715.89,338.87q0,19-15.07,35.4t-34.17,16.36q-20.1,0-20.09-17.58,0-19.79,14-38.33,15.19-20.27,34.3-20.27,8.58,0,15.19,8.06A26.15,26.15,0,0,1,715.89,338.87ZM700,355q0-5.94-8-12.89t-13.87-6.94q-7.38,0-13.39,6.69t-6,14.14q0,10.66,19.16,10.66Q700,366.7,700,355Z"/>
      <path d="M668.29,654.54q-15.88,32.24-15.63,39.8,14.36-7.58,21.41-11.72,29.92-17.08,33.82-21,9-9,15.33-36.62-28.94,17.58-36.46,20.75Q672.66,651.86,668.29,654.54Z"/>
      <path d="M738.7,560.06q-17.82,9.29-29.54,9.28c-6.68,0-11.39-.9-14.16-2.69q18.94-26.11,18.94-43.94a42.61,42.61,0,0,0-.73-8.31Q699.61,530,686.5,545.17l-12.15,45.31,6.56-5.16q9.72,18,30.69,17.95,19.78,0,40.28-15l12.46-46.52Q754.56,551.52,738.7,560.06Z"/>
      <path d="M821.36,266.6q-5.13,16.61-14.16,21l-85.45,42q3.9-15.13,23-24.66Z"/>
      <path d="M860.67,542l-12.45,46.39q-6.11,4.15-22,13.18a124.28,124.28,0,0,0-44.43,43.22q-17.09,27.83-17.09,59.32a108.31,108.31,0,0,1-12.21,17.58q-15.87-23.2-15.87-60.55,0-29.29,24.66-115.72,12.69-14.89,26.86-30.76a44.83,44.83,0,0,1,.73,8.3q0,12.94-9,30.76-8.05,16.37-18.31,26.61-9.28,39.79-9.28,55.91,0,16.6,4.64,22,6-22,23.44-48.58Q796,585.69,816.72,570.8Z"/>
      <path d="M922,236.08q0,18-16.4,39.52l7.47,7.31-8.54,24.15a169.39,169.39,0,0,1-16.12-12.73q-37.85,35.26-57.62,35.26-3.91,0-13.43-2.93,29.79-14.4,62.26-38.09-9.63-9.27-9.62-16.35,0-12.69,13.85-29.67t26-17Q922,225.59,922,236.08ZM902.42,257.6q0-11.25-9.67-11.26L889,247.81a10.94,10.94,0,0,0-2.73,7.34q0,4.91,11.65,14.45Q902.42,262,902.42,257.6Z"/>
      <path d="M978.59,542.48,966.14,588.9a36.09,36.09,0,0,1-19.29,5.58q-17.34,0-27.34-15.29Q899,604.59,893.87,604.58q-5.61,0-16.6-12.94-10.26-12-12.21-18.76-5.61,7.53-21,18l12.2-45.43q11.24-10.5,33.7-31.25,2.43,0,24.17,18.31t37.1,18.31A46.77,46.77,0,0,0,978.59,542.48Z"/>
      <path d="M1005.44,192.38q0,19.05-15.06,35.4T956.2,244.14q-20.1,0-20.09-17.58,0-19.77,14-38.33Q965.27,168,984.38,168q8.57,0,15.19,8.06A26.15,26.15,0,0,1,1005.44,192.38Zm-15.87,16.18q0-6-8-12.9t-13.87-6.94q-7.38,0-13.39,6.7t-6,14.13q0,10.66,19.16,10.66Q989.57,220.21,989.57,208.56Z"/>
      <path d="M1052.56,388.43q0,68.85-17.33,113.77-21,53.71-71.78,88.86l12.21-45.65q62.25-49.8,62.25-100.1,0-37.59-23.68-91.06-4.59,23.92-13.77,71.53-3.87,20.5-6.52,20.51l-2.17-.73-.49-3.18q0-19.77,10.22-74.22,10.69-58.83,18.48-67.62,13.37,8.29,23.58,40.28Q1052.56,368.41,1052.56,388.43Z"/>
      <path d="M1100.41,181.15q-5.12,16.6-14.16,21l-85.45,42q3.91-15.13,23-24.66Z"/>
      <path d="M1104.81,261.72q0-7.32-8.79-7.33-12.21,0-12.21-3.41,0-6.1,7.33-6.11a11.92,11.92,0,0,1,4.88,1q2.43-1.69,7-10.28t5.25-12.2a15,15,0,0,0-5.4-1.69q-10.32,0-23.82,17.82t-13.51,28.32q0,9.53,9.65,9.28c5.12-.16,7.92.24,8.41,1.22q-3.9,5.37-25.63,13.43L1028.14,302c0,2,1.06,2.93,3.18,2.93q20.51,0,44.92-11.47Q1104.8,279.78,1104.81,261.72Z"/>
      <path d="M1172.49,383.06a524.76,524.76,0,0,0-44.78-103q-15.09,45.41-15.09,136,0,48.83,8,50.29,5.55-2.69,5.55-28.08,0-13.67,6.27-60.54,12.27,23.19,26.52,62.25,16.2,44.69,16.2,63,0,25.63-15.38,50.78-9,14.89-33.45,42.24l-21.24,22.21q-12.45,13.44-17.82,24.42c.16,1.3,1,1.95,2.44,1.95s4.87-1,10.23-2.93q57-20.75,75.75-54.93,15.82-28.56,15.83-93.51Q1191.48,443.86,1172.49,383.06Z"/>
    </g>
  </g>
</svg>
