<svg xmlns="http://www.w3.org/2000/svg" viewBox="0 0 1500 1000">
  <title>EH-Artboard 9</title>
  <g id="ElMelik">
    <g>
      <path d="M395.21,179.07q0,18-16.39,39.52l7.47,7.32-8.55,24.15a169.51,169.51,0,0,1-16.11-12.74Q323.78,272.58,304,272.58q-3.9,0-13.42-2.93,29.78-14.4,62.25-38.08-9.61-9.28-9.62-16.36,0-12.69,13.85-29.66t26-17Q395.21,168.58,395.21,179.07ZM375.68,200.6q0-11.26-9.66-11.27l-3.72,1.47a11,11,0,0,0-2.73,7.35q0,4.89,11.65,14.44Q375.69,205,375.68,200.6Z"/>
      <path d="M874.46,164.18l-1.22-.24-2.93.24q-16.11,11.73-36.87,43.22-15.63,24.9-31,49.8-42,65.43-79.87,105a444.85,444.85,0,0,1-104.3,80.57q-19.31-29.17-35.17-41.2Q562.31,386.12,532,386.11q-49.57,0-101.36,39.82-47.88,36.9-71.08,85-18.81,39.1-18.81,85,0,44.71,24.41,72.57,25.63,29.07,69.58,29.07,54.21,0,116.46-49.07,29.29-22.95,94.73-91.31,47.12-49.07,63.72-49.07c4.06,0,6.1,1.95,6.1,5.86q0,12.45-6.46,36.37t-6.46,36.38q0,15.87,4.89,28.08,6.62,16.61,20.09,16.6,12.24,0,34.78-14.69l12.49-46.53q-5.39,6.57-16.12,12.41Q747.51,589,739.7,589q-16.12,0-16.12-35.82,0-20.7,1.22-28,7.08-42.15,7.08-44.35,0-14.37-6.59-14.37-25.39,0-70.55,51.69-46.4,52.9-94,87.78Q496,652.72,445,652.71q-86.19,0-86.18-75.37,0-35.85,21.23-78.78,23.91-48.54,67.22-76t97-27.44q35.64,0,68.33,50.54Q586,460.81,550.42,473.75l-1.71,2.93,1.22,1q27.08,0,71.7-18.55l8.78,21.72,1.22.25c1.3-.49,2-1.22,2-2.2q0-2.69-7.31-22.22,22-12,46.36-28.56,42.95-29.06,90-93.51Q789.76,297.5,834.18,224a109,109,0,0,0-3.66,27.83q0,25.64,14.65,60.3l3.9-6.59A233.42,233.42,0,0,1,843.94,256Q843.94,203,874.46,164.18Z"/>
      <path d="M473.59,544l3.18,1.22q8.09-12.42,52.87-28l13.71-15.35-2.44-2.67q-21.7,9.77-36.83,9.76-14.13,0-14.14-7.32,0-3.42,4.15-6.6a14.55,14.55,0,0,1,9-3.17q4.63,0,9.27,7.33l11-10.26a7.74,7.74,0,0,0,1-3.9c0-5.7-2.38-8.55-7.11-8.55q-11.3,0-25.38,11.09t-15.08,21.82q5.69,6.09,18.06,11Q475.32,532,473.59,544Z"/>
      <path d="M831.49,773.07q-5.12,16.6-14.16,21l-85.45,42q3.92-15.13,23-24.66Z"/>
      <path d="M878.12,570.43l-12.45,46.22q-15.63,12.14-33,12.13-26.37,0-25.63-48l.24-23.92q-18.44,41-48.58,62.5L771,573.85q24.3-20,30.69-32.22,7.61-13.92,7.61-42.73,0-12.45-1.21-37t-1.21-37q0-6.35,4.81-21.12t8.66-18.43l2.16,1q2.43,42.24,2.44,169.92,0,29.31,20.27,29.3Q860.55,585.57,878.12,570.43Z"/>
      <path d="M934.76,295q-5.12,16.6-14.16,21l-85.44,42q3.9-15.13,22.94-24.66Z"/>
      <path d="M996.53,570.92l-12.45,46.42a36.07,36.07,0,0,1-19.29,5.58q-17.32,0-27.34-15.29Q916.95,633,911.82,633q-5.62,0-16.61-12.94-10.25-12-12.2-18.76-5.62,7.53-21,18l12.21-45.43q11.22-10.49,33.69-31.25,2.43,0,24.17,18.31t37.11,18.31A46.74,46.74,0,0,0,996.53,570.92Z"/>
      <path d="M1023.39,220.82q0,19.05-15.07,35.41t-34.18,16.35q-20.08,0-20.09-17.58,0-19.77,14-38.33,15.18-20.25,34.3-20.26,8.56,0,15.19,8.06A26.12,26.12,0,0,1,1023.39,220.82ZM1007.52,237q0-5.94-8-12.89t-13.87-7q-7.36,0-13.39,6.7t-6,14.13q0,10.68,19.16,10.67Q1007.52,248.66,1007.52,237Z"/>
      <path d="M1070.51,416.87q0,68.85-17.34,113.77-21,53.72-71.77,88.87l12.2-45.66q62.26-49.8,62.26-100.1,0-37.59-23.68-91.06-4.59,23.93-13.77,71.53-3.87,20.52-6.52,20.51l-2.18-.73-.48-3.18q0-19.77,10.21-74.21,10.69-58.85,18.48-67.63,13.38,8.29,23.59,40.28Q1070.49,396.86,1070.51,416.87Z"/>
      <path d="M1118.36,209.59q-5.13,16.6-14.16,21l-85.45,42q3.9-15.13,23-24.66Z"/>
      <path d="M1122.75,290.16q0-7.32-8.79-7.32-12.21,0-12.2-3.42,0-6.1,7.32-6.1a11.88,11.88,0,0,1,4.88,1q2.44-1.69,7-10.28t5.25-12.2a15.25,15.25,0,0,0-5.4-1.69q-10.32,0-23.82,17.82t-13.5,28.32q0,9.53,9.65,9.28,7.67-.24,8.41,1.22-3.91,5.37-25.64,13.43l-29.78,10.25c0,2,1.06,2.93,3.17,2.93q20.51,0,44.92-11.47Q1122.76,308.24,1122.75,290.16Z"/>
      <path d="M1190.44,411.5a525.35,525.35,0,0,0-44.78-103q-15.11,45.4-15.09,136,0,48.82,8,50.29,5.55-2.69,5.55-28.08,0-13.67,6.27-60.54,12.27,23.19,26.52,62.25,16.2,44.69,16.21,63,0,25.64-15.39,50.78-9,14.9-33.44,42.24L1123,646.61Q1110.55,660,1105.17,671a2.12,2.12,0,0,0,2.44,2q2.19,0,10.23-2.93,57-20.74,75.75-54.93,15.83-28.56,15.83-93.5Q1209.42,472.29,1190.44,411.5Z"/>
    </g>
  </g>
</svg>
