<svg xmlns="http://www.w3.org/2000/svg" viewBox="0 0 1500 1000">
  <title>EH-Artboard 98</title>
  <g id="EnNafiu">
    <g>
      <path d="M460.64,258.42q0,18-16.39,39.52l7.47,7.31-8.55,24.15a170.66,170.66,0,0,1-16.12-12.73q-37.83,35.26-57.62,35.26-3.9,0-13.42-2.93,29.78-14.4,62.25-38.09-9.61-9.27-9.62-16.35,0-12.71,13.85-29.67t26-17Q460.64,247.92,460.64,258.42Zm-19.53,21.52q0-11.26-9.66-11.26l-3.72,1.47a10.94,10.94,0,0,0-2.73,7.34q0,4.9,11.65,14.45Q441.12,284.35,441.11,279.94Z"/>
      <path d="M622.41,564.16,610,610.67q-31.49,19.1-51.51,19.09-24.68,0-36.64-31.43l-76.25,57.21q-61.33,46.22-61.33,53.8,0,10.26,33.69,10.26,44.91,0,106.44-24.41,57.87-23.19,95.95-53.47h1.22Q618.61,656.9,561,698.48q-31.74,23-77.4,41.83-51,21-84,21-41,0-41-18.57,0-36.66,65.19-92.61Q449.9,627.93,517.53,581q-.74-11.49-2.2-15.64-2.94-8.79-11.5-9.53-11-1-11-3.18,0-5.61,6.09-20.65t10.24-20.16q3.41-4.39,23.63-8.06,17-2.94,26.79-2.94,24.61,0,24.61,15.1,0,21.42-40.14,61.11,7.82,11,34.67,11Q591.9,588,622.41,564.16Z"/>
      <path d="M678.91,767q-5.13,16.59-14.16,21L579.3,830q3.9-15.15,23-24.66Z"/>
      <path d="M855.42,564.58,843,611.37q-19.54,13.27-39.55,13.26-27.6,0-37.84-30.94-5.62-17.4-6.6-53.77l-1.84-73.73q-2.07-83-2.06-84.48,0-3.16,5.88-20.75T769,340.45h1.44q.74,42.24,2.93,126.22.24,23.44,5.12,69.34,9.76,47.12,37.36,47.12Q836.38,583.13,855.42,564.58Z"/>
      <path d="M1005.08,410.77q0,68.85-17.34,113.77-21,53.7-71.77,88.86l12.2-45.65q62.26-49.8,62.26-100.1,0-37.59-23.68-91.06-4.59,23.93-13.77,71.53-3.87,20.5-6.52,20.51l-2.18-.73-.48-3.18Q943.8,445,954,390.5q10.69-58.83,18.48-67.62,13.38,8.3,23.59,40.28Q1005.08,390.75,1005.08,410.77Z"/>
      <path d="M1052.93,203.49q-5.13,16.6-14.16,21l-85.45,42q3.9-15.14,22.95-24.66Z"/>
      <path d="M650.31,385.62l10-17.58q0-8.54-22.21-16.6-21,32.22-22,34.42a228.11,228.11,0,0,0,21.49,14.9Q643.23,396.86,650.31,385.62Z"/>
      <path d="M646,436.65q-11.49,0-25.39,27.83Q607.62,490.36,607.62,504a15,15,0,0,0,6.1,12.21,19.77,19.77,0,0,0,12.94,4.39q10.5,0,26.85-13.43c3.09,1.31,4.64,4.15,4.64,8.55q0,11.71-14.4,28.81Q631.54,559.2,619.33,567l-12.45,45.9q44.43-32,62.86-91.07,9.64-31,9.65-41,0-14.15-9.65-28.32Q659.36,436.66,646,436.65Z"/>
      <path d="M919.87,170l-69.58,24.42q-16.35,5.61-27.1,22.46L903,188.6Q912.78,185.18,919.87,170Z"/>
      <path d="M859.19,245.33q8.82,6.25,14.44,6.26,17.63,0,29.13-21.24,8.55-15.63,11-36.62l-7.57,2.19q-9.76,29.79-23.93,29.79-9.27,0-9.27-17.82l-5.86,1.46q-18.55,32.47-30,32.47-8.55,0-8.55-11.47l.74-7.57-8.55,4.64q-6.84,18.59-6.83,25.25,0,13.82,14.19,13.81Q844.5,266.48,859.19,245.33Z"/>
      <path d="M876.17,591.67q-10,0-14.16-2.68,19.05-26.12,19-44a42.43,42.43,0,0,0-.73-8.3q-13.68,15.63-26.85,30.76l-12.21,45.32,6.59-5.16q9.76,18,30.76,18,19.78,0,40.29-15l12.45-46.52q-9.78,9.76-25.64,18.31Q887.89,591.67,876.17,591.67Z"/>
      <path d="M886.91,422.24q-6.58-3.17-13.18-6.1-18.32,26.61-22.46,34.67L873,465.94q9.51-6.35,23-33Q894,426.4,886.91,422.24Z"/>
      <path d="M1057.32,284.06q0-7.33-8.79-7.33-12.21,0-12.2-3.41,0-6.1,7.32-6.11a11.88,11.88,0,0,1,4.88,1q2.45-1.69,7-10.28t5.25-12.2a15,15,0,0,0-5.4-1.69q-10.32,0-23.82,17.82T1018,290.16q0,9.52,9.65,9.28c5.11-.16,7.91.24,8.41,1.22q-3.91,5.37-25.64,13.43l-29.78,10.25q0,2.93,3.17,2.93,20.5,0,44.92-11.47Q1057.32,302.12,1057.32,284.06Z"/>
      <path d="M1125,405.4a525.35,525.35,0,0,0-44.78-103q-15.11,45.4-15.09,136,0,48.84,7.95,50.3,5.55-2.68,5.55-28.08,0-13.67,6.27-60.55,12.27,23.21,26.52,62.26,16.2,44.69,16.21,63,0,25.63-15.39,50.78-9,14.9-33.44,42.24l-21.24,22.21q-12.45,13.44-17.82,24.42a2.11,2.11,0,0,0,2.43,2q2.19,0,10.23-2.93,57-20.75,75.75-54.93Q1144,580.45,1144,515.5,1144,466.2,1125,405.4Z"/>
    </g>
  </g>
</svg>
