<svg xmlns="http://www.w3.org/2000/svg" viewBox="0 0 1500 1000">
  <title>EH-Artboard 27</title>
  <g id="ElBasit">
    <g>
      <path d="M421.09,164.54q0,18.06-16.39,39.52l7.47,7.32-8.55,24.15A170.66,170.66,0,0,1,387.5,222.8q-37.85,35.25-57.62,35.26-3.9,0-13.42-2.93,29.78-14.4,62.25-38.09-9.61-9.27-9.62-16.36,0-12.69,13.85-29.66t26-17Q421.09,154.05,421.09,164.54Zm-19.53,21.53q0-11.26-9.66-11.27l-3.72,1.47a11,11,0,0,0-2.73,7.35q0,4.9,11.65,14.45Q401.55,190.48,401.56,186.07Z"/>
      <path d="M617.45,555.66,605,601.81Q567.16,629.22,455.76,655q-2.77,10.26-11.23,24.9l-1.95-1.22,5.12-22q-33.93,5.61-77.39,5.61a196.54,196.54,0,0,1-36.62-3.24l-1-2.25c1.3-2.49,4-4.33,8.06-5.49q17.58-2.22,50.78-7.14,29.29-5.16,66.41-23.87,17.18-65.91,36.31-88.38,13.5-38.82,13.49-65.67,0-14.65-5.12-44.43-5.62-32.47-11-42-17.58,55.19-35.16,120.36-1,4.89-3.41,14.16-3.27,8.55-9,10l-.5-2.19q12.94-54,26.13-108.16,17.58-66.4,37.35-102.29,10.26,13.67,16.36,58.35a484.33,484.33,0,0,1,4.39,61.76q0,11.49-7.47,44.93-7.72,34.43-12.55,42.48,53.29-31,68.61-31,1.95,5.13,2,14.16,0,6.1-4.88,23.68Q559.29,576.91,522,608.64q12.19-3.4,49-23.92T617.45,555.66Zm-66.72-15.13q-39.79,12-53.22,24.05t-27.34,49.68Q542.43,580.57,550.73,540.53Z"/>
      <path d="M673.29,783q-5.13,16.6-14.16,21l-85.45,42q3.9-15.15,23-24.66Z"/>
      <path d="M749.22,419.19a172,172,0,0,1-10.5,58.35q-12.21,33.21-32.23,48.69-10.5,8.19-17.57,7.46-25.15,33.94-49.57,33.94-4.87,15.14-38.33,36.86l12.21-45.16q31.74-29.12,37.6-43.22,2.19-6.09,7.08-18.06l3.17,2.93.74,2.19-2.69,14.41a3.3,3.3,0,0,0,2,3.17q8.79,0,20-13.43,9.76-12,12.45-22,1.71-8.06,5.38-23.92l3.41-2.45,1,1.71q1.47,5.38,1.46,26.37l1.47.49q15.87-7.56,24.66-25.88,5.37-11,9.52-31,3.42-16.11,5.86-17.57C748.24,413.9,749.22,415.94,749.22,419.19Z"/>
      <path d="M895,556.15,882.52,603Q863,616.21,843,616.21q-27.6,0-37.84-30.94-5.62-17.4-6.6-53.78l-1.83-73.73q-2.09-83-2.07-84.47,0-3.17,5.88-20.75T808.57,332H810q.74,42.24,2.93,126.22.24,23.44,5.13,69.34,9.75,47.11,37.35,47.12Q875.93,574.71,895,556.15Z"/>
      <path d="M953.08,341.55q-5.13,16.6-14.16,21l-85.45,42q3.9-15.14,22.95-24.66Z"/>
      <path d="M997.51,206.3q0,19-15.07,35.4t-34.18,16.36q-20.09,0-20.09-17.58,0-19.78,14-38.33,15.18-20.27,34.3-20.27,8.56,0,15.19,8.06A26.15,26.15,0,0,1,997.51,206.3Zm-15.87,16.18q0-6-8-12.9t-13.88-6.94q-7.37,0-13.38,6.69t-6,14.14q0,10.67,19.16,10.66Q981.64,234.13,981.64,222.48Z"/>
      <path d="M1044.63,402.34q0,68.85-17.34,113.77-21,53.71-71.77,88.87l12.2-45.65Q1030,509.52,1030,459.23q0-37.59-23.68-91.07-4.59,23.94-13.77,71.54-3.87,20.51-6.52,20.51l-2.18-.74-.48-3.17q0-19.77,10.21-74.22,10.7-58.83,18.48-67.63,13.38,8.31,23.59,40.29Q1044.63,382.33,1044.63,402.34Z"/>
      <path d="M1092.48,195.07q-5.13,16.6-14.16,21l-85.45,42q3.9-15.13,23-24.66Z"/>
      <path d="M888.38,649.41q-21,32.24-22,34.43l21.48,14.89q11-10,22.7-33Q910.59,657.48,888.38,649.41Z"/>
      <path d="M915.72,583.25q-10,0-14.16-2.68,19.05-26.13,19-44a42.43,42.43,0,0,0-.73-8.3Q906.21,544,893,559.08L880.81,604.4l6.59-5.16q9.76,18,30.76,18,19.79,0,40.29-15l12.45-46.53q-9.76,9.78-25.64,18.31Q927.44,583.25,915.72,583.25Z"/>
      <path d="M1096.87,275.63q0-7.32-8.78-7.32c-8.15,0-12.21-1.14-12.21-3.42q0-6.09,7.32-6.1a12,12,0,0,1,4.89,1q2.43-1.71,7-10.28t5.25-12.2a14.93,14.93,0,0,0-5.4-1.69q-10.32,0-23.82,17.82t-13.5,28.32q0,9.52,9.65,9.28c5.11-.16,7.91.24,8.41,1.22q-3.92,5.37-25.63,13.42l-29.79,10.26q0,2.93,3.17,2.93,20.52,0,44.93-11.48Q1096.87,293.71,1096.87,275.63Z"/>
      <path d="M1164.56,397a525.26,525.26,0,0,0-44.78-103q-15.1,45.41-15.09,136,0,48.84,8,50.29,5.55-2.67,5.55-28.07,0-13.66,6.27-60.55,12.27,23.2,26.52,62.26,16.21,44.67,16.21,63,0,25.64-15.38,50.78-9,14.89-33.45,42.23-10.5,11-21.24,22.22-12.45,13.42-17.82,24.41a2.11,2.11,0,0,0,2.43,2q2.19,0,10.23-2.93,57-20.74,75.75-54.93,15.82-28.58,15.83-93.51Q1183.54,457.78,1164.56,397Z"/>
    </g>
  </g>
</svg>
