<svg xmlns="http://www.w3.org/2000/svg" viewBox="0 0 1500 1000">
  <title>EH-Artboard 58</title>
  <g id="ElWekil">
    <g>
      <path d="M408.4,176.75q0,18.06-16.4,39.52l7.47,7.32-8.54,24.15A168.32,168.32,0,0,1,374.81,235Q337,270.27,317.19,270.26q-3.92,0-13.43-2.93,29.79-14.4,62.26-38.08-9.63-9.28-9.62-16.36,0-12.69,13.85-29.66t26-17Q408.4,166.26,408.4,176.75Zm-19.53,21.53q0-11.26-9.67-11.27l-3.72,1.47a11,11,0,0,0-2.73,7.35q0,4.89,11.65,14.44C387.38,205.22,388.87,201.21,388.87,198.28Z"/>
      <path d="M655.22,439.21q-2.19,5.63-51.75,25.88-38.09,15.63-62.26,23.7,1.95,45.51,4.39,57.5Q553.42,584,577.83,584q11,0,31-16.11l-12.45,46.2Q579.29,627,565.62,627q-26.11,0-34.66-35-26.37,101.36-95,127-20.28,7.57-35.16,7.57-24.42,0-45-20.52t-20.63-45q0-62.07,26.4-99.22,25.41-35.43,84.09-59.39,13.44-5.62,39.36-10.75,28.11-5.86,39.84-10v-10q0-9.27-4-40-4.25-32.22-6.5-37.6A389.34,389.34,0,0,1,528,354.49q13.43,51,12.69,122.56A890,890,0,0,0,654.25,438ZM525.1,509.79V494.14q-75.69,20.05-112.55,41.56-63,36.18-63,92.4,0,25.42,13.41,41.8,14.13,17.6,39,17.6,42.9,0,74.11-28.11Q504.38,634,518,590.7,525.34,567.48,525.1,509.79Z"/>
      <path d="M587.35,680.66q-15.87,32.24-15.62,39.8,14.34-7.56,21.41-11.72,29.93-17.09,33.82-21,9-9,15.32-36.62-28.92,17.58-36.46,20.76Q591.72,678,587.35,680.66Z"/>
      <path d="M657.77,586.18q-17.82,9.29-29.54,9.28-10,0-14.16-2.69Q633,566.66,633,548.83a43.22,43.22,0,0,0-.73-8.3q-13.6,15.63-26.72,30.76l-12.14,45.32,6.56-5.17q9.72,18,30.69,17.95,19.77,0,40.28-15l12.45-46.53Q673.64,577.64,657.77,586.18Z"/>
      <path d="M740.43,770.75q-5.13,16.61-14.16,21l-85.45,42q3.9-15.13,22.95-24.66Z"/>
      <path d="M821,353.76q-5.13,16.61-14.17,21l-85.44,42q3.9-15.13,22.94-24.66Z"/>
      <path d="M994.33,567.87l-12.45,46.4q-15.61,12.47-56.39,29.82-8.18,36.43-39.07,78Q854.2,765.58,822,779.53q-27.09,11.73-68.11,11.73-15.63,0-46.39-5.19-36.62-5.94-37.84-12.61l2-1.49q7.32.24,23.19,2.93,15.15,2.45,23.44,2.44,16.85,0,49.32-9.52Q838.08,747.08,889.84,686q18.07-21.24,20.51-37.11-21.24,5.85-28.56,5.86-22.23,0-22.22-14.65,0-15.39,12.45-38.82,13.92-26.13,27.59-26.12,11.94,0,21.35,9.27t9.41,21.24Q971.38,588.39,994.33,567.87Z"/>
      <path d="M1010.2,218.51q0,19-15.06,35.4T961,270.26q-20.1,0-20.09-17.57,0-19.78,14-38.33,15.2-20.27,34.31-20.27,8.57,0,15.19,8.06A26.2,26.2,0,0,1,1010.2,218.51Zm-15.87,16.17q0-5.94-8-12.89t-13.87-6.95q-7.38,0-13.39,6.7t-6,14.14q0,10.66,19.15,10.66Q994.33,246.34,994.33,234.68Z"/>
      <path d="M1057.32,414.55q0,68.85-17.33,113.77-21,53.71-71.78,88.87l12.21-45.66q62.25-49.8,62.25-100.09,0-37.6-23.68-91.07-4.59,23.92-13.77,71.53-3.87,20.52-6.52,20.51l-2.17-.73-.49-3.17q0-19.78,10.22-74.22,10.69-58.85,18.48-67.63,13.37,8.31,23.58,40.28Q1057.32,394.54,1057.32,414.55Z"/>
      <path d="M1105.17,207.28q-5.12,16.6-14.16,21l-85.44,42q3.9-15.13,22.94-24.65Z"/>
      <path d="M882.52,249.76,879.1,251q-31.26,44.43-78.37,85-51,44.19-96.43,61.77-22.47,8.78-53.47,18.31L649.12,419l1.46,1.7q25.63-3.16,57.13-13.91-7.08,11.72-17.82,40.53-11.24,30.51-11.23,40.52,0,3.66.49,9.77l1.22,1q5.61-2.94,10-17.83,5.37-17.58,8.06-21.24,15.62,20.26,15.62,54.69,0,16.85-10.74,32-6.11,9-23.19,25.39l-12.21,45.66q43-32.72,53.84-81.3,8.16-36.87,8.17-49.07,0-18.31-4.33-43.22-5.28-31-13.25-38.33a271.47,271.47,0,0,0,68.36-37.11q13.18-10,58.84-50.78-5.37,7.1-17.82,45.66-5.13,16.11-14.9,48.58l2.69-.49,3.66-3.9q24.42-62.5,25.39-64.7,21.73-43.21,33.21-64.45,8.54-15.39,12.94-23.44a13.7,13.7,0,0,0,.73-2.69C885.45,250.49,884.47,249.76,882.52,249.76Z"/>
      <path d="M1177.25,409.18a524.76,524.76,0,0,0-44.78-103q-15.09,45.42-15.09,136,0,48.83,8,50.29,5.55-2.69,5.55-28.07,0-13.68,6.27-60.55,12.27,23.19,26.52,62.25,16.2,44.69,16.2,63,0,25.63-15.38,50.78-9,14.89-33.45,42.24l-21.24,22.22q-12.45,13.43-17.82,24.41c.16,1.31,1,1.95,2.44,1.95s4.87-1,10.23-2.93q57-20.75,75.75-54.93,15.83-28.56,15.83-93.5Q1196.24,470,1177.25,409.18Z"/>
      <path d="M1109.57,287.84q0-7.32-8.79-7.32-12.21,0-12.21-3.42,0-6.11,7.33-6.1a11.88,11.88,0,0,1,4.88,1c1.63-1.13,3.94-4.56,7-10.27s4.76-9.79,5.25-12.21a15.25,15.25,0,0,0-5.4-1.69q-10.32,0-23.82,17.83T1070.26,294q0,9.51,9.65,9.27c5.12-.16,7.92.25,8.42,1.22q-3.91,5.38-25.64,13.43l-29.78,10.26c0,1.95,1,2.92,3.17,2.92q20.51,0,44.92-11.47Q1109.56,305.92,1109.57,287.84Z"/>
    </g>
  </g>
</svg>
