<svg xmlns="http://www.w3.org/2000/svg" viewBox="0 0 1500 1000">
  <title>EH-Artboard 51</title>
  <g id="ElWasiu">
    <g>
      <path d="M368.85,236.08q0,18-16.4,39.52l7.47,7.31-8.54,24.15a168.14,168.14,0,0,1-16.12-12.73q-37.85,35.26-57.62,35.26-3.92,0-13.43-2.93,29.79-14.4,62.26-38.09-9.63-9.27-9.63-16.35,0-12.69,13.86-29.67t26-17Q368.85,225.59,368.85,236.08ZM349.32,257.6q0-11.25-9.67-11.26l-3.72,1.47a10.94,10.94,0,0,0-2.73,7.34q0,4.91,11.65,14.45Q349.32,262,349.32,257.6Z"/>
      <path d="M530.62,541.82l-12.45,46.51q-31.5,19.09-51.52,19.09Q442,607.42,430,576l-76.24,57.22q-61.35,46.2-61.34,53.79,0,10.26,33.69,10.27,44.92,0,106.45-24.42,57.85-23.19,95.94-53.47h1.23q-2.94,15.18-60.55,56.76-31.74,23-77.39,41.84-51,21-84,21-41,0-41-18.57,0-36.66,65.18-92.61,26.13-22.25,93.75-69.16-.74-11.49-2.2-15.64-2.94-8.79-11.5-9.53-11-1-11-3.18,0-5.61,6.09-20.65t10.23-20.16q3.4-4.39,23.63-8.06,17.06-2.93,26.8-2.93,24.6,0,24.6,15.09,0,21.42-40.13,61.11,7.8,10.95,34.67,10.95Q500.09,565.67,530.62,541.82Z"/>
      <path d="M587.11,769Q582,785.65,573,790L487.5,832q3.9-15.13,22.95-24.66Z"/>
      <path d="M663,405.27a172.25,172.25,0,0,1-10.5,58.35q-12.21,33.21-32.23,48.69-10.5,8.21-17.58,7.47-25.14,33.93-49.56,33.93-4.87,15.13-38.33,36.87l12.21-45.17q31.74-29.11,37.6-43.21,2.19-6.1,7.08-18.07l3.17,2.93.73,2.2L573,503.66a3.31,3.31,0,0,0,1.95,3.18q8.79,0,20-13.43,9.76-12,12.45-22,1.71-8.07,5.37-23.93l3.42-2.44,1,1.71q1.46,5.37,1.46,26.36l1.47.49q15.87-7.56,24.66-25.88,5.35-11,9.52-31,3.4-16.11,5.86-17.58Q663,400.4,663,405.27Z"/>
      <path d="M801.22,493.16q0,64.95-15.64,93.51-18.78,34.19-75.91,54.93-8.05,2.92-10.26,2.93a2.12,2.12,0,0,1-2.44-1.95q5.37-11,17.82-24.42L736,596q24.42-27.35,33.45-42.24,15.39-25.14,15.38-50.78,0-18.31-16.2-63-14.25-39.06-26.52-62.25-6.27,46.88-6.27,60.54,0,25.39-5.55,28.08-8-1.47-8-50.29,0-90.58,15.09-136a524.76,524.76,0,0,1,44.78,103Q801.22,443.84,801.22,493.16Z"/>
      <path d="M860.55,327.64q-5.13,16.61-14.16,21l-85.45,42q3.9-15.13,22.95-24.66Z"/>
      <path d="M1033.89,541.75l-12.46,46.4Q1005.82,600.62,965,618q-8.17,36.42-39.06,78-32.24,43.51-64.46,57.45-27.09,11.73-68.11,11.74-15.63,0-46.39-5.19-36.62-5.94-37.84-12.62l2-1.48q7.32.24,23.2,2.93,15.13,2.43,23.43,2.44,16.85,0,49.32-9.52,70.54-20.76,122.31-81.79,18.08-21.24,20.51-37.11-21.24,5.87-28.56,5.86-22.23,0-22.22-14.65,0-15.37,12.45-38.81,13.92-26.13,27.59-26.13,11.94,0,21.35,9.28t9.41,21.24Q1010.93,562.26,1033.89,541.75Z"/>
      <path d="M1049.75,192.38q0,19.05-15.06,35.4t-34.18,16.36q-20.1,0-20.09-17.58,0-19.77,14-38.33,15.2-20.26,34.31-20.26,8.57,0,15.19,8.06A26.15,26.15,0,0,1,1049.75,192.38Zm-15.86,16.18q0-6-8-12.9T1012,188.72c-4.92,0-9.37,2.23-13.39,6.7s-6,9.17-6,14.13q0,10.66,19.15,10.66Q1033.89,220.21,1033.89,208.56Z"/>
      <path d="M1096.87,388.43q0,68.85-17.33,113.77-21,53.71-71.78,88.86L1020,545.41q62.25-49.8,62.26-100.1,0-37.59-23.69-91.06-4.59,23.92-13.77,71.53-3.87,20.5-6.52,20.51l-2.17-.73-.49-3.18q0-19.77,10.22-74.22,10.7-58.83,18.48-67.62,13.37,8.29,23.59,40.28Q1096.86,368.41,1096.87,388.43Z"/>
      <path d="M1144.73,181.15q-5.13,16.6-14.16,21l-85.45,42q3.9-15.13,23-24.66Z"/>
      <path d="M1149.12,261.72q0-7.32-8.79-7.33-12.21,0-12.21-3.41,0-6.1,7.33-6.11a11.88,11.88,0,0,1,4.88,1q2.45-1.69,7-10.28t5.25-12.2a15,15,0,0,0-5.4-1.69q-10.32,0-23.82,17.82t-13.51,28.32q0,9.53,9.65,9.28c5.12-.16,7.92.24,8.42,1.22q-3.92,5.37-25.64,13.43L1072.46,302c0,2,1,2.93,3.17,2.93q20.5,0,44.92-11.47Q1149.11,279.78,1149.12,261.72Z"/>
      <path d="M1216.8,383.06A524.76,524.76,0,0,0,1172,280q-15.09,45.41-15.09,136,0,48.83,8,50.29,5.55-2.69,5.55-28.08,0-13.67,6.27-60.54,12.27,23.19,26.52,62.25,16.2,44.69,16.2,63,0,25.63-15.38,50.78-9,14.89-33.45,42.24l-21.24,22.21q-12.45,13.44-17.82,24.42c.16,1.3,1,1.95,2.44,1.95s4.87-1,10.23-2.93q57-20.75,75.75-54.93,15.82-28.56,15.83-93.51Q1235.79,443.86,1216.8,383.06Z"/>
    </g>
  </g>
</svg>
