<svg xmlns="http://www.w3.org/2000/svg" viewBox="0 0 1500 1000">
  <title>EH-Artboard 82</title>
  <g id="ElWelijj">
    <g>
      <path d="M650.15,562.5q-8.79,44.19-74.22,116-68.37,75-108.89,74.95-34.92,0-34.91-19.64,0-32.85,22.22-66.79Q467,648,502.2,609.62q33.2-35.89,45.16-56.15,19.78-33.93,19.78-82.77,0-33.69-4.65-46.87-21,53.22-46,109.13l-3.42-3.42q5.35-35.4,28-94.73,20.7-54.93,40.7-91.06,6.59,5.37,7.56,36.62-.25-6.83-.25,40.53a354.72,354.72,0,0,1-27.83,137.94,238.63,238.63,0,0,1-36.13,60.3q-6.6,7.82-48.59,51.51-22.21,23.21-22.21,30.28,0,6.11,13.91,6.1,77.64,0,174.32-140.38,3.66-5.61,6.1-5.61Z"/>
      <path d="M710.21,392.58q-5.13,16.6-14.17,21l-85.44,42q3.9-15.13,22.94-24.66Z"/>
      <path d="M883.54,606.69l-12.45,46.4q-15.62,12.46-56.39,29.82-8.18,36.44-39.07,78-32.22,43.51-64.45,57.45-27.09,11.73-68.11,11.74-15.63,0-46.39-5.19-36.61-5.94-37.84-12.62l1.95-1.48q7.32.24,23.19,2.93,15.15,2.44,23.44,2.44,16.85,0,49.32-9.52,70.54-20.76,122.31-81.79,18.08-21.24,20.51-37.11-21.24,5.87-28.56,5.86-22.23,0-22.22-14.64,0-15.39,12.45-38.82Q775.15,614,788.82,614q11.94,0,21.35,9.28t9.41,21.24Q860.59,627.21,883.54,606.69Z"/>
      <path d="M899.41,257.32q0,19.05-15.06,35.4t-34.18,16.36q-20.1,0-20.09-17.58,0-19.77,14-38.33,15.19-20.25,34.31-20.26,8.56,0,15.19,8.06A26.15,26.15,0,0,1,899.41,257.32ZM883.54,273.5q0-5.94-8-12.9t-13.87-6.94q-7.38,0-13.39,6.7t-6,14.13q0,10.67,19.15,10.67Q883.53,285.16,883.54,273.5Z"/>
      <path d="M946.53,453.37q0,68.85-17.33,113.77-21,53.72-71.78,88.87l12.21-45.66q62.25-49.8,62.25-100.1,0-37.59-23.68-91.06-4.59,23.93-13.77,71.53-3.87,20.5-6.52,20.51l-2.17-.73-.49-3.18q0-19.77,10.22-74.21,10.69-58.85,18.48-67.63,13.37,8.29,23.58,40.28Q946.53,433.36,946.53,453.37Z"/>
      <path d="M994.38,246.09q-5.11,16.61-14.16,21l-85.44,42q3.9-15.13,22.94-24.66Z"/>
      <path d="M526,175.19q-4-5.26-9.64-5.27-12.47,0-25.41,12.13T478,206.42l1,5.88a58.08,58.08,0,0,0,6.43,8.32q-29.1,17.16-57.44,24,8.33,4.89,14.44,4.88,15.65,0,51.87-23.92,15.66,6.82,25,7.08Q523.19,220.16,523,217l-.24-3.68-7.31-5.39q14.65-15.43,14.65-21.57A18.06,18.06,0,0,0,526,175.19Zm-18.37,27.94q-10.57-8.31-10.58-13.43,0-9,8.18-9,7.68,2.94,7.69,8.79Q512.94,195.08,507.65,203.13Z"/>
      <path d="M482.18,269.87q-9.53,0-9-11.39l.25-4.85L467,255.08q-18.07,28.86-29.3,28.86-7.82,0-7.81-9l1.71-10.91-5.05.49q-12,16.4-12,29.36l1.71,8.57q5.12,6.6,12.17,6.6,19,0,30.45-19.66,5.83,6.24,9.74,6.23,32.38,0,46-52.49l-6.11,1.46Q495.61,269.88,482.18,269.87Z"/>
      <path d="M1066.46,448a524.76,524.76,0,0,0-44.78-103q-15.09,45.4-15.09,136,0,48.82,8,50.29,5.55-2.68,5.55-28.08,0-13.67,6.27-60.54,12.27,23.19,26.52,62.25,16.2,44.68,16.2,63,0,25.64-15.38,50.78-9,14.9-33.45,42.24L999,683.11q-12.45,13.42-17.82,24.41c.16,1.3,1,2,2.44,2s4.87-1,10.23-2.93q57-20.74,75.75-54.93,15.83-28.56,15.83-93.5Q1085.45,508.79,1066.46,448Z"/>
      <path d="M998.78,326.66q0-7.32-8.79-7.32-12.21,0-12.21-3.42,0-6.1,7.33-6.11a11.88,11.88,0,0,1,4.88,1c1.63-1.13,3.94-4.56,7-10.28s4.76-9.78,5.25-12.2a15.25,15.25,0,0,0-5.4-1.69q-10.32,0-23.82,17.82t-13.51,28.32q0,9.53,9.65,9.28c5.12-.16,7.92.25,8.42,1.22q-3.91,5.37-25.64,13.43l-29.78,10.25c0,2,1,2.93,3.17,2.93q20.51,0,44.92-11.47Q998.77,344.74,998.78,326.66Z"/>
    </g>
  </g>
</svg>
