<svg xmlns="http://www.w3.org/2000/svg" viewBox="0 0 1500 1000">
  <title>EH-Artboard 76</title>
  <g id="ElMukaddim">
    <g>
      <path d="M379.1,280.51q0,18-16.39,39.52l7.47,7.32-8.55,24.15a170.85,170.85,0,0,1-16.12-12.74Q307.66,374,287.89,374q-3.9,0-13.43-2.93,29.79-14.4,62.26-38.08-9.63-9.28-9.62-16.36Q327.1,304,341,287t26-17Q379.1,270,379.1,280.51ZM359.57,302q0-11.27-9.67-11.27l-3.72,1.47a11,11,0,0,0-2.72,7.35q0,4.89,11.65,14.44C358.08,309,359.57,305,359.57,302Z"/>
      <path d="M591,319.34q-8,58.1-65.37,113.28Q474.42,476.32,423,520.26,320,616,320,686.52q0,44.93,69.26,71.05,52.92,20,106.32,20a382.54,382.54,0,0,0,41-2.2l-3.66,3.91q-32.22,8.3-43.46,8.3-72.51,0-118.65-20.51-64-28.08-64-91.06,0-82.53,97.41-176.27,35.4-33.94,105-87.41-1.47-2.19-1.47-8.79,0-3.9,8.78-32.47,23.69,0,40-12.94,10-7.56,21-24.17Q586.62,320.07,591,319.34Z"/>
      <path d="M765.58,585.94l-12.46,46.48a173.85,173.85,0,0,1-28.07,16q-19.78,9.35-29.79,9.33-27.09,0-27.1-40.77a111.59,111.59,0,0,1,1.47-15.87h-2q-1.47,0-7,6.72T639.6,643.55q-36.87,68.61-68.6,84.23-18.57,9-32.48,11.48-10.5,1.95-34.66,2a266.1,266.1,0,0,1-27.59-2q-21.24-2.49-24.9-5.49l.73-1.5,3.42-2q36.86,0,60.06-7.56t52.73-29.54q31.74-23.45,44.92-42.73,16.85-27.35,33.69-54.93,24.95-38.58,38.82-44.68l2.44,2.2.49,2.44q-.74,2.45-2.2,10.25A131.49,131.49,0,0,0,684,591.06q0,26.13,21.73,26.13Q728,617.19,765.58,585.94Z"/>
      <path d="M821.24,225.59q-5.13,16.6-14.16,21l-85.45,42q3.9-15.13,23-24.65Z"/>
      <path d="M956,280.51q0,18-16.4,39.52l7.47,7.32-8.55,24.15a169.51,169.51,0,0,1-16.11-12.74Q884.58,374,864.8,374q-3.91,0-13.43-2.93,29.77-14.4,62.25-38.08Q904,323.73,904,316.65,904,304,917.85,287t26-17Q956,270,956,280.51ZM936.47,302q0-11.27-9.66-11.27l-3.72,1.47a11,11,0,0,0-2.73,7.35q0,4.89,11.65,14.44C935,309,936.47,305,936.47,302Z"/>
      <path d="M1012.65,586.91l-12.46,46.42a36.07,36.07,0,0,1-19.28,5.59q-17.34,0-27.35-15.3Q933.06,649,927.93,649q-5.62,0-16.6-12.94-10.26-12-12.21-18.76-5.62,7.53-21,18l12.21-45.43q11.24-10.49,33.69-31.25,2.44,0,24.17,18.31t37.11,18.31A46.77,46.77,0,0,0,1012.65,586.91Z"/>
      <path d="M1039.5,236.82q0,19-15.07,35.4t-34.17,16.35q-20.1,0-20.09-17.57,0-19.78,14-38.33,15.2-20.26,34.3-20.27,8.58,0,15.19,8.06A26.15,26.15,0,0,1,1039.5,236.82ZM1023.63,253q0-5.94-8-12.89t-13.88-6.95q-7.37,0-13.38,6.7t-6,14.14q0,10.67,19.16,10.66Q1023.63,264.65,1023.63,253Z"/>
      <path d="M1086.62,432.86q0,68.85-17.33,113.77-21,53.72-71.78,88.87l12.21-45.66Q1072,540,1072,489.75q0-37.61-23.68-91.07-4.59,23.93-13.77,71.53-3.87,20.52-6.52,20.51l-2.17-.73-.49-3.17q0-19.79,10.21-74.22Q1046.26,353.77,1054,345q13.37,8.31,23.58,40.28Q1086.62,412.85,1086.62,432.86Z"/>
      <path d="M1134.47,225.59q-5.13,16.6-14.16,21l-85.45,42q3.9-15.13,23-24.65Z"/>
      <path d="M511.18,359.12Q507.52,362.78,500,374l77.39-31q12.45-5.13,20-21l-70.07,27.84Q516.55,354,511.18,359.12Z"/>
      <path d="M581,295.9q-7.83,0-7.82-23.93l-4.88,1.47Q549.76,313,535.84,313c-3.75,0-5.62-2.11-5.62-6.35a71.6,71.6,0,0,1,3.42-20.75l-5.79,1q-13.5,22.69-13.5,35,0,16.13,14.37,16.12,8.78,0,18-6.35T559.65,317q7.3,5.26,14.37,5.27,18.75,0,30.2-23.93a91.62,91.62,0,0,0,9-40.77L606.88,260Q595.17,295.9,581,295.9Z"/>
      <path d="M797.7,593.51q33.54-38.58,33.55-62.26,0-31-14.11-31-6.81,0-20.44,10.76t-25.31,31.29Q759,564.3,759,579.94a34.74,34.74,0,0,0,1.21,9.29l-12.46,46.93a306.19,306.19,0,0,0,27.8-22.34q14.85,17.43,23.39,23.81A51.87,51.87,0,0,0,830.17,648a93,93,0,0,0,51.76-15.42l12.69-47.25q-26.85,20.67-58.1,20.68Q806.24,606,797.7,593.51Zm-14.25-18.7q-8.36-9.72-8.35-15.57,0-4.38,11-14.11t15.72-9.73q12.78,0,12.78,9.49Q814.65,558.75,783.45,574.81Z"/>
      <path d="M850.84,413.57q2.92-12.45,4.15-18.79-35.65,22-55.67,30-15.14,30-15.13,36.38l.24,2.93Q846.2,433.35,850.84,413.57Z"/>
      <path d="M1138.87,306.15q0-7.32-8.79-7.32-12.21,0-12.21-3.42,0-6.11,7.32-6.1a12,12,0,0,1,4.89,1q2.43-1.69,7-10.27t5.24-12.21a15.14,15.14,0,0,0-5.4-1.69q-10.31,0-23.82,17.83t-13.5,28.32q0,9.51,9.65,9.27c5.11-.16,7.92.25,8.41,1.22q-3.9,5.38-25.63,13.43l-29.79,10.26q0,2.93,3.18,2.93,20.5,0,44.92-11.48Q1138.86,324.22,1138.87,306.15Z"/>
      <path d="M1206.55,427.49a525.35,525.35,0,0,0-44.78-103q-15.09,45.42-15.09,136,0,48.82,8,50.29,5.53-2.69,5.54-28.07,0-13.68,6.27-60.55,12.29,23.19,26.52,62.26,16.21,44.67,16.21,63,0,25.64-15.38,50.78-9,14.9-33.45,42.24l-21.24,22.22Q1126.66,676,1121.29,687c.16,1.31,1,2,2.44,2s4.86-1,10.22-2.92q57-20.76,75.76-54.94,15.82-28.56,15.83-93.5Q1225.54,488.28,1206.55,427.49Z"/>
    </g>
  </g>
</svg>
