<svg xmlns="http://www.w3.org/2000/svg" viewBox="0 0 1500 1000">
  <title>EH-Artboard 92</title>
  <g id="ElMuqsit">
    <g>
      <path d="M397.29,164.54q0,18.06-16.4,39.52l7.48,7.32-8.55,24.15A170.66,170.66,0,0,1,363.7,222.8q-37.84,35.25-57.62,35.26-3.91,0-13.43-2.93,29.79-14.4,62.26-38.09-9.63-9.27-9.62-16.36,0-12.69,13.85-29.66t26-17Q397.29,154.05,397.29,164.54Zm-19.53,21.53q0-11.26-9.67-11.27l-3.72,1.47a11,11,0,0,0-2.73,7.35q0,4.9,11.65,14.45Q377.76,190.48,377.76,186.07Z"/>
      <path d="M593.65,555.66,581.2,601.81Q543.36,629.22,432,655q-2.77,10.26-11.23,24.9l-2-1.22,5.13-22q-33.93,5.61-77.39,5.61a196.46,196.46,0,0,1-36.62-3.24l-1-2.25c1.3-2.49,4-4.33,8.06-5.49q17.58-2.22,50.78-7.14,29.29-5.16,66.4-23.87,17.18-65.91,36.32-88.38Q484,493.16,484,466.31q0-14.65-5.13-44.43-5.61-32.47-11-42-17.58,55.19-35.16,120.36-1,4.89-3.42,14.16-3.25,8.55-9,10l-.5-2.19q12.94-54,26.12-108.16,17.58-66.4,37.36-102.29,10.25,13.67,16.35,58.35a484.47,484.47,0,0,1,4.4,61.76q0,11.49-7.48,44.93-7.71,34.43-12.54,42.48,53.28-31,68.61-31,1.95,5.13,1.95,14.16,0,6.1-4.88,23.68-14.14,50.79-51.45,82.52,12.21-3.4,48.95-23.92T593.65,555.66Zm-66.72-15.13q-39.79,12-53.22,24.05t-27.35,49.68Q518.63,580.57,526.93,540.53Z"/>
      <path d="M649.49,783q-5.13,16.6-14.16,21l-85.45,42q3.9-15.15,23-24.66Z"/>
      <path d="M746.17,555.86,733.47,603q-17.82,13.18-44.19,13.19-20.5,0-32.71-14.65-11.24-13.68-11.23-33.95a72.25,72.25,0,0,1,.73-10.26l-5.35,1a85.23,85.23,0,0,1-20.18,23.09q-15.06,11.67-27.71,10.19a153.12,153.12,0,0,1-15.36,12.78l12.45-46q6.27-3.92,11.1-16.39,5.31-13.92,9.18-17.82l1.93.73a199.44,199.44,0,0,1-2,20.51q5.4,0,17.67-11.72,10.54-10,14.23-16.6,2.2-4.15,7.11-20.26,1-3.68,5.4-7.57l1.47,1.46.49,11.23q0,1.71-1.47,11.23,2.46,0,10.52-5.86,9-6.58,18.55-26.12,8.79-18.56,9.77-19l1.22,1.46v4.89q0,21.24-11,46.63-12,27.58-28.32,37.84,2.45,26.61,33.94,26.61Q719.31,579.59,746.17,555.86Z"/>
      <path d="M772.53,206.3q0,19-15.06,35.4t-34.18,16.36q-20.1,0-20.09-17.58,0-19.78,14-38.33,15.2-20.27,34.3-20.27,8.58,0,15.2,8.06A26.2,26.2,0,0,1,772.53,206.3Zm-15.87,16.18q0-6-8-12.9t-13.87-6.94q-7.38,0-13.39,6.69t-6,14.14q0,10.67,19.16,10.66Q756.66,234.13,756.66,222.48Z"/>
      <path d="M937.82,250q0,18.06-16.4,39.52l7.47,7.32L920.35,321a169.73,169.73,0,0,1-16.12-12.73q-37.85,35.25-57.62,35.26-3.92,0-13.43-2.93,29.77-14.41,62.26-38.09-9.63-9.27-9.63-16.36,0-12.69,13.86-29.66t26-17Q937.82,239.5,937.82,250Zm-19.53,21.53q0-11.26-9.67-11.27l-3.72,1.47a11,11,0,0,0-2.73,7.35q0,4.9,11.65,14.45Q918.29,275.93,918.29,271.52Z"/>
      <path d="M994.46,556.4,982,602.81a36,36,0,0,1-19.29,5.59q-17.34,0-27.34-15.3-20.52,25.39-25.64,25.39-5.62,0-16.6-12.94-10.26-12-12.21-18.76-5.61,7.53-21,18l12.2-45.43q11.24-10.5,33.69-31.25,2.45,0,24.17,18.31t37.11,18.31A46.84,46.84,0,0,0,994.46,556.4Z"/>
      <path d="M1021.31,206.3q0,19-15.07,35.4t-34.17,16.36q-20.1,0-20.09-17.58,0-19.78,14-38.33,15.19-20.27,34.3-20.27,8.58,0,15.19,8.06A26.15,26.15,0,0,1,1021.31,206.3Zm-15.87,16.18q0-6-8-12.9t-13.87-6.94q-7.38,0-13.39,6.69t-6,14.14q0,10.67,19.16,10.66Q1005.44,234.13,1005.44,222.48Z"/>
      <path d="M1068.43,402.34q0,68.85-17.33,113.77-21,53.71-71.78,88.87l12.21-45.65q62.25-49.82,62.25-100.1,0-37.59-23.68-91.07-4.59,23.94-13.77,71.54-3.87,20.51-6.52,20.51l-2.17-.74-.49-3.17q0-19.77,10.21-74.22,10.71-58.83,18.49-67.63,13.37,8.31,23.58,40.29Q1068.43,382.33,1068.43,402.34Z"/>
      <path d="M1116.28,195.07q-5.12,16.6-14.16,21l-85.45,42q3.92-15.13,22.95-24.66Z"/>
      <path d="M779.51,563q33.56-38.58,33.55-62.26,0-31-14.11-31-6.81,0-20.44,10.75T753.2,511.77q-12.41,22-12.4,37.65a35.14,35.14,0,0,0,1.2,9.29l-12.45,46.93a305.89,305.89,0,0,0,27.79-22.34q14.86,17.43,23.39,23.82A51.92,51.92,0,0,0,812,617.43,93,93,0,0,0,863.74,602l12.69-47.25q-26.85,20.68-58.1,20.68Q788.06,575.44,779.51,563ZM765.26,544.3q-8.35-9.74-8.35-15.58,0-4.37,11.05-14.11t15.72-9.73q12.78,0,12.78,9.49Q796.46,528.25,765.26,544.3Z"/>
      <path d="M832.65,383.06q2.93-12.45,4.15-18.8-35.65,22-55.66,30Q766,424.32,766,430.66l.24,2.93Q828,402.84,832.65,383.06Z"/>
      <path d="M1120.68,275.63q0-7.32-8.79-7.32-12.21,0-12.21-3.42,0-6.09,7.33-6.1a11.92,11.92,0,0,1,4.88,1q2.43-1.71,7-10.28t5.25-12.2a15,15,0,0,0-5.41-1.69q-10.31,0-23.81,17.82t-13.51,28.32q0,9.52,9.65,9.28c5.11-.16,7.92.24,8.41,1.22q-3.9,5.37-25.63,13.42L1044,315.92q0,2.93,3.18,2.93,20.5,0,44.92-11.48Q1120.67,293.71,1120.68,275.63Z"/>
      <path d="M1188.36,397a525.26,525.26,0,0,0-44.78-103q-15.09,45.41-15.09,136,0,48.84,8,50.29,5.54-2.67,5.54-28.07,0-13.66,6.28-60.55,12.27,23.2,26.52,62.26,16.2,44.67,16.2,63,0,25.64-15.38,50.78-9,14.89-33.45,42.23-10.5,11-21.24,22.22-12.45,13.42-17.82,24.41a2.12,2.12,0,0,0,2.44,2c1.45,0,4.87-1,10.22-2.93q57-20.74,75.76-54.93,15.82-28.58,15.83-93.51Q1207.35,457.78,1188.36,397Z"/>
    </g>
  </g>
</svg>
