<svg xmlns="http://www.w3.org/2000/svg" viewBox="0 0 1500 1000">
  <title>EH-Artboard 75</title>
  <g id="ElMuktedir">
    <g>
      <path d="M382.93,297.11q0,18.06-16.39,39.52L374,344l-8.55,24.15a170.94,170.94,0,0,1-16.11-12.73q-37.85,35.25-57.62,35.26-3.92,0-13.43-2.93,29.77-14.42,62.25-38.09-9.62-9.27-9.62-16.36,0-12.69,13.85-29.66t26-17Q382.93,286.62,382.93,297.11ZM363.4,318.64q0-11.26-9.66-11.27L350,308.84a11,11,0,0,0-2.73,7.35q0,4.89,11.65,14.44Q363.41,323.05,363.4,318.64Z"/>
      <path d="M505.25,465.48q0,26.22-8.06,27.68l-6.59-8.05q-6.84.24-11.23,8.07Q467.4,514,454,547.44q-11,28.11-22,56-9.28,22-28.57,43.51-20.51,23-40.77,32-22.95,10.51-63.23,10.51-60.79,0-62.75-6.29l2.45-1.76q51.27,0,95.21-21.95,45.64-22.92,73.24-64.63,14.9-22.68,32-60.24L462,484.34q19-37.8,29.54-37.81,5.85,0,10,6.8A22.54,22.54,0,0,1,505.25,465.48Z"/>
      <path d="M562.38,769q-5.13,16.61-14.16,21l-85.45,42q3.9-15.13,23-24.66Z"/>
      <path d="M728.39,541.5,715.94,588a173.51,173.51,0,0,1-28.07,16q-19.79,9.33-29.79,9.33-27.11,0-27.1-40.77a111.34,111.34,0,0,1,1.47-15.87h-2q-1.46,0-7,6.71t-21.12,35.77q-36.87,68.61-68.61,84.23-18.55,9-32.47,11.47-10.5,2-34.67,2a266.12,266.12,0,0,1-27.58-2q-21.24-2.49-24.91-5.49l.74-1.5,3.41-2q36.87,0,60.06-7.57t52.74-29.54q31.73-23.43,44.92-42.72Q592.9,578.62,609.74,551q24.94-38.58,38.82-44.68l2.44,2.19.49,2.45q-.74,2.44-2.2,10.25a131.49,131.49,0,0,0-2.44,25.39q0,26.13,21.73,26.12Q690.8,572.75,728.39,541.5Z"/>
      <path d="M784.06,181.15q-5.13,16.6-14.16,21l-85.45,42q3.9-15.13,22.95-24.66Z"/>
      <path d="M757.2,365.48Q726.44,385.25,702,395.26q-15.88,30.76-15.38,39.8,12.89-6.84,19.22-10.5,31.88-17.82,35.28-21.24Q750.87,394,757.2,365.48Z"/>
      <path d="M776.31,560.06q-17.82,9.29-29.54,9.28-10,0-14.16-2.69,19-26.11,19-43.94a42.57,42.57,0,0,0-.74-8.31Q737.24,530,724.1,545.17l-12.16,45.31,6.57-5.16q9.72,18,30.7,17.95,19.78,0,40.29-15L802,541.75Q792.19,551.52,776.31,560.06Z"/>
      <path d="M828.49,192.38q0,19.05-15.07,35.4t-34.17,16.36q-20.1,0-20.09-17.58,0-19.77,14-38.33Q788.32,168,807.42,168q8.58,0,15.19,8.06A26.1,26.1,0,0,1,828.49,192.38Zm-15.87,16.18q0-6-8-12.9t-13.88-6.94q-7.37,0-13.38,6.7t-6,14.13q0,10.66,19.16,10.66Q812.62,220.21,812.62,208.56Z"/>
      <path d="M993.77,236.08q0,18-16.39,39.52l7.47,7.31-8.55,24.15a169.33,169.33,0,0,1-16.11-12.73q-37.85,35.26-57.63,35.26-3.9,0-13.42-2.93,29.77-14.4,62.25-38.09-9.61-9.27-9.62-16.35,0-12.69,13.85-29.67t26-17Q993.77,225.59,993.77,236.08ZM974.24,257.6q0-11.25-9.66-11.26l-3.72,1.47a10.94,10.94,0,0,0-2.73,7.34q0,4.91,11.65,14.45Q974.25,262,974.24,257.6Z"/>
      <path d="M1050.42,542.48,1038,588.9a36.06,36.06,0,0,1-19.28,5.58q-17.34,0-27.35-15.29-20.51,25.39-25.63,25.39-5.62,0-16.6-12.94-10.26-12-12.21-18.76-5.62,7.53-21,18l12.21-45.43q11.22-10.5,33.69-31.25,2.44,0,24.17,18.31t37.11,18.31A46.77,46.77,0,0,0,1050.42,542.48Z"/>
      <path d="M1077.27,192.38q0,19.05-15.07,35.4T1028,244.14q-20.1,0-20.1-17.58,0-19.77,14-38.33Q1037.08,168,1056.2,168q8.58,0,15.19,8.06A26.1,26.1,0,0,1,1077.27,192.38Zm-15.87,16.18q0-6-8-12.9t-13.88-6.94q-7.36,0-13.38,6.7t-6,14.13q0,10.66,19.16,10.66Q1061.4,220.21,1061.4,208.56Z"/>
      <path d="M1124.39,388.43q0,68.85-17.33,113.77-21,53.71-71.78,88.86l12.21-45.65q62.25-49.8,62.25-100.1,0-37.59-23.68-91.06-4.59,23.92-13.77,71.53-3.87,20.5-6.52,20.51l-2.18-.73-.48-3.18q0-19.77,10.21-74.22,10.71-58.83,18.48-67.62,13.38,8.29,23.59,40.28Q1124.39,368.41,1124.39,388.43Z"/>
      <path d="M1172.24,181.15q-5.13,16.6-14.16,21l-85.45,42q3.9-15.13,22.95-24.66Z"/>
      <path d="M835.47,549.07Q869,510.51,869,486.82q0-31-14.12-31-6.81,0-20.43,10.76t-25.31,31.29q-12.4,22-12.41,37.64a35.14,35.14,0,0,0,1.2,9.29L785.5,591.73a304.8,304.8,0,0,0,27.8-22.35q14.85,17.45,23.39,23.82a51.85,51.85,0,0,0,31.25,10.32,92.92,92.92,0,0,0,51.76-15.43l12.69-47.25q-26.85,20.68-58.1,20.68Q844,561.52,835.47,549.07Zm-14.25-18.69q-8.36-9.72-8.35-15.57,0-4.38,11-14.11T839.64,491q12.78,0,12.78,9.48Q852.42,514.33,821.22,530.38Z"/>
      <path d="M888.61,369.14q2.92-12.45,4.15-18.8-35.65,22-55.67,30Q822,410.4,822,416.75l.24,2.93Q884,388.92,888.61,369.14Z"/>
      <path d="M1176.64,261.72q0-7.32-8.79-7.33-12.21,0-12.21-3.41,0-6.1,7.32-6.11a12,12,0,0,1,4.89,1q2.43-1.69,7-10.28c3-5.72,4.77-9.78,5.25-12.2a14.93,14.93,0,0,0-5.4-1.69q-10.32,0-23.82,17.82t-13.5,28.32q0,9.53,9.65,9.28c5.11-.16,7.92.24,8.41,1.22q-3.9,5.37-25.63,13.43L1100,302c0,2,1.06,2.93,3.18,2.93q20.5,0,44.92-11.47Q1176.63,279.78,1176.64,261.72Z"/>
      <path d="M1244.32,383.06a525.35,525.35,0,0,0-44.78-103q-15.09,45.41-15.09,136,0,48.83,8,50.29,5.53-2.69,5.54-28.08,0-13.67,6.27-60.54,12.29,23.19,26.52,62.25,16.21,44.69,16.21,63,0,25.63-15.38,50.78-9,14.89-33.45,42.24l-21.24,22.21q-12.45,13.44-17.82,24.42c.16,1.3,1,1.95,2.44,1.95s4.86-1,10.22-2.93q57-20.75,75.75-54.93,15.84-28.56,15.84-93.51Q1263.31,443.86,1244.32,383.06Z"/>
    </g>
  </g>
</svg>
