<svg xmlns="http://www.w3.org/2000/svg" viewBox="0 0 1500 1000">
  <title>EH-Artboard 89</title>
  <g id="ErReuf">
    <g>
      <path d="M346.87,244.26q0,18-16.39,39.52l7.47,7.31-8.55,24.15a169.33,169.33,0,0,1-16.11-12.73q-37.85,35.26-57.62,35.26-3.91,0-13.43-2.93,29.77-14.4,62.25-38.09-9.62-9.27-9.62-16.35,0-12.7,13.85-29.67t26-17Q346.87,233.76,346.87,244.26Zm-19.53,21.52q0-11.26-9.66-11.26L314,256a10.94,10.94,0,0,0-2.73,7.34q0,4.91,11.65,14.45Q327.35,270.19,327.34,265.78Z"/>
      <path d="M711.86,524.29q0,10.26-15.12,43.46-9.27,20.5-16.35,30Q641.84,650,547.65,690.06q-88.81,37.61-159.09,37.6-116.4,0-116.39-90.58,0-41,28.56-74.7,23.19-27.35,59.56-44.44,25.4-12,77.38-24.17Q503.83,478.4,517.26,474q62.49-19.77,108.38-59.57-7.32-4.64-19.78-14.41,8.29-11.46,26.14-32a157.14,157.14,0,0,1,14.65,8.55q10,6.84,10.26,12.2l-10.26,17.58q-7.57,11.47-13.19,14.16l-4.15-3.66Q575.57,469.61,519.87,486l-72.31,20.51q-48.13,14.16-78.91,27.59-75.24,33-75.24,83.49,0,40.53,44.7,58.6,31.75,13.19,79.4,13.18,59.85,0,148-38.64Q660.08,609.13,687,563.14a9.78,9.78,0,0,0,1.47-5.13q0-9.78-7.58-14.92-10.26,14.65-29.07,14.65-11.47,0-13.92-7.08,3.89-16.85,15.09-37.84,13.88-26.37,25.08-26.37,9,0,21.42,13.43T711.86,524.29Z"/>
      <path d="M885.45,217.4q0,18-16.4,39.52l7.48,7.32L868,288.39a169.58,169.58,0,0,1-16.12-12.74Q814,310.92,794.24,310.91q-3.91,0-13.43-2.93,29.79-14.4,62.26-38.08-9.63-9.28-9.62-16.36,0-12.69,13.85-29.66t26-17Q885.45,206.91,885.45,217.4Zm-19.53,21.53q0-11.27-9.67-11.27l-3.72,1.47a11,11,0,0,0-2.73,7.35q0,4.89,11.65,14.44Q865.92,243.33,865.92,238.93Z"/>
      <path d="M915.72,358q-9.29,0-9.28-17.82l-5.86,1.46q-18.55,32.47-30,32.48-8.55,0-8.55-11.48l.73-7.57-8.54,4.64q-6.84,18.6-6.84,25.25,0,13.81,14.2,13.81,16.4,0,31.08-21.15,8.8,6.25,14.44,6.26,17.63,0,29.12-21.24,8.56-15.62,11-36.62l-7.57,2.2Q929.89,358,915.72,358Z"/>
      <path d="M953.32,302.37l-69.58,24.41q-16.37,5.63-27.1,22.46l79.83-28.32Q946.24,317.52,953.32,302.37Z"/>
      <path d="M1045.36,550.17l-12.69,47.12q-30.29,17.58-42.24,25.63-28.56,19.05-34.91,31.5Q936,696.66,916.45,738.65q-28.32,53.7-59.08,64-23.43,8-51.51,8-56.4,0-72.51-9.51l-.73-1.23,2-2.2a163.46,163.46,0,0,0,32,2.93q44.93,0,85-28.81,35.4-25.87,59.82-68.36,1.7-3.16,23.19-45.9,13.92-27.83,27-43.58t41.38-33.32Q1034.38,561.16,1045.36,550.17Z"/>
      <path d="M1118.85,396.61q0,68.83-17.34,113.77-21,53.7-71.77,88.86l12.2-45.65q62.26-49.8,62.26-100.1,0-37.59-23.68-91.06-4.59,23.93-13.77,71.53-3.87,20.51-6.52,20.51l-2.18-.73-.48-3.18q0-19.77,10.21-74.22,10.7-58.83,18.48-67.62,13.38,8.29,23.59,40.28Q1118.84,376.59,1118.85,396.61Z"/>
      <path d="M1166.7,189.33q-5.13,16.6-14.16,21l-85.45,42q3.9-15.13,23-24.66Z"/>
      <path d="M792.92,390.9q20.51,0,44.92-11.51,28.56-13.69,28.56-31.81,0-7.35-8.79-7.35-12.2,0-12.2-3.42,0-6.12,7.31-6.12a11.87,11.87,0,0,1,4.87,1Q860,330,864.53,321.4c3-5.73,4.75-9.79,5.24-12.21a15,15,0,0,0-5.39-1.69q-10.3,0-23.79,17.89T827.1,353.74q0,9.51,9.65,9.26c5.11-.17,7.92.24,8.41,1.22q-3.9,5.38-25.63,13.46L789.74,388Q789.74,390.9,792.92,390.9Z"/>
      <path d="M845.9,429.08q-11.24,0-17.09,10.74-19.29,34.92-19.29,51.27a15.1,15.1,0,0,0,6.59,12.69,24,24,0,0,0,14.65,4.89q18.06,0,31.74-15.14,3.66,10.5,3.66,15.38,0,17.58-15.87,44.43-22.95,39.07-61.89,70.2T705.76,669.8q-14.16,4.89-42.72,12-19.29,4.89-19.29,7.08,0,4.65,17.82,4.64,61.27,0,93.75-11,44.92-15.13,86.67-78.86,40.53-62.5,40.53-112.8Q882.52,429.09,845.9,429.08Z"/>
      <path d="M1238.78,391.24a525.35,525.35,0,0,0-44.78-103q-15.11,45.41-15.09,136,0,48.84,7.95,50.3,5.55-2.69,5.55-28.08,0-13.67,6.27-60.55,12.27,23.2,26.52,62.26,16.2,44.69,16.21,63,0,25.64-15.39,50.78-9,14.9-33.44,42.24l-21.24,22.21q-12.45,13.44-17.83,24.42a2.12,2.12,0,0,0,2.44,2q2.19,0,10.23-2.93,57-20.74,75.75-54.93,15.83-28.56,15.83-93.51Q1257.76,452,1238.78,391.24Z"/>
      <path d="M1171.09,269.9q0-7.33-8.79-7.33-12.21,0-12.2-3.41,0-6.11,7.32-6.11a11.88,11.88,0,0,1,4.88,1q2.45-1.69,7-10.28t5.25-12.2a15,15,0,0,0-5.4-1.69q-10.32,0-23.82,17.82T1131.79,276q0,9.53,9.65,9.28c5.11-.16,7.91.24,8.41,1.22q-3.91,5.37-25.64,13.43l-29.78,10.25q0,2.93,3.17,2.93,20.51,0,44.92-11.47Q1171.09,288,1171.09,269.9Z"/>
    </g>
  </g>
</svg>
