<svg xmlns="http://www.w3.org/2000/svg" viewBox="0 0 1500 1000">
  <title>EH-Artboard 70</title>
  <g id="ElWadzid">
    <g>
      <path d="M376.46,236.08q0,18-16.39,39.52l7.47,7.31L359,307.06a169.33,169.33,0,0,1-16.11-12.73Q305,329.6,285.26,329.59q-3.92,0-13.43-2.93,29.78-14.4,62.25-38.09-9.61-9.27-9.62-16.35,0-12.69,13.85-29.67t26-17Q376.46,225.59,376.46,236.08ZM356.93,257.6q0-11.25-9.66-11.26l-3.72,1.47a10.94,10.94,0,0,0-2.73,7.34q0,4.91,11.65,14.45Q356.94,262,356.93,257.6Z"/>
      <path d="M537.35,541.5,524.9,588a173.51,173.51,0,0,1-28.07,16Q477,613.28,467,613.28q-27.1,0-27.1-40.77a111.34,111.34,0,0,1,1.47-15.87h-2q-1.45,0-6.95,6.71t-21.12,35.77q-36.87,68.61-68.61,84.23-18.56,9-32.47,11.47-10.5,2-34.67,2a266.12,266.12,0,0,1-27.58-2q-21.24-2.49-24.91-5.49l.74-1.5,3.41-2q36.87,0,60.06-7.57t52.74-29.54Q371.82,625.25,385,606,401.86,578.62,418.7,551q24.94-38.58,38.82-44.68l2.44,2.19.49,2.45q-.74,2.44-2.2,10.25a131.49,131.49,0,0,0-2.44,25.39q0,26.13,21.73,26.12Q499.76,572.75,537.35,541.5Z"/>
      <path d="M593,769q-5.13,16.61-14.16,21l-85.45,42q3.9-15.13,22.95-24.66Z"/>
      <path d="M842.29,493.16q0,64.95-15.64,93.51-18.79,34.19-75.92,54.93-8.06,2.92-10.25,2.93c-1.47,0-2.28-.65-2.44-1.95q5.37-11,17.82-24.42L777.1,596q24.4-27.35,33.45-42.24,15.38-25.14,15.38-50.78,0-18.31-16.21-63-14.25-39.06-26.52-62.25-6.27,46.88-6.27,60.54,0,25.39-5.55,28.08-7.95-1.47-8-50.29,0-90.58,15.09-136a525.35,525.35,0,0,1,44.78,103Q842.29,443.84,842.29,493.16Z"/>
      <path d="M901.61,327.64q-5.13,16.61-14.16,21l-85.45,42q3.9-15.13,23-24.66Z"/>
      <path d="M1075,541.75l-12.45,46.4q-15.63,12.47-56.4,29.82-8.16,36.42-39.06,78-32.22,43.51-64.45,57.45-27.11,11.73-68.12,11.74-15.63,0-46.38-5.19-36.63-5.94-37.85-12.62l2-1.48q7.32.24,23.19,2.93,15.14,2.43,23.44,2.44,16.84,0,49.31-9.52,70.56-20.76,122.32-81.79Q988.52,638.67,991,622.8q-21.24,5.87-28.57,5.86-22.21,0-22.21-14.65,0-15.37,12.45-38.81,13.9-26.13,27.58-26.13,12,0,21.36,9.28t9.41,21.24Q1052,562.26,1075,541.75Z"/>
      <path d="M1090.82,192.38q0,19.05-15.07,35.4t-34.17,16.36q-20.1,0-20.1-17.58,0-19.77,14-38.33,15.18-20.26,34.3-20.26,8.58,0,15.19,8.06A26.1,26.1,0,0,1,1090.82,192.38ZM1075,208.56q0-6-8-12.9t-13.88-6.94q-7.36,0-13.38,6.7t-6,14.13q0,10.66,19.16,10.66Q1074.95,220.21,1075,208.56Z"/>
      <path d="M1137.94,388.43q0,68.85-17.33,113.77-21,53.71-71.78,88.86L1061,545.41q62.25-49.8,62.25-100.1,0-37.59-23.68-91.06-4.59,23.92-13.77,71.53-3.87,20.5-6.52,20.51l-2.18-.73-.48-3.18q0-19.77,10.21-74.22,10.71-58.83,18.48-67.62,13.38,8.29,23.59,40.28Q1137.94,368.41,1137.94,388.43Z"/>
      <path d="M1185.79,181.15q-5.13,16.6-14.16,21l-85.45,42q3.9-15.13,23-24.66Z"/>
      <path d="M660.16,417.24a111.91,111.91,0,0,1-14.41-1.35,113.38,113.38,0,0,0-14.4-1.34q-37.85,0-55.42,17.33-16.12,15.63-22.85,54-4.74,27.34-4.74,32l.24,13.92L533.2,544.68l-12.45,45.9a262.51,262.51,0,0,0,30-23.69,432,432,0,0,0,11.48,61.77l1.7.73a4.2,4.2,0,0,0,1.47-2.93V625q-5.62-51.75-5.37-60.55v-5.86q33-33,66.16-65.91a285.63,285.63,0,0,1,78.61-50.3q2.68-4.14,6-17.58c2.19-8.94,3.29-15.38,3.29-19.28l-.24-2.69Q689.93,417.25,660.16,417.24Zm-64.7,71.53q-24.42,24.9-37.11,35.16v-9.28a77.54,77.54,0,0,1,6.1-29q8.55-21.24,27.84-27.35,11-3.66,40.52-4.15Q618.91,464.85,595.46,488.77Z"/>
      <path d="M563,664.31q-20.26,30.51-22.46,34.42,10.74,8.29,21.73,15.38,15.13-19.29,22.7-33.2Q585,672.12,563,664.31Z"/>
      <path d="M1257.87,383.06a525.35,525.35,0,0,0-44.78-103Q1198,325.44,1198,416q0,48.83,8,50.29,5.54-2.69,5.54-28.08,0-13.67,6.27-60.54,12.29,23.19,26.52,62.25,16.21,44.69,16.21,63,0,25.63-15.38,50.78-9,14.89-33.45,42.24l-21.24,22.21q-12.45,13.44-17.82,24.42a2.11,2.11,0,0,0,2.43,1.95q2.19,0,10.23-2.93,57-20.75,75.75-54.93,15.84-28.56,15.84-93.51Q1276.86,443.86,1257.87,383.06Z"/>
      <path d="M1190.19,261.72q0-7.32-8.79-7.33-12.21,0-12.21-3.41,0-6.1,7.32-6.11a12,12,0,0,1,4.89,1q2.43-1.69,6.95-10.28c3-5.72,4.77-9.78,5.25-12.2a14.93,14.93,0,0,0-5.4-1.69q-10.32,0-23.82,17.82t-13.5,28.32q0,9.53,9.65,9.28c5.11-.16,7.92.24,8.41,1.22q-3.9,5.37-25.63,13.43L1113.52,302c0,2,1.06,2.93,3.18,2.93q20.5,0,44.92-11.47Q1190.18,279.78,1190.19,261.72Z"/>
    </g>
  </g>
</svg>
