<svg xmlns="http://www.w3.org/2000/svg" viewBox="0 0 1500 1000">
  <title>EH-Artboard 74</title>
  <g id="ElKadir">
    <g>
      <path d="M408.45,297.11q0,18.06-16.4,39.52l7.47,7.32L391,368.1a171,171,0,0,1-16.12-12.73Q337,390.62,317.24,390.63q-3.92,0-13.43-2.93,29.79-14.42,62.26-38.09-9.63-9.27-9.62-16.36,0-12.69,13.85-29.66t26-17Q408.45,286.62,408.45,297.11Zm-19.53,21.53q0-11.26-9.67-11.27l-3.72,1.47a11,11,0,0,0-2.73,7.35q0,4.89,11.65,14.44Q388.92,323.05,388.92,318.64Z"/>
      <path d="M530.76,465.48q0,26.22-8,27.68l-6.6-8.05q-6.84.24-11.23,8.07-12,20.77-25.39,54.26-11,28.11-22,56-9.28,22-28.56,43.51-20.52,23-40.78,32Q365.23,689.46,325,689.45q-60.79,0-62.74-6.29l2.44-1.76q51.27,0,95.21-21.95,45.66-22.92,73.25-64.63,14.88-22.68,32-60.24l22.46-50.24q19-37.8,29.54-37.81,5.86,0,10,6.8A22.54,22.54,0,0,1,530.76,465.48Z"/>
      <path d="M587.89,769q-5.13,16.61-14.16,21l-85.45,42q3.9-15.13,23-24.66Z"/>
      <path d="M731.2,472.17q0,49.56-34.18,112.06Q662.6,648,609.86,675.78q-14.16,7.58-57.13,12.7-35.88,4.39-61,4.39-13.92,0-17.58-1.22l-1-1.71q5.39-1,18.07-2.2,33.69-3.18,70.31-20.29,70.32-33,120.12-100.69,31-42,31-59.4,0-12-10.5-23t-22.46-11q-14.16,0-46.63,14.66-35.65,16.14-35.65,28.36,0,1.22,8.37,9.53a71.86,71.86,0,0,1,15.25,22q8.37,18.81,8.36,45.21,0,7.33-3.71,19.31-4.47,14.41-9.92,14.42l-2.23-2,1.7-14.4q0-9.76-20.26-35.51t-20.26-40.63q0-5.37,7.81-26.36,7.32-20,11.72-27.34Q602.3,467,641.6,448.23q38.58-18.28,56.89-18.3,14.14,0,23.92,14.65A48.23,48.23,0,0,1,731.2,472.17Z"/>
      <path d="M894.53,542.24,882.08,589q-19.53,13.26-39.55,13.25-27.6,0-37.84-30.94-5.62-17.4-6.59-53.77l-1.84-73.73q-2.07-83-2.07-84.47,0-3.18,5.89-20.76t8-20.5h1.44q.73,42.24,2.93,126.22.24,23.43,5.13,69.33,9.75,47.13,37.35,47.12Q875.48,560.79,894.53,542.24Z"/>
      <path d="M952.64,181.15q-5.13,16.6-14.16,21l-85.45,42q3.9-15.13,23-24.66Z"/>
      <path d="M1051.76,192.38q0,19.05-15.07,35.4t-34.18,16.36q-20.09,0-20.09-17.58,0-19.77,14-38.33,15.18-20.26,34.3-20.26,8.57,0,15.19,8.06A26.1,26.1,0,0,1,1051.76,192.38Zm-15.87,16.18q0-6-8-12.9T1014,188.72q-7.37,0-13.39,6.7t-6,14.13q0,10.66,19.16,10.66Q1035.89,220.21,1035.89,208.56Z"/>
      <path d="M1098.88,388.43q0,68.85-17.34,113.77-21,53.71-71.77,88.86l12.2-45.65q62.27-49.8,62.26-100.1,0-37.59-23.68-91.06-4.59,23.92-13.77,71.53-3.87,20.5-6.52,20.51l-2.18-.73-.48-3.18q0-19.77,10.21-74.22,10.7-58.83,18.48-67.62,13.38,8.29,23.59,40.28Q1098.86,368.41,1098.88,388.43Z"/>
      <path d="M1146.73,181.15q-5.13,16.6-14.16,21l-85.45,42q3.9-15.13,23-24.66Z"/>
      <path d="M929.1,549.07q33.54-38.57,33.55-62.25,0-31-14.12-31-6.81,0-20.43,10.76t-25.31,31.29q-12.4,22-12.41,37.64a35.14,35.14,0,0,0,1.2,9.29l-12.45,46.94a306.18,306.18,0,0,0,27.8-22.35q14.85,17.45,23.39,23.82a51.83,51.83,0,0,0,31.25,10.32,92.87,92.87,0,0,0,51.75-15.43l12.7-47.25q-26.87,20.68-58.11,20.68Q937.64,561.52,929.1,549.07Zm-14.25-18.69q-8.36-9.72-8.36-15.57,0-4.38,11.06-14.11T933.27,491Q946,491,946,500.45,946,514.33,914.85,530.38Z"/>
      <path d="M982.23,369.14q2.94-12.45,4.16-18.8-35.65,22-55.67,30-15.13,30-15.14,36.38l.25,2.93Q977.59,388.92,982.23,369.14Z"/>
      <path d="M1218.81,383.06A525.35,525.35,0,0,0,1174,280q-15.1,45.41-15.09,136,0,48.83,8,50.29,5.55-2.69,5.55-28.08,0-13.67,6.27-60.54,12.27,23.19,26.52,62.25,16.2,44.69,16.21,63,0,25.63-15.39,50.78-9,14.89-33.44,42.24l-21.24,22.21q-12.45,13.44-17.83,24.42a2.12,2.12,0,0,0,2.44,1.95q2.19,0,10.23-2.93,57-20.75,75.75-54.93,15.82-28.56,15.83-93.51Q1237.79,443.86,1218.81,383.06Z"/>
      <path d="M1151.12,261.72q0-7.32-8.79-7.33-12.21,0-12.2-3.41,0-6.1,7.32-6.11a11.88,11.88,0,0,1,4.88,1q2.45-1.69,7-10.28t5.25-12.2a15,15,0,0,0-5.4-1.69q-10.32,0-23.82,17.82t-13.5,28.32q0,9.53,9.65,9.28c5.11-.16,7.91.24,8.41,1.22q-3.92,5.37-25.64,13.43L1074.46,302c0,2,1.06,2.93,3.17,2.93q20.5,0,44.92-11.47Q1151.13,279.78,1151.12,261.72Z"/>
    </g>
  </g>
</svg>
