<svg xmlns="http://www.w3.org/2000/svg" viewBox="0 0 1500 1000">
  <title>EH-Artboard 55</title>
  <g id="ElBais">
    <g>
      <path d="M333.57,236.08q0,18-16.4,39.52l7.48,7.31-8.55,24.15A170.66,170.66,0,0,1,300,294.33q-37.85,35.26-57.62,35.26-3.92,0-13.43-2.93,29.79-14.4,62.26-38.09-9.63-9.27-9.62-16.35,0-12.69,13.85-29.67t26-17Q333.57,225.59,333.57,236.08ZM314,257.6q0-11.25-9.67-11.26l-3.72,1.47a10.94,10.94,0,0,0-2.73,7.34q0,4.91,11.65,14.45Q314,262,314,257.6Z"/>
      <path d="M737.38,769q-5.13,16.61-14.16,21l-85.45,42q3.9-15.13,23-24.66Z"/>
      <path d="M860.67,392q0,7.08-13.19,35.42-20.75,11.73-77.14,64.48-7.15,40.79-23.69,121.83l-1.95-.24-.49-1q6.35-23.44,17.83-113.28-23.94,24.4-48.1,48.58a436,436,0,0,1-49.32,42.73l12.21-45.17q37.59-25.63,59.08-52.25a140.41,140.41,0,0,0-19.77,2.08,140.55,140.55,0,0,1-20,2.07q-9.76,0-22.71-6.59Q659,483.4,659,474.61q0-7.32,10.5-36.62,12.93-35.89,59.32-49.56,26.61-7.81,33.21-7.81,10.15,0,16.6,10a34.88,34.88,0,0,1,5.61,19.21l-5.61,33.56q11.22-2,18.31-6.57,2.43-1.46,31.25-26.52Q852.13,389.86,859,389.6A2.82,2.82,0,0,1,860.67,392Zm-95,55q0-23.19-24.9-23.19-13.44,0-29.79,5.61-18.32,6.1-24.41,16.36c2.11,1.31,5.28,3.17,9.52,5.62q14.64,1.21,16.35,1.22Q749.58,452.64,765.7,447Z"/>
      <path d="M982.49,542.24,970,589q-19.53,13.26-39.55,13.25-27.59,0-37.84-30.94Q887,554,886.06,517.58l-1.84-73.73q-2.07-83-2.07-84.47,0-3.18,5.89-20.76t8.05-20.5h1.44q.74,42.24,2.93,126.22.24,23.43,5.13,69.33,9.76,47.13,37.35,47.12Q963.46,560.79,982.49,542.24Z"/>
      <path d="M1040.6,327.64q-5.13,16.61-14.16,21l-85.45,42q3.9-15.13,23-24.66Z"/>
      <path d="M1085,192.38q0,19.05-15.06,35.4t-34.18,16.36q-20.1,0-20.09-17.58,0-19.77,14-38.33Q1044.86,168,1064,168q8.57,0,15.19,8.06A26.15,26.15,0,0,1,1085,192.38Zm-15.87,16.18q0-6-8-12.9t-13.87-6.94q-7.38,0-13.39,6.7t-6,14.13q0,10.66,19.16,10.66Q1069.16,220.21,1069.16,208.56Z"/>
      <path d="M1132.15,388.43q0,68.85-17.33,113.77-21,53.71-71.78,88.86l12.21-45.65q62.25-49.8,62.25-100.1,0-37.59-23.68-91.06-4.59,23.92-13.77,71.53-3.87,20.5-6.52,20.51l-2.17-.73-.49-3.18q0-19.77,10.22-74.22,10.7-58.83,18.48-67.62,13.37,8.29,23.58,40.28Q1132.15,368.41,1132.15,388.43Z"/>
      <path d="M1180,181.15q-5.12,16.6-14.16,21l-85.45,42q3.91-15.13,22.95-24.66Z"/>
      <path d="M643.87,560.06a27,27,0,0,1-17.45-6.2,19.32,19.32,0,0,1-7.7-15.69q0-6.31,4.52-18T628,502.43L627,500l-3.91.49-113,105.38q-72.75,63.81-138.18,63.81-35.16,0-63-27.25T281.08,580a90.74,90.74,0,0,1,6.59-33.73q35.61-89.19,183.93-89.19,34.39,0,60.5-10,48.78-18.81,56.35-23.95l-.24-2.69q-63,25.39-113,25.15l-43-.25q-52-.24-92.28,26.13t-61,74.21q-10.74,24.68-10.74,45.17,0,49.8,27.59,83,29.55,35.4,78.38,35.4,45.64,0,101.82-41.57,35.4-26.4,84.48-78.24,41.26-43.51,47.12-44.74l.49,1.22q-2,5.9-2,15.7,0,16.17,7.72,27.21,8.64,12.75,24,12.75,12,0,30.76-13.23L681,541.76Q664.14,560.06,643.87,560.06Z"/>
      <path d="M527.66,361.82a11.63,11.63,0,0,1,7.81,2.93l3.91,7.08q12.93,0,24.9-32.47.24-15.14-16.84-15.14-21.5,0-51.76,40-29.3,38.58-29.54,61.28Q502,361.82,527.66,361.82Z"/>
      <path d="M975.9,635.5q-21,32.22-22,34.42l21.48,14.89q11-10,22.71-32.95Q998.12,643.55,975.9,635.5Z"/>
      <path d="M1003.25,569.34q-10,0-14.16-2.69,19-26.11,19-43.94a42.61,42.61,0,0,0-.73-8.31Q993.72,530,980.54,545.17l-12.21,45.31,6.6-5.16q9.75,18,30.76,17.95,19.77,0,40.28-15l12.45-46.52q-9.76,9.76-25.63,18.31Q1015,569.35,1003.25,569.34Z"/>
      <path d="M1184.4,261.72q0-7.32-8.79-7.33-12.21,0-12.21-3.41,0-6.1,7.33-6.11a11.92,11.92,0,0,1,4.88,1q2.43-1.69,7-10.28t5.25-12.2a15,15,0,0,0-5.4-1.69q-10.32,0-23.82,17.82t-13.51,28.32q0,9.53,9.65,9.28c5.11-.16,7.92.24,8.41,1.22q-3.9,5.37-25.63,13.43L1107.73,302c0,2,1.06,2.93,3.18,2.93q20.5,0,44.92-11.47Q1184.39,279.78,1184.4,261.72Z"/>
      <path d="M1252.08,383.06a524.76,524.76,0,0,0-44.78-103q-15.09,45.41-15.09,136,0,48.83,8,50.29,5.53-2.69,5.55-28.08,0-13.67,6.27-60.54,12.27,23.19,26.52,62.25,16.2,44.69,16.2,63,0,25.63-15.38,50.78-9,14.89-33.45,42.24l-21.24,22.21q-12.45,13.44-17.82,24.42c.16,1.3,1,1.95,2.44,1.95s4.87-1,10.23-2.93q57-20.75,75.75-54.93,15.83-28.56,15.83-93.51Q1271.07,443.86,1252.08,383.06Z"/>
    </g>
  </g>
</svg>
