<svg xmlns="http://www.w3.org/2000/svg" viewBox="0 0 1500 1000">
  <title>EH-Artboard 78</title>
  <g id="ElEwwel">
    <g>
      <path d="M436.72,230.58q0,18.06-16.4,39.52l7.47,7.32-8.54,24.15a169.39,169.39,0,0,1-16.12-12.73q-37.85,35.25-57.62,35.26-3.92,0-13.43-2.93,29.79-14.4,62.26-38.09-9.63-9.27-9.62-16.36,0-12.69,13.85-29.66t26-17Q436.72,220.09,436.72,230.58Zm-19.53,21.53q0-11.27-9.67-11.27l-3.72,1.47a11,11,0,0,0-2.73,7.35q0,4.91,11.65,14.45Q417.19,256.52,417.19,252.11Z"/>
      <path d="M752.64,382.93l-1,2.93q-68.11,35.65-136.72,63.48a417.4,417.4,0,0,1,9.28,85.21q0,78.12-49.61,157.71-26.4,42.24-48.14,61-31,26.61-70.87,26.61-46.19,0-68.43-39.8-17.34-31.25-17.35-81.54,0-34.67,22.22-72.27A215,215,0,0,1,443.31,527q35.9-29.06,108.89-61.53,0-6.09-.25-26.61-.5-18.79-.49-31.74a288.07,288.07,0,0,1,13.68-87.4q30.51,51.53,48.09,120.85,55.9-20.74,137.21-59.32ZM606.15,545q0-38.32-12.21-87.64l-30.51,12.45q-1.74,9.28-4.21,71.29-2,51.51-8.9,63l-2.72,1.22-2.72-1.71q4.39-25.39,5.61-64.21,1-32.23,1.71-64.45-52.91,23.92-100.93,63.23-69,56.64-69,121.58,0,32.72,19,54.69,20.24,22.95,52.43,22.95,60.72,0,106.57-59.09T606.15,545ZM591.5,448.61q-7.32-23.92-10.5-32.23a187.59,187.59,0,0,0-13.91-30.52q-3.42,4.15-3.42,74.71Z"/>
      <path d="M791.21,562.62q0,50.29-40.53,112.8Q708.94,739.14,664,754.27q-32.47,11-93.75,11-17.82,0-17.82-4.64,0-2.19,19.29-7.08,28.56-7.08,42.72-12,43.69-15.14,82.64-46.27T759,625.12q15.87-26.85,15.87-44.43,0-4.89-3.66-15.38-13.68,15.13-31.74,15.13a24,24,0,0,1-14.65-4.88,15.1,15.1,0,0,1-6.59-12.69q0-16.36,19.29-51.27,5.87-10.74,17.09-10.75Q791.21,500.85,791.21,562.62Z"/>
      <path d="M909.86,313.6q-5.13,16.61-14.16,21l-85.45,42q3.9-15.13,23-24.66Z"/>
      <path d="M1008.74,284.55q0,19-15.07,35.4T959.5,336.3q-20.1,0-20.1-17.57,0-19.78,14-38.33,15.18-20.26,34.3-20.27,8.57,0,15.19,8.06A26.15,26.15,0,0,1,1008.74,284.55Zm-15.87,16.17q0-5.94-8-12.89T971,280.88q-7.37,0-13.38,6.7t-6,14.14q0,10.66,19.16,10.66Q992.87,312.38,992.87,300.72Z"/>
      <path d="M1076.85,261.11q-5.11,16.61-14.16,21l-85.44,42q3.9-15.14,22.94-24.66Z"/>
      <path d="M592.48,421l79.83-28.32q9.77-3.42,16.85-18.55l-69.58,24.41Q603.21,404.19,592.48,421Z"/>
      <path d="M651.56,429.81q-9.28,0-9.28-17.82l-5.86,1.46q-18.55,32.48-30,32.47-8.55,0-8.55-11.47l.73-7.57L590,431.52q-6.84,18.6-6.84,25.25,0,13.82,14.2,13.81,16.4,0,31.08-21.15,8.81,6.26,14.44,6.26,17.63,0,29.12-21.24,8.57-15.63,11-36.62L675.49,400Q665.73,429.81,651.56,429.81Z"/>
      <path d="M807.54,459.4q20.51,0,44.92-11.49,28.47-13.68,28.47-31.76,0-7.32-8.74-7.33-12.13,0-12.13-3.42,0-6.11,7.28-6.11a11.82,11.82,0,0,1,4.86,1q2.41-1.69,6.91-10.27t5.22-12.21A14.91,14.91,0,0,0,879,376.1q-10.29,0-23.74,17.87t-13.46,28.34q0,9.48,9.63,9.23,7.67-.24,8.4,1.23-3.9,5.37-25.63,13.44l-29.79,10.25Q804.36,459.4,807.54,459.4Z"/>
      <path d="M971.73,399.69Q943.8,485.15,943.8,583.28c0,2.28.81,3.42,2.44,3.42q3.66,0,6.1-16.13,1.23-10.76,2.44-21.26,3.91-28.09,16.36-82.58,23.68,25.89,23.68,73.54a208,208,0,0,1-4.38,41.54q-6.84,34-31.21,75.26Q930,707.16,903.89,707.15q-18.28,0-33.39-26.63,49.13-85,49.13-180.55,0-21.25-11.48-99.43l-3.9-2.94-2.2,2q-1,10.74-12.65,36.4l-17.51,37.13Q835.4,555.65,835.4,619.9q0,36.65,2.93,53.26Q772.17,743,696.24,769.65l-4.15,4.4v1.22l2.2,1q14.16,0,45.41-8.31,71-18.8,110.12-60.06,12.7,25,23.47,35.73,16.14,16,38.63,16,24.69,0,56.23-66.62,24.69-51.74,33.73-92.25,12.48-55.63,12.47-79.31,0-63-33.07-136.66Q976.63,384.8,971.73,399.69Zm-121,209q0-45.2,41-130.71,11,27.36,11,50.33,0,63-44.92,121.19A129,129,0,0,1,850.78,608.68Z"/>
      <path d="M1081.25,341.67q0-7.32-8.79-7.32-12.21,0-12.21-3.42,0-6.09,7.33-6.1a11.88,11.88,0,0,1,4.88,1q2.43-1.71,7-10.28t5.25-12.2a15,15,0,0,0-5.4-1.69q-10.32,0-23.82,17.82t-13.51,28.32q0,9.53,9.65,9.28c5.12-.16,7.92.24,8.41,1.22q-3.9,5.37-25.63,13.42L1004.58,382q0,2.93,3.18,2.93,20.5,0,44.92-11.48Q1081.24,359.75,1081.25,341.67Z"/>
      <path d="M1148.93,463a524.67,524.67,0,0,0-44.78-103q-15.09,45.4-15.09,136,0,48.84,8,50.29,5.55-2.67,5.55-28.07,0-13.67,6.27-60.55,12.27,23.21,26.52,62.26,16.2,44.67,16.2,63,0,25.64-15.38,50.78-9,14.9-33.45,42.23-10.5,11-21.24,22.22-12.45,13.43-17.82,24.41a2.12,2.12,0,0,0,2.44,2q2.19,0,10.23-2.93,57-20.74,75.75-54.93,15.83-28.57,15.83-93.51Q1167.92,523.82,1148.93,463Z"/>
    </g>
  </g>
</svg>
