<svg xmlns="http://www.w3.org/2000/svg" viewBox="0 0 1500 1000">
  <title>EH-Artboard 14</title>
  <g id="ElAziz">
    <g>
      <path d="M514.53,272.7q0,18-16.4,39.52l7.47,7.31-8.54,24.16A168.32,168.32,0,0,1,480.94,331q-37.85,35.26-57.62,35.26-3.92,0-13.43-2.93,29.78-14.4,62.26-38.08-9.63-9.29-9.63-16.36,0-12.69,13.86-29.67t26-17Q514.53,262.21,514.53,272.7ZM495,294.22Q495,283,485.33,283l-3.72,1.47a10.94,10.94,0,0,0-2.73,7.34q0,4.91,11.65,14.45Q495,298.63,495,294.22Z"/>
      <path d="M567.26,449l-2.44-5.12q-5.37-5.13-19.78-11.23-12,17.08-22.46,34.67l22,14.89Q559.69,462.89,567.26,449Z"/>
      <path d="M596.56,534.18q-12,7.08-23.93,13.92-17.58,10.24-37.6,33.2-13.66,15.63-27.58,43.21-11.24,23.21-22.71,46.39a198.91,198.91,0,0,1-59.81,67.87q-40.77,29.29-84.48,29.3A161.61,161.61,0,0,1,308,765.14l-2,2.19.49,1.24q15.87,9.25,79.59,9.26,42.22,0,70.56-25.63,21.48-19.55,40.77-60.31,15.62-34.9,31.25-70.06,5.61-11.24,35.15-31,12.21-8.3,42.24-26.12l12.69-47.12A124.87,124.87,0,0,1,596.56,534.18Z"/>
      <path d="M615.84,520.26l-12.45,45.9q29-24.4,39.76-69.33,8.34-34.92,8.34-42,0-28.06-15-49.31-9.09,5.13-17.93,26.85-7.37,18.08-9.57,32.72l.49,1.71,2.68-.25a43.85,43.85,0,0,1,10.26-13.42q11,12.69,11,38.08v5.37Q625.13,513.42,615.84,520.26Z"/>
      <path d="M589.48,627.44q-15.15,30.28-15.14,38.09l.24,1.71q16.36-5.62,38.09-20.51,25.88-17.58,28.57-30.27l3.9-18.8Q611,618.17,608.76,618.9A194.13,194.13,0,0,0,589.48,627.44Z"/>
      <path d="M756.23,793.46q-5.13,16.59-14.16,21l-85.45,42q3.9-15.15,23-24.66Z"/>
      <path d="M843.38,534.18q-12,7.08-23.92,13.92-17.58,10.24-37.6,33.2-13.68,15.63-27.59,43.21Q743,647.72,731.57,670.9a198.84,198.84,0,0,1-59.82,67.87q-40.77,29.29-84.47,29.3a161.54,161.54,0,0,1-32.47-2.93l-1.95,2.19.48,1.24q15.88,9.25,79.59,9.26,42.24,0,70.56-25.63,21.48-19.55,40.77-60.31,15.63-34.9,31.25-70.06,5.61-11.24,35.16-31,12.21-8.3,42.24-26.12l12.69-47.12A125,125,0,0,1,843.38,534.18Z"/>
      <path d="M814.09,449l-2.44-5.12q-5.39-5.13-19.78-11.23-12,17.08-22.46,34.67l22,14.89Q806.52,462.89,814.09,449Z"/>
      <path d="M922.49,242.19q-5.13,16.6-14.16,21l-85.45,42q3.9-15.14,23-24.66Z"/>
      <path d="M982.54,516.36l-12.69,47.31q-21.24,13.73-40.28,13.72-30.15,0-42.49-45.16Q864,556.77,850,566.34L862.29,521l8.1-8.33a16.94,16.94,0,0,0-12.27-5.39q-12,0-15.71,1.47,0-6.81,8.3-28.44a136.16,136.16,0,0,1,7.81-16q8.79-9.46,49.56-9.48,28.56,0,28.57,15.58,0,14.13-24.17,40.41,6.59,25.56,27.83,25.56Q959.84,536.38,982.54,516.36Z"/>
      <path d="M1007.93,168q0,19-15.06,35.4t-34.18,16.36q-20.1,0-20.09-17.58,0-19.78,14-38.33,15.2-20.26,34.31-20.27,8.57,0,15.19,8.06A26.2,26.2,0,0,1,1007.93,168Zm-15.86,16.18q0-6-8-12.9t-13.87-6.94q-7.38,0-13.39,6.69t-6,14.14q0,10.67,19.15,10.66Q992.07,195.8,992.07,184.15Z"/>
      <path d="M1055.05,364q0,68.85-17.33,113.77-21,53.72-71.78,88.87L978.15,521q62.25-49.81,62.26-100.1,0-37.59-23.69-91.07-4.59,23.94-13.77,71.54-3.87,20.5-6.52,20.51l-2.17-.74-.49-3.17q0-19.77,10.22-74.22,10.69-58.83,18.48-67.63,13.37,8.31,23.58,40.29Q1055.05,344,1055.05,364Z"/>
      <path d="M1102.91,156.74q-5.13,16.6-14.16,21l-85.45,42q3.9-15.14,23-24.66Z"/>
      <path d="M1107.3,237.3q0-7.32-8.79-7.32-12.21,0-12.21-3.42,0-6.09,7.33-6.1a11.88,11.88,0,0,1,4.88,1q2.45-1.71,7-10.28t5.25-12.2a15,15,0,0,0-5.4-1.69q-10.32,0-23.82,17.82T1068,243.41q0,9.53,9.65,9.28c5.12-.16,7.92.24,8.42,1.22q-3.91,5.37-25.64,13.42l-29.78,10.26c0,2,1,2.93,3.17,2.93q20.51,0,44.92-11.48Q1107.29,255.38,1107.3,237.3Z"/>
      <path d="M1175,358.64a524.67,524.67,0,0,0-44.78-103q-15.09,45.4-15.09,136,0,48.84,8,50.29,5.55-2.67,5.55-28.07,0-13.67,6.27-60.55,12.27,23.21,26.52,62.26,16.2,44.67,16.2,63,0,25.64-15.38,50.78-9,14.9-33.45,42.23-10.5,11-21.24,22.22-12.45,13.43-17.82,24.41a2.12,2.12,0,0,0,2.44,2q2.19,0,10.23-2.93,57-20.75,75.75-54.93Q1194,533.69,1194,468.75,1194,419.45,1175,358.64Z"/>
    </g>
  </g>
</svg>
