<svg xmlns="http://www.w3.org/2000/svg" viewBox="0 0 2250 1000">
  <title>EH-Artboard 90</title>
  <g id="ElMelikul_Mulki" data-name="ElMelikul Mulki">
    <g>
      <path d="M213.85,773.07q-5.13,16.6-14.16,21l-85.45,42q3.9-15.13,23-24.66Z"/>
      <path d="M624.74,220.83q0,19-15.07,35.4t-34.18,16.35q-20.09,0-20.09-17.58,0-19.77,14-38.33,15.18-20.25,34.3-20.26,8.57,0,15.19,8.06A26.13,26.13,0,0,1,624.74,220.83ZM608.87,237q0-5.94-8-12.89t-13.87-7q-7.37,0-13.39,6.7t-6,14.14q0,10.67,19.16,10.66Q608.87,248.66,608.87,237Z"/>
      <path d="M701.89,570.43l-12.46,46.22q-15.61,12.14-32.95,12.13-26.38,0-25.64-48l.24-23.92q-18.44,41-48.58,62.5l12.21-45.47q24.3-20,30.69-32.22Q633,527.71,633,498.9q0-12.45-1.21-37t-1.2-37q0-6.35,4.8-21.12t8.66-18.43l2.16,1q2.44,42.24,2.44,169.92,0,29.31,20.27,29.3Q684.31,585.57,701.89,570.43Z"/>
      <path d="M763.65,264.52q0,18-16.39,39.52l7.47,7.32-8.55,24.15a170.85,170.85,0,0,1-16.12-12.74Q692.22,358,672.44,358q-3.9,0-13.42-2.93Q688.8,340.7,721.27,317q-9.63-9.28-9.62-16.36,0-12.69,13.85-29.66t26-17Q763.65,254,763.65,264.52Zm-19.53,21.53q0-11.26-9.66-11.27l-3.72,1.47A11,11,0,0,0,728,283.6q0,4.89,11.65,14.44Q744.12,290.45,744.12,286.05Z"/>
      <path d="M820.29,570.92l-12.45,46.42a36.06,36.06,0,0,1-19.28,5.58q-17.34,0-27.35-15.29Q740.71,633,735.58,633,730,633,719,620.08q-10.26-12-12.21-18.76-5.62,7.53-21,18L698,573.85q11.22-10.49,33.69-31.25,2.45,0,24.17,18.31T793,579.22A46.74,46.74,0,0,0,820.29,570.92Z"/>
      <path d="M847.15,220.83q0,19-15.07,35.4T797.9,272.58q-20.08,0-20.09-17.58,0-19.77,14-38.33,15.18-20.25,34.3-20.26,8.56,0,15.19,8.06A26.13,26.13,0,0,1,847.15,220.83ZM831.28,237q0-5.94-8-12.89t-13.88-7q-7.36,0-13.38,6.7T790,238q0,10.67,19.16,10.66Q831.28,248.66,831.28,237Z"/>
      <path d="M894.27,416.87q0,68.85-17.34,113.77-21,53.72-71.77,88.87l12.2-45.66q62.26-49.8,62.26-100.1,0-37.59-23.68-91.06-4.59,23.93-13.77,71.53-3.87,20.52-6.52,20.51l-2.18-.73-.48-3.17q0-19.79,10.21-74.22Q853.9,337.77,861.68,329q13.38,8.29,23.59,40.28Q894.27,396.86,894.27,416.87Z"/>
      <path d="M1033.18,521.61q0,64.93-15.63,93.5Q998.76,649.29,941.63,670,933.58,673,931.38,673c-1.47,0-2.28-.64-2.44-2q5.35-11,17.82-24.41L968,624.39q24.4-27.35,33.45-42.24,15.38-25.14,15.38-50.78,0-18.3-16.21-63-14.25-39.06-26.52-62.25-6.27,46.88-6.27,60.54,0,25.4-5.55,28.08-7.95-1.47-7.95-50.29,0-90.57,15.09-136a525.35,525.35,0,0,1,44.78,103Q1033.19,472.29,1033.18,521.61Z"/>
      <path d="M1203.63,179.07q0,18-16.39,39.52l7.47,7.32-8.55,24.15A170.85,170.85,0,0,1,1170,237.32q-37.85,35.26-57.62,35.26-3.9,0-13.42-2.93,29.77-14.4,62.25-38.08-9.63-9.28-9.62-16.36,0-12.69,13.85-29.66t26-17Q1203.63,168.58,1203.63,179.07ZM1184.1,200.6q0-11.26-9.66-11.27l-3.72,1.47a11,11,0,0,0-2.73,7.35q0,4.89,11.65,14.44Q1184.09,205,1184.1,200.6Z"/>
      <path d="M1639.91,773.07q-5.13,16.6-14.16,21l-85.45,42q3.9-15.13,23-24.66Z"/>
      <path d="M1656.51,416.87q0,68.85-17.33,113.77-21,53.72-71.78,88.87l12.21-45.66q62.25-49.8,62.25-100.1,0-37.59-23.68-91.06-4.59,23.93-13.77,71.53-3.87,20.52-6.52,20.51l-2.17-.73-.49-3.17q0-19.79,10.22-74.22,10.69-58.85,18.48-67.63,13.36,8.29,23.58,40.28Q1656.51,396.86,1656.51,416.87Z"/>
      <path d="M1803,570.68l-12.45,46.8Q1771,630.74,1751,630.74q-27.6,0-37.85-31-5.61-17.38-6.59-53.77l-1.84-73.73q-2.07-83-2.06-84.47,0-3.18,5.88-20.75t8-20.51H1718q.72,42.24,2.93,126.22.24,23.43,5.12,69.33,9.77,47.13,37.36,47.12Q1784,589.23,1803,570.68Z"/>
      <path d="M1861.1,295q-5.11,16.6-14.16,21l-85.45,42q3.91-15.13,23-24.66Z"/>
      <path d="M1922.87,570.92l-12.45,46.42a36.07,36.07,0,0,1-19.29,5.58q-17.34,0-27.34-15.29Q1843.29,633,1838.15,633q-5.61,0-16.6-12.94-10.24-12-12.2-18.76-5.62,7.53-21,18l12.21-45.43q11.22-10.49,33.69-31.25,2.43,0,24.17,18.31t37.11,18.31A46.76,46.76,0,0,0,1922.87,570.92Z"/>
      <path d="M1949.73,220.83q0,19-15.07,35.4t-34.18,16.35q-20.1,0-20.09-17.58,0-19.77,14-38.33,15.18-20.25,34.3-20.26,8.56,0,15.19,8.06A26.13,26.13,0,0,1,1949.73,220.83ZM1933.86,237q0-5.94-8-12.89t-13.87-7q-7.37,0-13.39,6.7t-6,14.14q0,10.67,19.15,10.66Q1933.86,248.66,1933.86,237Z"/>
      <path d="M1996.85,416.87q0,68.85-17.34,113.77-21,53.72-71.78,88.87l12.21-45.66q62.25-49.8,62.26-100.1,0-37.59-23.68-91.06-4.59,23.93-13.78,71.53-3.85,20.52-6.51,20.51l-2.18-.73-.48-3.17q0-19.79,10.21-74.22,10.7-58.85,18.48-67.63,13.38,8.29,23.59,40.28Q1996.84,396.86,1996.85,416.87Z"/>
      <path d="M2044.7,209.59q-5.13,16.6-14.16,21l-85.45,42q3.9-15.13,23-24.66Z"/>
      <path d="M297.35,544l3.18,1.22q8.09-12.42,52.87-28l13.71-15.35-2.44-2.67q-21.71,9.77-36.82,9.76-14.14,0-14.15-7.32,0-3.42,4.15-6.59a14.5,14.5,0,0,1,9-3.18q4.63,0,9.27,7.33l11-10.26a7.74,7.74,0,0,0,1-3.9c0-5.7-2.38-8.55-7.11-8.55q-11.3,0-25.38,11.09t-15.08,21.82q5.69,6.09,18.06,11Q299.08,532,297.35,544Z"/>
      <path d="M697,163.94l-2.93.24Q678,175.91,657.2,207.4q-15.63,24.9-31,49.8-42,65.43-79.87,105Q501.37,409.31,442,442.75q-19.29-29.17-35.17-41.2-20.77-15.44-51-15.44-49.59,0-101.37,39.82-47.88,36.9-71.08,85-18.81,39.1-18.81,85,0,44.71,24.42,72.57,25.63,29.07,69.58,29.07,54.2,0,116.45-49.07,29.29-22.95,94.73-91.31,47.12-49.07,63.72-49.07c4.06,0,6.1,1.95,6.1,5.86q0,12.45-6.46,36.38t-6.46,36.37q0,15.87,4.9,28.08,6.62,16.61,20.08,16.6,12.24,0,34.78-14.69l12.49-46.53q-5.37,6.57-16.12,12.41Q571.27,589,563.46,589q-16.11,0-16.12-35.82,0-20.7,1.22-28,7.08-42.15,7.09-44.35,0-14.37-6.6-14.37-25.39,0-70.55,51.69-46.39,52.9-94,87.78-64.69,46.82-115.72,46.81-86.19,0-86.18-75.37,0-35.85,21.23-78.78,23.91-48.54,67.22-76t97-27.44q35.63,0,68.32,50.54-26.58,15.13-62.19,28.07l-1.7,2.93,1.22,1q27.06,0,71.69-18.55l8.78,21.72,1.23.25c1.29-.49,1.94-1.22,1.94-2.2q0-2.69-7.31-22.21,22-12,46.36-28.57,42.95-29.06,90.05-93.51Q613.53,297.5,657.94,224a109,109,0,0,0-3.66,27.83q0,25.64,14.65,60.3l3.9-6.59A233.43,233.43,0,0,1,667.71,256q0-53,30.51-91.8Z"/>
      <path d="M1681.66,163.94l-2.93.24q-16.11,11.73-36.87,43.22-15.63,24.9-31,49.8-42,65.43-79.87,105a444.85,444.85,0,0,1-104.3,80.57q-19.31-29.17-35.18-41.2-20.76-15.44-51-15.44-49.59,0-101.37,39.82-47.86,36.9-71.07,85-18.81,39.1-18.81,85,0,44.71,24.41,72.57,25.64,29.07,69.58,29.07,54.21,0,116.46-49.07,29.29-22.95,94.72-91.31,47.12-49.07,63.73-49.07c4.06,0,6.1,1.95,6.1,5.86q0,12.45-6.46,36.38t-6.46,36.37q0,15.87,4.89,28.08,6.61,16.61,20.09,16.6,12.24,0,34.78-14.69l12.49-46.53q-5.38,6.57-16.12,12.41-11.48,6.33-19.29,6.33Q1532,589,1532,553.17q0-20.7,1.22-28,7.08-42.15,7.08-44.35,0-14.37-6.59-14.37-25.39,0-70.56,51.69-46.38,52.9-94,87.78-64.7,46.82-115.72,46.81-86.19,0-86.18-75.37,0-35.85,21.22-78.78,23.93-48.54,67.23-76t97-27.44q35.63,0,68.33,50.54-26.58,15.13-62.19,28.07l-1.71,2.93,1.22,1q27.08,0,71.7-18.55l8.78,21.72,1.22.25c1.3-.49,2-1.22,2-2.2q0-2.69-7.31-22.21,22-12,46.36-28.57,42.95-29.06,90-93.51,27.08-37.09,71.5-110.59a109,109,0,0,0-3.66,27.83q0,25.64,14.64,60.3l3.91-6.59a233.42,233.42,0,0,1-5.13-49.56q0-53,30.52-91.8Z"/>
      <path d="M1282,544l3.18,1.22q8.08-12.42,52.87-28l13.71-15.35-2.44-2.67q-21.7,9.77-36.83,9.76-14.14,0-14.14-7.32,0-3.42,4.15-6.59a14.5,14.5,0,0,1,9-3.18q4.63,0,9.26,7.33l11-10.26a7.73,7.73,0,0,0,1-3.9q0-8.55-7.11-8.55-11.28,0-25.38,11.09t-15.07,21.82q5.68,6.09,18.06,11Q1283.74,532,1282,544Z"/>
      <path d="M2116.78,411.5a524.78,524.78,0,0,0-44.79-103q-15.09,45.42-15.09,136,0,48.82,8,50.29,5.55-2.69,5.55-28.08,0-13.67,6.27-60.54,12.27,23.19,26.52,62.25,16.2,44.69,16.2,63,0,25.64-15.38,50.78-9,14.9-33.44,42.24l-21.24,22.22Q2036.88,660,2031.51,671c.16,1.31,1,2,2.44,2s4.87-1,10.23-2.93q57-20.74,75.75-54.93,15.83-28.56,15.83-93.5Q2135.76,472.29,2116.78,411.5Z"/>
      <path d="M2049.09,290.16q0-7.32-8.79-7.32-12.21,0-12.2-3.42,0-6.1,7.32-6.1a11.88,11.88,0,0,1,4.88,1q2.45-1.69,7-10.27t5.25-12.21a15.25,15.25,0,0,0-5.4-1.69q-10.32,0-23.82,17.82t-13.51,28.32q0,9.53,9.66,9.28,7.66-.24,8.41,1.22-3.91,5.37-25.64,13.43l-29.78,10.25c0,2,1,2.93,3.17,2.93q20.51,0,44.92-11.47Q2049.09,308.24,2049.09,290.16Z"/>
    </g>
  </g>
</svg>
