<svg xmlns="http://www.w3.org/2000/svg" viewBox="0 0 1500 1000">
  <title>EH-Artboard 41</title>
  <g id="EsShekur">
    <g>
      <path d="M403.44,344.47q0,18.06-16.39,39.53l7.47,7.31L386,415.46a170.66,170.66,0,0,1-16.12-12.73Q332,438,312.23,438q-3.9,0-13.42-2.93,29.78-14.4,62.25-38.09-9.63-9.27-9.62-16.35,0-12.71,13.85-29.67t26-17Q403.44,334,403.44,344.47ZM383.91,366q0-11.26-9.66-11.26l-3.72,1.47a10.94,10.94,0,0,0-2.73,7.34q0,4.9,11.65,14.45Q383.91,370.41,383.91,366Z"/>
      <path d="M525.76,512.84q0,26.24-8.06,27.69l-6.59-8.06q-6.84.24-11.23,8.07-12,20.78-25.39,54.26-11,28.11-22,56-9.27,22-28.56,43.51-20.51,23-40.77,32-22.95,10.5-63.23,10.51-60.79,0-62.75-6.3l2.44-1.76q51.27,0,95.22-22,45.64-22.92,73.24-64.63,14.89-22.68,32-60.24l22.46-50.24q19.05-37.8,29.54-37.8,5.86,0,10,6.8A22.41,22.41,0,0,1,525.76,512.84Z"/>
      <path d="M756.23,589.11l-12.46,46.4Q728.16,648,687.38,665.33q-8.18,36.43-39.06,78-32.24,43.5-64.46,57.45-27.09,11.73-68.11,11.73-15.63,0-46.39-5.19-36.62-5.94-37.84-12.61l2-1.49q7.32.24,23.2,2.93,15.13,2.45,23.43,2.44,16.84,0,49.32-9.52Q600,768.32,651.73,707.28q18.07-21.24,20.51-37.11Q651,676,643.68,676q-22.23,0-22.22-14.65,0-15.39,12.45-38.82,13.92-26.13,27.59-26.12,11.94,0,21.35,9.27T692.26,627Q733.27,609.63,756.23,589.11Z"/>
      <path d="M807.74,198q0,18.06-16.4,39.52l7.48,7.32L790.27,269a172.3,172.3,0,0,1-16.12-12.73q-37.85,35.25-57.62,35.25-3.91,0-13.43-2.93,29.79-14.4,62.26-38.08-9.63-9.28-9.62-16.36,0-12.69,13.85-29.66t26-17Q807.74,187.5,807.74,198Zm-19.53,21.53q0-11.27-9.67-11.27l-3.72,1.47a11,11,0,0,0-2.73,7.35q0,4.89,11.66,14.44C786.72,226.46,788.21,222.45,788.21,219.52Z"/>
      <path d="M937.62,217l-3.17,2q-35.4,66.66-47.37,86.43-29,47.37-60.52,76.9-49,37.85-74.91,54l2.93,1q25.86-5.37,64.66-36.87,33.91-27.11,54.42-53.47-.49,18.81,2,29.54l4.39-2.92q2-42.24,59.82-155.28Z"/>
      <path d="M803.34,598.88q-4.87-6.84-5.85-26.61-1-19-1.47-74.47-.24-46.62-2.93-74.46l-2.16-1q-3.13,3.18-8.17,17.22t-5,18.92q0,10.25,1.21,30.51t1.21,30.52q0,27.84-7.86,41.75-6.39,11.72-30.2,31.49l-12.21,45.49q30.15-21.48,48.58-62.5,1,39.06,3.66,48.83,7.29,27,34.09,27,25.81,0,48.71-16l12.42-46.23Q854.85,608.64,829,608.64,810.17,608.64,803.34,598.88Z"/>
      <path d="M940.06,195.07l-69.58,24.41q-16.35,5.63-27.1,22.46l79.84-28.32Q933,210.21,940.06,195.07Z"/>
      <path d="M902.47,250.73q-9.29,0-9.28-17.82l-5.86,1.47q-18.55,32.46-30,32.47-8.55,0-8.55-11.48l.74-7.57-8.55,4.64q-6.84,18.6-6.83,25.25,0,13.81,14.19,13.81,16.4,0,31.08-21.15,8.82,6.25,14.44,6.26,17.63,0,29.13-21.24,8.55-15.62,11-36.62l-7.57,2.2Q916.63,250.74,902.47,250.73Z"/>
      <path d="M972,385.74a13.37,13.37,0,0,1,8.58,3.17l1,3.9,2.66,3.17q5.32,0,14.88-13.24t9.56-19.39q0-15.21-14.9-15.21-22.95,0-53.22,39.13-29.06,37.41-30,62.36Q946.28,385.75,972,385.74Z"/>
      <path d="M974,613q-31.5,0-33.94-26.59,16.37-10.25,28.32-37.81,11-25.36,11-46.59v-4.87l-1.22-1.47q-1,.5-9.77,19-9.54,19.51-18.57,26.09-8.05,5.85-10.5,5.85,1.49-9.51,1.49-11.21l-.5-11.22-1.47-1.46q-4.41,3.9-5.4,7.55-4.9,16.11-7.11,20.25-3.69,6.57-14.24,16.57-12.27,11.72-17.67,11.71a199.11,199.11,0,0,0,2-20.48l-1.93-.74q-3.87,3.92-9.18,17.86-4.83,12.46-11.1,16.38l-12.46,46a154.58,154.58,0,0,0,15.37-12.78q12.65,1.47,27.71-10.19A85.23,85.23,0,0,0,925,591.8l5.35-1a72.25,72.25,0,0,0-.73,10.26q0,20.27,11.23,34,12.19,14.65,32.71,14.65,26.37,0,44.19-13.2l12.7-47.15Q1003.54,613,974,613Z"/>
      <path d="M1103.88,435.79q0,68.85-17.33,113.77-21,53.72-71.78,88.87L1027,592.77q62.25-49.8,62.25-100.09,0-37.6-23.68-91.07-4.59,23.92-13.77,71.53-3.87,20.52-6.52,20.51l-2.17-.73-.49-3.17q0-19.78,10.21-74.22,10.71-58.84,18.49-67.63,13.37,8.31,23.58,40.28Q1103.88,415.78,1103.88,435.79Z"/>
      <path d="M1242.8,540.53q0,64.94-15.64,93.5-18.79,34.19-75.91,54.93c-5.38,2-8.79,2.93-10.26,2.93s-2.28-.64-2.44-1.95q5.37-11,17.82-24.41l21.24-22.22Q1202,616,1211.06,601.07q15.38-25.14,15.38-50.78,0-18.3-16.2-63-14.25-39-26.52-62.25-6.27,46.88-6.28,60.55,0,25.39-5.54,28.07-8-1.45-8-50.29,0-90.57,15.09-136a525.35,525.35,0,0,1,44.78,103Q1242.8,491.22,1242.8,540.53Z"/>
    </g>
  </g>
</svg>
