<svg xmlns="http://www.w3.org/2000/svg" viewBox="0 0 1500 1000">
  <title>EH-Artboard 61</title>
  <g id="ElWelijj-2" data-name="ElWelijj">
    <g>
      <path d="M621.34,524.29l-12.7,46.63q-20.5,12.71-41,25.64-37.36,24.9-37.36,33,0,14.9,30,26.12,21,7.58,21,21,0,51-42.83,109.86-45.78,63.22-94.72,63.23-56.29,0-56.3-72.51a200.39,200.39,0,0,1,16.63-79.59q11.75-27.58,39.14-67.14,37.42-54.43,45.25-67.62Q502.9,538.45,520,481.32l3.91,1.71q-2.7,31.5-27.35,84.72-9.76,21-37.11,59.81-29.79,41.76-40,61.53-18.8,35.64-18.8,66.4,0,25.88,16.85,40.29,15.87,13.43,42.24,13.42,24.16,0,66-39.91t41.87-61.4q0-5.86-13.19-10-18.3-5.62-24.17-9.77-13.18-9-13.18-27.34,0-61.77,28.32-84.23Q571,559,621.34,524.29Z"/>
      <path d="M672.85,726.93q-5.13,16.61-14.16,21l-85.45,42q3.9-15.15,23-24.66Z"/>
      <path d="M689.45,370.73q0,68.85-17.33,113.77-21,53.71-71.78,88.86l12.21-45.65q62.25-49.8,62.25-100.1,0-37.59-23.68-91.06-4.59,23.93-13.77,71.53-3.87,20.51-6.52,20.51l-2.17-.73-.49-3.18q0-19.77,10.22-74.22,10.7-58.83,18.48-67.62,13.36,8.3,23.58,40.28Q689.45,350.71,689.45,370.73Z"/>
      <path d="M737.3,309.94q-5.12,16.6-14.16,21l-85.44,42q3.9-15.14,22.94-24.65Z"/>
      <path d="M910.64,524.05l-12.45,46.4q-15.62,12.46-56.39,29.82-8.17,36.42-39.07,78-32.22,43.51-64.45,57.45-27.1,11.73-68.11,11.74-15.63,0-46.39-5.19-36.62-5.94-37.84-12.62l1.95-1.48q7.32.24,23.19,2.93,15.15,2.43,23.44,2.44,16.85,0,49.32-9.52,70.54-20.76,122.31-81.79Q824.23,621,826.66,605.1,805.42,611,798.1,611q-22.23,0-22.22-14.65,0-15.37,12.45-38.81,13.92-26.13,27.59-26.13,11.94,0,21.35,9.28t9.41,21.24Q887.69,544.55,910.64,524.05Z"/>
      <path d="M926.51,174.68q0,19-15.06,35.4t-34.18,16.36q-20.1,0-20.09-17.58,0-19.77,14-38.33,15.2-20.26,34.31-20.26,8.56,0,15.18,8.06A26.1,26.1,0,0,1,926.51,174.68Zm-15.87,16.18q0-6-8-12.9T888.79,171q-7.38,0-13.39,6.69t-6,14.14q0,10.67,19.16,10.66Q910.64,202.51,910.64,190.86Z"/>
      <path d="M973.63,370.73q0,68.85-17.33,113.77-21,53.71-71.78,88.86l12.21-45.65Q959,477.91,959,427.61q0-37.59-23.68-91.06-4.59,23.93-13.77,71.53-3.87,20.51-6.52,20.51l-2.17-.73-.49-3.18q0-19.77,10.22-74.22,10.7-58.83,18.48-67.62,13.37,8.3,23.58,40.28Q973.63,350.71,973.63,370.73Z"/>
      <path d="M1021.48,163.45q-5.12,16.61-14.16,21l-85.44,42q3.9-15.13,22.94-24.66Z"/>
      <path d="M461.43,333.72q-9.53,0-9-11.4l.25-4.85-6.35,1.46q-18.07,28.85-29.3,28.85-7.82,0-7.81-9l1.71-10.91-5.06.49q-12,16.39-12,29.36l1.7,8.57q5.12,6.6,12.18,6.6,19,0,30.45-19.66,5.83,6.24,9.73,6.24,32.4,0,46-52.49l-6.11,1.45Q474.85,333.72,461.43,333.72Z"/>
      <path d="M505.27,239q-4-5.28-9.64-5.28-12.47,0-25.41,12.13t-12.94,24.37l1,5.88a58.79,58.79,0,0,0,6.44,8.33q-29.1,17.14-57.44,24,8.31,4.89,14.44,4.88,15.65,0,51.87-23.92,15.65,6.84,25,7.08,3.92-12.5,3.67-15.69l-.25-3.67-7.3-5.4q14.66-15.44,14.65-21.56A18,18,0,0,0,505.27,239ZM486.9,267q-10.59-8.3-10.58-13.43,0-9,8.17-9,7.69,2.93,7.7,8.79Q492.19,258.91,486.9,267Z"/>
      <path d="M1093.56,365.36a524.76,524.76,0,0,0-44.78-103q-15.09,45.41-15.09,136,0,48.82,8,50.29,5.55-2.69,5.55-28.08,0-13.66,6.27-60.54,12.27,23.19,26.52,62.25,16.2,44.68,16.2,63,0,25.63-15.38,50.78-9,14.9-33.45,42.24l-21.24,22.21q-12.45,13.44-17.82,24.42c.16,1.3,1,2,2.44,2s4.87-1,10.23-2.93q57-20.74,75.75-54.93,15.83-28.56,15.83-93.51Q1112.55,426.16,1093.56,365.36Z"/>
      <path d="M1025.88,244q0-7.32-8.79-7.33-12.21,0-12.21-3.41,0-6.1,7.33-6.11a11.88,11.88,0,0,1,4.88,1q2.43-1.69,7-10.28t5.25-12.2a15,15,0,0,0-5.4-1.69q-10.32,0-23.82,17.82t-13.51,28.32q0,9.53,9.65,9.28c5.11-.16,7.92.24,8.41,1.22q-3.9,5.37-25.63,13.43L949.21,284.3q0,2.93,3.18,2.93,20.5,0,44.92-11.47Q1025.87,262.08,1025.88,244Z"/>
    </g>
  </g>
</svg>
