<svg xmlns="http://www.w3.org/2000/svg" viewBox="0 0 2800 1000">
  <title>EH-Artboard 91</title>
  <g id="ZulDzelaliWelIkram">
    <g>
      <path d="M152.4,781.25q-5.11,16.61-14.16,21l-85.45,42q3.91-15.15,22.95-24.66Z"/>
      <path d="M369.44,262.7q-8,58.1-65.37,113.28-51.22,43.69-102.69,87.64Q98.45,559.33,98.45,629.88q0,44.93,69.26,71,52.92,20,106.32,20a385.16,385.16,0,0,0,41-2.2l-3.66,3.91q-32.23,8.3-43.46,8.3-72.51,0-118.65-20.51-64-28.08-64-91.07,0-82.51,97.42-176.26,35.4-33.94,105-87.41-1.46-2.19-1.46-8.79,0-3.9,8.78-32.47,23.68,0,40-12.94,10-7.56,21-24.17Q365.05,263.44,369.44,262.7Z"/>
      <path d="M469.05,481q0,64.94-15.63,93.5-18.8,34.18-75.92,54.93-8.06,2.94-10.25,2.93c-1.47,0-2.28-.64-2.44-2q5.35-11,17.82-24.41l21.24-22.22q24.4-27.35,33.45-42.24,15.38-25.14,15.38-50.78,0-18.3-16.21-63-14.25-39-26.52-62.25Q403.7,412.36,403.7,426q0,25.39-5.55,28.07-7.95-1.46-7.95-50.29,0-90.57,15.09-136a525.35,525.35,0,0,1,44.78,103Q469.06,431.65,469.05,481Z"/>
      <path d="M528.38,315.43q-5.13,16.6-14.16,21l-85.45,42q3.9-15.14,23-24.66Z"/>
      <path d="M626.77,529.79l-12.7,47.11q-30.27,17.58-42.23,25.64-28.58,19-34.92,31.49-19.53,42.24-39.06,84.23-28.32,53.72-59.08,64-23.43,8-51.51,8-56.4,0-72.51-9.51l-.74-1.23,2-2.2a162.7,162.7,0,0,0,32,2.93q44.93,0,85-28.81,35.4-25.87,59.82-68.35,1.69-3.18,23.19-45.9,13.92-27.84,27-43.58t41.38-33.33Q615.78,540.77,626.77,529.79Z"/>
      <path d="M653.14,180.18q0,19-15.07,35.4t-34.18,16.35q-20.1,0-20.09-17.57,0-19.79,14-38.33,15.18-20.26,34.3-20.27,8.56,0,15.19,8.06A26.21,26.21,0,0,1,653.14,180.18Zm-15.87,16.17q0-5.94-8-12.89t-13.87-7c-4.92,0-9.37,2.24-13.39,6.7s-6,9.18-6,14.14Q596,208,615.16,208,637.27,208,637.27,196.35Z"/>
      <path d="M744.69,769q-5.13,16.61-14.16,21l-85.45,42Q649,816.9,668,807.37Z"/>
      <path d="M922.91,192.38q0,19.05-15.07,35.4t-34.17,16.36q-20.1,0-20.09-17.58,0-19.77,14-38.33Q882.72,168,901.84,168q8.58,0,15.19,8.06A26.1,26.1,0,0,1,922.91,192.38ZM907,208.56q0-6-8-12.9t-13.88-6.94q-7.36,0-13.38,6.7t-6,14.13q0,10.66,19.16,10.66Q907,220.21,907,208.56Z"/>
      <path d="M1078.18,481q0,64.94-15.63,93.5-18.79,34.18-75.92,54.93-8.05,2.94-10.25,2.93c-1.47,0-2.28-.64-2.44-2q5.35-11,17.82-24.41L1013,583.74q24.4-27.35,33.45-42.24,15.38-25.14,15.38-50.78,0-18.3-16.21-63-14.25-39-26.52-62.25-6.27,46.88-6.27,60.55,0,25.39-5.55,28.07-7.95-1.46-7.95-50.29,0-90.57,15.09-136a525.35,525.35,0,0,1,44.78,103Q1078.19,431.65,1078.18,481Z"/>
      <path d="M1243.51,315.43q-5.13,16.6-14.16,21l-85.45,42q3.9-15.14,22.95-24.66Z"/>
      <path d="M1351.9,470.46q0,50.3-40.52,112.79-41.76,63.72-86.67,78.86-32.48,11-93.75,11-17.82,0-17.83-4.64,0-2.21,19.29-7.08,28.56-7.08,42.73-12,43.69-15.13,82.64-46.26T1319.68,533q15.87-26.85,15.87-44.43,0-4.89-3.67-15.39-13.67,15.15-31.73,15.14a24,24,0,0,1-14.65-4.88,15.1,15.1,0,0,1-6.59-12.7q0-16.35,19.28-51.27,5.86-10.74,17.09-10.74Q1351.91,408.69,1351.9,470.46Z"/>
      <path d="M1510.63,756.84q-5.12,16.59-14.16,21l-85.45,42q3.92-15.14,23-24.65Z"/>
      <path d="M1831.68,290.77l-1,2.93q-68.12,35.66-136.72,63.48a416.53,416.53,0,0,1,9.28,85.2q0,78.14-49.61,157.72-26.39,42.24-48.14,61-31,26.63-70.87,26.61-46.19,0-68.42-39.79-17.35-31.25-17.35-81.54,0-34.67,22.21-72.27a215.53,215.53,0,0,1,51.27-59.33q35.89-29,108.89-61.52,0-6.1-.24-26.61-.49-18.8-.49-31.74a288,288,0,0,1,13.67-87.4q30.51,51.51,48.09,120.85,55.9-20.75,137.21-59.33ZM1685.19,452.88q0-38.33-12.2-87.65l-30.52,12.46q-1.74,9.27-4.2,71.28-2,51.52-8.9,63l-2.72,1.22-2.72-1.71q4.38-25.38,5.6-64.2,1-32.24,1.71-64.46-52.9,23.94-100.93,63.23-69,56.65-69,121.59,0,32.72,19,54.68,20.23,23,52.43,23,60.74,0,106.58-59.08T1685.19,452.88Zm-14.64-96.43q-7.33-23.93-10.5-32.23a188,188,0,0,0-13.92-30.52q-3.42,4.16-3.42,74.71Z"/>
      <path d="M1932.75,181.15q-5.13,16.6-14.16,21l-85.45,42q3.91-15.13,22.95-24.66Z"/>
      <path d="M1965.22,529.54l-12.45,46.22q-15.13,12.87-30.76,12.86-23.19,0-34.41-39.08-16.83,62.37-30.25,90.25-27.81,58-65.86,58-29,0-49.51-28-46.87,45.65-139.64,45.65l-2-.24-.24-1.22c0-2,3.26-3.66,9.76-5.13l12.7-2.44q65.19-15.87,108.89-57.94-6.75-21.24-6.74-37.6,0-41.51,2.44-55.18,4.88-28.06,24.9-79.83,18.79-48.82,34.18-76.9,16.85,76.9,16.84,103.27,0,33.2-3.39,46.63-16.52,65.43-36.89,95.95,14.16,11,33.2,11,42.48,0,75.69-96,7.08-20.5,7.08-63.72,0-23.43-5.14-72.51-5.9-56.62-12-65.91l16.52-40.29q4.62,4.15,12.14,58.6,2.68,18.79,7,56.15.72,34.19,1.46,68.11,5.61,45.42,35.64,45.41Q1947.65,545.65,1965.22,529.54ZM1788,543.36q0-18.06-3.66-43.21-4.65-31-11.72-39.31-36.87,80.82-36.87,120.12,0,28.81,12.7,48.83Q1788,584.37,1788,543.36Z"/>
      <path d="M2021.86,315.43q-5.11,16.6-14.16,21l-85.45,42q3.91-15.14,23-24.66Z"/>
      <path d="M2197.4,180.18q0,19-15.07,35.4t-34.17,16.35q-20.1,0-20.09-17.57,0-19.79,14-38.33,15.19-20.26,34.3-20.27,8.58,0,15.19,8.06A26.15,26.15,0,0,1,2197.4,180.18Zm-15.87,16.17q0-5.94-8-12.89t-13.88-7q-7.36,0-13.38,6.7t-6,14.14q0,10.67,19.16,10.66Q2181.52,208,2181.53,196.35Z"/>
      <path d="M2244.52,376.22q0,68.85-17.33,113.77-21,53.71-71.78,88.87l12.21-45.66q62.25-49.8,62.25-100.09,0-37.61-23.68-91.07-4.59,23.93-13.77,71.53-3.87,20.52-6.52,20.51l-2.17-.73-.49-3.17q0-19.79,10.21-74.22,10.71-58.84,18.49-67.63,13.36,8.31,23.58,40.28Q2244.52,356.21,2244.52,376.22Z"/>
      <path d="M2383.44,481q0,64.94-15.64,93.5-18.8,34.18-75.92,54.93-8.05,2.94-10.25,2.93c-1.46,0-2.28-.64-2.44-2q5.37-11,17.82-24.41l21.24-22.22q24.4-27.35,33.45-42.24,15.38-25.14,15.38-50.78,0-18.3-16.21-63-14.23-39-26.52-62.25-6.27,46.88-6.27,60.55,0,25.39-5.54,28.07-8-1.46-8-50.29,0-90.57,15.09-136a525.35,525.35,0,0,1,44.78,103Q2383.44,431.65,2383.44,481Z"/>
      <path d="M2551.16,470.46q0,50.3-40.53,112.79Q2468.89,647,2424,662.11q-32.46,11-93.75,11-17.82,0-17.82-4.64,0-2.21,19.29-7.08,28.56-7.08,42.72-12,43.71-15.13,82.64-46.26T2518.93,533q15.87-26.85,15.87-44.43,0-4.89-3.66-15.39-13.68,15.15-31.74,15.14a24,24,0,0,1-14.65-4.88,15.13,15.13,0,0,1-6.59-12.7q0-16.35,19.29-51.27,5.87-10.74,17.09-10.74Q2551.15,408.69,2551.16,470.46Z"/>
      <path d="M2609,223.87q0,18-16.39,39.52l7.47,7.32-8.55,24.15a170.85,170.85,0,0,1-16.12-12.74q-37.84,35.26-57.62,35.26-3.9,0-13.42-2.93,29.78-14.4,62.25-38.08Q2557,267.09,2557,260q0-12.69,13.85-29.66t26-17Q2609,213.38,2609,223.87Zm-19.53,21.53q0-11.27-9.67-11.27l-3.71,1.47a11,11,0,0,0-2.73,7.35q0,4.89,11.65,14.44Q2589.48,249.8,2589.49,245.4Z"/>
      <path d="M633.12,408.94q-11.24,30.51-11.23,40.52,0,3.66.48,9.77l1.22,1q5.63-2.94,10-17.83,5.37-17.58,8.06-21.24,15.63,20.26,15.63,54.69,0,16.85-10.75,32-6.1,9-23.19,25.39l-12.21,45.66q43-32.72,53.84-81.3,8.17-36.87,8.18-49.07,0-18.32-4.33-43.22-5.3-31-13.25-38.33a271.65,271.65,0,0,0,68.36-37.11q13.18-10,58.83-50.78-5.37,7.09-17.82,45.66-5.13,16.11-14.89,48.58l2.69-.49,3.66-3.9q24.4-62.5,25.39-64.7Q803.52,261,815,239.75q8.55-15.39,12.94-23.44a13,13,0,0,0,.73-2.69c0-1.46-1-2.19-2.93-2.19l-3.41,1.22q-31.26,44.43-78.37,85-51,44.19-96.44,61.77-22.47,8.78-53.47,18.31l-1.71,2.93,1.47,1.7q25.63-3.17,57.13-13.91Q643.86,380.13,633.12,408.94Z"/>
      <path d="M877.11,307.62q-27.93,85.45-27.93,183.59c0,2.28.81,3.42,2.44,3.42q3.66,0,6.11-16.11,1.21-10.74,2.44-21.24,3.9-28.08,16.35-82.52,23.68,25.88,23.69,73.48a207,207,0,0,1-4.4,41.51q-6.84,33.93-31.25,75.19Q835.27,615,809.14,615q-18.32,0-33.45-26.61Q825,503.42,825,408q0-21.24-11.47-99.37l-3.91-2.93-2.2,2q-1,10.74-12.65,36.37L777.27,381.1q-36.49,82.53-36.49,146.73,0,36.63,2.93,53.22-66.16,69.84-142.09,96.44l-4.15,4.39v1.23l2.2,1q14.16,0,45.41-8.3,71-18.79,110.12-60.06,12.72,25,23.47,35.72,16.14,16,38.63,16,24.69,0,56.23-66.61,24.69-51.72,33.74-92.22,12.47-55.62,12.47-79.29,0-63-33.08-136.64Q882,292.72,877.11,307.62Zm-121,209q0-45.17,41-130.61,11,27.35,11,50.29,0,63-44.93,121.09A128.74,128.74,0,0,1,756.16,516.6Z"/>
      <path d="M720.27,721.68a11.8,11.8,0,0,1,4.89,1q2.43-1.71,7-10.28t5.24-12.2a14.93,14.93,0,0,0-5.4-1.69q-10.32,0-23.82,17.82t-13.5,28.32q0,9.52,9.65,9.28c5.11-.17,7.92.24,8.41,1.22q-3.9,5.37-25.63,13.42l-29.79,10.26q0,2.93,3.18,2.93,20.5,0,44.92-11.48Q733.94,756.6,734,738.53q0-7.34-8.79-7.33-12.21,0-12.21-3.42Q713,721.68,720.27,721.68Z"/>
      <path d="M1991.9,652.1q-20.33,30.52-22.53,34.42,10.77,8.29,21.79,15.38,15.18-19.29,22.77-33.2Q2013.93,659.91,1991.9,652.1Z"/>
      <path d="M2071.15,541.5q-13.92-11.47-13.92-30.28a112.67,112.67,0,0,1,1.74-19.78q26.13-23.19,75.44-33.21,11.24-15.87,15.63-39.32a76.72,76.72,0,0,1-32.23,6.8q-11,0-31.86-6.19t-31.63-6.19q-41.13,0-61.2,37.08-10.29,19-22,73.42l-9,8.53-12.45,45.86q11.72-8.73,17.58-13.35l-2,30.27v30.52l1.22,1.22,1.23-.73,2.19-4.15q-1-26.37,6.59-65,37-32.25,69.34-56.94-4.38,19.51-4.38,31.95,0,26.09,15.33,44.13,16.11,19,42,19,29.78,0,59.81-18.5L2171,530.22q-28.07,22-67.87,22Q2084.1,552.25,2071.15,541.5Zm-50-57.29q-10.74,7.83-39.55,31.57,9.76-62.65,54.44-62.65,7.82,0,28.32,4.89Q2044.07,467.32,2021.13,484.21Z"/>
      <path d="M2738.42,432.37q-9.77-14.64-23.93-14.65-18.31,0-56.88,18.31-39.32,18.78-47.37,32.46-4.39,7.32-11.72,27.33-7.82,21-7.81,26.36,0,14.88,20.27,40.63t20.26,35.51l-1.71,14.4,2.23,1.95q5.46,0,9.92-14.42,3.72-12,3.72-19.31,0-26.38-8.37-45.21a71.86,71.86,0,0,0-15.25-22q-8.36-8.31-8.36-9.53,0-12.22,35.64-28.35,32.47-14.67,46.63-14.67,12,0,22.46,11t10.5,23q0,17.35-31,59.39-49.82,67.71-120.12,100.7-36.63,17.1-70.31,20.28-12.7,1.23-18.07,2.2l1,1.71q3.66,1.23,17.57,1.22,25.15,0,61-4.39,43-5.13,57.13-12.7Q2678.6,635.74,2713,572q34.17-62.49,34.18-112.06A48.26,48.26,0,0,0,2738.42,432.37Z"/>
      <path d="M2705,323q0-4.39-9.25-10a103.2,103.2,0,0,0-13.15-6.35q-20.2,30.29-22.15,34.43L2682.15,356Q2692.38,347.93,2705,323Z"/>
    </g>
  </g>
</svg>
