<svg xmlns="http://www.w3.org/2000/svg" viewBox="0 0 1500 1000">
  <title>EH-Artboard 30</title>
  <g id="ElMuiz">
    <g>
      <path d="M739.5,769q-5.13,16.61-14.16,21l-85.45,42q3.9-15.13,23-24.66Z"/>
      <path d="M799.56,540.77l-12.69,47.31q-21.24,13.73-40.29,13.73-30.15,0-42.48-45.17Q681,581.19,667,590.76l12.28-45.31,8.1-8.32a17,17,0,0,0-12.28-5.39q-12,0-15.71,1.46,0-6.8,8.3-28.43a138.1,138.1,0,0,1,7.82-16q8.79-9.48,49.56-9.48,28.56,0,28.56,15.58,0,14.12-24.17,40.4,6.6,25.56,27.83,25.56Q776.85,560.79,799.56,540.77Z"/>
      <path d="M860.6,236.08q0,18-16.4,39.52l7.47,7.31-8.55,24.15A169.33,169.33,0,0,1,827,294.33q-37.85,35.26-57.62,35.26-3.92,0-13.43-2.93,29.77-14.4,62.25-38.09-9.62-9.27-9.62-16.35,0-12.69,13.86-29.67t26-17Q860.58,225.59,860.6,236.08ZM841.06,257.6q0-11.25-9.66-11.26l-3.72,1.47a10.94,10.94,0,0,0-2.73,7.34q0,4.91,11.65,14.45Q841.07,262,841.06,257.6Z"/>
      <path d="M917.24,542.48,904.79,588.9a36.12,36.12,0,0,1-19.29,5.58q-17.34,0-27.35-15.29-20.5,25.39-25.63,25.39-5.62,0-16.6-12.94-10.26-12-12.21-18.76-5.62,7.53-21,18l12.21-45.43q11.24-10.5,33.69-31.25,2.45,0,24.17,18.31t37.11,18.31A46.77,46.77,0,0,0,917.24,542.48Z"/>
      <path d="M944.09,192.38q0,19.05-15.07,35.4t-34.17,16.36q-20.1,0-20.09-17.58,0-19.77,14-38.33Q903.92,168,923,168q8.58,0,15.19,8.06A26.1,26.1,0,0,1,944.09,192.38Zm-15.87,16.18q0-6-8-12.9t-13.88-6.94q-7.36,0-13.38,6.7t-6,14.13q0,10.66,19.16,10.66Q928.22,220.21,928.22,208.56Z"/>
      <path d="M991.21,388.43q0,68.85-17.33,113.77-21,53.71-71.78,88.86l12.21-45.65q62.25-49.8,62.25-100.1,0-37.59-23.68-91.06-4.59,23.92-13.77,71.53-3.87,20.5-6.52,20.51l-2.17-.73-.49-3.18q0-19.77,10.21-74.22,10.71-58.83,18.49-67.62,13.36,8.29,23.58,40.28Q991.21,368.41,991.21,388.43Z"/>
      <path d="M1039.06,181.15q-5.13,16.6-14.16,21l-85.45,42q3.9-15.13,22.95-24.66Z"/>
      <path d="M487.76,390.63q19,0,30.44-19.67,5.85,6.24,9.74,6.24,32.4,0,46-52.49l-6.1,1.45q-12.95,25.26-26.37,25.26-9.51,0-9-11.4l.24-4.85-6.34,1.46q-18.07,28.85-29.3,28.85-7.81,0-7.81-9L491,345.6l-5.06.49q-12,16.4-12,29.36l1.7,8.57Q480.7,390.62,487.76,390.63Z"/>
      <path d="M501.77,331.05q15.66,0,51.88-23.92,15.65,6.84,25,7.08,3.9-12.49,3.67-15.69l-.25-3.67-7.3-5.39q14.65-15.45,14.65-21.57a18,18,0,0,0-4-11.15q-4-5.28-9.64-5.28-12.47,0-25.41,12.13T537.35,288l1,5.88a59.66,59.66,0,0,0,6.43,8.33q-29.09,17.15-57.44,24Q495.66,331.06,501.77,331.05Zm62.8-68.84q7.7,2.93,7.7,8.79,0,5.61-5.3,13.67-10.58-8.3-10.57-13.43Q556.4,262.21,564.57,262.21Z"/>
      <path d="M636.47,572.51q-17.57,10.26-37.59,33.2-13.68,15.63-27.59,43.22-11.24,23.19-22.71,46.38a198.72,198.72,0,0,1-59.81,67.87q-40.77,29.3-84.47,29.3a161.54,161.54,0,0,1-32.47-2.93l-2,2.2.49,1.23q15.87,9.27,79.59,9.27,42.24,0,70.56-25.64,21.48-19.53,40.77-60.3,15.62-34.9,31.25-70.07,5.61-11.22,35.16-31,12.19-8.29,42.23-26.12L682.62,542a124.86,124.86,0,0,1-22.22,16.6Q648.43,565.69,636.47,572.51Z"/>
      <path d="M608.4,506.59q15.14-19.27,22.7-33.2l-2.44-5.13q-5.37-5.13-19.77-11.23-12,17.1-22.46,34.67Z"/>
      <path d="M1111.14,383.06a525.35,525.35,0,0,0-44.78-103q-15.09,45.41-15.09,136,0,48.83,8,50.29,5.54-2.69,5.54-28.08,0-13.67,6.27-60.54,12.29,23.19,26.52,62.25,16.21,44.69,16.21,63,0,25.63-15.38,50.78-9,14.89-33.45,42.24l-21.24,22.21q-12.45,13.44-17.82,24.42c.16,1.3,1,1.95,2.44,1.95s4.86-1,10.22-2.93q57-20.75,75.76-54.93,15.83-28.56,15.83-93.51Q1130.13,443.86,1111.14,383.06Z"/>
      <path d="M1043.46,261.72q0-7.32-8.79-7.33-12.21,0-12.21-3.41,0-6.1,7.33-6.11a12,12,0,0,1,4.88,1q2.43-1.69,7-10.28t5.25-12.2a15,15,0,0,0-5.41-1.69q-10.31,0-23.82,17.82t-13.5,28.32q0,9.53,9.65,9.28c5.11-.16,7.92.24,8.41,1.22q-3.9,5.37-25.63,13.43L966.79,302c0,2,1.06,2.93,3.18,2.93q20.5,0,44.92-11.47Q1043.45,279.78,1043.46,261.72Z"/>
    </g>
  </g>
</svg>
