<svg xmlns="http://www.w3.org/2000/svg" viewBox="0 0 1500 1000">
  <title>EH-Artboard 71</title>
  <g id="ElMadzid">
    <g>
      <path d="M423.58,236.08q0,18-16.39,39.52l7.47,7.31-8.55,24.15A169.33,169.33,0,0,1,390,294.33q-37.85,35.26-57.62,35.26-3.92,0-13.43-2.93,29.78-14.4,62.25-38.09-9.61-9.27-9.62-16.35,0-12.69,13.85-29.67t26-17Q423.58,225.59,423.58,236.08ZM404.05,257.6q0-11.25-9.66-11.26l-3.72,1.47a10.94,10.94,0,0,0-2.73,7.34q0,4.91,11.65,14.45Q404.06,262,404.05,257.6Z"/>
      <path d="M584.47,541.5,572,588A173.51,173.51,0,0,1,544,604q-19.79,9.33-29.79,9.33-27.11,0-27.1-40.77a111.34,111.34,0,0,1,1.47-15.87h-2q-1.45,0-7,6.71T458.5,599.12q-36.87,68.61-68.61,84.23-18.56,9-32.47,11.47-10.5,2-34.67,2a266.12,266.12,0,0,1-27.58-2q-21.24-2.49-24.91-5.49l.74-1.5,3.41-2q36.87,0,60.06-7.57t52.74-29.54q31.73-23.43,44.92-42.72Q449,578.62,465.82,551q24.93-38.58,38.82-44.68l2.44,2.19.49,2.45q-.74,2.44-2.2,10.25a131.49,131.49,0,0,0-2.44,25.39q0,26.13,21.73,26.12Q546.88,572.75,584.47,541.5Z"/>
      <path d="M640.14,769Q635,785.65,626,790l-85.45,42q3.9-15.13,23-24.66Z"/>
      <path d="M897,542.24,884.52,589Q865,602.3,845,602.29q-27.59,0-37.84-30.94-5.62-17.4-6.59-53.77l-1.84-73.73q-2.07-83-2.07-84.47,0-3.18,5.89-20.76t8.05-20.5H812q.74,42.24,2.93,126.22.24,23.43,5.13,69.33,9.76,47.13,37.35,47.12Q877.93,560.79,897,542.24Z"/>
      <path d="M955.08,266.6q-5.13,16.61-14.16,21l-85.45,42q3.9-15.13,22.95-24.66Z"/>
      <path d="M1016.85,542.48l-12.46,46.42a36.06,36.06,0,0,1-19.28,5.58q-17.34,0-27.35-15.29-20.5,25.39-25.63,25.39-5.62,0-16.6-12.94-10.26-12-12.21-18.76-5.62,7.53-21,18l12.21-45.43q11.24-10.5,33.69-31.25,2.44,0,24.17,18.31t37.11,18.31A46.77,46.77,0,0,0,1016.85,542.48Z"/>
      <path d="M1043.7,192.38q0,19.05-15.07,35.4t-34.17,16.36q-20.1,0-20.09-17.58,0-19.77,14-38.33,15.2-20.26,34.3-20.26,8.58,0,15.19,8.06A26.1,26.1,0,0,1,1043.7,192.38Zm-15.87,16.18q0-6-8-12.9T1006,188.72q-7.37,0-13.38,6.7t-6,14.13q0,10.66,19.16,10.66Q1027.83,220.21,1027.83,208.56Z"/>
      <path d="M1090.82,388.43q0,68.85-17.33,113.77-21,53.71-71.78,88.86l12.21-45.65q62.25-49.8,62.25-100.1,0-37.59-23.68-91.06-4.59,23.92-13.77,71.53-3.87,20.5-6.52,20.51l-2.17-.73-.49-3.18q0-19.77,10.21-74.22,10.71-58.83,18.49-67.62,13.37,8.29,23.58,40.28Q1090.82,368.41,1090.82,388.43Z"/>
      <path d="M1138.67,181.15q-5.13,16.6-14.16,21l-85.45,42q3.9-15.13,23-24.66Z"/>
      <path d="M610.11,664.31q-20.26,30.51-22.46,34.42,10.74,8.29,21.73,15.38,15.12-19.29,22.7-33.2Q632.08,672.12,610.11,664.31Z"/>
      <path d="M707.28,417.24a111.91,111.91,0,0,1-14.41-1.35,113.38,113.38,0,0,0-14.4-1.34q-37.85,0-55.42,17.33-16.12,15.63-22.85,54-4.74,27.34-4.74,32l.24,13.92-15.38,12.94-12.45,45.9a262.51,262.51,0,0,0,30-23.69,432,432,0,0,0,11.48,61.77l1.7.73a4.2,4.2,0,0,0,1.47-2.93V625q-5.62-51.75-5.37-60.55v-5.86q33-33,66.16-65.91A285.63,285.63,0,0,1,752,442.38q2.68-4.14,6-17.58c2.2-8.94,3.3-15.38,3.3-19.28l-.24-2.69Q737.05,417.25,707.28,417.24Zm-64.7,71.53q-24.42,24.9-37.11,35.16v-9.28a77.54,77.54,0,0,1,6.1-29q8.55-21.24,27.83-27.35,11-3.66,40.53-4.15Q666,464.85,642.58,488.77Z"/>
      <path d="M1210.75,383.06A525.35,525.35,0,0,0,1166,280q-15.09,45.41-15.09,136,0,48.83,8,50.29,5.54-2.69,5.54-28.08,0-13.67,6.27-60.54,12.28,23.19,26.52,62.25,16.21,44.69,16.21,63,0,25.63-15.38,50.78-9,14.89-33.45,42.24l-21.24,22.21q-12.45,13.44-17.82,24.42c.16,1.3,1,1.95,2.44,1.95s4.86-1,10.22-2.93q57-20.75,75.76-54.93,15.83-28.56,15.83-93.51Q1229.74,443.86,1210.75,383.06Z"/>
      <path d="M1143.07,261.72q0-7.32-8.79-7.33-12.21,0-12.21-3.41,0-6.1,7.32-6.11a12,12,0,0,1,4.89,1q2.43-1.69,7-10.28t5.24-12.2a14.93,14.93,0,0,0-5.4-1.69q-10.3,0-23.82,17.82t-13.5,28.32q0,9.53,9.65,9.28c5.11-.16,7.92.24,8.41,1.22q-3.9,5.37-25.63,13.43L1066.4,302c0,2,1.06,2.93,3.18,2.93q20.51,0,44.92-11.47Q1143.06,279.78,1143.07,261.72Z"/>
    </g>
  </g>
</svg>
