<svg xmlns="http://www.w3.org/2000/svg" viewBox="0 0 1500 1000">
  <title>EH-Artboard 38</title>
  <g id="ElHalim">
    <g>
      <path d="M494.63,207.88q0,18-16.4,39.52l7.48,7.31-8.55,24.16A170.85,170.85,0,0,1,461,266.13q-37.85,35.26-57.62,35.26-3.92,0-13.43-2.93,29.79-14.4,62.26-38.08-9.63-9.28-9.62-16.36,0-12.69,13.85-29.66t26-17Q494.63,197.39,494.63,207.88ZM475.1,229.4q0-11.25-9.67-11.26l-3.72,1.47A11,11,0,0,0,459,227q0,4.89,11.65,14.44Q475.1,233.81,475.1,229.4Z"/>
      <path d="M563.23,514.53,551,560.18q-28.08,17.58-56.16,34.91-38.58,26.61-38.57,39.07c0,1.79,1,2.68,2.93,2.68q7.32,0,22-15.62,10-10.74,19.78-21.73c1.13.81,1.71,2.19,1.71,4.15q0,3.42-3.67,19-4.63,20-5.12,21.49a64.62,64.62,0,0,1-10.5,19.28Q472.9,677.13,437,703q-41.13,29.54-55.31,43.7Q355,773.07,355,796.75q0,23.93,39.55,37.36,32.48,11.22,73.24,11.23,66.9,0,89.36-2.2l.49,1.22q0,7-40.29,12-31.25,3.84-52,3.84-125,0-125-63.23,0-29.06,23.73-65.43,21.29-32.48,48.2-52l30.09-22a41.31,41.31,0,0,1-1.92-12.94q0-19,14.91-44.67,14.88-24.66,31.48-35.4Q537.59,532.1,563.23,514.53Z"/>
      <path d="M694.82,716.43q-5.12,16.61-14.16,21l-85.45,42q3.91-15.13,22.95-24.66Z"/>
      <path d="M741.46,513.79,729,560q-15.62,12.15-33,12.14-26.37,0-25.63-48l.24-23.92q-18.43,41-48.58,62.5l12.21-45.47q24.3-20,30.69-32.22,7.6-13.92,7.61-42.73,0-12.45-1.21-37t-1.2-37q0-6.35,4.8-21.12t8.66-18.43l2.16,1q2.44,42.24,2.44,169.92,0,29.31,20.27,29.3Q723.88,528.93,741.46,513.79Z"/>
      <path d="M798.1,238.4q-5.13,16.6-14.16,21l-85.45,42q3.9-15.13,23-24.66Z"/>
      <path d="M947.24,514.23l-12.46,46.49q-30,18.51-59.81,18.5-25.87,0-42-19-15.33-18-15.33-44.13,0-12.44,4.38-32-32.35,24.69-69.33,56.94-7.58,38.58-6.6,65l-2.19,4.15-1.22.73-1.22-1.22V579.15l1.95-30.27q-5.86,4.61-17.58,13.35l12.45-45.86,9-8.54q11.76-54.39,22-73.42,20.07-37.07,61.2-37.07,10.76,0,31.63,6.19T894,409.71a76.71,76.71,0,0,0,32.23-6.79q-4.39,23.44-15.63,39.32-49.3,10-75.43,33.21a111.64,111.64,0,0,0-1.74,19.78q0,18.81,13.91,30.28,12.95,10.74,32,10.74Q919.16,536.25,947.24,514.23ZM840.58,442q-20.52-4.89-28.32-4.9-44.68,0-54.45,62.66,28.82-23.75,39.55-31.57Q820.31,451.33,840.58,442Z"/>
      <path d="M973.63,164.18q0,19-15.07,35.4t-34.17,16.36q-20.1,0-20.09-17.58,0-19.77,14-38.33,15.19-20.25,34.3-20.26,8.58,0,15.19,8.06A26.12,26.12,0,0,1,973.63,164.18Zm-15.87,16.18q0-5.94-8-12.9t-13.87-6.94q-7.38,0-13.39,6.7t-6,14.13q0,10.67,19.16,10.67Q957.76,192,957.76,180.36Z"/>
      <path d="M1020.75,360.23q0,68.85-17.33,113.77-21,53.72-71.78,88.87l12.21-45.66q62.25-49.8,62.25-100.1,0-37.59-23.68-91.06-4.59,23.93-13.77,71.53-3.87,20.51-6.52,20.51l-2.17-.73-.49-3.18q0-19.77,10.21-74.21,10.71-58.85,18.49-67.63,13.37,8.3,23.58,40.28Q1020.75,340.22,1020.75,360.23Z"/>
      <path d="M1068.6,153q-5.11,16.61-14.16,21l-85.45,42q3.91-15.13,23-24.66Z"/>
      <path d="M541.75,626.34q-15.87,32.24-15.63,39.8,14.36-7.57,21.42-11.72,29.91-17.08,33.81-21,9-9,15.33-36.62-28.92,17.58-36.46,20.75Q546.12,623.66,541.75,626.34Z"/>
      <path d="M582.62,541.14q-10,0-14.16-2.69,18.94-26.12,18.94-43.94a42.43,42.43,0,0,0-.73-8.3Q573.08,501.83,560,517l-12.14,45.32,6.56-5.17q9.71,18,30.68,18,19.79,0,40.29-15l12.45-46.52q-9.76,9.76-25.64,18.31Q594.34,541.15,582.62,541.14Z"/>
      <path d="M1140.68,354.86a525.35,525.35,0,0,0-44.78-103q-15.09,45.41-15.09,136,0,48.82,8,50.29,5.54-2.69,5.54-28.08,0-13.66,6.28-60.54,12.27,23.19,26.52,62.25,16.2,44.68,16.2,63,0,25.63-15.38,50.78-9,14.9-33.45,42.24L1073.24,590q-12.45,13.42-17.82,24.41c.16,1.3,1,2,2.44,2s4.86-1,10.22-2.93q57-20.74,75.76-54.93,15.83-28.56,15.83-93.5Q1159.67,415.65,1140.68,354.86Z"/>
      <path d="M1073,233.52q0-7.32-8.79-7.32-12.21,0-12.21-3.42,0-6.1,7.33-6.11a11.92,11.92,0,0,1,4.88,1q2.43-1.69,7-10.27t5.25-12.21a15.23,15.23,0,0,0-5.41-1.69q-10.3,0-23.81,17.82t-13.51,28.32q0,9.52,9.65,9.28c5.11-.16,7.92.25,8.41,1.22q-3.9,5.37-25.63,13.43L996.33,273.8c0,2,1.06,2.93,3.18,2.93q20.5,0,44.92-11.47Q1073,251.59,1073,233.52Z"/>
    </g>
  </g>
</svg>
