<svg xmlns="http://www.w3.org/2000/svg" viewBox="0 0 1500 1000">
  <title>EH-Artboard 42</title>
  <g id="ElAlijj">
    <g>
      <path d="M653.81,524.29l-12.7,46.63q-20.5,12.71-41,25.64-37.35,24.9-37.36,33,0,14.9,30,26.12,21,7.58,21,21,0,51-42.83,109.86-45.78,63.22-94.72,63.23-56.3,0-56.3-72.51a200.39,200.39,0,0,1,16.63-79.59q11.74-27.58,39.14-67.14,37.43-54.43,45.25-67.62,14.43-24.42,31.55-81.55L556.4,483q-2.7,31.5-27.35,84.72-9.76,21-37.11,59.81-29.79,41.76-40,61.53-18.79,35.64-18.79,66.4,0,25.88,16.84,40.29,15.87,13.43,42.24,13.42,24.17,0,66-39.91t41.87-61.4q0-5.86-13.19-10-18.3-5.62-24.17-9.77-13.17-9-13.18-27.34,0-61.77,28.32-84.23Q603.52,559,653.81,524.29Z"/>
      <path d="M705.32,726.93q-5.13,16.61-14.16,21l-85.45,42q3.9-15.15,22.95-24.66Z"/>
      <path d="M752,524.29,739.5,570.5q-15.63,12.15-33,12.14-26.37,0-25.63-48l.24-23.93q-18.43,41-48.58,62.5l12.21-45.46q24.3-20,30.68-32.23,7.62-13.91,7.61-42.72,0-12.45-1.2-37t-1.21-37q0-6.34,4.81-21.11t8.66-18.44l2.16,1q2.43,42.24,2.44,169.92,0,29.29,20.26,29.3Q734.38,539.43,752,524.29Z"/>
      <path d="M808.59,248.9q-5.12,16.61-14.16,21l-85.45,42q3.91-15.13,22.95-24.66Z"/>
      <path d="M868.65,523.07,856,570.38q-21.24,13.73-40.29,13.73-30.15,0-42.48-45.17-23.07,24.55-37.06,34.12l12.27-45.31,8.1-8.33A16.93,16.93,0,0,0,744.22,514q-12,0-15.7,1.46,0-6.79,8.3-28.43a136.16,136.16,0,0,1,7.81-16q8.79-9.48,49.56-9.48,28.56,0,28.56,15.58,0,14.12-24.17,40.4,6.6,25.56,27.84,25.56Q846,543.09,868.65,523.07Z"/>
      <path d="M894,174.68q0,19-15.07,35.4T844.8,226.44q-20.1,0-20.09-17.58,0-19.77,14-38.33,15.2-20.26,34.3-20.26,8.58,0,15.19,8.06A26.1,26.1,0,0,1,894,174.68Zm-15.87,16.18q0-6-8-12.9T856.32,171q-7.38,0-13.39,6.69t-6,14.14q0,10.67,19.16,10.66Q878.17,202.51,878.17,190.86Z"/>
      <path d="M941.16,370.73q0,68.85-17.33,113.77-21,53.71-71.78,88.86l12.21-45.65q62.25-49.8,62.25-100.1,0-37.59-23.68-91.06-4.59,23.93-13.77,71.53-3.87,20.51-6.52,20.51l-2.17-.73-.49-3.18q0-19.77,10.21-74.22,10.71-58.83,18.49-67.62,13.36,8.3,23.58,40.28Q941.16,350.71,941.16,370.73Z"/>
      <path d="M989,163.45q-5.12,16.61-14.16,21l-85.45,42q3.92-15.13,23-24.66Z"/>
      <path d="M493.9,333.72q-9.52,0-9-11.4l.25-4.85-6.35,1.46q-18.08,28.85-29.3,28.85-7.81,0-7.81-9l1.71-10.91-5.06.49q-12,16.39-12,29.36l1.7,8.57q5.13,6.6,12.18,6.6,19,0,30.45-19.66,5.83,6.24,9.74,6.24,32.39,0,46-52.49l-6.11,1.45Q507.32,333.72,493.9,333.72Z"/>
      <path d="M537.74,239q-4-5.28-9.64-5.28-12.47,0-25.41,12.13t-12.94,24.37l1,5.88a58.79,58.79,0,0,0,6.44,8.33q-29.1,17.14-57.44,24,8.31,4.89,14.44,4.88,15.65,0,51.87-23.92,15.66,6.84,25,7.08,3.91-12.5,3.67-15.69l-.25-3.67-7.3-5.4q14.65-15.44,14.65-21.56A18,18,0,0,0,537.74,239ZM519.37,267q-10.59-8.3-10.58-13.43,0-9,8.17-9,7.69,2.93,7.7,8.79Q524.66,258.91,519.37,267Z"/>
      <path d="M993.41,244q0-7.32-8.79-7.33-12.21,0-12.21-3.41,0-6.1,7.33-6.11a11.92,11.92,0,0,1,4.88,1q2.43-1.69,7-10.28t5.25-12.2a15,15,0,0,0-5.41-1.69q-10.3,0-23.81,17.82T954.1,250.12q0,9.53,9.65,9.28c5.11-.16,7.92.24,8.41,1.22q-3.9,5.37-25.63,13.43L916.74,284.3q0,2.93,3.18,2.93,20.51,0,44.92-11.47Q993.4,262.08,993.41,244Z"/>
      <path d="M1061.09,365.36a525.35,525.35,0,0,0-44.78-103q-15.09,45.41-15.09,136,0,48.82,8,50.29,5.54-2.69,5.54-28.08,0-13.66,6.28-60.54,12.27,23.19,26.52,62.25,16.2,44.68,16.2,63,0,25.63-15.38,50.78-9,14.9-33.45,42.24l-21.24,22.21q-12.45,13.44-17.82,24.42c.16,1.3,1,2,2.44,2s4.87-1,10.23-2.93q57-20.74,75.75-54.93,15.82-28.56,15.83-93.51Q1080.08,426.16,1061.09,365.36Z"/>
    </g>
  </g>
</svg>
