<svg xmlns="http://www.w3.org/2000/svg" viewBox="0 0 1500 1000">
  <title>EH-Artboard 45</title>
  <g id="ElMukit">
    <g>
      <path d="M360.79,248.28q0,18.06-16.4,39.52l7.48,7.32-8.55,24.15a170.66,170.66,0,0,1-16.12-12.73q-37.84,35.25-57.62,35.26-3.9,0-13.43-2.93,29.79-14.4,62.26-38.09-9.63-9.27-9.62-16.36,0-12.69,13.85-29.66t26-17Q360.79,237.79,360.79,248.28Zm-19.53,21.53q0-11.26-9.67-11.27L327.87,260a11,11,0,0,0-2.72,7.35q0,4.9,11.65,14.45Q341.26,274.22,341.26,269.81Z"/>
      <path d="M583.69,377.93q2.68-13.92,4.15-18.55a445.05,445.05,0,0,1-55.66,29.78q-15.63,31-15.14,39.8Q580,398,583.69,377.93Z"/>
      <path d="M671.09,572.27a27.05,27.05,0,0,1-17.45-6.2A19.31,19.31,0,0,1,646,550.38q0-6.32,4.51-18t4.76-17.75l-1-2.43-3.91.49-113,105.37q-72.75,63.81-138.18,63.81-35.16,0-63-27.22T308.3,592.29a90.51,90.51,0,0,1,6.59-33.7q35.61-89.1,183.93-89.11,34.4,0,60.5-10,48.79-18.8,56.35-23.92l-.24-2.69q-63,25.39-113,25.15l-43-.25q-52-.24-92.28,26.13t-61,74.22q-10.74,24.66-10.74,45.16,0,49.8,27.59,83,29.55,35.19,78.38,35.19,45.66,0,101.82-41.57,35.4-26.4,84.48-78.24,41.26-43.53,47.12-44.75l.49,1.23q-2,5.88-2,15.69Q633.25,590,641,601q8.64,12.75,24,12.75,12,0,30.76-13.23L708.2,554Q691.36,572.27,671.09,572.27Z"/>
      <path d="M756.89,572.27q-17.82,9.27-29.54,9.27-10,0-14.16-2.68,18.93-26.13,18.94-44a43.22,43.22,0,0,0-.73-8.3q-13.6,15.63-26.71,30.76l-12.15,45.32,6.56-5.16q9.72,18,30.69,18,19.77,0,40.28-15L782.52,554Q772.76,563.73,756.89,572.27Z"/>
      <path d="M686.47,666.75Q670.6,699,670.85,706.54q14.35-7.56,21.41-11.72,29.93-17.09,33.82-21,9-9,15.33-36.62Q712.48,654.79,704.94,658,690.85,664.07,686.47,666.75Z"/>
      <path d="M839.55,756.84q-5.13,16.59-14.16,21l-85.45,42q3.9-15.14,22.95-24.65Z"/>
      <path d="M974.32,248.28q0,18.06-16.4,39.52l7.47,7.32-8.55,24.15a169.33,169.33,0,0,1-16.11-12.73q-37.85,35.25-57.62,35.26-3.92,0-13.43-2.93,29.77-14.4,62.25-38.09-9.61-9.27-9.62-16.36,0-12.69,13.85-29.66t26-17Q974.31,237.79,974.32,248.28Zm-19.54,21.53q0-11.26-9.66-11.27L941.4,260a11,11,0,0,0-2.73,7.35q0,4.9,11.65,14.45Q954.79,274.22,954.78,269.81Z"/>
      <path d="M1031,554.69l-12.45,46.41a36,36,0,0,1-19.29,5.59q-17.34,0-27.35-15.3-20.5,25.4-25.63,25.39-5.62,0-16.6-12.94-10.26-12-12.21-18.76-5.62,7.53-21,18l12.21-45.43q11.24-10.5,33.69-31.25,2.45,0,24.17,18.31T1003.61,563A46.84,46.84,0,0,0,1031,554.69Z"/>
      <path d="M1057.81,204.59q0,19-15.07,35.4t-34.17,16.36q-20.1,0-20.09-17.58,0-19.77,14-38.33,15.19-20.26,34.3-20.26,8.58,0,15.19,8A26.15,26.15,0,0,1,1057.81,204.59Zm-15.87,16.18q0-6-8-12.9t-13.88-6.94q-7.37,0-13.38,6.69t-6,14.14q0,10.67,19.16,10.66Q1041.94,232.42,1041.94,220.77Z"/>
      <path d="M1104.93,400.63q0,68.85-17.33,113.77-21,53.72-71.78,88.87L1028,557.62q62.25-49.82,62.25-100.1,0-37.59-23.68-91.06Q1062,390.39,1052.83,438q-3.87,20.5-6.52,20.51l-2.17-.74-.49-3.17q0-19.77,10.21-74.22,10.71-58.83,18.49-67.63,13.37,8.31,23.58,40.29Q1104.93,380.62,1104.93,400.63Z"/>
      <path d="M1152.78,193.36q-5.13,16.6-14.16,21l-85.45,42q3.9-15.14,22.95-24.66Z"/>
      <path d="M816,561.28Q849.57,522.7,849.56,499q0-31-14.11-31-6.81,0-20.44,10.76T789.7,510.06q-12.41,22-12.41,37.65A34.74,34.74,0,0,0,778.5,557L766,603.94a306.54,306.54,0,0,0,27.8-22.35q14.86,17.45,23.39,23.82a51.86,51.86,0,0,0,31.25,10.31,93,93,0,0,0,51.76-15.42l12.69-47.25q-26.85,20.69-58.1,20.68Q824.55,573.73,816,561.28Zm-14.25-18.69q-8.35-9.74-8.35-15.57,0-4.38,11.05-14.11t15.72-9.74q12.78,0,12.78,9.49Q833,526.54,801.76,542.59Z"/>
      <path d="M869.15,381.35q2.93-12.45,4.15-18.8-35.65,22-55.67,30-15.14,30-15.13,36.38l.24,2.92Q864.51,401.13,869.15,381.35Z"/>
      <path d="M1157.18,273.93q0-7.33-8.79-7.33-12.21,0-12.21-3.42,0-6.09,7.33-6.1a12,12,0,0,1,4.88,1q2.43-1.71,7-10.28t5.24-12.2a14.93,14.93,0,0,0-5.4-1.69q-10.31,0-23.82,17.82T1117.87,280q0,9.53,9.65,9.28c5.11-.16,7.92.24,8.41,1.22Q1132,295.9,1110.3,304l-29.79,10.25q0,2.93,3.18,2.93,20.5,0,44.92-11.48Q1157.17,292,1157.18,273.93Z"/>
      <path d="M1224.86,395.26a525.26,525.26,0,0,0-44.78-103q-15.09,45.4-15.09,136,0,48.84,8,50.3,5.54-2.68,5.54-28.08,0-13.67,6.27-60.55,12.29,23.21,26.52,62.26,16.21,44.67,16.21,63,0,25.64-15.38,50.78-9,14.9-33.45,42.23-10.5,11-21.24,22.22Q1145,643.8,1139.6,654.79c.16,1.3,1,2,2.44,2s4.86-1,10.22-2.93q57-20.74,75.76-54.93,15.82-28.57,15.83-93.51Q1243.85,456.07,1224.86,395.26Z"/>
    </g>
  </g>
</svg>
