<svg xmlns="http://www.w3.org/2000/svg" viewBox="0 0 1500 1000">
  <title>EH-Artboard 65</title>
  <g id="ElMuiid">
    <g>
      <path d="M485.6,236.08q0,18-16.4,39.52l7.47,7.31-8.55,24.15A169.33,169.33,0,0,1,452,294.33q-37.85,35.26-57.62,35.26-3.92,0-13.43-2.93,29.78-14.4,62.25-38.09-9.61-9.27-9.62-16.35,0-12.69,13.85-29.67t26-17Q485.59,225.59,485.6,236.08ZM466.06,257.6q0-11.25-9.66-11.26l-3.72,1.47a10.94,10.94,0,0,0-2.73,7.34q0,4.91,11.65,14.45Q466.07,262,466.06,257.6Z"/>
      <path d="M646.48,541.5,634,588A173.51,173.51,0,0,1,606,604q-19.79,9.33-29.79,9.33-27.09,0-27.1-40.77a111.34,111.34,0,0,1,1.47-15.87h-2q-1.46,0-7,6.71t-21.12,35.77q-36.87,68.61-68.61,84.23-18.56,9-32.47,11.47-10.5,2-34.66,2a266.1,266.1,0,0,1-27.59-2q-21.24-2.49-24.9-5.49l.73-1.5,3.42-2q36.85,0,60.05-7.57t52.74-29.54Q481,625.25,494.14,606,511,578.62,527.83,551q24.95-38.58,38.82-44.68l2.44,2.19.49,2.45q-.74,2.44-2.2,10.25a131.49,131.49,0,0,0-2.44,25.39q0,26.13,21.73,26.12Q608.89,572.75,646.48,541.5Z"/>
      <path d="M777.1,769q-5.13,16.61-14.16,21l-85.45,42q3.9-15.13,23-24.66Z"/>
      <path d="M837.16,540.77l-12.7,47.31q-21.24,13.73-40.28,13.73-30.15,0-42.48-45.17-23.09,24.55-37.07,34.12l12.27-45.31,8.11-8.32a17,17,0,0,0-12.28-5.39q-12,0-15.71,1.46,0-6.8,8.3-28.43a137.77,137.77,0,0,1,7.81-16q8.79-9.48,49.57-9.48,28.56,0,28.56,15.58,0,14.12-24.17,40.4,6.58,25.56,27.83,25.56Q814.45,560.79,837.16,540.77Z"/>
      <path d="M898.19,236.08q0,18-16.39,39.52l7.47,7.31-8.55,24.15a170.66,170.66,0,0,1-16.12-12.73Q826.76,329.6,807,329.59q-3.9,0-13.42-2.93,29.78-14.4,62.25-38.09-9.62-9.27-9.62-16.35,0-12.69,13.85-29.67t26-17Q898.19,225.59,898.19,236.08ZM878.66,257.6q0-11.25-9.66-11.26l-3.72,1.47a10.94,10.94,0,0,0-2.73,7.34q0,4.91,11.65,14.45Q878.66,262,878.66,257.6Z"/>
      <path d="M954.83,542.48,942.38,588.9a36.06,36.06,0,0,1-19.28,5.58q-17.34,0-27.35-15.29-20.5,25.39-25.63,25.39-5.62,0-16.6-12.94-10.26-12-12.21-18.76-5.62,7.53-21,18l12.21-45.43q11.22-10.5,33.69-31.25,2.44,0,24.17,18.31t37.11,18.31A46.74,46.74,0,0,0,954.83,542.48Z"/>
      <path d="M981.69,192.38q0,19.05-15.07,35.4t-34.17,16.36q-20.1,0-20.1-17.58,0-19.77,14-38.33Q941.5,168,960.62,168q8.58,0,15.19,8.06A26.1,26.1,0,0,1,981.69,192.38Zm-15.87,16.18q0-6-8-12.9T944,188.72q-7.37,0-13.38,6.7t-6,14.13q0,10.66,19.16,10.66Q965.82,220.21,965.82,208.56Z"/>
      <path d="M1028.81,388.43q0,68.85-17.34,113.77-21,53.71-71.77,88.86l12.2-45.65q62.26-49.8,62.26-100.1,0-37.59-23.68-91.06-4.59,23.92-13.77,71.53-3.87,20.5-6.52,20.51l-2.18-.73-.48-3.18q0-19.77,10.21-74.22,10.69-58.83,18.48-67.62,13.38,8.29,23.59,40.28Q1028.81,368.41,1028.81,388.43Z"/>
      <path d="M1076.66,181.15q-5.13,16.6-14.16,21l-85.45,42q3.9-15.13,23-24.66Z"/>
      <path d="M664.9,569.34q-10,0-14.16-2.69,18.93-26.11,18.94-43.94a43.4,43.4,0,0,0-.73-8.31Q655.35,530,642.23,545.17l-12.14,45.31,6.56-5.16q9.72,18,30.69,17.95,19.77,0,40.28-15l12.45-46.52q-9.77,9.76-25.63,18.31Q676.62,569.35,664.9,569.34Z"/>
      <path d="M624,654.54q-15.87,32.24-15.62,39.8,14.36-7.58,21.41-11.72,29.93-17.08,33.82-21,9-9,15.33-36.62Q650,642.58,642.49,645.75,628.39,651.86,624,654.54Z"/>
      <path d="M1081.05,261.72q0-7.32-8.78-7.33-12.21,0-12.21-3.41,0-6.1,7.32-6.11a12,12,0,0,1,4.89,1q2.43-1.69,7-10.28t5.25-12.2a14.93,14.93,0,0,0-5.4-1.69q-10.32,0-23.82,17.82t-13.5,28.32q0,9.53,9.65,9.28c5.11-.16,7.91.24,8.41,1.22q-3.9,5.37-25.63,13.43L1004.39,302c0,2,1.06,2.93,3.17,2.93q20.52,0,44.93-11.47Q1081.05,279.78,1081.05,261.72Z"/>
      <path d="M1148.74,383.06A525.35,525.35,0,0,0,1104,280q-15.09,45.41-15.09,136,0,48.83,8,50.29,5.55-2.69,5.55-28.08,0-13.67,6.27-60.54,12.28,23.19,26.52,62.25,16.21,44.69,16.21,63,0,25.63-15.38,50.78-9,14.89-33.45,42.24l-21.24,22.21q-12.45,13.44-17.82,24.42a2.11,2.11,0,0,0,2.43,1.95q2.19,0,10.23-2.93,57-20.75,75.75-54.93,15.84-28.56,15.83-93.51Q1167.72,443.86,1148.74,383.06Z"/>
    </g>
  </g>
</svg>
