<svg xmlns="http://www.w3.org/2000/svg" viewBox="0 0 1500 1000">
  <title>EH-Artboard 69</title>
  <g id="ElKajjum">
    <g>
      <path d="M402.17,269.52q0,18.06-16.39,39.52l7.47,7.32-8.55,24.15a170.66,170.66,0,0,1-16.12-12.73Q330.74,363,311,363q-3.9,0-13.42-2.93,29.77-14.4,62.25-38.09-9.63-9.27-9.62-16.36Q350.17,293,364,276t26-17Q402.17,259,402.17,269.52Zm-19.53,21.53q0-11.26-9.67-11.26l-3.72,1.46a11,11,0,0,0-2.72,7.35q0,4.9,11.65,14.45Q382.64,295.46,382.64,291.05Z"/>
      <path d="M614.09,308.35Q606,366.46,548.71,421.63,497.48,465.34,446,509.28,343.09,605,343.09,675.54q0,44.93,69.26,71,52.92,20,106.32,20a382.4,382.4,0,0,0,41-2.2L556,768.31q-32.22,8.3-43.46,8.3-72.51,0-118.65-20.51-64-28.08-64-91.06,0-82.51,97.41-176.27,35.4-33.93,105-87.4c-1-1.47-1.46-4.4-1.46-8.79q0-3.9,8.77-32.47,23.68,0,40-12.94,10-7.56,21-24.17Q609.69,309.08,614.09,308.35Z"/>
      <path d="M796,575.2l-12.45,46.39q-15.63,12.48-56.4,29.83-8.16,36.42-39.06,78-32.22,43.51-64.45,57.45-27.11,11.73-68.12,11.73-15.63,0-46.38-5.19-36.63-5.94-37.85-12.61l2-1.48q7.32.24,23.19,2.93,15.13,2.43,23.44,2.44,16.85,0,49.31-9.52,70.56-20.76,122.32-81.79,18.06-21.24,20.51-37.11-21.24,5.87-28.57,5.86-22.21,0-22.21-14.65,0-15.37,12.45-38.82,13.9-26.11,27.58-26.12,12,0,21.36,9.28T732,613Q773,595.7,796,575.2Z"/>
      <path d="M764.23,688q-15.87,32.22-15.62,39.79,14.34-7.56,21.41-11.72,29.93-17.09,33.82-21,9-9,15.32-36.62Q790.24,676,782.7,679.2,768.6,685.31,764.23,688Z"/>
      <path d="M834.65,593.51q-17.82,9.27-29.54,9.27-10,0-14.16-2.68,18.93-26.13,18.94-44a43.22,43.22,0,0,0-.73-8.3q-13.6,15.63-26.72,30.76L770.3,623.93l6.56-5.16q9.72,18,30.69,18,19.77,0,40.28-15l12.45-46.52Q850.52,585,834.65,593.51Z"/>
      <path d="M917.31,214.6q-5.13,16.6-14.16,21l-85.45,42q3.9-15.13,22.95-24.66Z"/>
      <path d="M1016.43,225.83q0,19-15.07,35.4t-34.17,16.36q-20.1,0-20.1-17.58,0-19.77,14-38.33,15.18-20.27,34.3-20.26,8.58,0,15.19,8.05A26.15,26.15,0,0,1,1016.43,225.83ZM1000.56,242q0-6-8-12.9t-13.88-6.94q-7.37,0-13.38,6.69t-6,14.14q0,10.67,19.16,10.66Q1000.56,253.66,1000.56,242Z"/>
      <path d="M1063.55,421.88q0,68.83-17.34,113.76-21,53.72-71.77,88.87l12.2-45.65q62.27-49.82,62.26-100.1,0-37.59-23.68-91.06-4.59,23.93-13.77,71.53-3.87,20.5-6.52,20.51l-2.18-.74-.48-3.17q0-19.77,10.21-74.22Q1023.19,342.78,1031,334q13.38,8.31,23.59,40.29Q1063.55,401.86,1063.55,421.88Z"/>
      <path d="M1111.4,214.6q-5.13,16.6-14.16,21l-85.45,42q3.9-15.13,23-24.66Z"/>
      <path d="M810.62,384.87q-9.52,0-9-11.4l.24-4.85-6.35,1.46q-18.06,28.85-29.29,28.85-7.83,0-7.82-9l1.71-10.91-5.05.49q-12,16.4-12,29.36l1.71,8.56q5.12,6.62,12.17,6.61,19,0,30.45-19.66,5.83,6.24,9.74,6.23,32.38,0,46-52.49l-6.1,1.46Q824,384.87,810.62,384.87Z"/>
      <path d="M770.89,364.5q15.66,0,51.87-23.92,15.66,6.82,25,7.08,3.91-12.5,3.67-15.69l-.24-3.68-7.31-5.39q14.65-15.43,14.65-21.57a18.06,18.06,0,0,0-4-11.15q-4-5.26-9.64-5.27-12.47,0-25.4,12.13t-12.95,24.37l1,5.88a58.08,58.08,0,0,0,6.43,8.32q-29.1,17.16-57.44,24Q764.78,364.51,770.89,364.5Zm62.8-68.85q7.68,2.94,7.69,8.79,0,5.63-5.29,13.68-10.58-8.31-10.58-13.43Q825.51,295.66,833.69,295.65Z"/>
      <path d="M893.77,582.52q33.54-38.58,33.55-62.26,0-31-14.12-31-6.81,0-20.43,10.76T867.46,531.3q-12.4,22-12.41,37.65a35.14,35.14,0,0,0,1.2,9.29L843.8,625.18a306.54,306.54,0,0,0,27.8-22.35q14.85,17.45,23.39,23.82A51.84,51.84,0,0,0,926.24,637,93,93,0,0,0,978,621.54l12.69-47.25Q963.84,595,932.59,595,902.31,595,893.77,582.52Zm-14.25-18.69q-8.35-9.74-8.35-15.57,0-4.38,11.05-14.11t15.72-9.74q12.78,0,12.78,9.49Q910.72,547.78,879.52,563.83Z"/>
      <path d="M946.91,402.59q2.93-12.45,4.15-18.8-35.65,22-55.67,30-15.14,30-15.13,36.38l.24,2.93Q942.27,422.37,946.91,402.59Z"/>
      <path d="M1183.48,416.5a525.26,525.26,0,0,0-44.78-103q-15.1,45.4-15.09,136,0,48.84,8,50.3,5.55-2.68,5.55-28.08,0-13.67,6.27-60.55,12.28,23.21,26.52,62.26,16.21,44.67,16.21,63,0,25.64-15.38,50.78-9,14.9-33.45,42.23-10.5,11-21.24,22.22Q1103.59,665,1098.22,676a2.11,2.11,0,0,0,2.43,2q2.19,0,10.23-2.93,57-20.74,75.75-54.93,15.84-28.57,15.83-93.51Q1202.46,477.31,1183.48,416.5Z"/>
      <path d="M1115.79,295.17q0-7.34-8.78-7.33c-8.14,0-12.21-1.13-12.21-3.42q0-6.09,7.32-6.1a12,12,0,0,1,4.89,1q2.43-1.71,7-10.28t5.25-12.2a14.93,14.93,0,0,0-5.4-1.69q-10.32,0-23.82,17.82t-13.5,28.32q0,9.53,9.65,9.28c5.11-.16,7.91.24,8.41,1.22q-3.9,5.37-25.63,13.43l-29.79,10.25q0,2.93,3.17,2.93,20.52,0,44.93-11.48Q1115.79,313.24,1115.79,295.17Z"/>
    </g>
  </g>
</svg>
