<svg xmlns="http://www.w3.org/2000/svg" viewBox="0 0 1500 1000">
  <title>EH-Artboard 49</title>
  <g id="ErReqib">
    <g>
      <path d="M372.63,302.73q0,18-16.39,39.52l7.47,7.31-8.55,24.15A169,169,0,0,1,339,361q-37.85,35.26-57.62,35.26-3.9,0-13.43-2.93,29.79-14.4,62.26-38.09-9.63-9.27-9.62-16.35,0-12.69,13.85-29.67t26-17Q372.63,292.24,372.63,302.73ZM353.1,324.25q0-11.25-9.67-11.26l-3.72,1.47A10.93,10.93,0,0,0,337,321.8q0,4.9,11.65,14.45Q353.1,328.66,353.1,324.25Z"/>
      <path d="M851.39,750.24q-5.13,16.6-14.16,21l-85.45,42q3.9-15.13,23-24.66Z"/>
      <path d="M479.69,755.86a122,122,0,0,0-13.18-6.59q-20,30.27-21.95,34.67l21.95,14.89q11-12,22.45-32.72Q489,761.47,479.69,755.86Z"/>
      <path d="M682.93,565.67a27,27,0,0,1-17.45-6.2,19.29,19.29,0,0,1-7.69-15.68q0-6.31,4.51-18t4.76-17.75l-1-2.43-3.91.48-113,105.38Q476.39,675.29,411,675.29q-35.16,0-63-27.22t-27.83-62.38A90.5,90.5,0,0,1,326.73,552q35.61-89.1,183.94-89.11,34.4,0,60.5-10Q620,434.09,627.53,429l-.25-2.69q-63,25.39-113,25.15l-43-.25q-52-.24-92.29,26.12t-61,74.22q-10.74,24.68-10.74,45.17,0,49.8,27.59,83,29.55,35.18,78.38,35.18,45.66,0,101.82-41.56,35.4-26.4,84.48-78.24,41.26-43.53,47.12-44.75l.49,1.23q-2,5.88-2,15.69,0,16.18,7.72,27.22,8.64,12.75,24,12.75,12,0,30.76-13.24L720,547.38Q703.2,565.68,682.93,565.67Z"/>
      <path d="M844.31,355.71q7.08-8.29,13.18-33.93Q824.69,342,802.07,351.56q-15.12,30.53-15.62,39.8,13.18-6.35,27.83-14.9Q839.42,361.58,844.31,355.71Z"/>
      <path d="M818.19,419.92q-11.48,0-25.39,27.83-12.94,25.89-12.94,39.55a15,15,0,0,0,6.1,12.21,19.77,19.77,0,0,0,12.94,4.4q10.5,0,26.86-13.43,4.63,1.95,4.63,8.54,0,11.73-14.4,28.81-12.21,14.65-24.41,22.46l-12.45,45.9q44.43-32,62.85-91.06,9.66-31,9.65-41,0-14.16-9.65-28.32Q831.6,419.92,818.19,419.92Z"/>
      <path d="M1019.6,547.61l-12.69,47.12q-30.28,17.58-42.24,25.63-28.56,19-34.91,31.5-19.53,42.24-39.06,84.22-28.34,53.71-59.08,64-23.45,8-51.52,8-56.4,0-72.51-9.51l-.73-1.24,1.95-2.19a163.54,163.54,0,0,0,32,2.93q44.93,0,85-28.81,35.38-25.89,59.81-68.36,1.71-3.18,23.19-45.9,13.92-27.84,27-43.58t41.38-33.32Q1008.62,558.6,1019.6,547.61Z"/>
      <path d="M1093.09,394q0,68.85-17.33,113.77-21,53.71-71.78,88.87L1016.19,551q62.25-49.81,62.25-100.1,0-37.59-23.68-91.07-4.59,23.94-13.77,71.54-3.87,20.5-6.52,20.5l-2.18-.73-.48-3.17q0-19.78,10.21-74.22,10.71-58.83,18.48-67.63,13.38,8.31,23.59,40.29Q1093.09,374,1093.09,394Z"/>
      <path d="M1140.94,186.77q-5.13,16.6-14.16,21l-85.45,42q3.9-15.13,23-24.66Z"/>
      <path d="M739.19,575q-10,0-14.16-2.68Q744,546.14,744,528.32a43.22,43.22,0,0,0-.73-8.3q-13.61,15.63-26.71,30.76L704.38,596.1l6.56-5.17q9.72,18,30.69,18,19.77,0,40.28-15l12.45-46.53q-9.76,9.78-25.63,18.31Q750.91,575,739.19,575Z"/>
      <path d="M698.31,660.16Q682.44,692.38,682.69,700q14.35-7.56,21.41-11.72,29.92-17.09,33.82-21,9-9,15.33-36.62-28.93,17.57-36.46,20.75Q702.69,657.48,698.31,660.16Z"/>
      <path d="M890,355.47q-9.27,0-9.27-17.82l-5.86,1.46q-18.55,32.47-30,32.47-8.55,0-8.55-11.47l.74-7.57-8.55,4.64q-6.84,18.6-6.83,25.25,0,13.81,14.19,13.81,16.4,0,31.08-21.15,8.82,6.26,14.44,6.26,17.63,0,29.13-21.24,8.55-15.63,11-36.62l-7.57,2.19Q904.13,355.47,890,355.47Z"/>
      <path d="M830.88,346.68l79.84-28.32q9.75-3.42,16.84-18.56L858,324.22Q841.63,329.83,830.88,346.68Z"/>
      <path d="M1145.34,267.33q0-7.32-8.79-7.32-12.21,0-12.21-3.42,0-6.09,7.32-6.1a12.13,12.13,0,0,1,4.89,1q2.43-1.69,7-10.27c3-5.72,4.77-9.79,5.25-12.21a15.14,15.14,0,0,0-5.4-1.69q-10.32,0-23.82,17.83T1106,273.44q0,9.53,9.65,9.27c5.11-.16,7.92.25,8.41,1.23q-3.9,5.37-25.63,13.42l-29.79,10.26q0,2.92,3.18,2.93,20.51,0,44.92-11.48Q1145.33,285.4,1145.34,267.33Z"/>
      <path d="M1213,388.67a525.61,525.61,0,0,0-44.78-103q-15.09,45.42-15.09,136,0,48.84,8,50.29,5.54-2.69,5.54-28.07,0-13.68,6.27-60.55,12.28,23.2,26.52,62.26,16.21,44.67,16.21,63,0,25.63-15.38,50.79-9,14.89-33.45,42.23l-21.24,22.22q-12.45,13.43-17.82,24.41a2.12,2.12,0,0,0,2.44,2q2.17,0,10.22-2.93,57-20.76,75.75-54.93Q1232,563.72,1232,498.78,1232,449.46,1213,388.67Z"/>
    </g>
  </g>
</svg>
