<svg xmlns="http://www.w3.org/2000/svg" viewBox="0 0 1500 1000">
  <title>EH-Artboard 7</title>
  <g id="ArRahman">
    <g>
      <path d="M399.73,305.29q0,18.06-16.4,39.52l7.48,7.32-8.55,24.15a170.85,170.85,0,0,1-16.12-12.74q-37.84,35.26-57.62,35.26-3.9,0-13.43-2.93,29.79-14.4,62.26-38.08-9.63-9.29-9.62-16.36,0-12.69,13.85-29.66t26-17Q399.73,294.8,399.73,305.29ZM380.2,326.82q0-11.26-9.67-11.27L366.81,317a11,11,0,0,0-2.72,7.35q0,4.89,11.65,14.44C378.71,333.76,380.2,329.75,380.2,326.82Z"/>
      <path d="M557.69,549.93,545.24,596.2q-24.66,18.46-40,17.2L500.57,635q-8.54,39.69-39.74,79.61-35.58,45.55-70.93,45.56-44.61,0-44.61-54,0-31.3,23.44-84.13-31.49,1.21-50.05,32l-1.46.49L315.75,653q0-24.5,20.51-49.47Q357.74,577,381.45,577q10.77,0,10.77,9.53,0,9.3-13.58,40.61t-13.58,47.44q0,18.35,10.89,29.47t29.23,11.13q22.26,0,48.44-24.9,24.7-23.44,30.58-46.14a118.81,118.81,0,0,0,4.15-29.3q0-15.63-12-27.59-.5-16.11,18.9-44.43,7.26,3.17,18,31.25Q530.58,574.1,557.69,549.93Z"/>
      <path d="M613.84,274.78q-5.13,16.61-14.16,21l-85.45,42q3.9-15.13,22.95-24.66Z"/>
      <path d="M675.61,550.66l-12.45,46.42a36.09,36.09,0,0,1-19.29,5.58q-17.34,0-27.34-15.3-20.5,25.39-25.64,25.39-5.61,0-16.6-12.93-10.24-12-12.21-18.77-5.61,7.53-21,18l12.2-45.43q11.24-10.5,33.7-31.25,2.43,0,24.17,18.31T648.27,559A46.83,46.83,0,0,0,675.61,550.66Z"/>
      <path d="M702.46,286q0,19-15.06,35.4t-34.18,16.36q-20.1,0-20.09-17.58,0-19.77,14-38.33,15.2-20.26,34.31-20.26,8.57,0,15.19,8A26.2,26.2,0,0,1,702.46,286ZM686.6,302.19q0-6-8-12.9t-13.87-6.94c-4.92,0-9.37,2.23-13.39,6.69s-6,9.18-6,14.14q0,10.67,19.15,10.66Q686.6,313.84,686.6,302.19Z"/>
      <path d="M854.08,413.7q0,5.85-3.3,19.28t-6,17.58a285.68,285.68,0,0,0-78.61,50.29Q733,533.82,700,566.77v5.86q-.24,8.79,5.37,60.55v1.46a4.18,4.18,0,0,1-1.46,2.93l-1.71-.73a433.37,433.37,0,0,1-11.47-61.77,264.18,264.18,0,0,1-30,23.68l12.45-45.89,15.38-12.94L688.3,526q0-4.63,4.74-32,6.74-38.32,22.85-54,17.58-17.32,55.42-17.33a113.34,113.34,0,0,1,14.41,1.34,111.64,111.64,0,0,0,14.4,1.35q29.79,0,53.71-14.41Zm-81.3,48.58q-29.55.5-40.53,4.15-19.29,6.1-27.83,27.34a77.65,77.65,0,0,0-6.11,29.06v9.27Q711,521.86,735.42,497,758.87,473,772.78,462.28Z"/>
      <path d="M900.46,302.37l-69.58,24.41q-16.35,5.63-27.1,22.46l79.84-28.32Q893.39,317.52,900.46,302.37Z"/>
      <path d="M862.87,358q-9.29,0-9.28-17.82l-5.86,1.46q-18.56,32.47-30,32.48-8.55,0-8.55-11.48l.74-7.57-8.55,4.64q-6.84,18.6-6.83,25.25,0,13.81,14.19,13.81,16.39,0,31.08-21.15,8.82,6.25,14.44,6.26,17.63,0,29.13-21.24,8.55-15.62,11-36.62l-7.57,2.2Q877,358,862.87,358Z"/>
      <path d="M992.5,550.17l-12.69,47.12q-30.27,17.58-42.24,25.63Q909,642,902.66,654.42q-19.53,42.24-39.06,84.23-28.33,53.7-59.08,64-23.44,8-51.52,8-56.4,0-72.51-9.51l-.73-1.23,2-2.2a163.57,163.57,0,0,0,32,2.93q44.91,0,85-28.81Q834,746,858.47,703.49q1.71-3.16,23.19-45.9,13.92-27.83,27-43.58T950,580.69Q981.52,561.16,992.5,550.17Z"/>
      <path d="M1066,396.61q0,68.83-17.33,113.77-21,53.7-71.78,88.86l12.21-45.65q62.25-49.8,62.25-100.1,0-37.59-23.68-91.06-4.59,23.93-13.77,71.53-3.87,20.51-6.52,20.51l-2.17-.73-.49-3.18q0-19.77,10.21-74.22,10.71-58.83,18.49-67.62Q1046.77,317,1057,349,1066,376.59,1066,396.61Z"/>
      <path d="M1113.84,189.33q-5.13,16.6-14.16,21l-85.45,42q3.9-15.13,23-24.66Z"/>
      <path d="M1118.24,269.9q0-7.33-8.79-7.33-12.21,0-12.21-3.41,0-6.11,7.32-6.11a12,12,0,0,1,4.89,1q2.43-1.69,7-10.28t5.24-12.2a14.93,14.93,0,0,0-5.4-1.69q-10.3,0-23.82,17.82T1078.93,276q0,9.53,9.65,9.28c5.11-.16,7.92.24,8.41,1.22q-3.9,5.37-25.63,13.43l-29.79,10.25q0,2.93,3.18,2.93,20.51,0,44.92-11.47Q1118.23,288,1118.24,269.9Z"/>
      <path d="M1185.92,391.24a525.35,525.35,0,0,0-44.78-103q-15.09,45.41-15.09,136,0,48.84,8,50.3,5.54-2.69,5.54-28.08,0-13.67,6.27-60.55,12.29,23.2,26.52,62.26,16.22,44.69,16.21,63,0,25.64-15.38,50.78-9,14.9-33.45,42.24l-21.24,22.21q-12.45,13.44-17.82,24.42c.16,1.3,1,2,2.44,2s4.86-1,10.22-2.93q57-20.74,75.76-54.93,15.83-28.56,15.83-93.51Q1204.91,452,1185.92,391.24Z"/>
    </g>
  </g>
</svg>
