<svg xmlns="http://www.w3.org/2000/svg" viewBox="0 0 1500 1000">
  <title>EH-Artboard 31</title>
  <g id="ElMuzil">
    <g>
      <path d="M747,334.47l-1,2.93q-68.12,35.66-136.72,63.48a416.53,416.53,0,0,1,9.28,85.2q0,78.13-49.61,157.72-26.38,42.24-48.14,61-31,26.63-70.87,26.62-46.18,0-68.42-39.8-17.36-31.24-17.35-81.54,0-34.67,22.21-72.27a215.35,215.35,0,0,1,51.27-59.32Q473.52,449.47,546.51,417q0-6.09-.25-26.61-.48-18.79-.48-31.74a288.05,288.05,0,0,1,13.67-87.4Q590,322.75,607.54,392.09q55.9-20.74,137.21-59.33ZM600.46,496.58q0-38.32-12.2-87.64l-30.52,12.45q-1.74,9.27-4.2,71.29-2,51.51-8.9,63l-2.72,1.22-2.72-1.7q4.38-25.39,5.6-64.21,1-32.24,1.71-64.46-52.9,23.94-100.93,63.24-69,56.64-69,121.58,0,32.71,19,54.69Q415.85,689,448,689q60.73,0,106.58-59.08T600.46,496.58Zm-14.64-96.43q-7.34-23.92-10.5-32.23A188,188,0,0,0,561.4,337.4Q558,341.56,558,412.11Z"/>
      <path d="M677.12,800.54q-5.11,16.59-14.16,21l-85.45,42q3.91-15.15,23-24.66Z"/>
      <path d="M903.93,267.57q0,18.06-16.39,39.52l7.47,7.32-8.55,24.15a172.3,172.3,0,0,1-16.12-12.73q-37.85,35.25-57.62,35.25-3.9,0-13.43-2.93,29.79-14.4,62.26-38.08-9.63-9.29-9.62-16.36,0-12.69,13.85-29.66t26-17Q903.93,257.08,903.93,267.57ZM884.4,289.1q0-11.27-9.67-11.27L871,279.3a11,11,0,0,0-2.72,7.35q0,4.89,11.65,14.44C882.91,296,884.4,292,884.4,289.1Z"/>
      <path d="M960.57,574l-12.45,46.42A36,36,0,0,1,928.83,626q-17.34,0-27.34-15.3-20.5,25.4-25.64,25.39-5.61,0-16.6-12.94-10.25-12-12.2-18.76-5.62,7.53-21,18l12.21-45.43q11.22-10.49,33.69-31.25,2.43,0,24.17,18.31t37.11,18.32A46.77,46.77,0,0,0,960.57,574Z"/>
      <path d="M987.43,223.88q0,19-15.07,35.4t-34.18,16.35q-20.08,0-20.09-17.57,0-19.78,14-38.33,15.18-20.26,34.3-20.27,8.57,0,15.19,8.06A26.15,26.15,0,0,1,987.43,223.88Zm-15.87,16.17q0-5.94-8-12.89t-13.87-6.95q-7.37,0-13.39,6.7t-6,14.14q0,10.66,19.16,10.66Q971.56,251.71,971.56,240.05Z"/>
      <path d="M1034.55,419.92q0,68.85-17.34,113.77-21,53.71-71.78,88.87l12.21-45.66q62.26-49.8,62.26-100.09,0-37.6-23.68-91.07-4.59,23.94-13.78,71.54-3.86,20.5-6.51,20.5l-2.18-.73-.48-3.17q0-19.78,10.21-74.22Q994.18,340.83,1002,332q13.38,8.31,23.59,40.28Q1034.53,399.91,1034.55,419.92Z"/>
      <path d="M1082.4,212.65q-5.13,16.6-14.16,21l-85.45,42q3.9-15.13,23-24.65Z"/>
      <path d="M438,141.75q-4-5.28-9.64-5.28-12.47,0-25.41,12.13T390,173l1,5.88a59.66,59.66,0,0,0,6.43,8.33q-29.08,17.15-57.43,24,8.31,4.89,14.43,4.88,15.66,0,51.88-23.92,15.65,6.84,25,7.08,3.92-12.5,3.67-15.69l-.25-3.67-7.3-5.4Q442,159,442,152.9A18,18,0,0,0,438,141.75Zm-18.37,27.93q-10.59-8.3-10.58-13.43,0-9,8.17-9,7.69,2.92,7.7,8.79Q424.93,161.62,419.64,169.68Z"/>
      <path d="M394.17,236.43q-9.53,0-9-11.4l.25-4.85L379,221.64q-18.07,28.85-29.3,28.85-7.82,0-7.81-9l1.71-10.91-5.06.49q-12,16.4-12,29.36l1.7,8.57q5.11,6.6,12.18,6.6,19,0,30.45-19.66,5.83,6.24,9.73,6.24,32.4,0,46-52.49l-6.11,1.45Q407.59,236.43,394.17,236.43Z"/>
      <path d="M761.6,578.13a131.6,131.6,0,0,1,2.44-25.4q1.46-7.8,2.2-10.25l-.49-2.44-2.44-2.2q-13.89,6.1-38.82,44.68-16.85,27.59-33.69,54.93-13.18,19.29-44.93,42.73-29.54,22-52.73,29.54t-60.06,7.57l-3.42,2-.73,1.5q3.66,3,24.9,5.49a266.28,266.28,0,0,0,27.59,2q24.17,0,34.67-1.95,13.92-2.45,32.47-11.48,31.74-15.62,68.6-84.22,15.63-29.05,21.12-35.77t7-6.72h2A112.83,112.83,0,0,0,745.73,604q0,40.79,27.1,40.78,10,0,29.78-9.34a174.42,174.42,0,0,0,28.08-16L843.14,573q-37.6,31.25-59.81,31.25Q761.6,604.25,761.6,578.13Z"/>
      <path d="M763.55,461.91l9.77-17.57q0-7.33-22.22-16.85-15.39,22.22-22,34.67l21.72,14.89A60.8,60.8,0,0,0,763.55,461.91Z"/>
      <path d="M1154.48,414.55a525.61,525.61,0,0,0-44.78-103q-15.1,45.42-15.1,136,0,48.83,8,50.29,5.55-2.69,5.55-28.07,0-13.68,6.27-60.55,12.27,23.19,26.52,62.26,16.2,44.67,16.2,63,0,25.64-15.38,50.79-9,14.88-33.44,42.23L1087,649.66q-12.45,13.43-17.83,24.41a2.12,2.12,0,0,0,2.44,2q2.19,0,10.23-2.93,57-20.76,75.75-54.94,15.82-28.56,15.83-93.5Q1173.46,475.34,1154.48,414.55Z"/>
      <path d="M1086.79,294.21q0-7.32-8.79-7.32-12.21,0-12.2-3.42,0-6.11,7.32-6.1a12,12,0,0,1,4.88,1q2.45-1.69,7-10.27t5.25-12.21a15.25,15.25,0,0,0-5.4-1.69q-10.32,0-23.82,17.83t-13.5,28.32q0,9.51,9.65,9.27,7.66-.24,8.41,1.22-3.91,5.38-25.64,13.43l-29.78,10.26c0,1.95,1,2.93,3.17,2.93q20.51,0,44.92-11.48Q1086.8,312.28,1086.79,294.21Z"/>
    </g>
  </g>
</svg>
