<svg xmlns="http://www.w3.org/2000/svg" viewBox="0 0 1500 1000">
  <title>EH-Artboard 15</title>
  <g id="ElDzebar">
    <g>
      <path d="M436.77,356.07q0,18.06-16.4,39.52l7.48,7.32-8.55,24.15a171,171,0,0,1-16.12-12.73q-37.85,35.25-57.62,35.25-3.92,0-13.43-2.92,29.79-14.42,62.26-38.09-9.63-9.27-9.62-16.36,0-12.69,13.85-29.66t26-17Q436.77,345.58,436.77,356.07ZM417.24,377.6q0-11.27-9.67-11.27l-3.72,1.47a11,11,0,0,0-2.73,7.35q0,4.89,11.65,14.44Q417.24,382,417.24,377.6Z"/>
      <path d="M559.08,524.44q0,26.22-8.05,27.68l-6.6-8q-6.82.24-11.23,8.07-12,20.77-25.39,54.26-11,28.11-22,56-9.29,22-28.56,43.51-20.52,23-40.78,32-23,10.51-63.23,10.51-60.79,0-62.74-6.29l2.44-1.76q51.27,0,95.21-22,45.66-22.92,73.25-64.63,14.88-22.68,32-60.24l22.46-50.24q19-37.8,29.54-37.81,5.87,0,10,6.8A22.54,22.54,0,0,1,559.08,524.44Z"/>
      <path d="M714.84,601.2,702.39,648q-19.53,13.26-39.55,13.25-27.58,0-37.84-30.94-5.62-17.4-6.59-53.77l-1.84-73.73q-2.07-83-2.07-84.48,0-3.16,5.89-20.75t8.05-20.5h1.44q.74,42.24,2.93,126.22.24,23.43,5.13,69.33,9.76,47.13,37.35,47.12Q695.8,619.75,714.84,601.2Z"/>
      <path d="M779.3,353.15l-69.58,24.41q-16.37,5.63-27.1,22.46l79.83-28.32Q772.22,368.3,779.3,353.15Z"/>
      <path d="M741.7,408.81q-9.29,0-9.28-17.82l-5.86,1.47q-18.55,32.46-30,32.47-8.55,0-8.54-11.48l.73-7.57-8.54,4.64q-6.84,18.6-6.84,25.26,0,13.8,14.19,13.8,16.41,0,31.09-21.15,8.8,6.27,14.44,6.26,17.61,0,29.12-21.24,8.57-15.61,11-36.62l-7.56,2.2Q755.85,408.82,741.7,408.81Z"/>
      <path d="M708.25,694.46q-21,32.22-22,34.42l21.48,14.89q11-10,22.71-32.95Q730.47,702.51,708.25,694.46Z"/>
      <path d="M765.14,619q-17.83,9.29-29.54,9.28-10,0-14.16-2.69,19-26.11,19-43.94a43.4,43.4,0,0,0-.73-8.31Q726.07,589,712.89,604.13l-12.21,45.31,6.6-5.16q9.75,18,30.76,18,19.77,0,40.28-15l12.45-46.52Q781,610.48,765.14,619Z"/>
      <path d="M847.9,386.6q-5.13,16.61-14.16,21l-85.45,42q3.9-15.12,23-24.65Z"/>
      <path d="M817.93,723.27q-20.31,30.51-22.52,34.42,10.77,8.29,21.79,15.38,15.18-19.29,22.77-33.2Q840,731.08,817.93,723.27Z"/>
      <path d="M929.17,623.41q-19,0-32-10.74-13.92-11.48-13.92-30.28A112.51,112.51,0,0,1,885,562.61q26.12-23.21,75.44-33.21,11.22-15.89,15.62-39.32a76.7,76.7,0,0,1-32.22,6.79q-11,0-31.86-6.19t-31.63-6.18q-41.13,0-61.21,37.07-10.27,19-22,73.42l-9,8.54-12.46,45.86q11.73-8.75,17.58-13.35l-2,30.27v30.52l1.22,1.22,1.22-.73,2.2-4.15q-1-26.37,6.59-64.95,37-32.25,69.34-56.94-4.4,19.51-4.38,32,0,26.09,15.32,44.13,16.13,19,42,19,29.79,0,59.82-18.5L997,601.39Q969,623.41,929.17,623.41Zm-82-68q-10.75,7.85-39.55,31.57,9.76-62.64,54.44-62.65,7.82,0,28.32,4.9Q870.12,538.49,847.17,555.37Z"/>
      <path d="M1023.44,251.34q0,19.05-15.07,35.4T974.19,303.1q-20.09,0-20.09-17.58,0-19.77,14-38.33,15.18-20.26,34.3-20.26,8.57,0,15.19,8.06A26.1,26.1,0,0,1,1023.44,251.34Zm-15.87,16.18q0-6-8-12.9t-13.87-6.94q-7.37,0-13.39,6.7t-6,14.13q0,10.67,19.16,10.66Q1007.57,279.17,1007.57,267.52Z"/>
      <path d="M1070.56,447.39q0,68.85-17.34,113.77-21,53.72-71.77,88.86l12.2-45.65q62.27-49.8,62.26-100.1,0-37.59-23.68-91.06-4.59,23.93-13.77,71.53-3.87,20.5-6.52,20.51l-2.18-.73-.48-3.18q0-19.77,10.21-74.22,10.69-58.83,18.48-67.62,13.38,8.29,23.59,40.28Q1070.55,427.37,1070.56,447.39Z"/>
      <path d="M1118.41,240.11q-5.13,16.61-14.16,21l-85.45,42q3.9-15.14,23-24.66Z"/>
      <path d="M1122.8,320.68q0-7.32-8.79-7.33-12.21,0-12.2-3.41,0-6.1,7.32-6.11a11.88,11.88,0,0,1,4.88,1q2.45-1.69,7-10.28t5.25-12.2a15,15,0,0,0-5.4-1.69q-10.32,0-23.82,17.82t-13.5,28.32q0,9.53,9.65,9.28c5.11-.16,7.91.24,8.41,1.22q-3.91,5.37-25.64,13.43L1046.14,361c0,2,1.06,2.93,3.17,2.93q20.51,0,44.92-11.47Q1122.8,338.74,1122.8,320.68Z"/>
      <path d="M1190.49,442a525.35,525.35,0,0,0-44.78-103q-15.11,45.4-15.09,136,0,48.82,8,50.29,5.55-2.68,5.55-28.08,0-13.67,6.27-60.54,12.27,23.19,26.52,62.25,16.2,44.69,16.21,63,0,25.64-15.39,50.78-9,14.9-33.44,42.24l-21.24,22.21q-12.45,13.44-17.83,24.42a2.12,2.12,0,0,0,2.44,2q2.19,0,10.23-2.93,57-20.74,75.75-54.93,15.83-28.56,15.83-93.51Q1209.47,502.82,1190.49,442Z"/>
    </g>
  </g>
</svg>
