<svg xmlns="http://www.w3.org/2000/svg" viewBox="0 0 1500 1000">
  <title>EH-Artboard 57</title>
  <g id="ElHaqq">
    <g>
      <path d="M673.34,610.62l-12.45,46.14a111.74,111.74,0,0,1-26.61,14.16q-2.21,38.36-42.24,94.85-42.48,60.39-77.64,60.4Q469,826.17,469,757q0-27.15,6.84-48.67,3.9-11.73,3.91-16.38,0-5.88-7.33-5.87-10.74,0-28.32,19.09-14.64,15.66-21.73,29.37L420.41,736l-2-1.71A141.8,141.8,0,0,1,427,699.64q.5-1.46,12.45-18.53,23.69-34.14,43-34.14,13.88,0,13.88,17.09,0,13.44-7.08,39.55t-6.84,39.8q0,36.12,36.87,36.13,30.51,0,60.06-34.25,25.88-30.1,34.42-63.38-28.56,11.24-36.13,11.22a12.94,12.94,0,0,1-8.91-3.66,11.21,11.21,0,0,1-4-8.54q0-50.29,27-64.46c1.95-.16,3.65-.24,5.11-.24q14.85,0,30.17,21.73Q645.26,631.86,673.34,610.62Z"/>
      <path d="M731.69,335.45q-5.13,16.6-14.16,21l-85.45,42Q636,383.31,655,373.78Z"/>
      <path d="M880.83,611.27l-12.45,46.5q-30,18.51-59.82,18.5-25.87,0-42-19-15.33-18-15.32-44.14,0-12.43,4.38-31.94-32.37,24.69-69.34,56.93-7.57,38.6-6.59,64.95l-2.2,4.15-1.22.74-1.22-1.23V676.2l2-30.28q-5.85,4.62-17.58,13.36l12.46-45.86,9-8.54q11.75-54.39,22-73.42,20.07-37.08,61.21-37.08,10.76,0,31.63,6.19t31.86,6.19A76.7,76.7,0,0,0,859.86,500q-4.4,23.44-15.62,39.31-49.32,10-75.44,33.21a112.67,112.67,0,0,0-1.74,19.78q0,18.81,13.92,30.28,12.93,10.76,32,10.75Q852.76,633.3,880.83,611.27Zm-106.66-72.2q-20.5-4.89-28.32-4.89-44.69,0-54.44,62.65,28.8-23.73,39.55-31.57Q753.9,548.37,774.17,539.07Z"/>
      <path d="M907.23,261.23q0,19-15.07,35.4T858,313q-20.1,0-20.09-17.58,0-19.77,14-38.33,15.18-20.26,34.3-20.26,8.57,0,15.19,8.05A26.15,26.15,0,0,1,907.23,261.23Zm-15.87,16.18q0-6-8-12.9t-13.87-6.94q-7.37,0-13.39,6.69t-6,14.14q0,10.67,19.15,10.66Q891.36,289.06,891.36,277.41Z"/>
      <path d="M954.35,457.28q0,68.84-17.34,113.76-21,53.72-71.78,88.87l12.21-45.65q62.26-49.82,62.26-100.1,0-37.59-23.68-91.06-4.59,23.92-13.78,71.53-3.86,20.5-6.51,20.51l-2.18-.74-.48-3.17q0-19.77,10.21-74.22,10.69-58.83,18.48-67.63,13.38,8.31,23.59,40.29Q954.34,437.26,954.35,457.28Z"/>
      <path d="M1002.2,250q-5.13,16.61-14.16,21l-85.45,42q3.9-15.14,22.95-24.66Z"/>
      <path d="M518.21,179.1q-4-5.26-9.64-5.27-12.46,0-25.41,12.13t-13,24.36l1,5.88a59,59,0,0,0,6.43,8.33q-29.08,17.15-57.43,24,8.31,4.88,14.44,4.88,15.64,0,51.87-23.93,15.64,6.84,25,7.08,3.91-12.49,3.67-15.68l-.25-3.68-7.3-5.39q14.66-15.44,14.65-21.57A18,18,0,0,0,518.21,179.1ZM499.84,207q-10.59-8.29-10.58-13.43,0-9,8.17-9,7.69,2.93,7.7,8.79Q505.13,199,499.84,207Z"/>
      <path d="M474.37,273.78q-9.53,0-9-11.39l.25-4.85L459.23,259q-18.08,28.85-29.3,28.85-7.81,0-7.81-9L423.83,268l-5.06.49q-12,16.4-12,29.37l1.7,8.56q5.12,6.62,12.18,6.61,19,0,30.44-19.66,5.85,6.24,9.74,6.23,32.4,0,46-52.49l-6.11,1.46Q487.79,273.79,474.37,273.78Z"/>
      <path d="M1074.28,451.9a525.52,525.52,0,0,0-44.78-103q-15.11,45.4-15.1,136,0,48.84,8,50.3,5.55-2.68,5.55-28.08,0-13.66,6.27-60.55,12.27,23.21,26.52,62.26,16.2,44.67,16.2,63,0,25.63-15.38,50.78-9,14.9-33.44,42.23-10.5,11-21.24,22.22Q994.39,700.44,989,711.43a2.12,2.12,0,0,0,2.44,2q2.19,0,10.23-2.93,57-20.75,75.75-54.93,15.83-28.57,15.83-93.51Q1093.26,512.7,1074.28,451.9Z"/>
      <path d="M1006.59,330.57q0-7.33-8.79-7.33c-8.14,0-12.2-1.13-12.2-3.42q0-6.09,7.32-6.1a11.88,11.88,0,0,1,4.88,1q2.44-1.71,7-10.28t5.25-12.2a15,15,0,0,0-5.4-1.69q-10.32,0-23.82,17.82t-13.5,28.32q0,9.52,9.65,9.28c5.11-.16,7.91.24,8.41,1.22q-3.92,5.37-25.64,13.43l-29.78,10.25c0,1.95,1.05,2.93,3.17,2.93q20.5,0,44.92-11.48Q1006.6,348.64,1006.59,330.57Z"/>
    </g>
  </g>
</svg>
