<svg xmlns="http://www.w3.org/2000/svg" viewBox="0 0 1500 1000">
  <title>EH-Artboard 88</title>
  <g id="ElAfuww">
    <g>
      <path d="M688.6,589.11l-12.45,46.4q-15.63,12.47-56.4,29.82-8.18,36.43-39.06,78-32.24,43.5-64.45,57.45-27.11,11.73-68.12,11.73-15.63,0-46.39-5.19-36.62-5.94-37.84-12.61l1.95-1.49q7.34.24,23.2,2.93,15.13,2.45,23.44,2.44,16.84,0,49.31-9.52,70.56-20.74,122.32-81.78,18.06-21.24,20.5-37.11Q583.37,676,576.05,676q-22.21,0-22.22-14.65,0-15.39,12.45-38.82,13.92-26.13,27.59-26.12,12,0,21.36,9.27t9.4,21.24Q665.66,609.63,688.6,589.11Z"/>
      <path d="M740.11,198q0,18.06-16.39,39.52l7.47,7.32L722.64,269a170.85,170.85,0,0,1-16.12-12.74q-37.85,35.26-57.62,35.26-3.9,0-13.42-2.93,29.78-14.4,62.25-38.08-9.63-9.28-9.62-16.36,0-12.69,13.85-29.66t26-17Q740.11,187.5,740.11,198Zm-19.53,21.53q0-11.27-9.66-11.27l-3.72,1.47a11,11,0,0,0-2.73,7.35q0,4.89,11.65,14.44C719.09,226.46,720.58,222.45,720.58,219.52Z"/>
      <path d="M864.62,314q-5.11,16.62-14.16,21L765,377q3.91-15.13,23-24.66Z"/>
      <path d="M924.68,588.13,912,635.44q-21.24,13.74-40.29,13.73-30.15,0-42.48-45.17-23.07,24.56-37.06,34.12l12.27-45.3,8.1-8.33a17,17,0,0,0-12.28-5.39q-12,0-15.7,1.47,0-6.81,8.3-28.44a136.16,136.16,0,0,1,7.81-16q8.79-9.48,49.56-9.48,28.56,0,28.56,15.58,0,14.13-24.17,40.41,6.6,25.56,27.84,25.55Q902,608.15,924.68,588.13Z"/>
      <path d="M950.07,239.75q0,19-15.07,35.4T900.83,291.5q-20.1,0-20.09-17.57,0-19.78,14-38.33,15.19-20.26,34.3-20.27,8.58,0,15.19,8.06A26.15,26.15,0,0,1,950.07,239.75ZM934.2,255.92q0-5.94-8-12.89t-13.87-6.95q-7.38,0-13.39,6.7t-6,14.14q0,10.66,19.16,10.66Q934.2,267.58,934.2,255.92Z"/>
      <path d="M997.19,435.79q0,68.85-17.33,113.77-21,53.72-71.78,88.87l12.21-45.66q62.25-49.8,62.25-100.09,0-37.6-23.68-91.07-4.59,23.92-13.77,71.53-3.87,20.52-6.52,20.51l-2.17-.73-.49-3.17q0-19.78,10.22-74.22,10.7-58.84,18.48-67.63,13.36,8.31,23.58,40.28Q997.19,415.78,997.19,435.79Z"/>
      <path d="M1045,228.52q-5.11,16.6-14.16,21l-85.45,42q3.92-15.13,23-24.65Z"/>
      <path d="M527.37,304.1q-4-5.27-9.65-5.27-12.45,0-25.4,12.13t-12.95,24.36l1,5.88a58.3,58.3,0,0,0,6.43,8.33q-29.09,17.14-57.44,24,8.32,4.88,14.44,4.88,15.66,0,51.87-23.93,15.66,6.84,25,7.08,3.92-12.49,3.67-15.68l-.24-3.68-7.3-5.39q14.64-15.44,14.64-21.57A18.08,18.08,0,0,0,527.37,304.1ZM509,332q-10.58-8.29-10.58-13.43,0-9,8.18-9,7.68,2.93,7.69,8.79Q514.28,324,509,332Z"/>
      <path d="M483.52,398.78q-9.52,0-9-11.39l.24-4.85L468.38,384q-18.06,28.86-29.29,28.85-7.81,0-7.82-9L433,393l-5.05.49q-12,16.4-12,29.37l1.71,8.56q5.11,6.62,12.18,6.61,19,0,30.44-19.66,5.85,6.24,9.74,6.23,32.39,0,46-52.49l-6.1,1.46Q496.95,398.79,483.52,398.78Z"/>
      <path d="M745,427.73q0-3.66-9.75-9.76-4.39-2.69-12.68-6.84l-22.18,34.43,21.69,15.13Q732.31,452.89,745,427.73Z"/>
      <path d="M711.45,596.44Q745,557.86,745,534.18q0-31-14.12-31-6.81,0-20.43,10.76t-25.31,31.29q-12.42,22-12.41,37.65a42.21,42.21,0,0,0,1,9.29l-12.46,46.93a310.18,310.18,0,0,0,27.84-22.34q14.88,17.43,23.43,23.81a51.87,51.87,0,0,0,31.25,10.32,93,93,0,0,0,51.76-15.42l12.7-47.25q-26.82,20.67-58,20.68Q720,608.89,711.45,596.44Zm-14.25-18.7q-8.36-9.72-8.36-15.57,0-4.38,11.06-14.11t15.72-9.73q12.76,0,12.77,9.49Q728.39,561.68,697.2,577.74Z"/>
      <path d="M1117.12,430.42a525.35,525.35,0,0,0-44.78-103q-15.09,45.42-15.09,136,0,48.83,8,50.29,5.55-2.68,5.54-28.07,0-13.68,6.28-60.55,12.27,23.19,26.52,62.25,16.2,44.69,16.2,63,0,25.63-15.38,50.78-9,14.89-33.45,42.24l-21.24,22.22q-12.45,13.43-17.82,24.41c.16,1.31,1,1.95,2.44,1.95s4.87-1,10.23-2.93q57-20.75,75.75-54.93,15.83-28.56,15.83-93.5Q1136.11,491.21,1117.12,430.42Z"/>
      <path d="M1049.44,309.08q0-7.32-8.79-7.32-12.21,0-12.21-3.42,0-6.1,7.33-6.1a11.91,11.91,0,0,1,4.88,1q2.43-1.69,7-10.27t5.25-12.21a15.25,15.25,0,0,0-5.4-1.69q-10.32,0-23.82,17.83t-13.51,28.32q0,9.51,9.65,9.27c5.11-.16,7.92.25,8.41,1.22q-3.9,5.38-25.63,13.43l-29.79,10.26q0,2.92,3.18,2.92,20.5,0,44.92-11.47Q1049.43,327.15,1049.44,309.08Z"/>
    </g>
  </g>
</svg>
