<svg xmlns="http://www.w3.org/2000/svg" viewBox="0 0 1500 1000">
  <title>EH-Artboard 48</title>
  <g id="ElKerim">
    <g>
      <path d="M503.3,207.88q0,18-16.4,39.52l7.47,7.31-8.55,24.16a169.51,169.51,0,0,1-16.11-12.74q-37.84,35.26-57.62,35.26-3.91,0-13.43-2.93,29.77-14.4,62.26-38.08-9.63-9.28-9.63-16.36,0-12.69,13.86-29.66t26-17Q503.3,197.39,503.3,207.88ZM483.76,229.4q0-11.25-9.66-11.26l-3.72,1.47a11,11,0,0,0-2.73,7.35q0,4.89,11.65,14.44Q483.77,233.81,483.76,229.4Z"/>
      <path d="M571.9,514.53l-12.21,45.65q-28.08,17.58-56.15,34.91Q465,621.7,465,634.16c0,1.79,1,2.68,2.93,2.68q7.32,0,22-15.62,10-10.74,19.77-21.73c1.14.81,1.71,2.19,1.71,4.15q0,3.42-3.66,19-4.63,20-5.13,21.49a64.36,64.36,0,0,1-10.49,19.28q-10.5,13.68-46.44,39.55-41.11,29.54-55.31,43.7-26.67,26.37-26.67,50,0,23.93,39.55,37.36,32.46,11.22,73.24,11.23,66.88,0,89.36-2.2l.48,1.22q0,7-40.28,12-31.25,3.84-52,3.84-125,0-125-63.23,0-29.06,23.73-65.43,21.28-32.48,48.19-52l30.1-22a41.31,41.31,0,0,1-1.92-12.94q0-19,14.9-44.67,14.88-24.66,31.48-35.4Q546.26,532.1,571.9,514.53Z"/>
      <path d="M568.73,516.48l-12.46,45.9Q585.24,538,596,493q8.34-34.91,8.34-42,0-28.08-15-49.32-9.09,5.13-17.93,26.86-7.37,18.07-9.57,32.71l.49,1.71,2.68-.24a44,44,0,0,1,10.26-13.43q11,12.71,11,38.09v5.37Q578,509.65,568.73,516.48Z"/>
      <path d="M542.36,623.66q-15.15,30.27-15.14,38.08l.25,1.71q16.35-5.61,38.08-20.51,25.88-17.57,28.57-30.27l3.9-18.8q-34.18,20.5-36.37,21.24A195.4,195.4,0,0,0,542.36,623.66Z"/>
      <path d="M709.11,789.67q-5.13,16.61-14.16,21l-85.45,42q3.9-15.13,23-24.66Z"/>
      <path d="M807.5,513.79l-12.7,47.12q-30.27,17.58-42.24,25.64Q724,605.59,717.65,618q-19.53,42.24-39.06,84.23-28.32,53.72-59.08,64-23.44,8-51.52,8-56.39,0-72.51-9.51l-.73-1.23,1.95-2.2a162.8,162.8,0,0,0,32,2.93q44.92,0,85-28.81,35.4-25.87,59.81-68.36,1.71-3.17,23.2-45.89,13.9-27.84,27-43.58T765,544.31Q796.51,524.78,807.5,513.79Z"/>
      <path d="M864.38,153q-5.13,16.61-14.16,21l-85.45,42q3.9-15.13,23-24.66Z"/>
      <path d="M965,164.18q0,19-15.07,35.4t-34.18,16.36q-20.1,0-20.09-17.58,0-19.77,14-38.33,15.18-20.25,34.3-20.26,8.57,0,15.19,8.06A26.18,26.18,0,0,1,965,164.18ZM949.1,180.36q0-5.94-8-12.9t-13.87-6.94q-7.37,0-13.39,6.7t-6,14.13Q907.84,192,927,192,949.1,192,949.1,180.36Z"/>
      <path d="M1012.08,360.23q0,68.85-17.33,113.77-21,53.72-71.78,88.87l12.21-45.66q62.25-49.8,62.26-100.1,0-37.59-23.69-91.06Q969.18,350,960,397.58q-3.86,20.51-6.52,20.51l-2.17-.73-.48-3.18q0-19.77,10.21-74.21,10.69-58.85,18.48-67.63,13.38,8.3,23.59,40.28Q1012.08,340.22,1012.08,360.23Z"/>
      <path d="M1059.94,153q-5.13,16.61-14.16,21l-85.45,42q3.9-15.13,22.95-24.66Z"/>
      <path d="M865.11,523.32q-4.89-6.84-5.86-26.62-1-19-1.46-74.46-.25-46.62-2.93-74.46l-2.16-1Q849.57,350,844.52,364t-5,18.92q0,10.26,1.2,30.52T841.89,444q0,27.82-7.86,41.75-6.37,11.71-30.2,31.49l-12.2,45.49q30.15-21.48,48.58-62.5,1,39.06,3.65,48.83,7.3,27,34.1,27,25.81,0,48.71-16l12.42-46.24q-22.47,19.29-48.34,19.29Q871.94,533.08,865.11,523.32Z"/>
      <path d="M999.39,141.48l-3.17,2q-35.41,66.66-47.37,86.43-29,47.37-60.52,76.9-49.05,37.85-74.91,54l2.93,1q25.86-5.35,64.66-36.86,33.91-27.1,54.41-53.47-.48,18.81,2,29.54l4.39-2.93q2-42.23,59.82-155.27Z"/>
      <path d="M1064.33,233.52q0-7.32-8.79-7.32-12.21,0-12.21-3.42,0-6.1,7.33-6.11a11.88,11.88,0,0,1,4.88,1q2.45-1.69,7-10.27t5.25-12.21a15.25,15.25,0,0,0-5.4-1.69q-10.32,0-23.82,17.82T1025,239.62q0,9.52,9.66,9.28,7.66-.24,8.41,1.22-3.91,5.37-25.64,13.43L987.67,273.8c0,2,1.05,2.93,3.17,2.93q20.5,0,44.92-11.47Q1064.34,251.59,1064.33,233.52Z"/>
      <path d="M1132,354.86a525.38,525.38,0,0,0-44.79-103q-15.09,45.41-15.09,136,0,48.82,8,50.29,5.55-2.69,5.55-28.08,0-13.66,6.27-60.54,12.27,23.19,26.52,62.25,16.2,44.68,16.2,63,0,25.63-15.38,50.78-9,14.9-33.44,42.24L1064.58,590q-12.46,13.42-17.83,24.41a2.12,2.12,0,0,0,2.44,2q2.19,0,10.23-2.93,57-20.74,75.75-54.93Q1151,529.91,1151,465,1151,415.65,1132,354.86Z"/>
    </g>
  </g>
</svg>
