<svg xmlns="http://www.w3.org/2000/svg" viewBox="0 0 1500 1000">
  <title>EH-Artboard 81</title>
  <g id="ElBatin">
    <g>
      <path d="M438.55,309.32q0,18-16.4,39.52l7.48,7.32-8.55,24.15A170.85,170.85,0,0,1,405,367.57q-37.84,35.26-57.62,35.26-3.91,0-13.43-2.93,29.79-14.4,62.26-38.08-9.63-9.29-9.62-16.36,0-12.69,13.85-29.66t26-17Q438.55,298.83,438.55,309.32ZM419,330.84q0-11.25-9.67-11.26l-3.72,1.47a11,11,0,0,0-2.73,7.35q0,4.89,11.65,14.44Q419,335.25,419,330.84Z"/>
      <path d="M596.51,554l-12.45,46.27q-24.66,18.45-40,17.2L539.39,639q-8.53,39.68-39.74,79.61-35.59,45.55-70.94,45.56-44.59,0-44.6-54,0-31.3,23.44-84.13-31.5,1.21-50.05,32l-1.46.49L354.57,657q0-24.5,20.51-49.47,21.48-26.46,45.19-26.46,10.75,0,10.76,9.54,0,9.3-13.57,40.61t-13.58,47.44q0,18.35,10.88,29.47T444,719.24q22.26,0,48.44-24.9,24.7-23.45,30.57-46.15a118.25,118.25,0,0,0,4.16-29.29q0-15.63-12-27.59-.5-16.11,18.89-44.43,7.27,3.17,18,31.25Q569.41,578.13,596.51,554Z"/>
      <path d="M652.66,756.84q-5.13,16.59-14.16,21l-85.45,42q3.9-15.14,23-24.65Z"/>
      <path d="M735.91,426.76q0,3.66-11.21,30.27-15.35,36.63-50.44,71.29-22.43,22.21-68,56.4l-2.19,21.73-2.2,3.17-2.2-.49-1.46-19q-6.11,4.63-17.83,12.69l12.21-45.16,9.28-8.55Q631.66,443.6,631.66,406q0-76.12-21.24-86.16-7.08.26-17.82,25-6.35,16.63-12.69,33l-2,1.47-2.19-2.19q3.16-24.64,14.41-53.18,13.68-35.12,29.56-43.9,3.16.24,9.77,7.32,19.07,20.28,19.06,79.35,0,28.56-16.65,98.88,16.35-13.92,44.92-29.54,33-17.82,48.58-17.83Q735.91,418.21,735.91,426.76Zm-22.7,32-1.71-2.69q-16.37,0-47.39,18.07-26.88,15.87-42.26,31l-10,36.86,57.65-39.55Q713,470.46,713.21,458.74Z"/>
      <path d="M877.51,554.44l-12.45,46.8q-19.53,13.26-39.55,13.26-27.59,0-37.84-30.94-5.62-17.4-6.59-53.77l-1.84-73.74q-2.07-83-2.07-84.47,0-3.16,5.89-20.75t8.05-20.51h1.44q.74,42.24,2.93,126.22.24,23.44,5.13,69.34Q810.38,573,838,573,858.46,573,877.51,554.44Z"/>
      <path d="M935.62,339.84q-5.13,16.61-14.16,21l-85.45,42q3.9-15.13,23-24.66Z"/>
      <path d="M980.05,204.59q0,19-15.07,35.4t-34.17,16.36q-20.1,0-20.09-17.58,0-19.77,14-38.33,15.2-20.26,34.3-20.26,8.58,0,15.19,8A26.15,26.15,0,0,1,980.05,204.59Zm-15.87,16.18q0-6-8-12.9t-13.87-6.94q-7.38,0-13.39,6.69t-6,14.14q0,10.67,19.16,10.66Q964.18,232.42,964.18,220.77Z"/>
      <path d="M1027.17,400.63q0,68.85-17.33,113.77-21,53.72-71.78,88.87l12.21-45.65q62.25-49.82,62.25-100.1,0-37.59-23.68-91.06-4.59,23.93-13.77,71.53-3.87,20.5-6.52,20.51l-2.17-.74-.49-3.17q0-19.77,10.21-74.22,10.71-58.83,18.49-67.63Q1008,321,1018.17,353,1027.17,380.62,1027.17,400.63Z"/>
      <path d="M1075,193.36q-5.12,16.6-14.16,21l-85.45,42q3.92-15.14,23-24.66Z"/>
      <path d="M870.92,647.71q-21,32.22-22,34.42L870.43,697q11-10,22.71-33Q893.14,655.77,870.92,647.71Z"/>
      <path d="M898.27,581.54q-10,0-14.16-2.68,19-26.13,19-44a43.22,43.22,0,0,0-.73-8.3q-13.68,15.63-26.86,30.76l-12.21,45.32,6.6-5.16q9.75,18,30.76,18,19.77,0,40.28-15L953.44,554q-9.77,9.76-25.63,18.31Q910,581.54,898.27,581.54Z"/>
      <path d="M1147.1,395.26a525.26,525.26,0,0,0-44.78-103q-15.09,45.4-15.09,136,0,48.84,8,50.3,5.54-2.68,5.54-28.08,0-13.67,6.28-60.55,12.27,23.21,26.52,62.26,16.2,44.67,16.2,63,0,25.64-15.38,50.78-9,14.9-33.45,42.23-10.5,11-21.24,22.22-12.45,13.43-17.82,24.42c.16,1.3,1,2,2.44,2s4.86-1,10.22-2.93q57-20.74,75.76-54.93,15.83-28.57,15.83-93.51Q1166.09,456.07,1147.1,395.26Z"/>
      <path d="M1079.42,273.93q0-7.33-8.79-7.33-12.21,0-12.21-3.42,0-6.09,7.33-6.1a11.92,11.92,0,0,1,4.88,1q2.43-1.71,7-10.28t5.25-12.2a15,15,0,0,0-5.41-1.69q-10.31,0-23.81,17.82T1040.11,280q0,9.53,9.65,9.28c5.11-.16,7.92.24,8.41,1.22q-3.9,5.37-25.63,13.43l-29.79,10.25q0,2.93,3.18,2.93,20.5,0,44.92-11.48Q1079.41,292,1079.42,273.93Z"/>
    </g>
  </g>
</svg>
