<svg xmlns="http://www.w3.org/2000/svg" viewBox="0 0 1500 1000">
  <title>EH-Artboard 104</title>
  <g id="ErReshid">
    <g>
      <path d="M464,241.69q0,18.06-16.4,39.52l7.48,7.32-8.55,24.15A172.3,172.3,0,0,1,430.4,300q-37.84,35.25-57.62,35.26-3.91,0-13.43-2.93,29.79-14.41,62.26-38.09Q412,284.92,412,277.83q0-12.69,13.85-29.66t26-17Q464,231.2,464,241.69Zm-19.53,21.53q0-11.27-9.67-11.27l-3.72,1.47a11,11,0,0,0-2.73,7.35q0,4.89,11.65,14.45Q444.46,267.63,444.46,263.22Z"/>
      <path d="M624.88,547.12,612.43,593.6a174.42,174.42,0,0,1-28.08,16q-19.77,9.35-29.78,9.34-27.11,0-27.1-40.77a111.09,111.09,0,0,1,1.46-15.87H527q-1.47,0-7,6.71T498.9,604.74Q462,673.34,430.3,689q-18.56,9-32.47,11.48-10.5,1.95-34.67,1.95a263.3,263.3,0,0,1-27.59-2q-21.24-2.49-24.9-5.49l.73-1.49,3.42-2q36.87,0,60.06-7.57t52.73-29.54q31.74-23.44,44.92-42.73,16.85-27.33,33.7-54.93Q531.16,518.07,545,512l2.45,2.2.48,2.44c-.48,1.63-1.22,5-2.19,10.26a131.42,131.42,0,0,0-2.45,25.39q0,26.12,21.73,26.12Q587.28,578.37,624.88,547.12Z"/>
      <path d="M755.49,750.24q-5.12,16.6-14.16,21l-85.45,42q3.92-15.13,23-24.66Z"/>
      <path d="M793.82,344a13.32,13.32,0,0,1,8.55,3.17l1,3.9,2.67,3.17q5.32,0,14.88-13.24t9.56-19.38q0-15.21-14.76-15.21-22.85,0-53.12,39.12-29.05,37.41-30,62.35Q768.2,344,793.82,344Z"/>
      <path d="M828.49,404.94q-2.44,1.47-5.86,17.55-4.15,20-9.52,31-8.79,18.29-24.66,25.84l-1.46-.49q0-21-1.47-26.33l-1-1.71-3.42,2.44q-3.66,15.85-5.37,23.89-2.7,10-12.45,21.94-11.23,13.41-20,13.41a3.29,3.29,0,0,1-2-3.17L744,494.9l-.73-2.19-3.18-2.93q-4.89,12-7.08,18.17-5.85,14-37.6,43.08l-12.2,45.16q33.43-21.72,38.33-36.86,24.41,0,49.56-33.94,7.08.74,17.58-7.33,20-15.39,32.22-48.62a172.18,172.18,0,0,0,10.5-58.39C831.42,407.79,830.44,405.76,828.49,404.94Z"/>
      <path d="M976.93,547.61l-12.7,47.12Q934,612.31,922,620.36q-28.57,19-34.92,31.5Q867.55,694.1,848,736.08q-28.32,53.71-59.08,64-23.43,8-51.51,8-56.4,0-72.51-9.51l-.74-1.24,2-2.19a163.46,163.46,0,0,0,32,2.93q44.93,0,85-28.81,35.4-25.89,59.82-68.36,1.7-3.18,23.19-45.9,13.92-27.84,27-43.58t41.38-33.32Q965.94,558.6,976.93,547.61Z"/>
      <path d="M1050.42,394q0,68.85-17.34,113.77-21,53.71-71.78,88.87L973.51,551q62.25-49.81,62.26-100.1,0-37.59-23.69-91.07-4.58,23.94-13.77,71.54-3.85,20.5-6.52,20.5l-2.17-.73-.48-3.17q0-19.78,10.21-74.22,10.7-58.83,18.48-67.63,13.36,8.31,23.59,40.29Q1050.41,374,1050.42,394Z"/>
      <path d="M1098.27,186.77q-5.13,16.6-14.16,21l-85.45,42q3.9-15.13,23-24.66Z"/>
      <path d="M643.29,575q-10,0-14.16-2.68,18.95-26.13,18.94-43.95a42.43,42.43,0,0,0-.73-8.3q-13.59,15.63-26.71,30.76L608.49,596.1l6.55-5.17q9.72,18,30.69,18,19.78,0,40.29-15l12.45-46.53q-9.76,9.78-25.64,18.31Q655,575,643.29,575Z"/>
      <path d="M602.42,660.16Q586.54,692.38,586.79,700q14.36-7.56,21.41-11.72,29.92-17.09,33.82-21,9-9,15.33-36.62-28.92,17.57-36.46,20.75Q606.79,657.48,602.42,660.16Z"/>
      <path d="M847.29,355.47q-9.28,0-9.28-17.82l-5.86,1.46q-18.55,32.47-30,32.47-8.55,0-8.54-11.47l.73-7.57-8.54,4.64q-6.84,18.6-6.84,25.25,0,13.81,14.2,13.81,16.39,0,31.08-21.15,8.81,6.26,14.44,6.26,17.63,0,29.12-21.24,8.57-15.63,11-36.62l-7.56,2.19Q861.44,355.47,847.29,355.47Z"/>
      <path d="M788.21,346.68,868,318.36q9.76-3.42,16.85-18.56l-69.58,24.42Q798.95,329.83,788.21,346.68Z"/>
      <path d="M1170.35,388.67a525.64,525.64,0,0,0-44.79-103q-15.09,45.42-15.09,136,0,48.84,8,50.29,5.55-2.69,5.55-28.07,0-13.68,6.27-60.55,12.27,23.2,26.52,62.26,16.2,44.67,16.2,63,0,25.63-15.38,50.79-9,14.89-33.44,42.23l-21.24,22.22q-12.47,13.43-17.83,24.41a2.12,2.12,0,0,0,2.44,2q2.19,0,10.23-2.93,57-20.76,75.75-54.93,15.82-28.57,15.83-93.51Q1189.33,449.46,1170.35,388.67Z"/>
      <path d="M1102.66,267.33q0-7.32-8.79-7.32-12.21,0-12.2-3.42,0-6.09,7.32-6.1a12,12,0,0,1,4.88,1q2.45-1.69,7-10.27t5.25-12.21a15.25,15.25,0,0,0-5.4-1.69q-10.32,0-23.82,17.83t-13.51,28.32q0,9.53,9.66,9.27,7.66-.24,8.41,1.23-3.92,5.37-25.64,13.42L1026,307.62c0,1.95,1,2.93,3.17,2.93q20.5,0,44.92-11.48Q1102.67,285.4,1102.66,267.33Z"/>
    </g>
  </g>
</svg>
