<svg xmlns="http://www.w3.org/2000/svg" viewBox="0 0 1500 1000">
  <title>EH-Artboard 50</title>
  <g id="ElMudzib">
    <g>
      <path d="M322.58,297.11q0,18.06-16.39,39.52l7.47,7.32-8.55,24.15A172.3,172.3,0,0,1,289,355.37q-37.85,35.25-57.62,35.26-3.9,0-13.42-2.93,29.78-14.42,62.25-38.09-9.63-9.27-9.62-16.36,0-12.69,13.85-29.66t26-17Q322.58,286.62,322.58,297.11Zm-19.53,21.53q0-11.26-9.67-11.27l-3.71,1.47a11,11,0,0,0-2.73,7.35q0,4.89,11.65,14.44Q303,323.05,303.05,318.64Z"/>
      <path d="M718.68,560.06q-17.82,9.29-29.54,9.28c-6.68,0-11.39-.9-14.16-2.69q18.94-26.11,18.94-43.94a42.61,42.61,0,0,0-.73-8.31Q679.59,530,666.48,545.17l-12.15,45.31,6.56-5.16q9.72,18,30.69,17.95,19.77,0,40.28-15l12.46-46.52Q734.54,551.52,718.68,560.06Z"/>
      <path d="M648.27,654.54q-15.88,32.24-15.63,39.8,14.36-7.58,21.41-11.72,29.93-17.08,33.82-21,9-9,15.33-36.62-28.94,17.58-36.46,20.75Q652.64,651.86,648.27,654.54Z"/>
      <path d="M801.34,769q-5.13,16.61-14.16,21l-85.45,42q3.9-15.13,22.95-24.66Z"/>
      <path d="M1012.52,236.08q0,18-16.39,39.52l7.47,7.31-8.55,24.15a170.66,170.66,0,0,1-16.12-12.73q-37.83,35.26-57.62,35.26-3.9,0-13.42-2.93,29.77-14.4,62.25-38.09-9.61-9.27-9.62-16.35,0-12.69,13.85-29.67t26-17Q1012.52,225.59,1012.52,236.08ZM993,257.6q0-11.25-9.66-11.26l-3.72,1.47a10.94,10.94,0,0,0-2.73,7.34q0,4.91,11.65,14.45Q993,262,993,257.6Z"/>
      <path d="M1069.16,542.48l-12.45,46.42a36.06,36.06,0,0,1-19.28,5.58q-17.34,0-27.35-15.29-20.51,25.39-25.63,25.39-5.62,0-16.6-12.94-10.26-12-12.21-18.76-5.62,7.53-21,18l12.21-45.43q11.22-10.5,33.69-31.25,2.44,0,24.17,18.31t37.11,18.31A46.74,46.74,0,0,0,1069.16,542.48Z"/>
      <path d="M1096,192.38q0,19.05-15.07,35.4t-34.17,16.36q-20.1,0-20.1-17.58,0-19.77,14-38.33Q1055.83,168,1075,168q8.58,0,15.19,8.06A26.1,26.1,0,0,1,1096,192.38Zm-15.87,16.18q0-6-8-12.9t-13.88-6.94q-7.36,0-13.38,6.7t-6,14.13q0,10.66,19.16,10.66Q1080.15,220.21,1080.15,208.56Z"/>
      <path d="M1143.14,388.43q0,68.85-17.34,113.77-21,53.71-71.77,88.86l12.2-45.65q62.26-49.8,62.26-100.1,0-37.59-23.68-91.06-4.59,23.92-13.77,71.53-3.87,20.5-6.52,20.51l-2.18-.73-.48-3.18q0-19.77,10.21-74.22,10.71-58.83,18.48-67.62,13.38,8.29,23.59,40.28Q1143.14,368.41,1143.14,388.43Z"/>
      <path d="M1191,181.15q-5.13,16.6-14.16,21l-85.45,42q3.9-15.13,22.95-24.66Z"/>
      <path d="M429.64,750.24a122.67,122.67,0,0,0-13.17-6.59q-20,30.27-22,34.67l22,14.89q11-12,22.44-32.71Q438.91,755.85,429.64,750.24Z"/>
      <path d="M632.88,560.06a27,27,0,0,1-17.45-6.2,19.31,19.31,0,0,1-7.69-15.68q0-6.33,4.51-18T617,502.43L616,500l-3.91.49-113,105.38q-72.77,63.81-138.19,63.81-35.16,0-63-27.22t-27.83-62.38a90.7,90.7,0,0,1,6.59-33.69q35.61-89.11,183.94-89.11,34.39,0,60.5-10,48.79-18.81,56.36-23.93l-.25-2.69q-63,25.39-113,25.15l-43-.24q-52-.24-92.29,26.12t-61,74.22q-10.74,24.66-10.74,45.16,0,49.82,27.59,83,29.55,35.18,78.38,35.18,45.66,0,101.82-41.57,35.4-26.4,84.48-78.24,41.26-43.51,47.13-44.74l.48,1.22q-2,5.9-2,15.7,0,16.17,7.72,27.21,8.64,12.75,24,12.75,12,0,30.76-13.23L670,541.76Q653.15,560.06,632.88,560.06Z"/>
      <path d="M771.37,664.31q-20.31,30.51-22.52,34.42,10.77,8.29,21.79,15.38,15.18-19.29,22.77-33.2Q793.41,672.12,771.37,664.31Z"/>
      <path d="M850.63,553.71q-13.92-11.48-13.92-30.28a112.51,112.51,0,0,1,1.74-19.78q26.13-23.2,75.44-33.21,11.24-15.88,15.63-39.32a76.74,76.74,0,0,1-32.23,6.79q-11,0-31.86-6.19t-31.63-6.18q-41.13,0-61.21,37.07-10.27,19-22,73.42l-9,8.54-12.45,45.86q11.71-8.74,17.57-13.35l-1.95,30.27v30.52l1.22,1.22,1.22-.73,2.2-4.15q-1-26.37,6.59-65,37-32.25,69.34-56.94-4.38,19.51-4.38,31.95,0,26.09,15.33,44.13,16.11,19,42,19,29.78,0,59.81-18.5l12.45-46.49q-28.08,22-67.87,22Q863.58,564.45,850.63,553.71Zm-50-57.3q-10.74,7.84-39.55,31.57,9.77-62.64,54.44-62.65,7.82,0,28.32,4.9Q823.55,479.53,800.61,496.41Z"/>
      <path d="M1195.38,261.72q0-7.32-8.78-7.33-12.21,0-12.21-3.41,0-6.1,7.32-6.11a12,12,0,0,1,4.89,1q2.43-1.69,7-10.28t5.25-12.2a14.93,14.93,0,0,0-5.4-1.69q-10.32,0-23.82,17.82t-13.5,28.32q0,9.53,9.65,9.28c5.11-.16,7.91.24,8.41,1.22q-3.9,5.37-25.63,13.43L1118.72,302c0,2,1.06,2.93,3.17,2.93q20.52,0,44.93-11.47Q1195.38,279.78,1195.38,261.72Z"/>
      <path d="M1263.07,383.06a525.35,525.35,0,0,0-44.78-103q-15.11,45.41-15.09,136,0,48.83,8,50.29,5.55-2.69,5.55-28.08,0-13.67,6.27-60.54,12.29,23.19,26.52,62.25,16.21,44.69,16.21,63,0,25.63-15.38,50.78-9,14.89-33.45,42.24l-21.24,22.21q-12.45,13.44-17.82,24.42a2.11,2.11,0,0,0,2.43,1.95q2.19,0,10.23-2.93,57-20.75,75.75-54.93,15.84-28.56,15.83-93.51Q1282.05,443.86,1263.07,383.06Z"/>
    </g>
  </g>
</svg>
