<svg xmlns="http://www.w3.org/2000/svg" viewBox="0 0 1500 1000">
  <title>EH-Artboard 72</title>
  <g id="ElWahid">
    <g>
      <path d="M375,236.08q0,18-16.4,39.52l7.48,7.31-8.55,24.15a170.66,170.66,0,0,1-16.12-12.73q-37.85,35.26-57.62,35.26-3.9,0-13.43-2.93,29.79-14.4,62.26-38.09Q323,279.3,323,272.22q0-12.69,13.85-29.67t26-17Q375,225.59,375,236.08ZM355.47,257.6q0-11.25-9.67-11.26l-3.72,1.47a10.93,10.93,0,0,0-2.72,7.34q0,4.91,11.65,14.45Q355.47,262,355.47,257.6Z"/>
      <path d="M535.89,541.5,523.44,588a173.64,173.64,0,0,1-28.08,16q-19.77,9.33-29.78,9.33-27.1,0-27.1-40.77a111.09,111.09,0,0,1,1.46-15.87H438q-1.47,0-7,6.71t-21.12,35.77q-36.87,68.61-68.6,84.23-18.56,9-32.47,11.47-10.5,2-34.67,2a266.1,266.1,0,0,1-27.59-2q-21.24-2.49-24.9-5.49l.73-1.5,3.42-2q36.87,0,60.06-7.57t52.73-29.54q31.74-23.43,44.92-42.72,16.86-27.35,33.7-54.93,24.93-38.58,38.81-44.68l2.45,2.19L459,511c-.48,1.63-1.22,5-2.19,10.25a131.49,131.49,0,0,0-2.44,25.39q0,26.13,21.72,26.12Q498.29,572.75,535.89,541.5Z"/>
      <path d="M591.55,769q-5.13,16.61-14.16,21l-85.45,42q3.9-15.13,22.95-24.66Z"/>
      <path d="M712.65,405.52c0,3.9-1.1,10.34-3.3,19.28s-4.19,14.82-6,17.58a285.48,285.48,0,0,0-78.61,50.3q-33.21,33-66.17,65.91v5.86q-.24,8.79,5.37,60.55v1.46a4.18,4.18,0,0,1-1.46,2.93l-1.71-.73a433.37,433.37,0,0,1-11.47-61.77,262.51,262.51,0,0,1-30,23.69l12.45-45.9,15.38-12.94-.24-13.92q0-4.64,4.73-32,6.74-38.32,22.85-54,17.58-17.33,55.42-17.33a113.34,113.34,0,0,1,14.41,1.34,111.64,111.64,0,0,0,14.4,1.35q29.79,0,53.71-14.41Zm-81.3,48.58q-29.55.5-40.53,4.15Q571.53,464.36,563,485.6a77.56,77.56,0,0,0-6.11,29v9.28q12.71-10.26,37.11-35.16Q617.43,464.85,631.35,454.1Z"/>
      <path d="M843.75,493.16q0,64.95-15.64,93.51-18.78,34.19-75.91,54.93-8.06,2.92-10.26,2.93a2.12,2.12,0,0,1-2.44-1.95q5.37-11,17.82-24.42L778.56,596Q803,568.61,812,553.71q15.39-25.14,15.38-50.78,0-18.31-16.2-63-14.25-39.06-26.52-62.25-6.27,46.88-6.27,60.54,0,25.39-5.55,28.08-8-1.47-8-50.29,0-90.58,15.09-136a524.76,524.76,0,0,1,44.78,103Q843.75,443.84,843.75,493.16Z"/>
      <path d="M903.08,327.64q-5.13,16.61-14.16,21l-85.45,42q3.9-15.13,22.95-24.66Z"/>
      <path d="M1076.42,541.75,1064,588.15q-15.62,12.47-56.39,29.82-8.18,36.42-39.06,78-32.24,43.51-64.46,57.45Q877,765.13,835.94,765.14q-15.63,0-46.39-5.19-36.62-5.94-37.84-12.62l1.95-1.48q7.32.24,23.2,2.93,15.14,2.43,23.43,2.44,16.85,0,49.32-9.52,70.54-20.76,122.31-81.79Q990,638.67,992.43,622.8q-21.24,5.87-28.56,5.86-22.23,0-22.22-14.65,0-15.37,12.45-38.81,13.92-26.13,27.59-26.13,11.94,0,21.35,9.28t9.41,21.24Q1053.46,562.26,1076.42,541.75Z"/>
      <path d="M1092.29,192.38q0,19.05-15.07,35.4T1043,244.14q-20.1,0-20.09-17.58,0-19.77,14-38.33Q1052.11,168,1071.22,168q8.57,0,15.19,8.06A26.16,26.16,0,0,1,1092.29,192.38Zm-15.87,16.18q0-6-8-12.9t-13.87-6.94c-4.92,0-9.37,2.23-13.39,6.7s-6,9.17-6,14.13q0,10.66,19.15,10.66Q1076.42,220.21,1076.42,208.56Z"/>
      <path d="M1139.4,388.43q0,68.85-17.33,113.77-21,53.71-71.78,88.86l12.21-45.65q62.25-49.8,62.26-100.1,0-37.59-23.69-91.06-4.59,23.92-13.77,71.53-3.87,20.5-6.52,20.51l-2.17-.73-.48-3.18q0-19.77,10.21-74.22,10.7-58.83,18.48-67.62,13.37,8.29,23.59,40.28Q1139.4,368.41,1139.4,388.43Z"/>
      <path d="M1187.26,181.15q-5.13,16.6-14.16,21l-85.45,42q3.9-15.13,22.95-24.66Z"/>
      <path d="M1191.65,261.72q0-7.32-8.79-7.33-12.21,0-12.21-3.41,0-6.1,7.33-6.11a11.88,11.88,0,0,1,4.88,1q2.45-1.69,7-10.28t5.25-12.2a15,15,0,0,0-5.4-1.69q-10.32,0-23.82,17.82t-13.51,28.32q0,9.53,9.66,9.28c5.11-.16,7.91.24,8.41,1.22q-3.92,5.37-25.64,13.43L1115,302c0,2,1,2.93,3.17,2.93q20.5,0,44.92-11.47Q1191.66,279.78,1191.65,261.72Z"/>
      <path d="M1259.33,383.06a524.76,524.76,0,0,0-44.78-103q-15.09,45.41-15.09,136,0,48.83,8,50.29,5.55-2.69,5.55-28.08,0-13.67,6.27-60.54,12.27,23.19,26.52,62.25,16.2,44.69,16.2,63,0,25.63-15.38,50.78-9,14.89-33.45,42.24l-21.24,22.21q-12.45,13.44-17.82,24.42c.16,1.3,1,1.95,2.44,1.95s4.87-1,10.23-2.93q57-20.75,75.75-54.93,15.83-28.56,15.83-93.51Q1278.32,443.86,1259.33,383.06Z"/>
    </g>
  </g>
</svg>
