<svg xmlns="http://www.w3.org/2000/svg" viewBox="0 0 1500 1000">
  <title>EH-Artboard 34</title>
  <g id="ElHakem">
    <g>
      <path d="M518.19,207.88q0,18-16.4,39.52l7.48,7.31-8.55,24.16a170.85,170.85,0,0,1-16.12-12.74Q446.76,301.4,427,301.39q-3.92,0-13.43-2.93,29.79-14.4,62.26-38.08-9.63-9.28-9.62-16.36,0-12.69,13.85-29.66t26-17Q518.19,197.39,518.19,207.88ZM498.66,229.4q0-11.25-9.67-11.26l-3.72,1.47a11,11,0,0,0-2.73,7.35q0,4.89,11.65,14.44Q498.66,233.81,498.66,229.4Z"/>
      <path d="M586.79,514.53l-12.21,45.65q-28.07,17.58-56.15,34.91-38.58,26.61-38.57,39.07c0,1.79,1,2.68,2.93,2.68q7.32,0,22-15.62,10-10.74,19.78-21.73c1.13.81,1.71,2.19,1.71,4.15q0,3.42-3.67,19-4.64,20-5.12,21.49A64.62,64.62,0,0,1,507,663.45q-10.5,13.68-46.43,39.55-41.13,29.54-55.31,43.7-26.69,26.37-26.68,50,0,23.93,39.55,37.36,32.48,11.22,73.24,11.23,66.9,0,89.36-2.2l.49,1.22q0,7-40.29,12-31.25,3.84-52,3.84-125,0-125-63.23,0-29.06,23.73-65.43,21.28-32.48,48.2-52l30.09-22A41.31,41.31,0,0,1,464,644.65q0-19,14.91-44.67,14.88-24.66,31.48-35.4Q561.16,532.1,586.79,514.53Z"/>
      <path d="M643.43,153q-5.13,16.61-14.16,21l-85.45,42q3.9-15.13,22.95-24.66Z"/>
      <path d="M774.54,238.4q-5.13,16.6-14.16,21l-85.45,42q3.9-15.13,23-24.66Z"/>
      <path d="M923.68,514.23l-12.46,46.49q-30,18.51-59.81,18.5-25.87,0-42-19-15.33-18-15.33-44.13,0-12.44,4.38-32-32.36,24.69-69.33,56.94-7.57,38.58-6.6,65l-2.19,4.15-1.22.73-1.22-1.22V579.15l2-30.27q-5.86,4.61-17.58,13.35l12.45-45.86,9-8.54q11.76-54.39,22-73.42,20.07-37.07,61.21-37.07,10.74,0,31.62,6.19t31.86,6.18a76.71,76.71,0,0,0,32.23-6.79q-4.4,23.44-15.63,39.32-49.3,10-75.43,33.21a112.59,112.59,0,0,0-1.74,19.78q0,18.81,13.91,30.28,12.95,10.74,32,10.74Q895.6,536.25,923.68,514.23ZM817,442q-20.52-4.89-28.32-4.9-44.69,0-54.45,62.66Q763.07,476,773.8,468.22,796.75,451.33,817,442Z"/>
      <path d="M950.07,164.18q0,19-15.06,35.4t-34.18,16.36q-20.1,0-20.09-17.58,0-19.77,14-38.33,15.19-20.25,34.3-20.26,8.58,0,15.19,8.06A26.12,26.12,0,0,1,950.07,164.18ZM934.2,180.36q0-5.94-8-12.9t-13.87-6.94q-7.38,0-13.39,6.7t-6,14.13q0,10.67,19.16,10.67Q934.2,192,934.2,180.36Z"/>
      <path d="M997.19,360.23q0,68.85-17.33,113.77-21,53.72-71.78,88.87l12.21-45.66q62.25-49.8,62.25-100.1,0-37.59-23.68-91.06-4.59,23.93-13.77,71.53-3.87,20.51-6.52,20.51l-2.17-.73-.49-3.18q0-19.77,10.22-74.21,10.7-58.85,18.48-67.63,13.36,8.3,23.58,40.28Q997.19,340.22,997.19,360.23Z"/>
      <path d="M1045,153q-5.11,16.61-14.16,21l-85.45,42q3.92-15.13,23-24.66Z"/>
      <path d="M775.27,143.43q-35.4,66.66-47.36,86.43-29.05,47.37-60.52,76.9-49,37.85-74.92,54l2.93,1q25.86-5.35,64.66-36.86,33.91-27.1,54.42-53.47-.5,18.81,1.95,29.54l4.4-2.93q1.95-42.23,59.81-155.27l-2.2-1.22Z"/>
      <path d="M644.17,523.32q-4.89-6.84-5.86-26.62-1-19-1.47-74.46-.24-46.62-2.93-74.46l-2.16-1Q628.63,350,623.58,364t-5.05,18.92q0,10.26,1.21,30.52T621,444q0,27.82-7.86,41.75-6.39,11.71-30.2,31.49L570.68,562.7q30.15-21.48,48.58-62.5,1,39.06,3.66,48.83,7.29,27,34.09,27,25.82,0,48.71-16l12.42-46.24q-22.47,19.29-48.34,19.29Q651,533.08,644.17,523.32Z"/>
      <path d="M1049.44,233.52q0-7.32-8.79-7.32-12.21,0-12.21-3.42,0-6.1,7.33-6.11a11.92,11.92,0,0,1,4.88,1q2.43-1.69,7-10.27t5.25-12.21a15.25,15.25,0,0,0-5.4-1.69q-10.32,0-23.82,17.82t-13.51,28.32q0,9.52,9.65,9.28c5.11-.16,7.92.25,8.41,1.22q-3.9,5.37-25.63,13.43L972.77,273.8c0,2,1.06,2.93,3.18,2.93q20.5,0,44.92-11.47Q1049.43,251.59,1049.44,233.52Z"/>
      <path d="M1117.12,354.86a524.76,524.76,0,0,0-44.78-103q-15.09,45.41-15.09,136,0,48.82,8,50.29,5.54-2.69,5.54-28.08,0-13.66,6.28-60.54,12.27,23.19,26.52,62.25,16.2,44.68,16.2,63,0,25.63-15.38,50.78-9,14.9-33.45,42.24L1049.68,590q-12.45,13.42-17.82,24.41c.16,1.3,1,2,2.44,2s4.87-1,10.23-2.93q57-20.74,75.75-54.93,15.83-28.56,15.83-93.5Q1136.11,415.65,1117.12,354.86Z"/>
    </g>
  </g>
</svg>
