<svg xmlns="http://www.w3.org/2000/svg" viewBox="0 0 1500 1000">
  <title>EH-Artboard 33</title>
  <g id="ElBesir">
    <g>
      <path d="M513.31,164.54q0,18.06-16.4,39.52l7.47,7.32-8.55,24.15a169.33,169.33,0,0,1-16.11-12.73q-37.85,35.25-57.62,35.26-3.92,0-13.43-2.93,29.77-14.4,62.25-38.09-9.62-9.27-9.62-16.36,0-12.69,13.85-29.66t26-17Q513.29,154.05,513.31,164.54Zm-19.54,21.53q0-11.26-9.66-11.27l-3.72,1.47a11,11,0,0,0-2.73,7.35q0,4.9,11.65,14.45Q493.78,190.48,493.77,186.07Z"/>
      <path d="M733.28,783q-5.13,16.6-14.16,21l-85.45,42q3.9-15.15,23-24.66Z"/>
      <path d="M913.7,555.66l-12.45,46.63q-25.89,16.62-59.33,16.61-38.58,0-54.52-47.86Q768,580.63,754.76,583.5q-1.23,14-4.15,30.22l-1.22.5-1.22-.5q-.25-14.49.49-28.76-28.08,7.83-65.68,7.83l-6.59-1.24q-4.89,4.68-15.38,12.81l12.21-45.09,26.85-30.71a45,45,0,0,1,.74,8.31q0,14.64-14.41,38.08h9.28q15.87,0,57.37-19,8.79-33.69,14.16-48.1,11-29.78,25.15-41.5,11-9.27,47.12-22.95,33.43-12.69,43.94-12.7a35,35,0,0,1,3.66.25q4.15,3.9,4.16,12.45,0,4.15-7.31,23.44-21.18,56.15-80.34,94.72,18.06,16.37,36.62,16.36Q884.4,577.88,913.7,555.66ZM870,474.85a5.29,5.29,0,0,0-1-2.93l-4.4-.48q-11.48,0-42.23,12.16-32.71,12.91-42.73,23.62-10.74,11.92-18.55,45a420.84,420.84,0,0,0,82-51.52Q870,479.25,870,474.85Z"/>
      <path d="M969.85,341.55q-5.13,16.6-14.16,21l-85.45,42q3.9-15.14,23-24.66Z"/>
      <path d="M1014.28,206.3q0,19-15.07,35.4T965,258.06q-20.1,0-20.09-17.58,0-19.78,14-38.33,15.2-20.27,34.3-20.27,8.58,0,15.19,8.06A26.15,26.15,0,0,1,1014.28,206.3Zm-15.87,16.18q0-6-8-12.9t-13.88-6.94q-7.37,0-13.38,6.69t-6,14.14q0,10.67,19.16,10.66Q998.41,234.13,998.41,222.48Z"/>
      <path d="M1061.4,402.34q0,68.85-17.33,113.77-21,53.71-71.78,88.87l12.21-45.65q62.25-49.82,62.25-100.1,0-37.59-23.68-91.07-4.59,23.94-13.77,71.54-3.87,20.51-6.52,20.51l-2.17-.74-.49-3.17q0-19.77,10.21-74.22,10.71-58.83,18.49-67.63,13.37,8.31,23.58,40.29Q1061.4,382.33,1061.4,402.34Z"/>
      <path d="M1109.25,195.07q-5.13,16.6-14.16,21l-85.45,42q3.92-15.13,22.95-24.66Z"/>
      <path d="M607.79,576.17a20.8,20.8,0,0,1-9.52-18.06l-1.22-3.18q-31.5,18.08-47.12,27.83-19.29,11.73-30.76,44.48Q511.1,654.12,502.81,681q-34.18,89.68-104,124.88-37.35,18.81-70.06,18.82a154.62,154.62,0,0,1-27.1-2.44l-2,2.48.25,1.74q21.48,10.17,77.39,10.18,95,0,134-125.68,4.89-17.61,10-35.46Q528,655,537.72,643.26q13.92-16.87,48.1-35.7,5.85,20.13,25.14,20.13,20.5,0,54-24.8l12.45-46.25q-31.26,25.15-49.07,25.15Q616.33,581.79,607.79,576.17Z"/>
      <path d="M540.89,774.9l.25,2.2q12.17-5.86,27.49-14.89,25.79-15.15,30.41-20.75,6.57-7.58,12.9-34.18-38.41,21.24-55.42,30Q540.89,767.33,540.89,774.9Z"/>
      <path d="M932.5,583.25q-10,0-14.17-2.68,19-26.13,19-44a43.22,43.22,0,0,0-.73-8.3Q923,544,909.79,559.08L897.58,604.4l6.59-5.16q9.76,18,30.77,18,19.77,0,40.28-15l12.45-46.53Q977.91,565.44,962,574,944.21,583.25,932.5,583.25Z"/>
      <path d="M905.15,649.41q-21,32.24-22,34.43l21.48,14.89q11-10,22.71-33Q927.37,657.48,905.15,649.41Z"/>
      <path d="M1113.65,275.63q0-7.32-8.79-7.32-12.21,0-12.21-3.42,0-6.09,7.33-6.1a12,12,0,0,1,4.88,1q2.43-1.71,7-10.28t5.25-12.2a15,15,0,0,0-5.41-1.69q-10.31,0-23.82,17.82t-13.5,28.32q0,9.52,9.65,9.28c5.11-.16,7.92.24,8.41,1.22q-3.9,5.37-25.63,13.42L1037,315.92q0,2.93,3.18,2.93,20.5,0,44.92-11.48Q1113.64,293.71,1113.65,275.63Z"/>
      <path d="M1181.33,397a525.26,525.26,0,0,0-44.78-103q-15.09,45.41-15.09,136,0,48.84,8,50.29,5.53-2.67,5.54-28.07,0-13.66,6.28-60.55,12.27,23.2,26.51,62.26,16.21,44.67,16.21,63,0,25.64-15.38,50.78-9,14.89-33.45,42.23-10.5,11-21.24,22.22-12.45,13.42-17.82,24.41a2.12,2.12,0,0,0,2.44,2q2.17,0,10.22-2.93,57-20.74,75.76-54.93,15.83-28.58,15.83-93.51Q1200.32,457.78,1181.33,397Z"/>
    </g>
  </g>
</svg>
