<svg xmlns="http://www.w3.org/2000/svg" viewBox="0 0 1500 1000">
  <title>EH-Artboard 100</title>
  <g id="ElHadi">
    <g>
      <path d="M546.88,290.53q-28.08,55.91-64,87.89Q455.09,402.58,427.25,427q-35.42,31.5-56.89,56.4Q340.09,519,328.61,558.59q-8.55,29.79-8.54,74,0,54.45,54.54,54.44,20.79,0,52.58-23.39t31.79-40q0-6.86-17.15-9.06-24.49-2.68-32.1-6.11-17.14-7.54-17.15-27.79,0-41.94,31.25-90.45,10.25-16.34,27.1-33.16,21.48-21.69,33.93-21.7,19,0,29.54,13.38-1.2,8.26-8,21.89-7.74,15.07-13.29,17.26L491,484.65q0-10.29-13.47-10.28-17.88,0-41.64,25.45t-23.75,43.34q0,12.48,13.18,18.11,7.08,2.94,27.35,6.12,17.58,2.45,22.46,6.6,7.08,5.87,7.08,21.76,0,44-41.45,89.73-42.42,46.69-85.83,46.7-57.3,0-57.29-85.45,0-87.65,65.18-170.17,21.24-26.85,57.86-58.84l63-53.71q27.35-24.17,59.82-74.95l2.93-1.71Z"/>
      <path d="M586.67,769q-5.13,16.61-14.16,21l-85.45,42Q491,816.9,510,807.37Z"/>
      <path d="M730,472.17q0,49.56-34.18,112.06Q661.38,648,608.64,675.78q-14.16,7.58-57.13,12.7-35.88,4.39-61,4.39-13.92,0-17.58-1.22l-1-1.71q5.38-1,18.07-2.2,33.69-3.18,70.31-20.29,70.32-33,120.12-100.69,31-42,31-59.4,0-12-10.5-23t-22.46-11q-14.16,0-46.63,14.66-35.65,16.14-35.65,28.36,0,1.22,8.37,9.53a72,72,0,0,1,15.25,22q8.37,18.81,8.36,45.21,0,7.33-3.72,19.31-4.46,14.41-9.91,14.42l-2.24-2,1.71-14.4q0-9.76-20.26-35.51t-20.26-40.63q0-5.37,7.81-26.36,7.32-20,11.72-27.34,8.06-13.67,47.36-32.46,38.58-18.28,56.89-18.3,14.15,0,23.92,14.65A48.23,48.23,0,0,1,730,472.17Z"/>
      <path d="M893.31,542.24,880.86,589q-19.53,13.26-39.55,13.25-27.6,0-37.84-30.94-5.62-17.4-6.59-53.77L795,443.85q-2.07-83-2.07-84.47,0-3.18,5.88-20.76t8.06-20.5h1.44q.74,42.24,2.93,126.22.24,23.43,5.13,69.33,9.75,47.13,37.35,47.12Q874.26,560.79,893.31,542.24Z"/>
      <path d="M951.42,266.6q-5.13,16.61-14.16,21l-85.45,42q3.9-15.13,23-24.66Z"/>
      <path d="M990.72,542l-12.45,46.39q-6.1,4.15-22,13.18a124.12,124.12,0,0,0-44.43,43.22q-17.1,27.83-17.09,59.32a109,109,0,0,1-12.21,17.58q-15.87-23.2-15.87-60.55,0-29.29,24.66-115.72,12.69-14.89,26.85-30.76A44.81,44.81,0,0,1,919,523q0,12.94-9,30.76-8.05,16.37-18.31,26.61-9.29,39.79-9.28,55.91,0,16.6,4.64,22,6-22,23.44-48.58Q926,585.69,946.78,570.8Z"/>
      <path d="M1016.36,192.38q0,19.05-15.07,35.4t-34.18,16.36q-20.08,0-20.09-17.58,0-19.77,14-38.33Q976.17,168,995.29,168q8.57,0,15.19,8.06A26.1,26.1,0,0,1,1016.36,192.38Zm-15.87,16.18q0-6-8-12.9t-13.87-6.94q-7.36,0-13.39,6.7t-6,14.13q0,10.66,19.16,10.66Q1000.49,220.21,1000.49,208.56Z"/>
      <path d="M1063.48,388.43q0,68.85-17.34,113.77-21,53.71-71.77,88.86l12.2-45.65q62.26-49.8,62.26-100.1,0-37.59-23.68-91.06-4.59,23.92-13.77,71.53-3.87,20.5-6.52,20.51l-2.18-.73-.48-3.18q0-19.77,10.21-74.22,10.7-58.83,18.48-67.62,13.38,8.29,23.59,40.28Q1063.47,368.41,1063.48,388.43Z"/>
      <path d="M1111.33,181.15q-5.13,16.6-14.16,21l-85.45,42q3.9-15.13,23-24.66Z"/>
      <path d="M1115.72,261.72q0-7.32-8.79-7.33-12.21,0-12.2-3.41,0-6.1,7.32-6.11a11.88,11.88,0,0,1,4.88,1q2.44-1.69,7-10.28t5.25-12.2a15,15,0,0,0-5.4-1.69q-10.32,0-23.82,17.82t-13.5,28.32q0,9.53,9.65,9.28c5.11-.16,7.91.24,8.41,1.22q-3.92,5.37-25.64,13.43L1039.06,302c0,2,1.06,2.93,3.17,2.93q20.51,0,44.92-11.47Q1115.72,279.78,1115.72,261.72Z"/>
      <path d="M1183.41,383.06a525.35,525.35,0,0,0-44.78-103q-15.11,45.41-15.09,136,0,48.83,8,50.29,5.55-2.69,5.55-28.08,0-13.67,6.27-60.54,12.27,23.19,26.52,62.25,16.2,44.69,16.21,63,0,25.63-15.39,50.78-9,14.89-33.44,42.24L1116,618.16q-12.45,13.44-17.83,24.42a2.12,2.12,0,0,0,2.44,1.95q2.19,0,10.23-2.93,57-20.75,75.75-54.93,15.82-28.56,15.83-93.51Q1202.39,443.86,1183.41,383.06Z"/>
    </g>
  </g>
</svg>
