<svg xmlns="http://www.w3.org/2000/svg" viewBox="0 0 1500 1000">
  <title>EH-Artboard 63</title>
  <g id="ElMuhsi">
    <g>
      <path d="M482.54,524.29l-12.69,46.63q-20.5,12.71-41,25.64-37.35,24.9-37.35,33,0,14.9,30,26.12,21,7.58,21,21,0,51-42.83,109.86Q353.91,849.72,305,849.73q-56.29,0-56.29-72.51a200.22,200.22,0,0,1,16.63-79.59Q277,670,304.42,630.49q37.43-54.43,45.25-67.62,14.43-24.42,31.56-81.55l3.9,1.71q-2.69,31.5-27.34,84.72-9.77,21-37.11,59.81-29.79,41.76-40,61.53-18.81,35.64-18.8,66.4,0,25.88,16.85,40.29,15.85,13.43,42.23,13.42,24.18,0,66-39.91t41.87-61.4q0-5.86-13.18-10-18.31-5.62-24.17-9.77-13.19-9-13.18-27.34,0-61.77,28.32-84.23Q432.26,559,482.54,524.29Z"/>
      <path d="M534.06,751.34q-5.13,16.6-14.16,21l-85.45,42q3.9-15.14,22.95-24.66Z"/>
      <path d="M714.48,524.05,702,570.68q-25.89,16.61-59.33,16.6-38.58,0-54.52-47.85-19.39,9.57-32.64,12.45-1.21,14-4.15,30.23l-1.22.49-1.22-.49q-.24-14.5.49-28.77-28.08,7.83-65.68,7.83l-6.59-1.23q-4.87,4.68-15.38,12.81L474,527.66,500.85,497a44.81,44.81,0,0,1,.74,8.3q0,14.64-14.41,38.08h9.28q15.87,0,57.37-19Q562.62,490.6,568,476.2q11-29.79,25.15-41.51,11-9.27,47.12-22.95Q673.71,399,684.2,399.05a35,35,0,0,1,3.67.24Q692,403.2,692,411.74q0,4.15-7.31,23.44-21.18,56.16-80.34,94.73,18.06,16.35,36.62,16.35Q685.18,546.26,714.48,524.05Zm-43.7-80.81a5.24,5.24,0,0,0-1-2.93l-4.39-.49q-11.49,0-42.24,12.17-32.71,12.9-42.73,23.61-10.74,11.92-18.55,45a421.27,421.27,0,0,0,82-51.51Q670.77,447.64,670.78,443.24Z"/>
      <path d="M740.11,260.13q0,19-15.07,35.4t-34.17,16.36q-20.1,0-20.09-17.58,0-19.77,14-38.33,15.19-20.26,34.3-20.26,8.58,0,15.19,8.05A26.15,26.15,0,0,1,740.11,260.13Zm-15.87,16.18q0-6-8-12.9t-13.87-6.94q-7.38,0-13.39,6.69t-6,14.14Q683,288,702.14,288,724.24,288,724.24,276.31Z"/>
      <path d="M919.77,524.73l-12.45,46.49q-30,18.51-59.82,18.5-25.87,0-42-19-15.33-18-15.32-44.13,0-12.44,4.38-32-32.37,24.69-69.34,56.94-7.58,38.58-6.59,64.94l-2.2,4.16-1.22.73L714,620.17V589.65l2-30.27q-5.85,4.61-17.58,13.35l12.46-45.86,9-8.54q11.74-54.39,22-73.42,20.07-37.07,61.21-37.07,10.75,0,31.63,6.18t31.86,6.19a76.7,76.7,0,0,0,32.22-6.79q-4.39,23.44-15.62,39.32-49.32,10-75.44,33.21A112.51,112.51,0,0,0,806,505.73q0,18.79,13.92,30.28,12.93,10.74,32,10.74Q891.7,546.75,919.77,524.73Zm-106.66-72.2q-20.5-4.9-28.32-4.9-44.68,0-54.44,62.65,28.8-23.73,39.55-31.57Q792.84,461.84,813.11,452.53Z"/>
      <path d="M981.81,218.38q0,18-16.39,39.52l7.47,7.31-8.55,24.15a170.66,170.66,0,0,1-16.12-12.73q-37.85,35.26-57.62,35.26-3.9,0-13.43-2.93,29.79-14.4,62.26-38.09-9.63-9.27-9.62-16.35,0-12.69,13.85-29.67t26-17Q981.81,207.89,981.81,218.38ZM962.28,239.9q0-11.25-9.67-11.26l-3.72,1.47a10.93,10.93,0,0,0-2.72,7.34q0,4.91,11.65,14.45Q962.27,244.31,962.28,239.9Z"/>
      <path d="M1038.45,524.78,1026,571.2a36.07,36.07,0,0,1-19.29,5.58q-17.33,0-27.34-15.29-20.5,25.39-25.63,25.39-5.62,0-16.61-12.94-10.25-12-12.2-18.76-5.62,7.53-21,18l12.21-45.43q11.22-10.5,33.69-31.25,2.43,0,24.17,18.31t37.11,18.31A46.74,46.74,0,0,0,1038.45,524.78Z"/>
      <path d="M1065.31,174.68q0,19-15.07,35.4t-34.18,16.36q-20.09,0-20.09-17.58,0-19.77,14-38.33,15.18-20.26,34.3-20.26,8.57,0,15.19,8.06A26.1,26.1,0,0,1,1065.31,174.68Zm-15.87,16.18q0-6-8-12.9T1027.58,171q-7.37,0-13.39,6.69t-6,14.14q0,10.67,19.16,10.66Q1049.44,202.51,1049.44,190.86Z"/>
      <path d="M1112.43,370.73q0,68.85-17.34,113.77-21,53.71-71.77,88.86l12.2-45.65q62.26-49.8,62.26-100.1,0-37.59-23.68-91.06-4.59,23.93-13.77,71.53-3.87,20.51-6.52,20.51l-2.18-.73-.48-3.18q0-19.77,10.21-74.22,10.7-58.83,18.48-67.62,13.38,8.3,23.59,40.28Q1112.42,350.71,1112.43,370.73Z"/>
      <path d="M1160.28,163.45q-5.13,16.61-14.16,21l-85.45,42q3.9-15.13,22.95-24.66Z"/>
      <path d="M1164.67,244q0-7.32-8.79-7.33-12.21,0-12.2-3.41,0-6.1,7.32-6.11a11.88,11.88,0,0,1,4.88,1q2.44-1.69,7-10.28t5.25-12.2a15,15,0,0,0-5.4-1.69q-10.32,0-23.82,17.82t-13.5,28.32q0,9.53,9.65,9.28c5.11-.16,7.91.24,8.41,1.22q-3.92,5.37-25.64,13.43L1088,284.3q0,2.93,3.17,2.93,20.5,0,44.92-11.47Q1164.68,262.08,1164.67,244Z"/>
      <path d="M1232.36,365.36a525.35,525.35,0,0,0-44.78-103q-15.11,45.41-15.09,136,0,48.82,8,50.29,5.55-2.69,5.55-28.08,0-13.66,6.27-60.54,12.27,23.19,26.52,62.25,16.2,44.68,16.21,63,0,25.63-15.39,50.78-9,14.9-33.44,42.24l-21.24,22.21q-12.45,13.44-17.83,24.42a2.12,2.12,0,0,0,2.44,2q2.19,0,10.23-2.93,57-20.74,75.75-54.93,15.83-28.56,15.83-93.51Q1251.34,426.16,1232.36,365.36Z"/>
    </g>
  </g>
</svg>
