<svg xmlns="http://www.w3.org/2000/svg" viewBox="0 0 1500 1000">
  <title>EH-Artboard 32</title>
  <g id="EsSemiu">
    <g>
      <path d="M441.6,229.48q0,18.06-16.39,39.52l7.47,7.32-8.55,24.15A170.66,170.66,0,0,1,408,287.74Q370.17,323,350.39,323q-3.9,0-13.43-2.93,29.79-14.4,62.26-38.09-9.63-9.27-9.62-16.35,0-12.7,13.85-29.67t26-17Q441.6,219,441.6,229.48ZM422.07,251q0-11.26-9.67-11.26l-3.72,1.46a11,11,0,0,0-2.72,7.35q0,4.91,11.65,14.45Q422.06,255.42,422.07,251Z"/>
      <path d="M603.37,535.22l-12.45,46.52q-31.5,19.1-51.51,19.09-24.67,0-36.64-31.43l-76.25,57.21q-61.33,46.21-61.34,53.79,0,10.27,33.7,10.27,44.91,0,106.44-24.41,57.87-23.19,95.95-53.47h1.22q-2.93,15.18-60.55,56.76-31.74,23-77.39,41.83-51,21-84,21-41,0-41-18.57,0-36.66,65.19-92.61,26.11-22.25,93.75-69.16-.74-11.49-2.21-15.64-2.92-8.79-11.49-9.53-11-1-11-3.18,0-5.61,6.09-20.65t10.23-20.16q3.42-4.4,23.63-8.06,17.06-2.94,26.8-2.94,24.6,0,24.61,15.1,0,21.42-40.14,61.11,7.82,10.95,34.67,11Q572.86,559.08,603.37,535.22Z"/>
      <path d="M734.81,762.45q-5.12,16.6-14.16,21l-85.45,42q3.91-15.13,22.95-24.66Z"/>
      <path d="M796.58,535.89l-12.45,46.42a36.07,36.07,0,0,1-19.29,5.58q-17.34,0-27.34-15.3Q717,598,711.86,598q-5.61,0-16.6-12.94-10.25-12-12.2-18.76-5.62,7.53-21,18l12.21-45.43q11.22-10.5,33.69-31.25,2.43,0,24.17,18.31t37.11,18.31A46.83,46.83,0,0,0,796.58,535.89Z"/>
      <path d="M950.63,535.35l-12.69,47.16q-17.82,13.18-44.19,13.19-20.5,0-32.72-14.65-11.22-13.68-11.23-33.95a72.12,72.12,0,0,1,.74-10.25l-5.35,1A85.4,85.4,0,0,1,825,560.93q-15.07,11.67-27.71,10.2a153.08,153.08,0,0,1-15.37,12.77l12.45-46q6.29-3.92,11.11-16.4,5.31-13.9,9.18-17.82l1.93.73a202.28,202.28,0,0,1-2,20.51q5.39,0,17.66-11.72,10.56-10,14.24-16.6,2.21-4.14,7.11-20.26c.66-2.44,2.45-5,5.4-7.57l1.47,1.46.49,11.24q0,1.71-1.47,11.23,2.46,0,10.52-5.86,9-6.6,18.55-26.13,8.79-18.54,9.77-19l1.22,1.47V448q0,21.24-11,46.63-12,27.58-28.32,37.84,2.44,26.61,33.94,26.61Q923.77,559.08,950.63,535.35Z"/>
      <path d="M1024.12,381.84q0,68.84-17.33,113.77-21,53.7-71.78,88.86l12.21-45.65q62.25-49.8,62.25-100.1,0-37.59-23.68-91.06Q981.2,371.59,972,419.19q-3.87,20.51-6.52,20.51l-2.17-.74-.49-3.17q0-19.77,10.21-74.22,10.71-58.83,18.49-67.62,13.37,8.3,23.58,40.28Q1024.12,361.82,1024.12,381.84Z"/>
      <path d="M1072,174.56q-5.13,16.6-14.16,21l-85.45,42q3.9-15.13,22.95-24.66Z"/>
      <path d="M581.74,648q-15.87,32.22-15.63,39.79,14.35-7.56,21.41-11.71,29.93-17.1,33.82-21,9-9,15.33-36.62Q607.75,636,600.21,639.16,586.11,645.27,581.74,648Z"/>
      <path d="M622.61,562.74q-10,0-14.16-2.68,18.94-26.13,18.94-43.95a42.43,42.43,0,0,0-.73-8.3Q613.07,523.44,600,538.57l-12.14,45.32,6.55-5.16q9.72,18,30.69,17.95,19.79,0,40.29-15l12.45-46.52q-9.76,9.76-25.64,18.31Q634.33,562.74,622.61,562.74Z"/>
      <path d="M822.7,282.23q-9.27,0-9.27-17.83l-5.86,1.47q-18.55,32.47-30,32.47-8.55,0-8.55-11.47l.74-7.57-8.55,4.64q-6.84,18.58-6.84,25.25,0,13.81,14.2,13.81,16.4,0,31.08-21.15,8.82,6.25,14.44,6.26,17.63,0,29.13-21.24,8.55-15.63,11-36.63l-7.57,2.2Q836.87,282.23,822.7,282.23Z"/>
      <path d="M763.62,273.44l79.84-28.32q9.75-3.42,16.84-18.56L790.72,251Q774.37,256.59,763.62,273.44Z"/>
      <path d="M1144.05,376.46a525.52,525.52,0,0,0-44.78-103q-15.09,45.4-15.09,136,0,48.84,8,50.3,5.53-2.69,5.54-28.08,0-13.67,6.27-60.55,12.29,23.21,26.52,62.26,16.21,44.67,16.21,63,0,25.63-15.38,50.78-9,14.89-33.45,42.24l-21.24,22.21Q1064.16,625,1058.79,636c.16,1.3,1,2,2.44,2s4.86-1,10.22-2.93q57-20.75,75.76-54.93Q1163,551.52,1163,486.57,1163,437.27,1144.05,376.46Z"/>
      <path d="M1076.37,255.13q0-7.33-8.79-7.33c-8.14,0-12.21-1.13-12.21-3.42q0-6.09,7.32-6.1a12,12,0,0,1,4.89,1q2.43-1.69,7-10.28c3-5.72,4.76-9.78,5.24-12.2a14.93,14.93,0,0,0-5.4-1.69q-10.32,0-23.82,17.82t-13.5,28.32q0,9.52,9.65,9.28c5.11-.16,7.92.24,8.41,1.22q-3.9,5.37-25.63,13.43L999.7,295.41q0,2.93,3.18,2.93,20.5,0,44.92-11.47Q1076.36,273.19,1076.37,255.13Z"/>
    </g>
  </g>
</svg>
