<svg xmlns="http://www.w3.org/2000/svg" viewBox="0 0 1500 1000">
  <title>EH-Artboard 20</title>
  <g id="ElGafar">
    <g>
      <path d="M454.47,378.53q0,18.06-16.4,39.52l7.47,7.32L437,449.52a171,171,0,0,1-16.12-12.73Q383,472,363.26,472.05q-3.92,0-13.43-2.93,29.79-14.42,62.26-38.09-9.63-9.27-9.62-16.36,0-12.69,13.85-29.66t26-17Q454.47,368,454.47,378.53Zm-19.53,21.53q0-11.26-9.67-11.27l-3.72,1.47a11,11,0,0,0-2.73,7.35q0,4.9,11.65,14.45Q434.94,404.47,434.94,400.06Z"/>
      <path d="M576.78,546.9q0,26.22-8,27.68l-6.6-8.05q-6.82.24-11.23,8.07-12,20.77-25.39,54.26-11,28.11-22,56-9.29,22-28.56,43.51-20.52,23-40.78,32Q411.25,770.88,371,770.87q-60.8,0-62.74-6.29l2.44-1.76q51.27,0,95.21-22,45.66-22.92,73.25-64.63,14.88-22.68,32-60.24l22.46-50.24q19-37.8,29.54-37.81,5.86,0,10,6.81A22.49,22.49,0,0,1,576.78,546.9Z"/>
      <path d="M732.54,623.66l-12.45,46.8q-19.53,13.26-39.55,13.26-27.59,0-37.84-31-5.62-17.4-6.59-53.77l-1.84-73.73q-2.07-83-2.07-84.47,0-3.18,5.89-20.76t8-20.5h1.44q.74,42.24,2.93,126.22.24,23.43,5.13,69.33,9.76,47.13,37.35,47.12Q713.51,642.21,732.54,623.66Z"/>
      <path d="M797,229.13l-69.58,24.41q-16.36,5.63-27.1,22.46l79.83-28.32Q789.92,244.26,797,229.13Z"/>
      <path d="M759.4,284.79q-9.28,0-9.28-17.82l-5.86,1.46q-18.56,32.47-30,32.47-8.55,0-8.54-11.47l.73-7.57-8.54,4.64Q691,305.1,691,311.75q0,13.81,14.19,13.81,16.41,0,31.09-21.15,8.8,6.25,14.43,6.26,17.63,0,29.13-21.24,8.57-15.63,11-36.62L783.33,255Q773.55,284.79,759.4,284.79Z"/>
      <path d="M800.66,461.79q0-3.66-9.75-9.76-4.39-2.68-12.67-6.84l-22.19,34.42,21.7,15.14Q788,486.94,800.66,461.79Z"/>
      <path d="M805.87,642.94q-30.23,0-38.76-12.45,33.54-38.57,33.55-62.25,0-31-14.12-31-6.81,0-20.43,10.76T740.8,579.28q-12.4,22-12.41,37.64a42.75,42.75,0,0,0,1,9.29l-12.45,46.94a308.81,308.81,0,0,0,27.83-22.35q14.89,17.44,23.44,23.82a51.85,51.85,0,0,0,31.25,10.32,92.92,92.92,0,0,0,51.76-15.43l12.69-47.25Q837.07,642.94,805.87,642.94Zm-53-31.14q-8.36-9.72-8.35-15.57,0-4.38,11-14.11t15.72-9.73q12.78,0,12.78,9.49Q784.06,595.74,752.86,611.8Z"/>
      <path d="M920.29,262.57q-5.13,16.6-14.16,21l-85.45,42q3.9-15.13,23-24.66Z"/>
      <path d="M916.63,480.83q0-4.62-6.09-7.81-3.39-4.39-16-8.54Q874.55,494,872.12,498.9q14.36,10.26,21.89,14.89Q903.49,504.28,916.63,480.83Z"/>
      <path d="M938.11,642.21q-21.24,0-27.83-25.56,24.16-26.28,24.17-40.4,0-15.59-28.57-15.58-40.77,0-49.56,9.48a137.77,137.77,0,0,0-7.81,16q-8.29,21.63-8.3,28.43,3.67-1.46,15.71-1.46a16.94,16.94,0,0,1,12.27,5.39l-8.1,8.32-12.27,45.31q14-9.57,37.07-34.12,12.33,45.16,42.48,45.17,19,0,40.28-13.73l12.7-47.31Q957.64,642.21,938.11,642.21Z"/>
      <path d="M1005.74,273.8q0,19.05-15.07,35.4t-34.18,16.36q-20.09,0-20.09-17.58,0-19.77,14-38.33,15.18-20.25,34.3-20.26,8.57,0,15.19,8.06A26.1,26.1,0,0,1,1005.74,273.8ZM989.87,290q0-6-8-12.9T968,270.14q-7.37,0-13.39,6.7t-6,14.13q0,10.66,19.16,10.67Q989.87,301.64,989.87,290Z"/>
      <path d="M1052.86,469.85q0,68.85-17.34,113.77-21,53.71-71.77,88.87L976,626.83q62.27-49.8,62.26-100.1,0-37.59-23.68-91.06-4.59,23.93-13.78,71.53-3.86,20.51-6.51,20.51l-2.18-.73-.48-3.18q0-19.77,10.21-74.22,10.69-58.83,18.48-67.62,13.38,8.3,23.59,40.28Q1052.84,449.84,1052.86,469.85Z"/>
      <path d="M1100.71,262.57q-5.13,16.6-14.16,21l-85.45,42q3.9-15.13,22.95-24.66Z"/>
      <path d="M1105.1,343.14q0-7.32-8.79-7.32-12.21,0-12.2-3.42,0-6.11,7.32-6.11a11.88,11.88,0,0,1,4.88,1q2.45-1.69,7-10.28t5.25-12.2a15.25,15.25,0,0,0-5.4-1.69q-10.32,0-23.82,17.82t-13.5,28.32q0,9.52,9.65,9.28c5.11-.16,7.91.24,8.41,1.22q-3.91,5.37-25.64,13.43l-29.78,10.25c0,2,1.06,2.93,3.17,2.93q20.51,0,44.92-11.47Q1105.11,361.2,1105.1,343.14Z"/>
      <path d="M1172.79,464.48a525.35,525.35,0,0,0-44.78-103q-15.1,45.41-15.09,136,0,48.82,7.95,50.29,5.55-2.68,5.55-28.08,0-13.66,6.27-60.54,12.27,23.19,26.52,62.25,16.2,44.68,16.21,63,0,25.64-15.39,50.78-9,14.89-33.44,42.24l-21.24,22.21Q1092.9,713,1087.52,724a2.12,2.12,0,0,0,2.44,2q2.19,0,10.23-2.93,57-20.74,75.75-54.93,15.82-28.56,15.83-93.51Q1191.77,525.28,1172.79,464.48Z"/>
    </g>
  </g>
</svg>
