<svg xmlns="http://www.w3.org/2000/svg" viewBox="0 0 1500 1000">
  <title>EH-Artboard 84</title>
  <g id="ElBirr">
    <g>
      <path d="M762.7,542,750,589.11q-30.27,17.58-42.24,25.64-28.56,19-34.91,31.49-19.53,42.24-39.06,84.23-28.32,53.7-59.08,64-23.44,8-51.52,8-56.39,0-72.51-9.51l-.73-1.23,1.95-2.2a163.57,163.57,0,0,0,32,2.93q44.93,0,85-28.81,35.4-25.87,59.81-68.36,1.71-3.16,23.2-45.9,13.9-27.82,27-43.58t41.38-33.32Q751.71,553,762.7,542Z"/>
      <path d="M819.58,769q-5.13,16.61-14.16,21L720,832q3.9-15.13,22.95-24.66Z"/>
      <path d="M864,192.38q0,19.05-15.06,35.4t-34.18,16.36q-20.1,0-20.09-17.58,0-19.77,14-38.33Q823.84,168,843,168q8.56,0,15.19,8.06A26.15,26.15,0,0,1,864,192.38Zm-15.87,16.18q0-6-8-12.9t-13.87-6.94q-7.38,0-13.39,6.7t-6,14.13q0,10.66,19.16,10.66Q848.14,220.21,848.14,208.56Z"/>
      <path d="M911.13,388.43q0,68.85-17.33,113.77-21,53.71-71.78,88.86l12.21-45.65q62.25-49.8,62.25-100.1,0-37.59-23.68-91.06-4.59,23.92-13.77,71.53-3.87,20.5-6.52,20.51l-2.17-.73-.49-3.18q0-19.77,10.22-74.22,10.7-58.83,18.48-67.62,13.37,8.29,23.58,40.28Q911.13,368.41,911.13,388.43Z"/>
      <path d="M959,181.15q-5.12,16.6-14.16,21l-85.44,42q3.9-15.13,22.94-24.66Z"/>
      <path d="M676.41,256.74q-4-5.28-9.64-5.28-12.46,0-25.41,12.13T628.42,288l1,5.88a58.9,58.9,0,0,0,6.43,8.33q-29.1,17.15-57.44,24,8.33,4.89,14.44,4.88,15.66,0,51.87-23.92,15.66,6.84,25,7.08,3.92-12.49,3.67-15.69l-.24-3.67-7.31-5.39q14.65-15.45,14.65-21.57A18,18,0,0,0,676.41,256.74ZM658,284.67q-10.57-8.3-10.58-13.43,0-9,8.18-9,7.68,2.93,7.69,8.79Q663.33,276.61,658,284.67Z"/>
      <path d="M632.57,351.42q-9.52,0-9-11.4l.24-4.85-6.35,1.46q-18.07,28.85-29.3,28.85-7.82,0-7.81-9L582,345.6l-5,.49q-12,16.4-12,29.36l1.71,8.57q5.11,6.6,12.17,6.61,19,0,30.45-19.67,5.84,6.24,9.74,6.24,32.38,0,46-52.49l-6.1,1.45Q646,351.42,632.57,351.42Z"/>
      <path d="M782.23,569.34q-10,0-14.16-2.69,19-26.11,19-43.94a42.61,42.61,0,0,0-.73-8.31Q772.7,530,759.52,545.17l-12.21,45.31,6.6-5.16q9.75,18,30.76,17.95,19.77,0,40.28-15l12.45-46.52q-9.76,9.76-25.63,18.31Q793.94,569.35,782.23,569.34Z"/>
      <path d="M754.88,635.5q-21,32.22-22,34.42l21.48,14.89q11-10,22.71-32.95Q777.1,643.55,754.88,635.5Z"/>
      <path d="M1031.06,383.06a524.76,524.76,0,0,0-44.78-103q-15.09,45.41-15.09,136,0,48.83,8,50.29,5.55-2.69,5.55-28.08,0-13.67,6.27-60.54,12.27,23.19,26.52,62.25,16.2,44.69,16.2,63,0,25.63-15.38,50.78-9,14.89-33.45,42.24l-21.24,22.21q-12.45,13.44-17.82,24.42c.16,1.3,1,1.95,2.44,1.95s4.87-1,10.23-2.93q57-20.75,75.75-54.93,15.83-28.56,15.83-93.51Q1050.05,443.86,1031.06,383.06Z"/>
      <path d="M963.38,261.72q0-7.32-8.79-7.33-12.21,0-12.21-3.41,0-6.1,7.33-6.11a11.88,11.88,0,0,1,4.88,1q2.43-1.69,7-10.28t5.25-12.2a15,15,0,0,0-5.4-1.69q-10.32,0-23.82,17.82t-13.51,28.32q0,9.53,9.65,9.28c5.12-.16,7.92.24,8.41,1.22q-3.9,5.37-25.63,13.43L886.71,302c0,2,1.06,2.93,3.18,2.93q20.5,0,44.92-11.47Q963.37,279.78,963.38,261.72Z"/>
    </g>
  </g>
</svg>
