<svg xmlns="http://www.w3.org/2000/svg" viewBox="0 0 1500 1000">
  <title>EH-Artboard 24</title>
  <g id="ElFetah">
    <g>
      <path d="M433.67,293q0,18.06-16.4,39.52l7.47,7.32L416.2,364a169.73,169.73,0,0,1-16.12-12.73q-37.84,35.25-57.62,35.25-3.91,0-13.43-2.93,29.78-14.4,62.25-38.08-9.61-9.27-9.62-16.36,0-12.69,13.86-29.66t26-17Q433.66,282.47,433.67,293Zm-19.53,21.53q0-11.26-9.67-11.27l-3.72,1.47A11,11,0,0,0,398,312q0,4.89,11.65,14.44C412.65,321.43,414.14,317.42,414.14,314.49Z"/>
      <path d="M639.73,362.56q0,5.37-9,29.8t-13.18,30.53q-21.74,30.78-64.21,63.51-36.87,27.12-73.44,54.23-40.22,32.25-68.49,68.4-37,47.64-37,84,0,22.49,22.71,44.71a135.61,135.61,0,0,0,42.84,28.33q24,10,65.8,16.12,36.85,5.63,66.65,5.62,15.61,0,38.08-4.15l1.22.75-1.7,2q-18.32,9-71.78,9-61.29,0-105.71-20.53-36.13-16.62-51.52-34.71-19.77-22.73-19.77-59.39,0-37.39,36.13-90.67,31-45.47,66.89-74.79,12.69-10.28,49.56-38.86-.24-4.15-3.41-12.22t-3.17-12.47q0-17.1,21.24-53,4.4-7.59,47.73-27.62t54.81-20.05Q639.73,357.67,639.73,362.56Zm-22,29q-21.24,3.66-48.09,13.67-30.76,11.73-43,23.44,6.67,15.38,6.68,21a32.77,32.77,0,0,1-4.21,16.6q40.29-26.85,48.1-33Q603.54,413.08,617.69,391.6Z"/>
      <path d="M752.76,599.12l-12.45,46.8q-19.54,13.26-39.55,13.26-27.6,0-37.85-30.95-5.61-17.38-6.59-53.77l-1.84-73.73q-2.07-83-2.06-84.47,0-3.17,5.88-20.75T666.36,375h1.44q.74,42.24,2.93,126.22.24,23.44,5.12,69.34,9.76,47.12,37.36,47.12Q733.71,617.68,752.76,599.12Z"/>
      <path d="M817.21,204.59,747.63,229q-16.36,5.63-27.1,22.46l79.84-28.32Q810.12,219.74,817.21,204.59Z"/>
      <path d="M779.61,260.25q-9.27,0-9.27-17.82l-5.86,1.47q-18.56,32.46-30,32.47-8.55,0-8.55-11.48l.74-7.57L718.09,262q-6.84,18.6-6.84,25.26,0,13.8,14.2,13.81,16.39,0,31.08-21.16,8.82,6.27,14.44,6.26,17.63,0,29.12-21.24,8.56-15.62,11-36.62l-7.57,2.2Q793.78,260.26,779.61,260.25Z"/>
      <path d="M784,422.36q-30.76,19.78-55.18,29.79Q713,482.92,713.45,491.94q12.9-6.82,19.22-10.49,31.88-17.82,35.28-21.24Q777.69,450.92,784,422.36Z"/>
      <path d="M803.12,616.94q-17.82,9.28-29.54,9.28-10,0-14.16-2.68,19-26.13,19-43.95a42.43,42.43,0,0,0-.73-8.3Q764,586.92,750.91,602.05l-12.16,45.32,6.56-5.17q9.74,18,30.71,18,19.77,0,40.28-15l12.45-46.53Q819,608.4,803.12,616.94Z"/>
      <path d="M885.81,238q-5.12,16.61-14.16,21l-85.44,42q3.9-15.13,22.94-24.66Z"/>
      <path d="M901,618.41q-30.24,0-38.77-12.45,33.56-38.58,33.55-62.26,0-31-14.11-31-6.81,0-20.44,10.75T836,554.74q-12.42,22-12.41,37.65a42.21,42.21,0,0,0,1,9.29l-12.46,46.93a310.18,310.18,0,0,0,27.84-22.34q14.88,17.43,23.43,23.82A51.92,51.92,0,0,0,894.6,660.4,93,93,0,0,0,946.36,645l12.7-47.25Q932.24,618.4,901,618.41Zm-53-31.15q-8.35-9.72-8.36-15.57,0-4.37,11.06-14.11t15.72-9.73q12.76,0,12.77,9.49Q879.22,571.22,848,587.26Z"/>
      <path d="M895.82,437.26q0-3.67-9.75-9.77-4.38-2.69-12.67-6.84l-22.18,34.43,21.69,15.13Q883.14,462.41,895.82,437.26Z"/>
      <path d="M984.94,249.27q0,19-15.07,35.4T935.69,301q-20.1,0-20.09-17.58,0-19.79,14-38.33,15.18-20.26,34.3-20.27,8.57,0,15.19,8.06A26.21,26.21,0,0,1,984.94,249.27Zm-15.87,16.18q0-6-8-12.9t-13.87-6.94q-7.37,0-13.39,6.69t-6,14.14q0,10.67,19.15,10.66Q969.07,277.1,969.07,265.45Z"/>
      <path d="M1032.05,445.31q0,68.85-17.33,113.77-21,53.71-71.78,88.87l12.21-45.66q62.25-49.8,62.26-100.09,0-37.6-23.69-91.07-4.58,23.94-13.77,71.54-3.86,20.5-6.52,20.5l-2.17-.73-.48-3.17q0-19.78,10.21-74.22,10.69-58.83,18.48-67.63,13.37,8.31,23.59,40.29Q1032,425.3,1032.05,445.31Z"/>
      <path d="M1079.91,238q-5.13,16.61-14.16,21L980.3,301q3.9-15.13,23-24.66Z"/>
      <path d="M1084.3,318.6q0-7.32-8.79-7.32-12.21,0-12.21-3.42,0-6.11,7.33-6.1a12,12,0,0,1,4.88,1q2.45-1.69,7-10.27t5.25-12.21a15.25,15.25,0,0,0-5.4-1.69q-10.32,0-23.82,17.83T1045,324.71q0,9.51,9.66,9.27,7.66-.24,8.41,1.23-3.91,5.37-25.64,13.42l-29.78,10.26c0,1.95,1.05,2.93,3.17,2.93q20.51,0,44.92-11.48Q1084.3,336.68,1084.3,318.6Z"/>
      <path d="M1152,439.94a525.64,525.64,0,0,0-44.79-103q-15.09,45.42-15.09,136,0,48.84,8,50.29,5.55-2.69,5.55-28.07,0-13.68,6.27-60.55,12.27,23.21,26.52,62.26,16.2,44.67,16.2,63,0,25.63-15.38,50.79-9,14.89-33.44,42.23l-21.24,22.22q-12.46,13.43-17.83,24.41a2.12,2.12,0,0,0,2.44,2q2.19,0,10.23-2.93,57-20.76,75.75-54.94Q1171,615,1171,550.05,1171,500.73,1152,439.94Z"/>
    </g>
  </g>
</svg>
