<svg xmlns="http://www.w3.org/2000/svg" viewBox="0 0 1500 1000">
  <title>EH-Artboard 64</title>
  <g id="ElMubdiu">
    <g>
      <path d="M409.37,164.54q0,18.06-16.39,39.52l7.47,7.32-8.55,24.15a169.33,169.33,0,0,1-16.11-12.73q-37.85,35.25-57.63,35.26-3.9,0-13.42-2.93Q334.52,240.73,367,217q-9.62-9.27-9.62-16.36,0-12.69,13.85-29.66t26-17Q409.37,154.05,409.37,164.54Zm-19.53,21.53q0-11.26-9.66-11.27l-3.72,1.47a11,11,0,0,0-2.73,7.35q0,4.9,11.65,14.45Q389.85,190.48,389.84,186.07Z"/>
      <path d="M624,783q-5.12,16.6-14.16,21l-85.45,42q3.92-15.15,22.95-24.66Z"/>
      <path d="M790,555.42,777.54,601.9a173.66,173.66,0,0,1-28.08,16q-19.77,9.35-29.78,9.34-27.1,0-27.1-40.77A112.58,112.58,0,0,1,694,570.56h-1.95q-1.47,0-7,6.71T664,613q-36.87,68.61-68.6,84.23-18.55,9-32.47,11.47-10.5,1.95-34.67,2a263.48,263.48,0,0,1-27.59-2q-21.24-2.49-24.9-5.49l.73-1.49,3.42-2q36.87,0,60.06-7.57t52.73-29.54q31.74-23.45,44.93-42.73,16.85-27.33,33.69-54.93,24.93-38.57,38.82-44.68l2.44,2.2.49,2.44q-.74,2.45-2.2,10.26a131.42,131.42,0,0,0-2.44,25.39q0,26.12,21.73,26.12Q752.38,586.67,790,555.42Z"/>
      <path d="M815.14,352.78q0,19.05-15.07,35.4t-34.18,16.36q-20.1,0-20.09-17.58,0-19.77,14-38.33,15.18-20.25,34.3-20.26,8.56,0,15.19,8.06A26.1,26.1,0,0,1,815.14,352.78ZM799.27,369q0-6-8-12.9t-13.87-6.94q-7.36,0-13.39,6.7T758,370q0,10.67,19.15,10.67Q799.27,380.62,799.27,369Z"/>
      <path d="M925.73,250q0,18.06-16.39,39.52l7.47,7.32L908.26,321a172.3,172.3,0,0,1-16.12-12.73q-37.85,35.25-57.62,35.26-3.9,0-13.43-2.93,29.79-14.41,62.26-38.09-9.63-9.27-9.62-16.36,0-12.69,13.85-29.66t26-17Q925.73,239.5,925.73,250ZM906.2,271.52q0-11.26-9.67-11.27l-3.72,1.47a11,11,0,0,0-2.72,7.35q0,4.89,11.65,14.45Q906.2,275.93,906.2,271.52Z"/>
      <path d="M982.37,556.4l-12.45,46.41a36,36,0,0,1-19.29,5.59q-17.32,0-27.34-15.3-20.5,25.39-25.63,25.39-5.62,0-16.61-12.94-10.24-12-12.2-18.76-5.62,7.53-21,18l12.21-45.43q11.22-10.5,33.69-31.25,2.43,0,24.17,18.31T955,564.7A46.81,46.81,0,0,0,982.37,556.4Z"/>
      <path d="M1009.23,206.3q0,19-15.07,35.4T960,258.06q-20.09,0-20.09-17.58,0-19.78,14-38.33,15.18-20.27,34.3-20.27,8.57,0,15.19,8.06A26.15,26.15,0,0,1,1009.23,206.3Zm-15.87,16.18q0-6-8-12.9t-13.87-6.94q-7.37,0-13.39,6.69t-6,14.14q0,10.67,19.16,10.66Q993.36,234.13,993.36,222.48Z"/>
      <path d="M1056.35,402.34q0,68.85-17.34,113.77-21,53.71-71.77,88.87l12.2-45.65q62.26-49.82,62.26-100.1,0-37.59-23.68-91.07-4.59,23.94-13.77,71.54-3.87,20.51-6.52,20.51l-2.18-.74-.48-3.17q0-19.77,10.21-74.22,10.69-58.83,18.48-67.63,13.38,8.31,23.59,40.29Q1056.34,382.33,1056.35,402.34Z"/>
      <path d="M1104.2,195.07q-5.13,16.6-14.16,21l-85.45,42q3.9-15.13,22.95-24.66Z"/>
      <path d="M407.67,497.3q21.48-24.9,56.88-56.39,27.82-24.42,55.66-48.59,35.89-32,64-87.9l-.49-3.17L580.76,303Q548.29,353.77,521,378L458,431.7q-36.63,32-57.86,58.87-65.19,82.57-65.19,170.27,0,85.24,57.3,85.25,43.4,0,85.82-46.7,41.46-45.71,41.45-89.72,0-15.9-7.08-21.76-4.89-4.15-22.46-6.61-20.26-3.16-27.34-6.11-13.19-5.64-13.19-18.12,0-17.87,23.76-43.33t41.63-25.46q13.47,0,13.47,10.29l2.18,3.18q5.55-2.19,13.29-17.27,6.75-13.62,8-21.89-10.5-13.36-29.54-13.37-12.45,0-33.94,21.7a191.63,191.63,0,0,0-27.1,33.15q-31.25,48.52-31.25,90.45,0,20.25,17.16,27.8,7.59,3.42,32.09,6.11,17.16,2.21,17.16,9.06,0,16.65-31.8,40t-52.58,23.39q-54.54,0-54.54-54.45,0-44.19,8.55-74Q377.4,532.94,407.67,497.3Z"/>
      <path d="M448.2,382.93q20.52,0,44.95-11.5,28.59-13.69,28.59-31.8,0-7.33-8.71-7.34-12.11,0-12.1-3.42,0-6.12,7.29-6.12a11.83,11.83,0,0,1,4.87,1q2.43-1.69,6.94-10.27t5.23-12.21a15.22,15.22,0,0,0-5.39-1.69q-10.31,0-23.78,17.89t-13.47,28.34q0,9.49,9.65,9.25c5.11-.16,7.92.25,8.41,1.23q-3.92,5.37-25.75,13.45L445,380Q445,382.93,448.2,382.93Z"/>
      <path d="M781,649.41q-21,32.24-22,34.43l21.49,14.89q11-10,22.7-33Q803.17,657.48,781,649.41Z"/>
      <path d="M808.3,583.25c-6.68,0-11.39-.89-14.16-2.68q19.05-26.13,19-44a42.43,42.43,0,0,0-.73-8.3Q798.77,544,785.59,559.08l-12.2,45.32,6.59-5.16q9.76,18,30.76,18,19.78,0,40.28-15l12.46-46.53q-9.78,9.78-25.64,18.31Q820,583.25,808.3,583.25Z"/>
      <path d="M1108.59,275.63q0-7.32-8.79-7.32-12.21,0-12.2-3.42,0-6.09,7.32-6.1a11.88,11.88,0,0,1,4.88,1q2.45-1.71,7-10.28t5.25-12.2a15,15,0,0,0-5.4-1.69q-10.32,0-23.82,17.82t-13.5,28.32q0,9.52,9.65,9.28c5.11-.16,7.91.24,8.41,1.22q-3.91,5.37-25.64,13.42l-29.78,10.26q0,2.93,3.17,2.93,20.51,0,44.92-11.48Q1108.59,293.71,1108.59,275.63Z"/>
      <path d="M1176.28,397a525.26,525.26,0,0,0-44.78-103q-15.11,45.41-15.09,136,0,48.84,7.95,50.29,5.55-2.67,5.55-28.07,0-13.66,6.27-60.55,12.27,23.2,26.52,62.26,16.2,44.67,16.21,63,0,25.64-15.39,50.78-9,14.89-33.44,42.23-10.5,11-21.24,22.22-12.45,13.42-17.83,24.41a2.13,2.13,0,0,0,2.44,2q2.19,0,10.23-2.93,57-20.74,75.75-54.93,15.83-28.58,15.83-93.51Q1195.26,457.78,1176.28,397Z"/>
    </g>
  </g>
</svg>
