<svg id="Layer_2" data-name="Layer 2" xmlns="http://www.w3.org/2000/svg" viewBox="0 0 1000 1000">
  <title>EH-Artboard 3</title>
  <path d="M165.2,179.63q0,19.37-17.58,42.39l8,7.85-9.17,25.9a184.71,184.71,0,0,1-17.28-13.66q-40.59,37.81-61.8,37.81-4.2,0-14.4-3.14,31.93-15.43,66.77-40.84-10.32-10-10.32-17.55,0-13.6,14.85-31.81t27.89-18.2Q165.19,168.38,165.2,179.63Zm-20.95,23.09q0-12.08-10.37-12.08l-4,1.57a11.78,11.78,0,0,0-2.93,7.88q0,5.25,12.5,15.5Q144.26,207.45,144.25,202.72Zm94.53,305.79-13.09,49q-30.12,18.85-60.23,37.45-41.37,28.55-41.37,41.89,0,2.88,3.14,2.88,7.86,0,23.57-16.76,10.74-11.52,21.21-23.3c1.22.87,1.83,2.36,1.83,4.45q0,3.67-3.93,20.42-5,21.48-5.5,23a69.07,69.07,0,0,1-11.25,20.68q-11.26,14.65-49.8,42.42Q59.26,742.33,44,757.52,15.42,785.8,15.43,811.19q0,25.66,42.42,40.07,34.81,12,78.55,12,71.73,0,95.83-2.36l.52,1.31q0,7.5-43.2,12.9-33.53,4.13-55.77,4.12Q-.28,879.27-.28,811.46q0-31.17,25.45-70.18Q48,706.47,76.86,685.51L109.13,662a44.48,44.48,0,0,1-2.06-13.88q0-20.43,16-47.92,16-26.45,33.76-38Q211.29,527.36,238.78,508.51Zm35.87,88.24q-6.79,29.6-16.44,39.28-4.17,4.19-36.27,22.51-7.58,4.46-23,12.57-.27-8.11,16.76-42.68,4.68-2.88,19.8-9.42Q243.63,615.61,274.65,596.75Zm44.1-89.29-13.36,49.9q-22,16.1-43.2,16.09-22.5,0-32.91-19.26l-7,5.54,13-48.6q14.05-16.23,28.65-33a45.84,45.84,0,0,1,.78,8.9q0,19.11-20.32,47.13,4.45,2.88,15.19,2.88,12.57,0,31.68-9.95Q308.28,517.93,318.75,507.46Zm61.16,243.77q-5.51,17.81-15.19,22.52l-91.64,45q4.19-16.24,24.61-26.45ZM509.78,361.36q0,6.28-3.54,20.68t-6.41,18.85a306.37,306.37,0,0,0-84.31,53.94q-35.61,35.35-71,70.7v6.28q-.26,9.44,5.76,64.94v1.57a4.49,4.49,0,0,1-1.57,3.14l-1.83-.78a463.22,463.22,0,0,1-12.31-66.25,280.5,280.5,0,0,1-32.21,25.4l13.36-49.23,16.49-13.87L332,481.8q0-5,5.08-34.3,7.21-41.1,24.51-57.86Q380.43,371,421,371a122.3,122.3,0,0,1,15.44,1.44,118.87,118.87,0,0,0,15.45,1.44q31.95,0,57.61-15.44Zm-87.19,52.1q-31.68.53-43.47,4.45-20.69,6.55-29.85,29.33-6.54,16.23-6.54,31.16v10q13.61-11,39.8-37.71Q407.66,425,422.59,413.46ZM553,267.36q-2.62,22.51-11.81,39.27-12.33,22.78-31.23,22.78-6,0-15.49-6.71-15.75,22.68-33.34,22.68-15.23,0-15.22-14.81,0-7.12,7.33-27.08l9.17-5-.79,8.11q0,12.31,9.17,12.31,12.3,0,32.2-34.83l6.29-1.57q0,19.13,10,19.12,15.18,0,25.66-32Zm6.55-25.4q-7.6,16.23-18.07,19.9l-85.62,30.37q11.52-18.06,29.07-24.09Zm98.71,265.76-13.61,50.54q-32.48,18.86-45.3,27.49-30.65,20.43-37.44,33.78-21,45.3-41.9,90.33-30.37,57.6-63.36,68.66-25.14,8.58-55.25,8.59-60.48,0-77.77-10.2l-.78-1.33,2.09-2.35a175.51,175.51,0,0,0,34.3,3.14q48.18,0,91.12-30.9,38-27.75,64.15-73.31,1.83-3.4,24.88-49.23,14.93-29.85,28.93-46.74t44.38-35.74Q646.46,519.51,658.24,507.72ZM737.06,343q0,73.83-18.6,122-22.51,57.61-77,95.31l13.1-49Q721.35,458,721.35,404q0-40.32-25.4-97.67Q691,332,681.18,383.09q-4.15,22-7,22l-2.33-.78-.52-3.41q0-21.21,11-79.59,11.48-63.1,19.82-72.53,14.34,8.89,25.29,43.2Q737,321.56,737.06,343Zm165-222.3q-5.49,17.8-15.18,22.52l-91.65,45q4.18-16.23,24.62-26.44ZM910.43,166q-.78,3.88-5.63,13.08t-7.46,11a12.9,12.9,0,0,0-5.24-1q-7.85,0-7.85,6.54,0,3.67,13.09,3.67,9.42,0,9.43,7.85,0,19.38-30.64,34Q849.94,253.49,828,253.48q-3.41,0-3.41-3.14l32-11q23.29-8.64,27.49-14.4c-.53-1.05-3.54-1.48-9-1.31q-10.35.27-10.35-9.95,0-11.25,14.48-30.37t25.55-19.12A16.13,16.13,0,0,1,910.43,166Zm89.29,289.35q0,69.64-17,100.28-20.12,36.66-81.25,58.91-8.61,3.15-11,3.15c-1.57,0-2.45-.7-2.62-2.1q5.76-11.77,19.12-26.18l22.78-23.83q26.18-29.33,35.87-45.3,16.5-27,16.5-54.46,0-19.63-17.38-67.55-15.28-41.89-28.45-66.77-6.72,50.26-6.72,64.93,0,27.24-6,30.11-8.53-1.56-8.54-53.93,0-97.14,16.19-145.85a563.43,563.43,0,0,1,48,110.5Q999.71,402.46,999.72,455.36Z"/>
</svg>
