<svg xmlns="http://www.w3.org/2000/svg" xmlns:xlink="http://www.w3.org/1999/xlink" version="1.1" x="0px" y="0px" viewBox="0 0 100 125" enable-background="new 0 0 100 100" xml:space="preserve"><g><path fill="none" stroke="#000000" stroke-linecap="round" stroke-linejoin="round" stroke-miterlimit="10" d="M63.562,28.958   c-1.795,1.35-3.591,2.704-4.106,4.416c-0.547,1.831,0.358,4.072,1.264,6.312"/></g><g><path fill="none" stroke="#000000" stroke-linecap="round" stroke-linejoin="round" stroke-miterlimit="10" d="M63.243,32.584   c0.915-0.854,1.826-1.712,2.843-2.365c2.397-1.538,5.382-1.953,8.366-2.367"/></g><g><path fill="none" stroke="#000000" stroke-linecap="round" stroke-linejoin="round" stroke-miterlimit="10" d="M74.771,30.376   c1.959-0.789,3.916-1.578,5.681-2.683c1.518-0.948,2.889-2.13,4.265-3.313"/></g><g><path fill="none" stroke="#000000" stroke-linecap="round" stroke-linejoin="round" stroke-miterlimit="10" d="M87.083,24.223   c0.399-2.621,0.8-5.241-0.319-5.838c-0.96-0.518-3.055,0.473-4.891,1.262c-3.051,1.307-5.392,2.054-8.054,2.365   c-2.401,0.283-5.067,0.207-7.576-0.313c-1.204-0.25-2.367-0.605-3.471-1.105c-2.636-1.191-4.911-3.212-7.577-4.261   c-3.597-1.412-7.896-1.06-11.68-0.787C39.828,15.808,36.637,16,32.15,16.491c-0.845,0.091-1.735,0.194-2.053,0.63   c-0.4,0.554,0.121,1.644,0.475,2.683c0.354,1.052,0.532,2.054,1.104,2.524c0.885,0.731,2.711,0.194,4.264,0   c2.241-0.281,3.92,0.146,6.157,0c2.751-0.18,6.353-1.237,7.577,0.316c0.749,0.951,0.607,2.878,0.789,4.575   c0.278,2.628,1.32,4.708,2.367,6.786"/></g><g><path fill="none" stroke="#000000" stroke-linecap="round" stroke-linejoin="round" stroke-miterlimit="10" d="M46.83,26.274   c0.081,4.598,0.167,9.199,1.264,13.569c0.931,3.723,2.596,7.282,4.416,10.731c2.149,4.068,4.517,7.988,5.686,12.463   c0.875,3.352,1.072,7.016,0.156,10.258c-1.077,3.805-3.697,7.031-6.312,10.254"/></g><g><path fill="none" stroke="#000000" stroke-linecap="round" stroke-linejoin="round" stroke-miterlimit="10" d="M47.805,38.596   c-3.743,1.13-7.491,2.258-10.445,4.403c-4.335,3.141-6.97,8.462-10.42,12.938c-2.575,3.338-5.6,6.207-8.999,8.521   c-3.52,2.396-7.445,4.197-11.366,5.994"/></g><g><path fill="none" stroke="#000000" stroke-linecap="round" stroke-linejoin="round" stroke-miterlimit="10" d="M6.575,70.453   c-0.177,2.918-0.359,5.832,0.476,8.523c0.971,3.141,3.323,5.969,6.312,7.729c3.718,2.189,8.412,2.721,12.312,1.578   c4.213-1.234,7.497-4.416,11.053-7.572c3.07-2.73,6.348-5.438,10.577-4.734c1.158,0.193,2.387,0.643,2.838,1.42   c0.547,0.941-0.041,2.363-0.633,3.785"/></g><g><path fill="none" stroke="#000000" stroke-linecap="round" stroke-linejoin="round" stroke-miterlimit="10" d="M45.408,42.21   c-2.822,3.844-5.646,7.687-7.42,11.993c-1.624,3.945-2.362,8.281-3.945,12.307c-1.432,3.639-3.557,7.027-6.156,9.941   c-1.613,1.807-3.409,3.426-5.21,5.049"/></g><g><path fill="none" stroke="#000000" stroke-linecap="round" stroke-linejoin="round" stroke-miterlimit="10" d="M46.83,86.705   c2.392,1.604,4.785,3.207,7.42,4.102c4.461,1.52,9.61,0.992,14.364-0.312c4.063-1.119,7.841-2.807,11.205-5.049   c3.85-2.564,7.168-5.852,10.101-9.783c1.73-2.311,3.329-4.844,3.318-7.576c-0.004-1.578-0.551-3.225-1.42-4.576   c-1.63-2.525-4.401-4.018-6.945-5.68c-4.457-2.908-8.226-6.341-13.103-8.678c-4.546-2.178-10.065-3.407-12.63-7.415   c-0.496-0.774-0.881-1.649-1.264-2.524"/></g><g><path fill="none" stroke="#000000" stroke-linecap="round" stroke-linejoin="round" stroke-miterlimit="10" d="M59.455,45.996   c1.259,3.029,2.519,6.058,3.95,8.994c1.584,3.256,3.374,6.4,5.367,9.469c1.987,3.062,4.168,6.055,6.944,8.361   c1.093,0.91,2.282,1.721,3.47,2.523"/></g><g><path fill="none" stroke="#000000" stroke-linecap="round" stroke-linejoin="round" stroke-miterlimit="10" d="M59.773,11.757   c2.342-1.73,4.684-3.458,7.421-5.208c1.668-1.067,3.484-2.145,5.205-1.892c1.319,0.192,2.584,1.166,3.631,2.208   c0.966,0.961,1.745,1.98,2.529,3"/></g><g><path fill="none" stroke="#000000" stroke-linecap="round" stroke-linejoin="round" stroke-miterlimit="10" d="M78.56,9.865   c-3.01,1.97-6.02,3.943-8.686,6.31c-1.801,1.599-3.444,3.379-5.088,5.16"/></g><g><path fill="none" stroke="#000000" stroke-linecap="round" stroke-linejoin="round" stroke-miterlimit="10" d="M87.336,19.169   c0.855-1.098,1.705-2.195,2.56-3.293"/></g><g><path fill="none" stroke="#000000" stroke-linecap="round" stroke-linejoin="round" stroke-miterlimit="10" d="M89.896,15.876   c0.425,0.217,0.85,0.435,0.87,0.789c0.02,0.417-0.512,1.02-0.557,1.262c-0.071,0.413,1.259-0.209,2.054-1.103   c0.739-0.832,1.017-1.899,1.184-1.815c0.167,0.083,0.228,1.277,0,2.129c-0.334,1.275-1.306,1.784-2.286,2.211   c-1.209,0.524-2.438,0.923-3.672,1.325"/></g><g><path fill="none" stroke="#000000" stroke-linecap="round" stroke-linejoin="round" stroke-miterlimit="10" d="M29.959,17.814   c-1.179,0.169-2.357,0.339-3.778,1.3c-1.452,0.981-3.161,2.787-2.681,3.076c0.278,0.172,1.32-0.185,2.21-0.946   c0.46-0.395,0.88-0.9,1.027-0.71c0.07,0.096,0.07,0.372,0,0.632c-0.162,0.551-0.678,1.04-0.633,1.184   c0.046,0.167,0.86-0.139,1.498-0.476c1.604-0.837,2.14-1.862,2.676-2.885"/></g><g><path fill="none" stroke="#000000" stroke-linecap="round" stroke-linejoin="round" stroke-miterlimit="10" d="M64.786,21.334   c-0.051-1.371-0.102-2.741-0.612-3.91c-0.587-1.335-1.786-2.41-2.782-3.568c-0.586-0.68-1.103-1.389-1.618-2.099"/></g><text x="0" y="115" fill="#000000" font-size="5px" font-weight="bold" font-family="'Helvetica Neue', Helvetica, Arial-Unicode, Arial, Sans-serif">Created by Asli Germirli</text><text x="0" y="120" fill="#000000" font-size="5px" font-weight="bold" font-family="'Helvetica Neue', Helvetica, Arial-Unicode, Arial, Sans-serif">from the Noun Project</text></svg>