<svg id="Layer_2" data-name="Layer 2" xmlns="http://www.w3.org/2000/svg" viewBox="0 0 1000 1000">
  <title>EH-Artboard 1</title>
  <path d="M246.53,360.08q-52,48.48-79.2,48.47-5.37,0-18.46-4,40.94-19.78,85.58-52.35-13.23-12.75-13.23-22.48,0-17.44,19-40.78T276,265.59q16.71,0,16.7,14.42,0,24.81-22.53,54.32l10.27,10.06-11.75,33.2A234.47,234.47,0,0,1,246.53,360.08Zm131.46-69q22.54,0,42.73-29.07,12.11,8.61,19.84,8.6,24.22,0,40-29.19,11.76-21.48,15.14-50.34l-10.41,3q-13.43,40.95-32.88,40.94-12.76,0-12.76-24.5l-8.05,2q-25.51,44.63-41.28,44.63-11.75,0-11.74-15.77l1-10.41-11.74,6.38q-9.4,25.56-9.4,34.71Q358.48,291.1,378,291.09ZM504.13,158.54l-95.65,33.55Q386,199.82,371.23,223L481,184Q494.4,179.35,504.13,158.54ZM615.39,368.62q-10.71,12.08-25.41,93-14,74.84-14,102l.67,4.37,3,1q3.64,0,9-28.19,12.62-65.43,18.93-98.32Q640,515.93,640,567.62q0,67.15-80.75,133.67l.21-.77q-24.16,20.81-45.31,20.8-27.86,0-27.85-40.27,0-175.5-3.35-233.57l-3-1.34q-5.28,5-11.9,25.34t-6.6,29q0,17.12,1.65,50.85t1.66,50.84q0,39.6-10.46,58.73-8.78,16.79-42.19,44.29l0,.09A70.52,70.52,0,0,1,381,712.93q-19.45,0-32.72-21.31t-25-21.31q-17.79,0-52.18,27.26t-41.45,44.89a247.85,247.85,0,0,0-14.43,53.36q19.47-17.12,38.93-34.56Q283,738.1,297.74,738.1q9.06,0,27.85,17.62t36.92,17.62a97.54,97.54,0,0,0,39.26-7.72l.91-3.45q36.42-29.07,59.5-80.37l-.34,32.88q-1,66,35.24,66,21.33,0,40.77-13.38l-.16.63q69.79-48.33,98.66-122.16,23.82-61.74,23.83-156.38,0-27.51-12.37-65.44Q633.77,380,615.39,368.62ZM726,204.51,620.58,257.2Q594.41,270.3,589,291.09l117.46-57.72Q718.9,227.34,726,204.51ZM825,482.05q-24.09-76.18-61.55-141.62-20.76,62.42-20.75,186.92,0,67.13,10.94,69.13,7.62-3.69,7.62-38.59,0-18.79,8.63-83.23,16.86,31.89,36.45,85.58,22.27,61.41,22.27,86.58,0,35.23-21.14,69.8-12.42,20.48-46,58.06l-29.19,30.54q-17.12,18.46-24.5,33.56.33,2.69,3.35,2.68t14.06-4q78.35-28.53,104.13-75.51,21.75-39.27,21.76-128.53Q851.13,565.62,825,482.05ZM732,315.26q0-10.06-12.08-10.07-16.78,0-16.78-4.7,0-8.39,10.07-8.39a16.41,16.41,0,0,1,6.71,1.34q3.36-2.32,9.57-14.12t7.21-16.78c-3.38-1.54-5.85-2.32-7.42-2.32q-14.19,0-32.74,24.5T678,323.65q0,13.08,13.27,12.75c7-.22,10.88.33,11.56,1.68q-5.37,7.38-35.24,18.45l-40.94,14.1c0,2.68,1.45,4,4.36,4q28.2,0,61.75-15.78Q732,340.1,732,315.26Z"/>
</svg>
