<svg id="Layer_2" data-name="Layer 2" xmlns="http://www.w3.org/2000/svg" viewBox="0 0 1000 1000">
  <title>EH-Artboard 2</title>
  <path d="M115,291q0,19.85-18,43.44l8.21,8-9.39,26.55a187.37,187.37,0,0,1-17.72-14q-41.6,38.76-63.33,38.76-4.29,0-14.76-3.22,32.74-15.84,68.43-41.87-10.58-10.19-10.58-18,0-14,15.23-32.61t28.58-18.65Q115,279.5,115,291ZM93.54,314.69q0-12.37-10.62-12.38l-4.09,1.62a12,12,0,0,0-3,8.07q0,5.38,12.81,15.88Q93.54,319.54,93.54,314.69ZM288.63,559.92l-13.69,50.86q-27.1,20.28-44,18.91l-5.09,23.69q-9.37,43.62-43.67,87.5Q143.05,791,104.2,791q-49,0-49-59.41,0-34.39,25.77-92.47-34.62,1.35-55,35.15l-1.61.54-1.61-1.62q0-26.91,22.54-54.37,23.61-29.07,49.67-29.08,11.83,0,11.83,10.49,0,10.21-14.92,44.62T76.91,697q0,20.16,12,32.39T121,741.59q24.47,0,53.24-27.37,27.15-25.77,33.61-50.72a130.27,130.27,0,0,0,4.57-32.2q0-17.17-13.18-30.32-.53-17.72,20.78-48.84,8,3.5,19.77,34.34Q258.84,586.48,288.63,559.92ZM350.35,257.5q-5.64,18.25-15.57,23.08l-93.92,46.15q4.29-16.64,25.23-27.1Zm67.89,303.22-13.69,51a39.64,39.64,0,0,1-21.2,6.14q-19.05,0-30.05-16.81Q330.76,629,325.12,629q-6.18,0-18.25-14.22-11.26-13.14-13.41-20.62-6.18,8.28-23.08,19.75l13.42-49.94q12.33-11.54,37-34.34,2.67,0,26.56,20.12t40.79,20.13A51.42,51.42,0,0,0,418.24,560.72Zm29.51-290.88q0,20.94-16.56,38.91t-37.56,18q-22.1,0-22.08-19.32,0-21.74,15.34-42.13Q403.59,243,424.6,243q9.42,0,16.69,8.85A28.73,28.73,0,0,1,447.75,269.84Zm-17.44,17.78q0-6.54-8.77-14.17t-15.25-7.63q-8.1,0-14.72,7.36T385,288.71q0,11.73,21.06,11.72Q430.3,300.43,430.31,287.62ZM614.39,410.18q0,6.45-3.62,21.2T604.2,450.7A313.94,313.94,0,0,0,517.79,506q-36.5,36.22-72.72,72.45v6.44q-.27,9.68,5.9,66.55V653a4.59,4.59,0,0,1-1.61,3.22l-1.87-.8a475.2,475.2,0,0,1-12.62-67.89,288.41,288.41,0,0,1-33,26l13.68-50.45,16.91-14.22-.27-15.3q0-5.1,5.21-35.15,7.39-42.14,25.11-59.3,19.32-19.05,60.92-19.06a124.66,124.66,0,0,1,15.83,1.48,122.65,122.65,0,0,0,15.83,1.48q32.74,0,59-15.84ZM525,463.58q-32.47.54-44.55,4.57-21.19,6.71-30.59,30.05-6.7,16.64-6.71,31.93v10.2q13.95-11.26,40.79-38.64Q509.73,475.4,525,463.58ZM658.67,313.85Q656,336.94,646.56,354.1q-12.63,23.36-32,23.35-6.18,0-15.87-6.88-16.12,23.25-34.16,23.25-15.6,0-15.6-15.18,0-7.32,7.51-27.76l9.39-5.1-.8,8.32q0,12.61,9.39,12.61,12.62,0,33-35.69l6.44-1.61q0,19.6,10.19,19.59,15.57,0,26.3-32.73Zm6.71-26q-7.78,16.64-18.52,20.4l-87.74,31.12q11.8-18.51,29.78-24.68ZM766.54,560.19,752.59,612q-33.27,19.32-46.42,28.17-31.39,20.94-38.38,34.62-21.46,46.43-42.93,92.58-31.14,59-64.94,70.36-25.75,8.79-56.62,8.8-62,0-79.7-10.45l-.8-1.36,2.14-2.41a180.08,180.08,0,0,0,35.16,3.22q49.36,0,93.38-31.67,38.91-28.44,65.74-75.13,1.88-3.5,25.5-50.45,15.28-30.6,29.65-47.9t45.48-36.63Q754.47,572.26,766.54,560.19ZM847.31,391.4q0,75.68-19,125.05-23.09,59-78.89,97.67l13.42-50.18q68.41-54.74,68.42-110,0-41.31-26-100.09-5,26.31-15.13,78.63Q785.79,455,782.88,455l-2.39-.81L780,450.7q0-21.74,11.23-81.57,11.76-64.67,20.31-74.33,14.7,9.12,25.92,44.27Q847.31,369.4,847.31,391.4Zm52.6-227.82q-5.64,18.25-15.57,23.08l-93.91,46.15q4.27-16.63,25.22-27.1ZM908.5,210q-.81,4-5.77,13.41t-7.65,11.3a13.17,13.17,0,0,0-5.37-1.07q-8.06,0-8.05,6.7,0,3.77,13.42,3.76,9.66,0,9.66,8,0,19.86-31.4,34.89Q846.51,299.64,824,299.63c-2.32,0-3.48-1.08-3.48-3.22l32.73-11.27q23.88-8.86,28.18-14.76-.82-1.61-9.25-1.34-10.6.27-10.6-10.2,0-11.53,14.84-31.13t26.18-19.59C903.82,208.12,905.79,208.75,908.5,210ZM1000,506.52q0,71.38-17.4,102.77Q962,646.87,899.34,669.67q-8.83,3.23-11.24,3.22c-1.61,0-2.51-.71-2.68-2.15q5.9-12.07,19.59-26.83l23.34-24.42q26.83-30,36.77-46.42Q982,545.42,982,517.25q0-20.12-17.81-69.23-15.66-42.93-29.15-68.43-6.9,51.53-6.89,66.55,0,27.92-6.1,30.86-8.75-1.61-8.74-55.28,0-99.54,16.58-149.46A576.92,576.92,0,0,1,979.13,385.5Q1000,452.31,1000,506.52Z"/>
</svg>
