<svg xmlns="http://www.w3.org/2000/svg" viewBox="0 0 789.55 720.46">
  <title>EH-Asset 34-layername</title>
  <g id="Layer_2" data-name="Layer 2">
    <g id="ElAzim">
      <g>
        <path d="M154.3,68.11q0,18-16.4,39.52l7.47,7.31-8.54,24.16a168.32,168.32,0,0,1-16.12-12.74q-37.84,35.27-57.62,35.26-3.92,0-13.43-2.93,29.79-14.4,62.26-38.08-9.63-9.28-9.63-16.36,0-12.69,13.86-29.67t26-17Q154.3,57.62,154.3,68.11ZM134.77,89.63q0-11.25-9.67-11.26l-3.72,1.47a10.94,10.94,0,0,0-2.73,7.34q0,4.91,11.65,14.45Q134.77,94,134.77,89.63Z"/>
        <path d="M222.9,374.76l-12.21,45.65Q182.61,438,154.54,455.32,116,481.93,116,494.38c0,1.8,1,2.69,2.93,2.69q7.32,0,22-15.62,10-10.74,19.77-21.73c1.14.81,1.71,2.19,1.71,4.15q0,3.42-3.66,19-4.63,20-5.13,21.48a64.28,64.28,0,0,1-10.49,19.29q-10.5,13.67-46.44,39.55-41.11,29.53-55.31,43.7Q14.65,633.3,14.65,657q0,23.92,39.55,37.36,32.46,11.22,73.24,11.23,66.9,0,89.36-2.2l.49,1.22q0,7-40.29,12-31.25,3.84-52,3.84-125,0-125-63.23,0-29.06,23.73-65.43,21.29-32.47,48.2-52l30.09-22a41.31,41.31,0,0,1-1.92-12.94q0-19,14.91-44.67,14.86-24.66,31.47-35.41Q197.27,392.34,222.9,374.76Z"/>
        <path d="M354.49,576.66q-5.13,16.61-14.16,21l-85.45,42q3.9-15.15,22.95-24.66Z"/>
        <path d="M518.07,98.63q-5.13,16.61-14.16,21l-85.45,42q3.9-15.13,23-24.66Z"/>
        <path d="M578.13,372.8l-12.7,47.31q-21.24,13.72-40.28,13.73-30.15,0-42.48-45.17-23.09,24.56-37.07,34.12l12.27-45.31,8.1-8.32a16.94,16.94,0,0,0-12.27-5.39q-12,0-15.71,1.46,0-6.8,8.3-28.43a136.16,136.16,0,0,1,7.81-16q8.79-9.48,49.56-9.48,28.57,0,28.57,15.58,0,14.11-24.17,40.4,6.59,25.56,27.83,25.56Q555.42,392.82,578.13,372.8Z"/>
        <path d="M603.52,24.41q0,19-15.07,35.4T554.27,76.17q-20.1,0-20.09-17.58,0-19.77,14-38.33Q563.33,0,582.45,0,591,0,597.64,8.06A26.16,26.16,0,0,1,603.52,24.41ZM587.65,40.59q0-5.94-8-12.9t-13.87-6.94q-7.37,0-13.39,6.7t-6,14.13q0,10.67,19.15,10.67Q587.65,52.25,587.65,40.59Z"/>
        <path d="M650.63,220.46q0,68.85-17.33,113.77-21,53.72-71.78,88.87l12.21-45.66Q636,327.64,636,277.34q0-37.59-23.69-91.06-4.57,23.92-13.77,71.53-3.85,20.51-6.52,20.51l-2.17-.73-.48-3.18q0-19.77,10.21-74.21,10.7-58.84,18.48-67.63,13.37,8.3,23.59,40.28Q650.63,200.45,650.63,220.46Z"/>
        <path d="M698.49,13.18q-5.13,16.61-14.16,21l-85.45,42q3.9-15.14,23-24.66Z"/>
        <path d="M201.42,486.57q-15.88,32.24-15.63,39.8,14.36-7.57,21.41-11.72,29.93-17.08,33.82-21,9-9,15.33-36.62-28.94,17.58-36.46,20.75Q205.79,483.89,201.42,486.57Z"/>
        <path d="M297.22,374.7l.25-.92q-9.77,9.77-25.64,18.31-17.82,9.29-29.54,9.28-10,0-14.16-2.69,18.94-26.12,18.94-43.94a42.43,42.43,0,0,0-.73-8.3q-13.6,15.62-26.71,30.76l-12.14,45.32,6.55-5.17q9.72,18,30.69,17.95,18.47,0,37.55-13.07l12.15-45Z"/>
        <path d="M443.6,148q0-7.83-22.21-16.62-16.61,22-22.46,34.7l21.72,15.15Q431.89,169.54,443.6,148Z"/>
        <path d="M406.25,397.46q-18.56,0-33-6.1-19-8.06-19-23.93,32.13-28.56,42.11-40.28,17.52-20.5,30.19-50.29,11.19-26.61,11.19-30.28,0-8.54-10.49-8.54-15.63,0-48.59,17.74-28.56,15.54-44.92,29.4,16.78-70.23,16.79-98.76,0-59-19.23-79.25-6.6-7.07-9.77-7.32-15.87,8.79-29.54,43.91-11.24,28.53-14.4,53.17l2.2,2.19,1.95-1.47q22.71-57.75,30.52-58,21.24,11,21.24,86.21,0,37.37-29.79,142.86l-6.49,6L285,420.3c-.91.67-1.82,1.31-2.73,1.93l0,.22q11.72-8,17.82-12.62l1.51,18.93,1.51,1a93.68,93.68,0,0,0,5-25.31q20.58-15.57,31.49-24.57,4.22,24.31,19.53,39.4,16.11,16.31,40,16.3,26.11,0,50.05-15.33L461.67,374q-9.29,9.3-25.88,16.39T406.25,397.46ZM313.67,362l10-36.94q15.39-15.17,42.26-31.07,31-18.11,47.39-18.1l1.71,2.69q-.24,11.74-43.72,43.79Z"/>
        <path d="M297.22,374.7l-2.79,2.57-12.15,45c.91-.62,1.82-1.26,2.73-1.93Z"/>
        <path d="M770.57,215.09a525.38,525.38,0,0,0-44.79-103q-15.09,45.41-15.09,136,0,48.82,8,50.29,5.55-2.68,5.55-28.08,0-13.67,6.27-60.54Q742.74,232.91,757,272q16.2,44.68,16.2,63,0,25.64-15.38,50.78-9,14.89-33.44,42.24L703.13,450.2q-12.46,13.43-17.83,24.41a2.12,2.12,0,0,0,2.44,1.95q2.19,0,10.23-2.93,57-20.75,75.75-54.93,15.82-28.56,15.83-93.5Q789.55,275.88,770.57,215.09Z"/>
        <path d="M702.88,93.75q0-7.32-8.79-7.32-12.21,0-12.21-3.42,0-6.11,7.33-6.11a11.88,11.88,0,0,1,4.88,1q2.45-1.69,7-10.28t5.25-12.2a15.25,15.25,0,0,0-5.4-1.69q-10.32,0-23.82,17.82T663.57,99.85q0,9.53,9.66,9.28,7.66-.24,8.41,1.22-3.92,5.37-25.64,13.43L626.22,134c0,2,1,2.93,3.17,2.93q20.5,0,44.92-11.47Q702.89,111.82,702.88,93.75Z"/>
      </g>
    </g>
  </g>
</svg>
