<svg xmlns="http://www.w3.org/2000/svg" viewBox="0 0 985.6 625">
  <title>EH-Asset 36-layername</title>
  <g id="Layer_2" data-name="Layer 2">
    <g id="EsShekur">
      <g>
        <path d="M146.24,157q0,18.06-16.4,39.53l7.48,7.31L128.77,228a170.66,170.66,0,0,1-16.12-12.73Q74.81,250.5,55,250.49q-3.9,0-13.43-2.93,29.79-14.4,62.26-38.09-9.63-9.27-9.62-16.35,0-12.7,13.85-29.67t26-17Q146.24,146.48,146.24,157ZM126.71,178.5q0-11.26-9.67-11.26l-3.72,1.47a10.93,10.93,0,0,0-2.72,7.34q0,4.9,11.65,14.45Q126.71,182.91,126.71,178.5Z"/>
        <path d="M268.55,325.34q0,26.24-8.05,27.69L253.91,345q-6.84.24-11.23,8.07-12,20.77-25.39,54.26-11,28.11-22,56-9.27,22-28.56,43.51-20.5,23-40.77,32-23,10.5-63.24,10.51Q2,549.32,0,543l2.44-1.76q51.27,0,95.22-22,45.65-22.92,73.24-64.63,14.88-22.68,32-60.24l22.46-50.24q19-37.8,29.54-37.8,5.87,0,10,6.8A22.49,22.49,0,0,1,268.55,325.34Z"/>
        <path d="M499,401.61,486.57,448q-15.63,12.47-56.39,29.82-8.18,36.44-39.07,78-32.22,43.5-64.45,57.45Q299.55,625,258.54,625q-15.62,0-46.38-5.19-36.63-5.94-37.84-12.61l2-1.49q7.32.24,23.19,2.93,15.15,2.45,23.44,2.44,16.85,0,49.32-9.52,70.54-20.74,122.31-81.78,18.06-21.24,20.51-37.11-21.24,5.85-28.57,5.86-22.22,0-22.21-14.65,0-15.39,12.45-38.82,13.92-26.13,27.59-26.12,11.94,0,21.35,9.27t9.41,21.24Q476.07,422.13,499,401.61Z"/>
        <path d="M550.54,10.49q0,18.06-16.4,39.52l7.47,7.32-8.54,24.15A169.73,169.73,0,0,1,517,68.75Q479.11,104,459.33,104q-3.91,0-13.43-2.93Q475.69,86.67,508.16,63q-9.63-9.29-9.62-16.36,0-12.69,13.85-29.66t26-17Q550.54,0,550.54,10.49ZM531,32q0-11.26-9.67-11.27l-3.72,1.47a11,11,0,0,0-2.73,7.35q0,4.89,11.65,14.44C529.52,39,531,35,531,32Z"/>
        <path d="M680.42,29.54l-3.17,1.95q-35.41,66.66-47.37,86.43-29,47.37-60.52,76.9-49.05,37.85-74.91,54l2.93,1q25.86-5.37,64.66-36.87,33.91-27.1,54.42-53.47-.5,18.81,1.95,29.54L622.8,186q2-42.24,59.82-155.28Z"/>
        <path d="M546.14,411.38q-4.89-6.84-5.86-26.61-1-19-1.46-74.47-.26-46.62-2.93-74.46l-2.16-1q-3.13,3.18-8.18,17.22t-5,18.92q0,10.25,1.2,30.51T522.92,332q0,27.84-7.86,41.75-6.37,11.72-30.2,31.49l-12.2,45.49q30.15-21.48,48.58-62.5,1,39.06,3.65,48.83,7.3,27,34.1,27,25.82,0,48.71-16l12.42-46.23q-22.47,19.27-48.34,19.28Q553,421.14,546.14,411.38Z"/>
        <path d="M682.86,7.57,613.28,32q-16.35,5.62-27.1,22.46L666,26.12Q675.77,22.72,682.86,7.57Z"/>
        <path d="M645.26,63.23q-9.27,0-9.27-17.82l-5.86,1.47q-18.55,32.46-30,32.47-8.55,0-8.55-11.48l.74-7.57-8.55,4.64q-6.84,18.6-6.84,25.25,0,13.82,14.2,13.81,16.39,0,31.08-21.15,8.82,6.25,14.44,6.26,17.63,0,29.13-21.24,8.55-15.62,11-36.62l-7.57,2.2Q659.43,63.24,645.26,63.23Z"/>
        <path d="M714.81,198.24a13.33,13.33,0,0,1,8.57,3.17l1,3.9,2.66,3.17q5.33,0,14.88-13.24t9.55-19.39q0-15.21-14.89-15.21-23,0-53.22,39.13-29.05,37.41-30,62.36Q689.08,198.25,714.81,198.24Z"/>
        <path d="M716.8,425.54q-31.5,0-33.94-26.59,16.35-10.24,28.32-37.81,11-25.36,11-46.59v-4.87L721,308.21q-1,.5-9.77,19-9.54,19.51-18.57,26.09-8.05,5.85-10.5,5.85,1.49-9.51,1.48-11.21l-.49-11.22-1.47-1.46q-4.43,3.9-5.4,7.55-4.9,16.11-7.12,20.25-3.68,6.57-14.23,16.57-12.28,11.72-17.67,11.71a201.94,201.94,0,0,0,1.95-20.48l-1.93-.74q-3.87,3.92-9.18,17.86-4.83,12.47-11.11,16.38l-12.45,46a154.58,154.58,0,0,0,15.37-12.78q12.63,1.47,27.71-10.19a85.4,85.4,0,0,0,20.18-23.09l5.35-1a72.26,72.26,0,0,0-.74,10.26q0,20.26,11.23,33.95,12.21,14.65,32.72,14.65,26.37,0,44.19-13.2l12.69-47.15Q746.34,425.54,716.8,425.54Z"/>
        <path d="M846.68,248.29q0,68.85-17.33,113.77-21,53.71-71.78,88.87l12.21-45.66Q832,355.47,832,305.18q0-37.6-23.68-91.07-4.59,23.92-13.77,71.53-3.87,20.52-6.52,20.51l-2.18-.73-.48-3.17q0-19.78,10.21-74.22,10.71-58.84,18.48-67.63,13.38,8.31,23.59,40.28Q846.68,228.28,846.68,248.29Z"/>
        <path d="M985.6,353q0,64.94-15.64,93.5-18.8,34.19-75.92,54.93-8.06,2.94-10.25,2.93c-1.47,0-2.28-.64-2.44-1.95q5.37-11,17.82-24.41l21.24-22.22q24.4-27.35,33.45-42.24,15.38-25.14,15.38-50.78,0-18.3-16.21-63-14.24-39-26.52-62.25-6.27,46.88-6.27,60.55,0,25.39-5.54,28.07-8-1.46-8-50.29,0-90.57,15.09-136a525.35,525.35,0,0,1,44.78,103Q985.6,303.71,985.6,353Z"/>
      </g>
    </g>
  </g>
</svg>
