<svg xmlns="http://www.w3.org/2000/svg" viewBox="0 0 923 667.48">
  <title>EH-Asset 39-layername</title>
  <g id="Layer_2" data-name="Layer 2">
    <g id="ElHafiz">
      <g>
        <path d="M104.64,10.49q0,18.06-16.4,39.52l7.47,7.32L87.17,81.48A171,171,0,0,1,71.05,68.75Q33.21,104,13.43,104,9.52,104,0,101.07,29.79,86.67,62.26,63q-9.63-9.29-9.62-16.36,0-12.69,13.85-29.66t26-17Q104.64,0,104.64,10.49ZM85.11,32q0-11.26-9.67-11.27l-3.72,1.47A11,11,0,0,0,69,29.57Q69,34.46,80.64,44C83.62,39,85.11,35,85.11,32Z"/>
        <path d="M261.3,276.61q3.4-5.37,10-17.58,0-7.56-22.47-16.35L226.63,277.1l22,14.89Q254.71,286.86,261.3,276.61Z"/>
        <path d="M254.49,430.66q-36.75,20.52-49,23.93,37.31-31.74,51.45-82.52,4.88-17.58,4.87-23.68,0-9-1.94-14.16-15.33,0-68.61,31,4.81-8.06,12.54-42.48,7.47-33.44,7.48-44.92a484.74,484.74,0,0,0-4.4-61.77q-6.1-44.67-16.36-58.35Q170.8,193.6,153.22,260,140,314.21,127.1,368.16l.5,2.2q5.76-1.47,9-10c1.62-6.18,2.77-10.9,3.42-14.16Q157.62,281,175.19,225.83q5.37,9.53,11,42,5.13,29.79,5.13,44.44,0,26.85-13.5,65.67-19.14,22.47-36.31,88.38Q104.39,485,75.1,490.18q-33.21,4.92-50.79,7.13-6.1,1.76-8,5.5l1,2.24a195.78,195.78,0,0,0,36.63,3.25q43.44,0,77.39-5.61l-5.13,22,1.95,1.22q8.46-14.65,11.23-24.9,111.4-25.83,149.25-53.23L301,401.61Q291.24,410.16,254.49,430.66Zm-73.44-20.14q13.42-12.07,53.23-24-8.31,40-80.57,73.74Q167.63,422.61,181.05,410.52Z"/>
        <path d="M278.71,514.4q-15.87,32.24-15.63,39.8,14.35-7.56,21.42-11.72,29.91-17.09,33.81-21,9-9,15.33-36.62-28.92,17.58-36.46,20.76Q283.08,511.73,278.71,514.4Z"/>
        <path d="M349.13,419.92q-17.83,9.29-29.55,9.28-10,0-14.16-2.69,18.94-26.11,18.94-43.94a43.27,43.27,0,0,0-.72-8.3Q310,389.9,296.92,405l-12.14,45.32,6.56-5.17q9.71,18,30.69,17.95,19.77,0,40.28-15l12.45-46.53Q365,411.38,349.13,419.92Z"/>
        <path d="M431.79,604.49q-5.13,16.6-14.16,21l-85.45,42q3.9-15.13,22.95-24.66Z"/>
        <path d="M441.8,240.23q0-3.66-9.76-9.76-4.38-2.68-12.67-6.84l-22.18,34.43,21.69,15.13Q429.13,265.39,441.8,240.23Z"/>
        <path d="M447,421.39q-30.24,0-38.76-12.45,33.54-38.58,33.55-62.26,0-31-14.12-31-6.81,0-20.43,10.76t-25.31,31.29q-12.4,22-12.41,37.65a42.21,42.21,0,0,0,1,9.29l-12.45,46.93a310.24,310.24,0,0,0,27.83-22.34q14.88,17.43,23.43,23.81a51.87,51.87,0,0,0,31.25,10.32A93,93,0,0,0,492.33,448L505,400.71Q478.21,421.38,447,421.39Zm-53-31.15q-8.36-9.72-8.36-15.57,0-4.38,11.06-14.11t15.72-9.73q12.76,0,12.77,9.49Q425.19,374.18,394,390.24Z"/>
        <path d="M561.42,126.46q-5.11,16.62-14.16,21l-85.45,42q3.92-15.13,22.95-24.66Z"/>
        <path d="M710.56,402.29l-12.45,46.49q-30,18.51-59.81,18.51-25.89,0-42-19Q581,430.23,581,404.13q0-12.44,4.38-31.95Q553,396.87,516,429.12q-7.56,38.58-6.59,64.95l-2.19,4.15L506,499l-1.22-1.22V467.21l2-30.27q-5.87,4.6-17.58,13.35l12.45-45.86,9-8.53q11.76-54.4,22-73.42,20.07-37.08,61.2-37.08,10.75,0,31.63,6.19t31.86,6.19A76.72,76.72,0,0,0,689.6,291q-4.4,23.44-15.63,39.32-49.32,10-75.44,33.21a112.67,112.67,0,0,0-1.74,19.78q0,18.81,13.92,30.28,12.94,10.74,32,10.75Q682.49,424.32,710.56,402.29ZM603.9,330.09q-20.5-4.89-28.32-4.89-44.67,0-54.44,62.65,28.8-23.75,39.55-31.57Q583.64,339.39,603.9,330.09Z"/>
        <path d="M737,52.25q0,19-15.07,35.4T687.72,104q-20.1,0-20.09-17.57,0-19.79,14-38.33,15.2-20.26,34.3-20.27,8.58,0,15.19,8.06A26.15,26.15,0,0,1,737,52.25ZM721.09,68.42q0-5.94-8-12.89t-13.88-7q-7.37,0-13.38,6.7t-6,14.14q0,10.67,19.16,10.66Q721.09,80.08,721.09,68.42Z"/>
        <path d="M784.08,248.29q0,68.85-17.33,113.77-21,53.71-71.78,88.87l12.21-45.66q62.25-49.8,62.25-100.09,0-37.6-23.68-91.07Q741.16,238,732,285.64q-3.87,20.52-6.52,20.51l-2.17-.73-.49-3.17q0-19.78,10.21-74.22,10.71-58.84,18.49-67.63,13.37,8.31,23.58,40.28Q784.08,228.28,784.08,248.29Z"/>
        <path d="M831.93,41q-5.13,16.6-14.16,21l-85.45,42q3.9-15.14,22.95-24.65Z"/>
        <path d="M836.33,121.58q0-7.32-8.79-7.32-12.21,0-12.21-3.42,0-6.11,7.32-6.1a12,12,0,0,1,4.89,1q2.43-1.69,7-10.27t5.24-12.21a15.14,15.14,0,0,0-5.4-1.69q-10.3,0-23.82,17.83T797,127.69q0,9.51,9.65,9.27c5.11-.16,7.92.25,8.41,1.22q-3.9,5.38-25.63,13.43l-29.79,10.26q0,2.92,3.18,2.92,20.5,0,44.92-11.47Q836.32,139.66,836.33,121.58Z"/>
        <path d="M904,242.92a525.35,525.35,0,0,0-44.78-103q-15.09,45.42-15.09,136,0,48.83,8,50.29,5.53-2.69,5.54-28.07,0-13.68,6.27-60.55,12.29,23.19,26.52,62.25,16.22,44.68,16.21,63,0,25.63-15.38,50.78-9,14.9-33.45,42.24L836.57,478q-12.45,13.43-17.82,24.41c.16,1.31,1,1.95,2.44,1.95s4.86-1,10.22-2.93q57-20.74,75.76-54.93Q923,418,923,353,923,303.71,904,242.92Z"/>
      </g>
    </g>
  </g>
</svg>
