<svg xmlns="http://www.w3.org/2000/svg" viewBox="0 0 932.41 707.28">
  <title>EH-Asset 3-layername</title>
  <g id="Layer_2" data-name="Layer 2">
    <g id="ArRahim">
      <g>
        <path d="M154.3,54.92q0,18.06-16.4,39.52l7.47,7.32-8.54,24.15a168.14,168.14,0,0,1-16.12-12.73q-37.84,35.25-57.62,35.26-3.92,0-13.43-2.93,29.79-14.4,62.26-38.09-9.63-9.27-9.63-16.36,0-12.69,13.86-29.66t26-17Q154.3,44.43,154.3,54.92ZM134.77,76.45q0-11.26-9.67-11.26l-3.72,1.46A11,11,0,0,0,118.65,74q0,4.91,11.65,14.45Q134.77,80.86,134.77,76.45Z"/>
        <path d="M222.9,361.57l-12.21,45.66q-28.08,17.58-56.15,34.91Q116,468.75,116,481.2c0,1.79,1,2.69,2.93,2.69q7.32,0,22-15.63,10-10.74,19.77-21.73c1.14.82,1.71,2.2,1.71,4.15q0,3.42-3.66,19.05-4.63,20-5.13,21.48a64.4,64.4,0,0,1-10.49,19.29q-10.5,13.66-46.44,39.55-41.11,29.54-55.31,43.7-26.67,26.37-26.67,50,0,23.93,39.55,37.35,32.46,11.24,73.24,11.23,66.9,0,89.36-2.19l.49,1.22q0,7-40.29,12-31.25,3.84-52,3.85Q0,707.28,0,644,0,615,23.73,578.61q21.29-32.46,48.2-52l30.09-22a41.4,41.4,0,0,1-1.92-12.94q0-19.05,14.91-44.68,14.86-24.66,31.47-35.4Q197.27,379.16,222.9,361.57Z"/>
        <path d="M271.83,378.91q-17.82,9.27-29.54,9.27-10,0-14.16-2.68,18.94-26.13,18.94-43.95a42.43,42.43,0,0,0-.73-8.3q-13.6,15.63-26.71,30.76l-12.14,45.32,6.55-5.16q9.72,18,30.69,17.95,19.79,0,40.28-15l12.46-46.52Q287.7,370.37,271.83,378.91Z"/>
        <path d="M201.42,473.39q-15.88,32.22-15.63,39.79,14.36-7.56,21.41-11.72,29.93-17.08,33.82-21,9-9,15.33-36.62-28.94,17.58-36.46,20.75Q205.79,470.71,201.42,473.39Z"/>
        <path d="M354.49,587.89q-5.13,16.61-14.16,21l-85.45,42q3.9-15.14,22.95-24.66Z"/>
        <path d="M475.59,224.37q0,5.85-3.3,19.28t-6,17.58a285.68,285.68,0,0,0-78.61,50.29q-33.21,33-66.17,65.92v5.86q-.24,8.79,5.37,60.55v1.46a4.18,4.18,0,0,1-1.46,2.93l-1.71-.73a433.37,433.37,0,0,1-11.47-61.77,264.18,264.18,0,0,1-30,23.68l12.45-45.89,15.38-12.94-.25-13.92q0-4.64,4.74-32,6.74-38.32,22.85-54Q355,233.41,392.82,233.4a113.34,113.34,0,0,1,14.41,1.34,111.23,111.23,0,0,0,14.4,1.34q29.79,0,53.71-14.4ZM394.29,273q-29.55.49-40.53,4.15-19.29,6.11-27.83,27.34a77.65,77.65,0,0,0-6.11,29.06v9.27q12.71-10.25,37.11-35.15Q380.38,283.7,394.29,273Z"/>
        <path d="M522,113l-69.58,24.41q-16.35,5.63-27.1,22.46l79.84-28.32Q514.88,128.17,522,113Z"/>
        <path d="M484.38,168.7q-9.28,0-9.28-17.82l-5.86,1.46q-18.56,32.47-30,32.47-8.55,0-8.55-11.47l.74-7.57-8.55,4.64Q416,189,416,195.66q0,13.82,14.19,13.81,16.4,0,31.08-21.15,8.82,6.26,14.44,6.26,17.63,0,29.13-21.24,8.55-15.61,11-36.62l-7.57,2.2Q498.54,168.71,484.38,168.7Z"/>
        <path d="M614,360.84,601.32,408Q571,425.54,559.08,433.59q-28.56,19.05-34.91,31.5-19.53,42.24-39.06,84.23-28.33,53.7-59.08,64-23.44,8-51.52,8-56.4,0-72.51-9.51l-.73-1.23,2-2.2a163.57,163.57,0,0,0,32,2.93q44.91,0,85-28.81,35.38-25.87,59.81-68.36,1.71-3.17,23.19-45.9,13.92-27.83,27-43.58t41.38-33.32Q603,371.83,614,360.84Z"/>
        <path d="M687.5,207.28q0,68.84-17.33,113.76-21,53.71-71.78,88.87l12.21-45.65q62.25-49.81,62.25-100.1,0-37.59-23.68-91.06Q644.58,197,635.4,244.63q-3.87,20.5-6.52,20.51l-2.17-.74-.49-3.17q0-19.77,10.21-74.22,10.71-58.83,18.49-67.63,13.37,8.31,23.58,40.29Q687.5,187.26,687.5,207.28Z"/>
        <path d="M841.35,0q-5.13,16.61-14.16,21L741.74,63q3.9-15.14,23-24.66Z"/>
        <path d="M845.74,80.57q0-7.33-8.79-7.33c-8.14,0-12.2-1.13-12.2-3.42q0-6.09,7.32-6.1a11.88,11.88,0,0,1,4.88,1q2.44-1.71,7-10.28t5.25-12.2a15,15,0,0,0-5.4-1.69q-10.32,0-23.82,17.82T806.43,86.67q0,9.52,9.66,9.28c5.11-.16,7.91.24,8.41,1.22q-3.91,5.37-25.64,13.43l-29.78,10.25c0,2,1,2.93,3.17,2.93q20.5,0,44.92-11.48Q845.75,98.64,845.74,80.57Z"/>
        <path d="M913.43,201.9a525,525,0,0,0-44.79-103q-15.09,45.41-15.09,136,0,48.84,8,50.3,5.55-2.69,5.55-28.08,0-13.66,6.27-60.55,12.27,23.21,26.52,62.26,16.2,44.67,16.2,63,0,25.64-15.38,50.78-9,14.9-33.44,42.23-10.5,11-21.24,22.22-12.47,13.42-17.83,24.42a2.12,2.12,0,0,0,2.44,1.95q2.19,0,10.23-2.93,57-20.74,75.75-54.93,15.82-28.57,15.83-93.51Q932.41,262.71,913.43,201.9Z"/>
      </g>
    </g>
  </g>
</svg>
