<svg xmlns="http://www.w3.org/2000/svg" viewBox="0 0 987.69 639.65">
  <title>EH-Asset 40-layername</title>
  <g id="Layer_2" data-name="Layer 2">
    <g id="ElMukit">
      <g>
        <path d="M104.64,68.11q0,18-16.4,39.52l7.47,7.31L87.17,139.1a169.58,169.58,0,0,1-16.12-12.74q-37.84,35.27-57.62,35.26-3.91,0-13.43-2.93,29.79-14.4,62.26-38.08-9.63-9.28-9.62-16.36,0-12.69,13.85-29.67t26-17Q104.64,57.62,104.64,68.11ZM85.11,89.63q0-11.25-9.67-11.26l-3.72,1.47A10.94,10.94,0,0,0,69,87.18q0,4.91,11.65,14.45Q85.11,94,85.11,89.63Z"/>
        <path d="M327.54,197.75q2.68-13.91,4.15-18.55A444.45,444.45,0,0,1,276,209q-15.61,31-15.13,39.8Q323.88,217.78,327.54,197.75Z"/>
        <path d="M414.94,392.09a27,27,0,0,1-17.46-6.2,19.32,19.32,0,0,1-7.69-15.68q0-6.33,4.52-18t4.76-17.75l-1-2.43-3.9.49-113,105.38Q208.4,501.71,143,501.71q-35.16,0-63-27.22T52.15,412.11a90.69,90.69,0,0,1,6.58-33.69q35.63-89.12,183.94-89.11,34.4,0,60.5-10,48.78-18.8,56.35-23.93l-.24-2.68q-63,25.4-113,25.14l-43-.24q-52-.24-92.29,26.12T50,377.93Q39.21,402.59,39.21,423.1q0,49.8,27.59,83,29.53,35.18,78.38,35.18,45.65,0,101.81-41.56,35.42-26.42,84.49-78.25,41.26-43.51,47.12-44.74l.49,1.22q-2,5.9-2,15.7,0,16.19,7.72,27.21,8.64,12.75,24,12.75,12,0,30.76-13.23l12.45-46.57Q435.21,392.09,414.94,392.09Z"/>
        <path d="M500.74,392.09q-17.83,9.29-29.54,9.28-10,0-14.16-2.69Q476,372.56,476,354.74a43.22,43.22,0,0,0-.73-8.3q-13.61,15.62-26.72,30.76l-12.14,45.32,6.56-5.17q9.71,18,30.69,17.95,19.77,0,40.28-15l12.45-46.52Q516.61,383.55,500.74,392.09Z"/>
        <path d="M430.32,486.57q-15.87,32.24-15.62,39.8,14.34-7.57,21.41-11.72,29.91-17.08,33.81-21,9-9,15.33-36.62-28.92,17.58-36.46,20.75Q434.69,483.89,430.32,486.57Z"/>
        <path d="M583.4,576.66q-5.13,16.61-14.16,21l-85.45,42q3.9-15.15,22.95-24.66Z"/>
        <path d="M718.16,68.11q0,18-16.39,39.52l7.47,7.31-8.55,24.16a170.85,170.85,0,0,1-16.12-12.74Q646.73,161.63,627,161.62q-3.9,0-13.42-2.93,29.78-14.4,62.25-38.08-9.63-9.28-9.62-16.36,0-12.69,13.85-29.67t26-17Q718.16,57.62,718.16,68.11ZM698.63,89.63q0-11.25-9.67-11.26l-3.71,1.47a10.94,10.94,0,0,0-2.73,7.34q0,4.91,11.65,14.45Q698.63,94,698.63,89.63Z"/>
        <path d="M774.8,374.51l-12.45,46.42a36.07,36.07,0,0,1-19.29,5.58q-17.32,0-27.34-15.29-20.51,25.39-25.63,25.39-5.62,0-16.61-12.94-10.25-12-12.2-18.76-5.62,7.53-21,18l12.21-45.43q11.22-10.49,33.69-31.25,2.45,0,24.17,18.31t37.11,18.31A46.74,46.74,0,0,0,774.8,374.51Z"/>
        <path d="M801.66,24.41q0,19-15.07,35.4T752.41,76.17q-20.08,0-20.09-17.58,0-19.77,14-38.33Q761.47,0,780.59,0q8.56,0,15.19,8.06A26.1,26.1,0,0,1,801.66,24.41ZM785.79,40.59q0-5.94-8-12.9t-13.88-6.94q-7.36,0-13.38,6.7t-6,14.13q0,10.67,19.16,10.67Q785.78,52.25,785.79,40.59Z"/>
        <path d="M848.78,220.46q0,68.85-17.34,113.77-21,53.72-71.77,88.87l12.2-45.66q62.26-49.8,62.26-100.1,0-37.59-23.68-91.06-4.59,23.92-13.77,71.53-3.87,20.51-6.52,20.51l-2.18-.73-.48-3.18q0-19.77,10.21-74.21,10.69-58.84,18.48-67.63,13.38,8.3,23.59,40.28Q848.78,200.45,848.78,220.46Z"/>
        <path d="M896.63,13.18q-5.13,16.61-14.16,21L797,76.17q3.9-15.14,23-24.66Z"/>
        <path d="M559.86,381.1q33.54-38.57,33.55-62.25,0-31-14.12-31-6.81,0-20.43,10.76t-25.31,31.29q-12.4,22-12.41,37.64a35.09,35.09,0,0,0,1.2,9.29l-12.45,46.94a306.18,306.18,0,0,0,27.8-22.35q14.85,17.44,23.39,23.82a51.83,51.83,0,0,0,31.25,10.32,92.87,92.87,0,0,0,51.75-15.43l12.7-47.24q-26.87,20.67-58.11,20.67Q568.4,393.55,559.86,381.1Zm-14.25-18.69q-8.36-9.72-8.36-15.57,0-4.38,11.06-14.11T564,323q12.76,0,12.78,9.49Q576.81,346.35,545.61,362.41Z"/>
        <path d="M613,201.17q2.93-12.45,4.15-18.8-35.65,22-55.67,30-15.13,30-15.14,36.38l.25,2.93Q608.35,220.95,613,201.17Z"/>
        <path d="M901,93.75q0-7.32-8.79-7.32Q880,86.43,880,83q0-6.11,7.32-6.11a11.88,11.88,0,0,1,4.88,1q2.44-1.69,7-10.28t5.25-12.2a15.19,15.19,0,0,0-5.4-1.69q-10.32,0-23.82,17.82t-13.5,28.32q0,9.53,9.65,9.28,7.67-.24,8.41,1.22-3.91,5.37-25.63,13.43L824.36,134c0,2,1.06,2.93,3.17,2.93q20.52,0,44.93-11.47Q901,111.82,901,93.75Z"/>
        <path d="M968.71,215.09a525.35,525.35,0,0,0-44.78-103q-15.1,45.41-15.09,136,0,48.82,7.95,50.29,5.55-2.68,5.55-28.08,0-13.67,6.27-60.54,12.27,23.19,26.52,62.25,16.22,44.68,16.21,63,0,25.64-15.38,50.78-9,14.89-33.45,42.24L901.27,450.2q-12.45,13.43-17.82,24.41a2.11,2.11,0,0,0,2.43,1.95q2.19,0,10.23-2.93,57-20.75,75.75-54.93,15.82-28.56,15.83-93.5Q987.69,275.88,968.71,215.09Z"/>
      </g>
    </g>
  </g>
</svg>
