<svg xmlns="http://www.w3.org/2000/svg" viewBox="0 0 958.4 662.35">
  <title>EH-Asset 18-layername</title>
  <g id="Layer_2" data-name="Layer 2">
    <g id="ErRezak">
      <g>
        <path d="M104.64,10.49q0,18.06-16.4,39.52l7.47,7.32L87.17,81.48A171,171,0,0,1,71.05,68.75Q33.21,104,13.43,104,9.52,104,0,101.07,29.79,86.67,62.26,63q-9.63-9.29-9.62-16.36,0-12.69,13.85-29.66t26-17Q104.64,0,104.64,10.49ZM85.11,32q0-11.26-9.67-11.27l-3.72,1.47A11,11,0,0,0,69,29.57Q69,34.46,80.64,44C83.62,39,85.11,35,85.11,32Z"/>
        <path d="M261.38,156.25q-3.92,25.17-49.32,72.11-33.69,32-67.38,64.3-31,29.82-61.28,73.59-38.09,55.49-38.09,86.29,0,65.54,57.13,65.53,37.35,0,78.37-51.11,39.06-48.9,39.06-87.77,0-16.38-12-24.94Q192,381.84,172.26,381.84q-21.72,0-21.72-25.39l10.22-34.92q8-27.33,31.16-27.34,13.38,0,25.8,12.94,17,17.82,17,60.3,0,58.11-43.21,120.85Q144.92,556.16,90,556.15q-55.66,0-55.67-84.24,0-78.37,98.08-178.75,10.28-10.5,53-49.57,33.2-30,50.53-51.52-9.76,0-31.37,5.16t-30.88,5.16a38.17,38.17,0,0,1-6.35-.49q1.71-4.43,23.93-35.64Q247,156.26,261.38,156.25Z"/>
        <path d="M397.85,353q0,64.94-15.64,93.5-18.78,34.19-75.91,54.93-8.06,2.94-10.26,2.93c-1.46,0-2.28-.64-2.44-1.95q5.37-11,17.82-24.41l21.24-22.22q24.42-27.35,33.45-42.24,15.39-25.14,15.38-50.78,0-18.3-16.2-63-14.25-39-26.52-62.25-6.27,46.88-6.27,60.55,0,25.39-5.55,28.07-8-1.46-8-50.29,0-90.57,15.09-136a524.76,524.76,0,0,1,44.78,103Q397.85,303.71,397.85,353Z"/>
        <path d="M463.52,154.05l-69.58,24.42q-16.35,5.61-27.1,22.46l79.84-28.32Q456.45,169.19,463.52,154.05Z"/>
        <path d="M425.93,209.72q-9.29,0-9.28-17.83l-5.86,1.47q-18.56,32.47-30,32.47-8.55,0-8.54-11.47l.73-7.57-8.55,4.64q-6.84,18.58-6.83,25.25,0,13.81,14.19,13.81,16.39,0,31.08-21.15,8.82,6.25,14.44,6.26,17.63,0,29.13-21.24,8.55-15.63,11-36.63l-7.57,2.2Q440.08,209.72,425.93,209.72Z"/>
        <path d="M565.33,198q0-4.4-6.59-7.81-9.53-6.34-16.11-8.55-20,29.79-22,34.42L542.38,231Q557.77,211.43,565.33,198Z"/>
        <path d="M581.93,309.54q-4.15-6.81-10-6.81-12.21,0-33.45,47.07-11.22,26.1-22.7,52.2-13.68,30.24-27.83,49.26Q423.73,537.6,319.48,537.6L317,539.36q1.95,6.3,62.74,6.29,60.3,0,94.49-31,24.41-22.49,45.89-74.79,30.52-74.31,39.56-90.44,4.38-7.83,11.23-8.07l6.59,8.06q8.06-1.46,8.05-27.69A22.49,22.49,0,0,0,581.93,309.54Z"/>
        <path d="M654,154.05l-69.58,24.42q-16.35,5.61-27.1,22.46l79.84-28.32Q646.88,169.19,654,154.05Z"/>
        <path d="M616.36,209.72q-9.29,0-9.28-17.83l-5.86,1.47q-18.56,32.47-30,32.47-8.55,0-8.55-11.47l.74-7.57-8.55,4.64Q548,230,548,236.68q0,13.81,14.19,13.81,16.39,0,31.08-21.15,8.82,6.25,14.44,6.26,17.63,0,29.13-21.24,8.55-15.63,11-36.63l-7.57,2.2Q630.52,209.72,616.36,209.72Z"/>
        <path d="M746,401.86,733.3,449Q703,466.55,691.06,474.61q-28.56,19-34.91,31.49-19.53,42.24-39.06,84.23Q588.77,644,558,654.35q-23.44,8-51.52,8-56.39,0-72.51-9.51l-.73-1.23,1.95-2.2a162.8,162.8,0,0,0,32,2.93q44.93,0,85-28.8,35.39-25.89,59.81-68.36,1.71-3.18,23.19-45.9,13.92-27.84,27-43.58t41.38-33.33Q735,412.84,746,401.86Z"/>
        <path d="M819.48,248.29q0,68.85-17.33,113.77-21,53.71-71.78,88.87l12.21-45.66q62.25-49.8,62.25-100.09,0-37.6-23.68-91.07-4.59,23.92-13.77,71.53-3.87,20.52-6.52,20.51l-2.17-.73-.49-3.17q0-19.78,10.21-74.22,10.71-58.84,18.49-67.63,13.36,8.31,23.58,40.28Q819.48,228.28,819.48,248.29Z"/>
        <path d="M867.33,41q-5.13,16.6-14.16,21l-85.45,42q3.9-15.14,22.95-24.65Z"/>
        <path d="M871.73,121.58q0-7.32-8.79-7.32-12.21,0-12.21-3.42,0-6.11,7.32-6.1a12,12,0,0,1,4.89,1q2.43-1.69,7-10.27t5.24-12.21a15.14,15.14,0,0,0-5.4-1.69q-10.31,0-23.82,17.83t-13.5,28.32q0,9.51,9.65,9.27c5.11-.16,7.92.25,8.41,1.22q-3.9,5.38-25.63,13.43l-29.79,10.26q0,2.92,3.18,2.92,20.5,0,44.92-11.47Q871.72,139.66,871.73,121.58Z"/>
        <path d="M939.41,242.92a525.35,525.35,0,0,0-44.78-103q-15.09,45.42-15.09,136,0,48.83,8,50.29Q893,323.49,893,298.1q0-13.68,6.27-60.55,12.29,23.19,26.52,62.25,16.21,44.68,16.21,63,0,25.63-15.38,50.78-9,14.9-33.45,42.24L872,478q-12.45,13.43-17.82,24.41c.16,1.31,1,1.95,2.44,1.95s4.86-1,10.22-2.93q57-20.74,75.76-54.93Q958.4,418,958.4,353,958.4,303.71,939.41,242.92Z"/>
      </g>
    </g>
  </g>
</svg>
