<svg xmlns="http://www.w3.org/2000/svg" viewBox="0 0 802 720.46">
  <title>EH-Asset 43-layername</title>
  <g id="Layer_2" data-name="Layer 2">
    <g id="ElKerim">
      <g>
        <path d="M154.3,68.11q0,18-16.4,39.52l7.47,7.31-8.54,24.16a168.32,168.32,0,0,1-16.12-12.74q-37.84,35.27-57.62,35.26-3.92,0-13.43-2.93,29.79-14.4,62.26-38.08-9.63-9.28-9.63-16.36,0-12.69,13.86-29.67t26-17Q154.3,57.62,154.3,68.11ZM134.77,89.63q0-11.25-9.67-11.26l-3.72,1.47a10.94,10.94,0,0,0-2.73,7.34q0,4.91,11.65,14.45Q134.77,94,134.77,89.63Z"/>
        <path d="M222.9,374.76l-12.21,45.65Q182.61,438,154.54,455.32,116,481.93,116,494.38c0,1.8,1,2.69,2.93,2.69q7.32,0,22-15.62,10-10.74,19.77-21.73c1.14.81,1.71,2.19,1.71,4.15q0,3.42-3.66,19-4.63,20-5.13,21.48a64.28,64.28,0,0,1-10.49,19.29q-10.5,13.67-46.44,39.55-41.11,29.53-55.31,43.7Q14.65,633.3,14.65,657q0,23.92,39.55,37.36,32.46,11.22,73.24,11.23,66.9,0,89.36-2.2l.49,1.22q0,7-40.29,12-31.25,3.84-52,3.84-125,0-125-63.23,0-29.06,23.73-65.43,21.29-32.47,48.2-52l30.09-22a41.31,41.31,0,0,1-1.92-12.94q0-19,14.91-44.67,14.86-24.66,31.47-35.41Q197.27,392.34,222.9,374.76Z"/>
        <path d="M219.73,376.71l-12.45,45.9q29-24.42,39.75-69.34,8.34-34.9,8.34-42,0-28.08-15-49.32-9.09,5.13-17.92,26.86-7.38,18.07-9.58,32.71l.49,1.71,2.68-.24a44,44,0,0,1,10.26-13.43q11,12.71,11,38.09V353Q229,369.88,219.73,376.71Z"/>
        <path d="M193.36,483.89Q178.23,514.16,178.22,522l.25,1.71q16.35-5.61,38.08-20.51,25.88-17.57,28.57-30.27l3.9-18.8q-34.19,20.5-36.37,21.24A195.4,195.4,0,0,0,193.36,483.89Z"/>
        <path d="M360.11,649.9Q355,666.51,346,670.9l-85.45,42q3.9-15.14,22.95-24.66Z"/>
        <path d="M458.5,374l-12.7,47.12q-30.27,17.58-42.24,25.64-28.56,19-34.91,31.49-19.53,42.24-39.06,84.23-28.32,53.7-59.08,64-23.44,8-51.52,8-56.38,0-72.51-9.51l-.73-1.23,2-2.2a162.62,162.62,0,0,0,32,2.93q44.92,0,85-28.81,35.4-25.87,59.81-68.36,1.71-3.17,23.2-45.89,13.9-27.84,27-43.58T416,404.54Q447.51,385,458.5,374Z"/>
        <path d="M515.38,13.18q-5.13,16.61-14.16,21l-85.45,42q3.9-15.14,23-24.66Z"/>
        <path d="M616,24.41q0,19-15.07,35.4T566.72,76.17q-20.09,0-20.09-17.58,0-19.77,14-38.33Q575.78,0,594.9,0q8.57,0,15.19,8.06A26.1,26.1,0,0,1,616,24.41ZM600.1,40.59q0-5.94-8-12.9t-13.87-6.94q-7.37,0-13.39,6.7t-6,14.13q0,10.67,19.16,10.67Q600.1,52.25,600.1,40.59Z"/>
        <path d="M663.09,220.46q0,68.85-17.34,113.77-21,53.72-71.78,88.87l12.21-45.66q62.27-49.8,62.26-100.1,0-37.59-23.68-91.06-4.59,23.92-13.78,71.53-3.86,20.51-6.51,20.51l-2.18-.73-.48-3.18q0-19.77,10.21-74.21,10.69-58.84,18.48-67.63,13.38,8.3,23.59,40.28Q663.08,200.45,663.09,220.46Z"/>
        <path d="M710.94,13.18q-5.13,16.61-14.16,21l-85.45,42q3.9-15.14,22.95-24.66Z"/>
        <path d="M516.11,383.54q-4.87-6.82-5.86-26.61-1-19-1.46-74.46-.24-46.64-2.93-74.46l-2.16-1q-3.13,3.18-8.17,17.21t-5,18.92q0,10.26,1.2,30.52t1.21,30.52Q492.89,332,485,346q-6.39,11.71-30.21,31.49l-12.2,45.49q30.15-21.48,48.58-62.5,1,39.06,3.66,48.83,7.29,27,34.09,27,25.81,0,48.71-16L590.09,374q-22.47,19.29-48.34,19.29Q522.94,393.31,516.11,383.54Z"/>
        <path d="M650.39,1.71l-3.17,2q-35.4,66.66-47.37,86.43-29,47.37-60.52,76.9-49.05,37.84-74.91,54l2.93,1q25.86-5.35,64.66-36.86,33.91-27.1,54.42-53.47-.49,18.81,2,29.54l4.39-2.93q2-42.22,59.82-155.27Z"/>
        <path d="M715.33,93.75q0-7.32-8.79-7.32-12.21,0-12.2-3.42,0-6.11,7.32-6.11a11.88,11.88,0,0,1,4.88,1q2.44-1.69,7-10.28t5.25-12.2a15.25,15.25,0,0,0-5.4-1.69q-10.32,0-23.82,17.82T676,99.85q0,9.53,9.65,9.28,7.67-.24,8.41,1.22-3.92,5.37-25.64,13.43L638.67,134c0,2,1.05,2.93,3.17,2.93q20.5,0,44.92-11.47Q715.33,111.82,715.33,93.75Z"/>
        <path d="M783,215.09a525.35,525.35,0,0,0-44.78-103q-15.11,45.41-15.1,136,0,48.82,8,50.29,5.55-2.68,5.55-28.08,0-13.67,6.27-60.54,12.27,23.19,26.52,62.25,16.2,44.68,16.2,63,0,25.64-15.38,50.78-9,14.89-33.44,42.24L715.58,450.2q-12.45,13.43-17.83,24.41a2.12,2.12,0,0,0,2.44,1.95q2.19,0,10.23-2.93,57-20.75,75.75-54.93Q802,390.14,802,325.2,802,275.88,783,215.09Z"/>
      </g>
    </g>
  </g>
</svg>
