<svg xmlns="http://www.w3.org/2000/svg" viewBox="0 0 925.29 634.52">
  <title>EH-Asset 11-layername</title>
  <g id="Layer_2" data-name="Layer 2">
    <g id="ElMuttekebir">
      <g>
        <path d="M219.48,129.14q0,18.06-16.39,39.52l7.47,7.32L202,200.13a172.3,172.3,0,0,1-16.12-12.73Q148,222.65,128.27,222.66q-3.9,0-13.42-2.93,29.78-14.4,62.25-38.09-9.63-9.27-9.62-16.36,0-12.69,13.85-29.66t26-17Q219.48,118.65,219.48,129.14ZM200,150.67q0-11.26-9.67-11.27l-3.71,1.47a11,11,0,0,0-2.73,7.35q0,4.91,11.65,14.45Q199.95,155.08,200,150.67Z"/>
        <path d="M312.74,374l-12.69,47.12q-30.27,17.58-42.24,25.64-28.56,19-34.91,31.49-19.53,42.24-39.06,84.23-28.32,53.7-59.08,64-23.45,8-51.52,8-56.4,0-72.51-9.51L0,623.78l2-2.2a162.8,162.8,0,0,0,32,2.93q44.91,0,85-28.81,35.39-25.87,59.81-68.36,1.71-3.17,23.19-45.89,13.92-27.84,27-43.58t41.38-33.33Q301.76,385,312.74,374Z"/>
        <path d="M281.25,207.76q-3.66,3.66-11.23,14.89l77.39-31q12.45-5.13,20-21l-70.07,27.83Q286.62,202.64,281.25,207.76Z"/>
        <path d="M377,108.64q-11.71,35.89-25.88,35.89-7.81,0-7.81-23.92l-4.88,1.46q-18.56,39.56-32.47,39.55c-3.75,0-5.62-2.11-5.62-6.35a71.65,71.65,0,0,1,3.42-20.75l-5.79,1q-13.5,22.69-13.5,35,0,16.11,14.37,16.11,8.77,0,18-6.35t12.91-14.65q7.3,5.26,14.37,5.27,18.75,0,30.2-23.93a91.62,91.62,0,0,0,9-40.77Z"/>
        <path d="M304.93,467.53q-21,32.22-22,34.42l21.48,14.9q11-10,22.71-33Q327.15,475.6,304.93,467.53Z"/>
        <path d="M361.82,392.09q-17.83,9.29-29.54,9.28-10,0-14.16-2.69,19-26.12,19-43.94a43.22,43.22,0,0,0-.73-8.3q-13.68,15.62-26.86,30.76l-12.21,45.32,6.6-5.17q9.75,18,30.76,17.95,19.77,0,40.28-15l12.45-46.52Q377.69,383.55,361.82,392.09Z"/>
        <path d="M444.58,13.18q-5.13,16.61-14.16,21L345,76.17q3.9-15.14,22.95-24.66Z"/>
        <path d="M445.31,383.54q-4.89-6.82-5.86-26.61-1-19-1.46-74.46-.25-46.64-2.93-74.46l-2.16-1q-3.13,3.18-8.18,17.21t-5,18.92q0,10.26,1.2,30.52t1.21,30.52q0,27.82-7.86,41.75-6.37,11.71-30.2,31.49l-12.2,45.49q30.15-21.48,48.58-62.5,1,39.06,3.65,48.83,7.31,27,34.1,27,25.82,0,48.71-16L519.29,374Q496.82,393.31,471,393.31,452.14,393.31,445.31,383.54Z"/>
        <path d="M579.59,1.71l-3.17,2Q541,70.32,529.05,90.09q-29,47.37-60.52,76.9-49,37.84-74.91,54l2.93,1q25.86-5.35,64.66-36.86,33.92-27.1,54.42-53.47-.5,18.81,2,29.54L522,158.2Q523.92,116,581.79,2.93Z"/>
        <path d="M575.68,13.18q-5.11,16.61-14.16,21l-85.45,42Q480,61,499,51.51Z"/>
        <path d="M548.83,197.51q-30.76,19.77-55.18,29.78-15.87,30.77-15.38,39.8,12.9-6.82,19.22-10.5,31.88-17.82,35.28-21.24Q542.51,226.08,548.83,197.51Z"/>
        <path d="M567.94,392.09q-17.82,9.29-29.54,9.28-10,0-14.16-2.69,19-26.12,19-43.94a42.43,42.43,0,0,0-.73-8.3q-13.62,15.62-26.75,30.76l-12.16,45.32,6.56-5.17q9.74,18,30.71,17.95,19.77,0,40.28-15l12.45-46.52Q583.8,383.55,567.94,392.09Z"/>
        <path d="M655.76,68.11q0,18-16.39,39.52l7.47,7.31-8.55,24.16a170.85,170.85,0,0,1-16.12-12.74q-37.84,35.27-57.62,35.26-3.9,0-13.43-2.93,29.79-14.4,62.26-38.08-9.63-9.28-9.62-16.36,0-12.69,13.85-29.67t26-17Q655.76,57.62,655.76,68.11ZM636.23,89.63q0-11.25-9.67-11.26l-3.72,1.47a10.93,10.93,0,0,0-2.72,7.34q0,4.91,11.65,14.45Q636.23,94,636.23,89.63Z"/>
        <path d="M712.4,374.51,700,420.93a36.07,36.07,0,0,1-19.29,5.58q-17.32,0-27.34-15.29-20.51,25.39-25.63,25.39-5.62,0-16.61-12.94-10.25-12-12.2-18.76-5.62,7.53-21,18l12.21-45.43q11.22-10.49,33.69-31.25,2.43,0,24.17,18.31t37.11,18.31A46.74,46.74,0,0,0,712.4,374.51Z"/>
        <path d="M739.26,24.41q0,19-15.07,35.4T690,76.17q-20.09,0-20.09-17.58,0-19.77,14-38.33Q699.07,0,718.19,0q8.56,0,15.19,8.06A26.1,26.1,0,0,1,739.26,24.41ZM723.39,40.59q0-5.94-8-12.9t-13.87-6.94q-7.37,0-13.39,6.7t-6,14.13q0,10.67,19.16,10.67Q723.39,52.25,723.39,40.59Z"/>
        <path d="M786.38,220.46q0,68.85-17.34,113.77-21,53.72-71.77,88.87l12.2-45.66q62.26-49.8,62.26-100.1,0-37.59-23.68-91.06-4.59,23.92-13.77,71.53-3.87,20.51-6.52,20.51l-2.18-.73-.48-3.18q0-19.77,10.21-74.21,10.7-58.84,18.48-67.63,13.38,8.3,23.59,40.28Q786.38,200.45,786.38,220.46Z"/>
        <path d="M834.23,13.18q-5.13,16.61-14.16,21l-85.45,42q3.9-15.14,23-24.66Z"/>
        <path d="M838.62,93.75q0-7.32-8.79-7.32-12.21,0-12.2-3.42,0-6.11,7.32-6.11a11.88,11.88,0,0,1,4.88,1q2.45-1.69,7-10.28T842,55.4a15.25,15.25,0,0,0-5.4-1.69q-10.32,0-23.82,17.82t-13.5,28.32q0,9.53,9.65,9.28,7.66-.24,8.41,1.22-3.92,5.37-25.64,13.43L762,134c0,2,1.06,2.93,3.17,2.93q20.5,0,44.92-11.47Q838.63,111.82,838.62,93.75Z"/>
        <path d="M906.31,215.09a525.35,525.35,0,0,0-44.78-103q-15.1,45.41-15.09,136,0,48.82,7.95,50.29,5.55-2.68,5.55-28.08,0-13.67,6.27-60.54,12.27,23.19,26.52,62.25,16.2,44.68,16.21,63,0,25.64-15.39,50.78-9,14.89-33.44,42.24L838.87,450.2Q826.42,463.63,821,474.61a2.12,2.12,0,0,0,2.44,1.95q2.19,0,10.23-2.93,57-20.75,75.75-54.93,15.82-28.56,15.83-93.5Q925.29,275.88,906.31,215.09Z"/>
      </g>
    </g>
  </g>
</svg>
