<svg xmlns="http://www.w3.org/2000/svg" viewBox="0 0 846.92 727.05">
  <title>EH-Asset 26-layername</title>
  <g id="Layer_2" data-name="Layer 2">
    <g id="ElMuzil">
      <g>
        <path d="M420.41,198l-1,2.93q-68.12,35.64-136.72,63.47A416.7,416.7,0,0,1,292,349.61q0,78.13-49.6,157.71-26.4,42.24-48.15,61Q163.21,595,123.38,595,77.18,595,55,555.18,37.6,523.92,37.6,473.63q0-34.67,22.21-72.26A215.39,215.39,0,0,1,111.08,342Q147,313,220,280.52q0-6.11-.24-26.61-.49-18.79-.49-31.74a288,288,0,0,1,13.67-87.4q30.51,51.51,48.1,120.85,55.9-20.76,137.2-59.33ZM273.93,360.11q0-38.33-12.21-87.65L231.2,284.91q-1.74,9.29-4.2,71.29-2,51.51-8.9,63l-2.72,1.22-2.72-1.71q4.38-25.38,5.61-64.21,1-32.22,1.7-64.45Q167.07,314,119,353.27q-69,56.64-69,121.58,0,32.73,19,54.69,20.25,23,52.44,23,60.72,0,106.57-59.08T273.93,360.11Zm-14.65-96.44q-7.33-23.93-10.5-32.22a186.77,186.77,0,0,0-13.92-30.52q-3.42,4.15-3.41,74.7Z"/>
        <path d="M350.59,664.06q-5.13,16.61-14.16,21l-85.45,42q3.9-15.13,23-24.66Z"/>
        <path d="M577.39,131.1q0,18-16.39,39.52l7.47,7.31-8.55,24.15a170.66,170.66,0,0,1-16.12-12.73Q506,224.62,486.18,224.61q-3.9,0-13.42-2.93,29.78-14.4,62.25-38.09-9.63-9.27-9.62-16.35,0-12.69,13.85-29.67t26-17Q577.39,120.61,577.39,131.1Zm-19.53,21.52q0-11.25-9.66-11.26l-3.72,1.47a10.94,10.94,0,0,0-2.73,7.34q0,4.91,11.65,14.45Q557.86,157,557.86,152.62Z"/>
        <path d="M634,437.5l-12.45,46.42a36.07,36.07,0,0,1-19.29,5.58Q585,489.5,575,474.21q-20.51,25.38-25.63,25.39-5.62,0-16.61-12.94-10.25-12-12.2-18.76-5.62,7.53-21,18l12.21-45.43q11.22-10.5,33.69-31.25,2.45,0,24.17,18.31t37.11,18.31A46.74,46.74,0,0,0,634,437.5Z"/>
        <path d="M660.89,87.4q0,19-15.07,35.4t-34.18,16.36q-20.08,0-20.09-17.58,0-19.77,14-38.33Q620.7,63,639.82,63,648.39,63,655,71A26.15,26.15,0,0,1,660.89,87.4ZM645,103.58q0-6-8-12.9t-13.88-6.94q-7.36,0-13.38,6.69t-6,14.14q0,10.67,19.16,10.66Q645,115.23,645,103.58Z"/>
        <path d="M708,283.45q0,68.85-17.34,113.77-21,53.71-71.77,88.86l12.2-45.65q62.26-49.8,62.26-100.1,0-37.59-23.68-91.06-4.59,23.93-13.77,71.53-3.87,20.51-6.52,20.51l-2.18-.73-.48-3.18q0-19.77,10.21-74.22,10.69-58.83,18.48-67.62,13.38,8.3,23.59,40.28Q708,263.42,708,283.45Z"/>
        <path d="M755.86,76.17q-5.13,16.6-14.16,21l-85.45,42q3.9-15.14,23-24.66Z"/>
        <path d="M111.47,5.27Q107.45,0,101.83,0,89.37,0,76.42,12.13T63.48,36.5l1,5.87A58.2,58.2,0,0,0,70.9,50.7q-29.1,17.14-57.44,24,8.31,4.88,14.44,4.88,15.65,0,51.87-23.93,15.66,6.84,25,7.08,3.92-12.5,3.67-15.68l-.25-3.68L100.85,38q14.66-15.44,14.65-21.57A18.06,18.06,0,0,0,111.47,5.27ZM93.1,33.2q-10.59-8.3-10.58-13.42,0-9,8.17-9,7.69,2.94,7.7,8.79Q98.39,25.16,93.1,33.2Z"/>
        <path d="M67.63,100q-9.52,0-9-11.39l.25-4.85-6.35,1.45Q34.41,114,23.19,114c-5.21,0-7.81-3-7.81-9l1.71-10.9L12,94.62Q0,111,0,124l1.71,8.56q5.12,6.62,12.17,6.61,19,0,30.45-19.66,5.84,6.24,9.74,6.23,32.38,0,46-52.49L94,74.7Q81.06,100,67.63,100Z"/>
        <path d="M435.06,441.65a131.49,131.49,0,0,1,2.44-25.39q1.47-7.81,2.2-10.25l-.49-2.45-2.44-2.19Q422.88,407.48,398,446q-16.84,27.6-33.69,54.94-13.18,19.29-44.92,42.72-29.55,22-52.74,29.54t-60.06,7.57l-3.41,2-.74,1.49q3.66,3,24.9,5.5a266.46,266.46,0,0,0,27.59,2q24.18,0,34.67-2,13.92-2.43,32.47-11.47,31.74-15.61,68.61-84.23,15.62-29.06,21.11-35.77c3.67-4.47,6-6.71,7-6.71h1.95a112.58,112.58,0,0,0-1.46,15.87q0,40.77,27.1,40.77,10,0,29.78-9.33a173.64,173.64,0,0,0,28.08-16l12.45-46.48Q479,467.78,456.79,467.77,435.06,467.77,435.06,441.65Z"/>
        <path d="M437,325.44l9.77-17.58q0-7.32-22.22-16.84-15.37,22.22-22,34.66l21.73,14.9Q430.91,335.21,437,325.44Z"/>
        <path d="M827.94,278.08a525.35,525.35,0,0,0-44.78-103q-15.1,45.4-15.09,136,0,48.82,7.95,50.29,5.55-2.68,5.55-28.08,0-13.67,6.27-60.54Q800.11,295.9,814.36,335q16.21,44.69,16.21,63,0,25.64-15.38,50.78-9,14.89-33.45,42.24L760.5,513.18q-12.45,13.44-17.82,24.42a2.11,2.11,0,0,0,2.43,1.95q2.19,0,10.23-2.93,57-20.75,75.75-54.93,15.82-28.56,15.83-93.51Q846.92,338.88,827.94,278.08Z"/>
        <path d="M760.25,157.74q0-7.32-8.79-7.33-12.21,0-12.2-3.41,0-6.1,7.32-6.11a11.88,11.88,0,0,1,4.88,1q2.44-1.69,7-10.28t5.25-12.2a15,15,0,0,0-5.4-1.69q-10.32,0-23.82,17.82T721,163.84q0,9.53,9.65,9.28c5.11-.16,7.91.24,8.41,1.22q-3.91,5.37-25.63,13.43L683.59,198q0,2.92,3.17,2.93,20.52,0,44.93-11.47Q760.25,175.8,760.25,157.74Z"/>
      </g>
    </g>
  </g>
</svg>
