<svg xmlns="http://www.w3.org/2000/svg" viewBox="0 0 918.85 672.12">
  <title>EH-Asset 4-layername</title>
  <g id="Layer_2" data-name="Layer 2">
    <g id="ElMelik">
      <g>
        <path d="M104.64,15.13q0,18-16.4,39.52L95.71,62,87.17,86.12A168.32,168.32,0,0,1,71.05,73.38q-37.84,35.27-57.62,35.26-3.91,0-13.43-2.93,29.79-14.4,62.26-38.08-9.63-9.28-9.63-16.36,0-12.69,13.86-29.66t26-17Q104.64,4.64,104.64,15.13ZM85.11,36.66q0-11.26-9.67-11.27l-3.72,1.47A11,11,0,0,0,69,34.21q0,4.89,11.65,14.44Q85.11,41.06,85.11,36.66Z"/>
        <path d="M583.88.24,582.66,0l-2.93.24Q563.62,12,542.87,43.46q-15.64,24.9-31,49.8-42,65.43-79.87,105Q387,245.37,327.67,278.81q-19.29-29.17-35.17-41.2-20.76-15.44-51.05-15.44-49.59,0-101.37,39.82Q92.2,298.89,69,347q-18.81,39.09-18.81,85,0,44.71,24.42,72.57,25.64,29.07,69.58,29.07,54.19,0,116.45-49.07,29.3-23,94.73-91.31,47.11-49.06,63.72-49.07,6.11,0,6.1,5.86,0,12.45-6.46,36.37t-6.46,36.38q0,15.87,4.9,28.08,6.61,16.6,20.08,16.6,12.25,0,34.78-14.7l12.49-46.52q-5.37,6.57-16.11,12.41-11.49,6.33-19.29,6.33-16.11,0-16.11-35.82,0-20.7,1.22-28,7.08-42.15,7.08-44.35,0-14.37-6.6-14.37-25.38,0-70.55,51.69-46.4,52.9-94,87.78-64.7,46.82-115.72,46.81-86.19,0-86.18-75.37,0-35.85,21.23-78.78,23.91-48.54,67.22-76t97-27.44q35.62,0,68.32,50.54-26.58,15.13-62.18,28.07l-1.71,2.93,1.22,1q27.06,0,71.69-18.55l8.79,21.72,1.22.25c1.29-.49,1.95-1.22,1.95-2.2q0-2.69-7.32-22.22,22-12,46.36-28.56,43-29.06,90.05-93.51,27.09-37.1,71.5-110.59a109,109,0,0,0-3.66,27.83q0,25.64,14.65,60.3l3.9-6.59A234.15,234.15,0,0,1,553.37,92Q553.37,39.06,583.88.24Z"/>
        <path d="M183,380l3.19,1.22q8.07-12.42,52.87-28l13.7-15.35-2.44-2.67Q228.63,345,213.51,345q-14.14,0-14.15-7.32,0-3.42,4.15-6.6a14.55,14.55,0,0,1,9-3.17q4.64,0,9.27,7.33l11-10.26a7.75,7.75,0,0,0,1-3.91q0-8.54-7.11-8.54-11.28,0-25.38,11.09t-15.08,21.82q5.69,6.09,18.06,11Q184.74,368.09,183,380Z"/>
        <path d="M540.92,609.13q-5.13,16.61-14.16,21l-85.45,42q3.9-15.14,22.95-24.66Z"/>
        <path d="M587.55,406.49,575.1,452.71q-15.63,12.14-33,12.13-26.39,0-25.64-48l.25-23.92q-18.44,41-48.59,62.5l12.21-45.47q24.3-20,30.69-32.22,7.6-13.92,7.61-42.73,0-12.45-1.21-37t-1.2-37q0-6.35,4.8-21.12t8.66-18.43l2.16,1q2.45,42.24,2.44,169.92,0,29.31,20.27,29.3Q570,421.63,587.55,406.49Z"/>
        <path d="M644.19,131.1q-5.13,16.6-14.16,21l-85.45,42q3.9-15.14,22.95-24.66Z"/>
        <path d="M706,407,693.5,453.4A36.06,36.06,0,0,1,674.22,459q-17.34,0-27.35-15.29-20.5,25.4-25.63,25.39-5.62,0-16.6-12.94-10.26-12-12.21-18.76-5.62,7.53-21,18l12.21-45.43q11.24-10.49,33.69-31.25,2.45,0,24.17,18.31t37.11,18.31A46.77,46.77,0,0,0,706,407Z"/>
        <path d="M732.81,56.88q0,19-15.07,35.41t-34.17,16.35q-20.1,0-20.1-17.58,0-19.77,14-38.33,15.18-20.25,34.3-20.26,8.58,0,15.19,8.06A26.12,26.12,0,0,1,732.81,56.88ZM716.94,73.06q0-5.94-8-12.89t-13.88-7q-7.37,0-13.38,6.7t-6,14.13q0,10.68,19.16,10.67Q716.94,84.72,716.94,73.06Z"/>
        <path d="M779.93,252.93q0,68.85-17.33,113.77-21,53.71-71.78,88.87L703,409.91q62.25-49.8,62.25-100.1,0-37.59-23.68-91.06-4.59,23.92-13.77,71.53-3.87,20.52-6.52,20.51l-2.18-.73-.48-3.18q0-19.77,10.21-74.21,10.71-58.84,18.48-67.63,13.38,8.29,23.59,40.28Q779.93,232.92,779.93,252.93Z"/>
        <path d="M827.78,45.65q-5.13,16.6-14.16,21l-85.45,42q3.9-15.14,23-24.66Z"/>
        <path d="M832.18,126.22q0-7.32-8.79-7.32-12.21,0-12.21-3.42,0-6.11,7.32-6.1a12,12,0,0,1,4.89,1q2.43-1.69,7-10.28c3-5.71,4.77-9.78,5.25-12.2a15.14,15.14,0,0,0-5.4-1.69q-10.32,0-23.82,17.82t-13.5,28.32q0,9.52,9.65,9.28c5.11-.16,7.92.25,8.41,1.22q-3.9,5.37-25.63,13.43L755.51,166.5c0,2,1.06,2.93,3.18,2.93q20.5,0,44.92-11.47Q832.17,144.29,832.18,126.22Z"/>
        <path d="M899.86,247.56a525.35,525.35,0,0,0-44.78-103Q840,189.94,840,280.52q0,48.83,8,50.29,5.53-2.69,5.54-28.08,0-13.67,6.27-60.54,12.29,23.19,26.52,62.25,16.22,44.69,16.21,63,0,25.63-15.38,50.78-9,14.9-33.45,42.24l-21.24,22.22Q820,496.1,814.6,507.08c.16,1.3,1,1.95,2.44,1.95s4.86-1,10.22-2.93q57-20.75,75.75-54.93,15.84-28.56,15.84-93.5Q918.85,308.35,899.86,247.56Z"/>
      </g>
    </g>
  </g>
</svg>
