<svg xmlns="http://www.w3.org/2000/svg" viewBox="0 0 841.94 590.82">
  <title>EH-Asset 19-layername</title>
  <g id="Layer_2" data-name="Layer 2">
    <g id="ElFetah">
      <g>
        <path d="M104.64,88.37q0,18.06-16.4,39.52l7.47,7.32-8.54,24.15a171,171,0,0,1-16.12-12.73q-37.84,35.25-57.62,35.25Q9.52,181.88,0,179q29.79-14.42,62.26-38.09-9.63-9.27-9.62-16.36,0-12.69,13.85-29.66t26-17Q104.64,77.88,104.64,88.37ZM85.11,109.9q0-11.27-9.67-11.27l-3.72,1.47A11,11,0,0,0,69,107.45q0,4.89,11.65,14.44C83.62,116.84,85.11,112.83,85.11,109.9Z"/>
        <path d="M310.7,158q0,5.37-9,29.8T288.49,218.3q-21.74,30.78-64.21,63.51Q187.41,308.93,150.84,336q-40.22,32.25-68.48,68.4-37.05,47.64-37,84Q45.31,511,68,533.18a135.61,135.61,0,0,0,42.84,28.33q24,10,65.8,16.12,36.85,5.63,66.65,5.62,15.62,0,38.09-4.15l1.22.75-1.71,2q-18.32,9-71.78,9-61.29,0-105.71-20.53Q67.29,553.67,51.9,535.58q-19.77-22.73-19.77-59.39,0-37.4,36.13-90.67,31-45.47,66.89-74.79,12.71-10.28,49.57-38.86-.25-4.15-3.42-12.22t-3.16-12.47q0-17.1,21.24-53,4.38-7.59,47.72-27.62t54.81-20.05Q310.7,153.08,310.7,158Zm-22,29q-21.24,3.66-48.1,13.67-30.76,11.73-43,23.44,6.68,15.39,6.68,21a32.77,32.77,0,0,1-4.21,16.6q40.29-26.85,48.1-33Q274.51,208.5,288.67,187Z"/>
        <path d="M423.73,394.53l-12.45,46.8q-19.54,13.26-39.55,13.26-27.6,0-37.84-30.95-5.62-17.38-6.6-53.77l-1.84-73.73q-2.07-83-2.06-84.47,0-3.16,5.88-20.75t8.06-20.51h1.44q.74,42.24,2.93,126.22.24,23.44,5.12,69.34,9.76,47.11,37.36,47.12Q404.69,413.09,423.73,394.53Z"/>
        <path d="M488.18,0,418.6,24.41Q402.25,30,391.5,46.88l79.84-28.33Q481.09,15.15,488.18,0Z"/>
        <path d="M450.58,55.66q-9.27,0-9.27-17.82l-5.86,1.47q-18.56,32.47-30,32.47-8.55,0-8.55-11.48l.74-7.57-8.55,4.64q-6.84,18.6-6.83,25.26,0,13.8,14.19,13.81,16.4,0,31.08-21.16,8.82,6.27,14.44,6.26,17.63,0,29.13-21.24,8.55-15.61,11-36.62l-7.57,2.2Q464.75,55.67,450.58,55.66Z"/>
        <path d="M455,217.77q-30.76,19.78-55.18,29.79-15.87,30.76-15.38,39.79,12.9-6.83,19.22-10.49,31.88-17.82,35.28-21.24Q448.66,246.34,455,217.77Z"/>
        <path d="M474.09,412.35q-17.82,9.28-29.54,9.28c-6.68,0-11.39-.89-14.16-2.68q19-26.13,19-43.95a42.43,42.43,0,0,0-.73-8.3Q435,382.33,421.88,397.46l-12.16,45.32,6.56-5.17q9.74,18,30.71,18,19.77,0,40.28-15L499.73,394Q489.95,403.81,474.09,412.35Z"/>
        <path d="M556.79,33.45q-5.13,16.61-14.16,21l-85.45,42q3.9-15.14,22.95-24.66Z"/>
        <path d="M572,413.82q-30.24,0-38.76-12.45,33.54-38.58,33.55-62.26,0-31-14.12-31-6.81,0-20.43,10.75t-25.31,31.29q-12.4,22-12.41,37.65a42.21,42.21,0,0,0,1,9.29L483.06,444a310.24,310.24,0,0,0,27.83-22.34q14.88,17.43,23.43,23.82a51.92,51.92,0,0,0,31.25,10.31,93,93,0,0,0,51.76-15.42L630,393.14Q603.21,413.81,572,413.82Zm-53-31.15q-8.36-9.72-8.36-15.57,0-4.37,11.06-14.11t15.72-9.73q12.76,0,12.77,9.49Q550.19,366.63,519,382.67Z"/>
        <path d="M566.8,232.67q0-3.67-9.76-9.77-4.38-2.68-12.67-6.84l-22.18,34.43,21.69,15.14Q554.13,257.82,566.8,232.67Z"/>
        <path d="M655.91,44.68q0,19-15.07,35.4T606.66,96.44q-20.08,0-20.09-17.58,0-19.78,14-38.33,15.18-20.26,34.3-20.27,8.56,0,15.19,8.06A26.15,26.15,0,0,1,655.91,44.68ZM640,60.86q0-6-8-12.9T618.18,41q-7.36,0-13.39,6.69t-6,14.14q0,10.66,19.16,10.66Q640,72.51,640,60.86Z"/>
        <path d="M703,240.72q0,68.85-17.34,113.77-21,53.72-71.78,88.87l12.21-45.65q62.26-49.81,62.26-100.1,0-37.61-23.68-91.07-4.59,23.94-13.78,71.54-3.85,20.51-6.51,20.5l-2.18-.73-.48-3.17q0-19.79,10.21-74.22,10.69-58.83,18.48-67.63,13.38,8.31,23.59,40.29Q703,220.71,703,240.72Z"/>
        <path d="M750.88,33.45q-5.13,16.61-14.16,21l-85.45,42q3.9-15.14,23-24.66Z"/>
        <path d="M755.27,114q0-7.32-8.79-7.32-12.21,0-12.2-3.42,0-6.09,7.32-6.1a12,12,0,0,1,4.88,1q2.44-1.69,7-10.27t5.25-12.21a15.25,15.25,0,0,0-5.4-1.69Q743,74,729.47,91.8T716,120.12q0,9.51,9.65,9.27,7.67-.24,8.41,1.23Q730.12,136,708.39,144L678.61,154.3c0,1.95,1,2.93,3.17,2.93q20.51,0,44.92-11.48Q755.28,132.08,755.27,114Z"/>
        <path d="M823,235.35a525.61,525.61,0,0,0-44.78-103q-15.1,45.42-15.1,136,0,48.84,8,50.29,5.55-2.69,5.55-28.07,0-13.68,6.27-60.55,12.27,23.21,26.52,62.26,16.2,44.67,16.2,63,0,25.63-15.38,50.79-9,14.89-33.44,42.23l-21.24,22.22q-12.45,13.43-17.83,24.41a2.12,2.12,0,0,0,2.44,2q2.19,0,10.23-2.93,57-20.76,75.75-54.94,15.82-28.56,15.83-93.5Q841.94,296.14,823,235.35Z"/>
      </g>
    </g>
  </g>
</svg>
