<svg xmlns="http://www.w3.org/2000/svg" viewBox="0 0 1042.14 664.06">
  <title>EH-Asset 50-layername</title>
  <g id="Layer_2" data-name="Layer 2">
    <g id="ElBais">
      <g>
        <path d="M104.64,68.11q0,18-16.4,39.52l7.47,7.31L87.17,139.1a169.58,169.58,0,0,1-16.12-12.74q-37.84,35.27-57.62,35.26-3.91,0-13.43-2.93,29.79-14.4,62.26-38.08-9.63-9.28-9.62-16.36,0-12.69,13.85-29.67t26-17Q104.64,57.62,104.64,68.11ZM85.11,89.63q0-11.25-9.67-11.26l-3.72,1.47A10.94,10.94,0,0,0,69,87.18q0,4.91,11.65,14.45Q85.11,94,85.11,89.63Z"/>
        <path d="M508.45,601.07q-5.13,16.6-14.16,21l-85.45,42q3.9-15.13,23-24.66Z"/>
        <path d="M631.74,224.07q0,7.08-13.19,35.42Q597.81,271.22,541.4,324q-7.14,40.78-23.68,121.83l-2-.24-.49-1q6.35-23.43,17.82-113.28Q509.17,355.72,485,379.88a435.82,435.82,0,0,1-49.32,42.73l12.21-45.17Q485.49,351.81,507,325.2a139.91,139.91,0,0,0-19.77,2.07,139.4,139.4,0,0,1-20,2.08q-9.78,0-22.71-6.6-14.4-7.32-14.4-16.11,0-7.32,10.49-36.62,12.94-35.89,59.33-49.56,26.61-7.82,33.2-7.81,10.17,0,16.61,10a34.9,34.9,0,0,1,5.61,19.21l-5.61,33.56q11.22-2,18.31-6.57,2.43-1.45,31.25-26.51Q623.2,221.88,630,221.63A2.84,2.84,0,0,1,631.74,224.07Zm-95,55q0-23.19-24.91-23.19-13.42,0-29.78,5.61-18.31,6.11-24.42,16.36,3.18,2,9.53,5.62,14.64,1.21,16.35,1.22Q520.65,284.67,536.77,279.05Z"/>
        <path d="M753.56,374.27l-12.45,46.8q-19.53,13.26-39.55,13.26-27.59,0-37.84-30.95-5.62-17.38-6.59-53.77l-1.84-73.73q-2.07-83-2.07-84.47,0-3.18,5.89-20.76t8-20.5h1.44q.74,42.24,2.93,126.22.24,23.43,5.13,69.33,9.76,47.13,37.35,47.12Q734.51,392.82,753.56,374.27Z"/>
        <path d="M811.67,159.67q-5.13,16.61-14.16,21l-85.45,42Q716,207.52,735,198Z"/>
        <path d="M856.1,24.41q0,19-15.07,35.4T806.86,76.17q-20.1,0-20.09-17.58,0-19.77,14-38.33Q815.93,0,835,0q8.58,0,15.19,8.06A26.1,26.1,0,0,1,856.1,24.41ZM840.23,40.59q0-5.94-8-12.9t-13.88-6.94q-7.36,0-13.38,6.7t-6,14.13q0,10.67,19.16,10.67Q840.23,52.25,840.23,40.59Z"/>
        <path d="M903.22,220.46q0,68.85-17.33,113.77-21,53.72-71.78,88.87l12.21-45.66q62.25-49.8,62.25-100.1,0-37.59-23.68-91.06-4.59,23.92-13.77,71.53-3.87,20.51-6.52,20.51l-2.17-.73-.49-3.18q0-19.77,10.21-74.21,10.71-58.84,18.49-67.63,13.36,8.3,23.58,40.28Q903.22,200.45,903.22,220.46Z"/>
        <path d="M951.07,13.18q-5.13,16.61-14.16,21l-85.45,42q3.9-15.14,22.95-24.66Z"/>
        <path d="M414.94,392.09a27,27,0,0,1-17.46-6.2,19.32,19.32,0,0,1-7.69-15.68q0-6.33,4.52-18t4.76-17.75l-1-2.43-3.9.49-113,105.38Q208.4,501.71,143,501.71q-35.16,0-63-27.25T52.15,412a90.84,90.84,0,0,1,6.58-33.72q35.63-89.21,183.94-89.2,34.4,0,60.5-10,48.78-18.81,56.35-23.95l-.24-2.69q-63,25.4-113,25.15l-43-.25q-52-.24-92.29,26.13T50,377.69q-10.74,24.66-10.74,45.16,0,49.8,27.59,83,29.53,35.4,78.38,35.4,45.65,0,101.81-41.56,35.42-26.42,84.49-78.25,41.26-43.51,47.12-44.74l.49,1.22q-2,5.9-2,15.7,0,16.19,7.72,27.21,8.64,12.75,24,12.75,12,0,30.76-13.23l12.45-46.57Q435.21,392.09,414.94,392.09Z"/>
        <path d="M298.73,193.85a11.63,11.63,0,0,1,7.81,2.93l3.91,7.08q12.93,0,24.9-32.47.24-15.13-16.85-15.14-21.48,0-51.75,40-29.3,38.58-29.54,61.28Q273.09,193.85,298.73,193.85Z"/>
        <path d="M747,467.53Q726,499.75,725,502l21.48,14.9q11-10,22.71-33Q769.19,475.6,747,467.53Z"/>
        <path d="M774.31,401.37q-10,0-14.16-2.69,19.05-26.12,19.05-43.94a43.22,43.22,0,0,0-.73-8.3q-13.68,15.62-26.86,30.76L739.4,422.52l6.59-5.17q9.76,18,30.77,17.95,19.77,0,40.28-15l12.45-46.52q-9.76,9.77-25.63,18.31Q786,401.38,774.31,401.37Z"/>
        <path d="M955.47,93.75q0-7.32-8.79-7.32-12.21,0-12.21-3.42,0-6.11,7.33-6.11a12,12,0,0,1,4.88,1q2.43-1.69,7-10.28t5.25-12.2a15.23,15.23,0,0,0-5.41-1.69q-10.31,0-23.82,17.82t-13.5,28.32q0,9.53,9.65,9.28c5.11-.16,7.92.25,8.41,1.22q-3.9,5.37-25.63,13.43L878.8,134c0,2,1.06,2.93,3.18,2.93q20.5,0,44.92-11.47Q955.46,111.82,955.47,93.75Z"/>
        <path d="M1023.15,215.09a525.35,525.35,0,0,0-44.78-103q-15.09,45.41-15.09,136,0,48.82,8,50.29,5.53-2.68,5.54-28.08,0-13.67,6.28-60.54,12.27,23.19,26.51,62.25,16.21,44.68,16.21,63,0,25.64-15.38,50.78-9,14.89-33.45,42.24L955.71,450.2q-12.45,13.43-17.82,24.41c.16,1.3,1,1.95,2.44,1.95s4.86-1,10.22-2.93q57-20.75,75.76-54.93,15.82-28.56,15.83-93.5Q1042.14,275.88,1023.15,215.09Z"/>
      </g>
    </g>
  </g>
</svg>
