<svg xmlns="http://www.w3.org/2000/svg" viewBox="0 0 849.37 684.33">
  <title>EH-Asset 51-layername</title>
  <g id="Layer_2" data-name="Layer 2">
    <g id="EsShehid">
      <g>
        <path d="M153.32,88.37q0,18.06-16.4,39.52l7.48,7.32-8.55,24.15a172.3,172.3,0,0,1-16.12-12.73q-37.85,35.25-57.62,35.25-3.9,0-13.43-2.92,29.79-14.42,62.26-38.09-9.63-9.27-9.62-16.36,0-12.69,13.85-29.66t26-17Q153.32,77.88,153.32,88.37ZM133.79,109.9q0-11.27-9.67-11.27l-3.72,1.47a11,11,0,0,0-2.72,7.35q0,4.89,11.65,14.44C132.3,116.84,133.79,112.83,133.79,109.9Z"/>
        <path d="M314.21,393.8l-12.45,46.48a174.42,174.42,0,0,1-28.08,16q-19.77,9.35-29.78,9.34-27.1,0-27.1-40.78a112.59,112.59,0,0,1,1.46-15.86h-1.95q-1.47,0-7,6.71t-21.12,35.77q-36.87,68.59-68.6,84.22-18.55,9-32.47,11.48-10.5,1.95-34.67,2a266.28,266.28,0,0,1-27.59-2Q3.66,544.58,0,541.58l.73-1.5,3.42-2q36.87,0,60.06-7.57T116.94,501q31.74-23.44,44.93-42.73,16.84-27.33,33.69-54.93,24.93-38.56,38.82-44.68l2.44,2.2.48,2.44c-.48,1.63-1.22,5.05-2.19,10.26a131.42,131.42,0,0,0-2.44,25.39q0,26.11,21.72,26.12Q276.61,425.05,314.21,393.8Z"/>
        <path d="M444.82,621.34q-5.11,16.59-14.16,21l-85.45,42q3.92-15.15,23-24.66Z"/>
        <path d="M484.13,394.29l-12.45,46.38q-6.1,4.15-22,13.19a124.2,124.2,0,0,0-44.44,43.21q-17.08,27.84-17.09,59.33A109.22,109.22,0,0,1,376,574q-15.89-23.19-15.87-60.54,0-29.29,24.66-115.72,12.69-14.9,26.85-30.77a44.9,44.9,0,0,1,.73,8.3q0,12.94-9,30.77-8.06,16.35-18.31,26.61-9.28,39.79-9.28,55.91,0,16.61,4.64,22,6-22,23.44-48.59Q419.43,438,440.19,423.1Z"/>
        <path d="M710.45,240.72q0,68.85-17.33,113.77-21,53.72-71.78,88.87l12.2-45.65q62.26-49.81,62.26-100.1,0-37.61-23.68-91.07-4.59,23.94-13.77,71.54-3.87,20.51-6.52,20.5l-2.18-.73-.48-3.17q0-19.79,10.21-74.22,10.71-58.83,18.48-67.63,13.38,8.31,23.59,40.29Q710.45,220.71,710.45,240.72Z"/>
        <path d="M758.3,33.45q-5.13,16.61-14.16,21l-85.45,42q3.9-15.14,22.95-24.66Z"/>
        <path d="M291.75,506.84q-15.87,32.22-15.63,39.79,14.36-7.56,21.42-11.72,29.91-17.08,33.81-21,9-9,15.33-36.63-28.92,17.58-36.46,20.76Q296.12,504.16,291.75,506.84Z"/>
        <path d="M332.62,421.63q-10,0-14.16-2.68Q337.41,392.82,337.4,375a42.43,42.43,0,0,0-.73-8.3Q323.08,382.33,310,397.46l-12.14,45.32,6.55-5.17q9.72,18,30.69,18,19.79,0,40.29-15L387.8,394q-9.76,9.76-25.64,18.31Q344.34,421.64,332.62,421.63Z"/>
        <path d="M486,75.28q8.82,6.27,14.44,6.26,17.63,0,29.12-21.24,8.57-15.61,11-36.62L533,25.88Q523.2,55.67,509,55.66q-9.27,0-9.27-17.82l-5.86,1.47q-18.56,32.47-30,32.47-8.55,0-8.55-11.48l.73-7.57-8.54,4.64q-6.84,18.6-6.84,25.26,0,13.8,14.2,13.81Q471.27,96.44,486,75.28Z"/>
        <path d="M546.63,0,477.05,24.41Q460.68,30,450,46.88l79.84-28.33Q539.54,15.15,546.63,0Z"/>
        <path d="M546.63,391.38Q563,381.14,575,353.57q11-25.36,11-46.59v-4.87l-1.22-1.47q-1,.5-9.77,19-9.54,19.51-18.57,26.09c-5.37,3.91-8.88,5.85-10.5,5.85q1.49-9.51,1.48-11.21l-.49-11.22-1.47-1.46q-4.42,3.9-5.4,7.56-4.9,16.1-7.12,20.24-3.68,6.57-14.23,16.58-12.28,11.7-17.67,11.7a201.94,201.94,0,0,0,1.95-20.48l-1.93-.73q-3.87,3.9-9.18,17.85Q487,392.9,480.71,396.81l-12.45,46A154.58,154.58,0,0,0,483.63,430q12.63,1.49,27.71-10.19a85.4,85.4,0,0,0,20.18-23.09l5.35-1a72.26,72.26,0,0,0-.74,10.26q0,20.28,11.23,33.95,12.21,14.65,32.72,14.65,26.37,0,44.19-13.2L637,394.24Q610.11,418,580.57,418,549.07,418,546.63,391.38Z"/>
        <path d="M578.58,190.67a13.35,13.35,0,0,1,8.57,3.17l1,3.91,2.67,3.17q5.33,0,14.87-13.25t9.56-19.38q0-15.21-14.89-15.21-23,0-53.22,39.12-29.05,37.41-30,62.36Q552.85,190.68,578.58,190.67Z"/>
        <path d="M830.38,235.35a525.61,525.61,0,0,0-44.78-103q-15.09,45.42-15.09,136,0,48.84,8,50.29,5.53-2.69,5.54-28.07,0-13.68,6.27-60.55,12.29,23.21,26.52,62.26,16.22,44.67,16.21,63,0,25.63-15.38,50.79-9,14.89-33.45,42.23l-21.24,22.22q-12.45,13.43-17.82,24.41a2.11,2.11,0,0,0,2.43,2q2.19,0,10.23-2.93,57-20.76,75.75-54.94,15.84-28.56,15.84-93.5Q849.37,296.14,830.38,235.35Z"/>
        <path d="M762.7,114q0-7.32-8.79-7.32-12.21,0-12.21-3.42,0-6.09,7.32-6.1a12.13,12.13,0,0,1,4.89,1q2.43-1.69,7-10.27c3-5.72,4.77-9.79,5.25-12.21a15.14,15.14,0,0,0-5.4-1.69q-10.32,0-23.82,17.83t-13.5,28.32q0,9.51,9.65,9.27c5.11-.16,7.92.25,8.41,1.23Q737.55,136,715.82,144L686,154.3q0,2.92,3.18,2.93,20.5,0,44.92-11.48Q762.69,132.08,762.7,114Z"/>
      </g>
    </g>
  </g>
</svg>
