<svg xmlns="http://www.w3.org/2000/svg" viewBox="0 0 686.52 652.34">
  <title>EH-Asset 52-layername</title>
  <g id="Layer_2" data-name="Layer 2">
    <g id="ElHaqq">
      <g>
        <path d="M266.6,436.79l-12.45,46.14a111.74,111.74,0,0,1-26.61,14.16q-2.21,38.35-42.24,94.85-42.48,60.4-77.63,60.4-45.42,0-45.41-69.21,0-27.15,6.83-48.67Q73,522.73,73,518.08q0-5.88-7.33-5.87-10.74,0-28.32,19.09Q22.71,547,15.63,560.67l-2,1.47-1.95-1.7a141.76,141.76,0,0,1,8.54-34.63q.49-1.45,12.45-18.53,23.68-34.14,43-34.14,13.86,0,13.87,17.09,0,13.44-7.08,39.56t-6.84,39.79q0,36.13,36.87,36.13,30.51,0,60.06-34.25,25.88-30.11,34.42-63.38-28.56,11.24-36.13,11.23a12.9,12.9,0,0,1-8.91-3.67,11.19,11.19,0,0,1-4-8.54q0-50.3,27-64.45c1.95-.16,3.65-.25,5.11-.25q14.85,0,30.17,21.73Q238.53,458,266.6,436.79Z"/>
        <path d="M325,161.62q-5.13,16.6-14.16,21l-85.45,42q3.9-15.13,22.95-24.66Z"/>
        <path d="M474.09,437.45l-12.45,46.49q-30,18.51-59.81,18.5-25.89,0-42-19-15.33-18-15.33-44.13,0-12.44,4.38-32Q316.51,432,279.54,464.28,272,502.86,273,529.22l-2.2,4.16-1.22.73-1.22-1.22V502.37l1.95-30.27q-5.85,4.61-17.57,13.35l12.45-45.86,9-8.54q11.74-54.39,22-73.42,20.08-37.06,61.21-37.07,10.75,0,31.63,6.18t31.86,6.19a76.74,76.74,0,0,0,32.23-6.79q-4.39,23.44-15.63,39.32-49.32,10-75.44,33.21a112.51,112.51,0,0,0-1.74,19.78q0,18.8,13.92,30.28,12.93,10.74,32,10.74Q446,459.47,474.09,437.45Zm-106.66-72.2q-20.51-4.9-28.32-4.9-44.67,0-54.44,62.65,28.8-23.73,39.55-31.57Q347.17,374.56,367.43,365.25Z"/>
        <path d="M500.49,87.4q0,19-15.07,35.4t-34.18,16.36q-20.08,0-20.09-17.58,0-19.77,14-38.33Q460.3,63,479.42,63,488,63,494.61,71A26.15,26.15,0,0,1,500.49,87.4Zm-15.87,16.18q0-6-8-12.9t-13.87-6.94q-7.36,0-13.38,6.69t-6,14.14q0,10.67,19.16,10.66Q484.62,115.23,484.62,103.58Z"/>
        <path d="M547.61,283.45q0,68.85-17.34,113.77-21,53.71-71.77,88.86l12.2-45.65Q533,390.63,533,340.33q0-37.59-23.68-91.06-4.59,23.93-13.77,71.53-3.87,20.51-6.52,20.51l-2.18-.73-.48-3.18q0-19.77,10.21-74.22,10.69-58.83,18.48-67.62,13.38,8.3,23.59,40.28Q547.61,263.42,547.61,283.45Z"/>
        <path d="M595.46,76.17q-5.13,16.6-14.16,21l-85.45,42q3.9-15.14,22.95-24.66Z"/>
        <path d="M111.47,5.27Q107.45,0,101.83,0,89.37,0,76.42,12.13T63.48,36.5l1,5.87A58.2,58.2,0,0,0,70.9,50.7q-29.1,17.14-57.44,24,8.31,4.88,14.44,4.88,15.65,0,51.87-23.93,15.66,6.84,25,7.08,3.92-12.5,3.67-15.68l-.25-3.68L100.85,38q14.66-15.44,14.65-21.57A18.06,18.06,0,0,0,111.47,5.27ZM93.1,33.2q-10.59-8.3-10.58-13.42,0-9,8.17-9,7.69,2.94,7.7,8.79Q98.39,25.16,93.1,33.2Z"/>
        <path d="M67.63,100q-9.52,0-9-11.39l.25-4.85-6.35,1.45Q34.41,114,23.19,114c-5.21,0-7.81-3-7.81-9l1.71-10.9L12,94.62Q0,111,0,124l1.71,8.56q5.12,6.62,12.17,6.61,19,0,30.45-19.66,5.84,6.24,9.74,6.23,32.38,0,46-52.49L94,74.7Q81.06,100,67.63,100Z"/>
        <path d="M667.54,278.08a525.35,525.35,0,0,0-44.78-103q-15.1,45.4-15.09,136,0,48.82,8,50.29,5.55-2.68,5.55-28.08,0-13.67,6.27-60.54Q639.71,295.9,654,335q16.2,44.69,16.21,63,0,25.64-15.38,50.78-9,14.89-33.45,42.24L600.1,513.18q-12.45,13.44-17.82,24.42a2.11,2.11,0,0,0,2.43,1.95q2.19,0,10.23-2.93,57-20.75,75.75-54.93,15.82-28.56,15.83-93.51Q686.52,338.88,667.54,278.08Z"/>
        <path d="M599.85,156.74q0-7.32-8.79-7.33-12.21,0-12.2-3.41,0-6.1,7.32-6.11a11.88,11.88,0,0,1,4.88,1q2.45-1.69,7-10.28t5.25-12.2a15,15,0,0,0-5.4-1.69q-10.32,0-23.82,17.82t-13.5,28.32q0,9.53,9.65,9.28c5.11-.16,7.91.24,8.41,1.22q-3.92,5.37-25.64,13.43L523.19,197q0,2.92,3.17,2.93,20.52,0,44.93-11.47Q599.85,174.8,599.85,156.74Z"/>
      </g>
    </g>
  </g>
</svg>
