<svg xmlns="http://www.w3.org/2000/svg" viewBox="0 0 892.48 667.48">
  <title>EH-Asset 53-layername</title>
  <g id="Layer_2" data-name="Layer 2">
    <g id="ElWekil">
      <g>
        <path d="M104.64,10.49q0,18.06-16.4,39.52l7.47,7.32L87.17,81.48A169.73,169.73,0,0,1,71.05,68.75Q33.21,104,13.43,104,9.52,104,0,101.07,29.79,86.67,62.26,63q-9.63-9.29-9.63-16.36,0-12.69,13.86-29.66t26-17Q104.64,0,104.64,10.49ZM85.11,32q0-11.26-9.67-11.27l-3.72,1.47A11,11,0,0,0,69,29.57Q69,34.46,80.64,44C83.62,39,85.11,35,85.11,32Z"/>
        <path d="M351.46,273q-2.19,5.63-51.75,25.88-38.1,15.63-62.26,23.7,2,45.53,4.39,57.51,7.82,37.68,32.23,37.68,11,0,31-16.11l-12.45,46.2q-17.1,12.88-30.77,12.88-26.12,0-34.66-34.95-26.37,101.36-95,127Q112,560.3,97.07,560.3q-24.42,0-45-20.52t-20.63-45q0-62.07,26.41-99.22,25.41-35.43,84.09-59.39,13.44-5.61,39.36-10.75,28.11-5.86,39.84-10v-10q0-9.27-4-40-4.25-32.22-6.5-37.6a389.34,389.34,0,0,1,13.68-39.55q13.41,51,12.69,122.56a890,890,0,0,0,113.53-39.06ZM221.34,343.53V327.88q-75.69,20.06-112.55,41.56-63,36.18-63,92.4,0,25.43,13.41,41.8,14.13,17.6,39,17.6,42.9,0,74.11-28.11,28.28-25.42,41.94-68.69Q221.58,401.22,221.34,343.53Z"/>
        <path d="M283.59,514.4Q267.72,546.64,268,554.2q14.34-7.56,21.41-11.72,29.92-17.09,33.82-21,9-9,15.32-36.62-28.92,17.58-36.46,20.76Q288,511.73,283.59,514.4Z"/>
        <path d="M354,419.92q-17.82,9.29-29.54,9.28-10,0-14.16-2.69,18.93-26.11,18.94-43.94a43.22,43.22,0,0,0-.73-8.3Q314.91,389.9,301.8,405l-12.14,45.32,6.56-5.17q9.72,18,30.69,17.95,19.77,0,40.28-15l12.45-46.53Q369.88,411.38,354,419.92Z"/>
        <path d="M436.67,604.49q-5.13,16.6-14.16,21l-85.45,42Q341,652.35,360,642.82Z"/>
        <path d="M517.23,187.5q-5.12,16.6-14.16,21l-85.44,42q3.9-15.13,22.94-24.66Z"/>
        <path d="M690.57,401.61,678.12,448q-15.61,12.47-56.39,29.82-8.18,36.44-39.07,78-32.22,43.5-64.45,57.45Q491.1,625,450.1,625q-15.63,0-46.39-5.19-36.63-5.94-37.84-12.61l1.95-1.49q7.32.24,23.19,2.93,15.15,2.45,23.44,2.44,16.85,0,49.32-9.52,70.55-20.74,122.31-81.78,18.07-21.24,20.51-37.11-21.24,5.85-28.56,5.86-22.23,0-22.22-14.65,0-15.39,12.45-38.82,13.92-26.13,27.59-26.12,11.94,0,21.35,9.27t9.41,21.24Q667.62,422.13,690.57,401.61Z"/>
        <path d="M706.44,52.25q0,19-15.06,35.4T657.2,104q-20.1,0-20.09-17.57,0-19.79,14-38.33,15.2-20.26,34.31-20.27,8.57,0,15.18,8.06A26.15,26.15,0,0,1,706.44,52.25ZM690.57,68.42q0-5.94-8-12.89t-13.87-7q-7.38,0-13.39,6.7t-6,14.14q0,10.67,19.16,10.66Q690.57,80.08,690.57,68.42Z"/>
        <path d="M753.56,248.29q0,68.85-17.33,113.77-21,53.71-71.78,88.87l12.21-45.66q62.25-49.8,62.25-100.09,0-37.6-23.68-91.07-4.59,23.92-13.77,71.53-3.87,20.52-6.52,20.51l-2.17-.73-.49-3.17q0-19.78,10.22-74.22Q713.2,169.19,721,160.4q13.37,8.31,23.58,40.28Q753.56,228.28,753.56,248.29Z"/>
        <path d="M801.41,41q-5.11,16.6-14.16,21L701.8,104q3.91-15.14,23-24.65Z"/>
        <path d="M578.76,83.5l-3.42,1.22q-31.26,44.43-78.37,85-51,44.19-96.43,61.77-22.47,8.78-53.47,18.31l-1.71,2.93,1.46,1.7q25.64-3.16,57.13-13.91Q396.87,252.2,386.13,281q-11.24,30.51-11.23,40.52,0,3.66.49,9.77l1.22,1q5.61-2.94,10-17.83,5.37-17.58,8.06-21.24,15.61,20.27,15.62,54.69,0,16.85-10.74,32-6.1,9-23.19,25.39l-12.21,45.66q43-32.71,53.84-81.3,8.16-36.87,8.17-49.07,0-18.31-4.33-43.22-5.28-31-13.25-38.33A271.47,271.47,0,0,0,477,201.9q13.19-10,58.84-50.78-5.37,7.09-17.82,45.66-5.13,16.11-14.9,48.58l2.69-.49,3.66-3.9q24.42-62.5,25.39-64.7,21.74-43.21,33.21-64.45Q576.56,96.43,581,88.38a13.7,13.7,0,0,0,.73-2.69C581.69,84.23,580.71,83.5,578.76,83.5Z"/>
        <path d="M873.49,242.92a525.35,525.35,0,0,0-44.78-103q-15.09,45.42-15.09,136,0,48.83,8,50.29,5.55-2.69,5.55-28.07,0-13.68,6.27-60.55,12.27,23.19,26.52,62.25,16.2,44.68,16.2,63,0,25.63-15.38,50.78-9,14.9-33.45,42.24L806.05,478q-12.45,13.43-17.82,24.41c.16,1.31,1,1.95,2.44,1.95s4.87-1,10.23-2.93q57-20.74,75.75-54.93Q892.48,418,892.48,353,892.48,303.71,873.49,242.92Z"/>
        <path d="M805.81,121.58q0-7.32-8.79-7.32-12.21,0-12.21-3.42,0-6.11,7.33-6.1a11.91,11.91,0,0,1,4.88,1q2.43-1.69,7-10.27t5.25-12.21a15.25,15.25,0,0,0-5.4-1.69q-10.32,0-23.82,17.83T766.5,127.69q0,9.51,9.65,9.27c5.11-.16,7.92.25,8.41,1.22q-3.9,5.38-25.63,13.43l-29.79,10.26q0,2.92,3.18,2.92,20.5,0,44.92-11.47Q805.8,139.66,805.81,121.58Z"/>
      </g>
    </g>
  </g>
</svg>
