<svg xmlns="http://www.w3.org/2000/svg" viewBox="0 0 908.1 667.48">
  <title>EH-Asset 12-layername</title>
  <g id="Layer_2" data-name="Layer 2">
    <g id="ElHalik">
      <g>
        <path d="M104.64,10.49q0,18.06-16.4,39.52l7.47,7.32L87.17,81.48A169.73,169.73,0,0,1,71.05,68.75Q33.21,104,13.43,104,9.52,104,0,101.07,29.79,86.67,62.26,63q-9.63-9.29-9.63-16.36,0-12.69,13.86-29.66t26-17Q104.64,0,104.64,10.49ZM85.11,32q0-11.26-9.67-11.27l-3.72,1.47A11,11,0,0,0,69,29.57Q69,34.46,80.64,44C83.62,39,85.11,35,85.11,32Z"/>
        <path d="M266.75,401.63l-12.46,46.14a111.55,111.55,0,0,1-26.61,14.16q-2.19,38.37-42.23,94.85-42.48,60.4-77.64,60.41-45.4,0-45.41-69.22,0-27.13,6.84-48.66,3.9-11.74,3.9-16.39,0-5.87-7.32-5.87-10.75,0-28.32,19.09-14.65,15.67-21.73,29.38L13.82,527l-2-1.71a141.56,141.56,0,0,1,8.55-34.63q.48-1.45,12.45-18.53Q56.53,438,75.87,438q13.88,0,13.87,17.09,0,13.43-7.08,39.55t-6.83,39.79q0,36.14,36.86,36.14,30.52,0,60.06-34.26,25.88-30.09,34.43-63.37Q178.61,484.15,171,484.15a13,13,0,0,1-8.91-3.66,11.25,11.25,0,0,1-4-8.55q0-50.28,27-64.45c1.94-.16,3.64-.24,5.11-.24q14.84,0,30.17,21.72Q238.66,422.88,266.75,401.63Z"/>
        <path d="M325.1,604.49q-5.13,16.6-14.16,21l-85.45,42q3.9-15.13,22.95-24.66Z"/>
        <path d="M341.7,248.29q0,68.85-17.34,113.77-21,53.71-71.77,88.87l12.2-45.66q62.26-49.8,62.26-100.09,0-37.6-23.68-91.07Q298.78,238,289.6,285.64q-3.87,20.52-6.52,20.51l-2.18-.73-.48-3.17q0-19.78,10.21-74.22,10.69-58.84,18.48-67.63,13.38,8.31,23.59,40.28Q341.7,228.28,341.7,248.29Z"/>
        <path d="M488.18,402.1l-12.45,46.8q-19.53,13.26-39.55,13.26-27.58,0-37.84-31-5.62-17.38-6.59-53.77l-1.84-73.73q-2.07-83-2.07-84.47,0-3.17,5.89-20.75t8-20.51h1.44q.73,42.24,2.93,126.22.24,23.43,5.13,69.34,9.77,47.11,37.35,47.11Q469.14,420.65,488.18,402.1Z"/>
        <path d="M546.29,126.46q-5.13,16.62-14.16,21l-85.45,42q3.9-15.13,22.95-24.66Z"/>
        <path d="M578.42,200.68q0-3.9-9.52-9.76-4.65-2.68-12.94-6.59Q535.44,215.08,533.49,219a212.72,212.72,0,0,0,21.73,14.65Q566.69,223.88,578.42,200.68Z"/>
        <path d="M627.56,424.32q-19,0-32-10.75-13.91-11.47-13.91-30.28a112.67,112.67,0,0,1,1.74-19.78q26.11-23.2,75.44-33.21,11.22-15.87,15.62-39.32a76.72,76.72,0,0,1-32.23,6.8q-11,0-31.86-6.19t-31.62-6.19q-41.13,0-61.21,37.08-10.29,19-22,73.42l-9,8.53L474,450.29q11.72-8.73,17.58-13.35l-2,30.27v30.52l1.22,1.22,1.22-.73,2.2-4.15q-1-26.37,6.59-64.95,37-32.25,69.33-56.94-4.38,19.51-4.38,31.95,0,26.08,15.33,44.13,16.13,19,42,19,29.79,0,59.82-18.51l12.45-46.49Q667.35,424.33,627.56,424.32Zm-82-68q-10.74,7.83-39.55,31.57,9.76-62.66,54.45-62.65,7.8,0,28.32,4.89Q568.51,339.39,545.55,356.28Z"/>
        <path d="M722.07,52.25q0,19-15.07,35.4T672.82,104q-20.09,0-20.09-17.57,0-19.79,14-38.33Q681.88,27.84,701,27.83q8.57,0,15.19,8.06A26.15,26.15,0,0,1,722.07,52.25ZM706.2,68.42q0-5.94-8-12.89t-13.87-7q-7.37,0-13.38,6.7t-6,14.14q0,10.67,19.16,10.66Q706.2,80.08,706.2,68.42Z"/>
        <path d="M769.19,248.29q0,68.85-17.34,113.77-21,53.71-71.77,88.87l12.2-45.66q62.26-49.8,62.26-100.09,0-37.6-23.68-91.07-4.59,23.92-13.77,71.53-3.87,20.52-6.52,20.51l-2.18-.73-.48-3.17q0-19.78,10.21-74.22,10.7-58.84,18.48-67.63,13.38,8.31,23.59,40.28Q769.19,228.28,769.19,248.29Z"/>
        <path d="M817,41q-5.13,16.6-14.16,21l-85.45,42q3.9-15.14,23-24.65Z"/>
        <path d="M821.43,121.58q0-7.32-8.79-7.32-12.21,0-12.2-3.42,0-6.11,7.32-6.1a11.88,11.88,0,0,1,4.88,1q2.45-1.69,7-10.27t5.25-12.21a15.25,15.25,0,0,0-5.4-1.69q-10.32,0-23.82,17.83t-13.5,28.32q0,9.51,9.65,9.27,7.66-.24,8.41,1.22-3.91,5.38-25.64,13.43l-29.78,10.26q0,2.92,3.17,2.92,20.52,0,44.93-11.47Q821.43,139.66,821.43,121.58Z"/>
        <path d="M889.12,242.92a525.35,525.35,0,0,0-44.78-103q-15.11,45.42-15.09,136,0,48.83,8,50.29,5.55-2.69,5.55-28.07,0-13.68,6.27-60.55,12.27,23.19,26.52,62.25,16.2,44.68,16.21,63,0,25.63-15.38,50.78-9,14.9-33.45,42.24L821.68,478q-12.45,13.43-17.82,24.41c.16,1.31,1,1.95,2.43,1.95s4.87-1,10.23-2.93q57-20.74,75.75-54.93Q908.1,418,908.1,353,908.1,303.71,889.12,242.92Z"/>
      </g>
    </g>
  </g>
</svg>
