<svg xmlns="http://www.w3.org/2000/svg" viewBox="0 0 745.02 667.48">
  <title>EH-Asset 55-layername</title>
  <g id="Layer_2" data-name="Layer 2">
    <g id="ElMetin">
      <g>
        <path d="M104.64,10.49q0,18.06-16.4,39.52l7.47,7.32L87.17,81.48A169.73,169.73,0,0,1,71.05,68.75Q33.21,104,13.43,104,9.52,104,0,101.07,29.79,86.67,62.26,63q-9.63-9.29-9.63-16.36,0-12.69,13.86-29.66t26-17Q104.64,0,104.64,10.49ZM85.11,32q0-11.26-9.67-11.27l-3.72,1.47A11,11,0,0,0,69,29.57Q69,34.46,80.64,44C83.62,39,85.11,35,85.11,32Z"/>
        <path d="M200.34,633.06v2.19q10-4.87,27.1-14.89,26.85-15.63,30.76-20.26,6.6-7.58,13.18-34.67-34,20.51-55.42,30Q200.35,625.23,200.34,633.06Z"/>
        <path d="M313.63,419.92q-17.83,9.29-30,9.28-9,0-13.19-2.51,19.05-26.06,19-43.88a44.88,44.88,0,0,0-.74-8.3q-8.3,10.75-12.2,16.36-7.33,9.76-27,22Q229,425.79,218.29,425.78q-11-28.06-18-31.25-19.49,28.32-19,44.43,12,12,12,27.59a118.33,118.33,0,0,1-4.16,29.3q-5.86,22.71-30.58,46.39-26.18,24.64-48.43,24.65-18.36,0-29.24-11.12T70,526.29q0-16.12,13.57-47.56t13.58-40.48q0-9.54-10.76-9.54-23.72,0-45.19,26.45-20.51,25-20.51,49.47l1.47,1.47,1.46-.48q18.55-30.76,50.05-32-23.45,52.83-23.45,84.14,0,54,44.61,54.05,35.6,0,71.18-45.57,31-39.68,39.49-79.61l4.64-21.55q10.48-1,24.17-7.52,3.66-1.95,22.46-12.14,11.47,17.7,30.27,17.7,19.78,0,40.29-15l12.45-46.53Q329.49,411.63,313.63,419.92Z"/>
        <path d="M395.41,604.49q-5.13,16.6-14.16,21l-85.45,42q3.9-15.13,22.95-24.66Z"/>
        <path d="M470.36,126.46q-5.13,16.62-14.16,21l-85.45,42q3.9-15.13,22.95-24.66Z"/>
        <path d="M532.13,402.34l-12.45,46.42a36.13,36.13,0,0,1-19.29,5.59q-17.34,0-27.35-15.3-20.51,25.4-25.63,25.39-5.62,0-16.6-12.94-10.26-12-12.21-18.76-5.61,7.53-21,18l12.2-45.43Q421,394.79,443.5,374q2.44,0,24.17,18.31t37.11,18.31A46.77,46.77,0,0,0,532.13,402.34Z"/>
        <path d="M559,52.25q0,19-15.07,35.4T509.74,104q-20.1,0-20.09-17.57,0-19.79,14-38.33,15.2-20.26,34.3-20.27,8.58,0,15.19,8.06A26.15,26.15,0,0,1,559,52.25ZM543.11,68.42q0-5.94-8-12.89t-13.88-7q-7.37,0-13.38,6.7t-6,14.14q0,10.67,19.16,10.66Q543.11,80.08,543.11,68.42Z"/>
        <path d="M606.1,248.29q0,68.85-17.33,113.77-21,53.71-71.78,88.87l12.21-45.66q62.25-49.8,62.25-100.09,0-37.6-23.68-91.07Q563.18,238,554,285.64q-3.87,20.52-6.52,20.51l-2.17-.73-.49-3.17q0-19.78,10.21-74.22,10.71-58.84,18.49-67.63,13.37,8.31,23.58,40.28Q606.1,228.28,606.1,248.29Z"/>
        <path d="M654,41q-5.12,16.6-14.16,21l-85.45,42q3.92-15.14,22.95-24.65Z"/>
        <path d="M368.55,225.34q-30.76,19.78-55.17,29.79Q297.5,285.88,298,294.92q12.88-6.82,19.22-10.5,31.88-17.82,35.28-21.24Q362.22,253.91,368.55,225.34Z"/>
        <path d="M358.12,429.2q-10,0-14.16-2.69,19-26.11,19-43.94a43.22,43.22,0,0,0-.73-8.3Q348.59,389.9,335.45,405l-12.16,45.32,6.57-5.17q9.72,18,30.7,17.95,19.79,0,40.29-15l12.45-46.53q-9.76,9.76-25.64,18.31Q369.84,429.21,358.12,429.2Z"/>
        <path d="M726,242.92a525.35,525.35,0,0,0-44.78-103q-15.09,45.42-15.09,136,0,48.83,8,50.29,5.53-2.69,5.54-28.07,0-13.68,6.28-60.55,12.27,23.19,26.52,62.25,16.2,44.68,16.2,63,0,25.63-15.38,50.78-9,14.9-33.45,42.24L658.59,478q-12.45,13.43-17.82,24.41c.16,1.31,1,1.95,2.44,1.95s4.86-1,10.22-2.93q57-20.74,75.76-54.93Q745,418,745,353,745,303.71,726,242.92Z"/>
        <path d="M658.35,121.58q0-7.32-8.79-7.32-12.21,0-12.21-3.42,0-6.11,7.33-6.1a12,12,0,0,1,4.88,1q2.43-1.69,7-10.27t5.25-12.21a15.23,15.23,0,0,0-5.41-1.69q-10.3,0-23.82,17.83T619,127.69q0,9.51,9.65,9.27c5.11-.16,7.92.25,8.41,1.22q-3.9,5.38-25.63,13.43l-29.79,10.26q0,2.92,3.18,2.92,20.5,0,44.92-11.47Q658.34,139.66,658.35,121.58Z"/>
      </g>
    </g>
  </g>
</svg>
