<svg xmlns="http://www.w3.org/2000/svg" viewBox="0 0 725.1 699.46">
  <title>EH-Asset 56-layername</title>
  <g id="Layer_2" data-name="Layer 2">
    <g id="ElWelijj">
      <g>
        <path d="M233.89,374l-12.7,46.63q-20.5,12.71-41,25.64-37.37,24.9-37.36,33,0,14.89,30,26.12,21,7.58,21,21,0,51-42.83,109.86-45.78,63.22-94.73,63.23Q0,699.46,0,627a200.39,200.39,0,0,1,16.63-79.59q11.75-27.58,39.14-67.14Q93.18,425.79,101,412.6q14.43-24.42,31.55-81.55l3.9,1.71q-2.68,31.5-27.34,84.72-9.76,21-37.11,59.81-29.79,41.76-40,61.53-18.8,35.64-18.8,66.4,0,25.88,16.85,40.29,15.87,13.43,42.24,13.43,24.17,0,66-39.92t41.87-61.4q0-5.86-13.19-10-18.3-5.62-24.17-9.77-13.19-9-13.18-27.34,0-61.77,28.32-84.23Q183.6,408.69,233.89,374Z"/>
        <path d="M285.4,576.66q-5.13,16.61-14.16,21l-85.45,42q3.9-15.15,23-24.66Z"/>
        <path d="M302,220.46q0,68.85-17.33,113.77-21,53.72-71.78,88.87l12.21-45.66q62.25-49.8,62.25-100.1,0-37.59-23.68-91.06-4.59,23.92-13.77,71.53-3.87,20.51-6.52,20.51l-2.17-.73-.49-3.18q0-19.77,10.21-74.21,10.71-58.84,18.49-67.63,13.36,8.3,23.58,40.28Q302,200.45,302,220.46Z"/>
        <path d="M349.85,159.67q-5.12,16.61-14.16,21l-85.45,42q3.91-15.14,22.95-24.66Z"/>
        <path d="M523.19,373.78l-12.45,46.4Q495.11,432.65,454.35,450q-8.18,36.44-39.07,78-32.22,43.51-64.45,57.45-27.1,11.73-68.12,11.74-15.61,0-46.38-5.19Q199.7,586,198.49,579.37l1.95-1.49q7.32.24,23.19,2.93,15.15,2.45,23.44,2.44,16.85,0,49.32-9.52Q366.94,553,418.7,491.94q18.06-21.24,20.51-37.11-21.24,5.87-28.57,5.86-22.22,0-22.21-14.65,0-15.37,12.45-38.81,13.92-26.13,27.59-26.13,11.94,0,21.35,9.28t9.41,21.24Q500.24,394.29,523.19,373.78Z"/>
        <path d="M539.06,24.41q0,19-15.07,35.4T489.82,76.17q-20.1,0-20.09-17.58,0-19.77,14-38.33Q498.89,0,518,0q8.58,0,15.19,8.06A26.1,26.1,0,0,1,539.06,24.41ZM523.19,40.59q0-5.94-8-12.9t-13.88-6.94q-7.36,0-13.38,6.7t-6,14.13q0,10.67,19.16,10.67Q523.19,52.25,523.19,40.59Z"/>
        <path d="M586.18,220.46q0,68.85-17.33,113.77-21,53.72-71.78,88.87l12.21-45.66q62.25-49.8,62.25-100.1,0-37.59-23.68-91.06-4.59,23.92-13.77,71.53-3.87,20.51-6.52,20.51l-2.17-.73-.49-3.18q0-19.77,10.21-74.21,10.71-58.84,18.49-67.63,13.36,8.3,23.58,40.28Q586.18,200.45,586.18,220.46Z"/>
        <path d="M634,13.18q-5.12,16.61-14.16,21l-85.45,42q3.92-15.14,23-24.66Z"/>
        <path d="M74,183.45q-9.51,0-9-11.4l.25-4.84-6.35,1.45q-18.08,28.85-29.3,28.85-7.82,0-7.81-9l1.71-10.91-5.06.49q-12,16.4-12,29.37l1.7,8.56q5.12,6.62,12.18,6.61,19,0,30.44-19.66,5.85,6.23,9.74,6.23,32.4,0,46-52.49l-6.11,1.46Q87.39,183.45,74,183.45Z"/>
        <path d="M117.82,88.77q-4-5.28-9.64-5.27-12.47,0-25.41,12.12T69.82,120l1,5.88a59.66,59.66,0,0,0,6.43,8.33q-29.08,17.15-57.43,24,8.31,4.89,14.43,4.89,15.66,0,51.88-23.93,15.64,6.84,25,7.08,3.92-12.5,3.67-15.69l-.25-3.67-7.3-5.39Q121.85,106,121.85,99.92A18,18,0,0,0,117.82,88.77ZM99.45,116.7q-10.59-8.3-10.58-13.43,0-9,8.17-9,7.69,2.92,7.7,8.79Q104.74,108.64,99.45,116.7Z"/>
        <path d="M706.11,215.09a525.35,525.35,0,0,0-44.78-103q-15.09,45.41-15.09,136,0,48.82,8,50.29,5.53-2.68,5.54-28.08,0-13.67,6.28-60.54,12.27,23.19,26.52,62.25,16.2,44.68,16.2,63,0,25.64-15.38,50.78-9,14.89-33.45,42.24L638.67,450.2q-12.45,13.43-17.82,24.41c.16,1.3,1,1.95,2.44,1.95s4.86-1,10.22-2.93q57-20.75,75.76-54.93,15.83-28.56,15.83-93.5Q725.1,275.88,706.11,215.09Z"/>
        <path d="M638.43,93.75q0-7.32-8.79-7.32-12.21,0-12.21-3.42,0-6.11,7.33-6.11a12,12,0,0,1,4.88,1q2.43-1.69,7-10.28t5.25-12.2a15.23,15.23,0,0,0-5.41-1.69q-10.31,0-23.81,17.82T599.12,99.85q0,9.53,9.65,9.28c5.11-.16,7.92.25,8.41,1.22q-3.9,5.37-25.63,13.43L561.76,134c0,2,1.06,2.93,3.18,2.93q20.5,0,44.92-11.47Q638.42,111.82,638.43,93.75Z"/>
      </g>
    </g>
  </g>
</svg>
