<svg xmlns="http://www.w3.org/2000/svg" viewBox="0 0 925.54 664.06">
  <title>EH-Asset 57-layername</title>
  <g id="Layer_2" data-name="Layer 2">
    <g id="ElHamid">
      <g>
        <path d="M153.32,68.11q0,18-16.4,39.52l7.48,7.31-8.55,24.16a170.85,170.85,0,0,1-16.12-12.74q-37.85,35.27-57.62,35.26-3.9,0-13.43-2.93,29.79-14.4,62.26-38.08-9.63-9.28-9.62-16.36,0-12.69,13.85-29.67t26-17Q153.32,57.62,153.32,68.11ZM133.79,89.63q0-11.25-9.67-11.26l-3.72,1.47a10.93,10.93,0,0,0-2.72,7.34q0,4.91,11.65,14.45Q133.79,94,133.79,89.63Z"/>
        <path d="M314.21,373.54,301.76,420a173.64,173.64,0,0,1-28.08,16q-19.77,9.33-29.78,9.33-27.1,0-27.1-40.77a112.58,112.58,0,0,1,1.46-15.87h-1.95q-1.47,0-7,6.72t-21.12,35.76q-36.87,68.61-68.6,84.23-18.55,9-32.47,11.48-10.5,1.95-34.67,1.95a266.28,266.28,0,0,1-27.59-2Q3.66,524.32,0,521.32l.73-1.5,3.42-2q36.87,0,60.06-7.57t52.73-29.54q31.74-23.43,44.93-42.72,16.84-27.35,33.69-54.93,24.93-38.58,38.82-44.68l2.44,2.2.48,2.44c-.48,1.63-1.22,5-2.19,10.25a131.49,131.49,0,0,0-2.44,25.39q0,26.13,21.72,26.13Q276.61,404.79,314.21,373.54Z"/>
        <path d="M444.82,601.07q-5.11,16.6-14.16,21l-85.45,42q3.92-15.13,23-24.66Z"/>
        <path d="M506.59,374.51l-12.45,46.42a36.07,36.07,0,0,1-19.29,5.58q-17.34,0-27.34-15.29-20.5,25.39-25.63,25.39-5.62,0-16.61-12.94-10.25-12-12.2-18.76-5.62,7.53-21,18l12.21-45.43Q395.5,367,418,346.19q2.43,0,24.17,18.31t37.11,18.31A46.74,46.74,0,0,0,506.59,374.51Z"/>
        <path d="M564,98.63q-5.12,16.61-14.16,21l-85.44,42q3.9-15.13,22.94-24.66Z"/>
        <path d="M713.1,374.46,700.65,421q-30,18.51-59.81,18.5-25.89,0-42-19-15.33-18-15.33-44.13,0-12.44,4.38-31.95Q555.54,369,518.55,401.29,511,439.87,512,466.24l-2.19,4.15-1.23.73-1.22-1.22V439.38l2-30.27q-5.86,4.61-17.58,13.35l12.45-45.86,9-8.54q11.76-54.39,22-73.42,20.07-37.06,61.2-37.07,10.76,0,31.63,6.19t31.86,6.18a76.71,76.71,0,0,0,32.23-6.79q-4.39,23.44-15.63,39.32-49.32,10-75.44,33.21a112.59,112.59,0,0,0-1.74,19.78q0,18.81,13.92,30.28,12.94,10.74,32,10.74Q685,396.48,713.1,374.46Zm-106.65-72.2q-20.52-4.89-28.32-4.9-44.68,0-54.45,62.66,28.8-23.75,39.55-31.57Q586.18,311.56,606.45,302.26Z"/>
        <path d="M739.5,24.41q0,19-15.07,35.4T690.26,76.17q-20.1,0-20.09-17.58,0-19.77,14-38.33Q699.33,0,718.43,0,727,0,733.62,8.06A26.1,26.1,0,0,1,739.5,24.41ZM723.63,40.59q0-5.94-8-12.9t-13.88-6.94q-7.37,0-13.38,6.7t-6,14.13q0,10.67,19.16,10.67Q723.63,52.25,723.63,40.59Z"/>
        <path d="M786.62,220.46q0,68.85-17.33,113.77-21,53.72-71.78,88.87l12.21-45.66Q772,327.64,772,277.34q0-37.59-23.68-91.06-4.59,23.92-13.77,71.53-3.87,20.51-6.52,20.51l-2.17-.73-.49-3.18q0-19.77,10.21-74.21,10.71-58.84,18.49-67.63,13.37,8.3,23.58,40.28Q786.62,200.45,786.62,220.46Z"/>
        <path d="M834.47,13.18q-5.13,16.61-14.16,21l-85.45,42q3.9-15.14,22.95-24.66Z"/>
        <path d="M332.62,401.37q-10,0-14.16-2.69,18.94-26.12,18.94-43.94a42.43,42.43,0,0,0-.73-8.3Q323.08,362.06,310,377.2l-12.14,45.32,6.55-5.17q9.72,18,30.69,17.95,19.79,0,40.29-15l12.45-46.52q-9.76,9.77-25.64,18.31Q344.34,401.38,332.62,401.37Z"/>
        <path d="M291.75,486.57q-15.87,32.24-15.63,39.8,14.36-7.57,21.42-11.72,29.91-17.08,33.81-21,9-9,15.33-36.62-28.92,17.58-36.46,20.75Q296.12,483.89,291.75,486.57Z"/>
        <path d="M906.55,215.09a525.35,525.35,0,0,0-44.78-103q-15.09,45.41-15.09,136,0,48.82,8,50.29,5.54-2.68,5.54-28.08,0-13.67,6.28-60.54Q878.73,232.91,893,272q16.21,44.68,16.21,63,0,25.64-15.38,50.78-9,14.89-33.45,42.24L839.11,450.2q-12.45,13.43-17.82,24.41c.16,1.3,1,1.95,2.44,1.95s4.86-1,10.22-2.93q57-20.75,75.76-54.93,15.82-28.56,15.83-93.5Q925.54,275.88,906.55,215.09Z"/>
        <path d="M838.87,93.75q0-7.32-8.79-7.32-12.21,0-12.21-3.42,0-6.11,7.33-6.11a12,12,0,0,1,4.88,1q2.43-1.69,7-10.28t5.25-12.2a15.23,15.23,0,0,0-5.41-1.69q-10.3,0-23.82,17.82t-13.5,28.32q0,9.53,9.65,9.28c5.11-.16,7.92.25,8.41,1.22q-3.9,5.37-25.63,13.43L762.2,134c0,2,1.06,2.93,3.18,2.93q20.5,0,44.92-11.47Q838.86,111.82,838.87,93.75Z"/>
      </g>
    </g>
  </g>
</svg>
