<svg xmlns="http://www.w3.org/2000/svg" viewBox="0 0 1002.69 699.46">
  <title>EH-Asset 58-layername</title>
  <g id="Layer_2" data-name="Layer 2">
    <g id="ElMuhsi">
      <g>
        <path d="M233.89,374l-12.7,46.63q-20.5,12.71-41,25.64-37.37,24.9-37.36,33,0,14.89,30,26.12,21,7.58,21,21,0,51-42.83,109.86-45.78,63.22-94.73,63.23Q0,699.46,0,627a200.39,200.39,0,0,1,16.63-79.59q11.75-27.58,39.14-67.14Q93.2,425.79,101,412.6q14.43-24.42,31.55-81.55l3.9,1.71q-2.68,31.5-27.34,84.72-9.76,21-37.11,59.81-29.79,41.76-40,61.53-18.8,35.64-18.8,66.4,0,25.88,16.85,40.29,15.87,13.43,42.24,13.43,24.17,0,66-39.92t41.87-61.4q0-5.86-13.19-10-18.3-5.62-24.17-9.77-13.19-9-13.18-27.34,0-61.77,28.32-84.23Q183.6,408.69,233.89,374Z"/>
        <path d="M285.4,601.07q-5.13,16.6-14.16,21l-85.45,42q3.9-15.13,23-24.66Z"/>
        <path d="M465.82,373.78l-12.45,46.63Q427.5,437,394,437q-38.58,0-54.52-47.85-19.38,9.58-32.64,12.45-1.22,14-4.15,30.23l-1.22.49-1.22-.49q-.24-14.5.49-28.76-28.08,7.82-65.67,7.82l-6.59-1.23q-4.89,4.68-15.39,12.81l12.21-45.09,26.86-30.71a44.9,44.9,0,0,1,.73,8.3q0,14.65-14.4,38.09h9.27q15.87,0,57.38-19.05,8.79-33.69,14.16-48.09,11-29.79,25.14-41.51,11-9.27,47.12-22.95,33.45-12.69,43.95-12.69a35,35,0,0,1,3.66.24q4.14,3.91,4.15,12.45,0,4.15-7.31,23.44-21.18,56.16-80.34,94.73Q373.79,396,392.33,396,436.52,396,465.82,373.78ZM422.12,293a5.26,5.26,0,0,0-1-2.93l-4.39-.49q-11.47,0-42.24,12.17-32.72,12.9-42.72,23.61-10.76,11.93-18.56,45a420.32,420.32,0,0,0,82-51.51Q422.13,297.37,422.12,293Z"/>
        <path d="M491.46,109.86q0,19-15.07,35.4t-34.18,16.36q-20.1,0-20.09-17.58,0-19.77,14-38.33,15.19-20.25,34.31-20.26,8.57,0,15.19,8.06A26.16,26.16,0,0,1,491.46,109.86ZM475.59,126q0-6-8-12.9t-13.87-6.94q-7.38,0-13.39,6.7t-6,14.13q0,10.66,19.15,10.67Q475.59,137.7,475.59,126Z"/>
        <path d="M671.11,374.46,658.66,421q-30,18.51-59.81,18.5-25.89,0-42-19-15.33-18-15.33-44.13,0-12.44,4.38-31.95Q513.55,369,476.56,401.29,469,439.87,470,466.24l-2.2,4.15-1.22.73-1.22-1.22V439.38l2-30.27q-5.87,4.61-17.58,13.35l12.45-45.86,9-8.54q11.76-54.39,22-73.42,20.07-37.06,61.2-37.07,10.76,0,31.63,6.19t31.86,6.18a76.74,76.74,0,0,0,32.23-6.79q-4.39,23.44-15.63,39.32-49.32,10-75.44,33.21a112.59,112.59,0,0,0-1.74,19.78q0,18.81,13.92,30.28,12.93,10.74,32,10.74Q643,396.48,671.11,374.46Zm-106.66-72.2q-20.51-4.89-28.32-4.9-44.67,0-54.44,62.66,28.8-23.75,39.55-31.57Q544.19,311.56,564.45,302.26Z"/>
        <path d="M733.15,68.11q0,18-16.39,39.52l7.47,7.31-8.55,24.16a169.51,169.51,0,0,1-16.11-12.74q-37.85,35.27-57.63,35.26-3.9,0-13.42-2.93,29.78-14.4,62.25-38.08-9.62-9.28-9.62-16.36,0-12.69,13.85-29.67t26-17Q733.15,57.62,733.15,68.11ZM713.62,89.63q0-11.25-9.66-11.26l-3.72,1.47a10.94,10.94,0,0,0-2.73,7.34q0,4.91,11.65,14.45Q713.63,94,713.62,89.63Z"/>
        <path d="M789.79,374.51l-12.45,46.42a36.06,36.06,0,0,1-19.28,5.58q-17.34,0-27.35-15.29-20.51,25.39-25.63,25.39-5.62,0-16.6-12.94-10.26-12-12.21-18.76-5.62,7.53-21,18l12.21-45.43Q678.7,367,701.17,346.19q2.45,0,24.17,18.31t37.11,18.31A46.72,46.72,0,0,0,789.79,374.51Z"/>
        <path d="M816.65,24.41q0,19-15.07,35.4T767.41,76.17q-20.1,0-20.1-17.58,0-19.77,14-38.33Q776.46,0,795.58,0q8.58,0,15.19,8.06A26.1,26.1,0,0,1,816.65,24.41ZM800.78,40.59q0-5.94-8-12.9t-13.88-6.94q-7.36,0-13.38,6.7t-6,14.13q0,10.67,19.16,10.67Q800.78,52.25,800.78,40.59Z"/>
        <path d="M863.77,220.46q0,68.85-17.33,113.77-21,53.72-71.78,88.87l12.21-45.66q62.25-49.8,62.25-100.1,0-37.59-23.68-91.06-4.59,23.92-13.77,71.53-3.87,20.51-6.52,20.51l-2.18-.73-.48-3.18q0-19.77,10.21-74.21,10.71-58.84,18.48-67.63,13.38,8.3,23.59,40.28Q863.77,200.45,863.77,220.46Z"/>
        <path d="M911.62,13.18q-5.13,16.61-14.16,21L812,76.17q3.9-15.14,23-24.66Z"/>
        <path d="M916,93.75q0-7.32-8.79-7.32Q895,86.43,895,83q0-6.11,7.32-6.11a12,12,0,0,1,4.89,1q2.43-1.69,6.95-10.28c3-5.71,4.77-9.78,5.25-12.2a15.14,15.14,0,0,0-5.4-1.69q-10.32,0-23.82,17.82t-13.5,28.32q0,9.53,9.65,9.28c5.11-.16,7.92.25,8.41,1.22q-3.9,5.37-25.63,13.43L839.35,134c0,2,1.06,2.93,3.18,2.93q20.51,0,44.92-11.47Q916,111.82,916,93.75Z"/>
        <path d="M983.7,215.09a525.35,525.35,0,0,0-44.78-103q-15.09,45.41-15.09,136,0,48.82,8,50.29,5.54-2.68,5.54-28.08,0-13.67,6.27-60.54,12.28,23.19,26.52,62.25,16.21,44.68,16.21,63,0,25.64-15.38,50.78-9,14.89-33.45,42.24L916.26,450.2q-12.45,13.43-17.82,24.41c.16,1.3,1,1.95,2.44,1.95s4.86-1,10.22-2.93q57-20.75,75.75-54.93,15.84-28.56,15.84-93.5Q1002.69,275.88,983.7,215.09Z"/>
      </g>
    </g>
  </g>
</svg>
