<svg xmlns="http://www.w3.org/2000/svg" viewBox="0 0 729.25 720.46">
  <title>EH-Asset 20-layername</title>
  <g id="Layer_2" data-name="Layer 2">
    <g id="ElAlim">
      <g>
        <path d="M154.3,68.11q0,18-16.4,39.52l7.47,7.31-8.54,24.16a168.32,168.32,0,0,1-16.12-12.74q-37.84,35.27-57.62,35.26-3.92,0-13.43-2.93,29.79-14.4,62.26-38.08-9.63-9.28-9.63-16.36,0-12.69,13.86-29.67t26-17Q154.3,57.62,154.3,68.11ZM134.77,89.63q0-11.25-9.67-11.26l-3.72,1.47a10.94,10.94,0,0,0-2.73,7.34q0,4.91,11.65,14.45Q134.77,94,134.77,89.63Z"/>
        <path d="M222.9,374.76l-12.21,45.65Q182.61,438,154.54,455.32,116,481.93,116,494.38c0,1.8,1,2.69,2.93,2.69q7.32,0,22-15.62,10-10.74,19.77-21.73c1.14.81,1.71,2.19,1.71,4.15q0,3.42-3.66,19-4.63,20-5.13,21.48a64.28,64.28,0,0,1-10.49,19.29q-10.5,13.67-46.44,39.55-41.11,29.53-55.31,43.7Q14.65,633.3,14.65,657q0,23.92,39.55,37.36,32.46,11.22,73.24,11.23,66.9,0,89.36-2.2l.49,1.22q0,7-40.29,12-31.25,3.84-52,3.84-125,0-125-63.23,0-29.06,23.73-65.43,21.29-32.47,48.2-52l30.09-22a41.31,41.31,0,0,1-1.92-12.94q0-19,14.91-44.67,14.86-24.66,31.47-35.41Q197.27,392.34,222.9,374.76Z"/>
        <path d="M354.49,576.66q-5.13,16.61-14.16,21l-85.45,42q3.9-15.15,22.95-24.66Z"/>
        <path d="M401.12,374l-12.45,46.21q-15.63,12.15-33,12.14-26.37,0-25.63-48l.24-23.92q-18.44,41-48.58,62.5L294,377.44q24.3-20,30.68-32.23,7.62-13.9,7.62-42.72,0-12.45-1.21-37t-1.21-37q0-6.35,4.81-21.12T343.3,189l2.16,1q2.43,42.24,2.44,169.92,0,29.29,20.26,29.3Q383.55,389.16,401.12,374Z"/>
        <path d="M457.76,98.63q-5.11,16.61-14.16,21l-85.45,42q3.92-15.13,23-24.66Z"/>
        <path d="M517.82,372.8l-12.69,47.31q-21.24,13.72-40.29,13.73-30.15,0-42.48-45.17-23.07,24.56-37.06,34.12l12.27-45.31,8.1-8.32a17,17,0,0,0-12.28-5.39q-12,0-15.7,1.46,0-6.8,8.3-28.43a136.16,136.16,0,0,1,7.81-16q8.79-9.48,49.56-9.48,28.56,0,28.56,15.58,0,14.11-24.17,40.4,6.6,25.56,27.84,25.56Q495.12,392.82,517.82,372.8Z"/>
        <path d="M543.21,24.41q0,19-15.06,35.4T494,76.17q-20.1,0-20.09-17.58,0-19.77,14-38.33Q503,0,522.14,0q8.58,0,15.19,8.06A26.1,26.1,0,0,1,543.21,24.41ZM527.34,40.59q0-5.94-8-12.9t-13.87-6.94q-7.38,0-13.39,6.7t-6,14.13q0,10.67,19.16,10.67Q527.34,52.25,527.34,40.59Z"/>
        <path d="M590.33,220.46q0,68.85-17.33,113.77-21,53.72-71.78,88.87l12.21-45.66q62.25-49.8,62.25-100.1,0-37.59-23.68-91.06-4.59,23.92-13.77,71.53-3.87,20.51-6.52,20.51l-2.17-.73-.49-3.18q0-19.77,10.21-74.21,10.71-58.84,18.49-67.63,13.37,8.3,23.58,40.28Q590.33,200.45,590.33,220.46Z"/>
        <path d="M638.18,13.18q-5.11,16.61-14.16,21l-85.45,42Q542.48,61,561.52,51.51Z"/>
        <path d="M242.29,401.37c-6.68,0-11.39-.9-14.16-2.69q18.94-26.12,18.94-43.94a42.43,42.43,0,0,0-.73-8.3q-13.6,15.62-26.71,30.76l-12.14,45.32,6.55-5.17q9.72,18,30.69,17.95,19.79,0,40.29-15l12.45-46.52q-9.78,9.77-25.64,18.31Q254,401.38,242.29,401.37Z"/>
        <path d="M201.42,486.57q-15.88,32.24-15.63,39.8,14.36-7.57,21.41-11.72,29.93-17.08,33.82-21,9-9,15.33-36.62-28.94,17.58-36.46,20.75Q205.79,483.89,201.42,486.57Z"/>
        <path d="M642.58,93.75q0-7.32-8.79-7.32-12.21,0-12.21-3.42,0-6.11,7.33-6.11a11.92,11.92,0,0,1,4.88,1q2.43-1.69,7-10.28T646,55.4a15.23,15.23,0,0,0-5.41-1.69q-10.3,0-23.81,17.82T603.27,99.85q0,9.53,9.65,9.28c5.11-.16,7.92.25,8.41,1.22q-3.9,5.37-25.63,13.43L565.91,134c0,2,1.06,2.93,3.18,2.93q20.5,0,44.92-11.47Q642.57,111.82,642.58,93.75Z"/>
        <path d="M710.26,215.09a525.35,525.35,0,0,0-44.78-103q-15.09,45.41-15.09,136,0,48.82,8,50.29,5.53-2.68,5.54-28.08,0-13.67,6.28-60.54,12.27,23.19,26.52,62.25,16.2,44.68,16.2,63,0,25.64-15.38,50.78-9,14.89-33.45,42.24L642.82,450.2Q630.37,463.63,625,474.61c.16,1.3,1,1.95,2.44,1.95s4.87-1,10.23-2.93q57-20.75,75.75-54.93,15.83-28.56,15.83-93.5Q729.25,275.88,710.26,215.09Z"/>
      </g>
    </g>
  </g>
</svg>
