<svg xmlns="http://www.w3.org/2000/svg" viewBox="0 0 835.45 664.06">
  <title>EH-Asset 60-layername</title>
  <g id="Layer_2" data-name="Layer 2">
    <g id="ElMuiid">
      <g>
        <path d="M153.32,68.11q0,18-16.4,39.52l7.48,7.31-8.55,24.16a170.85,170.85,0,0,1-16.12-12.74q-37.85,35.27-57.62,35.26-3.9,0-13.43-2.93,29.79-14.4,62.26-38.08-9.63-9.28-9.62-16.36,0-12.69,13.85-29.67t26-17Q153.32,57.62,153.32,68.11ZM133.79,89.63q0-11.25-9.67-11.26l-3.72,1.47a10.93,10.93,0,0,0-2.72,7.34q0,4.91,11.65,14.45Q133.79,94,133.79,89.63Z"/>
        <path d="M314.21,373.54,301.76,420a173.64,173.64,0,0,1-28.08,16q-19.77,9.33-29.78,9.33-27.1,0-27.1-40.77a112.58,112.58,0,0,1,1.46-15.87h-1.95q-1.47,0-7,6.72t-21.12,35.76q-36.87,68.61-68.6,84.23-18.55,9-32.47,11.48-10.5,1.95-34.67,1.95a266.28,266.28,0,0,1-27.59-2Q3.66,524.32,0,521.32l.73-1.5,3.42-2q36.87,0,60.06-7.57t52.73-29.54q31.74-23.43,44.93-42.72,16.84-27.35,33.69-54.93,24.93-38.58,38.82-44.68l2.44,2.2.48,2.44c-.48,1.63-1.22,5-2.19,10.25a131.49,131.49,0,0,0-2.44,25.39q0,26.13,21.72,26.13Q276.61,404.79,314.21,373.54Z"/>
        <path d="M444.82,601.07q-5.11,16.6-14.16,21l-85.45,42q3.92-15.13,23-24.66Z"/>
        <path d="M504.88,372.8l-12.69,47.31q-21.24,13.72-40.29,13.73-30.15,0-42.48-45.17-23.07,24.56-37.06,34.12l12.27-45.31,8.1-8.32a16.94,16.94,0,0,0-12.27-5.39q-12,0-15.71,1.46,0-6.8,8.3-28.43a136.16,136.16,0,0,1,7.81-16q8.79-9.48,49.56-9.48,28.56,0,28.56,15.58,0,14.11-24.17,40.4,6.6,25.56,27.84,25.56Q482.18,392.82,504.88,372.8Z"/>
        <path d="M565.92,68.11q0,18-16.4,39.52l7.48,7.31-8.55,24.16a169.58,169.58,0,0,1-16.12-12.74q-37.85,35.27-57.62,35.26-3.91,0-13.43-2.93,29.79-14.4,62.26-38.08-9.63-9.28-9.62-16.36,0-12.69,13.85-29.67t26-17Q565.92,57.62,565.92,68.11ZM546.39,89.63q0-11.25-9.67-11.26L533,79.84a10.94,10.94,0,0,0-2.73,7.34q0,4.91,11.65,14.45Q546.39,94,546.39,89.63Z"/>
        <path d="M622.56,374.51l-12.45,46.42a36.09,36.09,0,0,1-19.29,5.58q-17.34,0-27.34-15.29Q543,436.61,537.84,436.61q-5.61,0-16.6-12.94Q511,411.72,509,404.91q-5.61,7.53-21,18l12.2-45.43q11.24-10.49,33.7-31.25,2.43,0,24.17,18.31t37.1,18.31A46.77,46.77,0,0,0,622.56,374.51Z"/>
        <path d="M649.41,24.41q0,19-15.06,35.4T600.17,76.17q-20.1,0-20.09-17.58,0-19.77,14-38.33Q609.23,0,628.35,0q8.56,0,15.19,8.06A26.15,26.15,0,0,1,649.41,24.41ZM633.54,40.59q0-5.94-8-12.9t-13.87-6.94q-7.38,0-13.39,6.7t-6,14.13q0,10.67,19.15,10.67Q633.53,52.25,633.54,40.59Z"/>
        <path d="M696.53,220.46q0,68.85-17.33,113.77-21,53.72-71.78,88.87l12.21-45.66q62.25-49.8,62.25-100.1,0-37.59-23.68-91.06-4.59,23.92-13.77,71.53-3.87,20.51-6.52,20.51l-2.17-.73-.49-3.18q0-19.77,10.22-74.21,10.69-58.84,18.48-67.63,13.37,8.3,23.58,40.28Q696.53,200.45,696.53,220.46Z"/>
        <path d="M744.38,13.18q-5.11,16.61-14.16,21l-85.44,42q3.9-15.14,22.94-24.66Z"/>
        <path d="M332.62,401.37q-10,0-14.16-2.69,18.94-26.12,18.94-43.94a42.43,42.43,0,0,0-.73-8.3Q323.08,362.06,310,377.2l-12.14,45.32,6.55-5.17q9.72,18,30.69,17.95,19.79,0,40.29-15l12.45-46.52q-9.76,9.77-25.64,18.31Q344.34,401.38,332.62,401.37Z"/>
        <path d="M291.75,486.57q-15.87,32.24-15.63,39.8,14.36-7.57,21.42-11.72,29.91-17.08,33.81-21,9-9,15.33-36.62-28.92,17.58-36.46,20.75Q296.12,483.89,291.75,486.57Z"/>
        <path d="M748.78,93.75q0-7.32-8.79-7.32-12.21,0-12.21-3.42,0-6.11,7.33-6.11a11.88,11.88,0,0,1,4.88,1c1.63-1.13,3.94-4.56,7-10.28s4.76-9.78,5.25-12.2a15.25,15.25,0,0,0-5.4-1.69q-10.32,0-23.82,17.82T709.47,99.85q0,9.53,9.65,9.28c5.12-.16,7.92.25,8.42,1.22q-3.91,5.37-25.64,13.43L672.12,134c0,2,1,2.93,3.17,2.93q20.51,0,44.92-11.47Q748.77,111.82,748.78,93.75Z"/>
        <path d="M816.46,215.09a524.76,524.76,0,0,0-44.78-103q-15.09,45.41-15.09,136,0,48.82,8,50.29,5.55-2.68,5.55-28.08,0-13.67,6.27-60.54,12.27,23.19,26.52,62.25,16.2,44.68,16.2,63,0,25.64-15.38,50.78-9,14.89-33.45,42.24L749,450.2q-12.45,13.43-17.82,24.41c.16,1.3,1,1.95,2.44,1.95s4.87-1,10.23-2.93q57-20.75,75.75-54.93,15.82-28.56,15.83-93.5Q835.45,275.88,816.46,215.09Z"/>
      </g>
    </g>
  </g>
</svg>
