<svg xmlns="http://www.w3.org/2000/svg" viewBox="0 0 900.63 691.89">
  <title>EH-Asset 28-layername</title>
  <g id="Layer_2" data-name="Layer 2">
    <g id="ElBesir">
      <g>
        <path d="M213.62,10.49q0,18.06-16.39,39.52l7.47,7.32-8.55,24.15A172.3,172.3,0,0,1,180,68.75Q142.19,104,122.41,104q-3.9,0-13.42-2.93Q138.77,86.67,171.24,63q-9.62-9.29-9.62-16.36,0-12.69,13.85-29.66t26-17Q213.62,0,213.62,10.49ZM194.09,32q0-11.26-9.66-11.27l-3.72,1.47A11,11,0,0,0,178,29.57q0,4.89,11.65,14.44C192.6,39,194.09,35,194.09,32Z"/>
        <path d="M433.59,628.91q-5.11,16.59-14.16,21l-85.45,42q3.91-15.14,22.95-24.65Z"/>
        <path d="M614,401.61l-12.45,46.63q-25.87,16.61-59.32,16.6-38.58,0-54.53-47.85-19.38,9.58-32.63,12.45-1.23,14-4.15,30.23l-1.22.49-1.22-.49q-.25-14.51.48-28.76-28.07,7.83-65.67,7.82l-6.59-1.23q-4.89,4.68-15.38,12.81l12.21-45.09,26.85-30.71a44.9,44.9,0,0,1,.73,8.3q0,14.65-14.4,38.09H396q15.86,0,57.37-19,8.79-33.71,14.16-48.1,11-29.79,25.15-41.5,11-9.28,47.11-22.95,33.45-12.69,44-12.7a35,35,0,0,1,3.66.25q4.15,3.9,4.15,12.45,0,4.15-7.3,23.43-21.18,56.16-80.34,94.73,18.06,16.36,36.62,16.36Q584.71,423.83,614,401.61Zm-43.7-80.81a5.33,5.33,0,0,0-1-2.93l-4.4-.49q-11.48,0-42.23,12.17Q490,342.45,480,353.17q-10.74,11.91-18.55,45a420.61,420.61,0,0,0,82-51.51Q570.31,325.2,570.31,320.8Z"/>
        <path d="M670.17,187.5q-5.13,16.6-14.16,21l-85.45,42q3.9-15.13,23-24.66Z"/>
        <path d="M714.6,52.25q0,19-15.07,35.4T665.36,104q-20.1,0-20.1-17.57,0-19.79,14-38.33,15.18-20.26,34.3-20.27,8.58,0,15.19,8.06A26.15,26.15,0,0,1,714.6,52.25ZM698.73,68.42q0-5.94-8-12.89t-13.88-7q-7.36,0-13.38,6.7t-6,14.14q0,10.67,19.16,10.66Q698.73,80.08,698.73,68.42Z"/>
        <path d="M761.72,248.29q0,68.85-17.34,113.77-21,53.71-71.77,88.87l12.2-45.66q62.27-49.8,62.26-100.09,0-37.6-23.68-91.07Q718.8,238,709.62,285.64q-3.87,20.52-6.52,20.51l-2.18-.73-.48-3.17q0-19.78,10.21-74.22,10.7-58.84,18.48-67.63,13.38,8.31,23.59,40.28Q761.72,228.28,761.72,248.29Z"/>
        <path d="M809.57,41q-5.13,16.6-14.16,21L710,104q3.9-15.14,22.95-24.65Z"/>
        <path d="M308.11,422.12a20.83,20.83,0,0,1-9.53-18.07l-1.22-3.17Q265.88,419,250.24,428.71,231,440.44,219.48,473.19q-8.05,26.88-16.35,53.77-34.18,89.68-104,124.88-37.35,18.81-70.07,18.81A153.75,153.75,0,0,1,2,668.21L0,670.7l.24,1.74q21.5,10.17,77.4,10.18,95,0,134-125.68,4.88-17.61,10-35.46,6.58-20.53,16.36-32.28,13.91-16.86,48.09-35.69,5.87,20.13,25.15,20.12,20.5,0,54-24.79l12.46-46.25q-31.26,25.14-49.08,25.14Q316.65,427.73,308.11,422.12Z"/>
        <path d="M241.21,620.85l.25,2.2q12.16-5.87,27.49-14.9Q294.74,593,299.36,587.4q6.57-7.56,12.9-34.18-38.42,21.24-55.42,30Q241.21,613.28,241.21,620.85Z"/>
        <path d="M632.81,429.2q-10,0-14.16-2.69,19.05-26.11,19.05-43.94a42.39,42.39,0,0,0-.74-8.3Q623.3,389.9,610.11,405L597.9,450.35l6.59-5.17q9.76,18,30.76,17.95,19.79,0,40.29-15L688,401.61q-9.76,9.76-25.64,18.31Q644.53,429.21,632.81,429.2Z"/>
        <path d="M605.47,495.36q-21,32.24-22,34.43L605,544.68q11-10,22.71-33Q627.69,503.42,605.47,495.36Z"/>
        <path d="M814,121.58q0-7.32-8.78-7.32-12.21,0-12.21-3.42,0-6.11,7.32-6.1a12,12,0,0,1,4.89,1q2.43-1.69,7-10.27t5.25-12.21a15.14,15.14,0,0,0-5.4-1.69q-10.32,0-23.82,17.83t-13.5,28.32q0,9.51,9.65,9.27,7.66-.24,8.41,1.22-3.9,5.38-25.63,13.43L737.3,161.87q0,2.92,3.17,2.92,20.52,0,44.93-11.47Q814,139.66,814,121.58Z"/>
        <path d="M881.65,242.92a525.35,525.35,0,0,0-44.78-103q-15.09,45.42-15.09,136,0,48.83,8,50.29,5.55-2.69,5.55-28.07,0-13.68,6.27-60.55,12.29,23.19,26.52,62.25,16.21,44.68,16.21,63,0,25.63-15.38,50.78-9,14.9-33.45,42.24L814.21,478q-12.45,13.43-17.82,24.41c.16,1.31,1,1.95,2.43,1.95s4.87-1,10.23-2.93q57-20.74,75.75-54.93Q900.64,418,900.63,353,900.63,303.71,881.65,242.92Z"/>
      </g>
    </g>
  </g>
</svg>
