<svg xmlns="http://www.w3.org/2000/svg" viewBox="0 0 977.2 664.06">
  <title>EH-Asset 62-layername</title>
  <g id="Layer_2" data-name="Layer 2">
    <g id="ElMumiit">
      <g>
        <path d="M104.64,68.11q0,18-16.4,39.52l7.47,7.31L87.17,139.1a169.58,169.58,0,0,1-16.12-12.74q-37.84,35.27-57.62,35.26-3.91,0-13.43-2.93,29.79-14.4,62.26-38.08-9.63-9.28-9.62-16.36,0-12.69,13.85-29.67t26-17Q104.64,57.62,104.64,68.11ZM85.11,89.63q0-11.25-9.67-11.26l-3.72,1.47A10.94,10.94,0,0,0,69,87.18q0,4.91,11.65,14.45Q85.11,94,85.11,89.63Z"/>
        <path d="M414.94,392.09a27,27,0,0,1-17.46-6.2,19.32,19.32,0,0,1-7.69-15.68q0-6.33,4.52-18t4.76-17.75l-1-2.43-3.9.49-113,105.38Q208.4,501.71,143,501.71q-35.16,0-63-27.22T52.15,412.11a90.69,90.69,0,0,1,6.58-33.69q35.63-89.12,183.94-89.11,34.4,0,60.5-10,48.78-18.8,56.35-23.93l-.24-2.68q-63,25.4-113,25.14l-43-.24q-52-.24-92.29,26.12T50,377.93Q39.21,402.59,39.21,423.1q0,49.8,27.59,83,29.53,35.18,78.38,35.18,45.65,0,101.81-41.56,35.42-26.42,84.49-78.25,41.26-43.51,47.12-44.74l.49,1.22q-2,5.9-2,15.7,0,16.19,7.71,27.21,8.65,12.75,24,12.75,12,0,30.76-13.23l12.45-46.57Q435.21,392.09,414.94,392.09Z"/>
        <path d="M327.54,197.75q2.68-13.91,4.15-18.55A444.45,444.45,0,0,1,276,209q-15.61,31-15.13,39.8Q323.88,217.78,327.54,197.75Z"/>
        <path d="M583.4,601.07q-5.13,16.6-14.16,21l-85.45,42q3.9-15.13,22.95-24.66Z"/>
        <path d="M645.16,374.51l-12.45,46.42a36.06,36.06,0,0,1-19.28,5.58q-17.34,0-27.35-15.29-20.51,25.39-25.63,25.39-5.62,0-16.6-12.94-10.26-12-12.21-18.76-5.62,7.53-21,18l12.21-45.43q11.22-10.49,33.69-31.25,2.44,0,24.17,18.31t37.11,18.31A46.74,46.74,0,0,0,645.16,374.51Z"/>
        <path d="M707.66,68.11q0,18-16.39,39.52l7.47,7.31-8.55,24.16a169.51,169.51,0,0,1-16.11-12.74q-37.85,35.27-57.62,35.26-3.91,0-13.43-2.93,29.78-14.4,62.25-38.08-9.62-9.28-9.62-16.36,0-12.69,13.85-29.67t26-17Q707.66,57.62,707.66,68.11ZM688.13,89.63q0-11.25-9.66-11.26l-3.72,1.47A10.94,10.94,0,0,0,672,87.18q0,4.91,11.65,14.45Q688.14,94,688.13,89.63Z"/>
        <path d="M764.31,374.51l-12.46,46.42a36.06,36.06,0,0,1-19.28,5.58q-17.34,0-27.35-15.29-20.51,25.39-25.63,25.39-5.62,0-16.6-12.94-10.26-12-12.21-18.76-5.62,7.53-21,18L642,377.44q11.24-10.49,33.69-31.25,2.45,0,24.17,18.31T737,382.81A46.77,46.77,0,0,0,764.31,374.51Z"/>
        <path d="M791.16,24.41q0,19-15.07,35.4T741.92,76.17q-20.1,0-20.1-17.58,0-19.77,14-38.33Q751,0,770.09,0q8.58,0,15.19,8.06A26.1,26.1,0,0,1,791.16,24.41ZM775.29,40.59q0-5.94-8-12.9t-13.88-6.94q-7.36,0-13.38,6.7t-6,14.13q0,10.67,19.16,10.67Q775.28,52.25,775.29,40.59Z"/>
        <path d="M838.28,220.46q0,68.85-17.33,113.77-21,53.72-71.78,88.87l12.21-45.66q62.25-49.8,62.25-100.1,0-37.59-23.68-91.06-4.59,23.92-13.77,71.53-3.87,20.51-6.52,20.51l-2.18-.73-.48-3.18q0-19.77,10.21-74.21,10.71-58.84,18.48-67.63,13.38,8.3,23.59,40.28Q838.28,200.45,838.28,220.46Z"/>
        <path d="M886.13,13.18Q881,29.79,872,34.18l-85.45,42q3.9-15.14,23-24.66Z"/>
        <path d="M430.32,486.57q-15.87,32.24-15.62,39.8,14.34-7.57,21.41-11.72,29.92-17.08,33.82-21,9-9,15.32-36.62-28.92,17.58-36.46,20.75Q434.69,483.89,430.32,486.57Z"/>
        <path d="M471.19,401.37q-10,0-14.16-2.69,18.95-26.12,19-43.94a43.22,43.22,0,0,0-.73-8.3q-13.61,15.62-26.72,30.76l-12.14,45.32,6.56-5.17q9.71,18,30.69,17.95,19.77,0,40.28-15l12.45-46.52q-9.76,9.77-25.63,18.31Q482.91,401.38,471.19,401.37Z"/>
        <path d="M958.21,215.09a525.35,525.35,0,0,0-44.78-103q-15.09,45.41-15.09,136,0,48.82,8,50.29,5.54-2.68,5.54-28.08,0-13.67,6.27-60.54Q930.4,232.91,944.63,272q16.22,44.68,16.21,63,0,25.64-15.38,50.78-9,14.89-33.45,42.24L890.77,450.2Q878.32,463.63,873,474.61c.16,1.3,1,1.95,2.44,1.95s4.86-1,10.22-2.93q57-20.75,75.75-54.93,15.84-28.56,15.84-93.5Q977.2,275.88,958.21,215.09Z"/>
        <path d="M890.53,93.75q0-7.32-8.79-7.32-12.21,0-12.21-3.42,0-6.11,7.32-6.11a12,12,0,0,1,4.89,1q2.43-1.69,7-10.28c3-5.71,4.77-9.78,5.25-12.2a15.14,15.14,0,0,0-5.4-1.69q-10.32,0-23.82,17.82t-13.5,28.32q0,9.53,9.65,9.28c5.11-.16,7.92.25,8.41,1.22q-3.9,5.37-25.63,13.43L813.86,134c0,2,1.06,2.93,3.18,2.93q20.51,0,44.92-11.47Q890.52,111.82,890.53,93.75Z"/>
      </g>
    </g>
  </g>
</svg>
