<svg xmlns="http://www.w3.org/2000/svg" viewBox="0 0 646.97 699.46">
  <title>EH-Asset 63-layername</title>
  <g id="Layer_2" data-name="Layer 2">
    <g id="ElHajj">
      <g>
        <path d="M233.89,374l-12.7,46.63q-20.5,12.71-41,25.64-37.37,24.9-37.36,33,0,14.89,30,26.12,21,7.58,21,21,0,51-42.83,109.86-45.78,63.22-94.73,63.23Q0,699.46,0,627a200.39,200.39,0,0,1,16.63-79.59q11.75-27.58,39.14-67.14Q93.18,425.79,101,412.6q14.43-24.42,31.55-81.55l3.9,1.71q-2.68,31.5-27.34,84.72-9.76,21-37.11,59.81-29.79,41.76-40,61.53-18.8,35.64-18.8,66.4,0,25.88,16.85,40.29,15.87,13.43,42.24,13.43,24.17,0,66-39.92t41.87-61.4q0-5.86-13.19-10-18.3-5.62-24.17-9.77-13.19-9-13.18-27.34,0-61.77,28.32-84.23Q183.6,408.69,233.89,374Z"/>
        <path d="M285.4,98.63q-5.13,16.61-14.16,21l-85.45,42q3.9-15.13,23-24.66Z"/>
        <path d="M434.54,374.46,422.09,421q-30,18.51-59.82,18.5-25.87,0-42-19-15.33-18-15.32-44.13,0-12.44,4.38-31.95Q277,369,240,401.29q-7.58,38.58-6.59,64.95l-2.2,4.15-1.22.73-1.22-1.22V439.38l2-30.27q-5.85,4.61-17.58,13.35l12.46-45.86,9-8.54q11.74-54.39,22-73.42,20.09-37.06,61.21-37.07,10.75,0,31.63,6.19t31.86,6.18a76.7,76.7,0,0,0,32.22-6.79q-4.4,23.44-15.62,39.32-49.32,10-75.44,33.21a112.59,112.59,0,0,0-1.74,19.78q0,18.81,13.92,30.28,12.93,10.74,32,10.74Q406.47,396.48,434.54,374.46Zm-106.66-72.2q-20.5-4.89-28.32-4.9-44.67,0-54.44,62.66,28.8-23.75,39.55-31.57Q307.6,311.56,327.88,302.26Z"/>
        <path d="M460.94,24.41q0,19-15.07,35.4T411.69,76.17q-20.08,0-20.09-17.58,0-19.77,14-38.33Q420.75,0,439.87,0q8.56,0,15.19,8.06A26.1,26.1,0,0,1,460.94,24.41ZM445.07,40.59q0-5.94-8-12.9t-13.87-6.94q-7.36,0-13.39,6.7t-6,14.13q0,10.67,19.16,10.67Q445.06,52.25,445.07,40.59Z"/>
        <path d="M508.06,220.46q0,68.85-17.34,113.77-21,53.72-71.77,88.87l12.2-45.66q62.27-49.8,62.26-100.1,0-37.59-23.68-91.06-4.59,23.92-13.77,71.53-3.87,20.51-6.52,20.51l-2.18-.73-.48-3.18q0-19.77,10.21-74.21,10.69-58.84,18.48-67.63,13.38,8.3,23.59,40.28Q508,200.45,508.06,220.46Z"/>
        <path d="M555.91,13.18q-5.13,16.61-14.16,21l-85.45,42Q460.2,61,479.25,51.51Z"/>
        <path d="M117.82,88.77q-4-5.28-9.64-5.27-12.47,0-25.41,12.12T69.82,120l1,5.88a59.66,59.66,0,0,0,6.43,8.33q-29.08,17.15-57.43,24,8.31,4.89,14.43,4.89,15.66,0,51.88-23.93,15.64,6.84,25,7.08,3.92-12.5,3.67-15.69l-.25-3.67-7.3-5.39Q121.85,106,121.85,99.92A18,18,0,0,0,117.82,88.77ZM99.45,116.7q-10.59-8.3-10.58-13.43,0-9,8.17-9,7.69,2.92,7.7,8.79Q104.74,108.64,99.45,116.7Z"/>
        <path d="M74,183.45q-9.51,0-9-11.4l.25-4.84-6.35,1.45q-18.08,28.85-29.3,28.85-7.82,0-7.81-9l1.71-10.91-5.06.49q-12,16.4-12,29.37l1.7,8.56q5.12,6.62,12.18,6.61,19,0,30.44-19.66,5.85,6.23,9.74,6.23,32.4,0,46-52.49l-6.11,1.46Q87.39,183.45,74,183.45Z"/>
        <path d="M628,215.09a525.35,525.35,0,0,0-44.78-103q-15.11,45.41-15.09,136,0,48.82,8,50.29,5.55-2.68,5.55-28.08,0-13.67,6.27-60.54,12.27,23.19,26.52,62.25,16.2,44.68,16.21,63,0,25.64-15.39,50.78-9,14.89-33.44,42.24L560.55,450.2q-12.45,13.43-17.83,24.41a2.12,2.12,0,0,0,2.44,1.95q2.19,0,10.23-2.93,57-20.75,75.75-54.93Q647,390.14,647,325.2,647,275.88,628,215.09Z"/>
        <path d="M560.3,93.75q0-7.32-8.79-7.32-12.21,0-12.2-3.42,0-6.11,7.32-6.11a11.88,11.88,0,0,1,4.88,1q2.44-1.69,7-10.28t5.25-12.2a15.25,15.25,0,0,0-5.4-1.69q-10.32,0-23.82,17.82T521,99.85q0,9.53,9.65,9.28,7.67-.24,8.41,1.22-3.91,5.37-25.64,13.43L483.64,134c0,2,1.06,2.93,3.17,2.93q20.51,0,44.92-11.47Q560.3,111.82,560.3,93.75Z"/>
      </g>
    </g>
  </g>
</svg>
