<svg xmlns="http://www.w3.org/2000/svg" viewBox="0 0 891.01 691.89">
  <title>EH-Asset 13-layername</title>
  <g id="Layer_2" data-name="Layer 2">
    <g id="ElBari">
      <g>
        <path d="M104.64,10.49q0,18.06-16.4,39.52l7.47,7.32L87.17,81.48A169.73,169.73,0,0,1,71.05,68.75Q33.21,104,13.43,104,9.52,104,0,101.07,29.79,86.67,62.26,63q-9.63-9.29-9.63-16.36,0-12.69,13.86-29.66t26-17Q104.64,0,104.64,10.49ZM85.11,32q0-11.26-9.67-11.27l-3.72,1.47A11,11,0,0,0,69,29.57Q69,34.46,80.64,44C83.62,39,85.11,35,85.11,32Z"/>
        <path d="M143.46,228.87q20.52,0,45-11.49Q217,203.67,217,185.58q0-7.34-8.71-7.34-12.1,0-12.1-3.42,0-6.12,7.3-6.12a11.82,11.82,0,0,1,4.86,1q2.44-1.69,6.94-10.28t5.23-12.2a15,15,0,0,0-5.39-1.69q-10.29,0-23.77,17.88t-13.48,28.35q0,9.49,9.65,9.25,7.66-.24,8.42,1.22Q192,207.6,170.2,215.66l-29.92,10.28C140.28,227.9,141.34,228.87,143.46,228.87Z"/>
        <path d="M217.43,295.17q-12.45,0-33.94,21.69-16.85,16.83-27.1,33.16-31.24,48.53-31.25,90.45,0,20.23,17.16,27.8,7.59,3.41,32.1,6.1,17.15,2.22,17.15,9.07,0,16.65-31.8,40t-52.58,23.4q-54.54,0-54.54-54.45,0-44.19,8.55-74,11.48-39.56,41.75-75.2,21.48-24.9,56.88-56.4,27.84-24.41,55.67-48.58,35.88-32,64-87.9L279,147.2,276,148.91q-32.46,50.81-59.81,75l-63,53.75q-36.61,32-57.86,58.87Q30.17,419.08,30.17,506.79q0,85.24,57.3,85.25,43.4,0,85.82-46.7,41.46-45.72,41.45-89.73,0-15.89-7.08-21.76-4.87-4.16-22.46-6.6-20.26-3.18-27.34-6.12-13.19-5.62-13.18-18.11,0-17.86,23.75-43.33t41.63-25.46q13.47,0,13.47,10.28l2.18,3.18q5.55-2.18,13.29-17.26,6.76-13.62,8-21.89Q236.47,295.17,217.43,295.17Z"/>
        <path d="M319.24,628.91q-5.13,16.59-14.16,21l-85.45,42q3.9-15.14,23-24.65Z"/>
        <path d="M446.68,325.34q0,26.24-8.06,27.69L432,345q-6.84.24-11.23,8.07-12,20.77-25.39,54.26-11,28.11-22,56-9.29,22-28.57,43.51-20.5,23-40.77,32-23,10.5-63.23,10.51-60.8,0-62.75-6.3l2.44-1.76q51.27,0,95.22-22,45.64-22.92,73.24-64.63,14.89-22.68,32-60.24l22.46-50.24q19.05-37.8,29.55-37.8,5.85,0,10,6.8A22.49,22.49,0,0,1,446.68,325.34Z"/>
        <path d="M602.44,402.1,590,448.9q-19.54,13.26-39.55,13.26-27.6,0-37.84-31Q507,413.83,506,377.44l-1.83-73.73q-2.09-83-2.07-84.47,0-3.17,5.88-20.75T516,178h1.44q.74,42.24,2.93,126.22.24,23.43,5.13,69.34,9.75,47.11,37.35,47.11Q583.4,420.65,602.44,402.1Z"/>
        <path d="M660.54,187.5q-5.12,16.6-14.16,21l-85.44,42q3.9-15.13,22.94-24.66Z"/>
        <path d="M595.85,495.36q-21,32.24-22,34.43l21.48,14.89q11-10,22.7-33Q618.06,503.42,595.85,495.36Z"/>
        <path d="M652.73,419.92q-17.82,9.29-29.54,9.28-10,0-14.16-2.69,19.05-26.11,19-43.94a42.43,42.43,0,0,0-.73-8.3Q613.66,389.9,600.49,405l-12.21,45.32,6.59-5.17q9.76,18,30.76,17.95,19.79,0,40.29-15l12.45-46.53Q668.61,411.38,652.73,419.92Z"/>
        <path d="M705,52.25q0,19-15.07,35.4T655.73,104q-20.09,0-20.09-17.57,0-19.79,14-38.33,15.18-20.26,34.3-20.27,8.57,0,15.19,8.06A26.15,26.15,0,0,1,705,52.25ZM689.11,68.42q0-5.94-8-12.89t-13.88-7q-7.37,0-13.38,6.7t-6,14.14q0,10.67,19.16,10.66Q689.11,80.08,689.11,68.42Z"/>
        <path d="M752.1,248.29q0,68.85-17.34,113.77-21,53.71-71.77,88.87l12.2-45.66q62.26-49.8,62.26-100.09,0-37.6-23.68-91.07Q709.18,238,700,285.64q-3.87,20.52-6.52,20.51l-2.18-.73-.48-3.17q0-19.78,10.21-74.22,10.69-58.84,18.48-67.63,13.38,8.31,23.59,40.28Q752.1,228.28,752.1,248.29Z"/>
        <path d="M800,41q-5.13,16.6-14.16,21l-85.45,42q3.9-15.14,22.95-24.65Z"/>
        <path d="M804.34,121.58q0-7.32-8.79-7.32-12.21,0-12.2-3.42,0-6.11,7.32-6.1a11.88,11.88,0,0,1,4.88,1q2.44-1.69,7-10.27t5.25-12.21a15.25,15.25,0,0,0-5.4-1.69q-10.32,0-23.82,17.83T765,127.69q0,9.51,9.65,9.27,7.66-.24,8.41,1.22-3.92,5.38-25.64,13.43l-29.78,10.26q0,2.92,3.17,2.92,20.52,0,44.93-11.47Q804.34,139.66,804.34,121.58Z"/>
        <path d="M872,242.92a525.35,525.35,0,0,0-44.78-103q-15.11,45.42-15.09,136,0,48.83,8,50.29,5.55-2.69,5.55-28.07,0-13.68,6.27-60.55,12.27,23.19,26.52,62.25,16.2,44.68,16.21,63,0,25.63-15.38,50.78-9,14.9-33.45,42.24L804.59,478q-12.45,13.43-17.82,24.41c.16,1.31,1,1.95,2.43,1.95s4.87-1,10.23-2.93q57-20.74,75.75-54.93Q891,418,891,353,891,303.71,872,242.92Z"/>
      </g>
    </g>
  </g>
</svg>
