<svg xmlns="http://www.w3.org/2000/svg" viewBox="0 0 953.76 664.06">
  <title>EH-Asset 21-layername</title>
  <g id="Layer_2" data-name="Layer 2">
    <g id="ElKabid">
      <g>
        <path d="M104.64,68.11q0,18-16.4,39.52l7.47,7.31L87.17,139.1a169.58,169.58,0,0,1-16.12-12.74q-37.84,35.27-57.62,35.26-3.91,0-13.43-2.93,29.79-14.4,62.26-38.08-9.63-9.28-9.62-16.36,0-12.69,13.85-29.67t26-17Q104.64,57.62,104.64,68.11ZM85.11,89.63q0-11.25-9.67-11.26l-3.72,1.47A10.94,10.94,0,0,0,69,87.18q0,4.91,11.65,14.45Q85.11,94,85.11,89.63Z"/>
        <path d="M439.35,601.07q-5.12,16.6-14.16,21l-85.45,42q3.92-15.13,22.95-24.66Z"/>
        <path d="M610.5,374.27l-12.45,46.8q-19.54,13.26-39.56,13.26-27.59,0-37.84-30.95Q515,386,514.06,349.61l-1.84-73.73q-2.07-83-2.07-84.47,0-3.18,5.89-20.76t8.05-20.5h1.45q.72,42.24,2.93,126.22.24,23.43,5.12,69.33,9.76,47.13,37.36,47.12Q591.45,392.82,610.5,374.27Z"/>
        <path d="M668.6,13.18q-5.13,16.61-14.16,21L569,76.17q3.9-15.14,23-24.66Z"/>
        <path d="M767.72,24.41q0,19-15.06,35.4T718.48,76.17q-20.1,0-20.09-17.58,0-19.77,14-38.33Q727.55,0,746.65,0q8.58,0,15.19,8.06A26.1,26.1,0,0,1,767.72,24.41ZM751.85,40.59q0-5.94-8-12.9T730,20.75q-7.38,0-13.39,6.7t-6,14.13q0,10.67,19.16,10.67Q751.85,52.25,751.85,40.59Z"/>
        <path d="M814.84,220.46q0,68.85-17.33,113.77-21,53.72-71.78,88.87l12.21-45.66q62.25-49.8,62.25-100.1,0-37.59-23.68-91.06-4.59,23.92-13.77,71.53-3.87,20.51-6.52,20.51l-2.17-.73-.49-3.18q0-19.77,10.21-74.21,10.71-58.84,18.49-67.63,13.37,8.3,23.58,40.28Q814.84,200.45,814.84,220.46Z"/>
        <path d="M862.69,13.18q-5.12,16.61-14.16,21l-85.45,42Q767,61,786,51.51Z"/>
        <path d="M379.44,377.06A260.43,260.43,0,0,1,352,396q-23.19,13.9-35.15,16.35,46.88-66.89,46.87-105.71,0-5.86-3.42-5.86-18.06,0-57.13,24.9-62.49,39.79-80.81,119.63a167.59,167.59,0,0,1-23.08,2.2q-16.77,0-22.84-8-5.1-6.3-6.08-23.75l-1.95-1.21-1.71.49q-17.06,37.89-20.51,50.85a58.74,58.74,0,0,1,10,32.51q0,30.32-29.54,64.05-30,34.47-59.81,34.47-20.28,0-32.48-13.31t-12.2-33.85q0-47.4,35.15-84.06,21.24-22.23,77-56.57t76-55.35q16.11-16.86,17.33-23l-.73-1-2.68.49q-26.34,28.82-81.7,61.53-61.95,36.86-82.19,54.68Q19.65,482.67,6.24,534.42.39,556.89.39,575.2q0,27.59,11.23,44.92,13.19,20.5,39.31,20.51,31.25,0,62.5-30.28,25.14-24.42,41.5-58.34,16.6-40.77,23.93-61.77c2.09,1.63,5.81,2.45,11.13,2.45a89.93,89.93,0,0,0,18.65-2.45q-7.08,32.29-10.5,48.69l1.71,2.45,3.42-2.45L217.19,488q22,0,74.46-36.87,13.43.25,41-10.95,26.13-10.71,38.82-20.2l.51-1.88c-1.59,1.54-3.22,3-4.9,4.47Zm-86.81,29.68q-31.5,27.83-59.82,36.38Q247.47,408,258.2,395q13.19-16.35,43.7-32.47,24.9-13.19,31-13.18l2.2,2.19Q325.33,378.17,292.63,406.74Z"/>
        <path d="M270.16,259.52q0-3.42-9.76-9.52-4.63-2.69-12.7-6.84-14.16,21-22,34.43l21.49,15.13Q259.91,281.26,270.16,259.52Z"/>
        <path d="M385.15,470.46q-6.34-2.93-12.93-6.1-17.1,25.14-22,34.66L372,513.92q15.87-20.26,22.71-33.21Q392.48,474.62,385.15,470.46Z"/>
        <path d="M382.23,288.82q-7.34,18.07-9.53,32.71l.49,1.71,2.69-.24a44,44,0,0,1,10.25-13.43q11,12.71,11,38.09V353q-8.31,16.85-17.58,23.68l-.1.35q2.54-2.06,4.74-4L372,418.14q24.84-23.91,34.78-64.87,8.42-34.9,8.41-42,0-28.08-15.09-49.32Q391,267.09,382.23,288.82Z"/>
        <path d="M379.44,377.06l-12.35,45.55c1.68-1.43,3.31-2.93,4.9-4.47l12.19-45.09Q382,375,379.44,377.06Z"/>
        <path d="M698.2,201.17q2.92-12.45,4.15-18.8-35.65,22-55.66,30-15.15,30-15.14,36.38l.24,2.93Q693.56,220.95,698.2,201.17Z"/>
        <path d="M645.06,381.1q33.56-38.57,33.55-62.25,0-31-14.11-31-6.81,0-20.44,10.76t-25.3,31.29q-12.42,22-12.41,37.64a35.09,35.09,0,0,0,1.2,9.29L595.1,423.76a304.85,304.85,0,0,0,27.79-22.35q14.86,17.44,23.39,23.82a51.87,51.87,0,0,0,31.25,10.32,92.9,92.9,0,0,0,51.76-15.43L742,372.88q-26.87,20.67-58.11,20.67Q653.61,393.55,645.06,381.1Zm-14.25-18.69q-8.35-9.72-8.35-15.57,0-4.38,11-14.11T649.23,323Q662,323,662,332.49,662,346.35,630.81,362.41Z"/>
        <path d="M867.09,93.75q0-7.32-8.79-7.32-12.21,0-12.21-3.42,0-6.11,7.33-6.11a11.92,11.92,0,0,1,4.88,1q2.43-1.69,7-10.28t5.25-12.2a15.23,15.23,0,0,0-5.41-1.69q-10.3,0-23.81,17.82T827.78,99.85q0,9.53,9.65,9.28c5.11-.16,7.92.25,8.41,1.22q-3.9,5.37-25.63,13.43L790.42,134c0,2,1.06,2.93,3.18,2.93q20.5,0,44.92-11.47Q867.08,111.82,867.09,93.75Z"/>
        <path d="M934.77,215.09a524.76,524.76,0,0,0-44.78-103q-15.09,45.41-15.09,136,0,48.82,8,50.29,5.53-2.68,5.54-28.08,0-13.67,6.28-60.54Q907,232.91,921.2,272q16.2,44.68,16.2,63,0,25.64-15.38,50.78-9,14.89-33.45,42.24L867.33,450.2q-12.45,13.43-17.82,24.41c.16,1.3,1,1.95,2.44,1.95s4.87-1,10.23-2.93q57-20.75,75.75-54.93,15.83-28.56,15.83-93.5Q953.76,275.88,934.77,215.09Z"/>
      </g>
    </g>
  </g>
</svg>
