<svg xmlns="http://www.w3.org/2000/svg" viewBox="0 0 881.1 515.63">
  <title>EH-Asset 68-layername</title>
  <g id="Layer_2" data-name="Layer 2">
    <g id="EsSamed">
      <g>
        <path d="M153.32,54.92q0,18.06-16.4,39.52l7.48,7.32-8.55,24.15a170.66,170.66,0,0,1-16.12-12.73q-37.85,35.25-57.62,35.26-3.9,0-13.43-2.93,29.79-14.4,62.26-38.09-9.63-9.27-9.62-16.36,0-12.69,13.85-29.66t26-17Q153.32,44.43,153.32,54.92ZM133.79,76.45q0-11.26-9.67-11.26l-3.72,1.46A11,11,0,0,0,117.68,74q0,4.91,11.65,14.45Q133.79,80.86,133.79,76.45Z"/>
        <path d="M314.21,360.35l-12.45,46.48a172.92,172.92,0,0,1-28.08,16q-19.77,9.34-29.78,9.34-27.1,0-27.1-40.77a112.58,112.58,0,0,1,1.46-15.87h-1.95q-1.47,0-7,6.71T188.23,418q-36.87,68.61-68.6,84.23-18.55,9-32.47,11.47-10.5,2-34.67,2a266.28,266.28,0,0,1-27.59-2q-21.24-2.5-24.9-5.5l.73-1.49,3.42-2q36.87,0,60.06-7.57t52.73-29.54q31.74-23.44,44.93-42.73,16.84-27.33,33.69-54.93,24.93-38.56,38.82-44.67l2.44,2.19.48,2.44c-.48,1.63-1.22,5.05-2.19,10.26a131.42,131.42,0,0,0-2.44,25.39q0,26.13,21.72,26.12Q276.61,391.6,314.21,360.35Z"/>
        <path d="M369.87,85.45q-5.12,16.6-14.16,21l-85.45,42q3.92-15.13,22.95-24.66Z"/>
        <path d="M431.64,361.33l-12.45,46.42a36.07,36.07,0,0,1-19.29,5.58q-17.34,0-27.34-15.3-20.51,25.39-25.64,25.39-5.61,0-16.6-12.94-10.24-12-12.2-18.76-5.62,7.53-21,18l12.21-45.43Q320.55,353.76,343,333q2.43,0,24.17,18.31t37.11,18.31A46.83,46.83,0,0,0,431.64,361.33Z"/>
        <path d="M669.43,360.6,657,407.23q-25.87,16.61-59.32,16.6-38.58,0-54.53-47.85-19.38,9.57-32.63,12.45-1.23,14-4.15,30.23l-1.22.49-1.22-.49q-.26-14.51.48-28.77-28.06,7.83-65.67,7.83l-6.59-1.24q-4.89,4.68-15.38,12.81L429,364.2l26.85-30.7a44.83,44.83,0,0,1,.73,8.3q0,14.64-14.4,38.08h9.28q15.85,0,57.37-19,8.79-33.69,14.16-48.1,11-29.78,25.15-41.5,11-9.27,47.11-23,33.45-12.69,43.95-12.69a34.64,34.64,0,0,1,3.66.24q4.15,3.91,4.15,12.45,0,4.16-7.3,23.44-21.18,56.16-80.34,94.73,18.06,16.35,36.62,16.35Q640.13,382.81,669.43,360.6Zm-43.7-80.81a5.3,5.3,0,0,0-1-2.93l-4.4-.49q-11.48,0-42.23,12.17-32.73,12.9-42.73,23.61-10.74,11.93-18.55,45a421.14,421.14,0,0,0,82-51.52Q625.73,284.18,625.73,279.79Z"/>
        <path d="M742.19,207.28q0,68.84-17.34,113.76-21,53.71-71.77,88.87l12.2-45.65q62.26-49.81,62.26-100.1,0-37.59-23.68-91.06-4.59,23.93-13.77,71.53-3.87,20.5-6.52,20.51l-2.18-.74-.48-3.17q0-19.77,10.21-74.22,10.7-58.83,18.48-67.63,13.38,8.31,23.59,40.29Q742.19,187.26,742.19,207.28Z"/>
        <path d="M790,0q-5.13,16.61-14.16,21L690.43,63q3.9-15.14,23-24.66Z"/>
        <path d="M457.76,107.67q-9.27,0-9.27-17.83l-5.86,1.47q-18.56,32.47-30,32.47-8.55,0-8.55-11.48l.74-7.56-8.55,4.64Q389.4,128,389.4,134.63q0,13.81,14.2,13.81,16.39,0,31.08-21.15,8.82,6.26,14.44,6.25,17.63,0,29.13-21.24,8.55-15.61,11-36.62l-7.57,2.2Q471.93,107.67,457.76,107.67Z"/>
        <path d="M398.68,98.88l79.84-28.32q9.75-3.42,16.84-18.56L425.78,76.42Q409.43,82,398.68,98.88Z"/>
        <path d="M862.12,201.9a525.52,525.52,0,0,0-44.78-103q-15.11,45.41-15.09,136,0,48.84,8,50.3,5.55-2.69,5.55-28.08,0-13.66,6.27-60.55,12.27,23.21,26.52,62.26,16.2,44.67,16.21,63,0,25.64-15.38,50.78-9,14.9-33.45,42.23-10.5,11-21.24,22.22-12.45,13.42-17.82,24.42a2.11,2.11,0,0,0,2.43,1.95q2.19,0,10.23-2.93,57-20.74,75.75-54.93Q881.1,376.95,881.1,312,881.1,262.71,862.12,201.9Z"/>
        <path d="M794.43,80.57q0-7.33-8.79-7.33c-8.14,0-12.2-1.13-12.2-3.42q0-6.09,7.32-6.1a11.88,11.88,0,0,1,4.88,1q2.45-1.71,7-10.28t5.25-12.2a15,15,0,0,0-5.4-1.69q-10.32,0-23.82,17.82t-13.5,28.32q0,9.52,9.65,9.28c5.11-.16,7.91.24,8.41,1.22q-3.91,5.37-25.64,13.43l-29.78,10.25q0,2.93,3.17,2.93,20.52,0,44.93-11.48Q794.43,98.64,794.43,80.57Z"/>
      </g>
    </g>
  </g>
</svg>
