<svg xmlns="http://www.w3.org/2000/svg" viewBox="0 0 975.59 664.06">
  <title>EH-Asset 69-layername</title>
  <g id="Layer_2" data-name="Layer 2">
    <g id="ElKadir">
      <g>
        <path d="M146.24,129.14q0,18.06-16.4,39.52l7.48,7.32-8.55,24.15a172.3,172.3,0,0,1-16.12-12.73Q74.81,222.65,55,222.66q-3.9,0-13.43-2.93,29.79-14.4,62.26-38.09-9.63-9.27-9.62-16.36,0-12.69,13.85-29.66t26-17Q146.24,118.65,146.24,129.14Zm-19.53,21.53q0-11.26-9.67-11.27l-3.72,1.47a11,11,0,0,0-2.72,7.35q0,4.91,11.65,14.45Q126.71,155.08,126.71,150.67Z"/>
        <path d="M268.55,297.51q0,26.24-8.05,27.69l-6.59-8.06q-6.84.24-11.23,8.07-12,20.78-25.39,54.26-11,28.11-22,56-9.27,22-28.56,43.51-20.5,23-40.77,32-23,10.51-63.24,10.51Q2,521.48,0,515.19l2.44-1.76q51.27,0,95.22-21.95,45.65-22.92,73.24-64.63,14.88-22.68,32-60.24l22.46-50.24q19-37.8,29.54-37.81,5.87,0,10,6.81A22.49,22.49,0,0,1,268.55,297.51Z"/>
        <path d="M325.68,601.07q-5.12,16.6-14.16,21l-85.45,42q3.92-15.13,23-24.66Z"/>
        <path d="M469,304.2q0,49.56-34.18,112.06Q400.4,480,347.66,507.81q-14.18,7.57-57.13,12.7-35.89,4.4-61,4.39-13.92,0-17.58-1.22l-1-1.71q5.37-1,18.06-2.2,33.69-3.18,70.32-20.28,70.31-33,120.11-100.7,31-42,31-59.4,0-12-10.5-23t-22.46-11q-14.16,0-46.63,14.66-35.66,16.14-35.64,28.36,0,1.21,8.36,9.53a71.86,71.86,0,0,1,15.25,22q8.37,18.81,8.37,45.21,0,7.33-3.72,19.31-4.47,14.43-9.92,14.42l-2.23-2,1.71-14.4q0-9.76-20.27-35.51T312.5,366.42q0-5.37,7.81-26.36,7.33-20,11.72-27.34,8.06-13.65,47.36-32.45Q418,262,436.28,262q14.16,0,23.93,14.65A48.3,48.3,0,0,1,469,304.2Z"/>
        <path d="M632.32,374.27l-12.45,46.8q-19.53,13.26-39.55,13.26-27.59,0-37.84-30.95-5.62-17.38-6.59-53.77l-1.84-73.73q-2.07-83-2.07-84.47,0-3.18,5.89-20.76t8-20.5h1.44q.74,42.24,2.93,126.22.24,23.43,5.13,69.33,9.76,47.13,37.35,47.12Q613.29,392.82,632.32,374.27Z"/>
        <path d="M690.43,13.18q-5.13,16.61-14.16,21l-85.45,42q3.9-15.14,22.95-24.66Z"/>
        <path d="M789.55,24.41q0,19-15.07,35.4T740.31,76.17q-20.1,0-20.1-17.58,0-19.77,14-38.33Q749.36,0,768.48,0q8.58,0,15.19,8.06A26.1,26.1,0,0,1,789.55,24.41ZM773.68,40.59q0-5.94-8-12.9t-13.88-6.94q-7.37,0-13.38,6.7t-6,14.13q0,10.67,19.16,10.67Q773.68,52.25,773.68,40.59Z"/>
        <path d="M836.67,220.46q0,68.85-17.33,113.77-21,53.72-71.78,88.87l12.21-45.66Q822,327.64,822,277.34q0-37.59-23.68-91.06-4.59,23.92-13.77,71.53-3.87,20.51-6.52,20.51l-2.17-.73-.49-3.18q0-19.77,10.21-74.21,10.71-58.84,18.48-67.63,13.38,8.3,23.59,40.28Q836.67,200.45,836.67,220.46Z"/>
        <path d="M884.52,13.18q-5.13,16.61-14.16,21l-85.45,42q3.9-15.14,23-24.66Z"/>
        <path d="M666.89,381.1q33.54-38.57,33.55-62.25,0-31-14.11-31-6.81,0-20.44,10.76t-25.31,31.29q-12.41,22-12.41,37.64a34.68,34.68,0,0,0,1.21,9.29l-12.46,46.94a304.8,304.8,0,0,0,27.8-22.35q14.87,17.44,23.39,23.82a51.87,51.87,0,0,0,31.25,10.32,92.92,92.92,0,0,0,51.76-15.43l12.69-47.24q-26.85,20.67-58.1,20.67Q675.43,393.55,666.89,381.1Zm-14.25-18.69q-8.35-9.72-8.35-15.57,0-4.38,11.05-14.11T671.06,323q12.78,0,12.78,9.49Q683.84,346.35,652.64,362.41Z"/>
        <path d="M720,201.17q2.93-12.45,4.15-18.8-35.65,22-55.67,30-15.13,30-15.13,36.38l.24,2.93Q715.39,220.95,720,201.17Z"/>
        <path d="M956.6,215.09a525.35,525.35,0,0,0-44.78-103q-15.09,45.41-15.09,136,0,48.82,8,50.29,5.53-2.68,5.54-28.08,0-13.67,6.27-60.54Q928.79,232.91,943,272q16.22,44.68,16.21,63,0,25.64-15.38,50.78-9,14.89-33.45,42.24L889.16,450.2q-12.45,13.43-17.82,24.41c.16,1.3,1,1.95,2.44,1.95s4.86-1,10.22-2.93q57-20.75,75.75-54.93,15.84-28.56,15.84-93.5Q975.59,275.88,956.6,215.09Z"/>
        <path d="M888.92,93.75q0-7.32-8.79-7.32-12.21,0-12.21-3.42,0-6.11,7.32-6.11a12,12,0,0,1,4.89,1q2.43-1.69,7-10.28c3-5.71,4.77-9.78,5.25-12.2a15.14,15.14,0,0,0-5.4-1.69q-10.32,0-23.82,17.82t-13.5,28.32q0,9.53,9.65,9.28c5.11-.16,7.92.25,8.41,1.22q-3.9,5.37-25.63,13.43L812.25,134c0,2,1.06,2.93,3.18,2.93q20.51,0,44.92-11.47Q888.91,111.82,888.92,93.75Z"/>
      </g>
    </g>
  </g>
</svg>
