<svg xmlns="http://www.w3.org/2000/svg" viewBox="0 0 772.22 720.46">
  <title>EH-Asset 29-layername</title>
  <g id="Layer_2" data-name="Layer 2">
    <g id="ElHakem">
      <g>
        <path d="M154.3,68.11q0,18-16.4,39.52l7.47,7.31-8.54,24.16a168.32,168.32,0,0,1-16.12-12.74q-37.84,35.27-57.62,35.26-3.92,0-13.43-2.93,29.79-14.4,62.26-38.08-9.63-9.28-9.63-16.36,0-12.69,13.86-29.67t26-17Q154.3,57.62,154.3,68.11ZM134.77,89.63q0-11.25-9.67-11.26l-3.72,1.47a10.94,10.94,0,0,0-2.73,7.34q0,4.91,11.65,14.45Q134.77,94,134.77,89.63Z"/>
        <path d="M222.9,374.76l-12.21,45.65Q182.61,438,154.54,455.32,116,481.93,116,494.38c0,1.8,1,2.69,2.93,2.69q7.32,0,22-15.62,10-10.74,19.77-21.73c1.14.81,1.71,2.19,1.71,4.15q0,3.42-3.66,19-4.63,20-5.13,21.48a64.28,64.28,0,0,1-10.49,19.29q-10.5,13.67-46.44,39.55-41.11,29.53-55.31,43.7Q14.65,633.3,14.65,657q0,23.92,39.55,37.36,32.46,11.22,73.24,11.23,66.9,0,89.36-2.2l.49,1.22q0,7-40.29,12-31.25,3.84-52,3.84-125,0-125-63.23,0-29.06,23.73-65.43,21.29-32.47,48.2-52l30.09-22a41.31,41.31,0,0,1-1.92-12.94q0-19,14.91-44.67,14.86-24.66,31.47-35.41Q197.27,392.34,222.9,374.76Z"/>
        <path d="M279.54,13.18q-5.13,16.61-14.16,21l-85.45,42q3.9-15.14,22.95-24.66Z"/>
        <path d="M410.64,98.63q-5.11,16.61-14.16,21l-85.44,42Q314.94,146.49,334,137Z"/>
        <path d="M559.78,374.46,547.33,421q-30,18.51-59.81,18.5-25.89,0-42-19-15.33-18-15.33-44.13,0-12.44,4.38-31.95Q402.22,369,365.23,401.29q-7.56,38.58-6.59,64.95l-2.19,4.15-1.23.73L354,469.9V439.38l2-30.27q-5.86,4.61-17.58,13.35l12.45-45.86,9-8.54q11.76-54.39,22-73.42,20.07-37.06,61.2-37.07,10.75,0,31.63,6.19t31.86,6.18a76.71,76.71,0,0,0,32.23-6.79q-4.4,23.44-15.63,39.32-49.32,10-75.44,33.21A112.59,112.59,0,0,0,446,355.46q0,18.81,13.92,30.28,12.94,10.74,32,10.74Q531.71,396.48,559.78,374.46Zm-106.65-72.2q-20.52-4.89-28.33-4.9-44.67,0-54.44,62.66,28.8-23.75,39.55-31.57Q432.86,311.56,453.13,302.26Z"/>
        <path d="M586.18,24.41q0,19-15.07,35.4T536.94,76.17q-20.1,0-20.09-17.58,0-19.77,14-38.33Q546,0,565.11,0q8.58,0,15.19,8.06A26.1,26.1,0,0,1,586.18,24.41ZM570.31,40.59q0-5.94-8-12.9t-13.88-6.94q-7.37,0-13.38,6.7t-6,14.13q0,10.67,19.16,10.67Q570.31,52.25,570.31,40.59Z"/>
        <path d="M633.3,220.46q0,68.85-17.33,113.77-21,53.72-71.78,88.87l12.21-45.66q62.25-49.8,62.25-100.1,0-37.59-23.68-91.06-4.59,23.92-13.77,71.53-3.87,20.51-6.52,20.51l-2.17-.73-.49-3.18q0-19.77,10.21-74.21,10.71-58.84,18.49-67.63,13.37,8.3,23.58,40.28Q633.3,200.45,633.3,220.46Z"/>
        <path d="M681.15,13.18Q676,29.79,667,34.18l-85.45,42q3.9-15.14,23-24.66Z"/>
        <path d="M411.38,3.66Q376,70.32,364,90.09q-29,47.37-60.52,76.9-49,37.84-74.91,54l2.93,1q25.86-5.35,64.66-36.86,33.91-27.1,54.42-53.47-.49,18.81,2,29.54l4.39-2.93Q358.88,116,416.75,2.93l-2.2-1.22Z"/>
        <path d="M280.27,383.54q-4.87-6.82-5.86-26.61-1-19-1.46-74.46Q272.71,235.83,270,208l-2.16-1q-3.14,3.18-8.17,17.21t-5.05,18.92q0,10.26,1.2,30.52t1.21,30.52q0,27.82-7.85,41.75-6.39,11.71-30.21,31.49l-12.2,45.49q30.15-21.48,48.58-62.5,1,39.06,3.66,48.83,7.29,27,34.09,27,25.81,0,48.71-16L354.25,374q-22.47,19.29-48.34,19.29Q287.1,393.31,280.27,383.54Z"/>
        <path d="M685.55,93.75q0-7.32-8.79-7.32-12.21,0-12.21-3.42,0-6.11,7.33-6.11a12,12,0,0,1,4.88,1q2.43-1.69,7-10.28T689,55.4a15.14,15.14,0,0,0-5.4-1.69q-10.3,0-23.82,17.82t-13.5,28.32q0,9.53,9.65,9.28c5.11-.16,7.92.25,8.41,1.22q-3.9,5.37-25.63,13.43L608.88,134c0,2,1.06,2.93,3.18,2.93q20.51,0,44.92-11.47Q685.54,111.82,685.55,93.75Z"/>
        <path d="M753.23,215.09a525.35,525.35,0,0,0-44.78-103q-15.09,45.41-15.09,136,0,48.82,8,50.29,5.53-2.68,5.54-28.08,0-13.67,6.27-60.54,12.29,23.19,26.52,62.25,16.22,44.68,16.21,63,0,25.64-15.38,50.78-9,14.89-33.45,42.24L685.79,450.2Q673.34,463.63,668,474.61c.16,1.3,1,1.95,2.44,1.95s4.86-1,10.22-2.93q57-20.75,75.76-54.93,15.83-28.56,15.83-93.5Q772.22,275.88,753.23,215.09Z"/>
      </g>
    </g>
  </g>
</svg>
