<svg xmlns="http://www.w3.org/2000/svg" viewBox="0 0 1026.61 664.06">
  <title>EH-Asset 70-layername</title>
  <g id="Layer_2" data-name="Layer 2">
    <g id="ElMuktedir">
      <g>
        <path d="M146.24,129.14q0,18.06-16.4,39.52l7.48,7.32-8.55,24.15a172.3,172.3,0,0,1-16.12-12.73Q74.81,222.65,55,222.66q-3.9,0-13.43-2.93,29.79-14.4,62.26-38.09-9.63-9.27-9.62-16.36,0-12.69,13.85-29.66t26-17Q146.24,118.65,146.24,129.14Zm-19.53,21.53q0-11.26-9.67-11.27l-3.72,1.47a11,11,0,0,0-2.72,7.35q0,4.91,11.65,14.45Q126.71,155.08,126.71,150.67Z"/>
        <path d="M268.55,297.51q0,26.24-8.05,27.69l-6.59-8.06q-6.84.24-11.23,8.07-12,20.78-25.39,54.26-11,28.11-22,56-9.27,22-28.56,43.51-20.5,23-40.77,32-23,10.51-63.24,10.51Q2,521.48,0,515.19l2.44-1.76q51.27,0,95.22-21.95,45.65-22.92,73.24-64.63,14.88-22.68,32-60.24l22.46-50.24q19-37.8,29.54-37.81,5.87,0,10,6.81A22.49,22.49,0,0,1,268.55,297.51Z"/>
        <path d="M325.68,601.07q-5.12,16.6-14.16,21l-85.45,42q3.92-15.13,23-24.66Z"/>
        <path d="M491.7,373.54,479.25,420a173.64,173.64,0,0,1-28.08,16q-19.77,9.33-29.78,9.33-27.11,0-27.1-40.77a112.58,112.58,0,0,1,1.46-15.87H393.8q-1.47,0-7,6.72t-21.12,35.76q-36.87,68.61-68.6,84.23-18.56,9-32.47,11.48-10.5,1.95-34.67,1.95a266.28,266.28,0,0,1-27.59-2q-21.24-2.49-24.9-5.49l.73-1.5,3.42-2q36.87,0,60.06-7.57t52.73-29.54q31.74-23.43,44.93-42.72,16.84-27.35,33.69-54.93,24.93-38.58,38.82-44.68l2.44,2.2.48,2.44c-.48,1.63-1.22,5-2.19,10.25a131.49,131.49,0,0,0-2.44,25.39q0,26.13,21.72,26.13Q454.1,404.79,491.7,373.54Z"/>
        <path d="M547.36,13.18q-5.11,16.61-14.16,21l-85.45,42Q451.67,61,470.7,51.51Z"/>
        <path d="M520.51,197.51q-30.76,19.77-55.18,29.78-15.87,30.77-15.38,39.8,12.9-6.82,19.22-10.5,31.88-17.82,35.28-21.24Q514.18,226.08,520.51,197.51Z"/>
        <path d="M539.62,392.09q-17.82,9.29-29.54,9.28-10,0-14.16-2.69,19-26.12,19-43.94a42.43,42.43,0,0,0-.73-8.3q-13.62,15.62-26.75,30.76l-12.16,45.32,6.56-5.17q9.74,18,30.71,17.95,19.77,0,40.28-15l12.45-46.52Q555.49,383.55,539.62,392.09Z"/>
        <path d="M591.8,24.41q0,19-15.07,35.4T542.55,76.17q-20.09,0-20.09-17.58,0-19.77,14-38.33Q551.61,0,570.73,0q8.57,0,15.19,8.06A26.1,26.1,0,0,1,591.8,24.41ZM575.93,40.59q0-5.94-8-12.9t-13.87-6.94q-7.37,0-13.39,6.7t-6,14.13q0,10.67,19.16,10.67Q575.92,52.25,575.93,40.59Z"/>
        <path d="M757.08,68.11q0,18-16.4,39.52l7.48,7.31-8.55,24.16a170.85,170.85,0,0,1-16.12-12.74q-37.85,35.27-57.62,35.26-3.9,0-13.43-2.93,29.79-14.4,62.26-38.08-9.63-9.28-9.62-16.36,0-12.69,13.85-29.67t26-17Q757.08,57.62,757.08,68.11ZM737.55,89.63q0-11.25-9.67-11.26l-3.72,1.47a10.93,10.93,0,0,0-2.72,7.34q0,4.91,11.65,14.45Q737.54,94,737.55,89.63Z"/>
        <path d="M813.72,374.51l-12.45,46.42A36.07,36.07,0,0,1,782,426.51q-17.34,0-27.34-15.29-20.5,25.39-25.64,25.39-5.61,0-16.6-12.94-10.24-12-12.2-18.76-5.62,7.53-21,18l12.21-45.43Q702.63,367,725.1,346.19q2.43,0,24.17,18.31t37.11,18.31A46.76,46.76,0,0,0,813.72,374.51Z"/>
        <path d="M840.58,24.41q0,19-15.07,35.4T791.33,76.17q-20.08,0-20.09-17.58,0-19.77,14-38.33Q800.39,0,819.51,0q8.57,0,15.19,8.06A26.1,26.1,0,0,1,840.58,24.41ZM824.71,40.59q0-5.94-8-12.9t-13.87-6.94q-7.36,0-13.39,6.7t-6,14.13q0,10.67,19.15,10.67Q824.71,52.25,824.71,40.59Z"/>
        <path d="M887.7,220.46q0,68.85-17.34,113.77-21,53.72-71.78,88.87l12.21-45.66q62.25-49.8,62.26-100.1,0-37.59-23.68-91.06-4.59,23.92-13.78,71.53-3.86,20.51-6.52,20.51l-2.17-.73-.48-3.18q0-19.77,10.21-74.21,10.7-58.84,18.48-67.63,13.36,8.3,23.59,40.28Q887.69,200.45,887.7,220.46Z"/>
        <path d="M935.55,13.18q-5.13,16.61-14.16,21l-85.45,42q3.9-15.14,22.95-24.66Z"/>
        <path d="M598.77,381.1q33.56-38.57,33.55-62.25,0-31-14.11-31-6.81,0-20.44,10.76t-25.3,31.29q-12.42,22-12.41,37.64a35.09,35.09,0,0,0,1.2,9.29l-12.45,46.94a306.18,306.18,0,0,0,27.8-22.35q14.85,17.44,23.38,23.82a51.87,51.87,0,0,0,31.25,10.32A92.9,92.9,0,0,0,683,420.12l12.7-47.24q-26.87,20.67-58.11,20.67Q607.32,393.55,598.77,381.1Zm-14.24-18.69q-8.35-9.72-8.36-15.57,0-4.38,11.06-14.11T603,323q12.76,0,12.77,9.49Q615.72,346.35,584.53,362.41Z"/>
        <path d="M651.91,201.17q2.94-12.45,4.15-18.8-35.64,22-55.66,30-15.14,30-15.14,36.38l.25,2.93Q647.26,220.95,651.91,201.17Z"/>
        <path d="M939.94,93.75q0-7.32-8.79-7.32-12.21,0-12.2-3.42,0-6.11,7.32-6.11a11.88,11.88,0,0,1,4.88,1q2.45-1.69,7-10.28t5.25-12.2a15.25,15.25,0,0,0-5.4-1.69q-10.32,0-23.82,17.82T900.63,99.85q0,9.53,9.66,9.28,7.66-.24,8.41,1.22-3.91,5.37-25.64,13.43L863.28,134c0,2,1.05,2.93,3.17,2.93q20.5,0,44.92-11.47Q939.95,111.82,939.94,93.75Z"/>
        <path d="M1007.63,215.09a525.38,525.38,0,0,0-44.79-103q-15.09,45.41-15.09,136,0,48.82,8,50.29,5.55-2.68,5.55-28.08,0-13.67,6.27-60.54Q979.8,232.91,994.05,272q16.2,44.68,16.2,63,0,25.64-15.38,50.78-9,14.89-33.44,42.24L940.19,450.2q-12.47,13.43-17.83,24.41a2.12,2.12,0,0,0,2.44,1.95q2.19,0,10.23-2.93,57-20.75,75.75-54.93,15.83-28.56,15.83-93.5Q1026.61,275.88,1007.63,215.09Z"/>
      </g>
    </g>
  </g>
</svg>
