<svg xmlns="http://www.w3.org/2000/svg" viewBox="0 0 951.07 575.2">
  <title>EH-Asset 71-layername</title>
  <g id="Layer_2" data-name="Layer 2">
    <g id="ElMukaddim">
      <g>
        <path d="M104.64,68.11q0,18-16.4,39.52l7.47,7.31L87.17,139.1a169.58,169.58,0,0,1-16.12-12.74q-37.84,35.27-57.62,35.26-3.91,0-13.43-2.93,29.79-14.4,62.26-38.08-9.63-9.28-9.62-16.36,0-12.69,13.85-29.67t26-17Q104.64,57.62,104.64,68.11ZM85.11,89.63q0-11.25-9.67-11.26l-3.72,1.47A10.94,10.94,0,0,0,69,87.18q0,4.91,11.65,14.45Q85.11,94,85.11,89.63Z"/>
        <path d="M316.55,106.93Q308.5,165,251.18,220.21,200,263.92,148.49,307.86,45.54,403.58,45.56,474.12q0,44.92,69.25,71,52.92,20,106.33,20a385.3,385.3,0,0,0,41-2.2l-3.66,3.9Q226.22,575.2,215,575.2q-72.51,0-118.65-20.51-64-28.08-64-91.07,0-82.51,97.42-176.27,35.4-33.93,105-87.4-1.46-2.19-1.46-8.79,0-3.9,8.78-32.47,23.67,0,40-12.94,10-7.56,21-24.17Q312.15,107.66,316.55,106.93Z"/>
        <path d="M491.11,373.54,478.66,420a173.64,173.64,0,0,1-28.08,16q-19.77,9.33-29.78,9.33-27.1,0-27.1-40.77a112.58,112.58,0,0,1,1.46-15.87h-2c-1,0-3.29,2.24-7,6.72s-10.7,16.4-21.11,35.76q-36.87,68.61-68.61,84.23-18.55,9-32.47,11.48-10.5,1.95-34.67,1.95a266.12,266.12,0,0,1-27.58-2q-21.24-2.49-24.91-5.49l.74-1.5,3.41-2q36.87,0,60.06-7.57t52.74-29.54q31.72-23.43,44.92-42.72,16.85-27.35,33.69-54.93,24.93-38.58,38.82-44.68l2.44,2.2.49,2.44q-.73,2.44-2.2,10.25a131.49,131.49,0,0,0-2.44,25.39q0,26.13,21.73,26.13Q453.52,404.79,491.11,373.54Z"/>
        <path d="M546.78,13.18q-5.13,16.61-14.16,21l-85.45,42q3.9-15.14,22.95-24.66Z"/>
        <path d="M681.54,68.11q0,18-16.39,39.52l7.47,7.31-8.55,24.16A170.85,170.85,0,0,1,648,126.36q-37.85,35.27-57.62,35.26-3.9,0-13.43-2.93,29.79-14.4,62.26-38.08-9.63-9.28-9.62-16.36,0-12.69,13.85-29.67t26-17Q681.54,57.62,681.54,68.11ZM662,89.63q0-11.25-9.67-11.26l-3.72,1.47a10.93,10.93,0,0,0-2.72,7.34q0,4.91,11.65,14.45Q662,94,662,89.63Z"/>
        <path d="M738.18,374.51l-12.45,46.42a36.07,36.07,0,0,1-19.29,5.58q-17.33,0-27.34-15.29-20.51,25.39-25.63,25.39-5.62,0-16.61-12.94-10.25-12-12.2-18.76-5.62,7.53-21,18l12.21-45.43q11.22-10.49,33.69-31.25,2.43,0,24.17,18.31t37.11,18.31A46.74,46.74,0,0,0,738.18,374.51Z"/>
        <path d="M765,24.41q0,19-15.07,35.4T715.79,76.17q-20.09,0-20.09-17.58,0-19.77,14-38.33Q724.85,0,744,0q8.56,0,15.19,8.06A26.1,26.1,0,0,1,765,24.41ZM749.17,40.59q0-5.94-8-12.9t-13.87-6.94q-7.37,0-13.39,6.7t-6,14.13q0,10.67,19.16,10.67Q749.17,52.25,749.17,40.59Z"/>
        <path d="M812.16,220.46q0,68.85-17.34,113.77-21,53.72-71.77,88.87l12.2-45.66q62.26-49.8,62.26-100.1,0-37.59-23.68-91.06-4.59,23.92-13.77,71.53-3.87,20.51-6.52,20.51l-2.18-.73-.48-3.18q0-19.77,10.21-74.21,10.7-58.84,18.48-67.63,13.38,8.3,23.59,40.28Q812.15,200.45,812.16,220.46Z"/>
        <path d="M860,13.18q-5.13,16.61-14.16,21l-85.45,42q3.9-15.14,23-24.66Z"/>
        <path d="M236.72,146.72q-3.66,3.66-11.23,14.89l77.39-31q12.45-5.13,20-21l-70.07,27.83Q242.09,141.6,236.72,146.72Z"/>
        <path d="M306.54,83.5q-7.82,0-7.81-23.93L293.85,61q-18.56,39.54-32.47,39.55-5.62,0-5.62-6.35a71.55,71.55,0,0,1,3.42-20.75l-5.79,1q-13.5,22.71-13.5,35,0,16.11,14.37,16.11,8.76,0,18-6.34t12.91-14.65q7.31,5.27,14.37,5.26,18.75,0,30.2-23.92a91.62,91.62,0,0,0,9-40.77l-6.35,2.44Q320.71,83.49,306.54,83.5Z"/>
        <path d="M523.24,381.1q33.54-38.57,33.55-62.25,0-31-14.12-31-6.81,0-20.43,10.76t-25.31,31.29q-12.4,22-12.41,37.64a35.09,35.09,0,0,0,1.2,9.29l-12.45,46.94a306.18,306.18,0,0,0,27.8-22.35q14.85,17.44,23.39,23.82a51.83,51.83,0,0,0,31.25,10.32,92.89,92.89,0,0,0,51.75-15.43l12.7-47.24q-26.86,20.67-58.11,20.67Q531.78,393.55,523.24,381.1ZM509,362.41q-8.36-9.72-8.36-15.57,0-4.38,11.06-14.11T527.41,323q12.76,0,12.77,9.49Q540.18,346.35,509,362.41Z"/>
        <path d="M576.37,201.17q2.94-12.45,4.15-18.8-35.64,22-55.66,30-15.14,30-15.14,36.38l.25,2.93Q571.72,220.95,576.37,201.17Z"/>
        <path d="M864.4,93.75q0-7.32-8.79-7.32-12.21,0-12.2-3.42,0-6.11,7.32-6.11a11.88,11.88,0,0,1,4.88,1q2.45-1.69,7-10.28t5.25-12.2a15.25,15.25,0,0,0-5.4-1.69q-10.32,0-23.82,17.82T825.1,99.85q0,9.53,9.65,9.28,7.66-.24,8.41,1.22-3.92,5.37-25.64,13.43L787.74,134c0,2,1.06,2.93,3.17,2.93q20.51,0,44.92-11.47Q864.41,111.82,864.4,93.75Z"/>
        <path d="M932.09,215.09a525.35,525.35,0,0,0-44.78-103q-15.1,45.41-15.09,136,0,48.82,7.95,50.29,5.55-2.68,5.55-28.08,0-13.67,6.27-60.54,12.27,23.19,26.52,62.25,16.2,44.68,16.21,63,0,25.64-15.39,50.78-9,14.89-33.44,42.24L864.65,450.2q-12.45,13.43-17.83,24.41a2.12,2.12,0,0,0,2.44,1.95q2.19,0,10.23-2.93,57-20.75,75.75-54.93,15.82-28.56,15.83-93.5Q951.07,275.88,932.09,215.09Z"/>
      </g>
    </g>
  </g>
</svg>
