<svg xmlns="http://www.w3.org/2000/svg" viewBox="0 0 1028.08 634.52">
  <title>EH-Asset 72-layername</title>
  <g id="Layer_2" data-name="Layer 2">
    <g id="ElMuehir">
      <g>
        <path d="M219.48,129.14q0,18.06-16.39,39.52l7.47,7.32L202,200.13a172.3,172.3,0,0,1-16.12-12.73Q148,222.65,128.27,222.66q-3.9,0-13.42-2.93,29.78-14.4,62.25-38.09-9.63-9.27-9.62-16.36,0-12.69,13.85-29.66t26-17Q219.48,118.65,219.48,129.14ZM200,150.67q0-11.26-9.67-11.27l-3.71,1.47a11,11,0,0,0-2.73,7.35q0,4.91,11.65,14.45Q199.95,155.08,200,150.67Z"/>
        <path d="M312.74,374l-12.69,47.12q-30.27,17.58-42.24,25.64-28.56,19-34.91,31.49-19.53,42.24-39.06,84.23-28.32,53.7-59.08,64-23.45,8-51.52,8-56.4,0-72.51-9.51L0,623.78l2-2.2a162.8,162.8,0,0,0,32,2.93q44.91,0,85-28.81,35.39-25.87,59.81-68.36,1.71-3.17,23.19-45.89,13.92-27.84,27-43.58t41.38-33.33Q301.76,385,312.74,374Z"/>
        <path d="M643.55,181.64q-5.12,16.61-14.16,21l-85.44,42q3.9-15.13,22.94-24.66Z"/>
        <path d="M758.54,68.11q0,18-16.39,39.52l7.47,7.31-8.55,24.16A169.51,169.51,0,0,1,725,126.36q-37.85,35.27-57.62,35.26-3.92,0-13.43-2.93,29.77-14.4,62.25-38.08-9.61-9.28-9.62-16.36,0-12.69,13.85-29.67t26-17Q758.54,57.62,758.54,68.11ZM739,89.63q0-11.25-9.66-11.26l-3.72,1.47a10.94,10.94,0,0,0-2.73,7.34q0,4.91,11.65,14.45Q739,94,739,89.63Z"/>
        <path d="M815.19,374.51l-12.46,46.42a36.06,36.06,0,0,1-19.28,5.58q-17.34,0-27.35-15.29-20.51,25.39-25.63,25.39-5.62,0-16.6-12.94-10.26-12-12.21-18.76-5.62,7.53-21,18l12.21-45.43q11.24-10.49,33.69-31.25,2.45,0,24.17,18.31t37.11,18.31A46.77,46.77,0,0,0,815.19,374.51Z"/>
        <path d="M842,24.41q0,19-15.07,35.4T792.8,76.17q-20.1,0-20.09-17.58,0-19.77,14-38.33Q801.85,0,821,0q8.58,0,15.19,8.06A26.1,26.1,0,0,1,842,24.41ZM826.17,40.59q0-5.94-8-12.9t-13.88-6.94q-7.37,0-13.38,6.7t-6,14.13q0,10.67,19.16,10.67Q826.17,52.25,826.17,40.59Z"/>
        <path d="M889.16,220.46q0,68.85-17.33,113.77-21,53.72-71.78,88.87l12.21-45.66q62.25-49.8,62.25-100.1,0-37.59-23.68-91.06-4.59,23.92-13.77,71.53-3.87,20.51-6.52,20.51l-2.17-.73-.49-3.18q0-19.77,10.21-74.21,10.71-58.84,18.49-67.63,13.36,8.3,23.58,40.28Q889.16,200.45,889.16,220.46Z"/>
        <path d="M937,13.18q-5.13,16.61-14.16,21l-85.45,42q3.9-15.14,23-24.66Z"/>
        <path d="M367.43,109.61l-70.07,27.83q-10.74,4.16-16.11,9.28-3.66,3.66-11.23,14.89l77.39-31Q359.86,125.48,367.43,109.61Z"/>
        <path d="M298.79,125.59q8.77,0,18-6.34t12.91-14.65q7.3,5.27,14.37,5.26,18.75,0,30.2-23.92a91.62,91.62,0,0,0,9-40.77L377,47.61Q365.24,83.49,351.07,83.5q-7.81,0-7.81-23.93L338.38,61q-18.56,39.54-32.47,39.55-5.62,0-5.62-6.35a71.55,71.55,0,0,1,3.42-20.75l-5.79,1q-13.5,22.71-13.5,35Q284.42,125.59,298.79,125.59Z"/>
        <path d="M336.67,396.48v-5.85q33-33,66.16-65.92a285.68,285.68,0,0,1,78.62-50.3q2.67-4.14,6-17.57t3.29-19.29l-.24-2.69q-23.93,14.41-53.71,14.41a111.91,111.91,0,0,1-14.41-1.35,113.22,113.22,0,0,0-14.4-1.34q-37.84,0-55.42,17.34-16.12,15.61-22.85,53.95-4.74,27.35-4.74,32l.25,13.92-15.39,12.94-12.45,45.9a263.54,263.54,0,0,0,30-23.68,433.58,433.58,0,0,0,11.48,61.76l1.71.74A4.26,4.26,0,0,0,342,458.5V457Q336.42,405.28,336.67,396.48ZM335,346.68a77.54,77.54,0,0,1,6.1-29.05q8.55-21.24,27.84-27.35,11-3.66,40.52-4.15-13.91,10.75-37.35,34.67Q347.65,345.7,335,356Z"/>
        <path d="M368.41,129.88q-15.15,21.74-22,34.18,14.4,10.26,21.72,15.14,12.45-12.45,22.95-33,0-4.4-9.52-10A102.53,102.53,0,0,0,368.41,129.88Z"/>
        <path d="M623.89,390.38q-9.4-9.27-21.35-9.28-13.68,0-27.59,26.13Q562.5,430.66,562.5,446q0,14.65,22.22,14.65,7.32,0,28.56-5.86a48.6,48.6,0,0,1-7.08,20.27q-2.44,3.66-13.43,16.84Q541,553,470.46,573.73q-32.47,9.53-49.32,9.52-8.29,0-23.43-2.44-15.87-2.68-23.2-2.93l-1.95,1.49Q373.79,586,410.4,592q30.77,5.19,46.39,5.19,41,0,68.11-11.74,32.24-13.92,64.46-57.43,30.89-41.56,39.06-78,40.77-17.34,56.39-29.82l12.46-46.44q-23,20.52-64,37.86Q633.3,399.67,623.89,390.38Z"/>
        <path d="M551.51,317.26q20.5,0,44.92-11.5,28.38-13.69,28.38-31.8,0-7.33-8.71-7.34-12.09,0-12.1-3.42,0-6.12,7.26-6.12a11.68,11.68,0,0,1,4.83,1q2.42-1.69,6.89-10.27t5.2-12.21a14.88,14.88,0,0,0-5.37-1.69q-10.26,0-23.69,17.88t-13.43,28.36q0,9.48,9.65,9.24c5.12-.16,7.92.25,8.42,1.23q-3.91,5.37-25.64,13.45l-29.78,10.27C548.34,316.28,549.39,317.26,551.51,317.26Z"/>
        <path d="M1009.09,215.09a525.35,525.35,0,0,0-44.78-103q-15.09,45.41-15.09,136,0,48.82,8,50.29,5.54-2.68,5.54-28.08,0-13.67,6.27-60.54,12.28,23.19,26.52,62.25,16.22,44.68,16.21,63,0,25.64-15.38,50.78-9,14.89-33.45,42.24L941.65,450.2q-12.45,13.43-17.82,24.41c.16,1.3,1,1.95,2.44,1.95s4.86-1,10.22-2.93q57-20.75,75.76-54.93,15.82-28.56,15.83-93.5Q1028.08,275.88,1009.09,215.09Z"/>
        <path d="M941.41,93.75q0-7.32-8.79-7.32-12.21,0-12.21-3.42,0-6.11,7.32-6.11a12,12,0,0,1,4.89,1q2.43-1.69,7-10.28c3-5.71,4.76-9.78,5.24-12.2a15.14,15.14,0,0,0-5.4-1.69q-10.32,0-23.82,17.82T902.1,99.85q0,9.53,9.65,9.28c5.11-.16,7.92.25,8.41,1.22q-3.9,5.37-25.63,13.43L864.74,134c0,2,1.06,2.93,3.18,2.93q20.51,0,44.92-11.47Q941.4,111.82,941.41,93.75Z"/>
      </g>
    </g>
  </g>
</svg>
