<svg xmlns="http://www.w3.org/2000/svg" viewBox="0 0 1056.64 597.17">
  <title>EH-Asset 14-layername</title>
  <g id="Layer_2" data-name="Layer 2">
    <g id="ElMusavir">
      <g>
        <path d="M146.24,129.14q0,18.06-16.4,39.52l7.48,7.32-8.55,24.15a172.3,172.3,0,0,1-16.12-12.73Q74.81,222.65,55,222.66q-3.9,0-13.43-2.93,29.79-14.4,62.26-38.09-9.63-9.27-9.62-16.36,0-12.69,13.85-29.66t26-17Q146.24,118.65,146.24,129.14Zm-19.53,21.53q0-11.26-9.67-11.27l-3.72,1.47a11,11,0,0,0-2.72,7.35q0,4.91,11.65,14.45Q126.71,155.08,126.71,150.67Z"/>
        <path d="M268.55,297.51q0,26.24-8.05,27.69l-6.59-8.06q-6.84.24-11.23,8.07-12,20.78-25.39,54.26-11,28.11-22,56-9.27,22-28.56,43.51-20.5,23-40.77,32-23,10.51-63.24,10.51Q2,521.48,0,515.19l2.44-1.76q51.27,0,95.22-21.95,45.65-22.92,73.24-64.63,14.88-22.68,32-60.24l22.46-50.24q19-37.8,29.54-37.81,5.87,0,10,6.81A22.49,22.49,0,0,1,268.55,297.51Z"/>
        <path d="M237.3,207.76q-3.66,3.66-11.23,14.89l77.4-31q12.45-5.13,20-21l-70.07,27.83Q242.67,202.64,237.3,207.76Z"/>
        <path d="M333,108.64q-11.72,35.89-25.88,35.89-7.81,0-7.81-23.92l-4.89,1.46Q275.88,161.63,262,161.62c-3.74,0-5.61-2.11-5.61-6.35a71.32,71.32,0,0,1,3.42-20.75l-5.79,1q-13.5,22.69-13.5,35,0,16.11,14.37,16.11,8.76,0,18-6.35t12.91-14.65q7.31,5.26,14.36,5.27,18.75,0,30.2-23.93a91.63,91.63,0,0,0,9-40.77Z"/>
        <path d="M499,373.78l-12.45,46.4Q470.94,432.65,430.18,450q-8.18,36.44-39.07,78-32.22,43.51-64.45,57.45-27.11,11.73-68.12,11.74-15.62,0-46.38-5.19-36.63-5.94-37.84-12.61l2-1.49q7.32.24,23.19,2.93,15.15,2.45,23.44,2.44,16.85,0,49.32-9.52Q342.77,553,394.53,491.94,412.59,470.7,415,454.83q-21.24,5.87-28.57,5.86-22.22,0-22.21-14.65,0-15.37,12.45-38.81,13.92-26.13,27.59-26.13,11.94,0,21.35,9.28t9.41,21.24Q476.07,394.29,499,373.78Z"/>
        <path d="M545.41,98.63q-5.13,16.61-14.16,21l-85.45,42q3.9-15.13,22.95-24.66Z"/>
        <path d="M725.83,373.78l-12.45,46.63Q687.51,437,654.05,437q-38.58,0-54.52-47.85-19.38,9.58-32.64,12.45-1.21,14-4.15,30.23l-1.22.49-1.22-.49q-.24-14.5.49-28.76-28.08,7.82-65.67,7.82l-6.59-1.23q-4.89,4.68-15.39,12.81l12.21-45.09,26.86-30.71a44.9,44.9,0,0,1,.73,8.3q0,14.65-14.4,38.09h9.27q15.87,0,57.38-19.05,8.77-33.69,14.16-48.09,11-29.79,25.14-41.51,11-9.27,47.12-22.95,33.45-12.69,43.95-12.69a35,35,0,0,1,3.66.24q4.14,3.91,4.15,12.45,0,4.15-7.31,23.44-21.18,56.16-80.34,94.73Q633.79,396,652.34,396,696.53,396,725.83,373.78ZM682.13,293a5.26,5.26,0,0,0-1-2.93l-4.39-.49q-11.47,0-42.24,12.17-32.71,12.9-42.72,23.61-10.75,11.93-18.56,45a420.32,420.32,0,0,0,82-51.51Q682.14,297.37,682.13,293Z"/>
        <path d="M787.11,68.11q0,18-16.4,39.52l7.48,7.31-8.55,24.16a170.85,170.85,0,0,1-16.12-12.74q-37.85,35.27-57.62,35.26-3.92,0-13.43-2.93,29.79-14.4,62.26-38.08-9.63-9.28-9.62-16.36,0-12.69,13.85-29.67t26-17Q787.11,57.62,787.11,68.11ZM767.58,89.63q0-11.25-9.67-11.26l-3.72,1.47a10.94,10.94,0,0,0-2.73,7.34q0,4.91,11.66,14.45Q767.58,94,767.58,89.63Z"/>
        <path d="M843.75,374.51,831.3,420.93A36.07,36.07,0,0,1,812,426.51q-17.34,0-27.34-15.29-20.5,25.39-25.64,25.39-5.61,0-16.6-12.94-10.24-12-12.21-18.76-5.61,7.53-21,18l12.21-45.43q11.22-10.49,33.69-31.25,2.43,0,24.17,18.31t37.11,18.31A46.76,46.76,0,0,0,843.75,374.51Z"/>
        <path d="M870.61,24.41q0,19-15.07,35.4T821.36,76.17q-20.1,0-20.09-17.58,0-19.77,14-38.33Q830.42,0,849.54,0q8.57,0,15.19,8.06A26.16,26.16,0,0,1,870.61,24.41ZM854.74,40.59q0-5.94-8-12.9t-13.87-6.94c-4.92,0-9.37,2.23-13.39,6.7s-6,9.18-6,14.13q0,10.67,19.15,10.67Q854.74,52.25,854.74,40.59Z"/>
        <path d="M917.72,220.46q0,68.85-17.33,113.77-21,53.72-71.78,88.87l12.21-45.66q62.25-49.8,62.26-100.1,0-37.59-23.69-91.06-4.59,23.92-13.77,71.53-3.87,20.51-6.52,20.51l-2.17-.73-.48-3.18q0-19.77,10.21-74.21,10.7-58.84,18.48-67.63,13.36,8.3,23.59,40.28Q917.72,200.45,917.72,220.46Z"/>
        <path d="M965.58,13.18q-5.13,16.61-14.16,21L866,76.17q3.9-15.14,22.95-24.66Z"/>
        <path d="M970,93.75q0-7.32-8.79-7.32Q949,86.43,949,83q0-6.11,7.33-6.11a11.88,11.88,0,0,1,4.88,1q2.45-1.69,7-10.28t5.25-12.2a15.25,15.25,0,0,0-5.4-1.69q-10.32,0-23.82,17.82T930.66,99.85q0,9.53,9.66,9.28,7.66-.24,8.41,1.22-3.91,5.37-25.64,13.43L893.31,134c0,2,1.05,2.93,3.17,2.93q20.5,0,44.92-11.47Q970,111.82,970,93.75Z"/>
        <path d="M1037.66,215.09a525.38,525.38,0,0,0-44.79-103q-15.09,45.41-15.09,136,0,48.82,8,50.29,5.55-2.68,5.55-28.08,0-13.67,6.27-60.54,12.27,23.19,26.52,62.25,16.2,44.68,16.2,63,0,25.64-15.38,50.78-9,14.89-33.44,42.24L970.21,450.2q-12.45,13.43-17.82,24.41a2.12,2.12,0,0,0,2.44,1.95q2.19,0,10.23-2.93,57-20.75,75.75-54.93,15.82-28.56,15.83-93.5Q1056.64,275.88,1037.66,215.09Z"/>
      </g>
    </g>
  </g>
</svg>
