<svg xmlns="http://www.w3.org/2000/svg" viewBox="0 0 835.84 559.81">
  <title>EH-Asset 73-layername</title>
  <g id="Layer_2" data-name="Layer 2">
    <g id="ElEwwel">
      <g>
        <path d="M104.64,10.49q0,18.06-16.4,39.52l7.47,7.32L87.17,81.48A169.73,169.73,0,0,1,71.05,68.75Q33.21,104,13.43,104,9.52,104,0,101.07,29.79,86.67,62.26,63q-9.63-9.29-9.63-16.36,0-12.69,13.86-29.66t26-17Q104.64,0,104.64,10.49ZM85.11,32q0-11.26-9.67-11.27l-3.72,1.47A11,11,0,0,0,69,29.57Q69,34.46,80.64,44C83.62,39,85.11,35,85.11,32Z"/>
        <path d="M420.55,162.84l-1,2.93q-68.11,35.65-136.72,63.48a417.23,417.23,0,0,1,9.28,85.2q0,78.14-49.61,157.72-26.4,42.24-48.15,61-31,26.63-70.86,26.61-46.18,0-68.43-39.79-17.34-31.25-17.35-81.54,0-34.67,22.22-72.27a215.2,215.2,0,0,1,51.27-59.33q35.88-29,108.89-61.52,0-6.11-.25-26.61-.5-18.8-.49-31.74a288.32,288.32,0,0,1,13.67-87.4q30.52,51.51,48.1,120.85,55.91-20.75,137.21-59.33ZM274.07,325q0-38.32-12.21-87.65l-30.51,12.46Q229.61,259,227.14,321q-2,51.52-8.9,63l-2.72,1.22-2.72-1.71q4.38-25.38,5.61-64.2,1-32.23,1.71-64.46-52.92,23.94-100.93,63.24-69,56.64-69,121.58,0,32.71,19,54.68,20.23,23,52.43,23,60.72,0,106.57-59.08T274.07,325Zm-14.65-96.43q-7.32-23.93-10.5-32.23A187.2,187.2,0,0,0,235,165.77q-3.42,4.15-3.42,74.71Z"/>
        <path d="M459.13,342.53q0,50.3-40.53,112.79Q376.85,519,331.93,534.18q-32.48,11-93.75,11-17.82,0-17.82-4.64,0-2.21,19.29-7.08,28.56-7.08,42.72-12,43.69-15.14,82.64-46.26T426.9,405q15.87-26.85,15.87-44.43,0-4.89-3.66-15.39-13.68,15.15-31.74,15.14a24,24,0,0,1-14.65-4.88,15.13,15.13,0,0,1-6.59-12.7q0-16.35,19.29-51.27,5.85-10.74,17.09-10.74Q459.13,280.76,459.13,342.53Z"/>
        <path d="M577.78,93.51q-5.13,16.6-14.16,21l-85.45,42q3.9-15.13,22.95-24.65Z"/>
        <path d="M676.66,64.45q0,19-15.07,35.4t-34.18,16.36q-20.08,0-20.09-17.58,0-19.77,14-38.33Q636.47,40,655.59,40q8.56,0,15.19,8.06A26.1,26.1,0,0,1,676.66,64.45ZM660.79,80.63q0-6-8-12.9t-13.87-6.94q-7.36,0-13.39,6.7t-6,14.13q0,10.66,19.16,10.67Q660.78,92.29,660.79,80.63Z"/>
        <path d="M744.77,41q-5.12,16.6-14.16,21l-85.45,42q3.92-15.14,23-24.65Z"/>
        <path d="M260.4,200.93l79.83-28.32q9.76-3.42,16.85-18.56L287.5,178.47Q271.14,184.08,260.4,200.93Z"/>
        <path d="M319.48,209.72q-9.28,0-9.28-17.83l-5.86,1.47q-18.55,32.47-30,32.47-8.54,0-8.54-11.47l.73-7.57L258,211.43q-6.84,18.58-6.84,25.25,0,13.81,14.2,13.81,16.4,0,31.08-21.15,8.81,6.25,14.44,6.26,17.63,0,29.12-21.24,8.57-15.63,11-36.63l-7.56,2.2Q333.63,209.72,319.48,209.72Z"/>
        <path d="M475.46,239.3q20.51,0,44.92-11.48,28.47-13.68,28.47-31.76,0-7.34-8.74-7.33-12.14,0-12.13-3.42,0-6.1,7.28-6.11a11.82,11.82,0,0,1,4.86,1q2.42-1.69,6.91-10.28t5.22-12.2a14.91,14.91,0,0,0-5.38-1.69q-10.29,0-23.75,17.87t-13.45,28.33q0,9.49,9.63,9.24,7.66-.24,8.4,1.22-3.9,5.39-25.63,13.44l-29.79,10.26C472.28,238.33,473.34,239.3,475.46,239.3Z"/>
        <path d="M639.64,179.6Q611.71,265,611.72,363.19c0,2.28.81,3.41,2.44,3.41q3.66,0,6.1-16.12,1.22-10.75,2.44-21.26,3.9-28.1,16.36-82.58,23.69,25.89,23.68,73.54a208,208,0,0,1-4.38,41.54q-6.84,34-31.21,75.25-29.25,50.1-55.34,50.09-18.28,0-33.4-26.63,49.14-85,49.14-180.55,0-21.25-11.48-99.44l-3.9-2.93-2.2,2q-1,10.75-12.65,36.4L539.81,253q-36.49,82.58-36.49,146.82,0,36.65,2.93,53.25-66.17,69.87-142.09,96.5L360,554v1.22l2.2,1q14.16,0,45.41-8.3,71-18.79,110.12-60.06,12.71,25,23.47,35.72,16.14,16.05,38.63,16,24.69,0,56.23-66.62,24.69-51.74,33.73-92.25,12.48-55.64,12.47-79.31,0-63-33.07-136.67Q644.54,164.7,639.64,179.6Zm-120.94,209q0-45.19,41-130.72,11,27.38,11,50.34,0,63-44.92,121.19A129,129,0,0,1,518.7,388.59Z"/>
        <path d="M749.17,121.58q0-7.32-8.79-7.32-12.21,0-12.21-3.42,0-6.11,7.33-6.1a11.91,11.91,0,0,1,4.88,1q2.43-1.69,7-10.27t5.25-12.21a15.23,15.23,0,0,0-5.41-1.69q-10.3,0-23.81,17.83t-13.51,28.32q0,9.51,9.65,9.27c5.11-.16,7.92.25,8.41,1.22q-3.9,5.38-25.63,13.43L672.5,161.87q0,2.92,3.18,2.92,20.51,0,44.92-11.47Q749.16,139.66,749.17,121.58Z"/>
        <path d="M816.85,242.92a525.35,525.35,0,0,0-44.78-103Q757,185.31,757,275.88q0,48.83,8,50.29,5.53-2.69,5.54-28.07,0-13.68,6.28-60.55Q789,260.74,803.28,299.8q16.2,44.68,16.2,63,0,25.63-15.38,50.78-9,14.9-33.45,42.24L749.41,478Q737,491.46,731.59,502.44c.16,1.31,1,1.95,2.44,1.95s4.86-1,10.22-2.93q57-20.74,75.76-54.93Q835.83,418,835.84,353,835.84,303.71,816.85,242.92Z"/>
      </g>
    </g>
  </g>
</svg>
