<svg xmlns="http://www.w3.org/2000/svg" viewBox="0 0 950.93 684.33">
  <title>EH-Asset 75-layername</title>
  <g id="Layer_2" data-name="Layer 2">
    <g id="EzZahir">
      <g>
        <path d="M219.48,149.41q0,18-16.39,39.52l7.47,7.31L202,220.39a170.66,170.66,0,0,1-16.12-12.73Q148,242.93,128.27,242.92q-3.9,0-13.42-2.93,29.78-14.4,62.25-38.09-9.63-9.27-9.62-16.35,0-12.69,13.85-29.67t26-17Q219.48,138.92,219.48,149.41ZM200,170.93q0-11.25-9.66-11.26l-3.72,1.47a10.94,10.94,0,0,0-2.73,7.34q0,4.91,11.65,14.45Q199.95,175.34,200,170.93Z"/>
        <path d="M312.74,394.29l-12.69,47.12Q269.78,459,257.81,467q-28.56,19.05-34.91,31.5-19.53,42.24-39.06,84.22-28.32,53.72-59.08,64-23.45,8-51.52,8-56.4,0-72.51-9.51L0,644l2-2.19a163.57,163.57,0,0,0,32,2.93q44.91,0,85-28.81,35.39-25.89,59.81-68.36,1.71-3.18,23.19-45.9,13.92-27.84,27-43.58t41.38-33.33Q301.76,405.29,312.74,394.29Z"/>
        <path d="M369.63,621.34q-5.13,16.59-14.16,21l-85.45,42q3.9-15.15,23-24.66Z"/>
        <path d="M428.47,257.88q0,51.94-38.65,92.95-14.93,15.87-24,19-4.65,24.9-68.43,72.76l12.45-45.9a154.18,154.18,0,0,0,21-20,21,21,0,0,1-3.71-12.7q0-20,14-49.8,15.69-33.69,32.6-33.69,6.86,0,11.52,11.23a44.8,44.8,0,0,1,3.92,17.33L383,332q9.7-6.34,18-18.07,9-12.93,9-23.43a57.49,57.49,0,0,0-8.05-29.41q-9.28-15.76-23.93-15.76-17.34,0-35.89,23.19-16.37,20.76-20.26,40-2,13.19-6.59,39.55l-1.71.25a141.75,141.75,0,0,1-.74-15.87q0-41.74,20.55-81.79,24.48-47.85,61.91-47.85Q428.46,202.88,428.47,257.88Zm-57.13,81.23q0-5.85-4.24-11.84t-9.79-6q-4.12,0-8.23,5.25T345,336.18q0,11.47,10.64,11.48Q363.61,347.66,371.34,339.11Z"/>
        <path d="M573.73,394.53l-12.45,46.8q-19.53,13.26-39.55,13.26-27.6,0-37.84-30.95-5.62-17.38-6.6-53.77l-1.83-73.73q-2.07-83-2.07-84.47,0-3.16,5.88-20.75t8.06-20.51h1.44q.74,42.24,2.93,126.22.24,23.44,5.13,69.34,9.75,47.11,37.35,47.12Q554.69,413.09,573.73,394.53Z"/>
        <path d="M812,240.72q0,68.85-17.33,113.77-21,53.72-71.78,88.87l12.21-45.65q62.25-49.81,62.25-100.1,0-37.61-23.68-91.07-4.59,23.94-13.77,71.54-3.87,20.51-6.52,20.5l-2.17-.73-.49-3.17q0-19.79,10.21-74.22,10.71-58.83,18.49-67.63,13.37,8.31,23.58,40.29Q812,220.71,812,240.72Z"/>
        <path d="M859.86,33.45q-5.11,16.61-14.16,21l-85.45,42q3.91-15.14,23-24.66Z"/>
        <path d="M577.5,75.28q8.82,6.27,14.44,6.26,17.63,0,29.13-21.24,8.55-15.61,11-36.62l-7.57,2.2q-9.76,29.79-23.92,29.78-9.29,0-9.28-17.82l-5.86,1.47q-18.56,32.47-30,32.47-8.55,0-8.54-11.48l.73-7.57-8.55,4.64q-6.84,18.6-6.83,25.26,0,13.8,14.19,13.81Q562.82,96.44,577.5,75.28Z"/>
        <path d="M638.18,0,568.6,24.41Q552.25,30,541.5,46.88l79.84-28.33Q631.11,15.15,638.18,0Z"/>
        <path d="M683.59,417.72q-18.55,0-33-6.1-19-8.06-19-23.92,32.13-28.57,42.12-40.29,17.52-20.51,30.18-50.29,11.19-26.61,11.2-30.27,0-8.55-10.5-8.55Q689,258.3,656,276q-28.57,15.56-44.93,29.4,16.78-70.23,16.79-98.76,0-59-19.23-79.25-6.58-7.07-9.76-7.31Q583,128.89,569.34,164q-11.24,28.54-14.41,53.17l2.2,2.2,2-1.47q22.71-57.76,30.52-58,21.24,11,21.24,86.21,0,37.36-29.79,142.86l-9.27,8.55-12.21,45.18q11.71-8,17.82-12.61L578.9,449l1.51,1a93.24,93.24,0,0,0,5-25.3q20.58-15.57,31.49-24.58,4.21,24.33,19.53,39.4,16.13,16.31,40,16.3,26.13,0,50-15.33L739,394.24q-9.27,9.3-25.88,16.39T683.59,417.72ZM591,382.25l10-36.94q15.4-15.15,42.26-31.07,31-18.09,47.39-18.1l1.71,2.69q-.24,11.75-43.72,43.79Z"/>
        <path d="M721,168.28q0-7.82-22.22-16.62-16.61,22-22.46,34.71L698,201.52Q709.22,189.79,721,168.28Z"/>
        <path d="M931.94,235.35a525.61,525.61,0,0,0-44.78-103q-15.09,45.42-15.09,136,0,48.84,8,50.29,5.54-2.69,5.54-28.07,0-13.68,6.28-60.55,12.27,23.21,26.52,62.26,16.2,44.67,16.2,63,0,25.63-15.38,50.79-9,14.89-33.45,42.23L864.5,470.46q-12.45,13.43-17.82,24.41a2.12,2.12,0,0,0,2.44,2q2.18,0,10.22-2.93,57-20.76,75.76-54.94,15.82-28.56,15.83-93.5Q950.93,296.14,931.94,235.35Z"/>
        <path d="M864.26,114q0-7.32-8.79-7.32-12.21,0-12.21-3.42,0-6.09,7.33-6.1a12.08,12.08,0,0,1,4.88,1q2.43-1.69,7-10.27t5.25-12.21A15.23,15.23,0,0,0,862.27,74Q852,74,838.46,91.8T825,120.12q0,9.51,9.65,9.27c5.11-.16,7.92.25,8.41,1.23Q839.11,136,817.38,144L787.59,154.3q0,2.92,3.18,2.93,20.51,0,44.92-11.48Q864.25,132.08,864.26,114Z"/>
      </g>
    </g>
  </g>
</svg>
