<svg xmlns="http://www.w3.org/2000/svg" viewBox="0 0 832.18 639.65">
  <title>EH-Asset 76-layername</title>
  <g id="Layer_2" data-name="Layer 2">
    <g id="ElBatin">
      <g>
        <path d="M104.64,129.14q0,18.06-16.4,39.52L95.71,176l-8.54,24.15A169.73,169.73,0,0,1,71.05,187.4q-37.84,35.25-57.62,35.26-3.91,0-13.43-2.93,29.79-14.4,62.26-38.09-9.63-9.27-9.63-16.36,0-12.69,13.86-29.66t26-17Q104.64,118.65,104.64,129.14ZM85.11,150.67q0-11.26-9.67-11.27l-3.72,1.47A11,11,0,0,0,69,148.22q0,4.91,11.65,14.45Q85.11,155.08,85.11,150.67Z"/>
        <path d="M262.6,373.78l-12.46,46.27q-24.66,18.46-40,17.21l-4.64,21.55q-8.53,39.69-39.73,79.61Q130.14,584,94.8,584q-44.61,0-44.61-54.05,0-31.3,23.45-84.13-31.5,1.23-50,32l-1.46.49-1.47-1.47q0-24.48,20.51-49.47,21.48-26.44,45.19-26.45,10.76,0,10.76,9.54,0,9.29-13.58,40.6T70,498.46q0,18.35,10.88,29.47t29.24,11.13q22.26,0,48.43-24.9Q183.24,490.73,189.1,468a118.33,118.33,0,0,0,4.16-29.3q0-15.62-12-27.59-.48-16.11,18.9-44.43,7.28,3.18,18,31.25Q235.5,398,262.6,373.78Z"/>
        <path d="M318.75,576.66q-5.13,16.61-14.16,21l-85.45,42q3.9-15.15,23-24.66Z"/>
        <path d="M402,246.58q0,3.66-11.21,30.28-15.36,36.61-50.44,71.28-22.43,22.23-68,56.4l-2.2,21.73L268,429.44l-2.2-.48-1.47-19q-6.1,4.65-17.82,12.7l12.21-45.17L268,368.9q29.77-105.48,29.78-143.1,0-76.11-21.24-86.15-7.08.24-17.82,25-6.34,16.65-12.7,33l-2,1.47-2.2-2.19q3.18-24.63,14.42-53.17,13.68-35.13,29.56-43.91,3.17.25,9.77,7.33,19.07,20.26,19.06,79.34,0,28.57-16.65,98.88,16.35-13.92,44.92-29.54Q375.88,238,391.5,238,402,238,402,246.58Zm-22.71,32-1.7-2.68q-16.36,0-47.39,18.07-26.88,15.87-42.26,31l-10,36.87,57.65-39.55Q379,290.29,379.29,278.56Z"/>
        <path d="M543.6,374.27l-12.45,46.8q-19.53,13.26-39.55,13.26-27.59,0-37.84-30.95-5.62-17.38-6.59-53.77l-1.84-73.73q-2.07-83-2.07-84.47,0-3.18,5.89-20.76t8.05-20.5h1.44q.74,42.24,2.93,126.22.24,23.43,5.13,69.33,9.76,47.13,37.35,47.12Q524.56,392.82,543.6,374.27Z"/>
        <path d="M601.71,159.67q-5.13,16.61-14.16,21l-85.45,42Q506,207.52,525.05,198Z"/>
        <path d="M646.14,24.41q0,19-15.07,35.4T596.9,76.17q-20.1,0-20.1-17.58,0-19.77,14-38.33Q606,0,625.07,0q8.58,0,15.19,8.06A26.1,26.1,0,0,1,646.14,24.41ZM630.27,40.59q0-5.94-8-12.9t-13.88-6.94q-7.36,0-13.38,6.7t-6,14.13q0,10.67,19.16,10.67Q630.27,52.25,630.27,40.59Z"/>
        <path d="M693.26,220.46q0,68.85-17.33,113.77-21,53.72-71.78,88.87l12.21-45.66q62.25-49.8,62.25-100.1,0-37.59-23.68-91.06-4.59,23.92-13.77,71.53-3.87,20.51-6.52,20.51l-2.18-.73-.48-3.18q0-19.77,10.21-74.21,10.71-58.84,18.48-67.63,13.38,8.3,23.59,40.28Q693.26,200.45,693.26,220.46Z"/>
        <path d="M741.11,13.18Q736,29.79,727,34.18l-85.45,42q3.9-15.14,23-24.66Z"/>
        <path d="M537,467.53Q516,499.75,515,502l21.48,14.9q11-10,22.71-33Q559.23,475.6,537,467.53Z"/>
        <path d="M564.35,401.37q-10,0-14.16-2.69,19-26.12,19-43.94a42.39,42.39,0,0,0-.74-8.3q-13.66,15.62-26.85,30.76l-12.21,45.32,6.59-5.17q9.76,18,30.76,17.95,19.79,0,40.29-15l12.45-46.52q-9.76,9.77-25.64,18.31Q576.07,401.38,564.35,401.37Z"/>
        <path d="M813.19,215.09a525.35,525.35,0,0,0-44.78-103q-15.09,45.41-15.09,136,0,48.82,8,50.29,5.54-2.68,5.54-28.08,0-13.67,6.27-60.54,12.28,23.19,26.52,62.25,16.21,44.68,16.21,63,0,25.64-15.38,50.78Q791.4,400.64,767,428L745.75,450.2q-12.45,13.43-17.82,24.41c.16,1.3,1,1.95,2.44,1.95s4.86-1,10.22-2.93q57-20.75,75.75-54.93,15.84-28.56,15.84-93.5Q832.18,275.88,813.19,215.09Z"/>
        <path d="M745.51,93.75q0-7.32-8.79-7.32-12.21,0-12.21-3.42,0-6.11,7.32-6.11a12,12,0,0,1,4.89,1q2.43-1.69,6.95-10.28c3-5.71,4.77-9.78,5.25-12.2a15.14,15.14,0,0,0-5.4-1.69q-10.32,0-23.82,17.82T706.2,99.85q0,9.53,9.65,9.28c5.11-.16,7.92.25,8.41,1.22q-3.9,5.37-25.63,13.43L668.84,134c0,2,1.06,2.93,3.18,2.93q20.51,0,44.92-11.47Q745.5,111.82,745.51,93.75Z"/>
      </g>
    </g>
  </g>
</svg>
