<svg xmlns="http://www.w3.org/2000/svg" viewBox="0 0 670.9 660.16">
  <title>EH-Asset 77-layername</title>
  <g id="Layer_2" data-name="Layer 2">
    <g id="ElWelijj">
      <g>
        <path d="M235.6,392.58q-8.79,44.19-74.22,116-68.37,75-108.89,75-34.92,0-34.91-19.64,0-32.85,22.21-66.79,12.7-19,47.86-57.37,33.19-35.9,45.16-56.16,19.78-33.93,19.78-82.76,0-33.69-4.65-46.87-21,53.22-46,109.13l-3.43-3.42q5.37-35.4,28-94.73,20.71-54.93,40.71-91.06,6.57,5.37,7.55,36.62-.24-6.84-.24,40.53a354.75,354.75,0,0,1-27.83,137.94,238.63,238.63,0,0,1-36.13,60.3Q104,457,62,500.73,39.8,523.94,39.79,531q0,6.11,13.92,6.1,77.64,0,174.32-140.38c2.44-3.74,4.47-5.62,6.1-5.62Z"/>
        <path d="M295.65,222.66q-5.11,16.6-14.16,21l-85.45,42Q200,270.51,219,261Z"/>
        <path d="M469,436.77l-12.45,46.4Q440.92,495.64,400.15,513q-8.17,36.42-39.07,78-32.22,43.51-64.45,57.45-27.11,11.73-68.11,11.74-15.63,0-46.39-5.2Q145.5,649,144.29,642.35l2-1.48q7.32.24,23.19,2.93,15.15,2.43,23.44,2.44,16.84,0,49.32-9.52Q312.74,616,364.5,554.93q18.06-21.24,20.51-37.11-21.24,5.86-28.56,5.86-22.23,0-22.22-14.65,0-15.37,12.45-38.82,13.92-26.11,27.59-26.12,11.94,0,21.35,9.28T405,474.61Q446,457.27,469,436.77Z"/>
        <path d="M484.86,87.4q0,19-15.06,35.4t-34.18,16.36q-20.1,0-20.09-17.58,0-19.77,14-38.33Q444.69,63,463.79,63,472.37,63,479,71A26.15,26.15,0,0,1,484.86,87.4ZM469,103.58q0-6-8-12.9t-13.87-6.94q-7.38,0-13.39,6.7t-6,14.13q0,10.67,19.16,10.66Q469,115.23,469,103.58Z"/>
        <path d="M532,283.45q0,68.85-17.33,113.77-21,53.71-71.78,88.86l12.21-45.65q62.25-49.8,62.25-100.1,0-37.59-23.68-91.06-4.59,23.93-13.77,71.53-3.87,20.51-6.52,20.51l-2.17-.73-.49-3.18q0-19.77,10.22-74.22,10.69-58.83,18.48-67.62,13.37,8.3,23.58,40.28Q532,263.42,532,283.45Z"/>
        <path d="M579.83,76.17q-5.12,16.6-14.16,21l-85.45,42q3.91-15.14,22.95-24.66Z"/>
        <path d="M111.47,5.27Q107.45,0,101.83,0,89.37,0,76.42,12.13T63.48,36.5l1,5.87A58.2,58.2,0,0,0,70.9,50.7q-29.1,17.14-57.44,24,8.31,4.88,14.44,4.88,15.65,0,51.87-23.93,15.66,6.84,25,7.08,3.92-12.5,3.67-15.68l-.25-3.68L100.85,38q14.66-15.44,14.65-21.57A18.06,18.06,0,0,0,111.47,5.27ZM93.1,33.2q-10.59-8.3-10.58-13.42,0-9,8.17-9,7.69,2.94,7.7,8.79Q98.39,25.16,93.1,33.2Z"/>
        <path d="M67.63,100q-9.52,0-9-11.39l.25-4.85-6.35,1.45Q34.41,114,23.19,114q-7.82,0-7.81-9l1.71-10.91L12,94.62Q0,111,0,124l1.71,8.56q5.12,6.62,12.17,6.61,19,0,30.45-19.66,5.84,6.24,9.74,6.23,32.38,0,46-52.49L94,74.7Q81.06,100,67.63,100Z"/>
        <path d="M651.91,278.08a524.76,524.76,0,0,0-44.78-103Q592,220.46,592,311q0,48.82,8,50.29,5.54-2.68,5.54-28.08,0-13.67,6.28-60.54Q624.09,295.9,638.34,335q16.2,44.69,16.2,63,0,25.64-15.38,50.78-9,14.89-33.45,42.24l-21.24,22.21Q572,526.62,566.65,537.6c.16,1.3,1,1.95,2.44,1.95s4.87-1,10.23-2.93q57-20.75,75.75-54.93,15.82-28.56,15.83-93.51Q670.9,338.88,651.91,278.08Z"/>
        <path d="M584.23,156.74q0-7.32-8.79-7.33-12.21,0-12.21-3.41,0-6.1,7.33-6.11a11.92,11.92,0,0,1,4.88,1q2.43-1.69,7-10.28t5.25-12.2a15,15,0,0,0-5.4-1.69q-10.32,0-23.82,17.82t-13.51,28.32q0,9.53,9.65,9.28c5.11-.16,7.92.24,8.41,1.22q-3.9,5.37-25.63,13.43L507.56,197q0,2.92,3.18,2.93,20.5,0,44.92-11.47Q584.22,174.8,584.23,156.74Z"/>
      </g>
    </g>
  </g>
</svg>
