<svg xmlns="http://www.w3.org/2000/svg" viewBox="0 0 883.54 541.75">
  <title>EH-Asset 15-layername</title>
  <g id="Layer_2" data-name="Layer 2">
    <g id="ElGafar">
      <g>
        <path d="M146.24,149.41q0,18-16.4,39.52l7.48,7.31-8.55,24.15a170.66,170.66,0,0,1-16.12-12.73Q74.81,242.93,55,242.92q-3.9,0-13.43-2.93,29.79-14.4,62.26-38.09-9.63-9.27-9.62-16.35,0-12.69,13.85-29.67t26-17Q146.24,138.92,146.24,149.41Zm-19.53,21.52q0-11.25-9.67-11.26l-3.72,1.47a10.93,10.93,0,0,0-2.72,7.34q0,4.91,11.65,14.45Q126.71,175.34,126.71,170.93Z"/>
        <path d="M268.55,317.77q0,26.24-8.05,27.69l-6.59-8.06q-6.84.25-11.23,8.07-12,20.77-25.39,54.26-11,28.11-22,56-9.27,22-28.56,43.51-20.5,23-40.77,32-23,10.51-63.24,10.51Q2,541.75,0,535.45l2.44-1.76q51.27,0,95.22-22,45.65-22.92,73.24-64.63,14.88-22.68,32-60.24l22.46-50.24q19-37.8,29.54-37.8,5.87,0,10,6.8A22.51,22.51,0,0,1,268.55,317.77Z"/>
        <path d="M424.32,394.53l-12.45,46.8q-19.55,13.26-39.56,13.26-27.58,0-37.84-30.95-5.61-17.38-6.59-53.77L326,296.14q-2.07-83-2.07-84.47,0-3.16,5.89-20.75t8.05-20.51h1.45q.72,42.24,2.93,126.22.24,23.44,5.12,69.34,9.76,47.11,37.36,47.12Q405.28,413.09,424.32,394.53Z"/>
        <path d="M488.77,0,419.19,24.41Q402.82,30,392.09,46.88l79.83-28.33Q481.69,15.15,488.77,0Z"/>
        <path d="M451.17,55.66q-9.29,0-9.28-17.82L436,39.31q-18.57,32.47-30,32.47-8.55,0-8.55-11.48l.73-7.57-8.54,4.64q-6.84,18.6-6.84,25.26,0,13.8,14.2,13.81,16.39,0,31.08-21.16,8.81,6.27,14.44,6.26,17.63,0,29.12-21.24,8.57-15.61,11-36.62l-7.57,2.2Q465.33,55.67,451.17,55.66Z"/>
        <path d="M492.43,232.67q0-3.67-9.75-9.77-4.38-2.68-12.67-6.84l-22.18,34.43,21.69,15.14Q479.75,257.82,492.43,232.67Z"/>
        <path d="M497.64,413.82q-30.22,0-38.76-12.45,33.56-38.58,33.55-62.26,0-31-14.11-31-6.81,0-20.44,10.75t-25.3,31.29q-12.42,22-12.41,37.65a42.83,42.83,0,0,0,1,9.29L408.69,444a310.24,310.24,0,0,0,27.83-22.34Q451.42,439.11,460,445.5a51.92,51.92,0,0,0,31.25,10.31A93,93,0,0,0,543,440.39l12.69-47.25Q528.84,413.81,497.64,413.82Zm-53-31.15q-8.36-9.72-8.35-15.57,0-4.37,11.05-14.11t15.72-9.73q12.78,0,12.78,9.49Q475.83,366.63,444.63,382.67Z"/>
        <path d="M612.06,33.45q-5.13,16.61-14.16,21l-85.45,42q3.9-15.14,22.95-24.66Z"/>
        <path d="M608.4,251.71q0-4.64-6.08-7.81-3.41-4.4-16.05-8.55-19.95,29.55-22.37,34.43,14.34,10.25,21.88,14.89Q595.28,275.15,608.4,251.71Z"/>
        <path d="M629.88,413.09q-21.24,0-27.83-25.56,24.16-26.29,24.17-40.41,0-15.57-28.56-15.58-40.78,0-49.56,9.48a136.48,136.48,0,0,0-7.82,16Q532,378.69,532,385.5q3.69-1.47,15.71-1.47A17,17,0,0,1,560,389.42l-8.11,8.33-12.27,45.3q14-9.57,37.07-34.11Q589,454.11,619.14,454.1q19.05,0,40.28-13.72l12.7-47.31Q649.41,413.08,629.88,413.09Z"/>
        <path d="M697.51,44.68q0,19-15.07,35.4T648.27,96.44q-20.1,0-20.1-17.58,0-19.78,14-38.33,15.18-20.26,34.3-20.27,8.58,0,15.19,8.06A26.15,26.15,0,0,1,697.51,44.68ZM681.64,60.86q0-6-8-12.9T659.78,41q-7.37,0-13.38,6.69t-6,14.14q0,10.66,19.16,10.66Q681.64,72.51,681.64,60.86Z"/>
        <path d="M744.63,240.72q0,68.85-17.34,113.77-21,53.72-71.77,88.87l12.2-45.65Q730,347.9,730,297.61q0-37.61-23.68-91.07-4.59,23.94-13.77,71.54-3.87,20.51-6.52,20.5l-2.18-.73-.48-3.17q0-19.79,10.21-74.22,10.71-58.83,18.48-67.63,13.38,8.31,23.59,40.29Q744.63,220.71,744.63,240.72Z"/>
        <path d="M792.48,33.45q-5.13,16.61-14.16,21l-85.45,42q3.9-15.14,23-24.66Z"/>
        <path d="M796.88,114q0-7.32-8.79-7.32-12.21,0-12.21-3.42,0-6.09,7.32-6.1a12.13,12.13,0,0,1,4.89,1q2.43-1.69,6.95-10.27t5.25-12.21a15.14,15.14,0,0,0-5.4-1.69q-10.32,0-23.82,17.83t-13.5,28.32q0,9.51,9.65,9.27,7.66-.24,8.41,1.23Q771.73,136,750,144L720.21,154.3q0,2.92,3.17,2.93,20.52,0,44.93-11.48Q796.87,132.08,796.88,114Z"/>
        <path d="M864.56,235.35a525.61,525.61,0,0,0-44.78-103q-15.1,45.42-15.09,136,0,48.84,7.95,50.29,5.55-2.69,5.55-28.07,0-13.68,6.27-60.55,12.28,23.21,26.52,62.26,16.21,44.67,16.21,63,0,25.63-15.38,50.79-9,14.89-33.45,42.23l-21.24,22.22q-12.45,13.43-17.82,24.41a2.11,2.11,0,0,0,2.43,2q2.19,0,10.23-2.93,57-20.76,75.75-54.94,15.84-28.56,15.83-93.5Q883.54,296.14,864.56,235.35Z"/>
      </g>
    </g>
  </g>
</svg>
