<svg xmlns="http://www.w3.org/2000/svg" viewBox="0 0 1035.79 640.63">
  <title>EH-Asset 23-layername</title>
  <g id="Layer_2" data-name="Layer 2">
    <g id="ElHafid">
      <g>
        <path d="M104.64,68.11q0,18-16.4,39.52l7.47,7.31L87.17,139.1a168.32,168.32,0,0,1-16.12-12.74q-37.84,35.27-57.62,35.26-3.91,0-13.43-2.93,29.79-14.4,62.26-38.08-9.63-9.28-9.63-16.36,0-12.69,13.86-29.67t26-17Q104.64,57.62,104.64,68.11ZM85.11,89.63q0-11.25-9.67-11.26l-3.72,1.47A10.94,10.94,0,0,0,69,87.18q0,4.91,11.65,14.45Q85.11,94,85.11,89.63Z"/>
        <path d="M439.35,576.66q-5.12,16.61-14.16,21l-85.45,42q3.92-15.15,22.95-24.66Z"/>
        <path d="M615.87,374.27l-12.45,46.8q-19.54,13.26-39.55,13.26-27.6,0-37.85-30.95-5.61-17.38-6.59-53.77l-1.84-73.73q-2.07-83-2.06-84.47,0-3.18,5.88-20.76t8.05-20.5h1.45q.72,42.24,2.93,126.22.24,23.43,5.12,69.33,9.76,47.13,37.36,47.12Q596.83,392.82,615.87,374.27Z"/>
        <path d="M674,98.63q-5.13,16.61-14.16,21l-85.45,42q3.9-15.13,22.95-24.66Z"/>
        <path d="M849.75,24.41q0,19-15.06,35.4T800.51,76.17q-20.1,0-20.09-17.58,0-19.77,14-38.33Q809.58,0,828.69,0q8.56,0,15.19,8.06A26.15,26.15,0,0,1,849.75,24.41ZM833.88,40.59q0-5.94-8-12.9T812,20.75q-7.38,0-13.39,6.7t-6,14.13q0,10.67,19.15,10.67Q833.88,52.25,833.88,40.59Z"/>
        <path d="M896.87,220.46q0,68.85-17.33,113.77-21,53.72-71.78,88.87L820,377.44q62.25-49.8,62.25-100.1,0-37.59-23.68-91.06-4.59,23.92-13.77,71.53-3.87,20.51-6.52,20.51l-2.17-.73-.49-3.18q0-19.77,10.22-74.21,10.7-58.84,18.48-67.63,13.37,8.3,23.58,40.28Q896.87,200.45,896.87,220.46Z"/>
        <path d="M944.72,13.18q-5.12,16.61-14.16,21l-85.44,42Q849,61,868.06,51.51Z"/>
        <path d="M384.18,373.05q-1.83,1.62-3.89,3.32c1.23-.8,2.46-1.67,3.68-2.57Z"/>
        <path d="M270.16,259.52q0-3.42-9.76-9.52-4.65-2.69-12.7-6.84-14.16,21-22,34.43l21.48,15.13Q259.92,281.26,270.16,259.52Z"/>
        <path d="M379.76,376.81A259.3,259.3,0,0,1,352,396q-23.19,13.9-35.16,16.35,46.88-66.89,46.88-105.71,0-5.86-3.42-5.86-18.06,0-57.13,24.9-62.49,39.79-80.81,119.63a167.59,167.59,0,0,1-23.08,2.2q-16.77,0-22.84-8-5.12-6.3-6.08-23.75l-1.95-1.21-1.71.49q-17.06,37.89-20.51,50.85a58.74,58.74,0,0,1,10,32.51q0,30.32-29.54,64.05-30,34.47-59.82,34.47-20.27,0-32.47-13.31t-12.2-33.85q0-47.4,35.15-84.06,21.24-22.23,77-56.57t76-55.35q16.11-16.86,17.33-23l-.73-1-2.68.49q-26.34,28.82-81.7,61.53-61.95,36.86-82.19,54.68Q19.65,482.67,6.24,534.42.39,556.89.39,575.2q0,27.59,11.23,44.92,13.19,20.5,39.31,20.51,31.25,0,62.5-30.28,25.14-24.42,41.5-58.34,16.6-40.77,23.93-61.77c2.09,1.63,5.81,2.45,11.13,2.45a89.93,89.93,0,0,0,18.65-2.45q-7.08,32.29-10.5,48.69l1.71,2.45,3.42-2.45L217.19,488q22,0,74.46-36.87,13.43.25,41-10.95,26.13-10.71,38.82-20.2l.18-.67c-1.42,1.1-2.86,2.2-4.33,3.26Zm-87.13,29.93q-31.5,27.83-59.82,36.38Q247.47,408,258.2,395q13.19-16.35,43.7-32.47,24.9-13.19,31-13.18l2.2,2.19Q325.33,378.17,292.63,406.74Z"/>
        <path d="M410.76,195.31l10-17.58q0-8.53-22.21-16.6-21,32.24-22,34.43a229.75,229.75,0,0,0,21.49,14.89Q403.68,206.55,410.76,195.31Z"/>
        <path d="M379.78,376.71l0,.1.53-.44Z"/>
        <path d="M406.39,246.34q-11.47,0-25.39,27.83Q368.07,300,368.06,313.72a15,15,0,0,0,6.11,12.21,19.77,19.77,0,0,0,12.94,4.39q10.49,0,26.85-13.43c3.09,1.31,4.64,4.15,4.64,8.55q0,11.71-14.4,28.81A117.6,117.6,0,0,1,384,373.8l-12.31,45.55q41-31.68,58.53-87.81,9.65-31,9.65-41,0-14.16-9.65-28.32Q419.81,246.34,406.39,246.34Z"/>
        <path d="M380.29,376.37l-.53.44-12.43,45.8c1.47-1.06,2.91-2.16,4.33-3.26L384,373.8C382.75,374.7,381.52,375.57,380.29,376.37Z"/>
        <path d="M706.11,172.85q0-3.9-9.53-9.76-4.64-2.68-12.94-6.6-20.52,30.76-22.47,34.67a212.7,212.7,0,0,0,21.74,14.65Q694.39,196,706.11,172.85Z"/>
        <path d="M723.26,385.74q-13.92-11.48-13.92-30.28a112.59,112.59,0,0,1,1.74-19.78q26.13-23.21,75.44-33.21,11.24-15.87,15.63-39.32a76.74,76.74,0,0,1-32.23,6.79q-11,0-31.86-6.18t-31.63-6.19q-41.13,0-61.21,37.07-10.28,19-22,73.42l-9,8.54-12.45,45.86q11.71-8.74,17.58-13.35l-2,30.27V469.9l1.22,1.22,1.22-.73,2.2-4.15q-1-26.37,6.59-64.95,37-32.25,69.34-56.94-4.38,19.51-4.38,31.95,0,26.08,15.33,44.13,16.11,19,42,19,29.77,0,59.81-18.5l12.45-46.49q-28.08,22-67.87,22Q736.21,396.48,723.26,385.74Zm-50-57.29Q662.5,336.28,633.69,360q9.76-62.65,54.44-62.66,7.82,0,28.32,4.9Q696.19,311.56,673.24,328.45Z"/>
        <path d="M949.12,93.75q0-7.32-8.79-7.32-12.21,0-12.21-3.42,0-6.11,7.33-6.11a11.88,11.88,0,0,1,4.88,1c1.63-1.13,3.94-4.56,7-10.28s4.76-9.78,5.25-12.2a15.25,15.25,0,0,0-5.4-1.69q-10.32,0-23.82,17.82T909.81,99.85q0,9.53,9.65,9.28c5.12-.16,7.92.25,8.42,1.22q-3.92,5.37-25.64,13.43L872.46,134c0,2,1,2.93,3.17,2.93q20.5,0,44.92-11.47Q949.11,111.82,949.12,93.75Z"/>
        <path d="M1016.8,215.09a524.76,524.76,0,0,0-44.78-103q-15.09,45.41-15.09,136,0,48.82,8,50.29,5.55-2.68,5.55-28.08,0-13.67,6.27-60.54Q989,232.91,1003.23,272q16.2,44.68,16.2,63,0,25.64-15.38,50.78Q995,400.64,970.6,428L949.36,450.2q-12.45,13.43-17.82,24.41c.16,1.3,1,1.95,2.44,1.95s4.87-1,10.23-2.93q57-20.75,75.75-54.93,15.82-28.56,15.83-93.5Q1035.79,275.88,1016.8,215.09Z"/>
      </g>
    </g>
  </g>
</svg>
