<svg xmlns="http://www.w3.org/2000/svg" viewBox="0 0 843.9 559.81">
  <title>EH-Asset 30-layername</title>
  <g id="Layer_2" data-name="Layer 2">
    <g id="ElAdl">
      <g>
        <path d="M104.64,10.49q0,18.06-16.4,39.52l7.47,7.32L87.17,81.48A171,171,0,0,1,71.05,68.75Q33.21,104,13.43,104,9.52,104,0,101.07,29.79,86.67,62.26,63q-9.63-9.29-9.62-16.36,0-12.69,13.85-29.66t26-17Q104.64,0,104.64,10.49ZM85.11,32q0-11.26-9.67-11.27l-3.72,1.47A11,11,0,0,0,69,29.57Q69,34.46,80.64,44C83.62,39,85.11,35,85.11,32Z"/>
        <path d="M420.56,162.84l-1,2.93q-68.11,35.65-136.72,63.48a417.23,417.23,0,0,1,9.28,85.2q0,78.14-49.61,157.72-26.4,42.24-48.14,61-31,26.63-70.87,26.61-46.18,0-68.43-39.79-17.34-31.25-17.35-81.54,0-34.67,22.22-72.27a215.2,215.2,0,0,1,51.27-59.33q35.88-29,108.89-61.52,0-6.11-.25-26.61-.5-18.8-.49-31.74a288,288,0,0,1,13.68-87.4q30.51,51.51,48.09,120.85,55.91-20.75,137.21-59.33ZM274.07,325q0-38.32-12.21-87.65l-30.51,12.46Q229.61,259,227.14,321q-2,51.52-8.9,63l-2.72,1.22-2.72-1.71q4.39-25.38,5.61-64.2,1-32.23,1.71-64.46-52.91,23.94-100.93,63.24-69,56.64-69,121.58,0,32.71,19,54.68,20.23,23,52.43,23,60.72,0,106.57-59.08T274.07,325Zm-14.65-96.43q-7.32-23.93-10.5-32.23A187.2,187.2,0,0,0,235,165.77q-3.42,4.15-3.42,74.71Z"/>
        <path d="M320.21,137.7q0,19-15.06,35.4T271,189.45q-20.1,0-20.09-17.57,0-19.78,14-38.34,15.2-20.25,34.31-20.26,8.57,0,15.18,8.06A26.13,26.13,0,0,1,320.21,137.7Zm-15.87,16.17q0-5.94-8-12.89T282.49,134q-7.38,0-13.39,6.7t-6,14.14q0,10.66,19.16,10.66Q304.34,165.53,304.34,153.87Z"/>
        <path d="M516.75,401.37,504.3,447.85a174.42,174.42,0,0,1-28.08,16q-19.77,9.35-29.79,9.33-27.09,0-27.1-40.77a111.59,111.59,0,0,1,1.47-15.87h-1.95q-1.47,0-7,6.72T390.77,459q-36.87,68.61-68.6,84.23-18.56,9-32.47,11.48-10.5,1.95-34.67,1.95a266.1,266.1,0,0,1-27.59-2q-21.24-2.49-24.9-5.49l.73-1.5,3.42-2q36.87,0,60.06-7.56t52.73-29.55q31.74-23.43,44.92-42.72,16.85-27.35,33.69-54.93,24.95-38.58,38.82-44.68l2.44,2.2.49,2.44q-.73,2.44-2.19,10.25a131.5,131.5,0,0,0-2.45,25.39q0,26.13,21.73,26.13Q479.15,432.62,516.75,401.37Z"/>
        <path d="M572.41,126.46q-5.13,16.62-14.16,21l-85.45,42q3.9-15.13,22.95-24.66Z"/>
        <path d="M632.47,400.63l-12.7,47.31q-21.24,13.74-40.28,13.73-30.15,0-42.48-45.17-23.07,24.56-37.07,34.12l12.27-45.3,8.11-8.33A17,17,0,0,0,508,391.6q-12,0-15.71,1.47,0-6.81,8.3-28.44a136.48,136.48,0,0,1,7.82-16q8.79-9.48,49.56-9.48,28.56,0,28.56,15.58,0,14.13-24.17,40.41,6.6,25.56,27.83,25.55Q609.76,420.65,632.47,400.63Z"/>
        <path d="M657.86,52.25q0,19-15.07,35.4T608.62,104q-20.1,0-20.1-17.57,0-19.79,14-38.33,15.18-20.26,34.3-20.27,8.58,0,15.19,8.06A26.15,26.15,0,0,1,657.86,52.25ZM642,68.42q0-5.94-8-12.89t-13.88-7q-7.36,0-13.38,6.7t-6,14.14q0,10.67,19.16,10.66Q642,80.08,642,68.42Z"/>
        <path d="M705,248.29q0,68.85-17.33,113.77-21,53.71-71.78,88.87l12.2-45.66q62.26-49.8,62.26-100.09,0-37.6-23.68-91.07-4.59,23.92-13.77,71.53-3.87,20.52-6.52,20.51l-2.18-.73-.48-3.17q0-19.78,10.21-74.22,10.7-58.84,18.48-67.63,13.38,8.31,23.59,40.28Q705,228.28,705,248.29Z"/>
        <path d="M752.83,41q-5.13,16.6-14.16,21l-85.45,42q3.9-15.14,22.95-24.65Z"/>
        <path d="M757.23,121.58q0-7.32-8.79-7.32-12.21,0-12.21-3.42,0-6.11,7.32-6.1a12,12,0,0,1,4.89,1q2.43-1.69,6.95-10.27t5.25-12.21a15.14,15.14,0,0,0-5.4-1.69q-10.32,0-23.82,17.83t-13.5,28.32q0,9.51,9.65,9.27c5.11-.16,7.92.25,8.41,1.22q-3.9,5.38-25.63,13.43l-29.79,10.26q0,2.92,3.17,2.92,20.52,0,44.93-11.47Q757.22,139.66,757.23,121.58Z"/>
        <path d="M824.91,242.92a525.35,525.35,0,0,0-44.78-103Q765,185.31,765,275.88q0,48.83,8,50.29,5.54-2.69,5.54-28.07,0-13.68,6.27-60.55,12.29,23.19,26.52,62.25,16.21,44.68,16.21,63,0,25.63-15.38,50.78-9,14.9-33.45,42.24L757.47,478Q745,491.46,739.65,502.44c.16,1.31,1,1.95,2.43,1.95s4.87-1,10.23-2.93q57-20.74,75.75-54.93Q843.9,418,843.9,353,843.9,303.71,824.91,242.92Z"/>
      </g>
    </g>
  </g>
</svg>
