<svg xmlns="http://www.w3.org/2000/svg" viewBox="0 0 2021.52 672.12">
  <title>EH-Asset 84-layername</title>
  <g id="Layer_2" data-name="Layer 2">
    <g id="ElMelikul_Mulki" data-name="ElMelikul Mulki">
      <g>
        <path d="M99.61,609.13q-5.13,16.61-14.16,21L0,672.12Q3.9,657,23,647.46Z"/>
        <path d="M510.5,56.88q0,19-15.07,35.41t-34.18,16.35q-20.08,0-20.09-17.58,0-19.77,14-38.33,15.18-20.25,34.3-20.26,8.56,0,15.19,8.06A26.12,26.12,0,0,1,510.5,56.88ZM494.63,73.06q0-5.94-8-12.89t-13.87-7q-7.36,0-13.39,6.7t-6,14.13q0,10.68,19.16,10.67Q494.63,84.72,494.63,73.06Z"/>
        <path d="M587.65,406.49,575.2,452.71q-15.63,12.14-33,12.13-26.38,0-25.64-48l.25-23.92q-18.45,41-48.59,62.5l12.21-45.47q24.3-20,30.69-32.22,7.6-13.92,7.61-42.73,0-12.45-1.21-37t-1.2-37q0-6.35,4.8-21.12t8.66-18.43l2.16,1q2.44,42.24,2.44,169.92,0,29.31,20.27,29.3Q570.07,421.63,587.65,406.49Z"/>
        <path d="M649.41,100.58q0,18-16.39,39.52l7.47,7.32-8.55,24.15a169.51,169.51,0,0,1-16.11-12.74Q578,194.1,558.21,194.09q-3.91,0-13.43-2.93,29.78-14.4,62.25-38.08-9.62-9.29-9.62-16.36,0-12.69,13.85-29.66t26-17Q649.41,90.09,649.41,100.58ZM629.88,122.1q0-11.25-9.66-11.26l-3.72,1.47a11,11,0,0,0-2.73,7.35q0,4.89,11.65,14.44Q629.89,126.51,629.88,122.1Z"/>
        <path d="M706.05,407,693.6,453.4A36.06,36.06,0,0,1,674.32,459Q657,459,647,443.69q-20.51,25.4-25.63,25.39-5.62,0-16.6-12.94-10.26-12-12.21-18.76-5.62,7.53-21,18l12.21-45.43q11.22-10.49,33.69-31.25,2.45,0,24.17,18.31t37.11,18.31A46.74,46.74,0,0,0,706.05,407Z"/>
        <path d="M732.91,56.88q0,19-15.07,35.41t-34.17,16.35q-20.1,0-20.1-17.58,0-19.77,14-38.33,15.18-20.25,34.3-20.26,8.58,0,15.19,8.06A26.12,26.12,0,0,1,732.91,56.88ZM717,73.06q0-5.94-8-12.89t-13.88-7q-7.36,0-13.38,6.7t-6,14.13q0,10.68,19.16,10.67Q717,84.72,717,73.06Z"/>
        <path d="M780,252.93q0,68.85-17.33,113.77-21,53.71-71.78,88.87l12.21-45.66q62.25-49.8,62.25-100.1,0-37.59-23.68-91.06-4.59,23.92-13.77,71.53-3.87,20.52-6.52,20.51l-2.18-.73-.48-3.18q0-19.77,10.21-74.21,10.71-58.84,18.48-67.63,13.38,8.29,23.59,40.28Q780,232.92,780,252.93Z"/>
        <path d="M919,357.67q0,64.93-15.64,93.5-18.79,34.18-75.92,54.93Q819.34,509,817.14,509c-1.47,0-2.28-.65-2.44-1.95q5.37-11,17.82-24.41l21.24-22.22q24.4-27.34,33.45-42.24,15.38-25.14,15.38-50.78,0-18.31-16.21-63-14.25-39.06-26.52-62.25-6.27,46.88-6.27,60.54,0,25.39-5.55,28.08-7.95-1.47-7.95-50.29,0-90.58,15.09-136a525.35,525.35,0,0,1,44.78,103Q919,308.35,919,357.67Z"/>
        <path d="M1089.39,15.13q0,18-16.39,39.52l7.47,7.32-8.55,24.15a170.85,170.85,0,0,1-16.12-12.74q-37.83,35.27-57.62,35.26-3.9,0-13.42-2.93,29.78-14.4,62.25-38.08-9.62-9.28-9.62-16.36,0-12.69,13.85-29.66t26-17Q1089.39,4.64,1089.39,15.13Zm-19.53,21.53q0-11.26-9.66-11.27l-3.72,1.47a11,11,0,0,0-2.73,7.35q0,4.89,11.65,14.44Q1069.87,41.06,1069.86,36.66Z"/>
        <path d="M1525.67,609.13q-5.13,16.61-14.16,21l-85.45,42q3.92-15.14,23-24.66Z"/>
        <path d="M1542.27,252.93q0,68.85-17.33,113.77-21,53.71-71.78,88.87l12.21-45.66q62.25-49.8,62.26-100.1,0-37.59-23.69-91.06-4.59,23.92-13.77,71.53-3.87,20.52-6.52,20.51l-2.17-.73-.48-3.18q0-19.77,10.21-74.21,10.69-58.84,18.48-67.63,13.36,8.29,23.59,40.28Q1542.27,232.92,1542.27,252.93Z"/>
        <path d="M1688.76,406.74l-12.45,46.8q-19.55,13.26-39.55,13.26-27.6,0-37.84-30.95-5.62-17.39-6.6-53.77l-1.84-73.73q-2.07-83-2.06-84.47,0-3.18,5.88-20.75t8.06-20.51h1.44q.73,42.24,2.93,126.22.24,23.43,5.12,69.33,9.76,47.13,37.36,47.12Q1669.72,425.29,1688.76,406.74Z"/>
        <path d="M1746.86,131.1q-5.11,16.6-14.16,21l-85.45,42q3.91-15.14,23-24.66Z"/>
        <path d="M1808.63,407l-12.45,46.42a36.07,36.07,0,0,1-19.29,5.58q-17.34,0-27.34-15.29-20.5,25.4-25.63,25.39-5.62,0-16.61-12.94-10.24-12-12.2-18.76-5.62,7.53-21,18l12.21-45.43q11.22-10.49,33.69-31.25,2.43,0,24.17,18.31t37.11,18.31A46.74,46.74,0,0,0,1808.63,407Z"/>
        <path d="M1835.49,56.88q0,19-15.07,35.41t-34.18,16.35q-20.09,0-20.09-17.58,0-19.77,14-38.33,15.18-20.25,34.3-20.26,8.57,0,15.19,8.06A26.12,26.12,0,0,1,1835.49,56.88Zm-15.87,16.18q0-5.94-8-12.89t-13.87-7q-7.37,0-13.39,6.7t-6,14.13q0,10.68,19.16,10.67Q1819.62,84.72,1819.62,73.06Z"/>
        <path d="M1882.61,252.93q0,68.85-17.34,113.77-21,53.71-71.77,88.87l12.2-45.66q62.27-49.8,62.26-100.1,0-37.59-23.68-91.06-4.59,23.92-13.78,71.53-3.86,20.52-6.51,20.51l-2.18-.73-.48-3.18q0-19.77,10.21-74.21,10.7-58.84,18.48-67.63,13.38,8.29,23.59,40.28Q1882.59,232.92,1882.61,252.93Z"/>
        <path d="M1930.46,45.65q-5.13,16.6-14.16,21l-85.45,42q3.9-15.14,23-24.66Z"/>
        <path d="M183.11,380l3.18,1.22q8.09-12.42,52.88-28l13.7-15.35-2.44-2.67Q228.73,345,213.61,345q-14.15,0-14.15-7.32,0-3.42,4.15-6.6a14.55,14.55,0,0,1,9-3.17q4.63,0,9.27,7.33l11-10.26a7.75,7.75,0,0,0,1-3.91q0-8.54-7.11-8.54-11.28,0-25.38,11.09t-15.08,21.82q5.68,6.09,18.06,11Q184.84,368.09,183.11,380Z"/>
        <path d="M582.76,0l-2.93.24Q563.72,12,543,43.46q-15.63,24.9-31,49.8-42,65.43-79.87,105-44.94,47.13-104.3,80.57-19.29-29.17-35.17-41.2-20.78-15.44-51.05-15.44Q192,222.17,140.18,262,92.3,298.89,69.1,347q-18.81,39.09-18.81,85,0,44.71,24.42,72.57,25.64,29.07,69.58,29.07,54.19,0,116.45-49.07,29.29-23,94.73-91.31,47.11-49.06,63.72-49.07,6.1,0,6.1,5.86,0,12.45-6.46,36.37t-6.46,36.38q0,15.87,4.9,28.08,6.62,16.6,20.08,16.6,12.24,0,34.78-14.7l12.49-46.52q-5.37,6.57-16.11,12.41-11.49,6.33-19.29,6.33-16.11,0-16.11-35.82,0-20.7,1.22-28,7.07-42.15,7.08-44.35,0-14.37-6.6-14.37-25.4,0-70.55,51.69-46.39,52.9-94,87.78-64.69,46.82-115.72,46.81-86.19,0-86.18-75.37,0-35.85,21.23-78.78,23.91-48.54,67.22-76t97-27.44q35.63,0,68.32,50.54Q295.55,296.88,260,309.81l-1.71,2.93,1.22,1q27.06,0,71.69-18.55l8.79,21.72,1.22.25c1.29-.49,1.95-1.22,1.95-2.2q0-2.69-7.32-22.22,22-12,46.36-28.56,43-29.06,90.05-93.51,27.09-37.1,71.5-110.59A109,109,0,0,0,540,87.89q0,25.64,14.65,60.3l3.9-6.59A234.15,234.15,0,0,1,553.47,92q0-53,30.51-91.8Z"/>
        <path d="M1567.42,0l-2.93.24Q1548.38,12,1527.62,43.46q-15.63,24.9-31,49.8-42,65.43-79.87,105a444.85,444.85,0,0,1-104.3,80.57q-19.31-29.17-35.17-41.2-20.77-15.44-51.06-15.44-49.58,0-101.36,39.82-47.88,36.9-71.08,85-18.81,39.09-18.81,85,0,44.71,24.41,72.57,25.64,29.07,69.58,29.07,54.21,0,116.46-49.07,29.3-23,94.73-91.31,47.11-49.06,63.72-49.07c4.06,0,6.1,1.95,6.1,5.86q0,12.45-6.46,36.37T1397,422.85q0,15.87,4.89,28.08,6.61,16.6,20.09,16.6,12.24,0,34.78-14.7l12.49-46.52q-5.38,6.57-16.12,12.41-11.48,6.33-19.28,6.33-16.12,0-16.12-35.82,0-20.7,1.22-28,7.08-42.15,7.08-44.35,0-14.37-6.59-14.37-25.4,0-70.55,51.69-46.39,52.9-94,87.78-64.7,46.82-115.72,46.81-86.19,0-86.18-75.37,0-35.85,21.23-78.78,23.91-48.54,67.22-76t97-27.44q35.63,0,68.33,50.54-26.58,15.13-62.19,28.07l-1.71,2.93,1.22,1q27.08,0,71.7-18.55l8.78,21.72,1.22.25c1.3-.49,2-1.22,2-2.2q0-2.69-7.31-22.22,22-12,46.36-28.56,42.95-29.06,90-93.51,27.08-37.1,71.5-110.59a109,109,0,0,0-3.66,27.83q0,25.64,14.64,60.3l3.91-6.59A233.49,233.49,0,0,1,1538.12,92q0-53,30.52-91.8Z"/>
        <path d="M1167.77,380l3.18,1.22q8.08-12.42,52.87-28l13.71-15.35-2.44-2.67q-21.71,9.77-36.83,9.76-14.15,0-14.14-7.32,0-3.42,4.15-6.6a14.55,14.55,0,0,1,9-3.17q4.64,0,9.26,7.33l11-10.26a7.75,7.75,0,0,0,1-3.91c0-5.69-2.38-8.54-7.11-8.54q-11.3,0-25.38,11.09t-15.08,21.82q5.68,6.09,18.06,11Q1169.5,368.09,1167.77,380Z"/>
        <path d="M2002.54,247.56a525.35,525.35,0,0,0-44.78-103q-15.1,45.41-15.09,136,0,48.83,7.95,50.29,5.55-2.69,5.55-28.08,0-13.67,6.27-60.54,12.27,23.19,26.52,62.25,16.2,44.69,16.21,63,0,25.63-15.39,50.78-9,14.9-33.44,42.24l-21.24,22.22q-12.45,13.43-17.83,24.41a2.12,2.12,0,0,0,2.44,1.95q2.19,0,10.23-2.93,57-20.75,75.75-54.93,15.82-28.56,15.83-93.5Q2021.52,308.35,2002.54,247.56Z"/>
        <path d="M1934.85,126.22q0-7.32-8.79-7.32-12.21,0-12.2-3.42,0-6.11,7.32-6.1a11.88,11.88,0,0,1,4.88,1q2.45-1.69,7-10.28t5.25-12.2a15.25,15.25,0,0,0-5.4-1.69q-10.32,0-23.82,17.82t-13.5,28.32q0,9.52,9.65,9.28,7.66-.24,8.41,1.22-3.91,5.37-25.64,13.43l-29.78,10.25c0,2,1.06,2.93,3.17,2.93q20.51,0,44.92-11.47Q1934.86,144.29,1934.85,126.22Z"/>
      </g>
    </g>
  </g>
</svg>
