<svg xmlns="http://www.w3.org/2000/svg" viewBox="0 0 914.7 691.89">
  <title>EH-Asset 86-layername</title>
  <g id="Layer_2" data-name="Layer 2">
    <g id="ElMuqsit">
      <g>
        <path d="M104.64,10.49q0,18.06-16.4,39.52l7.47,7.32L87.17,81.48A169.58,169.58,0,0,1,71.05,68.74Q33.21,104,13.43,104,9.52,104,0,101.07,29.79,86.67,62.26,63q-9.63-9.29-9.62-16.36,0-12.69,13.85-29.66t26-17Q104.64,0,104.64,10.49ZM85.11,32q0-11.26-9.67-11.27l-3.72,1.47A11,11,0,0,0,69,29.57Q69,34.46,80.64,44C83.62,39,85.11,35,85.11,32Z"/>
        <path d="M301,401.61l-12.45,46.14Q250.71,475.17,139.31,501q-2.77,10.25-11.24,24.9l-1.95-1.22,5.13-22q-33.94,5.61-77.39,5.61a195.78,195.78,0,0,1-36.63-3.25l-1-2.24q1.95-3.75,8-5.5,17.58-2.21,50.79-7.13,29.3-5.16,66.4-23.87,17.17-65.93,36.31-88.38,13.5-38.82,13.5-65.67,0-14.65-5.13-44.44-5.62-32.46-11-42Q157.63,281,140,346.19c-.65,3.26-1.8,8-3.42,14.16q-3.26,8.55-9,10l-.5-2.2Q140,314.22,153.22,260q17.58-66.4,37.35-102.3,10.26,13.68,16.36,58.35a484.74,484.74,0,0,1,4.4,61.77q0,11.48-7.48,44.92-7.72,34.42-12.54,42.48,53.28-31,68.61-31,1.95,5.13,1.94,14.16,0,6.11-4.87,23.68-14.15,50.79-51.45,82.52,12.21-3.42,49-23.93T301,401.61Zm-66.72-15.14q-39.81,12-53.23,24t-27.34,49.69Q226,426.51,234.28,386.47Z"/>
        <path d="M356.83,628.91q-5.11,16.59-14.16,21l-85.44,42q3.9-15.14,22.94-24.65Z"/>
        <path d="M453.51,401.81,440.82,449q-17.82,13.2-44.19,13.2-20.5,0-32.72-14.65-11.22-13.68-11.23-33.95a72.26,72.26,0,0,1,.74-10.26l-5.35,1a85.23,85.23,0,0,1-20.18,23.09q-15.08,11.67-27.71,10.19a154.58,154.58,0,0,1-15.37,12.78l12.45-46q6.28-3.91,11.11-16.39,5.31-13.92,9.18-17.82l1.93.73a202.55,202.55,0,0,1-2,20.51q5.4,0,17.66-11.72,10.56-10,14.24-16.6,2.2-4.16,7.11-20.27c.66-2.44,2.45-5,5.4-7.56l1.47,1.46.49,11.23q0,1.71-1.47,11.23,2.46,0,10.52-5.86,9-6.58,18.55-26.12,8.79-18.56,9.77-19l1.22,1.46v4.88q0,21.24-11,46.63-12,27.6-28.32,37.85,2.44,26.61,33.94,26.61Q426.66,425.54,453.51,401.81Z"/>
        <path d="M479.88,52.25q0,19-15.07,35.4T430.64,104q-20.1,0-20.09-17.57,0-19.79,14-38.33,15.19-20.26,34.3-20.27,8.58,0,15.19,8.06A26.15,26.15,0,0,1,479.88,52.25ZM464,68.42q0-5.94-8-12.89t-13.88-7q-7.36,0-13.38,6.7t-6,14.14q0,10.67,19.16,10.66Q464,80.08,464,68.42Z"/>
        <path d="M645.16,95.94q0,18-16.39,39.52l7.47,7.32-8.55,24.15a169.51,169.51,0,0,1-16.11-12.74Q573.74,189.46,554,189.45q-3.91,0-13.43-2.93,29.78-14.4,62.25-38.08-9.62-9.28-9.62-16.36,0-12.69,13.85-29.66t26-17Q645.16,85.45,645.16,95.94Zm-19.53,21.53q0-11.27-9.66-11.27l-3.72,1.47a11,11,0,0,0-2.73,7.35q0,4.89,11.65,14.44Q625.64,121.87,625.63,117.47Z"/>
        <path d="M701.81,402.34l-12.46,46.42a36.07,36.07,0,0,1-19.28,5.59q-17.34,0-27.35-15.3-20.51,25.4-25.63,25.39-5.62,0-16.6-12.94-10.26-12-12.21-18.76-5.62,7.53-21,18l12.21-45.43q11.24-10.49,33.69-31.25,2.45,0,24.17,18.31t37.11,18.31A46.77,46.77,0,0,0,701.81,402.34Z"/>
        <path d="M728.66,52.25q0,19-15.07,35.4T679.42,104q-20.1,0-20.1-17.57,0-19.79,14-38.33,15.18-20.26,34.3-20.27,8.58,0,15.19,8.06A26.15,26.15,0,0,1,728.66,52.25ZM712.79,68.42q0-5.94-8-12.89t-13.88-7q-7.36,0-13.38,6.7t-6,14.14q0,10.67,19.16,10.66Q712.78,80.08,712.79,68.42Z"/>
        <path d="M775.78,248.29q0,68.85-17.33,113.77-21,53.71-71.78,88.87l12.21-45.66q62.25-49.8,62.25-100.09,0-37.6-23.68-91.07-4.59,23.92-13.77,71.53-3.87,20.52-6.52,20.51l-2.18-.73-.48-3.17q0-19.78,10.21-74.22,10.71-58.84,18.48-67.63,13.38,8.31,23.59,40.28Q775.78,228.28,775.78,248.29Z"/>
        <path d="M823.63,41q-5.13,16.6-14.16,21L724,104q3.9-15.14,23-24.65Z"/>
        <path d="M486.86,408.94q33.54-38.58,33.55-62.26,0-31-14.12-31-6.81,0-20.43,10.76t-25.31,31.29q-12.41,22-12.41,37.65a35.14,35.14,0,0,0,1.2,9.29l-12.45,46.93a306.19,306.19,0,0,0,27.8-22.34q14.85,17.43,23.39,23.81a51.85,51.85,0,0,0,31.25,10.32A93,93,0,0,0,571.09,448l12.69-47.25q-26.85,20.67-58.1,20.68Q495.4,421.39,486.86,408.94Zm-14.25-18.7q-8.36-9.72-8.35-15.57,0-4.38,11.05-14.11T491,350.83q12.78,0,12.78,9.49Q503.81,374.18,472.61,390.24Z"/>
        <path d="M540,229q2.93-12.45,4.15-18.79-35.65,22-55.67,30-15.14,30-15.13,36.38l.24,2.93Q535.36,248.77,540,229Z"/>
        <path d="M828,121.58q0-7.32-8.79-7.32-12.21,0-12.21-3.42,0-6.11,7.32-6.1a12,12,0,0,1,4.89,1q2.43-1.69,7-10.27c3-5.72,4.77-9.79,5.25-12.21a15.14,15.14,0,0,0-5.4-1.69q-10.32,0-23.82,17.83t-13.5,28.32q0,9.51,9.65,9.27c5.11-.16,7.92.25,8.41,1.22q-3.9,5.38-25.63,13.43l-29.79,10.26q0,2.92,3.18,2.92,20.51,0,44.92-11.47Q828,139.66,828,121.58Z"/>
        <path d="M895.71,242.92a525.35,525.35,0,0,0-44.78-103q-15.09,45.42-15.09,136,0,48.83,8,50.29,5.54-2.69,5.54-28.07,0-13.68,6.27-60.55,12.28,23.19,26.52,62.25,16.22,44.68,16.21,63,0,25.63-15.38,50.78-9,14.9-33.45,42.24L828.27,478q-12.45,13.43-17.82,24.41c.16,1.31,1,1.95,2.44,1.95s4.86-1,10.22-2.93q57-20.74,75.75-54.93Q914.7,418,914.7,353,914.7,303.71,895.71,242.92Z"/>
      </g>
    </g>
  </g>
</svg>
