<svg xmlns="http://www.w3.org/2000/svg" viewBox="0 0 882.96 664.06">
  <title>EH-Asset 8-layername</title>
  <g id="Layer_2" data-name="Layer 2">
    <g id="ElMuhejmin">
      <g>
        <path d="M104.64,129.14q0,18.06-16.4,39.52L95.71,176l-8.54,24.15A171,171,0,0,1,71.05,187.4q-37.84,35.25-57.62,35.26-3.91,0-13.43-2.93,29.79-14.4,62.26-38.09-9.63-9.27-9.62-16.36,0-12.69,13.85-29.66t26-17Q104.64,118.65,104.64,129.14ZM85.11,150.67q0-11.26-9.67-11.27l-3.72,1.47A11,11,0,0,0,69,148.22q0,4.91,11.65,14.45Q85.11,155.08,85.11,150.67Z"/>
        <path d="M262.6,373.78l-12.45,46.27q-24.68,18.46-40,17.21l-4.64,21.55q-8.53,39.69-39.73,79.61Q130.14,584,94.8,584q-44.61,0-44.61-54.05,0-31.3,23.45-84.13-31.5,1.23-50,32l-1.46.49-1.47-1.47q0-24.48,20.51-49.47,21.48-26.44,45.19-26.45,10.76,0,10.76,9.54,0,9.29-13.57,40.6T70,498.46q0,18.35,10.88,29.47t29.24,11.13q22.26,0,48.43-24.9Q183.24,490.73,189.1,468a118.33,118.33,0,0,0,4.16-29.3q0-15.62-12-27.59-.48-16.11,18.9-44.43,7.28,3.18,18,31.25Q235.5,398,262.6,373.78Z"/>
        <path d="M318.75,601.07q-5.13,16.6-14.16,21l-85.45,42q3.9-15.13,23-24.66Z"/>
        <path d="M380.52,374.51l-12.46,46.42a36.06,36.06,0,0,1-19.28,5.58q-17.34,0-27.35-15.29-20.51,25.39-25.63,25.39-5.62,0-16.6-12.94-10.26-12-12.21-18.76-5.62,7.53-21,18l12.21-45.43q11.24-10.49,33.69-31.25,2.44,0,24.17,18.31t37.11,18.31A46.77,46.77,0,0,0,380.52,374.51Z"/>
        <path d="M407.37,170.9q0,19-15.07,35.4t-34.17,16.36q-20.1,0-20.09-17.58,0-19.79,14-38.33,15.19-20.26,34.3-20.27,8.58,0,15.19,8.06A26.15,26.15,0,0,1,407.37,170.9ZM391.5,187.08q0-6-8-12.9t-13.88-6.94q-7.36,0-13.38,6.69t-6,14.14q0,10.67,19.16,10.66Q391.5,198.73,391.5,187.08Z"/>
        <path d="M359.76,486.57q-15.87,32.24-15.62,39.8,14.36-7.57,21.41-11.72,29.93-17.08,33.82-21,9-9,15.33-36.62-28.93,17.58-36.47,20.75Q364.15,483.89,359.76,486.57Z"/>
        <path d="M430.18,392.09q-17.82,9.29-29.54,9.28-10,0-14.16-2.69,18.94-26.12,18.94-43.94a43.22,43.22,0,0,0-.73-8.3Q391.09,362.06,378,377.2l-12.15,45.32,6.56-5.17q9.72,18,30.69,17.95,19.77,0,40.28-15l12.45-46.52Q446,383.55,430.18,392.09Z"/>
        <path d="M512.84,98.63q-5.13,16.61-14.16,21l-85.45,42q3.9-15.13,22.95-24.66Z"/>
        <path d="M552.15,374,539.7,420.41q-6.11,4.15-22,13.18a124.36,124.36,0,0,0-44.43,43.22q-17.09,27.82-17.09,59.32A109,109,0,0,1,444,553.71q-15.87-23.19-15.87-60.55,0-29.3,24.66-115.72,12.69-14.88,26.86-30.76a44.9,44.9,0,0,1,.73,8.3q0,12.94-9,30.76Q463.29,402.1,453,412.35q-9.28,39.79-9.28,55.91,0,16.61,4.64,22,6-22,23.43-48.58,15.63-23.92,36.38-38.82Z"/>
        <path d="M613.43,68.11q0,18-16.4,39.52l7.47,7.31L596,139.1a168.32,168.32,0,0,1-16.12-12.74Q542,161.63,522.22,161.62q-3.91,0-13.43-2.93,29.77-14.4,62.25-38.08-9.62-9.28-9.62-16.36,0-12.69,13.86-29.67t26-17Q613.43,57.62,613.43,68.11ZM593.9,89.63q0-11.25-9.67-11.26l-3.72,1.47a10.94,10.94,0,0,0-2.73,7.34q0,4.91,11.65,14.45Q593.9,94,593.9,89.63Z"/>
        <path d="M670.07,374.51l-12.45,46.42a36.12,36.12,0,0,1-19.29,5.58q-17.34,0-27.35-15.29-20.51,25.39-25.63,25.39-5.62,0-16.6-12.94-10.26-12-12.21-18.76-5.61,7.53-21,18l12.2-45.43Q559,367,581.44,346.19q2.44,0,24.17,18.31t37.11,18.31A46.77,46.77,0,0,0,670.07,374.51Z"/>
        <path d="M696.92,24.41q0,19-15.07,35.4T647.68,76.17q-20.1,0-20.09-17.58,0-19.77,14-38.33Q656.74,0,675.85,0,684.43,0,691,8.06A26.1,26.1,0,0,1,696.92,24.41ZM681.05,40.59q0-5.94-8-12.9T659.2,20.75q-7.38,0-13.39,6.7t-6,14.13q0,10.67,19.16,10.67Q681,52.25,681.05,40.59Z"/>
        <path d="M744,220.46q0,68.85-17.33,113.77-21,53.72-71.78,88.87l12.21-45.66q62.25-49.8,62.25-100.1,0-37.59-23.68-91.06-4.59,23.92-13.77,71.53-3.87,20.51-6.52,20.51l-2.17-.73-.49-3.18q0-19.77,10.21-74.21,10.71-58.84,18.49-67.63,13.37,8.3,23.58,40.28Q744,200.45,744,220.46Z"/>
        <path d="M791.89,13.18q-5.11,16.61-14.16,21l-85.45,42q3.91-15.14,23-24.66Z"/>
        <path d="M796.29,93.75q0-7.32-8.79-7.32-12.21,0-12.21-3.42,0-6.11,7.33-6.11a12,12,0,0,1,4.88,1q2.43-1.69,7-10.28t5.25-12.2a15.23,15.23,0,0,0-5.41-1.69q-10.31,0-23.82,17.82T757,99.85q0,9.53,9.65,9.28c5.11-.16,7.92.25,8.41,1.22q-3.9,5.37-25.63,13.43L719.62,134c0,2,1.06,2.93,3.18,2.93q20.51,0,44.92-11.47Q796.28,111.82,796.29,93.75Z"/>
        <path d="M864,215.09a525.35,525.35,0,0,0-44.78-103q-15.09,45.41-15.09,136,0,48.82,8,50.29,5.54-2.68,5.54-28.08,0-13.67,6.28-60.54Q836.15,232.91,850.4,272q16.2,44.68,16.2,63,0,25.64-15.38,50.78-9,14.89-33.45,42.24L796.53,450.2q-12.45,13.43-17.82,24.41c.16,1.3,1,1.95,2.44,1.95s4.86-1,10.22-2.93q57-20.75,75.76-54.93Q883,390.14,883,325.2,883,275.88,864,215.09Z"/>
      </g>
    </g>
  </g>
</svg>
