<svg xmlns="http://www.w3.org/2000/svg" viewBox="0 0 810.69 639.65">
  <title>EH-Asset 91-layername</title>
  <g id="Layer_2" data-name="Layer 2">
    <g id="ElManiu">
      <g>
        <path d="M104.64,68.11q0,18-16.4,39.52l7.47,7.31L87.17,139.1a168.32,168.32,0,0,1-16.12-12.74q-37.84,35.27-57.62,35.26-3.91,0-13.43-2.93,29.79-14.4,62.26-38.08-9.63-9.28-9.63-16.36,0-12.69,13.86-29.67t26-17Q104.64,57.62,104.64,68.11ZM85.11,89.63q0-11.25-9.67-11.26l-3.72,1.47A10.94,10.94,0,0,0,69,87.18q0,4.91,11.65,14.45Q85.11,94,85.11,89.63Z"/>
        <path d="M266.41,373.85,254,420.36q-31.5,19.09-51.52,19.09-24.67,0-36.64-31.43L89.56,465.24Q28.21,511.44,28.22,519q0,10.28,33.69,10.27,44.93,0,106.45-24.42,57.85-23.19,95.94-53.46h1.23q-2.94,15.16-60.55,56.75-31.74,23-77.39,41.84-51,21-84,21-41,0-41-18.57,0-36.66,65.18-92.61,26.13-22.25,93.75-69.16-.74-11.47-2.2-15.64-2.94-8.79-11.5-9.53-11-1-11-3.18,0-5.61,6.09-20.64t10.23-20.17q3.41-4.4,23.63-8.06,17.05-2.93,26.8-2.93,24.6,0,24.6,15.09,0,21.42-40.13,61.11,7.8,11,34.67,11Q235.88,397.71,266.41,373.85Z"/>
        <path d="M322.9,576.66q-5.13,16.61-14.16,21l-85.45,42q3.9-15.15,23-24.66Z"/>
        <path d="M477.93,374.27l-12.45,46.8q-19.55,13.26-39.55,13.26-27.6,0-37.85-30.95-5.61-17.4-6.59-53.77l-1.84-73.73q-2.07-83-2.06-84.47,0-3.18,5.88-20.76t8-20.5H393q.73,42.24,2.93,126.22.24,23.43,5.12,69.33,9.76,47.13,37.36,47.12Q458.89,392.82,477.93,374.27Z"/>
        <path d="M536,98.63q-5.12,16.61-14.16,21l-85.45,42q3.91-15.13,22.95-24.66Z"/>
        <path d="M597.8,374.51l-12.45,46.42a36.07,36.07,0,0,1-19.29,5.58q-17.34,0-27.34-15.29-20.51,25.39-25.64,25.39-5.61,0-16.6-12.94-10.25-12-12.2-18.76-5.62,7.53-21,18l12.21-45.43q11.22-10.49,33.69-31.25,2.43,0,24.17,18.31t37.11,18.31A46.76,46.76,0,0,0,597.8,374.51Z"/>
        <path d="M624.66,24.41q0,19-15.07,35.4T575.41,76.17q-20.1,0-20.09-17.58,0-19.77,14-38.33Q584.47,0,603.59,0q8.56,0,15.19,8.06A26.1,26.1,0,0,1,624.66,24.41ZM608.79,40.59q0-6-8-12.9t-13.87-6.94q-7.36,0-13.39,6.7t-6,14.13q0,10.67,19.15,10.67Q608.79,52.25,608.79,40.59Z"/>
        <path d="M671.78,220.46q0,68.85-17.34,113.77-21,53.72-71.78,88.87l12.21-45.66q62.26-49.8,62.26-100.1,0-37.59-23.68-91.06-4.59,23.92-13.78,71.53-3.85,20.51-6.51,20.51l-2.18-.73-.48-3.18q0-19.77,10.21-74.21,10.69-58.84,18.48-67.63,13.38,8.3,23.59,40.28Q671.77,200.45,671.78,220.46Z"/>
        <path d="M719.63,13.18q-5.13,16.61-14.16,21L620,76.17q3.9-15.14,23-24.66Z"/>
        <path d="M265.77,288.82q-7.32,18.07-9.52,32.71l.49,1.71,2.68-.24a43.89,43.89,0,0,1,10.26-13.43q11,12.71,11,38.09V353q-8.3,16.85-17.58,23.68l-12.45,45.9q28.81-24.42,39.68-69.34,8.42-34.9,8.42-42,0-28.08-15.1-49.32Q274.55,267.09,265.77,288.82Z"/>
        <path d="M271.89,215.09q1.71-2.44,10-17.34,0-4.14-9.52-9.76a124.23,124.23,0,0,0-13.19-6.59l-21.73,34.18q14.16,10.5,21.73,15.13A73.21,73.21,0,0,0,271.89,215.09Z"/>
        <path d="M791.71,215.09a524.78,524.78,0,0,0-44.79-103q-15.09,45.41-15.09,136,0,48.82,8,50.29,5.55-2.68,5.55-28.08,0-13.67,6.27-60.54,12.27,23.19,26.52,62.25,16.2,44.68,16.2,63,0,25.64-15.38,50.78-9,14.89-33.44,42.24L724.27,450.2q-12.46,13.43-17.83,24.41a2.12,2.12,0,0,0,2.44,1.95q2.19,0,10.23-2.93,57-20.75,75.75-54.93,15.82-28.56,15.83-93.5Q810.69,275.88,791.71,215.09Z"/>
        <path d="M724,93.75q0-7.32-8.79-7.32Q703,86.43,703,83q0-6.11,7.32-6.11a11.88,11.88,0,0,1,4.88,1q2.44-1.69,7-10.28t5.25-12.2a15.25,15.25,0,0,0-5.4-1.69q-10.32,0-23.82,17.82T684.71,99.85q0,9.53,9.66,9.28,7.67-.24,8.41,1.22-3.91,5.37-25.64,13.43L647.36,134c0,2,1,2.93,3.17,2.93q20.51,0,44.92-11.47Q724,111.82,724,93.75Z"/>
      </g>
    </g>
  </g>
</svg>
