<svg xmlns="http://www.w3.org/2000/svg" viewBox="0 0 861.96 626.46">
  <title>EH-Asset 24-layername</title>
  <g id="Layer_2" data-name="Layer 2">
    <g id="ErRafi">
      <g>
        <path d="M104.64,54.92q0,18.06-16.4,39.52l7.47,7.32-8.54,24.15a168.14,168.14,0,0,1-16.12-12.73q-37.84,35.25-57.62,35.26-3.91,0-13.43-2.93,29.79-14.4,62.26-38.09-9.63-9.27-9.63-16.36,0-12.69,13.86-29.66t26-17Q104.64,44.43,104.64,54.92ZM85.11,76.45q0-11.26-9.67-11.26l-3.72,1.46A11,11,0,0,0,69,74q0,4.91,11.65,14.45Q85.11,80.86,85.11,76.45Z"/>
        <path d="M266.41,360.66,254,407.18q-31.5,19.1-51.52,19.09-24.67,0-36.64-31.43L89.56,452.05q-61.35,46.21-61.34,53.79,0,10.28,33.69,10.27,44.93,0,106.45-24.41,57.85-23.19,95.94-53.47h1.23Q262.59,453.4,205,495q-31.74,23-77.39,41.83-51,21-84,21-41,0-41-18.57,0-36.66,65.18-92.62,26.13-22.23,93.75-69.15-.74-11.49-2.2-15.64-2.94-8.81-11.5-9.53-11-1-11-3.18,0-5.62,6.09-20.65t10.23-20.16q3.41-4.39,23.63-8.06,17.05-2.94,26.8-2.94,24.6,0,24.6,15.1,0,21.42-40.13,61.11,7.8,10.95,34.67,10.95Q235.88,384.52,266.41,360.66Z"/>
        <path d="M322.9,563.48q-5.13,16.59-14.16,21l-85.45,42q3.9-15.13,23-24.65Z"/>
        <path d="M491.84,312q0,65-15.63,93.51-18.79,34.19-75.92,54.93-8.06,2.93-10.25,2.93c-1.47,0-2.28-.65-2.44-1.95q5.36-11,17.82-24.42,10.74-11.22,21.24-22.22,24.4-27.33,33.45-42.23,15.38-25.14,15.38-50.78,0-18.31-16.21-63Q445,219.73,432.76,196.53q-6.27,46.88-6.27,60.55,0,25.4-5.55,28.08-7.95-1.47-7.95-50.3,0-90.57,15.09-136a525.52,525.52,0,0,1,44.78,103Q491.85,262.7,491.84,312Z"/>
        <path d="M649.56,360.84,636.86,408q-30.27,17.58-42.23,25.63-28.57,19.05-34.92,31.5-19.53,42.24-39.06,84.23-28.32,53.7-59.08,64-23.43,8-51.51,8-56.4,0-72.51-9.51l-.74-1.23,2-2.2a163.46,163.46,0,0,0,32,2.93q44.92,0,85-28.81,35.4-25.87,59.82-68.36,1.69-3.17,23.19-45.9,13.92-27.83,27-43.58t41.38-33.32Q638.57,371.83,649.56,360.84Z"/>
        <path d="M723,207.28q0,68.84-17.33,113.76-21,53.71-71.78,88.87l12.21-45.65q62.25-49.81,62.26-100.1,0-37.59-23.69-91.06-4.58,23.93-13.77,71.53-3.86,20.5-6.52,20.51l-2.17-.74-.48-3.17q0-19.77,10.21-74.22,10.69-58.83,18.48-67.63,13.38,8.31,23.59,40.29Q723,187.26,723,207.28Z"/>
        <path d="M770.9,0q-5.13,16.61-14.16,21L671.29,63q3.9-15.14,23-24.66Z"/>
        <path d="M289.94,233.15q-11.47,0-25.39,27.84-12.95,25.88-12.94,39.55a15,15,0,0,0,6.1,12.2,19.79,19.79,0,0,0,12.94,4.4q10.5,0,26.86-13.43c3.09,1.31,4.64,4.15,4.64,8.55q0,11.72-14.41,28.8-12.21,14.65-24.41,22.47l-12.45,45.89q44.43-32,62.85-91.06,9.66-31,9.66-41,0-14.14-9.66-28.32Q303.35,233.16,289.94,233.15Z"/>
        <path d="M294.31,182.13l10-17.58q0-8.53-22.22-16.6-21,32.22-22,34.42a226.8,226.8,0,0,0,21.48,14.9Q287.22,193.36,294.31,182.13Z"/>
        <path d="M460.84,159.91l79.83-28.32q9.76-3.42,16.85-18.55l-69.58,24.41Q471.57,143.07,460.84,159.91Z"/>
        <path d="M519.92,168.7q-9.28,0-9.28-17.82l-5.86,1.46q-18.55,32.47-30,32.47-8.55,0-8.54-11.47l.73-7.57-8.54,4.64q-6.84,18.6-6.84,25.25,0,13.82,14.19,13.81,16.41,0,31.09-21.15,8.81,6.26,14.44,6.26,17.63,0,29.12-21.24,8.57-15.61,11-36.62l-7.56,2.2Q534.07,168.71,519.92,168.7Z"/>
        <path d="M843,201.9a525.55,525.55,0,0,0-44.79-103q-15.09,45.41-15.09,136,0,48.84,8,50.3,5.55-2.69,5.55-28.08,0-13.66,6.27-60.55,12.27,23.21,26.52,62.26,16.2,44.67,16.2,63,0,25.64-15.38,50.78-9,14.9-33.44,42.23-10.5,11-21.24,22.22-12.46,13.42-17.83,24.42a2.12,2.12,0,0,0,2.44,1.95q2.19,0,10.23-2.93,57-20.74,75.75-54.93Q862,376.95,862,312,862,262.71,843,201.9Z"/>
        <path d="M775.29,80.57q0-7.33-8.79-7.33c-8.14,0-12.21-1.13-12.21-3.42q0-6.09,7.33-6.1a11.88,11.88,0,0,1,4.88,1q2.44-1.71,7-10.28t5.25-12.2a15,15,0,0,0-5.4-1.69q-10.32,0-23.82,17.82T736,86.67q0,9.52,9.66,9.28c5.11-.16,7.91.24,8.41,1.22q-3.91,5.37-25.64,13.43l-29.78,10.25c0,2,1,2.93,3.17,2.93q20.51,0,44.92-11.48Q775.3,98.64,775.29,80.57Z"/>
      </g>
    </g>
  </g>
</svg>
