<svg xmlns="http://www.w3.org/2000/svg" viewBox="0 0 1214.74 659.91">
  <title>EH-Asset 31-layername</title>
  <g id="Layer_2" data-name="Layer 2">
    <g id="ElLatif">
      <g>
        <path d="M104.64,88.37q0,18.06-16.4,39.52l7.47,7.32-8.54,24.15a171,171,0,0,1-16.12-12.73q-37.84,35.25-57.62,35.25Q9.52,181.88,0,179q29.79-14.42,62.26-38.09-9.63-9.27-9.62-16.36,0-12.69,13.85-29.66t26-17Q104.64,77.88,104.64,88.37ZM85.11,109.9q0-11.27-9.67-11.27l-3.72,1.47A11,11,0,0,0,69,107.45q0,4.89,11.65,14.44C83.62,116.84,85.11,112.83,85.11,109.9Z"/>
        <path d="M661.46,393.91,649,440.37q-43,31.54-79.1,37.9-75.43,61.29-171.86,97.41-99.84,37.61-194.31,37.6-63.46,0-116-25.39Q22.13,556.39,22.12,500q0-57.37,52.95-106.69,55.4-51.75,141.77-51.76,21,0,63.57,3.18t63.81,3.41q81.51,0,136.9-39.06,21.47-15.13,29.28-32.22-7.08-3.42-19.53-16.61,9.28-12.69,29.8-33.44,8.55,7.08,20.77,22.7a225,225,0,0,1-57.38,65.68q-36.37,28.56-78.86,39.69-35.64,9.38-87.41,9.38-19.77,0-59.21-2t-59.2-1.7Q129.3,360.6,81,399.9q-38.82,31.5-38.82,76.66,0,53.48,72.76,79.35,51.75,18.32,118.16,18.31,67.14,0,159.43-32,86.68-30.32,148.21-71.38L539,462.76q0-18.57,17.89-52.8,19.35-37.15,35-37.16,19.59,0,19.59,35,0,9-4.7,20.9,19.29-10.21,28.56-15.57A184.39,184.39,0,0,0,661.46,393.91Zm-67.56,36q0-18.8-12.86-18.8-4.86,0-14.68,10.38t-9.82,15.26q0,4.39,10.19,4.39,4.6,0,20.62-3.66Q593.89,432.37,593.9,429.93Z"/>
        <path d="M792.38,596.92q-5.13,16.61-14.16,21l-85.45,42q3.9-15.13,23-24.66Z"/>
        <path d="M899.56,394.24l-12.45,46.24q-23.94,15.33-50.05,15.33-23.92,0-40-16.3-15.32-15.08-19.53-39.4-10.9,9-31.5,24.58a93.2,93.2,0,0,1-5,25.3l-1.51-1-1.51-18.92q-6.11,4.61-17.82,12.61l12.2-45.18L741.6,389q29.79-105.5,29.79-142.86,0-75.21-21.24-86.21-7.83.26-30.52,58l-2,1.47-2.19-2.2q3.16-24.63,14.4-53.17,13.67-35.11,29.54-43.9,3.18.24,9.77,7.31,19.23,20.25,19.22,79.25,0,28.53-16.78,98.76Q788,291.59,816.55,276q33-17.75,48.59-17.74,10.49,0,10.49,8.55,0,3.66-11.19,30.27-12.66,29.79-30.19,50.29-10,11.71-42.11,40.29,0,15.87,19,23.92,14.4,6.11,33,6.1,12.93,0,29.54-7.09T899.56,394.24Zm-46.63-95.41-1.71-2.69q-16.37,0-47.39,18.1Q777,330.16,761.57,345.31l-10,36.94,57.64-39.63Q852.69,310.58,852.93,298.83Z"/>
        <path d="M1002.59,394.29,990.14,440.5q-15.63,12.13-33,12.14-26.38,0-25.64-48.05l.25-23.92q-18.45,41-48.59,62.5l12.21-45.46q24.3-20,30.69-32.23,7.6-13.92,7.61-42.73,0-12.45-1.21-37t-1.2-37q0-6.34,4.8-21.12t8.66-18.43l2.16,1q2.45,42.24,2.44,169.92,0,29.3,20.27,29.29Q985,409.42,1002.59,394.29Z"/>
        <path d="M1075.83,240.72q0,68.85-17.34,113.77-21,53.72-71.77,88.87l12.2-45.65q62.27-49.81,62.26-100.1,0-37.61-23.68-91.07-4.59,23.94-13.77,71.54-3.87,20.51-6.52,20.5l-2.18-.73-.48-3.17q0-19.79,10.21-74.22,10.7-58.83,18.48-67.63,13.38,8.31,23.59,40.29Q1075.83,220.71,1075.83,240.72Z"/>
        <path d="M1123.68,33.45q-5.13,16.61-14.16,21l-85.45,42q3.9-15.14,23-24.66Z"/>
        <path d="M680.18,421.63c-6.68,0-11.39-.89-14.16-2.68Q685,392.82,685,375a42.43,42.43,0,0,0-.73-8.3q-13.61,15.63-26.71,30.76l-12.15,45.32,6.56-5.17q9.72,18,30.69,18,19.77,0,40.28-15L735.36,394q-9.78,9.76-25.64,18.31Q691.9,421.64,680.18,421.63Z"/>
        <path d="M639.31,506.84q-15.88,32.22-15.63,39.79,14.36-7.56,21.41-11.72,29.92-17.08,33.82-21,9-9,15.33-36.63-28.93,17.58-36.46,20.76Q643.68,504.16,639.31,506.84Z"/>
        <path d="M924.71,55.66q-9.29,0-9.28-17.82l-5.86,1.47q-18.55,32.47-30,32.47Q871,71.78,871,60.3l.74-7.57-8.55,4.64q-6.84,18.6-6.83,25.26,0,13.8,14.19,13.81,16.4,0,31.08-21.16,8.82,6.27,14.44,6.26,17.63,0,29.13-21.24,8.55-15.61,11-36.62l-7.57,2.2Q938.87,55.67,924.71,55.66Z"/>
        <path d="M865.62,46.88l79.84-28.33Q955.23,15.15,962.3,0L892.72,24.41Q876.37,30,865.62,46.88Z"/>
        <path d="M1195.76,235.35a525.61,525.61,0,0,0-44.78-103q-15.09,45.42-15.09,136,0,48.84,7.95,50.29,5.55-2.69,5.55-28.07,0-13.68,6.27-60.55,12.28,23.21,26.52,62.26,16.21,44.67,16.21,63,0,25.63-15.38,50.79-9,14.89-33.45,42.23l-21.24,22.22q-12.45,13.43-17.82,24.41a2.11,2.11,0,0,0,2.43,2q2.19,0,10.23-2.93,57-20.76,75.75-54.94,15.84-28.56,15.83-93.5Q1214.74,296.14,1195.76,235.35Z"/>
        <path d="M1128.07,114q0-7.32-8.78-7.32-12.21,0-12.21-3.42,0-6.09,7.32-6.1a12.13,12.13,0,0,1,4.89,1q2.43-1.69,7-10.27t5.25-12.21a15.14,15.14,0,0,0-5.4-1.69q-10.32,0-23.82,17.83t-13.5,28.32q0,9.51,9.65,9.27,7.66-.24,8.41,1.23-3.9,5.37-25.63,13.42l-29.79,10.26q0,2.92,3.17,2.93,20.52,0,44.93-11.48Q1128.07,132.08,1128.07,114Z"/>
      </g>
    </g>
  </g>
</svg>
