<svg xmlns="http://www.w3.org/2000/svg" viewBox="0 0 874.51 541.75">
  <title>EH-Asset 92-layername</title>
  <g id="Layer_2" data-name="Layer 2">
    <g id="EdDaar">
      <g>
        <path d="M268.55,317.77q0,26.24-8.05,27.69l-6.59-8.06q-6.84.25-11.23,8.07-12,20.77-25.39,54.26-11,28.11-22,56-9.27,22-28.56,43.51-20.5,23-40.77,32-23,10.51-63.24,10.51Q2,541.75,0,535.45l2.44-1.76q51.27,0,95.22-22,45.65-22.92,73.24-64.63,14.88-22.68,32-60.24l22.46-50.24q19-37.8,29.54-37.8,5.87,0,10,6.8A22.51,22.51,0,0,1,268.55,317.77Z"/>
        <path d="M424.32,394.53l-12.45,46.8q-19.55,13.26-39.56,13.26-27.58,0-37.84-30.94-5.61-17.4-6.59-53.78L326,296.14q-2.07-83-2.07-84.47,0-3.16,5.89-20.75t8.05-20.51h1.45q.72,42.24,2.93,126.22.24,23.44,5.12,69.34,9.76,47.11,37.36,47.12Q405.28,413.09,424.32,394.53Z"/>
        <path d="M735.6,240.72q0,68.85-17.34,113.77-21,53.72-71.78,88.87l12.21-45.65Q721,347.9,721,297.61q0-37.61-23.68-91.07-4.59,23.94-13.78,71.54-3.86,20.51-6.51,20.5l-2.18-.73-.48-3.17q0-19.79,10.21-74.22,10.69-58.83,18.48-67.63,13.38,8.31,23.59,40.29Q735.59,220.71,735.6,240.72Z"/>
        <path d="M783.45,33.45q-5.13,16.61-14.16,21l-85.45,42q3.9-15.14,22.95-24.66Z"/>
        <path d="M153.22,109q-4-5.27-9.64-5.27-12.47,0-25.41,12.13t-13,24.36l1,5.88a59,59,0,0,0,6.43,8.33q-29.08,17.14-57.43,24,8.31,4.88,14.43,4.88,15.66,0,51.88-23.93,15.64,6.84,25,7.08,3.92-12.5,3.67-15.68l-.25-3.68-7.3-5.39q14.66-15.43,14.65-21.57A18,18,0,0,0,153.22,109ZM134.85,137q-10.59-8.29-10.58-13.42,0-9,8.17-9c5.13,2,7.7,4.88,7.7,8.79Q140.14,128.92,134.85,137Z"/>
        <path d="M109.38,203.71q-9.52,0-9-11.39l.25-4.85-6.35,1.45q-18.08,28.86-29.3,28.85-7.81,0-7.81-9l1.71-10.91-5.06.48q-12,16.41-12,29.37l1.7,8.56q5.11,6.62,12.18,6.61,19,0,30.45-19.66,5.83,6.24,9.73,6.23,32.4,0,46-52.49l-6.11,1.46Q122.79,203.72,109.38,203.71Z"/>
        <path d="M488.77,0,419.19,24.41Q402.82,30,392.09,46.88l79.83-28.33Q481.69,15.15,488.77,0Z"/>
        <path d="M428.09,75.28q8.81,6.27,14.44,6.26,17.63,0,29.12-21.24,8.57-15.61,11-36.62l-7.57,2.2q-9.77,29.79-23.93,29.78-9.29,0-9.28-17.82L436,39.31q-18.57,32.47-30,32.47-8.55,0-8.55-11.48l.73-7.57-8.54,4.64q-6.84,18.6-6.84,25.26,0,13.8,14.2,13.81Q413.41,96.44,428.09,75.28Z"/>
        <path d="M597.17,209.23q0-4.39-9.28-10a102.53,102.53,0,0,0-13.18-6.35q-18.56,26.87-22,34.42l21.73,14.9Q589.12,223.4,597.17,209.23Z"/>
        <path d="M552.73,399.9q59.16-38.56,80.35-94.72,7.29-19.29,7.3-23.44,0-8.55-4.15-12.45a35.19,35.19,0,0,0-3.66-.25q-10.5,0-44,12.7-36.14,13.68-47.12,22.95-14.16,11.71-25.14,41.5-5.37,14.42-14.16,48.1-41.51,19-57.38,19h-9.27q14.4-23.43,14.4-38.09a44.9,44.9,0,0,0-.73-8.3l-26.86,30.71-12.2,45.09q10.48-8.13,15.38-12.81l6.59,1.23q37.59,0,65.67-7.82-.74,14.27-.49,28.76l1.23.49,1.22-.49q2.92-16.22,4.15-30.22,13.24-2.88,32.63-12.46,15.94,47.86,54.52,47.86,33.45,0,59.33-16.61L662.84,394q-29.3,22.23-73.48,22.22Q570.79,416.26,552.73,399.9Zm-42.48-9.27q7.82-33.11,18.56-45,10-10.71,42.72-23.62,30.76-12.17,42.24-12.17l4.39.49a5.29,5.29,0,0,1,1,2.93q0,4.39-26.85,25.88A421.21,421.21,0,0,1,510.25,390.63Z"/>
        <path d="M855.53,235.35a525.61,525.61,0,0,0-44.78-103q-15.11,45.42-15.1,136,0,48.84,8,50.29,5.55-2.69,5.55-28.07,0-13.68,6.27-60.55Q827.7,253.19,842,292.24q16.2,44.67,16.2,63,0,25.63-15.38,50.79-9,14.89-33.44,42.23l-21.24,22.22q-12.45,13.43-17.83,24.41a2.12,2.12,0,0,0,2.44,2q2.19,0,10.23-2.93,57-20.76,75.75-54.94,15.83-28.56,15.83-93.5Q874.51,296.14,855.53,235.35Z"/>
        <path d="M787.84,114q0-7.32-8.79-7.32-12.21,0-12.2-3.42,0-6.09,7.32-6.1a12,12,0,0,1,4.88,1q2.44-1.69,7-10.27t5.25-12.21a15.25,15.25,0,0,0-5.4-1.69Q775.54,74,762,91.8t-13.5,28.32q0,9.51,9.65,9.27,7.66-.24,8.41,1.23Q762.69,136,741,144L711.18,154.3c0,1.95,1.05,2.93,3.17,2.93q20.5,0,44.92-11.48Q787.85,132.08,787.84,114Z"/>
      </g>
    </g>
  </g>
</svg>
