<svg xmlns="http://www.w3.org/2000/svg" viewBox="0 0 775.88 660.16">
  <title>EH-Asset 94-layername</title>
  <g id="Layer_2" data-name="Layer 2">
    <g id="EnNuur">
      <g>
        <path d="M146.24,192.13q0,18.06-16.4,39.52l7.48,7.32-8.55,24.15a172.3,172.3,0,0,1-16.12-12.73Q74.81,285.64,55,285.64q-3.9,0-13.43-2.93,29.79-14.4,62.26-38.08-9.63-9.27-9.62-16.36,0-12.69,13.85-29.66t26-17Q146.24,181.64,146.24,192.13Zm-19.53,21.53q0-11.26-9.67-11.27l-3.72,1.47a11,11,0,0,0-2.72,7.35q0,4.89,11.65,14.44C125.22,220.6,126.71,216.59,126.71,213.66Z"/>
        <path d="M268.55,360.5q0,26.22-8.05,27.68l-6.59-8.05q-6.84.24-11.23,8.07-12,20.78-25.39,54.26-11,28.11-22,56-9.27,22-28.56,43.51-20.5,23-40.77,32-23,10.51-63.24,10.51Q2,584.47,0,578.18l2.44-1.76q51.27,0,95.22-21.95,45.65-22.94,73.24-64.63,14.88-22.68,32-60.24l22.46-50.24q19-37.8,29.54-37.81,5.87,0,10,6.8A22.54,22.54,0,0,1,268.55,360.5Z"/>
        <path d="M499,436.77l-12.45,46.4Q470.94,495.64,430.18,513q-8.18,36.42-39.07,78-32.22,43.51-64.45,57.45-27.11,11.73-68.12,11.74-15.62,0-46.38-5.2-36.63-5.94-37.84-12.61l2-1.48q7.32.24,23.19,2.93,15.15,2.43,23.44,2.44,16.85,0,49.32-9.52Q342.77,616,394.53,554.93q18.06-21.24,20.51-37.11-21.24,5.86-28.57,5.86-22.22,0-22.21-14.65,0-15.37,12.45-38.82,13.92-26.11,27.59-26.12,11.94,0,21.35,9.28t9.41,21.24Q476.07,457.27,499,436.77Z"/>
        <path d="M637,283.45q0,68.85-17.33,113.77-21,53.71-71.78,88.86l12.21-45.65q62.25-49.8,62.25-100.1,0-37.59-23.68-91.06Q594,273.2,584.86,320.8q-3.87,20.51-6.52,20.51l-2.17-.73-.49-3.18q0-19.77,10.22-74.22,10.7-58.83,18.48-67.62,13.36,8.3,23.58,40.28Q637,263.42,637,283.45Z"/>
        <path d="M684.81,76.17q-5.12,16.6-14.16,21l-85.44,42q3.9-15.14,22.94-24.66Z"/>
        <path d="M473.94,79.59q15.66,0,51.87-23.93,15.66,6.84,25,7.08,3.91-12.5,3.67-15.68l-.24-3.68L546.9,38q14.64-15.44,14.65-21.57a18.12,18.12,0,0,0-4-11.15Q553.49,0,547.87,0q-12.45,0-25.4,12.13t-13,24.37l1,5.87a58.3,58.3,0,0,0,6.43,8.33q-29.09,17.14-57.44,24Q467.83,79.58,473.94,79.59Zm62.8-68.85q7.69,2.94,7.69,8.79,0,5.63-5.29,13.67-10.57-8.3-10.58-13.42Q528.56,10.75,536.74,10.74Z"/>
        <path d="M490.37,119.5q5.85,6.24,9.74,6.23,32.4,0,46-52.49L540,74.7Q527.1,100,513.67,100q-9.52,0-9-11.39l.24-4.85-6.34,1.45Q480.47,114,469.24,114q-7.82,0-7.81-9l1.7-10.91-5.05.48Q446,111,446,124l1.71,8.56q5.12,6.62,12.18,6.61Q478.92,139.16,490.37,119.5Z"/>
        <path d="M518.8,294.92q-6.6-3.17-13.18-6.1-18.31,26.61-22.47,34.67l21.73,15.13q9.52-6.35,23-33Q525.88,299.07,518.8,294.92Z"/>
        <path d="M508.06,464.36q-10,0-14.16-2.69,19-26.12,19-43.95a42.5,42.5,0,0,0-.73-8.3q-13.68,15.63-26.86,30.77L473.14,485.5l6.6-5.16q9.75,18,30.76,18,19.77,0,40.28-15l12.45-46.52q-9.76,9.76-25.63,18.31Q519.77,464.37,508.06,464.36Z"/>
        <path d="M756.89,278.08a524.76,524.76,0,0,0-44.78-103Q697,220.46,697,311q0,48.82,8,50.29,5.55-2.68,5.55-28.08,0-13.67,6.27-60.54Q729.07,295.9,743.32,335q16.2,44.69,16.2,63,0,25.64-15.38,50.78-9,14.89-33.45,42.24l-21.24,22.21Q677,526.62,671.63,537.6c.16,1.3,1,1.95,2.44,1.95s4.87-1,10.23-2.93q57-20.75,75.75-54.93,15.83-28.56,15.83-93.51Q775.88,338.88,756.89,278.08Z"/>
        <path d="M689.21,156.74q0-7.32-8.79-7.33-12.21,0-12.21-3.41,0-6.1,7.33-6.11a11.88,11.88,0,0,1,4.88,1q2.43-1.69,7-10.28t5.25-12.2a15,15,0,0,0-5.4-1.69q-10.32,0-23.82,17.82T649.9,162.84q0,9.53,9.65,9.28c5.12-.16,7.92.24,8.41,1.22q-3.9,5.37-25.63,13.43L612.54,197q0,2.92,3.18,2.93,20.5,0,44.92-11.47Q689.2,174.8,689.21,156.74Z"/>
      </g>
    </g>
  </g>
</svg>
