<svg xmlns="http://www.w3.org/2000/svg" viewBox="0 0 878.66 626.46">
  <title>EH-Asset 99-layername</title>
  <g id="Layer_2" data-name="Layer 2">
    <g id="ErReshid">
      <g>
        <path d="M153.32,54.92q0,18.06-16.4,39.52l7.48,7.32-8.55,24.15a170.66,170.66,0,0,1-16.12-12.73q-37.85,35.25-57.62,35.26-3.9,0-13.43-2.93,29.79-14.4,62.26-38.09-9.63-9.27-9.62-16.36,0-12.69,13.85-29.66t26-17Q153.32,44.43,153.32,54.92ZM133.79,76.45q0-11.26-9.67-11.26l-3.72,1.46A11,11,0,0,0,117.68,74q0,4.91,11.65,14.45Q133.79,80.86,133.79,76.45Z"/>
        <path d="M314.21,360.35l-12.45,46.48a172.92,172.92,0,0,1-28.08,16q-19.77,9.34-29.78,9.34-27.1,0-27.1-40.77a112.58,112.58,0,0,1,1.46-15.87h-1.95q-1.47,0-7,6.71T188.23,418q-36.87,68.61-68.6,84.23-18.55,9-32.47,11.47-10.5,2-34.67,2a266.28,266.28,0,0,1-27.59-2q-21.24-2.5-24.9-5.5l.73-1.49,3.42-2q36.87,0,60.06-7.57t52.73-29.54q31.74-23.44,44.93-42.73,16.84-27.33,33.69-54.93,24.93-38.56,38.82-44.67l2.44,2.19.48,2.44c-.48,1.63-1.22,5.05-2.19,10.26a131.42,131.42,0,0,0-2.44,25.39q0,26.13,21.72,26.12Q276.61,391.6,314.21,360.35Z"/>
        <path d="M444.82,563.48q-5.11,16.59-14.16,21l-85.45,42q3.92-15.13,23-24.65Z"/>
        <path d="M483.15,157.23a13.26,13.26,0,0,1,8.55,3.17l1,3.89,2.66,3.18q5.32,0,14.88-13.25t9.56-19.38q0-15.21-14.76-15.21-22.84,0-53.12,39.12-29.06,37.41-30,62.35Q457.52,157.23,483.15,157.23Z"/>
        <path d="M517.82,218.17q-2.45,1.47-5.86,17.56-4.15,20-9.52,31-8.79,18.29-24.66,25.84l-1.46-.49q0-21-1.47-26.33l-1-1.71-3.42,2.44q-3.66,15.85-5.37,23.89-2.7,10-12.45,21.94-11.24,13.43-20,13.41a3.28,3.28,0,0,1-2-3.17l2.69-14.38-.73-2.19L429.44,303q-4.87,12-7.08,18.18-5.85,14-37.59,43.07l-12.21,45.16Q406,387.7,410.89,372.56q24.41,0,49.56-33.94,7.08.74,17.58-7.33,20-15.39,32.22-48.62a172.18,172.18,0,0,0,10.5-58.39C520.75,221,519.78,219,517.82,218.17Z"/>
        <path d="M666.26,360.84,653.56,408q-30.27,17.58-42.23,25.63-28.56,19.05-34.91,31.5-19.54,42.24-39.07,84.23-28.32,53.7-59.08,64-23.43,8-51.51,8-56.4,0-72.51-9.51l-.73-1.23,2-2.2a163.46,163.46,0,0,0,32,2.93q44.93,0,85-28.81,35.4-25.87,59.82-68.36,1.69-3.17,23.19-45.9,13.92-27.83,27-43.58t41.38-33.32Q655.28,371.83,666.26,360.84Z"/>
        <path d="M739.75,207.28q0,68.84-17.34,113.76-21,53.71-71.78,88.87l12.21-45.65q62.26-49.81,62.26-100.1,0-37.59-23.68-91.06-4.59,23.93-13.77,71.53-3.87,20.5-6.52,20.51L679,264.4l-.48-3.17q0-19.77,10.21-74.22,10.7-58.83,18.48-67.63,13.38,8.31,23.59,40.29Q739.74,187.26,739.75,207.28Z"/>
        <path d="M787.6,0q-5.13,16.61-14.16,21L688,63q3.9-15.14,23-24.66Z"/>
        <path d="M332.62,388.18q-10,0-14.16-2.68,18.94-26.13,18.94-43.95a42.43,42.43,0,0,0-.73-8.3Q323.08,348.88,310,364l-12.14,45.32,6.55-5.16q9.72,18,30.69,17.95,19.79,0,40.29-15L387.8,360.6q-9.76,9.76-25.64,18.31Q344.34,388.18,332.62,388.18Z"/>
        <path d="M291.75,473.39q-15.87,32.22-15.63,39.79,14.36-7.56,21.42-11.72,29.91-17.08,33.81-21,9-9,15.33-36.62-28.92,17.58-36.46,20.75Q296.12,470.71,291.75,473.39Z"/>
        <path d="M536.62,168.7q-9.29,0-9.28-17.82l-5.86,1.46q-18.56,32.47-30,32.47-8.55,0-8.55-11.47l.73-7.57-8.54,4.64q-6.84,18.6-6.84,25.25,0,13.82,14.2,13.81,16.4,0,31.08-21.15,8.81,6.26,14.44,6.26,17.63,0,29.12-21.24,8.56-15.61,11-36.62l-7.57,2.2Q550.79,168.71,536.62,168.7Z"/>
        <path d="M477.54,159.91l79.83-28.32q9.76-3.42,16.85-18.55l-69.58,24.41Q488.28,143.07,477.54,159.91Z"/>
        <path d="M859.68,201.9a525.52,525.52,0,0,0-44.78-103q-15.1,45.41-15.1,136,0,48.84,8,50.3,5.55-2.69,5.55-28.08,0-13.66,6.27-60.55,12.27,23.21,26.52,62.26,16.2,44.67,16.2,63,0,25.64-15.38,50.78-9,14.9-33.44,42.23-10.5,11-21.24,22.22-12.45,13.42-17.83,24.42a2.12,2.12,0,0,0,2.44,1.95q2.19,0,10.23-2.93,57-20.74,75.75-54.93,15.82-28.57,15.83-93.51Q878.66,262.71,859.68,201.9Z"/>
        <path d="M792,80.57q0-7.33-8.79-7.33c-8.14,0-12.2-1.13-12.2-3.42q0-6.09,7.32-6.1a11.88,11.88,0,0,1,4.88,1q2.44-1.71,7-10.28t5.25-12.2a15,15,0,0,0-5.4-1.69q-10.32,0-23.82,17.82t-13.5,28.32q0,9.52,9.65,9.28c5.11-.16,7.91.24,8.41,1.22q-3.91,5.37-25.64,13.43l-29.78,10.25c0,2,1,2.93,3.17,2.93q20.5,0,44.92-11.48Q792,98.64,792,80.57Z"/>
      </g>
    </g>
  </g>
</svg>
