<svg xmlns="http://www.w3.org/2000/svg" viewBox="0 0 887.94 712.89">
  <title>EH-Asset 9-layername</title>
  <g id="Layer_2" data-name="Layer 2">
    <g id="ElAziz">
      <g>
        <path d="M208.5,129.14q0,18.06-16.4,39.52l7.47,7.32L191,200.13a170.94,170.94,0,0,1-16.11-12.73q-37.84,35.25-57.62,35.26-3.92,0-13.43-2.93,29.77-14.4,62.25-38.09-9.62-9.27-9.62-16.36,0-12.69,13.86-29.66t26-17Q208.49,118.65,208.5,129.14ZM189,150.67q0-11.26-9.66-11.27l-3.72,1.47a11,11,0,0,0-2.73,7.35q0,4.91,11.65,14.45Q189,155.08,189,150.67Z"/>
        <path d="M261.23,305.42l-2.44-5.13q-5.37-5.12-19.78-11.23-12,17.1-22.46,34.67l22,14.89Q253.67,319.34,261.23,305.42Z"/>
        <path d="M290.53,390.63q-12,7.08-23.93,13.91Q249,414.8,229,437.74,215.33,453.37,201.42,481q-11.23,23.19-22.71,46.38a198.82,198.82,0,0,1-59.81,67.87q-40.77,29.31-84.48,29.3A160.89,160.89,0,0,1,2,621.58L0,623.78.49,625q15.87,9.27,79.59,9.27,42.23,0,70.55-25.64,21.5-19.53,40.78-60.3,15.61-34.9,31.25-70.07,5.61-11.22,35.15-31Q270,439,300.05,421.14L312.74,374A125.25,125.25,0,0,1,290.53,390.63Z"/>
        <path d="M309.81,376.71l-12.45,45.9q29-24.42,39.76-69.34,8.34-34.9,8.34-42,0-28.08-15-49.32-9.09,5.13-17.93,26.86-7.37,18.07-9.57,32.71l.49,1.71,2.68-.24a43.89,43.89,0,0,1,10.26-13.43q11,12.71,11,38.09V353Q319.1,369.88,309.81,376.71Z"/>
        <path d="M283.45,483.89Q268.3,514.16,268.31,522l.24,1.71q16.36-5.61,38.09-20.51,25.88-17.57,28.57-30.27l3.9-18.8q-34.19,20.5-36.38,21.24A196.09,196.09,0,0,0,283.45,483.89Z"/>
        <path d="M450.2,649.9q-5.13,16.61-14.16,21l-85.45,42q3.9-15.14,23-24.66Z"/>
        <path d="M537.35,390.63q-12,7.08-23.92,13.91-17.58,10.26-37.6,33.2Q462.15,453.37,448.24,481q-11.24,23.19-22.7,46.38a198.74,198.74,0,0,1-59.82,67.87q-40.77,29.31-84.47,29.3a160.82,160.82,0,0,1-32.47-2.93l-1.95,2.2.48,1.23q15.88,9.27,79.59,9.27,42.24,0,70.56-25.64,21.48-19.53,40.77-60.3,15.63-34.9,31.25-70.07,5.61-11.22,35.16-31,12.21-8.31,42.24-26.13L559.57,374A125,125,0,0,1,537.35,390.63Z"/>
        <path d="M508.06,305.42l-2.44-5.13q-5.39-5.12-19.78-11.23-12,17.1-22.46,34.67l22,14.89Q500.49,319.34,508.06,305.42Z"/>
        <path d="M616.46,98.63q-5.13,16.61-14.17,21l-85.44,42q3.9-15.13,22.94-24.66Z"/>
        <path d="M676.51,372.8l-12.69,47.31q-21.24,13.72-40.28,13.73-30.15,0-42.49-45.17Q558,413.23,544,422.79l12.27-45.31,8.1-8.32a16.94,16.94,0,0,0-12.27-5.39q-12,0-15.71,1.46,0-6.8,8.3-28.43a136.16,136.16,0,0,1,7.81-16q8.79-9.48,49.56-9.48,28.56,0,28.57,15.58,0,14.11-24.17,40.4,6.59,25.56,27.83,25.56Q653.81,392.82,676.51,372.8Z"/>
        <path d="M701.9,24.41q0,19-15.06,35.4T652.66,76.17q-20.1,0-20.09-17.58,0-19.77,14-38.33Q661.72,0,680.84,0,689.41,0,696,8.06A26.15,26.15,0,0,1,701.9,24.41ZM686,40.59q0-5.94-8-12.9t-13.87-6.94q-7.38,0-13.39,6.7t-6,14.13q0,10.67,19.15,10.67Q686,52.25,686,40.59Z"/>
        <path d="M749,220.46q0,68.85-17.33,113.77-21,53.72-71.78,88.87l12.21-45.66q62.25-49.8,62.26-100.1,0-37.59-23.69-91.06-4.59,23.92-13.77,71.53-3.87,20.51-6.52,20.51l-2.17-.73-.49-3.18q0-19.77,10.22-74.21,10.69-58.84,18.48-67.63,13.37,8.3,23.58,40.28Q749,200.45,749,220.46Z"/>
        <path d="M796.88,13.18q-5.13,16.61-14.17,21l-85.44,42q3.9-15.14,22.94-24.66Z"/>
        <path d="M801.27,93.75q0-7.32-8.79-7.32-12.21,0-12.21-3.42,0-6.11,7.33-6.11a11.88,11.88,0,0,1,4.88,1c1.63-1.13,3.94-4.56,7-10.28s4.76-9.78,5.25-12.2a15.25,15.25,0,0,0-5.4-1.69q-10.32,0-23.82,17.82T762,99.85q0,9.53,9.65,9.28c5.12-.16,7.92.25,8.42,1.22q-3.91,5.37-25.64,13.43L724.61,134c0,2,1,2.93,3.17,2.93q20.51,0,44.92-11.47Q801.26,111.82,801.27,93.75Z"/>
        <path d="M869,215.09a524.76,524.76,0,0,0-44.78-103q-15.09,45.41-15.09,136,0,48.82,8,50.29,5.55-2.68,5.55-28.08,0-13.67,6.27-60.54,12.27,23.19,26.52,62.25,16.2,44.68,16.2,63,0,25.64-15.38,50.78-9,14.89-33.45,42.24L801.51,450.2q-12.45,13.43-17.82,24.41c.16,1.3,1,1.95,2.44,1.95s4.87-1,10.23-2.93q57-20.75,75.75-54.93,15.82-28.56,15.83-93.5Q887.94,275.88,869,215.09Z"/>
      </g>
    </g>
  </g>
</svg>
